M48
;DRILL file {KiCad (5.0.1)-3} date 11/25/2018 9:56:42 PM
;FORMAT={-:-/ absolute / inch / decimal}
FMAT,2
INCH,TZ
T1C0.0118
T2C0.0157
T3C0.0197
T4C0.0300
T5C0.0394
T6C0.0512
T7C0.1063
%
G90
G05
M72
T1
X5.0028Y-2.565
X5.0028Y-2.6043
X5.0028Y-2.6437
X5.0028Y-2.6831
X5.0028Y-2.7224
X5.0421Y-2.565
X5.0421Y-2.6043
X5.0421Y-2.6437
X5.0421Y-2.6831
X5.0421Y-2.7224
X5.0815Y-2.565
X5.0815Y-2.6043
X5.0815Y-2.6437
X5.0815Y-2.6831
X5.0815Y-2.7224
X5.1209Y-2.565
X5.1209Y-2.6043
X5.1209Y-2.6437
X5.1209Y-2.6831
X5.1209Y-2.7224
X5.1602Y-2.565
X5.1602Y-2.6043
X5.1602Y-2.6437
X5.1602Y-2.6831
X5.1602Y-2.7224
X6.4862Y-2.2539
X6.4862Y-2.2933
X6.5157Y-2.2736
X6.5453Y-2.2539
X6.5453Y-2.2933
T2
X4.8094Y-2.8874
X4.813Y-2.3819
X4.8519Y-3.346
X4.8622Y-3.5925
X4.9503Y-3.346
X5.0197Y-3.8189
X5.3528Y-2.1539
X5.3528Y-2.587
X5.5118Y-2.874
X5.5217Y-2.5591
X5.561Y-3.6122
X5.561Y-3.9272
X5.5807Y-2.6181
X5.6201Y-3.3465
X5.7776Y-2.3819
X5.7972Y-2.6181
X5.9055Y-3.2579
X6.0433Y-2.3819
X6.122Y-2.2736
X6.1909Y-2.8445
X6.2205Y-3.7992
X6.2795Y-3.5925
X6.3189Y-2.6969
X6.378Y-3.0906
X6.3976Y-3.2579
X6.6339Y-2.2736
X6.6732Y-3.7697
X6.7224Y-2.9134
X6.7323Y-2.5098
X6.7323Y-3.1693
X6.7323Y-3.5728
X6.7421Y-3.0512
X6.9094Y-3.9567
X7.1949Y-3.0217
X7.1949Y-3.061
X7.1949Y-3.1299
X7.1949Y-3.1693
T3
X7.6368Y-3.8976
X7.6602Y-3.8413
X7.6602Y-3.954
X7.7165Y-3.8179
X7.7165Y-3.9774
X7.7729Y-3.8413
X7.7729Y-3.954
X7.7963Y-3.8976
X7.6368Y-2.313
X7.6602Y-2.2566
X7.6602Y-2.3694
X7.7165Y-2.2333
X7.7165Y-2.3927
X7.7729Y-2.2566
X7.7729Y-2.3694
X7.7963Y-2.313
X5.8159Y-3.4744
X5.8393Y-3.418
X5.8393Y-3.5308
X5.8957Y-3.3947
X5.8957Y-3.5541
X5.952Y-3.418
X5.952Y-3.5308
X5.9754Y-3.4744
T4
X6.9533Y-2.7059
X6.9533Y-2.8059
X6.9783Y-2.7559
X7.0033Y-2.7059
X7.0033Y-2.8059
X6.9533Y-3.3752
X6.9533Y-3.4752
X6.9783Y-3.4252
X7.0033Y-3.3752
X7.0033Y-3.4752
T5
X4.9528Y-2.0669
X5.0528Y-2.0669
X5.1528Y-2.0669
X5.2528Y-2.0669
X5.3528Y-2.0669
X5.4528Y-2.0669
T6
X7.3819Y-2.1161
X7.3819Y-2.5098
X7.3819Y-2.9035
X7.3819Y-3.2972
X7.3819Y-3.6909
X7.3819Y-4.0846
T7
X7.7165Y-3.8976
X7.7165Y-2.313
X5.8957Y-3.4744
T0
M30
