G04 #@! TF.GenerationSoftware,KiCad,Pcbnew,(5.0.1)-3*
G04 #@! TF.CreationDate,2018-11-25T21:54:18-05:00*
G04 #@! TF.ProjectId,ESP32 Windlass,45535033322057696E646C6173732E6B,rev?*
G04 #@! TF.SameCoordinates,Original*
G04 #@! TF.FileFunction,Paste,Top*
G04 #@! TF.FilePolarity,Positive*
%FSLAX46Y46*%
G04 Gerber Fmt 4.6, Leading zero omitted, Abs format (unit mm)*
G04 Created by KiCad (PCBNEW (5.0.1)-3) date 11/25/2018 9:54:18 PM*
%MOMM*%
%LPD*%
G01*
G04 APERTURE LIST*
%ADD10R,1.400000X1.600000*%
%ADD11C,0.100000*%
%ADD12C,1.425000*%
%ADD13R,2.650000X1.850000*%
%ADD14R,1.310000X0.450000*%
%ADD15R,1.600000X1.400000*%
%ADD16R,1.800000X3.500000*%
%ADD17R,1.000000X1.000000*%
%ADD18C,3.200000*%
%ADD19R,1.400000X0.300000*%
%ADD20O,0.900000X3.000000*%
%ADD21R,5.000000X5.000000*%
%ADD22O,0.230000X0.800000*%
%ADD23R,0.230000X0.230000*%
%ADD24R,1.050000X0.680000*%
%ADD25R,0.500000X0.260000*%
G04 APERTURE END LIST*
D10*
G04 #@! TO.C,K2*
X139750000Y-81250000D03*
X139750000Y-88450000D03*
X142750000Y-81250000D03*
X142750000Y-88450000D03*
G04 #@! TD*
D11*
G04 #@! TO.C,C15*
G36*
X157899504Y-76026204D02*
X157923773Y-76029804D01*
X157947571Y-76035765D01*
X157970671Y-76044030D01*
X157992849Y-76054520D01*
X158013893Y-76067133D01*
X158033598Y-76081747D01*
X158051777Y-76098223D01*
X158068253Y-76116402D01*
X158082867Y-76136107D01*
X158095480Y-76157151D01*
X158105970Y-76179329D01*
X158114235Y-76202429D01*
X158120196Y-76226227D01*
X158123796Y-76250496D01*
X158125000Y-76275000D01*
X158125000Y-77200000D01*
X158123796Y-77224504D01*
X158120196Y-77248773D01*
X158114235Y-77272571D01*
X158105970Y-77295671D01*
X158095480Y-77317849D01*
X158082867Y-77338893D01*
X158068253Y-77358598D01*
X158051777Y-77376777D01*
X158033598Y-77393253D01*
X158013893Y-77407867D01*
X157992849Y-77420480D01*
X157970671Y-77430970D01*
X157947571Y-77439235D01*
X157923773Y-77445196D01*
X157899504Y-77448796D01*
X157875000Y-77450000D01*
X156625000Y-77450000D01*
X156600496Y-77448796D01*
X156576227Y-77445196D01*
X156552429Y-77439235D01*
X156529329Y-77430970D01*
X156507151Y-77420480D01*
X156486107Y-77407867D01*
X156466402Y-77393253D01*
X156448223Y-77376777D01*
X156431747Y-77358598D01*
X156417133Y-77338893D01*
X156404520Y-77317849D01*
X156394030Y-77295671D01*
X156385765Y-77272571D01*
X156379804Y-77248773D01*
X156376204Y-77224504D01*
X156375000Y-77200000D01*
X156375000Y-76275000D01*
X156376204Y-76250496D01*
X156379804Y-76226227D01*
X156385765Y-76202429D01*
X156394030Y-76179329D01*
X156404520Y-76157151D01*
X156417133Y-76136107D01*
X156431747Y-76116402D01*
X156448223Y-76098223D01*
X156466402Y-76081747D01*
X156486107Y-76067133D01*
X156507151Y-76054520D01*
X156529329Y-76044030D01*
X156552429Y-76035765D01*
X156576227Y-76029804D01*
X156600496Y-76026204D01*
X156625000Y-76025000D01*
X157875000Y-76025000D01*
X157899504Y-76026204D01*
X157899504Y-76026204D01*
G37*
D12*
X157250000Y-76737500D03*
D11*
G36*
X157899504Y-73051204D02*
X157923773Y-73054804D01*
X157947571Y-73060765D01*
X157970671Y-73069030D01*
X157992849Y-73079520D01*
X158013893Y-73092133D01*
X158033598Y-73106747D01*
X158051777Y-73123223D01*
X158068253Y-73141402D01*
X158082867Y-73161107D01*
X158095480Y-73182151D01*
X158105970Y-73204329D01*
X158114235Y-73227429D01*
X158120196Y-73251227D01*
X158123796Y-73275496D01*
X158125000Y-73300000D01*
X158125000Y-74225000D01*
X158123796Y-74249504D01*
X158120196Y-74273773D01*
X158114235Y-74297571D01*
X158105970Y-74320671D01*
X158095480Y-74342849D01*
X158082867Y-74363893D01*
X158068253Y-74383598D01*
X158051777Y-74401777D01*
X158033598Y-74418253D01*
X158013893Y-74432867D01*
X157992849Y-74445480D01*
X157970671Y-74455970D01*
X157947571Y-74464235D01*
X157923773Y-74470196D01*
X157899504Y-74473796D01*
X157875000Y-74475000D01*
X156625000Y-74475000D01*
X156600496Y-74473796D01*
X156576227Y-74470196D01*
X156552429Y-74464235D01*
X156529329Y-74455970D01*
X156507151Y-74445480D01*
X156486107Y-74432867D01*
X156466402Y-74418253D01*
X156448223Y-74401777D01*
X156431747Y-74383598D01*
X156417133Y-74363893D01*
X156404520Y-74342849D01*
X156394030Y-74320671D01*
X156385765Y-74297571D01*
X156379804Y-74273773D01*
X156376204Y-74249504D01*
X156375000Y-74225000D01*
X156375000Y-73300000D01*
X156376204Y-73275496D01*
X156379804Y-73251227D01*
X156385765Y-73227429D01*
X156394030Y-73204329D01*
X156404520Y-73182151D01*
X156417133Y-73161107D01*
X156431747Y-73141402D01*
X156448223Y-73123223D01*
X156466402Y-73106747D01*
X156486107Y-73092133D01*
X156507151Y-73079520D01*
X156529329Y-73069030D01*
X156552429Y-73060765D01*
X156576227Y-73054804D01*
X156600496Y-73051204D01*
X156625000Y-73050000D01*
X157875000Y-73050000D01*
X157899504Y-73051204D01*
X157899504Y-73051204D01*
G37*
D12*
X157250000Y-73762500D03*
G04 #@! TD*
D13*
G04 #@! TO.C,U1*
X177250000Y-71075000D03*
X177250000Y-68925000D03*
D14*
X180100000Y-68050000D03*
X180100000Y-68700000D03*
X180100000Y-69350000D03*
X180100000Y-70000000D03*
X180100000Y-70650000D03*
X180100000Y-71300000D03*
X180100000Y-71950000D03*
X174400000Y-71950000D03*
X174400000Y-71300000D03*
X174400000Y-70650000D03*
X174405000Y-70000000D03*
X174400000Y-69350000D03*
X174400000Y-68700000D03*
X174400000Y-68050000D03*
G04 #@! TD*
G04 #@! TO.C,U2*
X174400000Y-85050000D03*
X174400000Y-85700000D03*
X174400000Y-86350000D03*
X174405000Y-87000000D03*
X174400000Y-87650000D03*
X174400000Y-88300000D03*
X174400000Y-88950000D03*
X180100000Y-88950000D03*
X180100000Y-88300000D03*
X180100000Y-87650000D03*
X180100000Y-87000000D03*
X180100000Y-86350000D03*
X180100000Y-85700000D03*
X180100000Y-85050000D03*
D13*
X177250000Y-85925000D03*
X177250000Y-88075000D03*
G04 #@! TD*
D11*
G04 #@! TO.C,C1*
G36*
X126149504Y-87551204D02*
X126173773Y-87554804D01*
X126197571Y-87560765D01*
X126220671Y-87569030D01*
X126242849Y-87579520D01*
X126263893Y-87592133D01*
X126283598Y-87606747D01*
X126301777Y-87623223D01*
X126318253Y-87641402D01*
X126332867Y-87661107D01*
X126345480Y-87682151D01*
X126355970Y-87704329D01*
X126364235Y-87727429D01*
X126370196Y-87751227D01*
X126373796Y-87775496D01*
X126375000Y-87800000D01*
X126375000Y-88725000D01*
X126373796Y-88749504D01*
X126370196Y-88773773D01*
X126364235Y-88797571D01*
X126355970Y-88820671D01*
X126345480Y-88842849D01*
X126332867Y-88863893D01*
X126318253Y-88883598D01*
X126301777Y-88901777D01*
X126283598Y-88918253D01*
X126263893Y-88932867D01*
X126242849Y-88945480D01*
X126220671Y-88955970D01*
X126197571Y-88964235D01*
X126173773Y-88970196D01*
X126149504Y-88973796D01*
X126125000Y-88975000D01*
X124875000Y-88975000D01*
X124850496Y-88973796D01*
X124826227Y-88970196D01*
X124802429Y-88964235D01*
X124779329Y-88955970D01*
X124757151Y-88945480D01*
X124736107Y-88932867D01*
X124716402Y-88918253D01*
X124698223Y-88901777D01*
X124681747Y-88883598D01*
X124667133Y-88863893D01*
X124654520Y-88842849D01*
X124644030Y-88820671D01*
X124635765Y-88797571D01*
X124629804Y-88773773D01*
X124626204Y-88749504D01*
X124625000Y-88725000D01*
X124625000Y-87800000D01*
X124626204Y-87775496D01*
X124629804Y-87751227D01*
X124635765Y-87727429D01*
X124644030Y-87704329D01*
X124654520Y-87682151D01*
X124667133Y-87661107D01*
X124681747Y-87641402D01*
X124698223Y-87623223D01*
X124716402Y-87606747D01*
X124736107Y-87592133D01*
X124757151Y-87579520D01*
X124779329Y-87569030D01*
X124802429Y-87560765D01*
X124826227Y-87554804D01*
X124850496Y-87551204D01*
X124875000Y-87550000D01*
X126125000Y-87550000D01*
X126149504Y-87551204D01*
X126149504Y-87551204D01*
G37*
D12*
X125500000Y-88262500D03*
D11*
G36*
X126149504Y-90526204D02*
X126173773Y-90529804D01*
X126197571Y-90535765D01*
X126220671Y-90544030D01*
X126242849Y-90554520D01*
X126263893Y-90567133D01*
X126283598Y-90581747D01*
X126301777Y-90598223D01*
X126318253Y-90616402D01*
X126332867Y-90636107D01*
X126345480Y-90657151D01*
X126355970Y-90679329D01*
X126364235Y-90702429D01*
X126370196Y-90726227D01*
X126373796Y-90750496D01*
X126375000Y-90775000D01*
X126375000Y-91700000D01*
X126373796Y-91724504D01*
X126370196Y-91748773D01*
X126364235Y-91772571D01*
X126355970Y-91795671D01*
X126345480Y-91817849D01*
X126332867Y-91838893D01*
X126318253Y-91858598D01*
X126301777Y-91876777D01*
X126283598Y-91893253D01*
X126263893Y-91907867D01*
X126242849Y-91920480D01*
X126220671Y-91930970D01*
X126197571Y-91939235D01*
X126173773Y-91945196D01*
X126149504Y-91948796D01*
X126125000Y-91950000D01*
X124875000Y-91950000D01*
X124850496Y-91948796D01*
X124826227Y-91945196D01*
X124802429Y-91939235D01*
X124779329Y-91930970D01*
X124757151Y-91920480D01*
X124736107Y-91907867D01*
X124716402Y-91893253D01*
X124698223Y-91876777D01*
X124681747Y-91858598D01*
X124667133Y-91838893D01*
X124654520Y-91817849D01*
X124644030Y-91795671D01*
X124635765Y-91772571D01*
X124629804Y-91748773D01*
X124626204Y-91724504D01*
X124625000Y-91700000D01*
X124625000Y-90775000D01*
X124626204Y-90750496D01*
X124629804Y-90726227D01*
X124635765Y-90702429D01*
X124644030Y-90679329D01*
X124654520Y-90657151D01*
X124667133Y-90636107D01*
X124681747Y-90616402D01*
X124698223Y-90598223D01*
X124716402Y-90581747D01*
X124736107Y-90567133D01*
X124757151Y-90554520D01*
X124779329Y-90544030D01*
X124802429Y-90535765D01*
X124826227Y-90529804D01*
X124850496Y-90526204D01*
X124875000Y-90525000D01*
X126125000Y-90525000D01*
X126149504Y-90526204D01*
X126149504Y-90526204D01*
G37*
D12*
X125500000Y-91237500D03*
G04 #@! TD*
D15*
G04 #@! TO.C,K1*
X131000000Y-94000000D03*
X123800000Y-94000000D03*
X131000000Y-97000000D03*
X123800000Y-97000000D03*
G04 #@! TD*
D11*
G04 #@! TO.C,C14*
G36*
X156149504Y-52563704D02*
X156173773Y-52567304D01*
X156197571Y-52573265D01*
X156220671Y-52581530D01*
X156242849Y-52592020D01*
X156263893Y-52604633D01*
X156283598Y-52619247D01*
X156301777Y-52635723D01*
X156318253Y-52653902D01*
X156332867Y-52673607D01*
X156345480Y-52694651D01*
X156355970Y-52716829D01*
X156364235Y-52739929D01*
X156370196Y-52763727D01*
X156373796Y-52787996D01*
X156375000Y-52812500D01*
X156375000Y-53737500D01*
X156373796Y-53762004D01*
X156370196Y-53786273D01*
X156364235Y-53810071D01*
X156355970Y-53833171D01*
X156345480Y-53855349D01*
X156332867Y-53876393D01*
X156318253Y-53896098D01*
X156301777Y-53914277D01*
X156283598Y-53930753D01*
X156263893Y-53945367D01*
X156242849Y-53957980D01*
X156220671Y-53968470D01*
X156197571Y-53976735D01*
X156173773Y-53982696D01*
X156149504Y-53986296D01*
X156125000Y-53987500D01*
X154875000Y-53987500D01*
X154850496Y-53986296D01*
X154826227Y-53982696D01*
X154802429Y-53976735D01*
X154779329Y-53968470D01*
X154757151Y-53957980D01*
X154736107Y-53945367D01*
X154716402Y-53930753D01*
X154698223Y-53914277D01*
X154681747Y-53896098D01*
X154667133Y-53876393D01*
X154654520Y-53855349D01*
X154644030Y-53833171D01*
X154635765Y-53810071D01*
X154629804Y-53786273D01*
X154626204Y-53762004D01*
X154625000Y-53737500D01*
X154625000Y-52812500D01*
X154626204Y-52787996D01*
X154629804Y-52763727D01*
X154635765Y-52739929D01*
X154644030Y-52716829D01*
X154654520Y-52694651D01*
X154667133Y-52673607D01*
X154681747Y-52653902D01*
X154698223Y-52635723D01*
X154716402Y-52619247D01*
X154736107Y-52604633D01*
X154757151Y-52592020D01*
X154779329Y-52581530D01*
X154802429Y-52573265D01*
X154826227Y-52567304D01*
X154850496Y-52563704D01*
X154875000Y-52562500D01*
X156125000Y-52562500D01*
X156149504Y-52563704D01*
X156149504Y-52563704D01*
G37*
D12*
X155500000Y-53275000D03*
D11*
G36*
X156149504Y-55538704D02*
X156173773Y-55542304D01*
X156197571Y-55548265D01*
X156220671Y-55556530D01*
X156242849Y-55567020D01*
X156263893Y-55579633D01*
X156283598Y-55594247D01*
X156301777Y-55610723D01*
X156318253Y-55628902D01*
X156332867Y-55648607D01*
X156345480Y-55669651D01*
X156355970Y-55691829D01*
X156364235Y-55714929D01*
X156370196Y-55738727D01*
X156373796Y-55762996D01*
X156375000Y-55787500D01*
X156375000Y-56712500D01*
X156373796Y-56737004D01*
X156370196Y-56761273D01*
X156364235Y-56785071D01*
X156355970Y-56808171D01*
X156345480Y-56830349D01*
X156332867Y-56851393D01*
X156318253Y-56871098D01*
X156301777Y-56889277D01*
X156283598Y-56905753D01*
X156263893Y-56920367D01*
X156242849Y-56932980D01*
X156220671Y-56943470D01*
X156197571Y-56951735D01*
X156173773Y-56957696D01*
X156149504Y-56961296D01*
X156125000Y-56962500D01*
X154875000Y-56962500D01*
X154850496Y-56961296D01*
X154826227Y-56957696D01*
X154802429Y-56951735D01*
X154779329Y-56943470D01*
X154757151Y-56932980D01*
X154736107Y-56920367D01*
X154716402Y-56905753D01*
X154698223Y-56889277D01*
X154681747Y-56871098D01*
X154667133Y-56851393D01*
X154654520Y-56830349D01*
X154644030Y-56808171D01*
X154635765Y-56785071D01*
X154629804Y-56761273D01*
X154626204Y-56737004D01*
X154625000Y-56712500D01*
X154625000Y-55787500D01*
X154626204Y-55762996D01*
X154629804Y-55738727D01*
X154635765Y-55714929D01*
X154644030Y-55691829D01*
X154654520Y-55669651D01*
X154667133Y-55648607D01*
X154681747Y-55628902D01*
X154698223Y-55610723D01*
X154716402Y-55594247D01*
X154736107Y-55579633D01*
X154757151Y-55567020D01*
X154779329Y-55556530D01*
X154802429Y-55548265D01*
X154826227Y-55542304D01*
X154850496Y-55538704D01*
X154875000Y-55537500D01*
X156125000Y-55537500D01*
X156149504Y-55538704D01*
X156149504Y-55538704D01*
G37*
D12*
X155500000Y-56250000D03*
G04 #@! TD*
D11*
G04 #@! TO.C,C12*
G36*
X174158635Y-54002580D02*
X174182904Y-54006180D01*
X174206702Y-54012141D01*
X174229802Y-54020406D01*
X174251980Y-54030896D01*
X174273024Y-54043509D01*
X174292729Y-54058123D01*
X174310908Y-54074599D01*
X174327384Y-54092778D01*
X174341998Y-54112483D01*
X174354611Y-54133527D01*
X174365101Y-54155705D01*
X174373366Y-54178805D01*
X174379327Y-54202603D01*
X174382927Y-54226872D01*
X174384131Y-54251376D01*
X174384131Y-55176376D01*
X174382927Y-55200880D01*
X174379327Y-55225149D01*
X174373366Y-55248947D01*
X174365101Y-55272047D01*
X174354611Y-55294225D01*
X174341998Y-55315269D01*
X174327384Y-55334974D01*
X174310908Y-55353153D01*
X174292729Y-55369629D01*
X174273024Y-55384243D01*
X174251980Y-55396856D01*
X174229802Y-55407346D01*
X174206702Y-55415611D01*
X174182904Y-55421572D01*
X174158635Y-55425172D01*
X174134131Y-55426376D01*
X172884131Y-55426376D01*
X172859627Y-55425172D01*
X172835358Y-55421572D01*
X172811560Y-55415611D01*
X172788460Y-55407346D01*
X172766282Y-55396856D01*
X172745238Y-55384243D01*
X172725533Y-55369629D01*
X172707354Y-55353153D01*
X172690878Y-55334974D01*
X172676264Y-55315269D01*
X172663651Y-55294225D01*
X172653161Y-55272047D01*
X172644896Y-55248947D01*
X172638935Y-55225149D01*
X172635335Y-55200880D01*
X172634131Y-55176376D01*
X172634131Y-54251376D01*
X172635335Y-54226872D01*
X172638935Y-54202603D01*
X172644896Y-54178805D01*
X172653161Y-54155705D01*
X172663651Y-54133527D01*
X172676264Y-54112483D01*
X172690878Y-54092778D01*
X172707354Y-54074599D01*
X172725533Y-54058123D01*
X172745238Y-54043509D01*
X172766282Y-54030896D01*
X172788460Y-54020406D01*
X172811560Y-54012141D01*
X172835358Y-54006180D01*
X172859627Y-54002580D01*
X172884131Y-54001376D01*
X174134131Y-54001376D01*
X174158635Y-54002580D01*
X174158635Y-54002580D01*
G37*
D12*
X173509131Y-54713876D03*
D11*
G36*
X174158635Y-56977580D02*
X174182904Y-56981180D01*
X174206702Y-56987141D01*
X174229802Y-56995406D01*
X174251980Y-57005896D01*
X174273024Y-57018509D01*
X174292729Y-57033123D01*
X174310908Y-57049599D01*
X174327384Y-57067778D01*
X174341998Y-57087483D01*
X174354611Y-57108527D01*
X174365101Y-57130705D01*
X174373366Y-57153805D01*
X174379327Y-57177603D01*
X174382927Y-57201872D01*
X174384131Y-57226376D01*
X174384131Y-58151376D01*
X174382927Y-58175880D01*
X174379327Y-58200149D01*
X174373366Y-58223947D01*
X174365101Y-58247047D01*
X174354611Y-58269225D01*
X174341998Y-58290269D01*
X174327384Y-58309974D01*
X174310908Y-58328153D01*
X174292729Y-58344629D01*
X174273024Y-58359243D01*
X174251980Y-58371856D01*
X174229802Y-58382346D01*
X174206702Y-58390611D01*
X174182904Y-58396572D01*
X174158635Y-58400172D01*
X174134131Y-58401376D01*
X172884131Y-58401376D01*
X172859627Y-58400172D01*
X172835358Y-58396572D01*
X172811560Y-58390611D01*
X172788460Y-58382346D01*
X172766282Y-58371856D01*
X172745238Y-58359243D01*
X172725533Y-58344629D01*
X172707354Y-58328153D01*
X172690878Y-58309974D01*
X172676264Y-58290269D01*
X172663651Y-58269225D01*
X172653161Y-58247047D01*
X172644896Y-58223947D01*
X172638935Y-58200149D01*
X172635335Y-58175880D01*
X172634131Y-58151376D01*
X172634131Y-57226376D01*
X172635335Y-57201872D01*
X172638935Y-57177603D01*
X172644896Y-57153805D01*
X172653161Y-57130705D01*
X172663651Y-57108527D01*
X172676264Y-57087483D01*
X172690878Y-57067778D01*
X172707354Y-57049599D01*
X172725533Y-57033123D01*
X172745238Y-57018509D01*
X172766282Y-57005896D01*
X172788460Y-56995406D01*
X172811560Y-56987141D01*
X172835358Y-56981180D01*
X172859627Y-56977580D01*
X172884131Y-56976376D01*
X174134131Y-56976376D01*
X174158635Y-56977580D01*
X174158635Y-56977580D01*
G37*
D12*
X173509131Y-57688876D03*
G04 #@! TD*
D11*
G04 #@! TO.C,C11*
G36*
X171158635Y-56977580D02*
X171182904Y-56981180D01*
X171206702Y-56987141D01*
X171229802Y-56995406D01*
X171251980Y-57005896D01*
X171273024Y-57018509D01*
X171292729Y-57033123D01*
X171310908Y-57049599D01*
X171327384Y-57067778D01*
X171341998Y-57087483D01*
X171354611Y-57108527D01*
X171365101Y-57130705D01*
X171373366Y-57153805D01*
X171379327Y-57177603D01*
X171382927Y-57201872D01*
X171384131Y-57226376D01*
X171384131Y-58151376D01*
X171382927Y-58175880D01*
X171379327Y-58200149D01*
X171373366Y-58223947D01*
X171365101Y-58247047D01*
X171354611Y-58269225D01*
X171341998Y-58290269D01*
X171327384Y-58309974D01*
X171310908Y-58328153D01*
X171292729Y-58344629D01*
X171273024Y-58359243D01*
X171251980Y-58371856D01*
X171229802Y-58382346D01*
X171206702Y-58390611D01*
X171182904Y-58396572D01*
X171158635Y-58400172D01*
X171134131Y-58401376D01*
X169884131Y-58401376D01*
X169859627Y-58400172D01*
X169835358Y-58396572D01*
X169811560Y-58390611D01*
X169788460Y-58382346D01*
X169766282Y-58371856D01*
X169745238Y-58359243D01*
X169725533Y-58344629D01*
X169707354Y-58328153D01*
X169690878Y-58309974D01*
X169676264Y-58290269D01*
X169663651Y-58269225D01*
X169653161Y-58247047D01*
X169644896Y-58223947D01*
X169638935Y-58200149D01*
X169635335Y-58175880D01*
X169634131Y-58151376D01*
X169634131Y-57226376D01*
X169635335Y-57201872D01*
X169638935Y-57177603D01*
X169644896Y-57153805D01*
X169653161Y-57130705D01*
X169663651Y-57108527D01*
X169676264Y-57087483D01*
X169690878Y-57067778D01*
X169707354Y-57049599D01*
X169725533Y-57033123D01*
X169745238Y-57018509D01*
X169766282Y-57005896D01*
X169788460Y-56995406D01*
X169811560Y-56987141D01*
X169835358Y-56981180D01*
X169859627Y-56977580D01*
X169884131Y-56976376D01*
X171134131Y-56976376D01*
X171158635Y-56977580D01*
X171158635Y-56977580D01*
G37*
D12*
X170509131Y-57688876D03*
D11*
G36*
X171158635Y-54002580D02*
X171182904Y-54006180D01*
X171206702Y-54012141D01*
X171229802Y-54020406D01*
X171251980Y-54030896D01*
X171273024Y-54043509D01*
X171292729Y-54058123D01*
X171310908Y-54074599D01*
X171327384Y-54092778D01*
X171341998Y-54112483D01*
X171354611Y-54133527D01*
X171365101Y-54155705D01*
X171373366Y-54178805D01*
X171379327Y-54202603D01*
X171382927Y-54226872D01*
X171384131Y-54251376D01*
X171384131Y-55176376D01*
X171382927Y-55200880D01*
X171379327Y-55225149D01*
X171373366Y-55248947D01*
X171365101Y-55272047D01*
X171354611Y-55294225D01*
X171341998Y-55315269D01*
X171327384Y-55334974D01*
X171310908Y-55353153D01*
X171292729Y-55369629D01*
X171273024Y-55384243D01*
X171251980Y-55396856D01*
X171229802Y-55407346D01*
X171206702Y-55415611D01*
X171182904Y-55421572D01*
X171158635Y-55425172D01*
X171134131Y-55426376D01*
X169884131Y-55426376D01*
X169859627Y-55425172D01*
X169835358Y-55421572D01*
X169811560Y-55415611D01*
X169788460Y-55407346D01*
X169766282Y-55396856D01*
X169745238Y-55384243D01*
X169725533Y-55369629D01*
X169707354Y-55353153D01*
X169690878Y-55334974D01*
X169676264Y-55315269D01*
X169663651Y-55294225D01*
X169653161Y-55272047D01*
X169644896Y-55248947D01*
X169638935Y-55225149D01*
X169635335Y-55200880D01*
X169634131Y-55176376D01*
X169634131Y-54251376D01*
X169635335Y-54226872D01*
X169638935Y-54202603D01*
X169644896Y-54178805D01*
X169653161Y-54155705D01*
X169663651Y-54133527D01*
X169676264Y-54112483D01*
X169690878Y-54092778D01*
X169707354Y-54074599D01*
X169725533Y-54058123D01*
X169745238Y-54043509D01*
X169766282Y-54030896D01*
X169788460Y-54020406D01*
X169811560Y-54012141D01*
X169835358Y-54006180D01*
X169859627Y-54002580D01*
X169884131Y-54001376D01*
X171134131Y-54001376D01*
X171158635Y-54002580D01*
X171158635Y-54002580D01*
G37*
D12*
X170509131Y-54713876D03*
G04 #@! TD*
D11*
G04 #@! TO.C,C10*
G36*
X170237004Y-77876204D02*
X170261273Y-77879804D01*
X170285071Y-77885765D01*
X170308171Y-77894030D01*
X170330349Y-77904520D01*
X170351393Y-77917133D01*
X170371098Y-77931747D01*
X170389277Y-77948223D01*
X170405753Y-77966402D01*
X170420367Y-77986107D01*
X170432980Y-78007151D01*
X170443470Y-78029329D01*
X170451735Y-78052429D01*
X170457696Y-78076227D01*
X170461296Y-78100496D01*
X170462500Y-78125000D01*
X170462500Y-79375000D01*
X170461296Y-79399504D01*
X170457696Y-79423773D01*
X170451735Y-79447571D01*
X170443470Y-79470671D01*
X170432980Y-79492849D01*
X170420367Y-79513893D01*
X170405753Y-79533598D01*
X170389277Y-79551777D01*
X170371098Y-79568253D01*
X170351393Y-79582867D01*
X170330349Y-79595480D01*
X170308171Y-79605970D01*
X170285071Y-79614235D01*
X170261273Y-79620196D01*
X170237004Y-79623796D01*
X170212500Y-79625000D01*
X169287500Y-79625000D01*
X169262996Y-79623796D01*
X169238727Y-79620196D01*
X169214929Y-79614235D01*
X169191829Y-79605970D01*
X169169651Y-79595480D01*
X169148607Y-79582867D01*
X169128902Y-79568253D01*
X169110723Y-79551777D01*
X169094247Y-79533598D01*
X169079633Y-79513893D01*
X169067020Y-79492849D01*
X169056530Y-79470671D01*
X169048265Y-79447571D01*
X169042304Y-79423773D01*
X169038704Y-79399504D01*
X169037500Y-79375000D01*
X169037500Y-78125000D01*
X169038704Y-78100496D01*
X169042304Y-78076227D01*
X169048265Y-78052429D01*
X169056530Y-78029329D01*
X169067020Y-78007151D01*
X169079633Y-77986107D01*
X169094247Y-77966402D01*
X169110723Y-77948223D01*
X169128902Y-77931747D01*
X169148607Y-77917133D01*
X169169651Y-77904520D01*
X169191829Y-77894030D01*
X169214929Y-77885765D01*
X169238727Y-77879804D01*
X169262996Y-77876204D01*
X169287500Y-77875000D01*
X170212500Y-77875000D01*
X170237004Y-77876204D01*
X170237004Y-77876204D01*
G37*
D12*
X169750000Y-78750000D03*
D11*
G36*
X167262004Y-77876204D02*
X167286273Y-77879804D01*
X167310071Y-77885765D01*
X167333171Y-77894030D01*
X167355349Y-77904520D01*
X167376393Y-77917133D01*
X167396098Y-77931747D01*
X167414277Y-77948223D01*
X167430753Y-77966402D01*
X167445367Y-77986107D01*
X167457980Y-78007151D01*
X167468470Y-78029329D01*
X167476735Y-78052429D01*
X167482696Y-78076227D01*
X167486296Y-78100496D01*
X167487500Y-78125000D01*
X167487500Y-79375000D01*
X167486296Y-79399504D01*
X167482696Y-79423773D01*
X167476735Y-79447571D01*
X167468470Y-79470671D01*
X167457980Y-79492849D01*
X167445367Y-79513893D01*
X167430753Y-79533598D01*
X167414277Y-79551777D01*
X167396098Y-79568253D01*
X167376393Y-79582867D01*
X167355349Y-79595480D01*
X167333171Y-79605970D01*
X167310071Y-79614235D01*
X167286273Y-79620196D01*
X167262004Y-79623796D01*
X167237500Y-79625000D01*
X166312500Y-79625000D01*
X166287996Y-79623796D01*
X166263727Y-79620196D01*
X166239929Y-79614235D01*
X166216829Y-79605970D01*
X166194651Y-79595480D01*
X166173607Y-79582867D01*
X166153902Y-79568253D01*
X166135723Y-79551777D01*
X166119247Y-79533598D01*
X166104633Y-79513893D01*
X166092020Y-79492849D01*
X166081530Y-79470671D01*
X166073265Y-79447571D01*
X166067304Y-79423773D01*
X166063704Y-79399504D01*
X166062500Y-79375000D01*
X166062500Y-78125000D01*
X166063704Y-78100496D01*
X166067304Y-78076227D01*
X166073265Y-78052429D01*
X166081530Y-78029329D01*
X166092020Y-78007151D01*
X166104633Y-77986107D01*
X166119247Y-77966402D01*
X166135723Y-77948223D01*
X166153902Y-77931747D01*
X166173607Y-77917133D01*
X166194651Y-77904520D01*
X166216829Y-77894030D01*
X166239929Y-77885765D01*
X166263727Y-77879804D01*
X166287996Y-77876204D01*
X166312500Y-77875000D01*
X167237500Y-77875000D01*
X167262004Y-77876204D01*
X167262004Y-77876204D01*
G37*
D12*
X166775000Y-78750000D03*
G04 #@! TD*
D11*
G04 #@! TO.C,C9*
G36*
X167249504Y-75376204D02*
X167273773Y-75379804D01*
X167297571Y-75385765D01*
X167320671Y-75394030D01*
X167342849Y-75404520D01*
X167363893Y-75417133D01*
X167383598Y-75431747D01*
X167401777Y-75448223D01*
X167418253Y-75466402D01*
X167432867Y-75486107D01*
X167445480Y-75507151D01*
X167455970Y-75529329D01*
X167464235Y-75552429D01*
X167470196Y-75576227D01*
X167473796Y-75600496D01*
X167475000Y-75625000D01*
X167475000Y-76875000D01*
X167473796Y-76899504D01*
X167470196Y-76923773D01*
X167464235Y-76947571D01*
X167455970Y-76970671D01*
X167445480Y-76992849D01*
X167432867Y-77013893D01*
X167418253Y-77033598D01*
X167401777Y-77051777D01*
X167383598Y-77068253D01*
X167363893Y-77082867D01*
X167342849Y-77095480D01*
X167320671Y-77105970D01*
X167297571Y-77114235D01*
X167273773Y-77120196D01*
X167249504Y-77123796D01*
X167225000Y-77125000D01*
X166300000Y-77125000D01*
X166275496Y-77123796D01*
X166251227Y-77120196D01*
X166227429Y-77114235D01*
X166204329Y-77105970D01*
X166182151Y-77095480D01*
X166161107Y-77082867D01*
X166141402Y-77068253D01*
X166123223Y-77051777D01*
X166106747Y-77033598D01*
X166092133Y-77013893D01*
X166079520Y-76992849D01*
X166069030Y-76970671D01*
X166060765Y-76947571D01*
X166054804Y-76923773D01*
X166051204Y-76899504D01*
X166050000Y-76875000D01*
X166050000Y-75625000D01*
X166051204Y-75600496D01*
X166054804Y-75576227D01*
X166060765Y-75552429D01*
X166069030Y-75529329D01*
X166079520Y-75507151D01*
X166092133Y-75486107D01*
X166106747Y-75466402D01*
X166123223Y-75448223D01*
X166141402Y-75431747D01*
X166161107Y-75417133D01*
X166182151Y-75404520D01*
X166204329Y-75394030D01*
X166227429Y-75385765D01*
X166251227Y-75379804D01*
X166275496Y-75376204D01*
X166300000Y-75375000D01*
X167225000Y-75375000D01*
X167249504Y-75376204D01*
X167249504Y-75376204D01*
G37*
D12*
X166762500Y-76250000D03*
D11*
G36*
X170224504Y-75376204D02*
X170248773Y-75379804D01*
X170272571Y-75385765D01*
X170295671Y-75394030D01*
X170317849Y-75404520D01*
X170338893Y-75417133D01*
X170358598Y-75431747D01*
X170376777Y-75448223D01*
X170393253Y-75466402D01*
X170407867Y-75486107D01*
X170420480Y-75507151D01*
X170430970Y-75529329D01*
X170439235Y-75552429D01*
X170445196Y-75576227D01*
X170448796Y-75600496D01*
X170450000Y-75625000D01*
X170450000Y-76875000D01*
X170448796Y-76899504D01*
X170445196Y-76923773D01*
X170439235Y-76947571D01*
X170430970Y-76970671D01*
X170420480Y-76992849D01*
X170407867Y-77013893D01*
X170393253Y-77033598D01*
X170376777Y-77051777D01*
X170358598Y-77068253D01*
X170338893Y-77082867D01*
X170317849Y-77095480D01*
X170295671Y-77105970D01*
X170272571Y-77114235D01*
X170248773Y-77120196D01*
X170224504Y-77123796D01*
X170200000Y-77125000D01*
X169275000Y-77125000D01*
X169250496Y-77123796D01*
X169226227Y-77120196D01*
X169202429Y-77114235D01*
X169179329Y-77105970D01*
X169157151Y-77095480D01*
X169136107Y-77082867D01*
X169116402Y-77068253D01*
X169098223Y-77051777D01*
X169081747Y-77033598D01*
X169067133Y-77013893D01*
X169054520Y-76992849D01*
X169044030Y-76970671D01*
X169035765Y-76947571D01*
X169029804Y-76923773D01*
X169026204Y-76899504D01*
X169025000Y-76875000D01*
X169025000Y-75625000D01*
X169026204Y-75600496D01*
X169029804Y-75576227D01*
X169035765Y-75552429D01*
X169044030Y-75529329D01*
X169054520Y-75507151D01*
X169067133Y-75486107D01*
X169081747Y-75466402D01*
X169098223Y-75448223D01*
X169116402Y-75431747D01*
X169136107Y-75417133D01*
X169157151Y-75404520D01*
X169179329Y-75394030D01*
X169202429Y-75385765D01*
X169226227Y-75379804D01*
X169250496Y-75376204D01*
X169275000Y-75375000D01*
X170200000Y-75375000D01*
X170224504Y-75376204D01*
X170224504Y-75376204D01*
G37*
D12*
X169737500Y-76250000D03*
G04 #@! TD*
D11*
G04 #@! TO.C,C8*
G36*
X181649504Y-79288704D02*
X181673773Y-79292304D01*
X181697571Y-79298265D01*
X181720671Y-79306530D01*
X181742849Y-79317020D01*
X181763893Y-79329633D01*
X181783598Y-79344247D01*
X181801777Y-79360723D01*
X181818253Y-79378902D01*
X181832867Y-79398607D01*
X181845480Y-79419651D01*
X181855970Y-79441829D01*
X181864235Y-79464929D01*
X181870196Y-79488727D01*
X181873796Y-79512996D01*
X181875000Y-79537500D01*
X181875000Y-80462500D01*
X181873796Y-80487004D01*
X181870196Y-80511273D01*
X181864235Y-80535071D01*
X181855970Y-80558171D01*
X181845480Y-80580349D01*
X181832867Y-80601393D01*
X181818253Y-80621098D01*
X181801777Y-80639277D01*
X181783598Y-80655753D01*
X181763893Y-80670367D01*
X181742849Y-80682980D01*
X181720671Y-80693470D01*
X181697571Y-80701735D01*
X181673773Y-80707696D01*
X181649504Y-80711296D01*
X181625000Y-80712500D01*
X180375000Y-80712500D01*
X180350496Y-80711296D01*
X180326227Y-80707696D01*
X180302429Y-80701735D01*
X180279329Y-80693470D01*
X180257151Y-80682980D01*
X180236107Y-80670367D01*
X180216402Y-80655753D01*
X180198223Y-80639277D01*
X180181747Y-80621098D01*
X180167133Y-80601393D01*
X180154520Y-80580349D01*
X180144030Y-80558171D01*
X180135765Y-80535071D01*
X180129804Y-80511273D01*
X180126204Y-80487004D01*
X180125000Y-80462500D01*
X180125000Y-79537500D01*
X180126204Y-79512996D01*
X180129804Y-79488727D01*
X180135765Y-79464929D01*
X180144030Y-79441829D01*
X180154520Y-79419651D01*
X180167133Y-79398607D01*
X180181747Y-79378902D01*
X180198223Y-79360723D01*
X180216402Y-79344247D01*
X180236107Y-79329633D01*
X180257151Y-79317020D01*
X180279329Y-79306530D01*
X180302429Y-79298265D01*
X180326227Y-79292304D01*
X180350496Y-79288704D01*
X180375000Y-79287500D01*
X181625000Y-79287500D01*
X181649504Y-79288704D01*
X181649504Y-79288704D01*
G37*
D12*
X181000000Y-80000000D03*
D11*
G36*
X181649504Y-82263704D02*
X181673773Y-82267304D01*
X181697571Y-82273265D01*
X181720671Y-82281530D01*
X181742849Y-82292020D01*
X181763893Y-82304633D01*
X181783598Y-82319247D01*
X181801777Y-82335723D01*
X181818253Y-82353902D01*
X181832867Y-82373607D01*
X181845480Y-82394651D01*
X181855970Y-82416829D01*
X181864235Y-82439929D01*
X181870196Y-82463727D01*
X181873796Y-82487996D01*
X181875000Y-82512500D01*
X181875000Y-83437500D01*
X181873796Y-83462004D01*
X181870196Y-83486273D01*
X181864235Y-83510071D01*
X181855970Y-83533171D01*
X181845480Y-83555349D01*
X181832867Y-83576393D01*
X181818253Y-83596098D01*
X181801777Y-83614277D01*
X181783598Y-83630753D01*
X181763893Y-83645367D01*
X181742849Y-83657980D01*
X181720671Y-83668470D01*
X181697571Y-83676735D01*
X181673773Y-83682696D01*
X181649504Y-83686296D01*
X181625000Y-83687500D01*
X180375000Y-83687500D01*
X180350496Y-83686296D01*
X180326227Y-83682696D01*
X180302429Y-83676735D01*
X180279329Y-83668470D01*
X180257151Y-83657980D01*
X180236107Y-83645367D01*
X180216402Y-83630753D01*
X180198223Y-83614277D01*
X180181747Y-83596098D01*
X180167133Y-83576393D01*
X180154520Y-83555349D01*
X180144030Y-83533171D01*
X180135765Y-83510071D01*
X180129804Y-83486273D01*
X180126204Y-83462004D01*
X180125000Y-83437500D01*
X180125000Y-82512500D01*
X180126204Y-82487996D01*
X180129804Y-82463727D01*
X180135765Y-82439929D01*
X180144030Y-82416829D01*
X180154520Y-82394651D01*
X180167133Y-82373607D01*
X180181747Y-82353902D01*
X180198223Y-82335723D01*
X180216402Y-82319247D01*
X180236107Y-82304633D01*
X180257151Y-82292020D01*
X180279329Y-82281530D01*
X180302429Y-82273265D01*
X180326227Y-82267304D01*
X180350496Y-82263704D01*
X180375000Y-82262500D01*
X181625000Y-82262500D01*
X181649504Y-82263704D01*
X181649504Y-82263704D01*
G37*
D12*
X181000000Y-82975000D03*
G04 #@! TD*
D11*
G04 #@! TO.C,C7*
G36*
X181649504Y-73563704D02*
X181673773Y-73567304D01*
X181697571Y-73573265D01*
X181720671Y-73581530D01*
X181742849Y-73592020D01*
X181763893Y-73604633D01*
X181783598Y-73619247D01*
X181801777Y-73635723D01*
X181818253Y-73653902D01*
X181832867Y-73673607D01*
X181845480Y-73694651D01*
X181855970Y-73716829D01*
X181864235Y-73739929D01*
X181870196Y-73763727D01*
X181873796Y-73787996D01*
X181875000Y-73812500D01*
X181875000Y-74737500D01*
X181873796Y-74762004D01*
X181870196Y-74786273D01*
X181864235Y-74810071D01*
X181855970Y-74833171D01*
X181845480Y-74855349D01*
X181832867Y-74876393D01*
X181818253Y-74896098D01*
X181801777Y-74914277D01*
X181783598Y-74930753D01*
X181763893Y-74945367D01*
X181742849Y-74957980D01*
X181720671Y-74968470D01*
X181697571Y-74976735D01*
X181673773Y-74982696D01*
X181649504Y-74986296D01*
X181625000Y-74987500D01*
X180375000Y-74987500D01*
X180350496Y-74986296D01*
X180326227Y-74982696D01*
X180302429Y-74976735D01*
X180279329Y-74968470D01*
X180257151Y-74957980D01*
X180236107Y-74945367D01*
X180216402Y-74930753D01*
X180198223Y-74914277D01*
X180181747Y-74896098D01*
X180167133Y-74876393D01*
X180154520Y-74855349D01*
X180144030Y-74833171D01*
X180135765Y-74810071D01*
X180129804Y-74786273D01*
X180126204Y-74762004D01*
X180125000Y-74737500D01*
X180125000Y-73812500D01*
X180126204Y-73787996D01*
X180129804Y-73763727D01*
X180135765Y-73739929D01*
X180144030Y-73716829D01*
X180154520Y-73694651D01*
X180167133Y-73673607D01*
X180181747Y-73653902D01*
X180198223Y-73635723D01*
X180216402Y-73619247D01*
X180236107Y-73604633D01*
X180257151Y-73592020D01*
X180279329Y-73581530D01*
X180302429Y-73573265D01*
X180326227Y-73567304D01*
X180350496Y-73563704D01*
X180375000Y-73562500D01*
X181625000Y-73562500D01*
X181649504Y-73563704D01*
X181649504Y-73563704D01*
G37*
D12*
X181000000Y-74275000D03*
D11*
G36*
X181649504Y-76538704D02*
X181673773Y-76542304D01*
X181697571Y-76548265D01*
X181720671Y-76556530D01*
X181742849Y-76567020D01*
X181763893Y-76579633D01*
X181783598Y-76594247D01*
X181801777Y-76610723D01*
X181818253Y-76628902D01*
X181832867Y-76648607D01*
X181845480Y-76669651D01*
X181855970Y-76691829D01*
X181864235Y-76714929D01*
X181870196Y-76738727D01*
X181873796Y-76762996D01*
X181875000Y-76787500D01*
X181875000Y-77712500D01*
X181873796Y-77737004D01*
X181870196Y-77761273D01*
X181864235Y-77785071D01*
X181855970Y-77808171D01*
X181845480Y-77830349D01*
X181832867Y-77851393D01*
X181818253Y-77871098D01*
X181801777Y-77889277D01*
X181783598Y-77905753D01*
X181763893Y-77920367D01*
X181742849Y-77932980D01*
X181720671Y-77943470D01*
X181697571Y-77951735D01*
X181673773Y-77957696D01*
X181649504Y-77961296D01*
X181625000Y-77962500D01*
X180375000Y-77962500D01*
X180350496Y-77961296D01*
X180326227Y-77957696D01*
X180302429Y-77951735D01*
X180279329Y-77943470D01*
X180257151Y-77932980D01*
X180236107Y-77920367D01*
X180216402Y-77905753D01*
X180198223Y-77889277D01*
X180181747Y-77871098D01*
X180167133Y-77851393D01*
X180154520Y-77830349D01*
X180144030Y-77808171D01*
X180135765Y-77785071D01*
X180129804Y-77761273D01*
X180126204Y-77737004D01*
X180125000Y-77712500D01*
X180125000Y-76787500D01*
X180126204Y-76762996D01*
X180129804Y-76738727D01*
X180135765Y-76714929D01*
X180144030Y-76691829D01*
X180154520Y-76669651D01*
X180167133Y-76648607D01*
X180181747Y-76628902D01*
X180198223Y-76610723D01*
X180216402Y-76594247D01*
X180236107Y-76579633D01*
X180257151Y-76567020D01*
X180279329Y-76556530D01*
X180302429Y-76548265D01*
X180326227Y-76542304D01*
X180350496Y-76538704D01*
X180375000Y-76537500D01*
X181625000Y-76537500D01*
X181649504Y-76538704D01*
X181649504Y-76538704D01*
G37*
D12*
X181000000Y-77250000D03*
G04 #@! TD*
D11*
G04 #@! TO.C,C2*
G36*
X134649504Y-96288704D02*
X134673773Y-96292304D01*
X134697571Y-96298265D01*
X134720671Y-96306530D01*
X134742849Y-96317020D01*
X134763893Y-96329633D01*
X134783598Y-96344247D01*
X134801777Y-96360723D01*
X134818253Y-96378902D01*
X134832867Y-96398607D01*
X134845480Y-96419651D01*
X134855970Y-96441829D01*
X134864235Y-96464929D01*
X134870196Y-96488727D01*
X134873796Y-96512996D01*
X134875000Y-96537500D01*
X134875000Y-97462500D01*
X134873796Y-97487004D01*
X134870196Y-97511273D01*
X134864235Y-97535071D01*
X134855970Y-97558171D01*
X134845480Y-97580349D01*
X134832867Y-97601393D01*
X134818253Y-97621098D01*
X134801777Y-97639277D01*
X134783598Y-97655753D01*
X134763893Y-97670367D01*
X134742849Y-97682980D01*
X134720671Y-97693470D01*
X134697571Y-97701735D01*
X134673773Y-97707696D01*
X134649504Y-97711296D01*
X134625000Y-97712500D01*
X133375000Y-97712500D01*
X133350496Y-97711296D01*
X133326227Y-97707696D01*
X133302429Y-97701735D01*
X133279329Y-97693470D01*
X133257151Y-97682980D01*
X133236107Y-97670367D01*
X133216402Y-97655753D01*
X133198223Y-97639277D01*
X133181747Y-97621098D01*
X133167133Y-97601393D01*
X133154520Y-97580349D01*
X133144030Y-97558171D01*
X133135765Y-97535071D01*
X133129804Y-97511273D01*
X133126204Y-97487004D01*
X133125000Y-97462500D01*
X133125000Y-96537500D01*
X133126204Y-96512996D01*
X133129804Y-96488727D01*
X133135765Y-96464929D01*
X133144030Y-96441829D01*
X133154520Y-96419651D01*
X133167133Y-96398607D01*
X133181747Y-96378902D01*
X133198223Y-96360723D01*
X133216402Y-96344247D01*
X133236107Y-96329633D01*
X133257151Y-96317020D01*
X133279329Y-96306530D01*
X133302429Y-96298265D01*
X133326227Y-96292304D01*
X133350496Y-96288704D01*
X133375000Y-96287500D01*
X134625000Y-96287500D01*
X134649504Y-96288704D01*
X134649504Y-96288704D01*
G37*
D12*
X134000000Y-97000000D03*
D11*
G36*
X134649504Y-93313704D02*
X134673773Y-93317304D01*
X134697571Y-93323265D01*
X134720671Y-93331530D01*
X134742849Y-93342020D01*
X134763893Y-93354633D01*
X134783598Y-93369247D01*
X134801777Y-93385723D01*
X134818253Y-93403902D01*
X134832867Y-93423607D01*
X134845480Y-93444651D01*
X134855970Y-93466829D01*
X134864235Y-93489929D01*
X134870196Y-93513727D01*
X134873796Y-93537996D01*
X134875000Y-93562500D01*
X134875000Y-94487500D01*
X134873796Y-94512004D01*
X134870196Y-94536273D01*
X134864235Y-94560071D01*
X134855970Y-94583171D01*
X134845480Y-94605349D01*
X134832867Y-94626393D01*
X134818253Y-94646098D01*
X134801777Y-94664277D01*
X134783598Y-94680753D01*
X134763893Y-94695367D01*
X134742849Y-94707980D01*
X134720671Y-94718470D01*
X134697571Y-94726735D01*
X134673773Y-94732696D01*
X134649504Y-94736296D01*
X134625000Y-94737500D01*
X133375000Y-94737500D01*
X133350496Y-94736296D01*
X133326227Y-94732696D01*
X133302429Y-94726735D01*
X133279329Y-94718470D01*
X133257151Y-94707980D01*
X133236107Y-94695367D01*
X133216402Y-94680753D01*
X133198223Y-94664277D01*
X133181747Y-94646098D01*
X133167133Y-94626393D01*
X133154520Y-94605349D01*
X133144030Y-94583171D01*
X133135765Y-94560071D01*
X133129804Y-94536273D01*
X133126204Y-94512004D01*
X133125000Y-94487500D01*
X133125000Y-93562500D01*
X133126204Y-93537996D01*
X133129804Y-93513727D01*
X133135765Y-93489929D01*
X133144030Y-93466829D01*
X133154520Y-93444651D01*
X133167133Y-93423607D01*
X133181747Y-93403902D01*
X133198223Y-93385723D01*
X133216402Y-93369247D01*
X133236107Y-93354633D01*
X133257151Y-93342020D01*
X133279329Y-93331530D01*
X133302429Y-93323265D01*
X133326227Y-93317304D01*
X133350496Y-93313704D01*
X133375000Y-93312500D01*
X134625000Y-93312500D01*
X134649504Y-93313704D01*
X134649504Y-93313704D01*
G37*
D12*
X134000000Y-94025000D03*
G04 #@! TD*
D11*
G04 #@! TO.C,C3*
G36*
X126387004Y-82776204D02*
X126411273Y-82779804D01*
X126435071Y-82785765D01*
X126458171Y-82794030D01*
X126480349Y-82804520D01*
X126501393Y-82817133D01*
X126521098Y-82831747D01*
X126539277Y-82848223D01*
X126555753Y-82866402D01*
X126570367Y-82886107D01*
X126582980Y-82907151D01*
X126593470Y-82929329D01*
X126601735Y-82952429D01*
X126607696Y-82976227D01*
X126611296Y-83000496D01*
X126612500Y-83025000D01*
X126612500Y-83950000D01*
X126611296Y-83974504D01*
X126607696Y-83998773D01*
X126601735Y-84022571D01*
X126593470Y-84045671D01*
X126582980Y-84067849D01*
X126570367Y-84088893D01*
X126555753Y-84108598D01*
X126539277Y-84126777D01*
X126521098Y-84143253D01*
X126501393Y-84157867D01*
X126480349Y-84170480D01*
X126458171Y-84180970D01*
X126435071Y-84189235D01*
X126411273Y-84195196D01*
X126387004Y-84198796D01*
X126362500Y-84200000D01*
X125112500Y-84200000D01*
X125087996Y-84198796D01*
X125063727Y-84195196D01*
X125039929Y-84189235D01*
X125016829Y-84180970D01*
X124994651Y-84170480D01*
X124973607Y-84157867D01*
X124953902Y-84143253D01*
X124935723Y-84126777D01*
X124919247Y-84108598D01*
X124904633Y-84088893D01*
X124892020Y-84067849D01*
X124881530Y-84045671D01*
X124873265Y-84022571D01*
X124867304Y-83998773D01*
X124863704Y-83974504D01*
X124862500Y-83950000D01*
X124862500Y-83025000D01*
X124863704Y-83000496D01*
X124867304Y-82976227D01*
X124873265Y-82952429D01*
X124881530Y-82929329D01*
X124892020Y-82907151D01*
X124904633Y-82886107D01*
X124919247Y-82866402D01*
X124935723Y-82848223D01*
X124953902Y-82831747D01*
X124973607Y-82817133D01*
X124994651Y-82804520D01*
X125016829Y-82794030D01*
X125039929Y-82785765D01*
X125063727Y-82779804D01*
X125087996Y-82776204D01*
X125112500Y-82775000D01*
X126362500Y-82775000D01*
X126387004Y-82776204D01*
X126387004Y-82776204D01*
G37*
D12*
X125737500Y-83487500D03*
D11*
G36*
X126387004Y-79801204D02*
X126411273Y-79804804D01*
X126435071Y-79810765D01*
X126458171Y-79819030D01*
X126480349Y-79829520D01*
X126501393Y-79842133D01*
X126521098Y-79856747D01*
X126539277Y-79873223D01*
X126555753Y-79891402D01*
X126570367Y-79911107D01*
X126582980Y-79932151D01*
X126593470Y-79954329D01*
X126601735Y-79977429D01*
X126607696Y-80001227D01*
X126611296Y-80025496D01*
X126612500Y-80050000D01*
X126612500Y-80975000D01*
X126611296Y-80999504D01*
X126607696Y-81023773D01*
X126601735Y-81047571D01*
X126593470Y-81070671D01*
X126582980Y-81092849D01*
X126570367Y-81113893D01*
X126555753Y-81133598D01*
X126539277Y-81151777D01*
X126521098Y-81168253D01*
X126501393Y-81182867D01*
X126480349Y-81195480D01*
X126458171Y-81205970D01*
X126435071Y-81214235D01*
X126411273Y-81220196D01*
X126387004Y-81223796D01*
X126362500Y-81225000D01*
X125112500Y-81225000D01*
X125087996Y-81223796D01*
X125063727Y-81220196D01*
X125039929Y-81214235D01*
X125016829Y-81205970D01*
X124994651Y-81195480D01*
X124973607Y-81182867D01*
X124953902Y-81168253D01*
X124935723Y-81151777D01*
X124919247Y-81133598D01*
X124904633Y-81113893D01*
X124892020Y-81092849D01*
X124881530Y-81070671D01*
X124873265Y-81047571D01*
X124867304Y-81023773D01*
X124863704Y-80999504D01*
X124862500Y-80975000D01*
X124862500Y-80050000D01*
X124863704Y-80025496D01*
X124867304Y-80001227D01*
X124873265Y-79977429D01*
X124881530Y-79954329D01*
X124892020Y-79932151D01*
X124904633Y-79911107D01*
X124919247Y-79891402D01*
X124935723Y-79873223D01*
X124953902Y-79856747D01*
X124973607Y-79842133D01*
X124994651Y-79829520D01*
X125016829Y-79819030D01*
X125039929Y-79810765D01*
X125063727Y-79804804D01*
X125087996Y-79801204D01*
X125112500Y-79800000D01*
X126362500Y-79800000D01*
X126387004Y-79801204D01*
X126387004Y-79801204D01*
G37*
D12*
X125737500Y-80512500D03*
G04 #@! TD*
D11*
G04 #@! TO.C,C4*
G36*
X123887004Y-79788704D02*
X123911273Y-79792304D01*
X123935071Y-79798265D01*
X123958171Y-79806530D01*
X123980349Y-79817020D01*
X124001393Y-79829633D01*
X124021098Y-79844247D01*
X124039277Y-79860723D01*
X124055753Y-79878902D01*
X124070367Y-79898607D01*
X124082980Y-79919651D01*
X124093470Y-79941829D01*
X124101735Y-79964929D01*
X124107696Y-79988727D01*
X124111296Y-80012996D01*
X124112500Y-80037500D01*
X124112500Y-80962500D01*
X124111296Y-80987004D01*
X124107696Y-81011273D01*
X124101735Y-81035071D01*
X124093470Y-81058171D01*
X124082980Y-81080349D01*
X124070367Y-81101393D01*
X124055753Y-81121098D01*
X124039277Y-81139277D01*
X124021098Y-81155753D01*
X124001393Y-81170367D01*
X123980349Y-81182980D01*
X123958171Y-81193470D01*
X123935071Y-81201735D01*
X123911273Y-81207696D01*
X123887004Y-81211296D01*
X123862500Y-81212500D01*
X122612500Y-81212500D01*
X122587996Y-81211296D01*
X122563727Y-81207696D01*
X122539929Y-81201735D01*
X122516829Y-81193470D01*
X122494651Y-81182980D01*
X122473607Y-81170367D01*
X122453902Y-81155753D01*
X122435723Y-81139277D01*
X122419247Y-81121098D01*
X122404633Y-81101393D01*
X122392020Y-81080349D01*
X122381530Y-81058171D01*
X122373265Y-81035071D01*
X122367304Y-81011273D01*
X122363704Y-80987004D01*
X122362500Y-80962500D01*
X122362500Y-80037500D01*
X122363704Y-80012996D01*
X122367304Y-79988727D01*
X122373265Y-79964929D01*
X122381530Y-79941829D01*
X122392020Y-79919651D01*
X122404633Y-79898607D01*
X122419247Y-79878902D01*
X122435723Y-79860723D01*
X122453902Y-79844247D01*
X122473607Y-79829633D01*
X122494651Y-79817020D01*
X122516829Y-79806530D01*
X122539929Y-79798265D01*
X122563727Y-79792304D01*
X122587996Y-79788704D01*
X122612500Y-79787500D01*
X123862500Y-79787500D01*
X123887004Y-79788704D01*
X123887004Y-79788704D01*
G37*
D12*
X123237500Y-80500000D03*
D11*
G36*
X123887004Y-82763704D02*
X123911273Y-82767304D01*
X123935071Y-82773265D01*
X123958171Y-82781530D01*
X123980349Y-82792020D01*
X124001393Y-82804633D01*
X124021098Y-82819247D01*
X124039277Y-82835723D01*
X124055753Y-82853902D01*
X124070367Y-82873607D01*
X124082980Y-82894651D01*
X124093470Y-82916829D01*
X124101735Y-82939929D01*
X124107696Y-82963727D01*
X124111296Y-82987996D01*
X124112500Y-83012500D01*
X124112500Y-83937500D01*
X124111296Y-83962004D01*
X124107696Y-83986273D01*
X124101735Y-84010071D01*
X124093470Y-84033171D01*
X124082980Y-84055349D01*
X124070367Y-84076393D01*
X124055753Y-84096098D01*
X124039277Y-84114277D01*
X124021098Y-84130753D01*
X124001393Y-84145367D01*
X123980349Y-84157980D01*
X123958171Y-84168470D01*
X123935071Y-84176735D01*
X123911273Y-84182696D01*
X123887004Y-84186296D01*
X123862500Y-84187500D01*
X122612500Y-84187500D01*
X122587996Y-84186296D01*
X122563727Y-84182696D01*
X122539929Y-84176735D01*
X122516829Y-84168470D01*
X122494651Y-84157980D01*
X122473607Y-84145367D01*
X122453902Y-84130753D01*
X122435723Y-84114277D01*
X122419247Y-84096098D01*
X122404633Y-84076393D01*
X122392020Y-84055349D01*
X122381530Y-84033171D01*
X122373265Y-84010071D01*
X122367304Y-83986273D01*
X122363704Y-83962004D01*
X122362500Y-83937500D01*
X122362500Y-83012500D01*
X122363704Y-82987996D01*
X122367304Y-82963727D01*
X122373265Y-82939929D01*
X122381530Y-82916829D01*
X122392020Y-82894651D01*
X122404633Y-82873607D01*
X122419247Y-82853902D01*
X122435723Y-82835723D01*
X122453902Y-82819247D01*
X122473607Y-82804633D01*
X122494651Y-82792020D01*
X122516829Y-82781530D01*
X122539929Y-82773265D01*
X122563727Y-82767304D01*
X122587996Y-82763704D01*
X122612500Y-82762500D01*
X123862500Y-82762500D01*
X123887004Y-82763704D01*
X123887004Y-82763704D01*
G37*
D12*
X123237500Y-83475000D03*
G04 #@! TD*
D11*
G04 #@! TO.C,C13*
G36*
X166399504Y-103026204D02*
X166423773Y-103029804D01*
X166447571Y-103035765D01*
X166470671Y-103044030D01*
X166492849Y-103054520D01*
X166513893Y-103067133D01*
X166533598Y-103081747D01*
X166551777Y-103098223D01*
X166568253Y-103116402D01*
X166582867Y-103136107D01*
X166595480Y-103157151D01*
X166605970Y-103179329D01*
X166614235Y-103202429D01*
X166620196Y-103226227D01*
X166623796Y-103250496D01*
X166625000Y-103275000D01*
X166625000Y-104200000D01*
X166623796Y-104224504D01*
X166620196Y-104248773D01*
X166614235Y-104272571D01*
X166605970Y-104295671D01*
X166595480Y-104317849D01*
X166582867Y-104338893D01*
X166568253Y-104358598D01*
X166551777Y-104376777D01*
X166533598Y-104393253D01*
X166513893Y-104407867D01*
X166492849Y-104420480D01*
X166470671Y-104430970D01*
X166447571Y-104439235D01*
X166423773Y-104445196D01*
X166399504Y-104448796D01*
X166375000Y-104450000D01*
X165125000Y-104450000D01*
X165100496Y-104448796D01*
X165076227Y-104445196D01*
X165052429Y-104439235D01*
X165029329Y-104430970D01*
X165007151Y-104420480D01*
X164986107Y-104407867D01*
X164966402Y-104393253D01*
X164948223Y-104376777D01*
X164931747Y-104358598D01*
X164917133Y-104338893D01*
X164904520Y-104317849D01*
X164894030Y-104295671D01*
X164885765Y-104272571D01*
X164879804Y-104248773D01*
X164876204Y-104224504D01*
X164875000Y-104200000D01*
X164875000Y-103275000D01*
X164876204Y-103250496D01*
X164879804Y-103226227D01*
X164885765Y-103202429D01*
X164894030Y-103179329D01*
X164904520Y-103157151D01*
X164917133Y-103136107D01*
X164931747Y-103116402D01*
X164948223Y-103098223D01*
X164966402Y-103081747D01*
X164986107Y-103067133D01*
X165007151Y-103054520D01*
X165029329Y-103044030D01*
X165052429Y-103035765D01*
X165076227Y-103029804D01*
X165100496Y-103026204D01*
X165125000Y-103025000D01*
X166375000Y-103025000D01*
X166399504Y-103026204D01*
X166399504Y-103026204D01*
G37*
D12*
X165750000Y-103737500D03*
D11*
G36*
X166399504Y-100051204D02*
X166423773Y-100054804D01*
X166447571Y-100060765D01*
X166470671Y-100069030D01*
X166492849Y-100079520D01*
X166513893Y-100092133D01*
X166533598Y-100106747D01*
X166551777Y-100123223D01*
X166568253Y-100141402D01*
X166582867Y-100161107D01*
X166595480Y-100182151D01*
X166605970Y-100204329D01*
X166614235Y-100227429D01*
X166620196Y-100251227D01*
X166623796Y-100275496D01*
X166625000Y-100300000D01*
X166625000Y-101225000D01*
X166623796Y-101249504D01*
X166620196Y-101273773D01*
X166614235Y-101297571D01*
X166605970Y-101320671D01*
X166595480Y-101342849D01*
X166582867Y-101363893D01*
X166568253Y-101383598D01*
X166551777Y-101401777D01*
X166533598Y-101418253D01*
X166513893Y-101432867D01*
X166492849Y-101445480D01*
X166470671Y-101455970D01*
X166447571Y-101464235D01*
X166423773Y-101470196D01*
X166399504Y-101473796D01*
X166375000Y-101475000D01*
X165125000Y-101475000D01*
X165100496Y-101473796D01*
X165076227Y-101470196D01*
X165052429Y-101464235D01*
X165029329Y-101455970D01*
X165007151Y-101445480D01*
X164986107Y-101432867D01*
X164966402Y-101418253D01*
X164948223Y-101401777D01*
X164931747Y-101383598D01*
X164917133Y-101363893D01*
X164904520Y-101342849D01*
X164894030Y-101320671D01*
X164885765Y-101297571D01*
X164879804Y-101273773D01*
X164876204Y-101249504D01*
X164875000Y-101225000D01*
X164875000Y-100300000D01*
X164876204Y-100275496D01*
X164879804Y-100251227D01*
X164885765Y-100227429D01*
X164894030Y-100204329D01*
X164904520Y-100182151D01*
X164917133Y-100161107D01*
X164931747Y-100141402D01*
X164948223Y-100123223D01*
X164966402Y-100106747D01*
X164986107Y-100092133D01*
X165007151Y-100079520D01*
X165029329Y-100069030D01*
X165052429Y-100060765D01*
X165076227Y-100054804D01*
X165100496Y-100051204D01*
X165125000Y-100050000D01*
X166375000Y-100050000D01*
X166399504Y-100051204D01*
X166399504Y-100051204D01*
G37*
D12*
X165750000Y-100762500D03*
G04 #@! TD*
D11*
G04 #@! TO.C,C5*
G36*
X156974504Y-97376204D02*
X156998773Y-97379804D01*
X157022571Y-97385765D01*
X157045671Y-97394030D01*
X157067849Y-97404520D01*
X157088893Y-97417133D01*
X157108598Y-97431747D01*
X157126777Y-97448223D01*
X157143253Y-97466402D01*
X157157867Y-97486107D01*
X157170480Y-97507151D01*
X157180970Y-97529329D01*
X157189235Y-97552429D01*
X157195196Y-97576227D01*
X157198796Y-97600496D01*
X157200000Y-97625000D01*
X157200000Y-98875000D01*
X157198796Y-98899504D01*
X157195196Y-98923773D01*
X157189235Y-98947571D01*
X157180970Y-98970671D01*
X157170480Y-98992849D01*
X157157867Y-99013893D01*
X157143253Y-99033598D01*
X157126777Y-99051777D01*
X157108598Y-99068253D01*
X157088893Y-99082867D01*
X157067849Y-99095480D01*
X157045671Y-99105970D01*
X157022571Y-99114235D01*
X156998773Y-99120196D01*
X156974504Y-99123796D01*
X156950000Y-99125000D01*
X156025000Y-99125000D01*
X156000496Y-99123796D01*
X155976227Y-99120196D01*
X155952429Y-99114235D01*
X155929329Y-99105970D01*
X155907151Y-99095480D01*
X155886107Y-99082867D01*
X155866402Y-99068253D01*
X155848223Y-99051777D01*
X155831747Y-99033598D01*
X155817133Y-99013893D01*
X155804520Y-98992849D01*
X155794030Y-98970671D01*
X155785765Y-98947571D01*
X155779804Y-98923773D01*
X155776204Y-98899504D01*
X155775000Y-98875000D01*
X155775000Y-97625000D01*
X155776204Y-97600496D01*
X155779804Y-97576227D01*
X155785765Y-97552429D01*
X155794030Y-97529329D01*
X155804520Y-97507151D01*
X155817133Y-97486107D01*
X155831747Y-97466402D01*
X155848223Y-97448223D01*
X155866402Y-97431747D01*
X155886107Y-97417133D01*
X155907151Y-97404520D01*
X155929329Y-97394030D01*
X155952429Y-97385765D01*
X155976227Y-97379804D01*
X156000496Y-97376204D01*
X156025000Y-97375000D01*
X156950000Y-97375000D01*
X156974504Y-97376204D01*
X156974504Y-97376204D01*
G37*
D12*
X156487500Y-98250000D03*
D11*
G36*
X153999504Y-97376204D02*
X154023773Y-97379804D01*
X154047571Y-97385765D01*
X154070671Y-97394030D01*
X154092849Y-97404520D01*
X154113893Y-97417133D01*
X154133598Y-97431747D01*
X154151777Y-97448223D01*
X154168253Y-97466402D01*
X154182867Y-97486107D01*
X154195480Y-97507151D01*
X154205970Y-97529329D01*
X154214235Y-97552429D01*
X154220196Y-97576227D01*
X154223796Y-97600496D01*
X154225000Y-97625000D01*
X154225000Y-98875000D01*
X154223796Y-98899504D01*
X154220196Y-98923773D01*
X154214235Y-98947571D01*
X154205970Y-98970671D01*
X154195480Y-98992849D01*
X154182867Y-99013893D01*
X154168253Y-99033598D01*
X154151777Y-99051777D01*
X154133598Y-99068253D01*
X154113893Y-99082867D01*
X154092849Y-99095480D01*
X154070671Y-99105970D01*
X154047571Y-99114235D01*
X154023773Y-99120196D01*
X153999504Y-99123796D01*
X153975000Y-99125000D01*
X153050000Y-99125000D01*
X153025496Y-99123796D01*
X153001227Y-99120196D01*
X152977429Y-99114235D01*
X152954329Y-99105970D01*
X152932151Y-99095480D01*
X152911107Y-99082867D01*
X152891402Y-99068253D01*
X152873223Y-99051777D01*
X152856747Y-99033598D01*
X152842133Y-99013893D01*
X152829520Y-98992849D01*
X152819030Y-98970671D01*
X152810765Y-98947571D01*
X152804804Y-98923773D01*
X152801204Y-98899504D01*
X152800000Y-98875000D01*
X152800000Y-97625000D01*
X152801204Y-97600496D01*
X152804804Y-97576227D01*
X152810765Y-97552429D01*
X152819030Y-97529329D01*
X152829520Y-97507151D01*
X152842133Y-97486107D01*
X152856747Y-97466402D01*
X152873223Y-97448223D01*
X152891402Y-97431747D01*
X152911107Y-97417133D01*
X152932151Y-97404520D01*
X152954329Y-97394030D01*
X152977429Y-97385765D01*
X153001227Y-97379804D01*
X153025496Y-97376204D01*
X153050000Y-97375000D01*
X153975000Y-97375000D01*
X153999504Y-97376204D01*
X153999504Y-97376204D01*
G37*
D12*
X153512500Y-98250000D03*
G04 #@! TD*
D11*
G04 #@! TO.C,C6*
G36*
X153999504Y-92876204D02*
X154023773Y-92879804D01*
X154047571Y-92885765D01*
X154070671Y-92894030D01*
X154092849Y-92904520D01*
X154113893Y-92917133D01*
X154133598Y-92931747D01*
X154151777Y-92948223D01*
X154168253Y-92966402D01*
X154182867Y-92986107D01*
X154195480Y-93007151D01*
X154205970Y-93029329D01*
X154214235Y-93052429D01*
X154220196Y-93076227D01*
X154223796Y-93100496D01*
X154225000Y-93125000D01*
X154225000Y-94375000D01*
X154223796Y-94399504D01*
X154220196Y-94423773D01*
X154214235Y-94447571D01*
X154205970Y-94470671D01*
X154195480Y-94492849D01*
X154182867Y-94513893D01*
X154168253Y-94533598D01*
X154151777Y-94551777D01*
X154133598Y-94568253D01*
X154113893Y-94582867D01*
X154092849Y-94595480D01*
X154070671Y-94605970D01*
X154047571Y-94614235D01*
X154023773Y-94620196D01*
X153999504Y-94623796D01*
X153975000Y-94625000D01*
X153050000Y-94625000D01*
X153025496Y-94623796D01*
X153001227Y-94620196D01*
X152977429Y-94614235D01*
X152954329Y-94605970D01*
X152932151Y-94595480D01*
X152911107Y-94582867D01*
X152891402Y-94568253D01*
X152873223Y-94551777D01*
X152856747Y-94533598D01*
X152842133Y-94513893D01*
X152829520Y-94492849D01*
X152819030Y-94470671D01*
X152810765Y-94447571D01*
X152804804Y-94423773D01*
X152801204Y-94399504D01*
X152800000Y-94375000D01*
X152800000Y-93125000D01*
X152801204Y-93100496D01*
X152804804Y-93076227D01*
X152810765Y-93052429D01*
X152819030Y-93029329D01*
X152829520Y-93007151D01*
X152842133Y-92986107D01*
X152856747Y-92966402D01*
X152873223Y-92948223D01*
X152891402Y-92931747D01*
X152911107Y-92917133D01*
X152932151Y-92904520D01*
X152954329Y-92894030D01*
X152977429Y-92885765D01*
X153001227Y-92879804D01*
X153025496Y-92876204D01*
X153050000Y-92875000D01*
X153975000Y-92875000D01*
X153999504Y-92876204D01*
X153999504Y-92876204D01*
G37*
D12*
X153512500Y-93750000D03*
D11*
G36*
X156974504Y-92876204D02*
X156998773Y-92879804D01*
X157022571Y-92885765D01*
X157045671Y-92894030D01*
X157067849Y-92904520D01*
X157088893Y-92917133D01*
X157108598Y-92931747D01*
X157126777Y-92948223D01*
X157143253Y-92966402D01*
X157157867Y-92986107D01*
X157170480Y-93007151D01*
X157180970Y-93029329D01*
X157189235Y-93052429D01*
X157195196Y-93076227D01*
X157198796Y-93100496D01*
X157200000Y-93125000D01*
X157200000Y-94375000D01*
X157198796Y-94399504D01*
X157195196Y-94423773D01*
X157189235Y-94447571D01*
X157180970Y-94470671D01*
X157170480Y-94492849D01*
X157157867Y-94513893D01*
X157143253Y-94533598D01*
X157126777Y-94551777D01*
X157108598Y-94568253D01*
X157088893Y-94582867D01*
X157067849Y-94595480D01*
X157045671Y-94605970D01*
X157022571Y-94614235D01*
X156998773Y-94620196D01*
X156974504Y-94623796D01*
X156950000Y-94625000D01*
X156025000Y-94625000D01*
X156000496Y-94623796D01*
X155976227Y-94620196D01*
X155952429Y-94614235D01*
X155929329Y-94605970D01*
X155907151Y-94595480D01*
X155886107Y-94582867D01*
X155866402Y-94568253D01*
X155848223Y-94551777D01*
X155831747Y-94533598D01*
X155817133Y-94513893D01*
X155804520Y-94492849D01*
X155794030Y-94470671D01*
X155785765Y-94447571D01*
X155779804Y-94423773D01*
X155776204Y-94399504D01*
X155775000Y-94375000D01*
X155775000Y-93125000D01*
X155776204Y-93100496D01*
X155779804Y-93076227D01*
X155785765Y-93052429D01*
X155794030Y-93029329D01*
X155804520Y-93007151D01*
X155817133Y-92986107D01*
X155831747Y-92966402D01*
X155848223Y-92948223D01*
X155866402Y-92931747D01*
X155886107Y-92917133D01*
X155907151Y-92904520D01*
X155929329Y-92894030D01*
X155952429Y-92885765D01*
X155976227Y-92879804D01*
X156000496Y-92876204D01*
X156025000Y-92875000D01*
X156950000Y-92875000D01*
X156974504Y-92876204D01*
X156974504Y-92876204D01*
G37*
D12*
X156487500Y-93750000D03*
G04 #@! TD*
D16*
G04 #@! TO.C,D8*
X180250000Y-59250000D03*
X180250000Y-54250000D03*
G04 #@! TD*
D17*
G04 #@! TO.C,D9*
X173250000Y-103750000D03*
X173250000Y-101250000D03*
G04 #@! TD*
D11*
G04 #@! TO.C,F1*
G36*
X177149504Y-60013704D02*
X177173773Y-60017304D01*
X177197571Y-60023265D01*
X177220671Y-60031530D01*
X177242849Y-60042020D01*
X177263893Y-60054633D01*
X177283598Y-60069247D01*
X177301777Y-60085723D01*
X177318253Y-60103902D01*
X177332867Y-60123607D01*
X177345480Y-60144651D01*
X177355970Y-60166829D01*
X177364235Y-60189929D01*
X177370196Y-60213727D01*
X177373796Y-60237996D01*
X177375000Y-60262500D01*
X177375000Y-61187500D01*
X177373796Y-61212004D01*
X177370196Y-61236273D01*
X177364235Y-61260071D01*
X177355970Y-61283171D01*
X177345480Y-61305349D01*
X177332867Y-61326393D01*
X177318253Y-61346098D01*
X177301777Y-61364277D01*
X177283598Y-61380753D01*
X177263893Y-61395367D01*
X177242849Y-61407980D01*
X177220671Y-61418470D01*
X177197571Y-61426735D01*
X177173773Y-61432696D01*
X177149504Y-61436296D01*
X177125000Y-61437500D01*
X175875000Y-61437500D01*
X175850496Y-61436296D01*
X175826227Y-61432696D01*
X175802429Y-61426735D01*
X175779329Y-61418470D01*
X175757151Y-61407980D01*
X175736107Y-61395367D01*
X175716402Y-61380753D01*
X175698223Y-61364277D01*
X175681747Y-61346098D01*
X175667133Y-61326393D01*
X175654520Y-61305349D01*
X175644030Y-61283171D01*
X175635765Y-61260071D01*
X175629804Y-61236273D01*
X175626204Y-61212004D01*
X175625000Y-61187500D01*
X175625000Y-60262500D01*
X175626204Y-60237996D01*
X175629804Y-60213727D01*
X175635765Y-60189929D01*
X175644030Y-60166829D01*
X175654520Y-60144651D01*
X175667133Y-60123607D01*
X175681747Y-60103902D01*
X175698223Y-60085723D01*
X175716402Y-60069247D01*
X175736107Y-60054633D01*
X175757151Y-60042020D01*
X175779329Y-60031530D01*
X175802429Y-60023265D01*
X175826227Y-60017304D01*
X175850496Y-60013704D01*
X175875000Y-60012500D01*
X177125000Y-60012500D01*
X177149504Y-60013704D01*
X177149504Y-60013704D01*
G37*
D12*
X176500000Y-60725000D03*
D11*
G36*
X177149504Y-57038704D02*
X177173773Y-57042304D01*
X177197571Y-57048265D01*
X177220671Y-57056530D01*
X177242849Y-57067020D01*
X177263893Y-57079633D01*
X177283598Y-57094247D01*
X177301777Y-57110723D01*
X177318253Y-57128902D01*
X177332867Y-57148607D01*
X177345480Y-57169651D01*
X177355970Y-57191829D01*
X177364235Y-57214929D01*
X177370196Y-57238727D01*
X177373796Y-57262996D01*
X177375000Y-57287500D01*
X177375000Y-58212500D01*
X177373796Y-58237004D01*
X177370196Y-58261273D01*
X177364235Y-58285071D01*
X177355970Y-58308171D01*
X177345480Y-58330349D01*
X177332867Y-58351393D01*
X177318253Y-58371098D01*
X177301777Y-58389277D01*
X177283598Y-58405753D01*
X177263893Y-58420367D01*
X177242849Y-58432980D01*
X177220671Y-58443470D01*
X177197571Y-58451735D01*
X177173773Y-58457696D01*
X177149504Y-58461296D01*
X177125000Y-58462500D01*
X175875000Y-58462500D01*
X175850496Y-58461296D01*
X175826227Y-58457696D01*
X175802429Y-58451735D01*
X175779329Y-58443470D01*
X175757151Y-58432980D01*
X175736107Y-58420367D01*
X175716402Y-58405753D01*
X175698223Y-58389277D01*
X175681747Y-58371098D01*
X175667133Y-58351393D01*
X175654520Y-58330349D01*
X175644030Y-58308171D01*
X175635765Y-58285071D01*
X175629804Y-58261273D01*
X175626204Y-58237004D01*
X175625000Y-58212500D01*
X175625000Y-57287500D01*
X175626204Y-57262996D01*
X175629804Y-57238727D01*
X175635765Y-57214929D01*
X175644030Y-57191829D01*
X175654520Y-57169651D01*
X175667133Y-57148607D01*
X175681747Y-57128902D01*
X175698223Y-57110723D01*
X175716402Y-57094247D01*
X175736107Y-57079633D01*
X175757151Y-57067020D01*
X175779329Y-57056530D01*
X175802429Y-57048265D01*
X175826227Y-57042304D01*
X175850496Y-57038704D01*
X175875000Y-57037500D01*
X177125000Y-57037500D01*
X177149504Y-57038704D01*
X177149504Y-57038704D01*
G37*
D12*
X176500000Y-57750000D03*
G04 #@! TD*
D11*
G04 #@! TO.C,L1*
G36*
X162499504Y-57001204D02*
X162523773Y-57004804D01*
X162547571Y-57010765D01*
X162570671Y-57019030D01*
X162592849Y-57029520D01*
X162613893Y-57042133D01*
X162633598Y-57056747D01*
X162651777Y-57073223D01*
X162668253Y-57091402D01*
X162682867Y-57111107D01*
X162695480Y-57132151D01*
X162705970Y-57154329D01*
X162714235Y-57177429D01*
X162720196Y-57201227D01*
X162723796Y-57225496D01*
X162725000Y-57250000D01*
X162725000Y-59950000D01*
X162723796Y-59974504D01*
X162720196Y-59998773D01*
X162714235Y-60022571D01*
X162705970Y-60045671D01*
X162695480Y-60067849D01*
X162682867Y-60088893D01*
X162668253Y-60108598D01*
X162651777Y-60126777D01*
X162633598Y-60143253D01*
X162613893Y-60157867D01*
X162592849Y-60170480D01*
X162570671Y-60180970D01*
X162547571Y-60189235D01*
X162523773Y-60195196D01*
X162499504Y-60198796D01*
X162475000Y-60200000D01*
X158525000Y-60200000D01*
X158500496Y-60198796D01*
X158476227Y-60195196D01*
X158452429Y-60189235D01*
X158429329Y-60180970D01*
X158407151Y-60170480D01*
X158386107Y-60157867D01*
X158366402Y-60143253D01*
X158348223Y-60126777D01*
X158331747Y-60108598D01*
X158317133Y-60088893D01*
X158304520Y-60067849D01*
X158294030Y-60045671D01*
X158285765Y-60022571D01*
X158279804Y-59998773D01*
X158276204Y-59974504D01*
X158275000Y-59950000D01*
X158275000Y-57250000D01*
X158276204Y-57225496D01*
X158279804Y-57201227D01*
X158285765Y-57177429D01*
X158294030Y-57154329D01*
X158304520Y-57132151D01*
X158317133Y-57111107D01*
X158331747Y-57091402D01*
X158348223Y-57073223D01*
X158366402Y-57056747D01*
X158386107Y-57042133D01*
X158407151Y-57029520D01*
X158429329Y-57019030D01*
X158452429Y-57010765D01*
X158476227Y-57004804D01*
X158500496Y-57001204D01*
X158525000Y-57000000D01*
X162475000Y-57000000D01*
X162499504Y-57001204D01*
X162499504Y-57001204D01*
G37*
D18*
X160500000Y-58600000D03*
D11*
G36*
X162499504Y-51801204D02*
X162523773Y-51804804D01*
X162547571Y-51810765D01*
X162570671Y-51819030D01*
X162592849Y-51829520D01*
X162613893Y-51842133D01*
X162633598Y-51856747D01*
X162651777Y-51873223D01*
X162668253Y-51891402D01*
X162682867Y-51911107D01*
X162695480Y-51932151D01*
X162705970Y-51954329D01*
X162714235Y-51977429D01*
X162720196Y-52001227D01*
X162723796Y-52025496D01*
X162725000Y-52050000D01*
X162725000Y-54750000D01*
X162723796Y-54774504D01*
X162720196Y-54798773D01*
X162714235Y-54822571D01*
X162705970Y-54845671D01*
X162695480Y-54867849D01*
X162682867Y-54888893D01*
X162668253Y-54908598D01*
X162651777Y-54926777D01*
X162633598Y-54943253D01*
X162613893Y-54957867D01*
X162592849Y-54970480D01*
X162570671Y-54980970D01*
X162547571Y-54989235D01*
X162523773Y-54995196D01*
X162499504Y-54998796D01*
X162475000Y-55000000D01*
X158525000Y-55000000D01*
X158500496Y-54998796D01*
X158476227Y-54995196D01*
X158452429Y-54989235D01*
X158429329Y-54980970D01*
X158407151Y-54970480D01*
X158386107Y-54957867D01*
X158366402Y-54943253D01*
X158348223Y-54926777D01*
X158331747Y-54908598D01*
X158317133Y-54888893D01*
X158304520Y-54867849D01*
X158294030Y-54845671D01*
X158285765Y-54822571D01*
X158279804Y-54798773D01*
X158276204Y-54774504D01*
X158275000Y-54750000D01*
X158275000Y-52050000D01*
X158276204Y-52025496D01*
X158279804Y-52001227D01*
X158285765Y-51977429D01*
X158294030Y-51954329D01*
X158304520Y-51932151D01*
X158317133Y-51911107D01*
X158331747Y-51891402D01*
X158348223Y-51873223D01*
X158366402Y-51856747D01*
X158386107Y-51842133D01*
X158407151Y-51829520D01*
X158429329Y-51819030D01*
X158452429Y-51810765D01*
X158476227Y-51804804D01*
X158500496Y-51801204D01*
X158525000Y-51800000D01*
X162475000Y-51800000D01*
X162499504Y-51801204D01*
X162499504Y-51801204D01*
G37*
D18*
X160500000Y-53400000D03*
G04 #@! TD*
D11*
G04 #@! TO.C,D5*
G36*
X152474504Y-59626204D02*
X152498773Y-59629804D01*
X152522571Y-59635765D01*
X152545671Y-59644030D01*
X152567849Y-59654520D01*
X152588893Y-59667133D01*
X152608598Y-59681747D01*
X152626777Y-59698223D01*
X152643253Y-59716402D01*
X152657867Y-59736107D01*
X152670480Y-59757151D01*
X152680970Y-59779329D01*
X152689235Y-59802429D01*
X152695196Y-59826227D01*
X152698796Y-59850496D01*
X152700000Y-59875000D01*
X152700000Y-61125000D01*
X152698796Y-61149504D01*
X152695196Y-61173773D01*
X152689235Y-61197571D01*
X152680970Y-61220671D01*
X152670480Y-61242849D01*
X152657867Y-61263893D01*
X152643253Y-61283598D01*
X152626777Y-61301777D01*
X152608598Y-61318253D01*
X152588893Y-61332867D01*
X152567849Y-61345480D01*
X152545671Y-61355970D01*
X152522571Y-61364235D01*
X152498773Y-61370196D01*
X152474504Y-61373796D01*
X152450000Y-61375000D01*
X151525000Y-61375000D01*
X151500496Y-61373796D01*
X151476227Y-61370196D01*
X151452429Y-61364235D01*
X151429329Y-61355970D01*
X151407151Y-61345480D01*
X151386107Y-61332867D01*
X151366402Y-61318253D01*
X151348223Y-61301777D01*
X151331747Y-61283598D01*
X151317133Y-61263893D01*
X151304520Y-61242849D01*
X151294030Y-61220671D01*
X151285765Y-61197571D01*
X151279804Y-61173773D01*
X151276204Y-61149504D01*
X151275000Y-61125000D01*
X151275000Y-59875000D01*
X151276204Y-59850496D01*
X151279804Y-59826227D01*
X151285765Y-59802429D01*
X151294030Y-59779329D01*
X151304520Y-59757151D01*
X151317133Y-59736107D01*
X151331747Y-59716402D01*
X151348223Y-59698223D01*
X151366402Y-59681747D01*
X151386107Y-59667133D01*
X151407151Y-59654520D01*
X151429329Y-59644030D01*
X151452429Y-59635765D01*
X151476227Y-59629804D01*
X151500496Y-59626204D01*
X151525000Y-59625000D01*
X152450000Y-59625000D01*
X152474504Y-59626204D01*
X152474504Y-59626204D01*
G37*
D12*
X151987500Y-60500000D03*
D11*
G36*
X149499504Y-59626204D02*
X149523773Y-59629804D01*
X149547571Y-59635765D01*
X149570671Y-59644030D01*
X149592849Y-59654520D01*
X149613893Y-59667133D01*
X149633598Y-59681747D01*
X149651777Y-59698223D01*
X149668253Y-59716402D01*
X149682867Y-59736107D01*
X149695480Y-59757151D01*
X149705970Y-59779329D01*
X149714235Y-59802429D01*
X149720196Y-59826227D01*
X149723796Y-59850496D01*
X149725000Y-59875000D01*
X149725000Y-61125000D01*
X149723796Y-61149504D01*
X149720196Y-61173773D01*
X149714235Y-61197571D01*
X149705970Y-61220671D01*
X149695480Y-61242849D01*
X149682867Y-61263893D01*
X149668253Y-61283598D01*
X149651777Y-61301777D01*
X149633598Y-61318253D01*
X149613893Y-61332867D01*
X149592849Y-61345480D01*
X149570671Y-61355970D01*
X149547571Y-61364235D01*
X149523773Y-61370196D01*
X149499504Y-61373796D01*
X149475000Y-61375000D01*
X148550000Y-61375000D01*
X148525496Y-61373796D01*
X148501227Y-61370196D01*
X148477429Y-61364235D01*
X148454329Y-61355970D01*
X148432151Y-61345480D01*
X148411107Y-61332867D01*
X148391402Y-61318253D01*
X148373223Y-61301777D01*
X148356747Y-61283598D01*
X148342133Y-61263893D01*
X148329520Y-61242849D01*
X148319030Y-61220671D01*
X148310765Y-61197571D01*
X148304804Y-61173773D01*
X148301204Y-61149504D01*
X148300000Y-61125000D01*
X148300000Y-59875000D01*
X148301204Y-59850496D01*
X148304804Y-59826227D01*
X148310765Y-59802429D01*
X148319030Y-59779329D01*
X148329520Y-59757151D01*
X148342133Y-59736107D01*
X148356747Y-59716402D01*
X148373223Y-59698223D01*
X148391402Y-59681747D01*
X148411107Y-59667133D01*
X148432151Y-59654520D01*
X148454329Y-59644030D01*
X148477429Y-59635765D01*
X148501227Y-59629804D01*
X148525496Y-59626204D01*
X148550000Y-59625000D01*
X149475000Y-59625000D01*
X149499504Y-59626204D01*
X149499504Y-59626204D01*
G37*
D12*
X149012500Y-60500000D03*
G04 #@! TD*
D11*
G04 #@! TO.C,D6*
G36*
X152525449Y-63738387D02*
X152549718Y-63741987D01*
X152573516Y-63747948D01*
X152596616Y-63756213D01*
X152618794Y-63766703D01*
X152639838Y-63779316D01*
X152659543Y-63793930D01*
X152677722Y-63810406D01*
X152694198Y-63828585D01*
X152708812Y-63848290D01*
X152721425Y-63869334D01*
X152731915Y-63891512D01*
X152740180Y-63914612D01*
X152746141Y-63938410D01*
X152749741Y-63962679D01*
X152750945Y-63987183D01*
X152750945Y-65237183D01*
X152749741Y-65261687D01*
X152746141Y-65285956D01*
X152740180Y-65309754D01*
X152731915Y-65332854D01*
X152721425Y-65355032D01*
X152708812Y-65376076D01*
X152694198Y-65395781D01*
X152677722Y-65413960D01*
X152659543Y-65430436D01*
X152639838Y-65445050D01*
X152618794Y-65457663D01*
X152596616Y-65468153D01*
X152573516Y-65476418D01*
X152549718Y-65482379D01*
X152525449Y-65485979D01*
X152500945Y-65487183D01*
X151575945Y-65487183D01*
X151551441Y-65485979D01*
X151527172Y-65482379D01*
X151503374Y-65476418D01*
X151480274Y-65468153D01*
X151458096Y-65457663D01*
X151437052Y-65445050D01*
X151417347Y-65430436D01*
X151399168Y-65413960D01*
X151382692Y-65395781D01*
X151368078Y-65376076D01*
X151355465Y-65355032D01*
X151344975Y-65332854D01*
X151336710Y-65309754D01*
X151330749Y-65285956D01*
X151327149Y-65261687D01*
X151325945Y-65237183D01*
X151325945Y-63987183D01*
X151327149Y-63962679D01*
X151330749Y-63938410D01*
X151336710Y-63914612D01*
X151344975Y-63891512D01*
X151355465Y-63869334D01*
X151368078Y-63848290D01*
X151382692Y-63828585D01*
X151399168Y-63810406D01*
X151417347Y-63793930D01*
X151437052Y-63779316D01*
X151458096Y-63766703D01*
X151480274Y-63756213D01*
X151503374Y-63747948D01*
X151527172Y-63741987D01*
X151551441Y-63738387D01*
X151575945Y-63737183D01*
X152500945Y-63737183D01*
X152525449Y-63738387D01*
X152525449Y-63738387D01*
G37*
D12*
X152038445Y-64612183D03*
D11*
G36*
X149550449Y-63738387D02*
X149574718Y-63741987D01*
X149598516Y-63747948D01*
X149621616Y-63756213D01*
X149643794Y-63766703D01*
X149664838Y-63779316D01*
X149684543Y-63793930D01*
X149702722Y-63810406D01*
X149719198Y-63828585D01*
X149733812Y-63848290D01*
X149746425Y-63869334D01*
X149756915Y-63891512D01*
X149765180Y-63914612D01*
X149771141Y-63938410D01*
X149774741Y-63962679D01*
X149775945Y-63987183D01*
X149775945Y-65237183D01*
X149774741Y-65261687D01*
X149771141Y-65285956D01*
X149765180Y-65309754D01*
X149756915Y-65332854D01*
X149746425Y-65355032D01*
X149733812Y-65376076D01*
X149719198Y-65395781D01*
X149702722Y-65413960D01*
X149684543Y-65430436D01*
X149664838Y-65445050D01*
X149643794Y-65457663D01*
X149621616Y-65468153D01*
X149598516Y-65476418D01*
X149574718Y-65482379D01*
X149550449Y-65485979D01*
X149525945Y-65487183D01*
X148600945Y-65487183D01*
X148576441Y-65485979D01*
X148552172Y-65482379D01*
X148528374Y-65476418D01*
X148505274Y-65468153D01*
X148483096Y-65457663D01*
X148462052Y-65445050D01*
X148442347Y-65430436D01*
X148424168Y-65413960D01*
X148407692Y-65395781D01*
X148393078Y-65376076D01*
X148380465Y-65355032D01*
X148369975Y-65332854D01*
X148361710Y-65309754D01*
X148355749Y-65285956D01*
X148352149Y-65261687D01*
X148350945Y-65237183D01*
X148350945Y-63987183D01*
X148352149Y-63962679D01*
X148355749Y-63938410D01*
X148361710Y-63914612D01*
X148369975Y-63891512D01*
X148380465Y-63869334D01*
X148393078Y-63848290D01*
X148407692Y-63828585D01*
X148424168Y-63810406D01*
X148442347Y-63793930D01*
X148462052Y-63779316D01*
X148483096Y-63766703D01*
X148505274Y-63756213D01*
X148528374Y-63747948D01*
X148552172Y-63741987D01*
X148576441Y-63738387D01*
X148600945Y-63737183D01*
X149525945Y-63737183D01*
X149550449Y-63738387D01*
X149550449Y-63738387D01*
G37*
D12*
X149063445Y-64612183D03*
G04 #@! TD*
D11*
G04 #@! TO.C,D7*
G36*
X149537949Y-67738387D02*
X149562218Y-67741987D01*
X149586016Y-67747948D01*
X149609116Y-67756213D01*
X149631294Y-67766703D01*
X149652338Y-67779316D01*
X149672043Y-67793930D01*
X149690222Y-67810406D01*
X149706698Y-67828585D01*
X149721312Y-67848290D01*
X149733925Y-67869334D01*
X149744415Y-67891512D01*
X149752680Y-67914612D01*
X149758641Y-67938410D01*
X149762241Y-67962679D01*
X149763445Y-67987183D01*
X149763445Y-69237183D01*
X149762241Y-69261687D01*
X149758641Y-69285956D01*
X149752680Y-69309754D01*
X149744415Y-69332854D01*
X149733925Y-69355032D01*
X149721312Y-69376076D01*
X149706698Y-69395781D01*
X149690222Y-69413960D01*
X149672043Y-69430436D01*
X149652338Y-69445050D01*
X149631294Y-69457663D01*
X149609116Y-69468153D01*
X149586016Y-69476418D01*
X149562218Y-69482379D01*
X149537949Y-69485979D01*
X149513445Y-69487183D01*
X148588445Y-69487183D01*
X148563941Y-69485979D01*
X148539672Y-69482379D01*
X148515874Y-69476418D01*
X148492774Y-69468153D01*
X148470596Y-69457663D01*
X148449552Y-69445050D01*
X148429847Y-69430436D01*
X148411668Y-69413960D01*
X148395192Y-69395781D01*
X148380578Y-69376076D01*
X148367965Y-69355032D01*
X148357475Y-69332854D01*
X148349210Y-69309754D01*
X148343249Y-69285956D01*
X148339649Y-69261687D01*
X148338445Y-69237183D01*
X148338445Y-67987183D01*
X148339649Y-67962679D01*
X148343249Y-67938410D01*
X148349210Y-67914612D01*
X148357475Y-67891512D01*
X148367965Y-67869334D01*
X148380578Y-67848290D01*
X148395192Y-67828585D01*
X148411668Y-67810406D01*
X148429847Y-67793930D01*
X148449552Y-67779316D01*
X148470596Y-67766703D01*
X148492774Y-67756213D01*
X148515874Y-67747948D01*
X148539672Y-67741987D01*
X148563941Y-67738387D01*
X148588445Y-67737183D01*
X149513445Y-67737183D01*
X149537949Y-67738387D01*
X149537949Y-67738387D01*
G37*
D12*
X149050945Y-68612183D03*
D11*
G36*
X152512949Y-67738387D02*
X152537218Y-67741987D01*
X152561016Y-67747948D01*
X152584116Y-67756213D01*
X152606294Y-67766703D01*
X152627338Y-67779316D01*
X152647043Y-67793930D01*
X152665222Y-67810406D01*
X152681698Y-67828585D01*
X152696312Y-67848290D01*
X152708925Y-67869334D01*
X152719415Y-67891512D01*
X152727680Y-67914612D01*
X152733641Y-67938410D01*
X152737241Y-67962679D01*
X152738445Y-67987183D01*
X152738445Y-69237183D01*
X152737241Y-69261687D01*
X152733641Y-69285956D01*
X152727680Y-69309754D01*
X152719415Y-69332854D01*
X152708925Y-69355032D01*
X152696312Y-69376076D01*
X152681698Y-69395781D01*
X152665222Y-69413960D01*
X152647043Y-69430436D01*
X152627338Y-69445050D01*
X152606294Y-69457663D01*
X152584116Y-69468153D01*
X152561016Y-69476418D01*
X152537218Y-69482379D01*
X152512949Y-69485979D01*
X152488445Y-69487183D01*
X151563445Y-69487183D01*
X151538941Y-69485979D01*
X151514672Y-69482379D01*
X151490874Y-69476418D01*
X151467774Y-69468153D01*
X151445596Y-69457663D01*
X151424552Y-69445050D01*
X151404847Y-69430436D01*
X151386668Y-69413960D01*
X151370192Y-69395781D01*
X151355578Y-69376076D01*
X151342965Y-69355032D01*
X151332475Y-69332854D01*
X151324210Y-69309754D01*
X151318249Y-69285956D01*
X151314649Y-69261687D01*
X151313445Y-69237183D01*
X151313445Y-67987183D01*
X151314649Y-67962679D01*
X151318249Y-67938410D01*
X151324210Y-67914612D01*
X151332475Y-67891512D01*
X151342965Y-67869334D01*
X151355578Y-67848290D01*
X151370192Y-67828585D01*
X151386668Y-67810406D01*
X151404847Y-67793930D01*
X151424552Y-67779316D01*
X151445596Y-67766703D01*
X151467774Y-67756213D01*
X151490874Y-67747948D01*
X151514672Y-67741987D01*
X151538941Y-67738387D01*
X151563445Y-67737183D01*
X152488445Y-67737183D01*
X152512949Y-67738387D01*
X152512949Y-67738387D01*
G37*
D12*
X152025945Y-68612183D03*
G04 #@! TD*
D19*
G04 #@! TO.C,U4*
X163950000Y-79000000D03*
X163950000Y-78500000D03*
X163950000Y-78000000D03*
X163950000Y-77500000D03*
X163950000Y-77000000D03*
X159550000Y-77000000D03*
X159550000Y-77500000D03*
X159550000Y-78000000D03*
X159550000Y-78500000D03*
X159550000Y-79000000D03*
G04 #@! TD*
D20*
G04 #@! TO.C,U3*
X122160000Y-57720000D03*
X123430000Y-57720000D03*
X124700000Y-57720000D03*
X125970000Y-57720000D03*
X127240000Y-57720000D03*
X128510000Y-57720000D03*
X129780000Y-57720000D03*
X131050000Y-57720000D03*
X132320000Y-57720000D03*
X133590000Y-57720000D03*
X134860000Y-57720000D03*
X136130000Y-57720000D03*
X137400000Y-57720000D03*
X138670000Y-57720000D03*
X139970000Y-57750000D03*
X141240000Y-57750000D03*
X142510000Y-57750000D03*
X143780000Y-57750000D03*
X145050000Y-57750000D03*
X145050000Y-75750000D03*
X143780000Y-75750000D03*
X142510000Y-75750000D03*
X141240000Y-75750000D03*
X139970000Y-75750000D03*
X138670000Y-75750000D03*
X137400000Y-75750000D03*
X136130000Y-75750000D03*
X134860000Y-75750000D03*
X133590000Y-75750000D03*
X132320000Y-75750000D03*
X131050000Y-75750000D03*
X129780000Y-75750000D03*
X128510000Y-75750000D03*
X127240000Y-75750000D03*
X125970000Y-75750000D03*
X124700000Y-75750000D03*
X123430000Y-75750000D03*
X122160000Y-75750000D03*
D21*
X129080000Y-67150000D03*
G04 #@! TD*
D11*
G04 #@! TO.C,R24*
G36*
X170399504Y-103038704D02*
X170423773Y-103042304D01*
X170447571Y-103048265D01*
X170470671Y-103056530D01*
X170492849Y-103067020D01*
X170513893Y-103079633D01*
X170533598Y-103094247D01*
X170551777Y-103110723D01*
X170568253Y-103128902D01*
X170582867Y-103148607D01*
X170595480Y-103169651D01*
X170605970Y-103191829D01*
X170614235Y-103214929D01*
X170620196Y-103238727D01*
X170623796Y-103262996D01*
X170625000Y-103287500D01*
X170625000Y-104212500D01*
X170623796Y-104237004D01*
X170620196Y-104261273D01*
X170614235Y-104285071D01*
X170605970Y-104308171D01*
X170595480Y-104330349D01*
X170582867Y-104351393D01*
X170568253Y-104371098D01*
X170551777Y-104389277D01*
X170533598Y-104405753D01*
X170513893Y-104420367D01*
X170492849Y-104432980D01*
X170470671Y-104443470D01*
X170447571Y-104451735D01*
X170423773Y-104457696D01*
X170399504Y-104461296D01*
X170375000Y-104462500D01*
X169125000Y-104462500D01*
X169100496Y-104461296D01*
X169076227Y-104457696D01*
X169052429Y-104451735D01*
X169029329Y-104443470D01*
X169007151Y-104432980D01*
X168986107Y-104420367D01*
X168966402Y-104405753D01*
X168948223Y-104389277D01*
X168931747Y-104371098D01*
X168917133Y-104351393D01*
X168904520Y-104330349D01*
X168894030Y-104308171D01*
X168885765Y-104285071D01*
X168879804Y-104261273D01*
X168876204Y-104237004D01*
X168875000Y-104212500D01*
X168875000Y-103287500D01*
X168876204Y-103262996D01*
X168879804Y-103238727D01*
X168885765Y-103214929D01*
X168894030Y-103191829D01*
X168904520Y-103169651D01*
X168917133Y-103148607D01*
X168931747Y-103128902D01*
X168948223Y-103110723D01*
X168966402Y-103094247D01*
X168986107Y-103079633D01*
X169007151Y-103067020D01*
X169029329Y-103056530D01*
X169052429Y-103048265D01*
X169076227Y-103042304D01*
X169100496Y-103038704D01*
X169125000Y-103037500D01*
X170375000Y-103037500D01*
X170399504Y-103038704D01*
X170399504Y-103038704D01*
G37*
D12*
X169750000Y-103750000D03*
D11*
G36*
X170399504Y-100063704D02*
X170423773Y-100067304D01*
X170447571Y-100073265D01*
X170470671Y-100081530D01*
X170492849Y-100092020D01*
X170513893Y-100104633D01*
X170533598Y-100119247D01*
X170551777Y-100135723D01*
X170568253Y-100153902D01*
X170582867Y-100173607D01*
X170595480Y-100194651D01*
X170605970Y-100216829D01*
X170614235Y-100239929D01*
X170620196Y-100263727D01*
X170623796Y-100287996D01*
X170625000Y-100312500D01*
X170625000Y-101237500D01*
X170623796Y-101262004D01*
X170620196Y-101286273D01*
X170614235Y-101310071D01*
X170605970Y-101333171D01*
X170595480Y-101355349D01*
X170582867Y-101376393D01*
X170568253Y-101396098D01*
X170551777Y-101414277D01*
X170533598Y-101430753D01*
X170513893Y-101445367D01*
X170492849Y-101457980D01*
X170470671Y-101468470D01*
X170447571Y-101476735D01*
X170423773Y-101482696D01*
X170399504Y-101486296D01*
X170375000Y-101487500D01*
X169125000Y-101487500D01*
X169100496Y-101486296D01*
X169076227Y-101482696D01*
X169052429Y-101476735D01*
X169029329Y-101468470D01*
X169007151Y-101457980D01*
X168986107Y-101445367D01*
X168966402Y-101430753D01*
X168948223Y-101414277D01*
X168931747Y-101396098D01*
X168917133Y-101376393D01*
X168904520Y-101355349D01*
X168894030Y-101333171D01*
X168885765Y-101310071D01*
X168879804Y-101286273D01*
X168876204Y-101262004D01*
X168875000Y-101237500D01*
X168875000Y-100312500D01*
X168876204Y-100287996D01*
X168879804Y-100263727D01*
X168885765Y-100239929D01*
X168894030Y-100216829D01*
X168904520Y-100194651D01*
X168917133Y-100173607D01*
X168931747Y-100153902D01*
X168948223Y-100135723D01*
X168966402Y-100119247D01*
X168986107Y-100104633D01*
X169007151Y-100092020D01*
X169029329Y-100081530D01*
X169052429Y-100073265D01*
X169076227Y-100067304D01*
X169100496Y-100063704D01*
X169125000Y-100062500D01*
X170375000Y-100062500D01*
X170399504Y-100063704D01*
X170399504Y-100063704D01*
G37*
D12*
X169750000Y-100775000D03*
G04 #@! TD*
D11*
G04 #@! TO.C,R23*
G36*
X155037949Y-67738387D02*
X155062218Y-67741987D01*
X155086016Y-67747948D01*
X155109116Y-67756213D01*
X155131294Y-67766703D01*
X155152338Y-67779316D01*
X155172043Y-67793930D01*
X155190222Y-67810406D01*
X155206698Y-67828585D01*
X155221312Y-67848290D01*
X155233925Y-67869334D01*
X155244415Y-67891512D01*
X155252680Y-67914612D01*
X155258641Y-67938410D01*
X155262241Y-67962679D01*
X155263445Y-67987183D01*
X155263445Y-69237183D01*
X155262241Y-69261687D01*
X155258641Y-69285956D01*
X155252680Y-69309754D01*
X155244415Y-69332854D01*
X155233925Y-69355032D01*
X155221312Y-69376076D01*
X155206698Y-69395781D01*
X155190222Y-69413960D01*
X155172043Y-69430436D01*
X155152338Y-69445050D01*
X155131294Y-69457663D01*
X155109116Y-69468153D01*
X155086016Y-69476418D01*
X155062218Y-69482379D01*
X155037949Y-69485979D01*
X155013445Y-69487183D01*
X154088445Y-69487183D01*
X154063941Y-69485979D01*
X154039672Y-69482379D01*
X154015874Y-69476418D01*
X153992774Y-69468153D01*
X153970596Y-69457663D01*
X153949552Y-69445050D01*
X153929847Y-69430436D01*
X153911668Y-69413960D01*
X153895192Y-69395781D01*
X153880578Y-69376076D01*
X153867965Y-69355032D01*
X153857475Y-69332854D01*
X153849210Y-69309754D01*
X153843249Y-69285956D01*
X153839649Y-69261687D01*
X153838445Y-69237183D01*
X153838445Y-67987183D01*
X153839649Y-67962679D01*
X153843249Y-67938410D01*
X153849210Y-67914612D01*
X153857475Y-67891512D01*
X153867965Y-67869334D01*
X153880578Y-67848290D01*
X153895192Y-67828585D01*
X153911668Y-67810406D01*
X153929847Y-67793930D01*
X153949552Y-67779316D01*
X153970596Y-67766703D01*
X153992774Y-67756213D01*
X154015874Y-67747948D01*
X154039672Y-67741987D01*
X154063941Y-67738387D01*
X154088445Y-67737183D01*
X155013445Y-67737183D01*
X155037949Y-67738387D01*
X155037949Y-67738387D01*
G37*
D12*
X154550945Y-68612183D03*
D11*
G36*
X158012949Y-67738387D02*
X158037218Y-67741987D01*
X158061016Y-67747948D01*
X158084116Y-67756213D01*
X158106294Y-67766703D01*
X158127338Y-67779316D01*
X158147043Y-67793930D01*
X158165222Y-67810406D01*
X158181698Y-67828585D01*
X158196312Y-67848290D01*
X158208925Y-67869334D01*
X158219415Y-67891512D01*
X158227680Y-67914612D01*
X158233641Y-67938410D01*
X158237241Y-67962679D01*
X158238445Y-67987183D01*
X158238445Y-69237183D01*
X158237241Y-69261687D01*
X158233641Y-69285956D01*
X158227680Y-69309754D01*
X158219415Y-69332854D01*
X158208925Y-69355032D01*
X158196312Y-69376076D01*
X158181698Y-69395781D01*
X158165222Y-69413960D01*
X158147043Y-69430436D01*
X158127338Y-69445050D01*
X158106294Y-69457663D01*
X158084116Y-69468153D01*
X158061016Y-69476418D01*
X158037218Y-69482379D01*
X158012949Y-69485979D01*
X157988445Y-69487183D01*
X157063445Y-69487183D01*
X157038941Y-69485979D01*
X157014672Y-69482379D01*
X156990874Y-69476418D01*
X156967774Y-69468153D01*
X156945596Y-69457663D01*
X156924552Y-69445050D01*
X156904847Y-69430436D01*
X156886668Y-69413960D01*
X156870192Y-69395781D01*
X156855578Y-69376076D01*
X156842965Y-69355032D01*
X156832475Y-69332854D01*
X156824210Y-69309754D01*
X156818249Y-69285956D01*
X156814649Y-69261687D01*
X156813445Y-69237183D01*
X156813445Y-67987183D01*
X156814649Y-67962679D01*
X156818249Y-67938410D01*
X156824210Y-67914612D01*
X156832475Y-67891512D01*
X156842965Y-67869334D01*
X156855578Y-67848290D01*
X156870192Y-67828585D01*
X156886668Y-67810406D01*
X156904847Y-67793930D01*
X156924552Y-67779316D01*
X156945596Y-67766703D01*
X156967774Y-67756213D01*
X156990874Y-67747948D01*
X157014672Y-67741987D01*
X157038941Y-67738387D01*
X157063445Y-67737183D01*
X157988445Y-67737183D01*
X158012949Y-67738387D01*
X158012949Y-67738387D01*
G37*
D12*
X157525945Y-68612183D03*
G04 #@! TD*
D11*
G04 #@! TO.C,R22*
G36*
X158037949Y-63738387D02*
X158062218Y-63741987D01*
X158086016Y-63747948D01*
X158109116Y-63756213D01*
X158131294Y-63766703D01*
X158152338Y-63779316D01*
X158172043Y-63793930D01*
X158190222Y-63810406D01*
X158206698Y-63828585D01*
X158221312Y-63848290D01*
X158233925Y-63869334D01*
X158244415Y-63891512D01*
X158252680Y-63914612D01*
X158258641Y-63938410D01*
X158262241Y-63962679D01*
X158263445Y-63987183D01*
X158263445Y-65237183D01*
X158262241Y-65261687D01*
X158258641Y-65285956D01*
X158252680Y-65309754D01*
X158244415Y-65332854D01*
X158233925Y-65355032D01*
X158221312Y-65376076D01*
X158206698Y-65395781D01*
X158190222Y-65413960D01*
X158172043Y-65430436D01*
X158152338Y-65445050D01*
X158131294Y-65457663D01*
X158109116Y-65468153D01*
X158086016Y-65476418D01*
X158062218Y-65482379D01*
X158037949Y-65485979D01*
X158013445Y-65487183D01*
X157088445Y-65487183D01*
X157063941Y-65485979D01*
X157039672Y-65482379D01*
X157015874Y-65476418D01*
X156992774Y-65468153D01*
X156970596Y-65457663D01*
X156949552Y-65445050D01*
X156929847Y-65430436D01*
X156911668Y-65413960D01*
X156895192Y-65395781D01*
X156880578Y-65376076D01*
X156867965Y-65355032D01*
X156857475Y-65332854D01*
X156849210Y-65309754D01*
X156843249Y-65285956D01*
X156839649Y-65261687D01*
X156838445Y-65237183D01*
X156838445Y-63987183D01*
X156839649Y-63962679D01*
X156843249Y-63938410D01*
X156849210Y-63914612D01*
X156857475Y-63891512D01*
X156867965Y-63869334D01*
X156880578Y-63848290D01*
X156895192Y-63828585D01*
X156911668Y-63810406D01*
X156929847Y-63793930D01*
X156949552Y-63779316D01*
X156970596Y-63766703D01*
X156992774Y-63756213D01*
X157015874Y-63747948D01*
X157039672Y-63741987D01*
X157063941Y-63738387D01*
X157088445Y-63737183D01*
X158013445Y-63737183D01*
X158037949Y-63738387D01*
X158037949Y-63738387D01*
G37*
D12*
X157550945Y-64612183D03*
D11*
G36*
X155062949Y-63738387D02*
X155087218Y-63741987D01*
X155111016Y-63747948D01*
X155134116Y-63756213D01*
X155156294Y-63766703D01*
X155177338Y-63779316D01*
X155197043Y-63793930D01*
X155215222Y-63810406D01*
X155231698Y-63828585D01*
X155246312Y-63848290D01*
X155258925Y-63869334D01*
X155269415Y-63891512D01*
X155277680Y-63914612D01*
X155283641Y-63938410D01*
X155287241Y-63962679D01*
X155288445Y-63987183D01*
X155288445Y-65237183D01*
X155287241Y-65261687D01*
X155283641Y-65285956D01*
X155277680Y-65309754D01*
X155269415Y-65332854D01*
X155258925Y-65355032D01*
X155246312Y-65376076D01*
X155231698Y-65395781D01*
X155215222Y-65413960D01*
X155197043Y-65430436D01*
X155177338Y-65445050D01*
X155156294Y-65457663D01*
X155134116Y-65468153D01*
X155111016Y-65476418D01*
X155087218Y-65482379D01*
X155062949Y-65485979D01*
X155038445Y-65487183D01*
X154113445Y-65487183D01*
X154088941Y-65485979D01*
X154064672Y-65482379D01*
X154040874Y-65476418D01*
X154017774Y-65468153D01*
X153995596Y-65457663D01*
X153974552Y-65445050D01*
X153954847Y-65430436D01*
X153936668Y-65413960D01*
X153920192Y-65395781D01*
X153905578Y-65376076D01*
X153892965Y-65355032D01*
X153882475Y-65332854D01*
X153874210Y-65309754D01*
X153868249Y-65285956D01*
X153864649Y-65261687D01*
X153863445Y-65237183D01*
X153863445Y-63987183D01*
X153864649Y-63962679D01*
X153868249Y-63938410D01*
X153874210Y-63914612D01*
X153882475Y-63891512D01*
X153892965Y-63869334D01*
X153905578Y-63848290D01*
X153920192Y-63828585D01*
X153936668Y-63810406D01*
X153954847Y-63793930D01*
X153974552Y-63779316D01*
X153995596Y-63766703D01*
X154017774Y-63756213D01*
X154040874Y-63747948D01*
X154064672Y-63741987D01*
X154088941Y-63738387D01*
X154113445Y-63737183D01*
X155038445Y-63737183D01*
X155062949Y-63738387D01*
X155062949Y-63738387D01*
G37*
D12*
X154575945Y-64612183D03*
G04 #@! TD*
D11*
G04 #@! TO.C,R21*
G36*
X149649504Y-57038704D02*
X149673773Y-57042304D01*
X149697571Y-57048265D01*
X149720671Y-57056530D01*
X149742849Y-57067020D01*
X149763893Y-57079633D01*
X149783598Y-57094247D01*
X149801777Y-57110723D01*
X149818253Y-57128902D01*
X149832867Y-57148607D01*
X149845480Y-57169651D01*
X149855970Y-57191829D01*
X149864235Y-57214929D01*
X149870196Y-57238727D01*
X149873796Y-57262996D01*
X149875000Y-57287500D01*
X149875000Y-58212500D01*
X149873796Y-58237004D01*
X149870196Y-58261273D01*
X149864235Y-58285071D01*
X149855970Y-58308171D01*
X149845480Y-58330349D01*
X149832867Y-58351393D01*
X149818253Y-58371098D01*
X149801777Y-58389277D01*
X149783598Y-58405753D01*
X149763893Y-58420367D01*
X149742849Y-58432980D01*
X149720671Y-58443470D01*
X149697571Y-58451735D01*
X149673773Y-58457696D01*
X149649504Y-58461296D01*
X149625000Y-58462500D01*
X148375000Y-58462500D01*
X148350496Y-58461296D01*
X148326227Y-58457696D01*
X148302429Y-58451735D01*
X148279329Y-58443470D01*
X148257151Y-58432980D01*
X148236107Y-58420367D01*
X148216402Y-58405753D01*
X148198223Y-58389277D01*
X148181747Y-58371098D01*
X148167133Y-58351393D01*
X148154520Y-58330349D01*
X148144030Y-58308171D01*
X148135765Y-58285071D01*
X148129804Y-58261273D01*
X148126204Y-58237004D01*
X148125000Y-58212500D01*
X148125000Y-57287500D01*
X148126204Y-57262996D01*
X148129804Y-57238727D01*
X148135765Y-57214929D01*
X148144030Y-57191829D01*
X148154520Y-57169651D01*
X148167133Y-57148607D01*
X148181747Y-57128902D01*
X148198223Y-57110723D01*
X148216402Y-57094247D01*
X148236107Y-57079633D01*
X148257151Y-57067020D01*
X148279329Y-57056530D01*
X148302429Y-57048265D01*
X148326227Y-57042304D01*
X148350496Y-57038704D01*
X148375000Y-57037500D01*
X149625000Y-57037500D01*
X149649504Y-57038704D01*
X149649504Y-57038704D01*
G37*
D12*
X149000000Y-57750000D03*
D11*
G36*
X149649504Y-54063704D02*
X149673773Y-54067304D01*
X149697571Y-54073265D01*
X149720671Y-54081530D01*
X149742849Y-54092020D01*
X149763893Y-54104633D01*
X149783598Y-54119247D01*
X149801777Y-54135723D01*
X149818253Y-54153902D01*
X149832867Y-54173607D01*
X149845480Y-54194651D01*
X149855970Y-54216829D01*
X149864235Y-54239929D01*
X149870196Y-54263727D01*
X149873796Y-54287996D01*
X149875000Y-54312500D01*
X149875000Y-55237500D01*
X149873796Y-55262004D01*
X149870196Y-55286273D01*
X149864235Y-55310071D01*
X149855970Y-55333171D01*
X149845480Y-55355349D01*
X149832867Y-55376393D01*
X149818253Y-55396098D01*
X149801777Y-55414277D01*
X149783598Y-55430753D01*
X149763893Y-55445367D01*
X149742849Y-55457980D01*
X149720671Y-55468470D01*
X149697571Y-55476735D01*
X149673773Y-55482696D01*
X149649504Y-55486296D01*
X149625000Y-55487500D01*
X148375000Y-55487500D01*
X148350496Y-55486296D01*
X148326227Y-55482696D01*
X148302429Y-55476735D01*
X148279329Y-55468470D01*
X148257151Y-55457980D01*
X148236107Y-55445367D01*
X148216402Y-55430753D01*
X148198223Y-55414277D01*
X148181747Y-55396098D01*
X148167133Y-55376393D01*
X148154520Y-55355349D01*
X148144030Y-55333171D01*
X148135765Y-55310071D01*
X148129804Y-55286273D01*
X148126204Y-55262004D01*
X148125000Y-55237500D01*
X148125000Y-54312500D01*
X148126204Y-54287996D01*
X148129804Y-54263727D01*
X148135765Y-54239929D01*
X148144030Y-54216829D01*
X148154520Y-54194651D01*
X148167133Y-54173607D01*
X148181747Y-54153902D01*
X148198223Y-54135723D01*
X148216402Y-54119247D01*
X148236107Y-54104633D01*
X148257151Y-54092020D01*
X148279329Y-54081530D01*
X148302429Y-54073265D01*
X148326227Y-54067304D01*
X148350496Y-54063704D01*
X148375000Y-54062500D01*
X149625000Y-54062500D01*
X149649504Y-54063704D01*
X149649504Y-54063704D01*
G37*
D12*
X149000000Y-54775000D03*
G04 #@! TD*
D11*
G04 #@! TO.C,R20*
G36*
X174474504Y-93126204D02*
X174498773Y-93129804D01*
X174522571Y-93135765D01*
X174545671Y-93144030D01*
X174567849Y-93154520D01*
X174588893Y-93167133D01*
X174608598Y-93181747D01*
X174626777Y-93198223D01*
X174643253Y-93216402D01*
X174657867Y-93236107D01*
X174670480Y-93257151D01*
X174680970Y-93279329D01*
X174689235Y-93302429D01*
X174695196Y-93326227D01*
X174698796Y-93350496D01*
X174700000Y-93375000D01*
X174700000Y-94625000D01*
X174698796Y-94649504D01*
X174695196Y-94673773D01*
X174689235Y-94697571D01*
X174680970Y-94720671D01*
X174670480Y-94742849D01*
X174657867Y-94763893D01*
X174643253Y-94783598D01*
X174626777Y-94801777D01*
X174608598Y-94818253D01*
X174588893Y-94832867D01*
X174567849Y-94845480D01*
X174545671Y-94855970D01*
X174522571Y-94864235D01*
X174498773Y-94870196D01*
X174474504Y-94873796D01*
X174450000Y-94875000D01*
X173525000Y-94875000D01*
X173500496Y-94873796D01*
X173476227Y-94870196D01*
X173452429Y-94864235D01*
X173429329Y-94855970D01*
X173407151Y-94845480D01*
X173386107Y-94832867D01*
X173366402Y-94818253D01*
X173348223Y-94801777D01*
X173331747Y-94783598D01*
X173317133Y-94763893D01*
X173304520Y-94742849D01*
X173294030Y-94720671D01*
X173285765Y-94697571D01*
X173279804Y-94673773D01*
X173276204Y-94649504D01*
X173275000Y-94625000D01*
X173275000Y-93375000D01*
X173276204Y-93350496D01*
X173279804Y-93326227D01*
X173285765Y-93302429D01*
X173294030Y-93279329D01*
X173304520Y-93257151D01*
X173317133Y-93236107D01*
X173331747Y-93216402D01*
X173348223Y-93198223D01*
X173366402Y-93181747D01*
X173386107Y-93167133D01*
X173407151Y-93154520D01*
X173429329Y-93144030D01*
X173452429Y-93135765D01*
X173476227Y-93129804D01*
X173500496Y-93126204D01*
X173525000Y-93125000D01*
X174450000Y-93125000D01*
X174474504Y-93126204D01*
X174474504Y-93126204D01*
G37*
D12*
X173987500Y-94000000D03*
D11*
G36*
X171499504Y-93126204D02*
X171523773Y-93129804D01*
X171547571Y-93135765D01*
X171570671Y-93144030D01*
X171592849Y-93154520D01*
X171613893Y-93167133D01*
X171633598Y-93181747D01*
X171651777Y-93198223D01*
X171668253Y-93216402D01*
X171682867Y-93236107D01*
X171695480Y-93257151D01*
X171705970Y-93279329D01*
X171714235Y-93302429D01*
X171720196Y-93326227D01*
X171723796Y-93350496D01*
X171725000Y-93375000D01*
X171725000Y-94625000D01*
X171723796Y-94649504D01*
X171720196Y-94673773D01*
X171714235Y-94697571D01*
X171705970Y-94720671D01*
X171695480Y-94742849D01*
X171682867Y-94763893D01*
X171668253Y-94783598D01*
X171651777Y-94801777D01*
X171633598Y-94818253D01*
X171613893Y-94832867D01*
X171592849Y-94845480D01*
X171570671Y-94855970D01*
X171547571Y-94864235D01*
X171523773Y-94870196D01*
X171499504Y-94873796D01*
X171475000Y-94875000D01*
X170550000Y-94875000D01*
X170525496Y-94873796D01*
X170501227Y-94870196D01*
X170477429Y-94864235D01*
X170454329Y-94855970D01*
X170432151Y-94845480D01*
X170411107Y-94832867D01*
X170391402Y-94818253D01*
X170373223Y-94801777D01*
X170356747Y-94783598D01*
X170342133Y-94763893D01*
X170329520Y-94742849D01*
X170319030Y-94720671D01*
X170310765Y-94697571D01*
X170304804Y-94673773D01*
X170301204Y-94649504D01*
X170300000Y-94625000D01*
X170300000Y-93375000D01*
X170301204Y-93350496D01*
X170304804Y-93326227D01*
X170310765Y-93302429D01*
X170319030Y-93279329D01*
X170329520Y-93257151D01*
X170342133Y-93236107D01*
X170356747Y-93216402D01*
X170373223Y-93198223D01*
X170391402Y-93181747D01*
X170411107Y-93167133D01*
X170432151Y-93154520D01*
X170454329Y-93144030D01*
X170477429Y-93135765D01*
X170501227Y-93129804D01*
X170525496Y-93126204D01*
X170550000Y-93125000D01*
X171475000Y-93125000D01*
X171499504Y-93126204D01*
X171499504Y-93126204D01*
G37*
D12*
X171012500Y-94000000D03*
G04 #@! TD*
D11*
G04 #@! TO.C,R19*
G36*
X164724504Y-85126204D02*
X164748773Y-85129804D01*
X164772571Y-85135765D01*
X164795671Y-85144030D01*
X164817849Y-85154520D01*
X164838893Y-85167133D01*
X164858598Y-85181747D01*
X164876777Y-85198223D01*
X164893253Y-85216402D01*
X164907867Y-85236107D01*
X164920480Y-85257151D01*
X164930970Y-85279329D01*
X164939235Y-85302429D01*
X164945196Y-85326227D01*
X164948796Y-85350496D01*
X164950000Y-85375000D01*
X164950000Y-86625000D01*
X164948796Y-86649504D01*
X164945196Y-86673773D01*
X164939235Y-86697571D01*
X164930970Y-86720671D01*
X164920480Y-86742849D01*
X164907867Y-86763893D01*
X164893253Y-86783598D01*
X164876777Y-86801777D01*
X164858598Y-86818253D01*
X164838893Y-86832867D01*
X164817849Y-86845480D01*
X164795671Y-86855970D01*
X164772571Y-86864235D01*
X164748773Y-86870196D01*
X164724504Y-86873796D01*
X164700000Y-86875000D01*
X163775000Y-86875000D01*
X163750496Y-86873796D01*
X163726227Y-86870196D01*
X163702429Y-86864235D01*
X163679329Y-86855970D01*
X163657151Y-86845480D01*
X163636107Y-86832867D01*
X163616402Y-86818253D01*
X163598223Y-86801777D01*
X163581747Y-86783598D01*
X163567133Y-86763893D01*
X163554520Y-86742849D01*
X163544030Y-86720671D01*
X163535765Y-86697571D01*
X163529804Y-86673773D01*
X163526204Y-86649504D01*
X163525000Y-86625000D01*
X163525000Y-85375000D01*
X163526204Y-85350496D01*
X163529804Y-85326227D01*
X163535765Y-85302429D01*
X163544030Y-85279329D01*
X163554520Y-85257151D01*
X163567133Y-85236107D01*
X163581747Y-85216402D01*
X163598223Y-85198223D01*
X163616402Y-85181747D01*
X163636107Y-85167133D01*
X163657151Y-85154520D01*
X163679329Y-85144030D01*
X163702429Y-85135765D01*
X163726227Y-85129804D01*
X163750496Y-85126204D01*
X163775000Y-85125000D01*
X164700000Y-85125000D01*
X164724504Y-85126204D01*
X164724504Y-85126204D01*
G37*
D12*
X164237500Y-86000000D03*
D11*
G36*
X161749504Y-85126204D02*
X161773773Y-85129804D01*
X161797571Y-85135765D01*
X161820671Y-85144030D01*
X161842849Y-85154520D01*
X161863893Y-85167133D01*
X161883598Y-85181747D01*
X161901777Y-85198223D01*
X161918253Y-85216402D01*
X161932867Y-85236107D01*
X161945480Y-85257151D01*
X161955970Y-85279329D01*
X161964235Y-85302429D01*
X161970196Y-85326227D01*
X161973796Y-85350496D01*
X161975000Y-85375000D01*
X161975000Y-86625000D01*
X161973796Y-86649504D01*
X161970196Y-86673773D01*
X161964235Y-86697571D01*
X161955970Y-86720671D01*
X161945480Y-86742849D01*
X161932867Y-86763893D01*
X161918253Y-86783598D01*
X161901777Y-86801777D01*
X161883598Y-86818253D01*
X161863893Y-86832867D01*
X161842849Y-86845480D01*
X161820671Y-86855970D01*
X161797571Y-86864235D01*
X161773773Y-86870196D01*
X161749504Y-86873796D01*
X161725000Y-86875000D01*
X160800000Y-86875000D01*
X160775496Y-86873796D01*
X160751227Y-86870196D01*
X160727429Y-86864235D01*
X160704329Y-86855970D01*
X160682151Y-86845480D01*
X160661107Y-86832867D01*
X160641402Y-86818253D01*
X160623223Y-86801777D01*
X160606747Y-86783598D01*
X160592133Y-86763893D01*
X160579520Y-86742849D01*
X160569030Y-86720671D01*
X160560765Y-86697571D01*
X160554804Y-86673773D01*
X160551204Y-86649504D01*
X160550000Y-86625000D01*
X160550000Y-85375000D01*
X160551204Y-85350496D01*
X160554804Y-85326227D01*
X160560765Y-85302429D01*
X160569030Y-85279329D01*
X160579520Y-85257151D01*
X160592133Y-85236107D01*
X160606747Y-85216402D01*
X160623223Y-85198223D01*
X160641402Y-85181747D01*
X160661107Y-85167133D01*
X160682151Y-85154520D01*
X160704329Y-85144030D01*
X160727429Y-85135765D01*
X160751227Y-85129804D01*
X160775496Y-85126204D01*
X160800000Y-85125000D01*
X161725000Y-85125000D01*
X161749504Y-85126204D01*
X161749504Y-85126204D01*
G37*
D12*
X161262500Y-86000000D03*
G04 #@! TD*
D11*
G04 #@! TO.C,R18*
G36*
X174474504Y-96376204D02*
X174498773Y-96379804D01*
X174522571Y-96385765D01*
X174545671Y-96394030D01*
X174567849Y-96404520D01*
X174588893Y-96417133D01*
X174608598Y-96431747D01*
X174626777Y-96448223D01*
X174643253Y-96466402D01*
X174657867Y-96486107D01*
X174670480Y-96507151D01*
X174680970Y-96529329D01*
X174689235Y-96552429D01*
X174695196Y-96576227D01*
X174698796Y-96600496D01*
X174700000Y-96625000D01*
X174700000Y-97875000D01*
X174698796Y-97899504D01*
X174695196Y-97923773D01*
X174689235Y-97947571D01*
X174680970Y-97970671D01*
X174670480Y-97992849D01*
X174657867Y-98013893D01*
X174643253Y-98033598D01*
X174626777Y-98051777D01*
X174608598Y-98068253D01*
X174588893Y-98082867D01*
X174567849Y-98095480D01*
X174545671Y-98105970D01*
X174522571Y-98114235D01*
X174498773Y-98120196D01*
X174474504Y-98123796D01*
X174450000Y-98125000D01*
X173525000Y-98125000D01*
X173500496Y-98123796D01*
X173476227Y-98120196D01*
X173452429Y-98114235D01*
X173429329Y-98105970D01*
X173407151Y-98095480D01*
X173386107Y-98082867D01*
X173366402Y-98068253D01*
X173348223Y-98051777D01*
X173331747Y-98033598D01*
X173317133Y-98013893D01*
X173304520Y-97992849D01*
X173294030Y-97970671D01*
X173285765Y-97947571D01*
X173279804Y-97923773D01*
X173276204Y-97899504D01*
X173275000Y-97875000D01*
X173275000Y-96625000D01*
X173276204Y-96600496D01*
X173279804Y-96576227D01*
X173285765Y-96552429D01*
X173294030Y-96529329D01*
X173304520Y-96507151D01*
X173317133Y-96486107D01*
X173331747Y-96466402D01*
X173348223Y-96448223D01*
X173366402Y-96431747D01*
X173386107Y-96417133D01*
X173407151Y-96404520D01*
X173429329Y-96394030D01*
X173452429Y-96385765D01*
X173476227Y-96379804D01*
X173500496Y-96376204D01*
X173525000Y-96375000D01*
X174450000Y-96375000D01*
X174474504Y-96376204D01*
X174474504Y-96376204D01*
G37*
D12*
X173987500Y-97250000D03*
D11*
G36*
X171499504Y-96376204D02*
X171523773Y-96379804D01*
X171547571Y-96385765D01*
X171570671Y-96394030D01*
X171592849Y-96404520D01*
X171613893Y-96417133D01*
X171633598Y-96431747D01*
X171651777Y-96448223D01*
X171668253Y-96466402D01*
X171682867Y-96486107D01*
X171695480Y-96507151D01*
X171705970Y-96529329D01*
X171714235Y-96552429D01*
X171720196Y-96576227D01*
X171723796Y-96600496D01*
X171725000Y-96625000D01*
X171725000Y-97875000D01*
X171723796Y-97899504D01*
X171720196Y-97923773D01*
X171714235Y-97947571D01*
X171705970Y-97970671D01*
X171695480Y-97992849D01*
X171682867Y-98013893D01*
X171668253Y-98033598D01*
X171651777Y-98051777D01*
X171633598Y-98068253D01*
X171613893Y-98082867D01*
X171592849Y-98095480D01*
X171570671Y-98105970D01*
X171547571Y-98114235D01*
X171523773Y-98120196D01*
X171499504Y-98123796D01*
X171475000Y-98125000D01*
X170550000Y-98125000D01*
X170525496Y-98123796D01*
X170501227Y-98120196D01*
X170477429Y-98114235D01*
X170454329Y-98105970D01*
X170432151Y-98095480D01*
X170411107Y-98082867D01*
X170391402Y-98068253D01*
X170373223Y-98051777D01*
X170356747Y-98033598D01*
X170342133Y-98013893D01*
X170329520Y-97992849D01*
X170319030Y-97970671D01*
X170310765Y-97947571D01*
X170304804Y-97923773D01*
X170301204Y-97899504D01*
X170300000Y-97875000D01*
X170300000Y-96625000D01*
X170301204Y-96600496D01*
X170304804Y-96576227D01*
X170310765Y-96552429D01*
X170319030Y-96529329D01*
X170329520Y-96507151D01*
X170342133Y-96486107D01*
X170356747Y-96466402D01*
X170373223Y-96448223D01*
X170391402Y-96431747D01*
X170411107Y-96417133D01*
X170432151Y-96404520D01*
X170454329Y-96394030D01*
X170477429Y-96385765D01*
X170501227Y-96379804D01*
X170525496Y-96376204D01*
X170550000Y-96375000D01*
X171475000Y-96375000D01*
X171499504Y-96376204D01*
X171499504Y-96376204D01*
G37*
D12*
X171012500Y-97250000D03*
G04 #@! TD*
D11*
G04 #@! TO.C,R17*
G36*
X163839790Y-71295997D02*
X163864059Y-71299597D01*
X163887857Y-71305558D01*
X163910957Y-71313823D01*
X163933135Y-71324313D01*
X163954179Y-71336926D01*
X163973884Y-71351540D01*
X163992063Y-71368016D01*
X164008539Y-71386195D01*
X164023153Y-71405900D01*
X164035766Y-71426944D01*
X164046256Y-71449122D01*
X164054521Y-71472222D01*
X164060482Y-71496020D01*
X164064082Y-71520289D01*
X164065286Y-71544793D01*
X164065286Y-72794793D01*
X164064082Y-72819297D01*
X164060482Y-72843566D01*
X164054521Y-72867364D01*
X164046256Y-72890464D01*
X164035766Y-72912642D01*
X164023153Y-72933686D01*
X164008539Y-72953391D01*
X163992063Y-72971570D01*
X163973884Y-72988046D01*
X163954179Y-73002660D01*
X163933135Y-73015273D01*
X163910957Y-73025763D01*
X163887857Y-73034028D01*
X163864059Y-73039989D01*
X163839790Y-73043589D01*
X163815286Y-73044793D01*
X162890286Y-73044793D01*
X162865782Y-73043589D01*
X162841513Y-73039989D01*
X162817715Y-73034028D01*
X162794615Y-73025763D01*
X162772437Y-73015273D01*
X162751393Y-73002660D01*
X162731688Y-72988046D01*
X162713509Y-72971570D01*
X162697033Y-72953391D01*
X162682419Y-72933686D01*
X162669806Y-72912642D01*
X162659316Y-72890464D01*
X162651051Y-72867364D01*
X162645090Y-72843566D01*
X162641490Y-72819297D01*
X162640286Y-72794793D01*
X162640286Y-71544793D01*
X162641490Y-71520289D01*
X162645090Y-71496020D01*
X162651051Y-71472222D01*
X162659316Y-71449122D01*
X162669806Y-71426944D01*
X162682419Y-71405900D01*
X162697033Y-71386195D01*
X162713509Y-71368016D01*
X162731688Y-71351540D01*
X162751393Y-71336926D01*
X162772437Y-71324313D01*
X162794615Y-71313823D01*
X162817715Y-71305558D01*
X162841513Y-71299597D01*
X162865782Y-71295997D01*
X162890286Y-71294793D01*
X163815286Y-71294793D01*
X163839790Y-71295997D01*
X163839790Y-71295997D01*
G37*
D12*
X163352786Y-72169793D03*
D11*
G36*
X160864790Y-71295997D02*
X160889059Y-71299597D01*
X160912857Y-71305558D01*
X160935957Y-71313823D01*
X160958135Y-71324313D01*
X160979179Y-71336926D01*
X160998884Y-71351540D01*
X161017063Y-71368016D01*
X161033539Y-71386195D01*
X161048153Y-71405900D01*
X161060766Y-71426944D01*
X161071256Y-71449122D01*
X161079521Y-71472222D01*
X161085482Y-71496020D01*
X161089082Y-71520289D01*
X161090286Y-71544793D01*
X161090286Y-72794793D01*
X161089082Y-72819297D01*
X161085482Y-72843566D01*
X161079521Y-72867364D01*
X161071256Y-72890464D01*
X161060766Y-72912642D01*
X161048153Y-72933686D01*
X161033539Y-72953391D01*
X161017063Y-72971570D01*
X160998884Y-72988046D01*
X160979179Y-73002660D01*
X160958135Y-73015273D01*
X160935957Y-73025763D01*
X160912857Y-73034028D01*
X160889059Y-73039989D01*
X160864790Y-73043589D01*
X160840286Y-73044793D01*
X159915286Y-73044793D01*
X159890782Y-73043589D01*
X159866513Y-73039989D01*
X159842715Y-73034028D01*
X159819615Y-73025763D01*
X159797437Y-73015273D01*
X159776393Y-73002660D01*
X159756688Y-72988046D01*
X159738509Y-72971570D01*
X159722033Y-72953391D01*
X159707419Y-72933686D01*
X159694806Y-72912642D01*
X159684316Y-72890464D01*
X159676051Y-72867364D01*
X159670090Y-72843566D01*
X159666490Y-72819297D01*
X159665286Y-72794793D01*
X159665286Y-71544793D01*
X159666490Y-71520289D01*
X159670090Y-71496020D01*
X159676051Y-71472222D01*
X159684316Y-71449122D01*
X159694806Y-71426944D01*
X159707419Y-71405900D01*
X159722033Y-71386195D01*
X159738509Y-71368016D01*
X159756688Y-71351540D01*
X159776393Y-71336926D01*
X159797437Y-71324313D01*
X159819615Y-71313823D01*
X159842715Y-71305558D01*
X159866513Y-71299597D01*
X159890782Y-71295997D01*
X159915286Y-71294793D01*
X160840286Y-71294793D01*
X160864790Y-71295997D01*
X160864790Y-71295997D01*
G37*
D12*
X160377786Y-72169793D03*
G04 #@! TD*
D11*
G04 #@! TO.C,R16*
G36*
X168149504Y-88263704D02*
X168173773Y-88267304D01*
X168197571Y-88273265D01*
X168220671Y-88281530D01*
X168242849Y-88292020D01*
X168263893Y-88304633D01*
X168283598Y-88319247D01*
X168301777Y-88335723D01*
X168318253Y-88353902D01*
X168332867Y-88373607D01*
X168345480Y-88394651D01*
X168355970Y-88416829D01*
X168364235Y-88439929D01*
X168370196Y-88463727D01*
X168373796Y-88487996D01*
X168375000Y-88512500D01*
X168375000Y-89437500D01*
X168373796Y-89462004D01*
X168370196Y-89486273D01*
X168364235Y-89510071D01*
X168355970Y-89533171D01*
X168345480Y-89555349D01*
X168332867Y-89576393D01*
X168318253Y-89596098D01*
X168301777Y-89614277D01*
X168283598Y-89630753D01*
X168263893Y-89645367D01*
X168242849Y-89657980D01*
X168220671Y-89668470D01*
X168197571Y-89676735D01*
X168173773Y-89682696D01*
X168149504Y-89686296D01*
X168125000Y-89687500D01*
X166875000Y-89687500D01*
X166850496Y-89686296D01*
X166826227Y-89682696D01*
X166802429Y-89676735D01*
X166779329Y-89668470D01*
X166757151Y-89657980D01*
X166736107Y-89645367D01*
X166716402Y-89630753D01*
X166698223Y-89614277D01*
X166681747Y-89596098D01*
X166667133Y-89576393D01*
X166654520Y-89555349D01*
X166644030Y-89533171D01*
X166635765Y-89510071D01*
X166629804Y-89486273D01*
X166626204Y-89462004D01*
X166625000Y-89437500D01*
X166625000Y-88512500D01*
X166626204Y-88487996D01*
X166629804Y-88463727D01*
X166635765Y-88439929D01*
X166644030Y-88416829D01*
X166654520Y-88394651D01*
X166667133Y-88373607D01*
X166681747Y-88353902D01*
X166698223Y-88335723D01*
X166716402Y-88319247D01*
X166736107Y-88304633D01*
X166757151Y-88292020D01*
X166779329Y-88281530D01*
X166802429Y-88273265D01*
X166826227Y-88267304D01*
X166850496Y-88263704D01*
X166875000Y-88262500D01*
X168125000Y-88262500D01*
X168149504Y-88263704D01*
X168149504Y-88263704D01*
G37*
D12*
X167500000Y-88975000D03*
D11*
G36*
X168149504Y-85288704D02*
X168173773Y-85292304D01*
X168197571Y-85298265D01*
X168220671Y-85306530D01*
X168242849Y-85317020D01*
X168263893Y-85329633D01*
X168283598Y-85344247D01*
X168301777Y-85360723D01*
X168318253Y-85378902D01*
X168332867Y-85398607D01*
X168345480Y-85419651D01*
X168355970Y-85441829D01*
X168364235Y-85464929D01*
X168370196Y-85488727D01*
X168373796Y-85512996D01*
X168375000Y-85537500D01*
X168375000Y-86462500D01*
X168373796Y-86487004D01*
X168370196Y-86511273D01*
X168364235Y-86535071D01*
X168355970Y-86558171D01*
X168345480Y-86580349D01*
X168332867Y-86601393D01*
X168318253Y-86621098D01*
X168301777Y-86639277D01*
X168283598Y-86655753D01*
X168263893Y-86670367D01*
X168242849Y-86682980D01*
X168220671Y-86693470D01*
X168197571Y-86701735D01*
X168173773Y-86707696D01*
X168149504Y-86711296D01*
X168125000Y-86712500D01*
X166875000Y-86712500D01*
X166850496Y-86711296D01*
X166826227Y-86707696D01*
X166802429Y-86701735D01*
X166779329Y-86693470D01*
X166757151Y-86682980D01*
X166736107Y-86670367D01*
X166716402Y-86655753D01*
X166698223Y-86639277D01*
X166681747Y-86621098D01*
X166667133Y-86601393D01*
X166654520Y-86580349D01*
X166644030Y-86558171D01*
X166635765Y-86535071D01*
X166629804Y-86511273D01*
X166626204Y-86487004D01*
X166625000Y-86462500D01*
X166625000Y-85537500D01*
X166626204Y-85512996D01*
X166629804Y-85488727D01*
X166635765Y-85464929D01*
X166644030Y-85441829D01*
X166654520Y-85419651D01*
X166667133Y-85398607D01*
X166681747Y-85378902D01*
X166698223Y-85360723D01*
X166716402Y-85344247D01*
X166736107Y-85329633D01*
X166757151Y-85317020D01*
X166779329Y-85306530D01*
X166802429Y-85298265D01*
X166826227Y-85292304D01*
X166850496Y-85288704D01*
X166875000Y-85287500D01*
X168125000Y-85287500D01*
X168149504Y-85288704D01*
X168149504Y-85288704D01*
G37*
D12*
X167500000Y-86000000D03*
G04 #@! TD*
D11*
G04 #@! TO.C,R15*
G36*
X167649504Y-68551204D02*
X167673773Y-68554804D01*
X167697571Y-68560765D01*
X167720671Y-68569030D01*
X167742849Y-68579520D01*
X167763893Y-68592133D01*
X167783598Y-68606747D01*
X167801777Y-68623223D01*
X167818253Y-68641402D01*
X167832867Y-68661107D01*
X167845480Y-68682151D01*
X167855970Y-68704329D01*
X167864235Y-68727429D01*
X167870196Y-68751227D01*
X167873796Y-68775496D01*
X167875000Y-68800000D01*
X167875000Y-69725000D01*
X167873796Y-69749504D01*
X167870196Y-69773773D01*
X167864235Y-69797571D01*
X167855970Y-69820671D01*
X167845480Y-69842849D01*
X167832867Y-69863893D01*
X167818253Y-69883598D01*
X167801777Y-69901777D01*
X167783598Y-69918253D01*
X167763893Y-69932867D01*
X167742849Y-69945480D01*
X167720671Y-69955970D01*
X167697571Y-69964235D01*
X167673773Y-69970196D01*
X167649504Y-69973796D01*
X167625000Y-69975000D01*
X166375000Y-69975000D01*
X166350496Y-69973796D01*
X166326227Y-69970196D01*
X166302429Y-69964235D01*
X166279329Y-69955970D01*
X166257151Y-69945480D01*
X166236107Y-69932867D01*
X166216402Y-69918253D01*
X166198223Y-69901777D01*
X166181747Y-69883598D01*
X166167133Y-69863893D01*
X166154520Y-69842849D01*
X166144030Y-69820671D01*
X166135765Y-69797571D01*
X166129804Y-69773773D01*
X166126204Y-69749504D01*
X166125000Y-69725000D01*
X166125000Y-68800000D01*
X166126204Y-68775496D01*
X166129804Y-68751227D01*
X166135765Y-68727429D01*
X166144030Y-68704329D01*
X166154520Y-68682151D01*
X166167133Y-68661107D01*
X166181747Y-68641402D01*
X166198223Y-68623223D01*
X166216402Y-68606747D01*
X166236107Y-68592133D01*
X166257151Y-68579520D01*
X166279329Y-68569030D01*
X166302429Y-68560765D01*
X166326227Y-68554804D01*
X166350496Y-68551204D01*
X166375000Y-68550000D01*
X167625000Y-68550000D01*
X167649504Y-68551204D01*
X167649504Y-68551204D01*
G37*
D12*
X167000000Y-69262500D03*
D11*
G36*
X167649504Y-71526204D02*
X167673773Y-71529804D01*
X167697571Y-71535765D01*
X167720671Y-71544030D01*
X167742849Y-71554520D01*
X167763893Y-71567133D01*
X167783598Y-71581747D01*
X167801777Y-71598223D01*
X167818253Y-71616402D01*
X167832867Y-71636107D01*
X167845480Y-71657151D01*
X167855970Y-71679329D01*
X167864235Y-71702429D01*
X167870196Y-71726227D01*
X167873796Y-71750496D01*
X167875000Y-71775000D01*
X167875000Y-72700000D01*
X167873796Y-72724504D01*
X167870196Y-72748773D01*
X167864235Y-72772571D01*
X167855970Y-72795671D01*
X167845480Y-72817849D01*
X167832867Y-72838893D01*
X167818253Y-72858598D01*
X167801777Y-72876777D01*
X167783598Y-72893253D01*
X167763893Y-72907867D01*
X167742849Y-72920480D01*
X167720671Y-72930970D01*
X167697571Y-72939235D01*
X167673773Y-72945196D01*
X167649504Y-72948796D01*
X167625000Y-72950000D01*
X166375000Y-72950000D01*
X166350496Y-72948796D01*
X166326227Y-72945196D01*
X166302429Y-72939235D01*
X166279329Y-72930970D01*
X166257151Y-72920480D01*
X166236107Y-72907867D01*
X166216402Y-72893253D01*
X166198223Y-72876777D01*
X166181747Y-72858598D01*
X166167133Y-72838893D01*
X166154520Y-72817849D01*
X166144030Y-72795671D01*
X166135765Y-72772571D01*
X166129804Y-72748773D01*
X166126204Y-72724504D01*
X166125000Y-72700000D01*
X166125000Y-71775000D01*
X166126204Y-71750496D01*
X166129804Y-71726227D01*
X166135765Y-71702429D01*
X166144030Y-71679329D01*
X166154520Y-71657151D01*
X166167133Y-71636107D01*
X166181747Y-71616402D01*
X166198223Y-71598223D01*
X166216402Y-71581747D01*
X166236107Y-71567133D01*
X166257151Y-71554520D01*
X166279329Y-71544030D01*
X166302429Y-71535765D01*
X166326227Y-71529804D01*
X166350496Y-71526204D01*
X166375000Y-71525000D01*
X167625000Y-71525000D01*
X167649504Y-71526204D01*
X167649504Y-71526204D01*
G37*
D12*
X167000000Y-72237500D03*
G04 #@! TD*
D11*
G04 #@! TO.C,R14*
G36*
X171649504Y-85313704D02*
X171673773Y-85317304D01*
X171697571Y-85323265D01*
X171720671Y-85331530D01*
X171742849Y-85342020D01*
X171763893Y-85354633D01*
X171783598Y-85369247D01*
X171801777Y-85385723D01*
X171818253Y-85403902D01*
X171832867Y-85423607D01*
X171845480Y-85444651D01*
X171855970Y-85466829D01*
X171864235Y-85489929D01*
X171870196Y-85513727D01*
X171873796Y-85537996D01*
X171875000Y-85562500D01*
X171875000Y-86487500D01*
X171873796Y-86512004D01*
X171870196Y-86536273D01*
X171864235Y-86560071D01*
X171855970Y-86583171D01*
X171845480Y-86605349D01*
X171832867Y-86626393D01*
X171818253Y-86646098D01*
X171801777Y-86664277D01*
X171783598Y-86680753D01*
X171763893Y-86695367D01*
X171742849Y-86707980D01*
X171720671Y-86718470D01*
X171697571Y-86726735D01*
X171673773Y-86732696D01*
X171649504Y-86736296D01*
X171625000Y-86737500D01*
X170375000Y-86737500D01*
X170350496Y-86736296D01*
X170326227Y-86732696D01*
X170302429Y-86726735D01*
X170279329Y-86718470D01*
X170257151Y-86707980D01*
X170236107Y-86695367D01*
X170216402Y-86680753D01*
X170198223Y-86664277D01*
X170181747Y-86646098D01*
X170167133Y-86626393D01*
X170154520Y-86605349D01*
X170144030Y-86583171D01*
X170135765Y-86560071D01*
X170129804Y-86536273D01*
X170126204Y-86512004D01*
X170125000Y-86487500D01*
X170125000Y-85562500D01*
X170126204Y-85537996D01*
X170129804Y-85513727D01*
X170135765Y-85489929D01*
X170144030Y-85466829D01*
X170154520Y-85444651D01*
X170167133Y-85423607D01*
X170181747Y-85403902D01*
X170198223Y-85385723D01*
X170216402Y-85369247D01*
X170236107Y-85354633D01*
X170257151Y-85342020D01*
X170279329Y-85331530D01*
X170302429Y-85323265D01*
X170326227Y-85317304D01*
X170350496Y-85313704D01*
X170375000Y-85312500D01*
X171625000Y-85312500D01*
X171649504Y-85313704D01*
X171649504Y-85313704D01*
G37*
D12*
X171000000Y-86025000D03*
D11*
G36*
X171649504Y-88288704D02*
X171673773Y-88292304D01*
X171697571Y-88298265D01*
X171720671Y-88306530D01*
X171742849Y-88317020D01*
X171763893Y-88329633D01*
X171783598Y-88344247D01*
X171801777Y-88360723D01*
X171818253Y-88378902D01*
X171832867Y-88398607D01*
X171845480Y-88419651D01*
X171855970Y-88441829D01*
X171864235Y-88464929D01*
X171870196Y-88488727D01*
X171873796Y-88512996D01*
X171875000Y-88537500D01*
X171875000Y-89462500D01*
X171873796Y-89487004D01*
X171870196Y-89511273D01*
X171864235Y-89535071D01*
X171855970Y-89558171D01*
X171845480Y-89580349D01*
X171832867Y-89601393D01*
X171818253Y-89621098D01*
X171801777Y-89639277D01*
X171783598Y-89655753D01*
X171763893Y-89670367D01*
X171742849Y-89682980D01*
X171720671Y-89693470D01*
X171697571Y-89701735D01*
X171673773Y-89707696D01*
X171649504Y-89711296D01*
X171625000Y-89712500D01*
X170375000Y-89712500D01*
X170350496Y-89711296D01*
X170326227Y-89707696D01*
X170302429Y-89701735D01*
X170279329Y-89693470D01*
X170257151Y-89682980D01*
X170236107Y-89670367D01*
X170216402Y-89655753D01*
X170198223Y-89639277D01*
X170181747Y-89621098D01*
X170167133Y-89601393D01*
X170154520Y-89580349D01*
X170144030Y-89558171D01*
X170135765Y-89535071D01*
X170129804Y-89511273D01*
X170126204Y-89487004D01*
X170125000Y-89462500D01*
X170125000Y-88537500D01*
X170126204Y-88512996D01*
X170129804Y-88488727D01*
X170135765Y-88464929D01*
X170144030Y-88441829D01*
X170154520Y-88419651D01*
X170167133Y-88398607D01*
X170181747Y-88378902D01*
X170198223Y-88360723D01*
X170216402Y-88344247D01*
X170236107Y-88329633D01*
X170257151Y-88317020D01*
X170279329Y-88306530D01*
X170302429Y-88298265D01*
X170326227Y-88292304D01*
X170350496Y-88288704D01*
X170375000Y-88287500D01*
X171625000Y-88287500D01*
X171649504Y-88288704D01*
X171649504Y-88288704D01*
G37*
D12*
X171000000Y-89000000D03*
G04 #@! TD*
D11*
G04 #@! TO.C,R13*
G36*
X159749504Y-92876204D02*
X159773773Y-92879804D01*
X159797571Y-92885765D01*
X159820671Y-92894030D01*
X159842849Y-92904520D01*
X159863893Y-92917133D01*
X159883598Y-92931747D01*
X159901777Y-92948223D01*
X159918253Y-92966402D01*
X159932867Y-92986107D01*
X159945480Y-93007151D01*
X159955970Y-93029329D01*
X159964235Y-93052429D01*
X159970196Y-93076227D01*
X159973796Y-93100496D01*
X159975000Y-93125000D01*
X159975000Y-94375000D01*
X159973796Y-94399504D01*
X159970196Y-94423773D01*
X159964235Y-94447571D01*
X159955970Y-94470671D01*
X159945480Y-94492849D01*
X159932867Y-94513893D01*
X159918253Y-94533598D01*
X159901777Y-94551777D01*
X159883598Y-94568253D01*
X159863893Y-94582867D01*
X159842849Y-94595480D01*
X159820671Y-94605970D01*
X159797571Y-94614235D01*
X159773773Y-94620196D01*
X159749504Y-94623796D01*
X159725000Y-94625000D01*
X158800000Y-94625000D01*
X158775496Y-94623796D01*
X158751227Y-94620196D01*
X158727429Y-94614235D01*
X158704329Y-94605970D01*
X158682151Y-94595480D01*
X158661107Y-94582867D01*
X158641402Y-94568253D01*
X158623223Y-94551777D01*
X158606747Y-94533598D01*
X158592133Y-94513893D01*
X158579520Y-94492849D01*
X158569030Y-94470671D01*
X158560765Y-94447571D01*
X158554804Y-94423773D01*
X158551204Y-94399504D01*
X158550000Y-94375000D01*
X158550000Y-93125000D01*
X158551204Y-93100496D01*
X158554804Y-93076227D01*
X158560765Y-93052429D01*
X158569030Y-93029329D01*
X158579520Y-93007151D01*
X158592133Y-92986107D01*
X158606747Y-92966402D01*
X158623223Y-92948223D01*
X158641402Y-92931747D01*
X158661107Y-92917133D01*
X158682151Y-92904520D01*
X158704329Y-92894030D01*
X158727429Y-92885765D01*
X158751227Y-92879804D01*
X158775496Y-92876204D01*
X158800000Y-92875000D01*
X159725000Y-92875000D01*
X159749504Y-92876204D01*
X159749504Y-92876204D01*
G37*
D12*
X159262500Y-93750000D03*
D11*
G36*
X162724504Y-92876204D02*
X162748773Y-92879804D01*
X162772571Y-92885765D01*
X162795671Y-92894030D01*
X162817849Y-92904520D01*
X162838893Y-92917133D01*
X162858598Y-92931747D01*
X162876777Y-92948223D01*
X162893253Y-92966402D01*
X162907867Y-92986107D01*
X162920480Y-93007151D01*
X162930970Y-93029329D01*
X162939235Y-93052429D01*
X162945196Y-93076227D01*
X162948796Y-93100496D01*
X162950000Y-93125000D01*
X162950000Y-94375000D01*
X162948796Y-94399504D01*
X162945196Y-94423773D01*
X162939235Y-94447571D01*
X162930970Y-94470671D01*
X162920480Y-94492849D01*
X162907867Y-94513893D01*
X162893253Y-94533598D01*
X162876777Y-94551777D01*
X162858598Y-94568253D01*
X162838893Y-94582867D01*
X162817849Y-94595480D01*
X162795671Y-94605970D01*
X162772571Y-94614235D01*
X162748773Y-94620196D01*
X162724504Y-94623796D01*
X162700000Y-94625000D01*
X161775000Y-94625000D01*
X161750496Y-94623796D01*
X161726227Y-94620196D01*
X161702429Y-94614235D01*
X161679329Y-94605970D01*
X161657151Y-94595480D01*
X161636107Y-94582867D01*
X161616402Y-94568253D01*
X161598223Y-94551777D01*
X161581747Y-94533598D01*
X161567133Y-94513893D01*
X161554520Y-94492849D01*
X161544030Y-94470671D01*
X161535765Y-94447571D01*
X161529804Y-94423773D01*
X161526204Y-94399504D01*
X161525000Y-94375000D01*
X161525000Y-93125000D01*
X161526204Y-93100496D01*
X161529804Y-93076227D01*
X161535765Y-93052429D01*
X161544030Y-93029329D01*
X161554520Y-93007151D01*
X161567133Y-92986107D01*
X161581747Y-92966402D01*
X161598223Y-92948223D01*
X161616402Y-92931747D01*
X161636107Y-92917133D01*
X161657151Y-92904520D01*
X161679329Y-92894030D01*
X161702429Y-92885765D01*
X161726227Y-92879804D01*
X161750496Y-92876204D01*
X161775000Y-92875000D01*
X162700000Y-92875000D01*
X162724504Y-92876204D01*
X162724504Y-92876204D01*
G37*
D12*
X162237500Y-93750000D03*
G04 #@! TD*
D11*
G04 #@! TO.C,R12*
G36*
X171399504Y-68563704D02*
X171423773Y-68567304D01*
X171447571Y-68573265D01*
X171470671Y-68581530D01*
X171492849Y-68592020D01*
X171513893Y-68604633D01*
X171533598Y-68619247D01*
X171551777Y-68635723D01*
X171568253Y-68653902D01*
X171582867Y-68673607D01*
X171595480Y-68694651D01*
X171605970Y-68716829D01*
X171614235Y-68739929D01*
X171620196Y-68763727D01*
X171623796Y-68787996D01*
X171625000Y-68812500D01*
X171625000Y-69737500D01*
X171623796Y-69762004D01*
X171620196Y-69786273D01*
X171614235Y-69810071D01*
X171605970Y-69833171D01*
X171595480Y-69855349D01*
X171582867Y-69876393D01*
X171568253Y-69896098D01*
X171551777Y-69914277D01*
X171533598Y-69930753D01*
X171513893Y-69945367D01*
X171492849Y-69957980D01*
X171470671Y-69968470D01*
X171447571Y-69976735D01*
X171423773Y-69982696D01*
X171399504Y-69986296D01*
X171375000Y-69987500D01*
X170125000Y-69987500D01*
X170100496Y-69986296D01*
X170076227Y-69982696D01*
X170052429Y-69976735D01*
X170029329Y-69968470D01*
X170007151Y-69957980D01*
X169986107Y-69945367D01*
X169966402Y-69930753D01*
X169948223Y-69914277D01*
X169931747Y-69896098D01*
X169917133Y-69876393D01*
X169904520Y-69855349D01*
X169894030Y-69833171D01*
X169885765Y-69810071D01*
X169879804Y-69786273D01*
X169876204Y-69762004D01*
X169875000Y-69737500D01*
X169875000Y-68812500D01*
X169876204Y-68787996D01*
X169879804Y-68763727D01*
X169885765Y-68739929D01*
X169894030Y-68716829D01*
X169904520Y-68694651D01*
X169917133Y-68673607D01*
X169931747Y-68653902D01*
X169948223Y-68635723D01*
X169966402Y-68619247D01*
X169986107Y-68604633D01*
X170007151Y-68592020D01*
X170029329Y-68581530D01*
X170052429Y-68573265D01*
X170076227Y-68567304D01*
X170100496Y-68563704D01*
X170125000Y-68562500D01*
X171375000Y-68562500D01*
X171399504Y-68563704D01*
X171399504Y-68563704D01*
G37*
D12*
X170750000Y-69275000D03*
D11*
G36*
X171399504Y-71538704D02*
X171423773Y-71542304D01*
X171447571Y-71548265D01*
X171470671Y-71556530D01*
X171492849Y-71567020D01*
X171513893Y-71579633D01*
X171533598Y-71594247D01*
X171551777Y-71610723D01*
X171568253Y-71628902D01*
X171582867Y-71648607D01*
X171595480Y-71669651D01*
X171605970Y-71691829D01*
X171614235Y-71714929D01*
X171620196Y-71738727D01*
X171623796Y-71762996D01*
X171625000Y-71787500D01*
X171625000Y-72712500D01*
X171623796Y-72737004D01*
X171620196Y-72761273D01*
X171614235Y-72785071D01*
X171605970Y-72808171D01*
X171595480Y-72830349D01*
X171582867Y-72851393D01*
X171568253Y-72871098D01*
X171551777Y-72889277D01*
X171533598Y-72905753D01*
X171513893Y-72920367D01*
X171492849Y-72932980D01*
X171470671Y-72943470D01*
X171447571Y-72951735D01*
X171423773Y-72957696D01*
X171399504Y-72961296D01*
X171375000Y-72962500D01*
X170125000Y-72962500D01*
X170100496Y-72961296D01*
X170076227Y-72957696D01*
X170052429Y-72951735D01*
X170029329Y-72943470D01*
X170007151Y-72932980D01*
X169986107Y-72920367D01*
X169966402Y-72905753D01*
X169948223Y-72889277D01*
X169931747Y-72871098D01*
X169917133Y-72851393D01*
X169904520Y-72830349D01*
X169894030Y-72808171D01*
X169885765Y-72785071D01*
X169879804Y-72761273D01*
X169876204Y-72737004D01*
X169875000Y-72712500D01*
X169875000Y-71787500D01*
X169876204Y-71762996D01*
X169879804Y-71738727D01*
X169885765Y-71714929D01*
X169894030Y-71691829D01*
X169904520Y-71669651D01*
X169917133Y-71648607D01*
X169931747Y-71628902D01*
X169948223Y-71610723D01*
X169966402Y-71594247D01*
X169986107Y-71579633D01*
X170007151Y-71567020D01*
X170029329Y-71556530D01*
X170052429Y-71548265D01*
X170076227Y-71542304D01*
X170100496Y-71538704D01*
X170125000Y-71537500D01*
X171375000Y-71537500D01*
X171399504Y-71538704D01*
X171399504Y-71538704D01*
G37*
D12*
X170750000Y-72250000D03*
G04 #@! TD*
D11*
G04 #@! TO.C,R11*
G36*
X159749504Y-97376204D02*
X159773773Y-97379804D01*
X159797571Y-97385765D01*
X159820671Y-97394030D01*
X159842849Y-97404520D01*
X159863893Y-97417133D01*
X159883598Y-97431747D01*
X159901777Y-97448223D01*
X159918253Y-97466402D01*
X159932867Y-97486107D01*
X159945480Y-97507151D01*
X159955970Y-97529329D01*
X159964235Y-97552429D01*
X159970196Y-97576227D01*
X159973796Y-97600496D01*
X159975000Y-97625000D01*
X159975000Y-98875000D01*
X159973796Y-98899504D01*
X159970196Y-98923773D01*
X159964235Y-98947571D01*
X159955970Y-98970671D01*
X159945480Y-98992849D01*
X159932867Y-99013893D01*
X159918253Y-99033598D01*
X159901777Y-99051777D01*
X159883598Y-99068253D01*
X159863893Y-99082867D01*
X159842849Y-99095480D01*
X159820671Y-99105970D01*
X159797571Y-99114235D01*
X159773773Y-99120196D01*
X159749504Y-99123796D01*
X159725000Y-99125000D01*
X158800000Y-99125000D01*
X158775496Y-99123796D01*
X158751227Y-99120196D01*
X158727429Y-99114235D01*
X158704329Y-99105970D01*
X158682151Y-99095480D01*
X158661107Y-99082867D01*
X158641402Y-99068253D01*
X158623223Y-99051777D01*
X158606747Y-99033598D01*
X158592133Y-99013893D01*
X158579520Y-98992849D01*
X158569030Y-98970671D01*
X158560765Y-98947571D01*
X158554804Y-98923773D01*
X158551204Y-98899504D01*
X158550000Y-98875000D01*
X158550000Y-97625000D01*
X158551204Y-97600496D01*
X158554804Y-97576227D01*
X158560765Y-97552429D01*
X158569030Y-97529329D01*
X158579520Y-97507151D01*
X158592133Y-97486107D01*
X158606747Y-97466402D01*
X158623223Y-97448223D01*
X158641402Y-97431747D01*
X158661107Y-97417133D01*
X158682151Y-97404520D01*
X158704329Y-97394030D01*
X158727429Y-97385765D01*
X158751227Y-97379804D01*
X158775496Y-97376204D01*
X158800000Y-97375000D01*
X159725000Y-97375000D01*
X159749504Y-97376204D01*
X159749504Y-97376204D01*
G37*
D12*
X159262500Y-98250000D03*
D11*
G36*
X162724504Y-97376204D02*
X162748773Y-97379804D01*
X162772571Y-97385765D01*
X162795671Y-97394030D01*
X162817849Y-97404520D01*
X162838893Y-97417133D01*
X162858598Y-97431747D01*
X162876777Y-97448223D01*
X162893253Y-97466402D01*
X162907867Y-97486107D01*
X162920480Y-97507151D01*
X162930970Y-97529329D01*
X162939235Y-97552429D01*
X162945196Y-97576227D01*
X162948796Y-97600496D01*
X162950000Y-97625000D01*
X162950000Y-98875000D01*
X162948796Y-98899504D01*
X162945196Y-98923773D01*
X162939235Y-98947571D01*
X162930970Y-98970671D01*
X162920480Y-98992849D01*
X162907867Y-99013893D01*
X162893253Y-99033598D01*
X162876777Y-99051777D01*
X162858598Y-99068253D01*
X162838893Y-99082867D01*
X162817849Y-99095480D01*
X162795671Y-99105970D01*
X162772571Y-99114235D01*
X162748773Y-99120196D01*
X162724504Y-99123796D01*
X162700000Y-99125000D01*
X161775000Y-99125000D01*
X161750496Y-99123796D01*
X161726227Y-99120196D01*
X161702429Y-99114235D01*
X161679329Y-99105970D01*
X161657151Y-99095480D01*
X161636107Y-99082867D01*
X161616402Y-99068253D01*
X161598223Y-99051777D01*
X161581747Y-99033598D01*
X161567133Y-99013893D01*
X161554520Y-98992849D01*
X161544030Y-98970671D01*
X161535765Y-98947571D01*
X161529804Y-98923773D01*
X161526204Y-98899504D01*
X161525000Y-98875000D01*
X161525000Y-97625000D01*
X161526204Y-97600496D01*
X161529804Y-97576227D01*
X161535765Y-97552429D01*
X161544030Y-97529329D01*
X161554520Y-97507151D01*
X161567133Y-97486107D01*
X161581747Y-97466402D01*
X161598223Y-97448223D01*
X161616402Y-97431747D01*
X161636107Y-97417133D01*
X161657151Y-97404520D01*
X161679329Y-97394030D01*
X161702429Y-97385765D01*
X161726227Y-97379804D01*
X161750496Y-97376204D01*
X161775000Y-97375000D01*
X162700000Y-97375000D01*
X162724504Y-97376204D01*
X162724504Y-97376204D01*
G37*
D12*
X162237500Y-98250000D03*
G04 #@! TD*
D11*
G04 #@! TO.C,R10*
G36*
X174474504Y-81626204D02*
X174498773Y-81629804D01*
X174522571Y-81635765D01*
X174545671Y-81644030D01*
X174567849Y-81654520D01*
X174588893Y-81667133D01*
X174608598Y-81681747D01*
X174626777Y-81698223D01*
X174643253Y-81716402D01*
X174657867Y-81736107D01*
X174670480Y-81757151D01*
X174680970Y-81779329D01*
X174689235Y-81802429D01*
X174695196Y-81826227D01*
X174698796Y-81850496D01*
X174700000Y-81875000D01*
X174700000Y-83125000D01*
X174698796Y-83149504D01*
X174695196Y-83173773D01*
X174689235Y-83197571D01*
X174680970Y-83220671D01*
X174670480Y-83242849D01*
X174657867Y-83263893D01*
X174643253Y-83283598D01*
X174626777Y-83301777D01*
X174608598Y-83318253D01*
X174588893Y-83332867D01*
X174567849Y-83345480D01*
X174545671Y-83355970D01*
X174522571Y-83364235D01*
X174498773Y-83370196D01*
X174474504Y-83373796D01*
X174450000Y-83375000D01*
X173525000Y-83375000D01*
X173500496Y-83373796D01*
X173476227Y-83370196D01*
X173452429Y-83364235D01*
X173429329Y-83355970D01*
X173407151Y-83345480D01*
X173386107Y-83332867D01*
X173366402Y-83318253D01*
X173348223Y-83301777D01*
X173331747Y-83283598D01*
X173317133Y-83263893D01*
X173304520Y-83242849D01*
X173294030Y-83220671D01*
X173285765Y-83197571D01*
X173279804Y-83173773D01*
X173276204Y-83149504D01*
X173275000Y-83125000D01*
X173275000Y-81875000D01*
X173276204Y-81850496D01*
X173279804Y-81826227D01*
X173285765Y-81802429D01*
X173294030Y-81779329D01*
X173304520Y-81757151D01*
X173317133Y-81736107D01*
X173331747Y-81716402D01*
X173348223Y-81698223D01*
X173366402Y-81681747D01*
X173386107Y-81667133D01*
X173407151Y-81654520D01*
X173429329Y-81644030D01*
X173452429Y-81635765D01*
X173476227Y-81629804D01*
X173500496Y-81626204D01*
X173525000Y-81625000D01*
X174450000Y-81625000D01*
X174474504Y-81626204D01*
X174474504Y-81626204D01*
G37*
D12*
X173987500Y-82500000D03*
D11*
G36*
X171499504Y-81626204D02*
X171523773Y-81629804D01*
X171547571Y-81635765D01*
X171570671Y-81644030D01*
X171592849Y-81654520D01*
X171613893Y-81667133D01*
X171633598Y-81681747D01*
X171651777Y-81698223D01*
X171668253Y-81716402D01*
X171682867Y-81736107D01*
X171695480Y-81757151D01*
X171705970Y-81779329D01*
X171714235Y-81802429D01*
X171720196Y-81826227D01*
X171723796Y-81850496D01*
X171725000Y-81875000D01*
X171725000Y-83125000D01*
X171723796Y-83149504D01*
X171720196Y-83173773D01*
X171714235Y-83197571D01*
X171705970Y-83220671D01*
X171695480Y-83242849D01*
X171682867Y-83263893D01*
X171668253Y-83283598D01*
X171651777Y-83301777D01*
X171633598Y-83318253D01*
X171613893Y-83332867D01*
X171592849Y-83345480D01*
X171570671Y-83355970D01*
X171547571Y-83364235D01*
X171523773Y-83370196D01*
X171499504Y-83373796D01*
X171475000Y-83375000D01*
X170550000Y-83375000D01*
X170525496Y-83373796D01*
X170501227Y-83370196D01*
X170477429Y-83364235D01*
X170454329Y-83355970D01*
X170432151Y-83345480D01*
X170411107Y-83332867D01*
X170391402Y-83318253D01*
X170373223Y-83301777D01*
X170356747Y-83283598D01*
X170342133Y-83263893D01*
X170329520Y-83242849D01*
X170319030Y-83220671D01*
X170310765Y-83197571D01*
X170304804Y-83173773D01*
X170301204Y-83149504D01*
X170300000Y-83125000D01*
X170300000Y-81875000D01*
X170301204Y-81850496D01*
X170304804Y-81826227D01*
X170310765Y-81802429D01*
X170319030Y-81779329D01*
X170329520Y-81757151D01*
X170342133Y-81736107D01*
X170356747Y-81716402D01*
X170373223Y-81698223D01*
X170391402Y-81681747D01*
X170411107Y-81667133D01*
X170432151Y-81654520D01*
X170454329Y-81644030D01*
X170477429Y-81635765D01*
X170501227Y-81629804D01*
X170525496Y-81626204D01*
X170550000Y-81625000D01*
X171475000Y-81625000D01*
X171499504Y-81626204D01*
X171499504Y-81626204D01*
G37*
D12*
X171012500Y-82500000D03*
G04 #@! TD*
D11*
G04 #@! TO.C,R9*
G36*
X171499504Y-64876204D02*
X171523773Y-64879804D01*
X171547571Y-64885765D01*
X171570671Y-64894030D01*
X171592849Y-64904520D01*
X171613893Y-64917133D01*
X171633598Y-64931747D01*
X171651777Y-64948223D01*
X171668253Y-64966402D01*
X171682867Y-64986107D01*
X171695480Y-65007151D01*
X171705970Y-65029329D01*
X171714235Y-65052429D01*
X171720196Y-65076227D01*
X171723796Y-65100496D01*
X171725000Y-65125000D01*
X171725000Y-66375000D01*
X171723796Y-66399504D01*
X171720196Y-66423773D01*
X171714235Y-66447571D01*
X171705970Y-66470671D01*
X171695480Y-66492849D01*
X171682867Y-66513893D01*
X171668253Y-66533598D01*
X171651777Y-66551777D01*
X171633598Y-66568253D01*
X171613893Y-66582867D01*
X171592849Y-66595480D01*
X171570671Y-66605970D01*
X171547571Y-66614235D01*
X171523773Y-66620196D01*
X171499504Y-66623796D01*
X171475000Y-66625000D01*
X170550000Y-66625000D01*
X170525496Y-66623796D01*
X170501227Y-66620196D01*
X170477429Y-66614235D01*
X170454329Y-66605970D01*
X170432151Y-66595480D01*
X170411107Y-66582867D01*
X170391402Y-66568253D01*
X170373223Y-66551777D01*
X170356747Y-66533598D01*
X170342133Y-66513893D01*
X170329520Y-66492849D01*
X170319030Y-66470671D01*
X170310765Y-66447571D01*
X170304804Y-66423773D01*
X170301204Y-66399504D01*
X170300000Y-66375000D01*
X170300000Y-65125000D01*
X170301204Y-65100496D01*
X170304804Y-65076227D01*
X170310765Y-65052429D01*
X170319030Y-65029329D01*
X170329520Y-65007151D01*
X170342133Y-64986107D01*
X170356747Y-64966402D01*
X170373223Y-64948223D01*
X170391402Y-64931747D01*
X170411107Y-64917133D01*
X170432151Y-64904520D01*
X170454329Y-64894030D01*
X170477429Y-64885765D01*
X170501227Y-64879804D01*
X170525496Y-64876204D01*
X170550000Y-64875000D01*
X171475000Y-64875000D01*
X171499504Y-64876204D01*
X171499504Y-64876204D01*
G37*
D12*
X171012500Y-65750000D03*
D11*
G36*
X174474504Y-64876204D02*
X174498773Y-64879804D01*
X174522571Y-64885765D01*
X174545671Y-64894030D01*
X174567849Y-64904520D01*
X174588893Y-64917133D01*
X174608598Y-64931747D01*
X174626777Y-64948223D01*
X174643253Y-64966402D01*
X174657867Y-64986107D01*
X174670480Y-65007151D01*
X174680970Y-65029329D01*
X174689235Y-65052429D01*
X174695196Y-65076227D01*
X174698796Y-65100496D01*
X174700000Y-65125000D01*
X174700000Y-66375000D01*
X174698796Y-66399504D01*
X174695196Y-66423773D01*
X174689235Y-66447571D01*
X174680970Y-66470671D01*
X174670480Y-66492849D01*
X174657867Y-66513893D01*
X174643253Y-66533598D01*
X174626777Y-66551777D01*
X174608598Y-66568253D01*
X174588893Y-66582867D01*
X174567849Y-66595480D01*
X174545671Y-66605970D01*
X174522571Y-66614235D01*
X174498773Y-66620196D01*
X174474504Y-66623796D01*
X174450000Y-66625000D01*
X173525000Y-66625000D01*
X173500496Y-66623796D01*
X173476227Y-66620196D01*
X173452429Y-66614235D01*
X173429329Y-66605970D01*
X173407151Y-66595480D01*
X173386107Y-66582867D01*
X173366402Y-66568253D01*
X173348223Y-66551777D01*
X173331747Y-66533598D01*
X173317133Y-66513893D01*
X173304520Y-66492849D01*
X173294030Y-66470671D01*
X173285765Y-66447571D01*
X173279804Y-66423773D01*
X173276204Y-66399504D01*
X173275000Y-66375000D01*
X173275000Y-65125000D01*
X173276204Y-65100496D01*
X173279804Y-65076227D01*
X173285765Y-65052429D01*
X173294030Y-65029329D01*
X173304520Y-65007151D01*
X173317133Y-64986107D01*
X173331747Y-64966402D01*
X173348223Y-64948223D01*
X173366402Y-64931747D01*
X173386107Y-64917133D01*
X173407151Y-64904520D01*
X173429329Y-64894030D01*
X173452429Y-64885765D01*
X173476227Y-64879804D01*
X173500496Y-64876204D01*
X173525000Y-64875000D01*
X174450000Y-64875000D01*
X174474504Y-64876204D01*
X174474504Y-64876204D01*
G37*
D12*
X173987500Y-65750000D03*
G04 #@! TD*
D11*
G04 #@! TO.C,R8*
G36*
X167962004Y-81876204D02*
X167986273Y-81879804D01*
X168010071Y-81885765D01*
X168033171Y-81894030D01*
X168055349Y-81904520D01*
X168076393Y-81917133D01*
X168096098Y-81931747D01*
X168114277Y-81948223D01*
X168130753Y-81966402D01*
X168145367Y-81986107D01*
X168157980Y-82007151D01*
X168168470Y-82029329D01*
X168176735Y-82052429D01*
X168182696Y-82076227D01*
X168186296Y-82100496D01*
X168187500Y-82125000D01*
X168187500Y-83375000D01*
X168186296Y-83399504D01*
X168182696Y-83423773D01*
X168176735Y-83447571D01*
X168168470Y-83470671D01*
X168157980Y-83492849D01*
X168145367Y-83513893D01*
X168130753Y-83533598D01*
X168114277Y-83551777D01*
X168096098Y-83568253D01*
X168076393Y-83582867D01*
X168055349Y-83595480D01*
X168033171Y-83605970D01*
X168010071Y-83614235D01*
X167986273Y-83620196D01*
X167962004Y-83623796D01*
X167937500Y-83625000D01*
X167012500Y-83625000D01*
X166987996Y-83623796D01*
X166963727Y-83620196D01*
X166939929Y-83614235D01*
X166916829Y-83605970D01*
X166894651Y-83595480D01*
X166873607Y-83582867D01*
X166853902Y-83568253D01*
X166835723Y-83551777D01*
X166819247Y-83533598D01*
X166804633Y-83513893D01*
X166792020Y-83492849D01*
X166781530Y-83470671D01*
X166773265Y-83447571D01*
X166767304Y-83423773D01*
X166763704Y-83399504D01*
X166762500Y-83375000D01*
X166762500Y-82125000D01*
X166763704Y-82100496D01*
X166767304Y-82076227D01*
X166773265Y-82052429D01*
X166781530Y-82029329D01*
X166792020Y-82007151D01*
X166804633Y-81986107D01*
X166819247Y-81966402D01*
X166835723Y-81948223D01*
X166853902Y-81931747D01*
X166873607Y-81917133D01*
X166894651Y-81904520D01*
X166916829Y-81894030D01*
X166939929Y-81885765D01*
X166963727Y-81879804D01*
X166987996Y-81876204D01*
X167012500Y-81875000D01*
X167937500Y-81875000D01*
X167962004Y-81876204D01*
X167962004Y-81876204D01*
G37*
D12*
X167475000Y-82750000D03*
D11*
G36*
X164987004Y-81876204D02*
X165011273Y-81879804D01*
X165035071Y-81885765D01*
X165058171Y-81894030D01*
X165080349Y-81904520D01*
X165101393Y-81917133D01*
X165121098Y-81931747D01*
X165139277Y-81948223D01*
X165155753Y-81966402D01*
X165170367Y-81986107D01*
X165182980Y-82007151D01*
X165193470Y-82029329D01*
X165201735Y-82052429D01*
X165207696Y-82076227D01*
X165211296Y-82100496D01*
X165212500Y-82125000D01*
X165212500Y-83375000D01*
X165211296Y-83399504D01*
X165207696Y-83423773D01*
X165201735Y-83447571D01*
X165193470Y-83470671D01*
X165182980Y-83492849D01*
X165170367Y-83513893D01*
X165155753Y-83533598D01*
X165139277Y-83551777D01*
X165121098Y-83568253D01*
X165101393Y-83582867D01*
X165080349Y-83595480D01*
X165058171Y-83605970D01*
X165035071Y-83614235D01*
X165011273Y-83620196D01*
X164987004Y-83623796D01*
X164962500Y-83625000D01*
X164037500Y-83625000D01*
X164012996Y-83623796D01*
X163988727Y-83620196D01*
X163964929Y-83614235D01*
X163941829Y-83605970D01*
X163919651Y-83595480D01*
X163898607Y-83582867D01*
X163878902Y-83568253D01*
X163860723Y-83551777D01*
X163844247Y-83533598D01*
X163829633Y-83513893D01*
X163817020Y-83492849D01*
X163806530Y-83470671D01*
X163798265Y-83447571D01*
X163792304Y-83423773D01*
X163788704Y-83399504D01*
X163787500Y-83375000D01*
X163787500Y-82125000D01*
X163788704Y-82100496D01*
X163792304Y-82076227D01*
X163798265Y-82052429D01*
X163806530Y-82029329D01*
X163817020Y-82007151D01*
X163829633Y-81986107D01*
X163844247Y-81966402D01*
X163860723Y-81948223D01*
X163878902Y-81931747D01*
X163898607Y-81917133D01*
X163919651Y-81904520D01*
X163941829Y-81894030D01*
X163964929Y-81885765D01*
X163988727Y-81879804D01*
X164012996Y-81876204D01*
X164037500Y-81875000D01*
X164962500Y-81875000D01*
X164987004Y-81876204D01*
X164987004Y-81876204D01*
G37*
D12*
X164500000Y-82750000D03*
G04 #@! TD*
D11*
G04 #@! TO.C,R7*
G36*
X165512004Y-64876204D02*
X165536273Y-64879804D01*
X165560071Y-64885765D01*
X165583171Y-64894030D01*
X165605349Y-64904520D01*
X165626393Y-64917133D01*
X165646098Y-64931747D01*
X165664277Y-64948223D01*
X165680753Y-64966402D01*
X165695367Y-64986107D01*
X165707980Y-65007151D01*
X165718470Y-65029329D01*
X165726735Y-65052429D01*
X165732696Y-65076227D01*
X165736296Y-65100496D01*
X165737500Y-65125000D01*
X165737500Y-66375000D01*
X165736296Y-66399504D01*
X165732696Y-66423773D01*
X165726735Y-66447571D01*
X165718470Y-66470671D01*
X165707980Y-66492849D01*
X165695367Y-66513893D01*
X165680753Y-66533598D01*
X165664277Y-66551777D01*
X165646098Y-66568253D01*
X165626393Y-66582867D01*
X165605349Y-66595480D01*
X165583171Y-66605970D01*
X165560071Y-66614235D01*
X165536273Y-66620196D01*
X165512004Y-66623796D01*
X165487500Y-66625000D01*
X164562500Y-66625000D01*
X164537996Y-66623796D01*
X164513727Y-66620196D01*
X164489929Y-66614235D01*
X164466829Y-66605970D01*
X164444651Y-66595480D01*
X164423607Y-66582867D01*
X164403902Y-66568253D01*
X164385723Y-66551777D01*
X164369247Y-66533598D01*
X164354633Y-66513893D01*
X164342020Y-66492849D01*
X164331530Y-66470671D01*
X164323265Y-66447571D01*
X164317304Y-66423773D01*
X164313704Y-66399504D01*
X164312500Y-66375000D01*
X164312500Y-65125000D01*
X164313704Y-65100496D01*
X164317304Y-65076227D01*
X164323265Y-65052429D01*
X164331530Y-65029329D01*
X164342020Y-65007151D01*
X164354633Y-64986107D01*
X164369247Y-64966402D01*
X164385723Y-64948223D01*
X164403902Y-64931747D01*
X164423607Y-64917133D01*
X164444651Y-64904520D01*
X164466829Y-64894030D01*
X164489929Y-64885765D01*
X164513727Y-64879804D01*
X164537996Y-64876204D01*
X164562500Y-64875000D01*
X165487500Y-64875000D01*
X165512004Y-64876204D01*
X165512004Y-64876204D01*
G37*
D12*
X165025000Y-65750000D03*
D11*
G36*
X168487004Y-64876204D02*
X168511273Y-64879804D01*
X168535071Y-64885765D01*
X168558171Y-64894030D01*
X168580349Y-64904520D01*
X168601393Y-64917133D01*
X168621098Y-64931747D01*
X168639277Y-64948223D01*
X168655753Y-64966402D01*
X168670367Y-64986107D01*
X168682980Y-65007151D01*
X168693470Y-65029329D01*
X168701735Y-65052429D01*
X168707696Y-65076227D01*
X168711296Y-65100496D01*
X168712500Y-65125000D01*
X168712500Y-66375000D01*
X168711296Y-66399504D01*
X168707696Y-66423773D01*
X168701735Y-66447571D01*
X168693470Y-66470671D01*
X168682980Y-66492849D01*
X168670367Y-66513893D01*
X168655753Y-66533598D01*
X168639277Y-66551777D01*
X168621098Y-66568253D01*
X168601393Y-66582867D01*
X168580349Y-66595480D01*
X168558171Y-66605970D01*
X168535071Y-66614235D01*
X168511273Y-66620196D01*
X168487004Y-66623796D01*
X168462500Y-66625000D01*
X167537500Y-66625000D01*
X167512996Y-66623796D01*
X167488727Y-66620196D01*
X167464929Y-66614235D01*
X167441829Y-66605970D01*
X167419651Y-66595480D01*
X167398607Y-66582867D01*
X167378902Y-66568253D01*
X167360723Y-66551777D01*
X167344247Y-66533598D01*
X167329633Y-66513893D01*
X167317020Y-66492849D01*
X167306530Y-66470671D01*
X167298265Y-66447571D01*
X167292304Y-66423773D01*
X167288704Y-66399504D01*
X167287500Y-66375000D01*
X167287500Y-65125000D01*
X167288704Y-65100496D01*
X167292304Y-65076227D01*
X167298265Y-65052429D01*
X167306530Y-65029329D01*
X167317020Y-65007151D01*
X167329633Y-64986107D01*
X167344247Y-64966402D01*
X167360723Y-64948223D01*
X167378902Y-64931747D01*
X167398607Y-64917133D01*
X167419651Y-64904520D01*
X167441829Y-64894030D01*
X167464929Y-64885765D01*
X167488727Y-64879804D01*
X167512996Y-64876204D01*
X167537500Y-64875000D01*
X168462500Y-64875000D01*
X168487004Y-64876204D01*
X168487004Y-64876204D01*
G37*
D12*
X168000000Y-65750000D03*
G04 #@! TD*
D11*
G04 #@! TO.C,R5*
G36*
X129649504Y-90513704D02*
X129673773Y-90517304D01*
X129697571Y-90523265D01*
X129720671Y-90531530D01*
X129742849Y-90542020D01*
X129763893Y-90554633D01*
X129783598Y-90569247D01*
X129801777Y-90585723D01*
X129818253Y-90603902D01*
X129832867Y-90623607D01*
X129845480Y-90644651D01*
X129855970Y-90666829D01*
X129864235Y-90689929D01*
X129870196Y-90713727D01*
X129873796Y-90737996D01*
X129875000Y-90762500D01*
X129875000Y-91687500D01*
X129873796Y-91712004D01*
X129870196Y-91736273D01*
X129864235Y-91760071D01*
X129855970Y-91783171D01*
X129845480Y-91805349D01*
X129832867Y-91826393D01*
X129818253Y-91846098D01*
X129801777Y-91864277D01*
X129783598Y-91880753D01*
X129763893Y-91895367D01*
X129742849Y-91907980D01*
X129720671Y-91918470D01*
X129697571Y-91926735D01*
X129673773Y-91932696D01*
X129649504Y-91936296D01*
X129625000Y-91937500D01*
X128375000Y-91937500D01*
X128350496Y-91936296D01*
X128326227Y-91932696D01*
X128302429Y-91926735D01*
X128279329Y-91918470D01*
X128257151Y-91907980D01*
X128236107Y-91895367D01*
X128216402Y-91880753D01*
X128198223Y-91864277D01*
X128181747Y-91846098D01*
X128167133Y-91826393D01*
X128154520Y-91805349D01*
X128144030Y-91783171D01*
X128135765Y-91760071D01*
X128129804Y-91736273D01*
X128126204Y-91712004D01*
X128125000Y-91687500D01*
X128125000Y-90762500D01*
X128126204Y-90737996D01*
X128129804Y-90713727D01*
X128135765Y-90689929D01*
X128144030Y-90666829D01*
X128154520Y-90644651D01*
X128167133Y-90623607D01*
X128181747Y-90603902D01*
X128198223Y-90585723D01*
X128216402Y-90569247D01*
X128236107Y-90554633D01*
X128257151Y-90542020D01*
X128279329Y-90531530D01*
X128302429Y-90523265D01*
X128326227Y-90517304D01*
X128350496Y-90513704D01*
X128375000Y-90512500D01*
X129625000Y-90512500D01*
X129649504Y-90513704D01*
X129649504Y-90513704D01*
G37*
D12*
X129000000Y-91225000D03*
D11*
G36*
X129649504Y-87538704D02*
X129673773Y-87542304D01*
X129697571Y-87548265D01*
X129720671Y-87556530D01*
X129742849Y-87567020D01*
X129763893Y-87579633D01*
X129783598Y-87594247D01*
X129801777Y-87610723D01*
X129818253Y-87628902D01*
X129832867Y-87648607D01*
X129845480Y-87669651D01*
X129855970Y-87691829D01*
X129864235Y-87714929D01*
X129870196Y-87738727D01*
X129873796Y-87762996D01*
X129875000Y-87787500D01*
X129875000Y-88712500D01*
X129873796Y-88737004D01*
X129870196Y-88761273D01*
X129864235Y-88785071D01*
X129855970Y-88808171D01*
X129845480Y-88830349D01*
X129832867Y-88851393D01*
X129818253Y-88871098D01*
X129801777Y-88889277D01*
X129783598Y-88905753D01*
X129763893Y-88920367D01*
X129742849Y-88932980D01*
X129720671Y-88943470D01*
X129697571Y-88951735D01*
X129673773Y-88957696D01*
X129649504Y-88961296D01*
X129625000Y-88962500D01*
X128375000Y-88962500D01*
X128350496Y-88961296D01*
X128326227Y-88957696D01*
X128302429Y-88951735D01*
X128279329Y-88943470D01*
X128257151Y-88932980D01*
X128236107Y-88920367D01*
X128216402Y-88905753D01*
X128198223Y-88889277D01*
X128181747Y-88871098D01*
X128167133Y-88851393D01*
X128154520Y-88830349D01*
X128144030Y-88808171D01*
X128135765Y-88785071D01*
X128129804Y-88761273D01*
X128126204Y-88737004D01*
X128125000Y-88712500D01*
X128125000Y-87787500D01*
X128126204Y-87762996D01*
X128129804Y-87738727D01*
X128135765Y-87714929D01*
X128144030Y-87691829D01*
X128154520Y-87669651D01*
X128167133Y-87648607D01*
X128181747Y-87628902D01*
X128198223Y-87610723D01*
X128216402Y-87594247D01*
X128236107Y-87579633D01*
X128257151Y-87567020D01*
X128279329Y-87556530D01*
X128302429Y-87548265D01*
X128326227Y-87542304D01*
X128350496Y-87538704D01*
X128375000Y-87537500D01*
X129625000Y-87537500D01*
X129649504Y-87538704D01*
X129649504Y-87538704D01*
G37*
D12*
X129000000Y-88250000D03*
G04 #@! TD*
D11*
G04 #@! TO.C,R4*
G36*
X157649504Y-82513704D02*
X157673773Y-82517304D01*
X157697571Y-82523265D01*
X157720671Y-82531530D01*
X157742849Y-82542020D01*
X157763893Y-82554633D01*
X157783598Y-82569247D01*
X157801777Y-82585723D01*
X157818253Y-82603902D01*
X157832867Y-82623607D01*
X157845480Y-82644651D01*
X157855970Y-82666829D01*
X157864235Y-82689929D01*
X157870196Y-82713727D01*
X157873796Y-82737996D01*
X157875000Y-82762500D01*
X157875000Y-83687500D01*
X157873796Y-83712004D01*
X157870196Y-83736273D01*
X157864235Y-83760071D01*
X157855970Y-83783171D01*
X157845480Y-83805349D01*
X157832867Y-83826393D01*
X157818253Y-83846098D01*
X157801777Y-83864277D01*
X157783598Y-83880753D01*
X157763893Y-83895367D01*
X157742849Y-83907980D01*
X157720671Y-83918470D01*
X157697571Y-83926735D01*
X157673773Y-83932696D01*
X157649504Y-83936296D01*
X157625000Y-83937500D01*
X156375000Y-83937500D01*
X156350496Y-83936296D01*
X156326227Y-83932696D01*
X156302429Y-83926735D01*
X156279329Y-83918470D01*
X156257151Y-83907980D01*
X156236107Y-83895367D01*
X156216402Y-83880753D01*
X156198223Y-83864277D01*
X156181747Y-83846098D01*
X156167133Y-83826393D01*
X156154520Y-83805349D01*
X156144030Y-83783171D01*
X156135765Y-83760071D01*
X156129804Y-83736273D01*
X156126204Y-83712004D01*
X156125000Y-83687500D01*
X156125000Y-82762500D01*
X156126204Y-82737996D01*
X156129804Y-82713727D01*
X156135765Y-82689929D01*
X156144030Y-82666829D01*
X156154520Y-82644651D01*
X156167133Y-82623607D01*
X156181747Y-82603902D01*
X156198223Y-82585723D01*
X156216402Y-82569247D01*
X156236107Y-82554633D01*
X156257151Y-82542020D01*
X156279329Y-82531530D01*
X156302429Y-82523265D01*
X156326227Y-82517304D01*
X156350496Y-82513704D01*
X156375000Y-82512500D01*
X157625000Y-82512500D01*
X157649504Y-82513704D01*
X157649504Y-82513704D01*
G37*
D12*
X157000000Y-83225000D03*
D11*
G36*
X157649504Y-79538704D02*
X157673773Y-79542304D01*
X157697571Y-79548265D01*
X157720671Y-79556530D01*
X157742849Y-79567020D01*
X157763893Y-79579633D01*
X157783598Y-79594247D01*
X157801777Y-79610723D01*
X157818253Y-79628902D01*
X157832867Y-79648607D01*
X157845480Y-79669651D01*
X157855970Y-79691829D01*
X157864235Y-79714929D01*
X157870196Y-79738727D01*
X157873796Y-79762996D01*
X157875000Y-79787500D01*
X157875000Y-80712500D01*
X157873796Y-80737004D01*
X157870196Y-80761273D01*
X157864235Y-80785071D01*
X157855970Y-80808171D01*
X157845480Y-80830349D01*
X157832867Y-80851393D01*
X157818253Y-80871098D01*
X157801777Y-80889277D01*
X157783598Y-80905753D01*
X157763893Y-80920367D01*
X157742849Y-80932980D01*
X157720671Y-80943470D01*
X157697571Y-80951735D01*
X157673773Y-80957696D01*
X157649504Y-80961296D01*
X157625000Y-80962500D01*
X156375000Y-80962500D01*
X156350496Y-80961296D01*
X156326227Y-80957696D01*
X156302429Y-80951735D01*
X156279329Y-80943470D01*
X156257151Y-80932980D01*
X156236107Y-80920367D01*
X156216402Y-80905753D01*
X156198223Y-80889277D01*
X156181747Y-80871098D01*
X156167133Y-80851393D01*
X156154520Y-80830349D01*
X156144030Y-80808171D01*
X156135765Y-80785071D01*
X156129804Y-80761273D01*
X156126204Y-80737004D01*
X156125000Y-80712500D01*
X156125000Y-79787500D01*
X156126204Y-79762996D01*
X156129804Y-79738727D01*
X156135765Y-79714929D01*
X156144030Y-79691829D01*
X156154520Y-79669651D01*
X156167133Y-79648607D01*
X156181747Y-79628902D01*
X156198223Y-79610723D01*
X156216402Y-79594247D01*
X156236107Y-79579633D01*
X156257151Y-79567020D01*
X156279329Y-79556530D01*
X156302429Y-79548265D01*
X156326227Y-79542304D01*
X156350496Y-79538704D01*
X156375000Y-79537500D01*
X157625000Y-79537500D01*
X157649504Y-79538704D01*
X157649504Y-79538704D01*
G37*
D12*
X157000000Y-80250000D03*
G04 #@! TD*
D11*
G04 #@! TO.C,R3*
G36*
X129649504Y-79038704D02*
X129673773Y-79042304D01*
X129697571Y-79048265D01*
X129720671Y-79056530D01*
X129742849Y-79067020D01*
X129763893Y-79079633D01*
X129783598Y-79094247D01*
X129801777Y-79110723D01*
X129818253Y-79128902D01*
X129832867Y-79148607D01*
X129845480Y-79169651D01*
X129855970Y-79191829D01*
X129864235Y-79214929D01*
X129870196Y-79238727D01*
X129873796Y-79262996D01*
X129875000Y-79287500D01*
X129875000Y-80212500D01*
X129873796Y-80237004D01*
X129870196Y-80261273D01*
X129864235Y-80285071D01*
X129855970Y-80308171D01*
X129845480Y-80330349D01*
X129832867Y-80351393D01*
X129818253Y-80371098D01*
X129801777Y-80389277D01*
X129783598Y-80405753D01*
X129763893Y-80420367D01*
X129742849Y-80432980D01*
X129720671Y-80443470D01*
X129697571Y-80451735D01*
X129673773Y-80457696D01*
X129649504Y-80461296D01*
X129625000Y-80462500D01*
X128375000Y-80462500D01*
X128350496Y-80461296D01*
X128326227Y-80457696D01*
X128302429Y-80451735D01*
X128279329Y-80443470D01*
X128257151Y-80432980D01*
X128236107Y-80420367D01*
X128216402Y-80405753D01*
X128198223Y-80389277D01*
X128181747Y-80371098D01*
X128167133Y-80351393D01*
X128154520Y-80330349D01*
X128144030Y-80308171D01*
X128135765Y-80285071D01*
X128129804Y-80261273D01*
X128126204Y-80237004D01*
X128125000Y-80212500D01*
X128125000Y-79287500D01*
X128126204Y-79262996D01*
X128129804Y-79238727D01*
X128135765Y-79214929D01*
X128144030Y-79191829D01*
X128154520Y-79169651D01*
X128167133Y-79148607D01*
X128181747Y-79128902D01*
X128198223Y-79110723D01*
X128216402Y-79094247D01*
X128236107Y-79079633D01*
X128257151Y-79067020D01*
X128279329Y-79056530D01*
X128302429Y-79048265D01*
X128326227Y-79042304D01*
X128350496Y-79038704D01*
X128375000Y-79037500D01*
X129625000Y-79037500D01*
X129649504Y-79038704D01*
X129649504Y-79038704D01*
G37*
D12*
X129000000Y-79750000D03*
D11*
G36*
X129649504Y-82013704D02*
X129673773Y-82017304D01*
X129697571Y-82023265D01*
X129720671Y-82031530D01*
X129742849Y-82042020D01*
X129763893Y-82054633D01*
X129783598Y-82069247D01*
X129801777Y-82085723D01*
X129818253Y-82103902D01*
X129832867Y-82123607D01*
X129845480Y-82144651D01*
X129855970Y-82166829D01*
X129864235Y-82189929D01*
X129870196Y-82213727D01*
X129873796Y-82237996D01*
X129875000Y-82262500D01*
X129875000Y-83187500D01*
X129873796Y-83212004D01*
X129870196Y-83236273D01*
X129864235Y-83260071D01*
X129855970Y-83283171D01*
X129845480Y-83305349D01*
X129832867Y-83326393D01*
X129818253Y-83346098D01*
X129801777Y-83364277D01*
X129783598Y-83380753D01*
X129763893Y-83395367D01*
X129742849Y-83407980D01*
X129720671Y-83418470D01*
X129697571Y-83426735D01*
X129673773Y-83432696D01*
X129649504Y-83436296D01*
X129625000Y-83437500D01*
X128375000Y-83437500D01*
X128350496Y-83436296D01*
X128326227Y-83432696D01*
X128302429Y-83426735D01*
X128279329Y-83418470D01*
X128257151Y-83407980D01*
X128236107Y-83395367D01*
X128216402Y-83380753D01*
X128198223Y-83364277D01*
X128181747Y-83346098D01*
X128167133Y-83326393D01*
X128154520Y-83305349D01*
X128144030Y-83283171D01*
X128135765Y-83260071D01*
X128129804Y-83236273D01*
X128126204Y-83212004D01*
X128125000Y-83187500D01*
X128125000Y-82262500D01*
X128126204Y-82237996D01*
X128129804Y-82213727D01*
X128135765Y-82189929D01*
X128144030Y-82166829D01*
X128154520Y-82144651D01*
X128167133Y-82123607D01*
X128181747Y-82103902D01*
X128198223Y-82085723D01*
X128216402Y-82069247D01*
X128236107Y-82054633D01*
X128257151Y-82042020D01*
X128279329Y-82031530D01*
X128302429Y-82023265D01*
X128326227Y-82017304D01*
X128350496Y-82013704D01*
X128375000Y-82012500D01*
X129625000Y-82012500D01*
X129649504Y-82013704D01*
X129649504Y-82013704D01*
G37*
D12*
X129000000Y-82725000D03*
G04 #@! TD*
D11*
G04 #@! TO.C,R1*
G36*
X155149504Y-73051204D02*
X155173773Y-73054804D01*
X155197571Y-73060765D01*
X155220671Y-73069030D01*
X155242849Y-73079520D01*
X155263893Y-73092133D01*
X155283598Y-73106747D01*
X155301777Y-73123223D01*
X155318253Y-73141402D01*
X155332867Y-73161107D01*
X155345480Y-73182151D01*
X155355970Y-73204329D01*
X155364235Y-73227429D01*
X155370196Y-73251227D01*
X155373796Y-73275496D01*
X155375000Y-73300000D01*
X155375000Y-74225000D01*
X155373796Y-74249504D01*
X155370196Y-74273773D01*
X155364235Y-74297571D01*
X155355970Y-74320671D01*
X155345480Y-74342849D01*
X155332867Y-74363893D01*
X155318253Y-74383598D01*
X155301777Y-74401777D01*
X155283598Y-74418253D01*
X155263893Y-74432867D01*
X155242849Y-74445480D01*
X155220671Y-74455970D01*
X155197571Y-74464235D01*
X155173773Y-74470196D01*
X155149504Y-74473796D01*
X155125000Y-74475000D01*
X153875000Y-74475000D01*
X153850496Y-74473796D01*
X153826227Y-74470196D01*
X153802429Y-74464235D01*
X153779329Y-74455970D01*
X153757151Y-74445480D01*
X153736107Y-74432867D01*
X153716402Y-74418253D01*
X153698223Y-74401777D01*
X153681747Y-74383598D01*
X153667133Y-74363893D01*
X153654520Y-74342849D01*
X153644030Y-74320671D01*
X153635765Y-74297571D01*
X153629804Y-74273773D01*
X153626204Y-74249504D01*
X153625000Y-74225000D01*
X153625000Y-73300000D01*
X153626204Y-73275496D01*
X153629804Y-73251227D01*
X153635765Y-73227429D01*
X153644030Y-73204329D01*
X153654520Y-73182151D01*
X153667133Y-73161107D01*
X153681747Y-73141402D01*
X153698223Y-73123223D01*
X153716402Y-73106747D01*
X153736107Y-73092133D01*
X153757151Y-73079520D01*
X153779329Y-73069030D01*
X153802429Y-73060765D01*
X153826227Y-73054804D01*
X153850496Y-73051204D01*
X153875000Y-73050000D01*
X155125000Y-73050000D01*
X155149504Y-73051204D01*
X155149504Y-73051204D01*
G37*
D12*
X154500000Y-73762500D03*
D11*
G36*
X155149504Y-76026204D02*
X155173773Y-76029804D01*
X155197571Y-76035765D01*
X155220671Y-76044030D01*
X155242849Y-76054520D01*
X155263893Y-76067133D01*
X155283598Y-76081747D01*
X155301777Y-76098223D01*
X155318253Y-76116402D01*
X155332867Y-76136107D01*
X155345480Y-76157151D01*
X155355970Y-76179329D01*
X155364235Y-76202429D01*
X155370196Y-76226227D01*
X155373796Y-76250496D01*
X155375000Y-76275000D01*
X155375000Y-77200000D01*
X155373796Y-77224504D01*
X155370196Y-77248773D01*
X155364235Y-77272571D01*
X155355970Y-77295671D01*
X155345480Y-77317849D01*
X155332867Y-77338893D01*
X155318253Y-77358598D01*
X155301777Y-77376777D01*
X155283598Y-77393253D01*
X155263893Y-77407867D01*
X155242849Y-77420480D01*
X155220671Y-77430970D01*
X155197571Y-77439235D01*
X155173773Y-77445196D01*
X155149504Y-77448796D01*
X155125000Y-77450000D01*
X153875000Y-77450000D01*
X153850496Y-77448796D01*
X153826227Y-77445196D01*
X153802429Y-77439235D01*
X153779329Y-77430970D01*
X153757151Y-77420480D01*
X153736107Y-77407867D01*
X153716402Y-77393253D01*
X153698223Y-77376777D01*
X153681747Y-77358598D01*
X153667133Y-77338893D01*
X153654520Y-77317849D01*
X153644030Y-77295671D01*
X153635765Y-77272571D01*
X153629804Y-77248773D01*
X153626204Y-77224504D01*
X153625000Y-77200000D01*
X153625000Y-76275000D01*
X153626204Y-76250496D01*
X153629804Y-76226227D01*
X153635765Y-76202429D01*
X153644030Y-76179329D01*
X153654520Y-76157151D01*
X153667133Y-76136107D01*
X153681747Y-76116402D01*
X153698223Y-76098223D01*
X153716402Y-76081747D01*
X153736107Y-76067133D01*
X153757151Y-76054520D01*
X153779329Y-76044030D01*
X153802429Y-76035765D01*
X153826227Y-76029804D01*
X153850496Y-76026204D01*
X153875000Y-76025000D01*
X155125000Y-76025000D01*
X155149504Y-76026204D01*
X155149504Y-76026204D01*
G37*
D12*
X154500000Y-76737500D03*
G04 #@! TD*
D11*
G04 #@! TO.C,R25*
G36*
X175999504Y-102376204D02*
X176023773Y-102379804D01*
X176047571Y-102385765D01*
X176070671Y-102394030D01*
X176092849Y-102404520D01*
X176113893Y-102417133D01*
X176133598Y-102431747D01*
X176151777Y-102448223D01*
X176168253Y-102466402D01*
X176182867Y-102486107D01*
X176195480Y-102507151D01*
X176205970Y-102529329D01*
X176214235Y-102552429D01*
X176220196Y-102576227D01*
X176223796Y-102600496D01*
X176225000Y-102625000D01*
X176225000Y-103875000D01*
X176223796Y-103899504D01*
X176220196Y-103923773D01*
X176214235Y-103947571D01*
X176205970Y-103970671D01*
X176195480Y-103992849D01*
X176182867Y-104013893D01*
X176168253Y-104033598D01*
X176151777Y-104051777D01*
X176133598Y-104068253D01*
X176113893Y-104082867D01*
X176092849Y-104095480D01*
X176070671Y-104105970D01*
X176047571Y-104114235D01*
X176023773Y-104120196D01*
X175999504Y-104123796D01*
X175975000Y-104125000D01*
X175050000Y-104125000D01*
X175025496Y-104123796D01*
X175001227Y-104120196D01*
X174977429Y-104114235D01*
X174954329Y-104105970D01*
X174932151Y-104095480D01*
X174911107Y-104082867D01*
X174891402Y-104068253D01*
X174873223Y-104051777D01*
X174856747Y-104033598D01*
X174842133Y-104013893D01*
X174829520Y-103992849D01*
X174819030Y-103970671D01*
X174810765Y-103947571D01*
X174804804Y-103923773D01*
X174801204Y-103899504D01*
X174800000Y-103875000D01*
X174800000Y-102625000D01*
X174801204Y-102600496D01*
X174804804Y-102576227D01*
X174810765Y-102552429D01*
X174819030Y-102529329D01*
X174829520Y-102507151D01*
X174842133Y-102486107D01*
X174856747Y-102466402D01*
X174873223Y-102448223D01*
X174891402Y-102431747D01*
X174911107Y-102417133D01*
X174932151Y-102404520D01*
X174954329Y-102394030D01*
X174977429Y-102385765D01*
X175001227Y-102379804D01*
X175025496Y-102376204D01*
X175050000Y-102375000D01*
X175975000Y-102375000D01*
X175999504Y-102376204D01*
X175999504Y-102376204D01*
G37*
D12*
X175512500Y-103250000D03*
D11*
G36*
X178974504Y-102376204D02*
X178998773Y-102379804D01*
X179022571Y-102385765D01*
X179045671Y-102394030D01*
X179067849Y-102404520D01*
X179088893Y-102417133D01*
X179108598Y-102431747D01*
X179126777Y-102448223D01*
X179143253Y-102466402D01*
X179157867Y-102486107D01*
X179170480Y-102507151D01*
X179180970Y-102529329D01*
X179189235Y-102552429D01*
X179195196Y-102576227D01*
X179198796Y-102600496D01*
X179200000Y-102625000D01*
X179200000Y-103875000D01*
X179198796Y-103899504D01*
X179195196Y-103923773D01*
X179189235Y-103947571D01*
X179180970Y-103970671D01*
X179170480Y-103992849D01*
X179157867Y-104013893D01*
X179143253Y-104033598D01*
X179126777Y-104051777D01*
X179108598Y-104068253D01*
X179088893Y-104082867D01*
X179067849Y-104095480D01*
X179045671Y-104105970D01*
X179022571Y-104114235D01*
X178998773Y-104120196D01*
X178974504Y-104123796D01*
X178950000Y-104125000D01*
X178025000Y-104125000D01*
X178000496Y-104123796D01*
X177976227Y-104120196D01*
X177952429Y-104114235D01*
X177929329Y-104105970D01*
X177907151Y-104095480D01*
X177886107Y-104082867D01*
X177866402Y-104068253D01*
X177848223Y-104051777D01*
X177831747Y-104033598D01*
X177817133Y-104013893D01*
X177804520Y-103992849D01*
X177794030Y-103970671D01*
X177785765Y-103947571D01*
X177779804Y-103923773D01*
X177776204Y-103899504D01*
X177775000Y-103875000D01*
X177775000Y-102625000D01*
X177776204Y-102600496D01*
X177779804Y-102576227D01*
X177785765Y-102552429D01*
X177794030Y-102529329D01*
X177804520Y-102507151D01*
X177817133Y-102486107D01*
X177831747Y-102466402D01*
X177848223Y-102448223D01*
X177866402Y-102431747D01*
X177886107Y-102417133D01*
X177907151Y-102404520D01*
X177929329Y-102394030D01*
X177952429Y-102385765D01*
X177976227Y-102379804D01*
X178000496Y-102376204D01*
X178025000Y-102375000D01*
X178950000Y-102375000D01*
X178974504Y-102376204D01*
X178974504Y-102376204D01*
G37*
D12*
X178487500Y-103250000D03*
G04 #@! TD*
D17*
G04 #@! TO.C,D1*
X168000000Y-95500000D03*
X168000000Y-98000000D03*
G04 #@! TD*
G04 #@! TO.C,D2*
X163000000Y-69500000D03*
X160500000Y-69500000D03*
G04 #@! TD*
G04 #@! TO.C,D3*
X165750000Y-96000000D03*
X165750000Y-93500000D03*
G04 #@! TD*
G04 #@! TO.C,D4*
X164000000Y-89000000D03*
X161500000Y-89000000D03*
G04 #@! TD*
D22*
G04 #@! TO.C,U5*
X164500000Y-59225000D03*
X165000000Y-59225000D03*
D23*
X165500000Y-59510000D03*
D22*
X166000000Y-59225000D03*
D23*
X166500000Y-59510000D03*
D22*
X166500000Y-56275000D03*
X166000000Y-56275000D03*
D23*
X165500000Y-55990000D03*
X165000000Y-55990000D03*
X164500000Y-55990000D03*
D24*
X164865000Y-58200000D03*
D25*
X163870000Y-58000000D03*
X163870000Y-57500000D03*
X167130000Y-58000000D03*
X167130000Y-57500000D03*
D24*
X164865000Y-57300000D03*
X166135000Y-58200000D03*
X166135000Y-57300000D03*
D23*
X164500000Y-59510000D03*
X165000000Y-59510000D03*
D22*
X165500000Y-59225000D03*
D23*
X166000000Y-59510000D03*
D22*
X166500000Y-59225000D03*
D23*
X166500000Y-55990000D03*
X166000000Y-55990000D03*
D22*
X165500000Y-56275000D03*
X165000000Y-56275000D03*
X164500000Y-56275000D03*
G04 #@! TD*
M02*
