G04 #@! TF.GenerationSoftware,KiCad,Pcbnew,(5.0.1)-3*
G04 #@! TF.CreationDate,2018-11-25T21:54:18-05:00*
G04 #@! TF.ProjectId,ESP32 Windlass,45535033322057696E646C6173732E6B,rev?*
G04 #@! TF.SameCoordinates,Original*
G04 #@! TF.FileFunction,Soldermask,Bot*
G04 #@! TF.FilePolarity,Negative*
%FSLAX46Y46*%
G04 Gerber Fmt 4.6, Leading zero omitted, Abs format (unit mm)*
G04 Created by KiCad (PCBNEW (5.0.1)-3) date 11/25/2018 9:54:18 PM*
%MOMM*%
%LPD*%
G01*
G04 APERTURE LIST*
%ADD10C,0.100000*%
G04 APERTURE END LIST*
D10*
G36*
X187922947Y-102355722D02*
X188186833Y-102465027D01*
X188424324Y-102623713D01*
X188626287Y-102825676D01*
X188784973Y-103063167D01*
X188894278Y-103327053D01*
X188950000Y-103607186D01*
X188950000Y-103892814D01*
X188894278Y-104172947D01*
X188784973Y-104436833D01*
X188626287Y-104674324D01*
X188424324Y-104876287D01*
X188186833Y-105034973D01*
X187922947Y-105144278D01*
X187642814Y-105200000D01*
X187357186Y-105200000D01*
X187077053Y-105144278D01*
X186813167Y-105034973D01*
X186575676Y-104876287D01*
X186373713Y-104674324D01*
X186215027Y-104436833D01*
X186105722Y-104172947D01*
X186050000Y-103892814D01*
X186050000Y-103607186D01*
X186105722Y-103327053D01*
X186215027Y-103063167D01*
X186373713Y-102825676D01*
X186575676Y-102623713D01*
X186813167Y-102465027D01*
X187077053Y-102355722D01*
X187357186Y-102300000D01*
X187642814Y-102300000D01*
X187922947Y-102355722D01*
X187922947Y-102355722D01*
G37*
G36*
X196659141Y-96174297D02*
X196845899Y-96211445D01*
X197064506Y-96301995D01*
X197373664Y-96430052D01*
X197848645Y-96747425D01*
X198252575Y-97151355D01*
X198569948Y-97626336D01*
X198788555Y-98154102D01*
X198900000Y-98714373D01*
X198900000Y-99285627D01*
X198788555Y-99845898D01*
X198569948Y-100373664D01*
X198252575Y-100848645D01*
X197848645Y-101252575D01*
X197373664Y-101569948D01*
X197064506Y-101698005D01*
X196845899Y-101788555D01*
X196659141Y-101825703D01*
X196285627Y-101900000D01*
X195714373Y-101900000D01*
X195340859Y-101825703D01*
X195154101Y-101788555D01*
X194935494Y-101698005D01*
X194626336Y-101569948D01*
X194151355Y-101252575D01*
X193747425Y-100848645D01*
X193430052Y-100373664D01*
X193211445Y-99845898D01*
X193100000Y-99285627D01*
X193100000Y-98714373D01*
X193211445Y-98154102D01*
X193430052Y-97626336D01*
X193747425Y-97151355D01*
X194151355Y-96747425D01*
X194626336Y-96430052D01*
X194935494Y-96301995D01*
X195154101Y-96211445D01*
X195340859Y-96174297D01*
X195714373Y-96100000D01*
X196285627Y-96100000D01*
X196659141Y-96174297D01*
X196659141Y-96174297D01*
G37*
G36*
X187922947Y-92355722D02*
X188186833Y-92465027D01*
X188424324Y-92623713D01*
X188626287Y-92825676D01*
X188784973Y-93063167D01*
X188894278Y-93327053D01*
X188950000Y-93607186D01*
X188950000Y-93892814D01*
X188894278Y-94172947D01*
X188784973Y-94436833D01*
X188626287Y-94674324D01*
X188424324Y-94876287D01*
X188186833Y-95034973D01*
X187922947Y-95144278D01*
X187642814Y-95200000D01*
X187357186Y-95200000D01*
X187077053Y-95144278D01*
X186813167Y-95034973D01*
X186575676Y-94876287D01*
X186373713Y-94674324D01*
X186215027Y-94436833D01*
X186105722Y-94172947D01*
X186050000Y-93892814D01*
X186050000Y-93607186D01*
X186105722Y-93327053D01*
X186215027Y-93063167D01*
X186373713Y-92825676D01*
X186575676Y-92623713D01*
X186813167Y-92465027D01*
X187077053Y-92355722D01*
X187357186Y-92300000D01*
X187642814Y-92300000D01*
X187922947Y-92355722D01*
X187922947Y-92355722D01*
G37*
G36*
X150409141Y-85424297D02*
X150595899Y-85461445D01*
X150814506Y-85551995D01*
X151123664Y-85680052D01*
X151598645Y-85997425D01*
X152002575Y-86401355D01*
X152319948Y-86876336D01*
X152448005Y-87185494D01*
X152538555Y-87404101D01*
X152541341Y-87418109D01*
X152650000Y-87964373D01*
X152650000Y-88535627D01*
X152612196Y-88725678D01*
X152538555Y-89095899D01*
X152516072Y-89150178D01*
X152319948Y-89623664D01*
X152002575Y-90098645D01*
X151598645Y-90502575D01*
X151123664Y-90819948D01*
X150814506Y-90948005D01*
X150595899Y-91038555D01*
X150409141Y-91075703D01*
X150035627Y-91150000D01*
X149464373Y-91150000D01*
X149090859Y-91075703D01*
X148904101Y-91038555D01*
X148685494Y-90948005D01*
X148376336Y-90819948D01*
X147901355Y-90502575D01*
X147497425Y-90098645D01*
X147180052Y-89623664D01*
X146983928Y-89150178D01*
X146961445Y-89095899D01*
X146887804Y-88725678D01*
X146850000Y-88535627D01*
X146850000Y-87964373D01*
X146958659Y-87418109D01*
X146961445Y-87404101D01*
X147051995Y-87185494D01*
X147180052Y-86876336D01*
X147497425Y-86401355D01*
X147901355Y-85997425D01*
X148376336Y-85680052D01*
X148685494Y-85551995D01*
X148904101Y-85461445D01*
X149090859Y-85424297D01*
X149464373Y-85350000D01*
X150035627Y-85350000D01*
X150409141Y-85424297D01*
X150409141Y-85424297D01*
G37*
G36*
X176895603Y-84804968D02*
X176895606Y-84804969D01*
X176895605Y-84804969D01*
X177070678Y-84877486D01*
X177180553Y-84950903D01*
X177202164Y-84962455D01*
X177225613Y-84969568D01*
X177249999Y-84971970D01*
X177274386Y-84969568D01*
X177297835Y-84962455D01*
X177319447Y-84950903D01*
X177429322Y-84877486D01*
X177604395Y-84804969D01*
X177604394Y-84804969D01*
X177604397Y-84804968D01*
X177790250Y-84768000D01*
X177979750Y-84768000D01*
X178165603Y-84804968D01*
X178165606Y-84804969D01*
X178165605Y-84804969D01*
X178340678Y-84877486D01*
X178418923Y-84929768D01*
X178498241Y-84982767D01*
X178632233Y-85116759D01*
X178685232Y-85196077D01*
X178737514Y-85274322D01*
X178793603Y-85409734D01*
X178810032Y-85449397D01*
X178847000Y-85635250D01*
X178847000Y-85824750D01*
X178810032Y-86010603D01*
X178810031Y-86010605D01*
X178737514Y-86185678D01*
X178737513Y-86185679D01*
X178632233Y-86343241D01*
X178498241Y-86477233D01*
X178450389Y-86509207D01*
X178340678Y-86582514D01*
X178257261Y-86617066D01*
X178235650Y-86628617D01*
X178216708Y-86644163D01*
X178201163Y-86663105D01*
X178189612Y-86684716D01*
X178182499Y-86708165D01*
X178180097Y-86732551D01*
X178182499Y-86756937D01*
X178212000Y-86905250D01*
X178212000Y-87094750D01*
X178182499Y-87243063D01*
X178180097Y-87267449D01*
X178182499Y-87291836D01*
X178189612Y-87315285D01*
X178201163Y-87336896D01*
X178216709Y-87355838D01*
X178235651Y-87371383D01*
X178257260Y-87382933D01*
X178340678Y-87417486D01*
X178340679Y-87417487D01*
X178498241Y-87522767D01*
X178632233Y-87656759D01*
X178673345Y-87718287D01*
X178737514Y-87814322D01*
X178759550Y-87867522D01*
X178810032Y-87989397D01*
X178847000Y-88175250D01*
X178847000Y-88364750D01*
X178810032Y-88550603D01*
X178810031Y-88550605D01*
X178737514Y-88725678D01*
X178737513Y-88725679D01*
X178632233Y-88883241D01*
X178498241Y-89017233D01*
X178482082Y-89028030D01*
X178340678Y-89122514D01*
X178205266Y-89178603D01*
X178165603Y-89195032D01*
X177979750Y-89232000D01*
X177790250Y-89232000D01*
X177604397Y-89195032D01*
X177582032Y-89185768D01*
X177429322Y-89122514D01*
X177319446Y-89049097D01*
X177297836Y-89037545D01*
X177274387Y-89030432D01*
X177250001Y-89028030D01*
X177225614Y-89030432D01*
X177202165Y-89037545D01*
X177180554Y-89049097D01*
X177070678Y-89122514D01*
X176917968Y-89185768D01*
X176895603Y-89195032D01*
X176709750Y-89232000D01*
X176520250Y-89232000D01*
X176334397Y-89195032D01*
X176294734Y-89178603D01*
X176159322Y-89122514D01*
X176017918Y-89028030D01*
X176001759Y-89017233D01*
X175867767Y-88883241D01*
X175762487Y-88725679D01*
X175762486Y-88725678D01*
X175689969Y-88550605D01*
X175689968Y-88550603D01*
X175653000Y-88364750D01*
X175653000Y-88175250D01*
X175689968Y-87989397D01*
X175740450Y-87867522D01*
X175762486Y-87814322D01*
X175826655Y-87718287D01*
X175867767Y-87656759D01*
X176001759Y-87522767D01*
X176159321Y-87417487D01*
X176159322Y-87417486D01*
X176242740Y-87382933D01*
X176264350Y-87371383D01*
X176283292Y-87355837D01*
X176298837Y-87336895D01*
X176310388Y-87315284D01*
X176317501Y-87291835D01*
X176319903Y-87267449D01*
X176317501Y-87243063D01*
X176288000Y-87094750D01*
X176288000Y-86905250D01*
X176317501Y-86756937D01*
X176319903Y-86732551D01*
X176317501Y-86708164D01*
X176310388Y-86684715D01*
X176298837Y-86663104D01*
X176283291Y-86644162D01*
X176264349Y-86628617D01*
X176242739Y-86617066D01*
X176159322Y-86582514D01*
X176049611Y-86509207D01*
X176001759Y-86477233D01*
X175867767Y-86343241D01*
X175762487Y-86185679D01*
X175762486Y-86185678D01*
X175689969Y-86010605D01*
X175689968Y-86010603D01*
X175653000Y-85824750D01*
X175653000Y-85635250D01*
X175689968Y-85449397D01*
X175706397Y-85409734D01*
X175762486Y-85274322D01*
X175814768Y-85196077D01*
X175867767Y-85116759D01*
X176001759Y-84982767D01*
X176081077Y-84929768D01*
X176159322Y-84877486D01*
X176334395Y-84804969D01*
X176334394Y-84804969D01*
X176334397Y-84804968D01*
X176520250Y-84768000D01*
X176709750Y-84768000D01*
X176895603Y-84804968D01*
X176895603Y-84804968D01*
G37*
G36*
X187922947Y-82355722D02*
X188186833Y-82465027D01*
X188424324Y-82623713D01*
X188626287Y-82825676D01*
X188784973Y-83063167D01*
X188894278Y-83327053D01*
X188950000Y-83607186D01*
X188950000Y-83892814D01*
X188894278Y-84172947D01*
X188784973Y-84436833D01*
X188626287Y-84674324D01*
X188424324Y-84876287D01*
X188186833Y-85034973D01*
X187922947Y-85144278D01*
X187642814Y-85200000D01*
X187357186Y-85200000D01*
X187077053Y-85144278D01*
X186813167Y-85034973D01*
X186575676Y-84876287D01*
X186373713Y-84674324D01*
X186215027Y-84436833D01*
X186105722Y-84172947D01*
X186050000Y-83892814D01*
X186050000Y-83607186D01*
X186105722Y-83327053D01*
X186215027Y-83063167D01*
X186373713Y-82825676D01*
X186575676Y-82623713D01*
X186813167Y-82465027D01*
X187077053Y-82355722D01*
X187357186Y-82300000D01*
X187642814Y-82300000D01*
X187922947Y-82355722D01*
X187922947Y-82355722D01*
G37*
G36*
X187922947Y-72355722D02*
X188186833Y-72465027D01*
X188424324Y-72623713D01*
X188626287Y-72825676D01*
X188784973Y-73063167D01*
X188894278Y-73327053D01*
X188950000Y-73607186D01*
X188950000Y-73892814D01*
X188894278Y-74172947D01*
X188784973Y-74436833D01*
X188626287Y-74674324D01*
X188424324Y-74876287D01*
X188186833Y-75034973D01*
X187922947Y-75144278D01*
X187642814Y-75200000D01*
X187357186Y-75200000D01*
X187077053Y-75144278D01*
X186813167Y-75034973D01*
X186575676Y-74876287D01*
X186373713Y-74674324D01*
X186215027Y-74436833D01*
X186105722Y-74172947D01*
X186050000Y-73892814D01*
X186050000Y-73607186D01*
X186105722Y-73327053D01*
X186215027Y-73063167D01*
X186373713Y-72825676D01*
X186575676Y-72623713D01*
X186813167Y-72465027D01*
X187077053Y-72355722D01*
X187357186Y-72300000D01*
X187642814Y-72300000D01*
X187922947Y-72355722D01*
X187922947Y-72355722D01*
G37*
G36*
X176895603Y-67804968D02*
X176895606Y-67804969D01*
X176895605Y-67804969D01*
X177070678Y-67877486D01*
X177180553Y-67950903D01*
X177202164Y-67962455D01*
X177225613Y-67969568D01*
X177249999Y-67971970D01*
X177274386Y-67969568D01*
X177297835Y-67962455D01*
X177319447Y-67950903D01*
X177429322Y-67877486D01*
X177604395Y-67804969D01*
X177604394Y-67804969D01*
X177604397Y-67804968D01*
X177790250Y-67768000D01*
X177979750Y-67768000D01*
X178165603Y-67804968D01*
X178165606Y-67804969D01*
X178165605Y-67804969D01*
X178340678Y-67877486D01*
X178418923Y-67929768D01*
X178498241Y-67982767D01*
X178632233Y-68116759D01*
X178632234Y-68116761D01*
X178737514Y-68274322D01*
X178758510Y-68325012D01*
X178810032Y-68449397D01*
X178847000Y-68635250D01*
X178847000Y-68824750D01*
X178810032Y-69010603D01*
X178810031Y-69010605D01*
X178737514Y-69185678D01*
X178737513Y-69185679D01*
X178632233Y-69343241D01*
X178498241Y-69477233D01*
X178418923Y-69530232D01*
X178340678Y-69582514D01*
X178259719Y-69616048D01*
X178257261Y-69617066D01*
X178235650Y-69628617D01*
X178216708Y-69644163D01*
X178201163Y-69663105D01*
X178189612Y-69684716D01*
X178182499Y-69708165D01*
X178180097Y-69732551D01*
X178182499Y-69756937D01*
X178212000Y-69905250D01*
X178212000Y-70094750D01*
X178182499Y-70243063D01*
X178180097Y-70267449D01*
X178182499Y-70291836D01*
X178189612Y-70315285D01*
X178201163Y-70336896D01*
X178216709Y-70355838D01*
X178235651Y-70371383D01*
X178257260Y-70382933D01*
X178340678Y-70417486D01*
X178340679Y-70417487D01*
X178498241Y-70522767D01*
X178632233Y-70656759D01*
X178632234Y-70656761D01*
X178737514Y-70814322D01*
X178783371Y-70925031D01*
X178810032Y-70989397D01*
X178847000Y-71175250D01*
X178847000Y-71364750D01*
X178810032Y-71550603D01*
X178810031Y-71550605D01*
X178737514Y-71725678D01*
X178737513Y-71725679D01*
X178632233Y-71883241D01*
X178498241Y-72017233D01*
X178482082Y-72028030D01*
X178340678Y-72122514D01*
X178205266Y-72178603D01*
X178165603Y-72195032D01*
X177979750Y-72232000D01*
X177790250Y-72232000D01*
X177604397Y-72195032D01*
X177582032Y-72185768D01*
X177429322Y-72122514D01*
X177319446Y-72049097D01*
X177297836Y-72037545D01*
X177274387Y-72030432D01*
X177250001Y-72028030D01*
X177225614Y-72030432D01*
X177202165Y-72037545D01*
X177180554Y-72049097D01*
X177070678Y-72122514D01*
X176917968Y-72185768D01*
X176895603Y-72195032D01*
X176709750Y-72232000D01*
X176520250Y-72232000D01*
X176334397Y-72195032D01*
X176294734Y-72178603D01*
X176159322Y-72122514D01*
X176017918Y-72028030D01*
X176001759Y-72017233D01*
X175867767Y-71883241D01*
X175762487Y-71725679D01*
X175762486Y-71725678D01*
X175689969Y-71550605D01*
X175689968Y-71550603D01*
X175653000Y-71364750D01*
X175653000Y-71175250D01*
X175689968Y-70989397D01*
X175716629Y-70925031D01*
X175762486Y-70814322D01*
X175867766Y-70656761D01*
X175867767Y-70656759D01*
X176001759Y-70522767D01*
X176159321Y-70417487D01*
X176159322Y-70417486D01*
X176242740Y-70382933D01*
X176264350Y-70371383D01*
X176283292Y-70355837D01*
X176298837Y-70336895D01*
X176310388Y-70315284D01*
X176317501Y-70291835D01*
X176319903Y-70267449D01*
X176317501Y-70243063D01*
X176288000Y-70094750D01*
X176288000Y-69905250D01*
X176317501Y-69756937D01*
X176319903Y-69732551D01*
X176317501Y-69708164D01*
X176310388Y-69684715D01*
X176298837Y-69663104D01*
X176283291Y-69644162D01*
X176264349Y-69628617D01*
X176242739Y-69617066D01*
X176240281Y-69616048D01*
X176159322Y-69582514D01*
X176081077Y-69530232D01*
X176001759Y-69477233D01*
X175867767Y-69343241D01*
X175762487Y-69185679D01*
X175762486Y-69185678D01*
X175689969Y-69010605D01*
X175689968Y-69010603D01*
X175653000Y-68824750D01*
X175653000Y-68635250D01*
X175689968Y-68449397D01*
X175741490Y-68325012D01*
X175762486Y-68274322D01*
X175867766Y-68116761D01*
X175867767Y-68116759D01*
X176001759Y-67982767D01*
X176081077Y-67929768D01*
X176159322Y-67877486D01*
X176334395Y-67804969D01*
X176334394Y-67804969D01*
X176334397Y-67804968D01*
X176520250Y-67768000D01*
X176709750Y-67768000D01*
X176895603Y-67804968D01*
X176895603Y-67804968D01*
G37*
G36*
X127245012Y-64573057D02*
X127354207Y-64618287D01*
X127452481Y-64683952D01*
X127481612Y-64713083D01*
X127500554Y-64728629D01*
X127522165Y-64740180D01*
X127545614Y-64747293D01*
X127570000Y-64749695D01*
X127594386Y-64747293D01*
X127617835Y-64740180D01*
X127639446Y-64728629D01*
X127658388Y-64713083D01*
X127687519Y-64683952D01*
X127785793Y-64618287D01*
X127894988Y-64573057D01*
X128010904Y-64550000D01*
X128129096Y-64550000D01*
X128245012Y-64573057D01*
X128354207Y-64618287D01*
X128452481Y-64683952D01*
X128481612Y-64713083D01*
X128500554Y-64728629D01*
X128522165Y-64740180D01*
X128545614Y-64747293D01*
X128570000Y-64749695D01*
X128594386Y-64747293D01*
X128617835Y-64740180D01*
X128639446Y-64728629D01*
X128658388Y-64713083D01*
X128687519Y-64683952D01*
X128785793Y-64618287D01*
X128894988Y-64573057D01*
X129010904Y-64550000D01*
X129129096Y-64550000D01*
X129245012Y-64573057D01*
X129354207Y-64618287D01*
X129452481Y-64683952D01*
X129481612Y-64713083D01*
X129500554Y-64728629D01*
X129522165Y-64740180D01*
X129545614Y-64747293D01*
X129570000Y-64749695D01*
X129594386Y-64747293D01*
X129617835Y-64740180D01*
X129639446Y-64728629D01*
X129658388Y-64713083D01*
X129687519Y-64683952D01*
X129785793Y-64618287D01*
X129894988Y-64573057D01*
X130010904Y-64550000D01*
X130129096Y-64550000D01*
X130245012Y-64573057D01*
X130354207Y-64618287D01*
X130452481Y-64683952D01*
X130481612Y-64713083D01*
X130500554Y-64728629D01*
X130522165Y-64740180D01*
X130545614Y-64747293D01*
X130570000Y-64749695D01*
X130594386Y-64747293D01*
X130617835Y-64740180D01*
X130639446Y-64728629D01*
X130658388Y-64713083D01*
X130687519Y-64683952D01*
X130785793Y-64618287D01*
X130894988Y-64573057D01*
X131010904Y-64550000D01*
X131129096Y-64550000D01*
X131245012Y-64573057D01*
X131354207Y-64618287D01*
X131452481Y-64683952D01*
X131536048Y-64767519D01*
X131601713Y-64865793D01*
X131646943Y-64974988D01*
X131670000Y-65090904D01*
X131670000Y-65209096D01*
X131646943Y-65325012D01*
X131601713Y-65434207D01*
X131536048Y-65532481D01*
X131506917Y-65561612D01*
X131491371Y-65580554D01*
X131479820Y-65602165D01*
X131472707Y-65625614D01*
X131470305Y-65650000D01*
X131472707Y-65674386D01*
X131479820Y-65697835D01*
X131491371Y-65719446D01*
X131506917Y-65738388D01*
X131536048Y-65767519D01*
X131601713Y-65865793D01*
X131646943Y-65974988D01*
X131670000Y-66090904D01*
X131670000Y-66209096D01*
X131646943Y-66325012D01*
X131601713Y-66434207D01*
X131536048Y-66532481D01*
X131506917Y-66561612D01*
X131491371Y-66580554D01*
X131479820Y-66602165D01*
X131472707Y-66625614D01*
X131470305Y-66650000D01*
X131472707Y-66674386D01*
X131479820Y-66697835D01*
X131491371Y-66719446D01*
X131506917Y-66738388D01*
X131536048Y-66767519D01*
X131601713Y-66865793D01*
X131646943Y-66974988D01*
X131670000Y-67090904D01*
X131670000Y-67209096D01*
X131646943Y-67325012D01*
X131601713Y-67434207D01*
X131536048Y-67532481D01*
X131506917Y-67561612D01*
X131491371Y-67580554D01*
X131479820Y-67602165D01*
X131472707Y-67625614D01*
X131470305Y-67650000D01*
X131472707Y-67674386D01*
X131479820Y-67697835D01*
X131491371Y-67719446D01*
X131506917Y-67738388D01*
X131536048Y-67767519D01*
X131601713Y-67865793D01*
X131646943Y-67974988D01*
X131670000Y-68090904D01*
X131670000Y-68209096D01*
X131646943Y-68325012D01*
X131601713Y-68434207D01*
X131536048Y-68532481D01*
X131506917Y-68561612D01*
X131491371Y-68580554D01*
X131479820Y-68602165D01*
X131472707Y-68625614D01*
X131470305Y-68650000D01*
X131472707Y-68674386D01*
X131479820Y-68697835D01*
X131491371Y-68719446D01*
X131506917Y-68738388D01*
X131536048Y-68767519D01*
X131601713Y-68865793D01*
X131646943Y-68974988D01*
X131670000Y-69090904D01*
X131670000Y-69209096D01*
X131646943Y-69325012D01*
X131601713Y-69434207D01*
X131536048Y-69532481D01*
X131452481Y-69616048D01*
X131354207Y-69681713D01*
X131245012Y-69726943D01*
X131129096Y-69750000D01*
X131010904Y-69750000D01*
X130894988Y-69726943D01*
X130785793Y-69681713D01*
X130687519Y-69616048D01*
X130658388Y-69586917D01*
X130639446Y-69571371D01*
X130617835Y-69559820D01*
X130594386Y-69552707D01*
X130570000Y-69550305D01*
X130545614Y-69552707D01*
X130522165Y-69559820D01*
X130500554Y-69571371D01*
X130481612Y-69586917D01*
X130452481Y-69616048D01*
X130354207Y-69681713D01*
X130245012Y-69726943D01*
X130129096Y-69750000D01*
X130010904Y-69750000D01*
X129894988Y-69726943D01*
X129785793Y-69681713D01*
X129687519Y-69616048D01*
X129658388Y-69586917D01*
X129639446Y-69571371D01*
X129617835Y-69559820D01*
X129594386Y-69552707D01*
X129570000Y-69550305D01*
X129545614Y-69552707D01*
X129522165Y-69559820D01*
X129500554Y-69571371D01*
X129481612Y-69586917D01*
X129452481Y-69616048D01*
X129354207Y-69681713D01*
X129245012Y-69726943D01*
X129129096Y-69750000D01*
X129010904Y-69750000D01*
X128894988Y-69726943D01*
X128785793Y-69681713D01*
X128687519Y-69616048D01*
X128658388Y-69586917D01*
X128639446Y-69571371D01*
X128617835Y-69559820D01*
X128594386Y-69552707D01*
X128570000Y-69550305D01*
X128545614Y-69552707D01*
X128522165Y-69559820D01*
X128500554Y-69571371D01*
X128481612Y-69586917D01*
X128452481Y-69616048D01*
X128354207Y-69681713D01*
X128245012Y-69726943D01*
X128129096Y-69750000D01*
X128010904Y-69750000D01*
X127894988Y-69726943D01*
X127785793Y-69681713D01*
X127687519Y-69616048D01*
X127658388Y-69586917D01*
X127639446Y-69571371D01*
X127617835Y-69559820D01*
X127594386Y-69552707D01*
X127570000Y-69550305D01*
X127545614Y-69552707D01*
X127522165Y-69559820D01*
X127500554Y-69571371D01*
X127481612Y-69586917D01*
X127452481Y-69616048D01*
X127354207Y-69681713D01*
X127245012Y-69726943D01*
X127129096Y-69750000D01*
X127010904Y-69750000D01*
X126894988Y-69726943D01*
X126785793Y-69681713D01*
X126687519Y-69616048D01*
X126603952Y-69532481D01*
X126538287Y-69434207D01*
X126493057Y-69325012D01*
X126470000Y-69209096D01*
X126470000Y-69090904D01*
X126493057Y-68974988D01*
X126538287Y-68865793D01*
X126603952Y-68767519D01*
X126633083Y-68738388D01*
X126648629Y-68719446D01*
X126660180Y-68697835D01*
X126667293Y-68674386D01*
X126669695Y-68650000D01*
X126667293Y-68625614D01*
X126660180Y-68602165D01*
X126648629Y-68580554D01*
X126633083Y-68561612D01*
X126603952Y-68532481D01*
X126538287Y-68434207D01*
X126493057Y-68325012D01*
X126470000Y-68209096D01*
X126470000Y-68090904D01*
X126493057Y-67974988D01*
X126538287Y-67865793D01*
X126603952Y-67767519D01*
X126633083Y-67738388D01*
X126648629Y-67719446D01*
X126660180Y-67697835D01*
X126667293Y-67674386D01*
X126669695Y-67650000D01*
X126667293Y-67625614D01*
X126660180Y-67602165D01*
X126648629Y-67580554D01*
X126633083Y-67561612D01*
X126603952Y-67532481D01*
X126538287Y-67434207D01*
X126493057Y-67325012D01*
X126470000Y-67209096D01*
X126470000Y-67090904D01*
X126493057Y-66974988D01*
X126538287Y-66865793D01*
X126603952Y-66767519D01*
X126633083Y-66738388D01*
X126648629Y-66719446D01*
X126660180Y-66697835D01*
X126667293Y-66674386D01*
X126669695Y-66650000D01*
X126667293Y-66625614D01*
X126660180Y-66602165D01*
X126648629Y-66580554D01*
X126633083Y-66561612D01*
X126603952Y-66532481D01*
X126538287Y-66434207D01*
X126493057Y-66325012D01*
X126470000Y-66209096D01*
X126470000Y-66090904D01*
X126493057Y-65974988D01*
X126538287Y-65865793D01*
X126603952Y-65767519D01*
X126633083Y-65738388D01*
X126648629Y-65719446D01*
X126660180Y-65697835D01*
X126667293Y-65674386D01*
X126669695Y-65650000D01*
X126667293Y-65625614D01*
X126660180Y-65602165D01*
X126648629Y-65580554D01*
X126633083Y-65561612D01*
X126603952Y-65532481D01*
X126538287Y-65434207D01*
X126493057Y-65325012D01*
X126470000Y-65209096D01*
X126470000Y-65090904D01*
X126493057Y-64974988D01*
X126538287Y-64865793D01*
X126603952Y-64767519D01*
X126687519Y-64683952D01*
X126785793Y-64618287D01*
X126894988Y-64573057D01*
X127010904Y-64550000D01*
X127129096Y-64550000D01*
X127245012Y-64573057D01*
X127245012Y-64573057D01*
G37*
G36*
X187922947Y-62355722D02*
X188186833Y-62465027D01*
X188424324Y-62623713D01*
X188626287Y-62825676D01*
X188784973Y-63063167D01*
X188894278Y-63327053D01*
X188950000Y-63607186D01*
X188950000Y-63892814D01*
X188894278Y-64172947D01*
X188784973Y-64436833D01*
X188626287Y-64674324D01*
X188424324Y-64876287D01*
X188186833Y-65034973D01*
X187922947Y-65144278D01*
X187642814Y-65200000D01*
X187357186Y-65200000D01*
X187077053Y-65144278D01*
X186813167Y-65034973D01*
X186575676Y-64876287D01*
X186373713Y-64674324D01*
X186215027Y-64436833D01*
X186105722Y-64172947D01*
X186050000Y-63892814D01*
X186050000Y-63607186D01*
X186105722Y-63327053D01*
X186215027Y-63063167D01*
X186373713Y-62825676D01*
X186575676Y-62623713D01*
X186813167Y-62465027D01*
X187077053Y-62355722D01*
X187357186Y-62300000D01*
X187642814Y-62300000D01*
X187922947Y-62355722D01*
X187922947Y-62355722D01*
G37*
G36*
X196659141Y-55924297D02*
X196845899Y-55961445D01*
X197064506Y-56051995D01*
X197373664Y-56180052D01*
X197848645Y-56497425D01*
X198252575Y-56901355D01*
X198569948Y-57376336D01*
X198664313Y-57604155D01*
X198788555Y-57904101D01*
X198810248Y-58013161D01*
X198900000Y-58464373D01*
X198900000Y-59035627D01*
X198788555Y-59595898D01*
X198569948Y-60123664D01*
X198252575Y-60598645D01*
X197848645Y-61002575D01*
X197373664Y-61319948D01*
X197064506Y-61448005D01*
X196845899Y-61538555D01*
X196659141Y-61575703D01*
X196285627Y-61650000D01*
X195714373Y-61650000D01*
X195340859Y-61575703D01*
X195154101Y-61538555D01*
X194935494Y-61448005D01*
X194626336Y-61319948D01*
X194151355Y-61002575D01*
X193747425Y-60598645D01*
X193430052Y-60123664D01*
X193211445Y-59595898D01*
X193100000Y-59035627D01*
X193100000Y-58464373D01*
X193189752Y-58013161D01*
X193211445Y-57904101D01*
X193335687Y-57604155D01*
X193430052Y-57376336D01*
X193747425Y-56901355D01*
X194151355Y-56497425D01*
X194626336Y-56180052D01*
X194935494Y-56051995D01*
X195154101Y-55961445D01*
X195340859Y-55924297D01*
X195714373Y-55850000D01*
X196285627Y-55850000D01*
X196659141Y-55924297D01*
X196659141Y-55924297D01*
G37*
G36*
X164895845Y-56769215D02*
X164931769Y-56784095D01*
X164986839Y-56806906D01*
X165054415Y-56852059D01*
X165068734Y-56861627D01*
X165138373Y-56931266D01*
X165193095Y-57013163D01*
X165230785Y-57104155D01*
X165242677Y-57163941D01*
X165249790Y-57187390D01*
X165261341Y-57209000D01*
X165276887Y-57227943D01*
X165295829Y-57243488D01*
X165317440Y-57255039D01*
X165340889Y-57262152D01*
X165365275Y-57264554D01*
X165389661Y-57262152D01*
X165450753Y-57250000D01*
X165549247Y-57250000D01*
X165610339Y-57262152D01*
X165634725Y-57264554D01*
X165659111Y-57262152D01*
X165682560Y-57255039D01*
X165704171Y-57243488D01*
X165723113Y-57227942D01*
X165738659Y-57209000D01*
X165750210Y-57187389D01*
X165757323Y-57163941D01*
X165769215Y-57104155D01*
X165806905Y-57013163D01*
X165861627Y-56931266D01*
X165931266Y-56861627D01*
X165945585Y-56852059D01*
X166013161Y-56806906D01*
X166068232Y-56784095D01*
X166104155Y-56769215D01*
X166200754Y-56750000D01*
X166299246Y-56750000D01*
X166395845Y-56769215D01*
X166431769Y-56784095D01*
X166486839Y-56806906D01*
X166554415Y-56852059D01*
X166568734Y-56861627D01*
X166638373Y-56931266D01*
X166693095Y-57013163D01*
X166730785Y-57104155D01*
X166750000Y-57200755D01*
X166750000Y-57299245D01*
X166730785Y-57395845D01*
X166693095Y-57486837D01*
X166638373Y-57568734D01*
X166568732Y-57638375D01*
X166557220Y-57646067D01*
X166538278Y-57661612D01*
X166522733Y-57680554D01*
X166511182Y-57702165D01*
X166504069Y-57725614D01*
X166501667Y-57750000D01*
X166504069Y-57774387D01*
X166511182Y-57797836D01*
X166522734Y-57819447D01*
X166538279Y-57838389D01*
X166557220Y-57853933D01*
X166568732Y-57861625D01*
X166638373Y-57931266D01*
X166693095Y-58013163D01*
X166730785Y-58104155D01*
X166750000Y-58200755D01*
X166750000Y-58299245D01*
X166730785Y-58395845D01*
X166693095Y-58486837D01*
X166638373Y-58568734D01*
X166568734Y-58638373D01*
X166568731Y-58638375D01*
X166486839Y-58693094D01*
X166395845Y-58730785D01*
X166299246Y-58750000D01*
X166200754Y-58750000D01*
X166104155Y-58730785D01*
X166013161Y-58693094D01*
X165931269Y-58638375D01*
X165931266Y-58638373D01*
X165861627Y-58568734D01*
X165806905Y-58486837D01*
X165769215Y-58395845D01*
X165757323Y-58336059D01*
X165750210Y-58312610D01*
X165738659Y-58291000D01*
X165723113Y-58272057D01*
X165704171Y-58256512D01*
X165682560Y-58244961D01*
X165659111Y-58237848D01*
X165634725Y-58235446D01*
X165610339Y-58237848D01*
X165549247Y-58250000D01*
X165450753Y-58250000D01*
X165389661Y-58237848D01*
X165365275Y-58235446D01*
X165340889Y-58237848D01*
X165317440Y-58244961D01*
X165295829Y-58256512D01*
X165276887Y-58272058D01*
X165261341Y-58291000D01*
X165249790Y-58312611D01*
X165242677Y-58336059D01*
X165230785Y-58395845D01*
X165193095Y-58486837D01*
X165138373Y-58568734D01*
X165068734Y-58638373D01*
X165068731Y-58638375D01*
X164986839Y-58693094D01*
X164895845Y-58730785D01*
X164799246Y-58750000D01*
X164700754Y-58750000D01*
X164604155Y-58730785D01*
X164513161Y-58693094D01*
X164431269Y-58638375D01*
X164431266Y-58638373D01*
X164361627Y-58568734D01*
X164306905Y-58486837D01*
X164269215Y-58395845D01*
X164250000Y-58299245D01*
X164250000Y-58200755D01*
X164269215Y-58104155D01*
X164306905Y-58013163D01*
X164361627Y-57931266D01*
X164431268Y-57861625D01*
X164442780Y-57853933D01*
X164461722Y-57838388D01*
X164477267Y-57819446D01*
X164488818Y-57797835D01*
X164495931Y-57774386D01*
X164498333Y-57750000D01*
X164495931Y-57725613D01*
X164488818Y-57702164D01*
X164477266Y-57680553D01*
X164461721Y-57661611D01*
X164442780Y-57646067D01*
X164431268Y-57638375D01*
X164361627Y-57568734D01*
X164306905Y-57486837D01*
X164269215Y-57395845D01*
X164250000Y-57299245D01*
X164250000Y-57200755D01*
X164269215Y-57104155D01*
X164306905Y-57013163D01*
X164361627Y-56931266D01*
X164431266Y-56861627D01*
X164445585Y-56852059D01*
X164513161Y-56806906D01*
X164568232Y-56784095D01*
X164604155Y-56769215D01*
X164700754Y-56750000D01*
X164799246Y-56750000D01*
X164895845Y-56769215D01*
X164895845Y-56769215D01*
G37*
G36*
X188950000Y-55200000D02*
X186050000Y-55200000D01*
X186050000Y-52300000D01*
X188950000Y-52300000D01*
X188950000Y-55200000D01*
X188950000Y-55200000D01*
G37*
G36*
X139550000Y-53550000D02*
X137450000Y-53550000D01*
X137450000Y-51450000D01*
X139550000Y-51450000D01*
X139550000Y-53550000D01*
X139550000Y-53550000D01*
G37*
G36*
X136088707Y-51457597D02*
X136165836Y-51465193D01*
X136297787Y-51505220D01*
X136363763Y-51525233D01*
X136546172Y-51622733D01*
X136706054Y-51753946D01*
X136837267Y-51913828D01*
X136934767Y-52096237D01*
X136934767Y-52096238D01*
X136994807Y-52294164D01*
X137015080Y-52500000D01*
X136994807Y-52705836D01*
X136954780Y-52837787D01*
X136934767Y-52903763D01*
X136837267Y-53086172D01*
X136706054Y-53246054D01*
X136546172Y-53377267D01*
X136363763Y-53474767D01*
X136297787Y-53494780D01*
X136165836Y-53534807D01*
X136088707Y-53542403D01*
X136011580Y-53550000D01*
X135908420Y-53550000D01*
X135831293Y-53542403D01*
X135754164Y-53534807D01*
X135622213Y-53494780D01*
X135556237Y-53474767D01*
X135373828Y-53377267D01*
X135213946Y-53246054D01*
X135082733Y-53086172D01*
X134985233Y-52903763D01*
X134965220Y-52837787D01*
X134925193Y-52705836D01*
X134904920Y-52500000D01*
X134925193Y-52294164D01*
X134985233Y-52096238D01*
X134985233Y-52096237D01*
X135082733Y-51913828D01*
X135213946Y-51753946D01*
X135373828Y-51622733D01*
X135556237Y-51525233D01*
X135622213Y-51505220D01*
X135754164Y-51465193D01*
X135831293Y-51457597D01*
X135908420Y-51450000D01*
X136011580Y-51450000D01*
X136088707Y-51457597D01*
X136088707Y-51457597D01*
G37*
G36*
X133548707Y-51457597D02*
X133625836Y-51465193D01*
X133757787Y-51505220D01*
X133823763Y-51525233D01*
X134006172Y-51622733D01*
X134166054Y-51753946D01*
X134297267Y-51913828D01*
X134394767Y-52096237D01*
X134394767Y-52096238D01*
X134454807Y-52294164D01*
X134475080Y-52500000D01*
X134454807Y-52705836D01*
X134414780Y-52837787D01*
X134394767Y-52903763D01*
X134297267Y-53086172D01*
X134166054Y-53246054D01*
X134006172Y-53377267D01*
X133823763Y-53474767D01*
X133757787Y-53494780D01*
X133625836Y-53534807D01*
X133548707Y-53542403D01*
X133471580Y-53550000D01*
X133368420Y-53550000D01*
X133291293Y-53542403D01*
X133214164Y-53534807D01*
X133082213Y-53494780D01*
X133016237Y-53474767D01*
X132833828Y-53377267D01*
X132673946Y-53246054D01*
X132542733Y-53086172D01*
X132445233Y-52903763D01*
X132425220Y-52837787D01*
X132385193Y-52705836D01*
X132364920Y-52500000D01*
X132385193Y-52294164D01*
X132445233Y-52096238D01*
X132445233Y-52096237D01*
X132542733Y-51913828D01*
X132673946Y-51753946D01*
X132833828Y-51622733D01*
X133016237Y-51525233D01*
X133082213Y-51505220D01*
X133214164Y-51465193D01*
X133291293Y-51457597D01*
X133368420Y-51450000D01*
X133471580Y-51450000D01*
X133548707Y-51457597D01*
X133548707Y-51457597D01*
G37*
G36*
X131008707Y-51457597D02*
X131085836Y-51465193D01*
X131217787Y-51505220D01*
X131283763Y-51525233D01*
X131466172Y-51622733D01*
X131626054Y-51753946D01*
X131757267Y-51913828D01*
X131854767Y-52096237D01*
X131854767Y-52096238D01*
X131914807Y-52294164D01*
X131935080Y-52500000D01*
X131914807Y-52705836D01*
X131874780Y-52837787D01*
X131854767Y-52903763D01*
X131757267Y-53086172D01*
X131626054Y-53246054D01*
X131466172Y-53377267D01*
X131283763Y-53474767D01*
X131217787Y-53494780D01*
X131085836Y-53534807D01*
X131008707Y-53542403D01*
X130931580Y-53550000D01*
X130828420Y-53550000D01*
X130751293Y-53542403D01*
X130674164Y-53534807D01*
X130542213Y-53494780D01*
X130476237Y-53474767D01*
X130293828Y-53377267D01*
X130133946Y-53246054D01*
X130002733Y-53086172D01*
X129905233Y-52903763D01*
X129885220Y-52837787D01*
X129845193Y-52705836D01*
X129824920Y-52500000D01*
X129845193Y-52294164D01*
X129905233Y-52096238D01*
X129905233Y-52096237D01*
X130002733Y-51913828D01*
X130133946Y-51753946D01*
X130293828Y-51622733D01*
X130476237Y-51525233D01*
X130542213Y-51505220D01*
X130674164Y-51465193D01*
X130751293Y-51457597D01*
X130828420Y-51450000D01*
X130931580Y-51450000D01*
X131008707Y-51457597D01*
X131008707Y-51457597D01*
G37*
G36*
X128468707Y-51457597D02*
X128545836Y-51465193D01*
X128677787Y-51505220D01*
X128743763Y-51525233D01*
X128926172Y-51622733D01*
X129086054Y-51753946D01*
X129217267Y-51913828D01*
X129314767Y-52096237D01*
X129314767Y-52096238D01*
X129374807Y-52294164D01*
X129395080Y-52500000D01*
X129374807Y-52705836D01*
X129334780Y-52837787D01*
X129314767Y-52903763D01*
X129217267Y-53086172D01*
X129086054Y-53246054D01*
X128926172Y-53377267D01*
X128743763Y-53474767D01*
X128677787Y-53494780D01*
X128545836Y-53534807D01*
X128468707Y-53542403D01*
X128391580Y-53550000D01*
X128288420Y-53550000D01*
X128211293Y-53542403D01*
X128134164Y-53534807D01*
X128002213Y-53494780D01*
X127936237Y-53474767D01*
X127753828Y-53377267D01*
X127593946Y-53246054D01*
X127462733Y-53086172D01*
X127365233Y-52903763D01*
X127345220Y-52837787D01*
X127305193Y-52705836D01*
X127284920Y-52500000D01*
X127305193Y-52294164D01*
X127365233Y-52096238D01*
X127365233Y-52096237D01*
X127462733Y-51913828D01*
X127593946Y-51753946D01*
X127753828Y-51622733D01*
X127936237Y-51525233D01*
X128002213Y-51505220D01*
X128134164Y-51465193D01*
X128211293Y-51457597D01*
X128288420Y-51450000D01*
X128391580Y-51450000D01*
X128468707Y-51457597D01*
X128468707Y-51457597D01*
G37*
G36*
X125928707Y-51457597D02*
X126005836Y-51465193D01*
X126137787Y-51505220D01*
X126203763Y-51525233D01*
X126386172Y-51622733D01*
X126546054Y-51753946D01*
X126677267Y-51913828D01*
X126774767Y-52096237D01*
X126774767Y-52096238D01*
X126834807Y-52294164D01*
X126855080Y-52500000D01*
X126834807Y-52705836D01*
X126794780Y-52837787D01*
X126774767Y-52903763D01*
X126677267Y-53086172D01*
X126546054Y-53246054D01*
X126386172Y-53377267D01*
X126203763Y-53474767D01*
X126137787Y-53494780D01*
X126005836Y-53534807D01*
X125928707Y-53542403D01*
X125851580Y-53550000D01*
X125748420Y-53550000D01*
X125671293Y-53542403D01*
X125594164Y-53534807D01*
X125462213Y-53494780D01*
X125396237Y-53474767D01*
X125213828Y-53377267D01*
X125053946Y-53246054D01*
X124922733Y-53086172D01*
X124825233Y-52903763D01*
X124805220Y-52837787D01*
X124765193Y-52705836D01*
X124744920Y-52500000D01*
X124765193Y-52294164D01*
X124825233Y-52096238D01*
X124825233Y-52096237D01*
X124922733Y-51913828D01*
X125053946Y-51753946D01*
X125213828Y-51622733D01*
X125396237Y-51525233D01*
X125462213Y-51505220D01*
X125594164Y-51465193D01*
X125671293Y-51457597D01*
X125748420Y-51450000D01*
X125851580Y-51450000D01*
X125928707Y-51457597D01*
X125928707Y-51457597D01*
G37*
M02*
