G04 #@! TF.GenerationSoftware,KiCad,Pcbnew,(5.0.1)-3*
G04 #@! TF.CreationDate,2018-11-25T21:54:18-05:00*
G04 #@! TF.ProjectId,ESP32 Windlass,45535033322057696E646C6173732E6B,rev?*
G04 #@! TF.SameCoordinates,Original*
G04 #@! TF.FileFunction,Legend,Top*
G04 #@! TF.FilePolarity,Positive*
%FSLAX46Y46*%
G04 Gerber Fmt 4.6, Leading zero omitted, Abs format (unit mm)*
G04 Created by KiCad (PCBNEW (5.0.1)-3) date 11/25/2018 9:54:18 PM*
%MOMM*%
%LPD*%
G01*
G04 APERTURE LIST*
%ADD10C,0.300000*%
%ADD11C,0.200000*%
%ADD12C,0.120000*%
%ADD13C,0.150000*%
%ADD14C,0.050000*%
G04 APERTURE END LIST*
D10*
X139535714Y-91260714D02*
X139464285Y-91332142D01*
X139250000Y-91403571D01*
X139107142Y-91403571D01*
X138892857Y-91332142D01*
X138750000Y-91189285D01*
X138678571Y-91046428D01*
X138607142Y-90760714D01*
X138607142Y-90546428D01*
X138678571Y-90260714D01*
X138750000Y-90117857D01*
X138892857Y-89975000D01*
X139107142Y-89903571D01*
X139250000Y-89903571D01*
X139464285Y-89975000D01*
X139535714Y-90046428D01*
X140392857Y-91403571D02*
X140250000Y-91332142D01*
X140178571Y-91189285D01*
X140178571Y-89903571D01*
X141535714Y-91332142D02*
X141392857Y-91403571D01*
X141107142Y-91403571D01*
X140964285Y-91332142D01*
X140892857Y-91189285D01*
X140892857Y-90617857D01*
X140964285Y-90475000D01*
X141107142Y-90403571D01*
X141392857Y-90403571D01*
X141535714Y-90475000D01*
X141607142Y-90617857D01*
X141607142Y-90760714D01*
X140892857Y-90903571D01*
X142892857Y-91403571D02*
X142892857Y-90617857D01*
X142821428Y-90475000D01*
X142678571Y-90403571D01*
X142392857Y-90403571D01*
X142250000Y-90475000D01*
X142892857Y-91332142D02*
X142750000Y-91403571D01*
X142392857Y-91403571D01*
X142250000Y-91332142D01*
X142178571Y-91189285D01*
X142178571Y-91046428D01*
X142250000Y-90903571D01*
X142392857Y-90832142D01*
X142750000Y-90832142D01*
X142892857Y-90760714D01*
X143607142Y-91403571D02*
X143607142Y-90403571D01*
X143607142Y-90689285D02*
X143678571Y-90546428D01*
X143750000Y-90475000D01*
X143892857Y-90403571D01*
X144035714Y-90403571D01*
X138892857Y-93810714D02*
X138821428Y-93882142D01*
X138607142Y-93953571D01*
X138464285Y-93953571D01*
X138250000Y-93882142D01*
X138107142Y-93739285D01*
X138035714Y-93596428D01*
X137964285Y-93310714D01*
X137964285Y-93096428D01*
X138035714Y-92810714D01*
X138107142Y-92667857D01*
X138250000Y-92525000D01*
X138464285Y-92453571D01*
X138607142Y-92453571D01*
X138821428Y-92525000D01*
X138892857Y-92596428D01*
X139750000Y-93953571D02*
X139607142Y-93882142D01*
X139535714Y-93810714D01*
X139464285Y-93667857D01*
X139464285Y-93239285D01*
X139535714Y-93096428D01*
X139607142Y-93025000D01*
X139750000Y-92953571D01*
X139964285Y-92953571D01*
X140107142Y-93025000D01*
X140178571Y-93096428D01*
X140250000Y-93239285D01*
X140250000Y-93667857D01*
X140178571Y-93810714D01*
X140107142Y-93882142D01*
X139964285Y-93953571D01*
X139750000Y-93953571D01*
X140892857Y-92953571D02*
X140892857Y-93953571D01*
X140892857Y-93096428D02*
X140964285Y-93025000D01*
X141107142Y-92953571D01*
X141321428Y-92953571D01*
X141464285Y-93025000D01*
X141535714Y-93167857D01*
X141535714Y-93953571D01*
X142035714Y-92953571D02*
X142607142Y-92953571D01*
X142250000Y-93953571D02*
X142250000Y-92667857D01*
X142321428Y-92525000D01*
X142464285Y-92453571D01*
X142607142Y-92453571D01*
X143107142Y-93953571D02*
X143107142Y-92953571D01*
X143107142Y-92453571D02*
X143035714Y-92525000D01*
X143107142Y-92596428D01*
X143178571Y-92525000D01*
X143107142Y-92453571D01*
X143107142Y-92596428D01*
X144464285Y-92953571D02*
X144464285Y-94167857D01*
X144392857Y-94310714D01*
X144321428Y-94382142D01*
X144178571Y-94453571D01*
X143964285Y-94453571D01*
X143821428Y-94382142D01*
X144464285Y-93882142D02*
X144321428Y-93953571D01*
X144035714Y-93953571D01*
X143892857Y-93882142D01*
X143821428Y-93810714D01*
X143750000Y-93667857D01*
X143750000Y-93239285D01*
X143821428Y-93096428D01*
X143892857Y-93025000D01*
X144035714Y-92953571D01*
X144321428Y-92953571D01*
X144464285Y-93025000D01*
X124857142Y-100428571D02*
X124357142Y-99714285D01*
X124000000Y-100428571D02*
X124000000Y-98928571D01*
X124571428Y-98928571D01*
X124714285Y-99000000D01*
X124785714Y-99071428D01*
X124857142Y-99214285D01*
X124857142Y-99428571D01*
X124785714Y-99571428D01*
X124714285Y-99642857D01*
X124571428Y-99714285D01*
X124000000Y-99714285D01*
X126071428Y-100357142D02*
X125928571Y-100428571D01*
X125642857Y-100428571D01*
X125500000Y-100357142D01*
X125428571Y-100214285D01*
X125428571Y-99642857D01*
X125500000Y-99500000D01*
X125642857Y-99428571D01*
X125928571Y-99428571D01*
X126071428Y-99500000D01*
X126142857Y-99642857D01*
X126142857Y-99785714D01*
X125428571Y-99928571D01*
X126785714Y-100428571D02*
X126785714Y-98928571D01*
X126785714Y-99500000D02*
X126928571Y-99428571D01*
X127214285Y-99428571D01*
X127357142Y-99500000D01*
X127428571Y-99571428D01*
X127500000Y-99714285D01*
X127500000Y-100142857D01*
X127428571Y-100285714D01*
X127357142Y-100357142D01*
X127214285Y-100428571D01*
X126928571Y-100428571D01*
X126785714Y-100357142D01*
X128357142Y-100428571D02*
X128214285Y-100357142D01*
X128142857Y-100285714D01*
X128071428Y-100142857D01*
X128071428Y-99714285D01*
X128142857Y-99571428D01*
X128214285Y-99500000D01*
X128357142Y-99428571D01*
X128571428Y-99428571D01*
X128714285Y-99500000D01*
X128785714Y-99571428D01*
X128857142Y-99714285D01*
X128857142Y-100142857D01*
X128785714Y-100285714D01*
X128714285Y-100357142D01*
X128571428Y-100428571D01*
X128357142Y-100428571D01*
X129714285Y-100428571D02*
X129571428Y-100357142D01*
X129500000Y-100285714D01*
X129428571Y-100142857D01*
X129428571Y-99714285D01*
X129500000Y-99571428D01*
X129571428Y-99500000D01*
X129714285Y-99428571D01*
X129928571Y-99428571D01*
X130071428Y-99500000D01*
X130142857Y-99571428D01*
X130214285Y-99714285D01*
X130214285Y-100142857D01*
X130142857Y-100285714D01*
X130071428Y-100357142D01*
X129928571Y-100428571D01*
X129714285Y-100428571D01*
X130642857Y-99428571D02*
X131214285Y-99428571D01*
X130857142Y-98928571D02*
X130857142Y-100214285D01*
X130928571Y-100357142D01*
X131071428Y-100428571D01*
X131214285Y-100428571D01*
X139714285Y-103582142D02*
X139928571Y-103653571D01*
X140285714Y-103653571D01*
X140428571Y-103582142D01*
X140500000Y-103510714D01*
X140571428Y-103367857D01*
X140571428Y-103225000D01*
X140500000Y-103082142D01*
X140428571Y-103010714D01*
X140285714Y-102939285D01*
X140000000Y-102867857D01*
X139857142Y-102796428D01*
X139785714Y-102725000D01*
X139714285Y-102582142D01*
X139714285Y-102439285D01*
X139785714Y-102296428D01*
X139857142Y-102225000D01*
X140000000Y-102153571D01*
X140357142Y-102153571D01*
X140571428Y-102225000D01*
X141214285Y-103653571D02*
X141214285Y-102653571D01*
X141214285Y-102153571D02*
X141142857Y-102225000D01*
X141214285Y-102296428D01*
X141285714Y-102225000D01*
X141214285Y-102153571D01*
X141214285Y-102296428D01*
X142571428Y-102653571D02*
X142571428Y-103867857D01*
X142500000Y-104010714D01*
X142428571Y-104082142D01*
X142285714Y-104153571D01*
X142071428Y-104153571D01*
X141928571Y-104082142D01*
X142571428Y-103582142D02*
X142428571Y-103653571D01*
X142142857Y-103653571D01*
X142000000Y-103582142D01*
X141928571Y-103510714D01*
X141857142Y-103367857D01*
X141857142Y-102939285D01*
X141928571Y-102796428D01*
X142000000Y-102725000D01*
X142142857Y-102653571D01*
X142428571Y-102653571D01*
X142571428Y-102725000D01*
X143285714Y-103653571D02*
X143285714Y-102153571D01*
X144142857Y-103653571D02*
X143500000Y-102796428D01*
X144142857Y-102153571D02*
X143285714Y-103010714D01*
X144714285Y-103582142D02*
X144928571Y-103653571D01*
X145285714Y-103653571D01*
X145428571Y-103582142D01*
X145500000Y-103510714D01*
X145571428Y-103367857D01*
X145571428Y-103225000D01*
X145500000Y-103082142D01*
X145428571Y-103010714D01*
X145285714Y-102939285D01*
X145000000Y-102867857D01*
X144857142Y-102796428D01*
X144785714Y-102725000D01*
X144714285Y-102582142D01*
X144714285Y-102439285D01*
X144785714Y-102296428D01*
X144857142Y-102225000D01*
X145000000Y-102153571D01*
X145357142Y-102153571D01*
X145571428Y-102225000D01*
X146785714Y-103582142D02*
X146642857Y-103653571D01*
X146357142Y-103653571D01*
X146214285Y-103582142D01*
X146142857Y-103439285D01*
X146142857Y-102867857D01*
X146214285Y-102725000D01*
X146357142Y-102653571D01*
X146642857Y-102653571D01*
X146785714Y-102725000D01*
X146857142Y-102867857D01*
X146857142Y-103010714D01*
X146142857Y-103153571D01*
X147500000Y-102653571D02*
X147500000Y-103653571D01*
X147500000Y-102796428D02*
X147571428Y-102725000D01*
X147714285Y-102653571D01*
X147928571Y-102653571D01*
X148071428Y-102725000D01*
X148142857Y-102867857D01*
X148142857Y-103653571D01*
X148785714Y-103582142D02*
X148928571Y-103653571D01*
X149214285Y-103653571D01*
X149357142Y-103582142D01*
X149428571Y-103439285D01*
X149428571Y-103367857D01*
X149357142Y-103225000D01*
X149214285Y-103153571D01*
X149000000Y-103153571D01*
X148857142Y-103082142D01*
X148785714Y-102939285D01*
X148785714Y-102867857D01*
X148857142Y-102725000D01*
X149000000Y-102653571D01*
X149214285Y-102653571D01*
X149357142Y-102725000D01*
X151071428Y-102153571D02*
X151428571Y-103653571D01*
X151714285Y-102582142D01*
X152000000Y-103653571D01*
X152357142Y-102153571D01*
X152928571Y-103653571D02*
X152928571Y-102653571D01*
X152928571Y-102153571D02*
X152857142Y-102225000D01*
X152928571Y-102296428D01*
X153000000Y-102225000D01*
X152928571Y-102153571D01*
X152928571Y-102296428D01*
X153642857Y-102653571D02*
X153642857Y-103653571D01*
X153642857Y-102796428D02*
X153714285Y-102725000D01*
X153857142Y-102653571D01*
X154071428Y-102653571D01*
X154214285Y-102725000D01*
X154285714Y-102867857D01*
X154285714Y-103653571D01*
X155642857Y-103653571D02*
X155642857Y-102153571D01*
X155642857Y-103582142D02*
X155500000Y-103653571D01*
X155214285Y-103653571D01*
X155071428Y-103582142D01*
X155000000Y-103510714D01*
X154928571Y-103367857D01*
X154928571Y-102939285D01*
X155000000Y-102796428D01*
X155071428Y-102725000D01*
X155214285Y-102653571D01*
X155500000Y-102653571D01*
X155642857Y-102725000D01*
X156571428Y-103653571D02*
X156428571Y-103582142D01*
X156357142Y-103439285D01*
X156357142Y-102153571D01*
X157785714Y-103653571D02*
X157785714Y-102867857D01*
X157714285Y-102725000D01*
X157571428Y-102653571D01*
X157285714Y-102653571D01*
X157142857Y-102725000D01*
X157785714Y-103582142D02*
X157642857Y-103653571D01*
X157285714Y-103653571D01*
X157142857Y-103582142D01*
X157071428Y-103439285D01*
X157071428Y-103296428D01*
X157142857Y-103153571D01*
X157285714Y-103082142D01*
X157642857Y-103082142D01*
X157785714Y-103010714D01*
X158428571Y-103582142D02*
X158571428Y-103653571D01*
X158857142Y-103653571D01*
X159000000Y-103582142D01*
X159071428Y-103439285D01*
X159071428Y-103367857D01*
X159000000Y-103225000D01*
X158857142Y-103153571D01*
X158642857Y-103153571D01*
X158500000Y-103082142D01*
X158428571Y-102939285D01*
X158428571Y-102867857D01*
X158500000Y-102725000D01*
X158642857Y-102653571D01*
X158857142Y-102653571D01*
X159000000Y-102725000D01*
X159642857Y-103582142D02*
X159785714Y-103653571D01*
X160071428Y-103653571D01*
X160214285Y-103582142D01*
X160285714Y-103439285D01*
X160285714Y-103367857D01*
X160214285Y-103225000D01*
X160071428Y-103153571D01*
X159857142Y-103153571D01*
X159714285Y-103082142D01*
X159642857Y-102939285D01*
X159642857Y-102867857D01*
X159714285Y-102725000D01*
X159857142Y-102653571D01*
X160071428Y-102653571D01*
X160214285Y-102725000D01*
X147964285Y-106203571D02*
X147464285Y-105489285D01*
X147107142Y-106203571D02*
X147107142Y-104703571D01*
X147678571Y-104703571D01*
X147821428Y-104775000D01*
X147892857Y-104846428D01*
X147964285Y-104989285D01*
X147964285Y-105203571D01*
X147892857Y-105346428D01*
X147821428Y-105417857D01*
X147678571Y-105489285D01*
X147107142Y-105489285D01*
X149178571Y-106132142D02*
X149035714Y-106203571D01*
X148750000Y-106203571D01*
X148607142Y-106132142D01*
X148535714Y-105989285D01*
X148535714Y-105417857D01*
X148607142Y-105275000D01*
X148750000Y-105203571D01*
X149035714Y-105203571D01*
X149178571Y-105275000D01*
X149250000Y-105417857D01*
X149250000Y-105560714D01*
X148535714Y-105703571D01*
X149750000Y-105203571D02*
X150107142Y-106203571D01*
X150464285Y-105203571D01*
X152107142Y-104846428D02*
X152178571Y-104775000D01*
X152321428Y-104703571D01*
X152678571Y-104703571D01*
X152821428Y-104775000D01*
X152892857Y-104846428D01*
X152964285Y-104989285D01*
X152964285Y-105132142D01*
X152892857Y-105346428D01*
X152035714Y-106203571D01*
X152964285Y-106203571D01*
D11*
X193000000Y-58750000D02*
X199000000Y-58750000D01*
X193000000Y-68750000D02*
X199000000Y-68750000D01*
X193000000Y-78750000D02*
X199000000Y-78750000D01*
X193000000Y-88750000D02*
X199000000Y-88750000D01*
X198750000Y-98750000D02*
X199000000Y-98750000D01*
X193000000Y-98750000D02*
X198750000Y-98750000D01*
D10*
X194428571Y-104285714D02*
X194357142Y-104357142D01*
X194142857Y-104428571D01*
X194000000Y-104428571D01*
X193785714Y-104357142D01*
X193642857Y-104214285D01*
X193571428Y-104071428D01*
X193500000Y-103785714D01*
X193500000Y-103571428D01*
X193571428Y-103285714D01*
X193642857Y-103142857D01*
X193785714Y-103000000D01*
X194000000Y-102928571D01*
X194142857Y-102928571D01*
X194357142Y-103000000D01*
X194428571Y-103071428D01*
X195071428Y-104428571D02*
X195071428Y-102928571D01*
X195928571Y-104428571D01*
X195928571Y-102928571D01*
X196428571Y-102928571D02*
X197285714Y-102928571D01*
X196857142Y-104428571D02*
X196857142Y-102928571D01*
X197785714Y-103857142D02*
X198928571Y-103857142D01*
X194178571Y-94285714D02*
X194107142Y-94357142D01*
X193892857Y-94428571D01*
X193750000Y-94428571D01*
X193535714Y-94357142D01*
X193392857Y-94214285D01*
X193321428Y-94071428D01*
X193250000Y-93785714D01*
X193250000Y-93571428D01*
X193321428Y-93285714D01*
X193392857Y-93142857D01*
X193535714Y-93000000D01*
X193750000Y-92928571D01*
X193892857Y-92928571D01*
X194107142Y-93000000D01*
X194178571Y-93071428D01*
X194821428Y-94428571D02*
X194821428Y-92928571D01*
X195678571Y-94428571D01*
X195678571Y-92928571D01*
X196178571Y-92928571D02*
X197035714Y-92928571D01*
X196607142Y-94428571D02*
X196607142Y-92928571D01*
X197535714Y-93857142D02*
X198678571Y-93857142D01*
X198107142Y-94428571D02*
X198107142Y-93285714D01*
X194464285Y-84285714D02*
X194392857Y-84357142D01*
X194178571Y-84428571D01*
X194035714Y-84428571D01*
X193821428Y-84357142D01*
X193678571Y-84214285D01*
X193607142Y-84071428D01*
X193535714Y-83785714D01*
X193535714Y-83571428D01*
X193607142Y-83285714D01*
X193678571Y-83142857D01*
X193821428Y-83000000D01*
X194035714Y-82928571D01*
X194178571Y-82928571D01*
X194392857Y-83000000D01*
X194464285Y-83071428D01*
X195107142Y-84428571D02*
X195107142Y-82928571D01*
X195107142Y-83642857D02*
X195964285Y-83642857D01*
X195964285Y-84428571D02*
X195964285Y-82928571D01*
X196607142Y-83071428D02*
X196678571Y-83000000D01*
X196821428Y-82928571D01*
X197178571Y-82928571D01*
X197321428Y-83000000D01*
X197392857Y-83071428D01*
X197464285Y-83214285D01*
X197464285Y-83357142D01*
X197392857Y-83571428D01*
X196535714Y-84428571D01*
X197464285Y-84428571D01*
X194464285Y-74285714D02*
X194392857Y-74357142D01*
X194178571Y-74428571D01*
X194035714Y-74428571D01*
X193821428Y-74357142D01*
X193678571Y-74214285D01*
X193607142Y-74071428D01*
X193535714Y-73785714D01*
X193535714Y-73571428D01*
X193607142Y-73285714D01*
X193678571Y-73142857D01*
X193821428Y-73000000D01*
X194035714Y-72928571D01*
X194178571Y-72928571D01*
X194392857Y-73000000D01*
X194464285Y-73071428D01*
X195107142Y-74428571D02*
X195107142Y-72928571D01*
X195107142Y-73642857D02*
X195964285Y-73642857D01*
X195964285Y-74428571D02*
X195964285Y-72928571D01*
X197464285Y-74428571D02*
X196607142Y-74428571D01*
X197035714Y-74428571D02*
X197035714Y-72928571D01*
X196892857Y-73142857D01*
X196750000Y-73285714D01*
X196607142Y-73357142D01*
X194821428Y-64678571D02*
X193964285Y-64678571D01*
X194392857Y-64678571D02*
X194392857Y-63178571D01*
X194250000Y-63392857D01*
X194107142Y-63535714D01*
X193964285Y-63607142D01*
X195392857Y-63321428D02*
X195464285Y-63250000D01*
X195607142Y-63178571D01*
X195964285Y-63178571D01*
X196107142Y-63250000D01*
X196178571Y-63321428D01*
X196250000Y-63464285D01*
X196250000Y-63607142D01*
X196178571Y-63821428D01*
X195321428Y-64678571D01*
X196250000Y-64678571D01*
X196678571Y-63178571D02*
X197178571Y-64678571D01*
X197678571Y-63178571D01*
X194607142Y-53250000D02*
X194464285Y-53178571D01*
X194250000Y-53178571D01*
X194035714Y-53250000D01*
X193892857Y-53392857D01*
X193821428Y-53535714D01*
X193750000Y-53821428D01*
X193750000Y-54035714D01*
X193821428Y-54321428D01*
X193892857Y-54464285D01*
X194035714Y-54607142D01*
X194250000Y-54678571D01*
X194392857Y-54678571D01*
X194607142Y-54607142D01*
X194678571Y-54535714D01*
X194678571Y-54035714D01*
X194392857Y-54035714D01*
X195321428Y-54678571D02*
X195321428Y-53178571D01*
X196178571Y-54678571D01*
X196178571Y-53178571D01*
X196892857Y-54678571D02*
X196892857Y-53178571D01*
X197250000Y-53178571D01*
X197464285Y-53250000D01*
X197607142Y-53392857D01*
X197678571Y-53535714D01*
X197750000Y-53821428D01*
X197750000Y-54035714D01*
X197678571Y-54321428D01*
X197607142Y-54464285D01*
X197464285Y-54607142D01*
X197250000Y-54678571D01*
X196892857Y-54678571D01*
D12*
G04 #@! TO.C,K2*
X138880000Y-87220000D02*
X138880000Y-82480000D01*
X138880000Y-87220000D02*
X139280000Y-87220000D01*
X138880000Y-82480000D02*
X139280000Y-82480000D01*
X143620000Y-87220000D02*
X143220000Y-87220000D01*
X143620000Y-87220000D02*
X143620000Y-82480000D01*
X143620000Y-82480000D02*
X143220000Y-82480000D01*
X142280000Y-82480000D02*
X140220000Y-82480000D01*
X142280000Y-87220000D02*
X140220000Y-87220000D01*
G04 #@! TO.C,C15*
X156340000Y-75852064D02*
X156340000Y-74647936D01*
X158160000Y-75852064D02*
X158160000Y-74647936D01*
D13*
G04 #@! TO.C,U1*
X175175000Y-67475000D02*
X173775000Y-67475000D01*
X175175000Y-72575000D02*
X179325000Y-72575000D01*
X175175000Y-67425000D02*
X179325000Y-67425000D01*
X175175000Y-72575000D02*
X175175000Y-72430000D01*
X179325000Y-72575000D02*
X179325000Y-72430000D01*
X179325000Y-67425000D02*
X179325000Y-67570000D01*
X175175000Y-67425000D02*
X175175000Y-67475000D01*
G04 #@! TO.C,U2*
X175175000Y-84425000D02*
X175175000Y-84475000D01*
X179325000Y-84425000D02*
X179325000Y-84570000D01*
X179325000Y-89575000D02*
X179325000Y-89430000D01*
X175175000Y-89575000D02*
X175175000Y-89430000D01*
X175175000Y-84425000D02*
X179325000Y-84425000D01*
X175175000Y-89575000D02*
X179325000Y-89575000D01*
X175175000Y-84475000D02*
X173775000Y-84475000D01*
D12*
G04 #@! TO.C,J2*
X186016648Y-54538712D02*
G75*
G02X185820000Y-53750000I1483352J788712D01*
G01*
X188289088Y-55233953D02*
G75*
G02X186711000Y-55234000I-789088J1483953D01*
G01*
X188983953Y-52960912D02*
G75*
G02X188984000Y-54539000I-1483953J-789088D01*
G01*
X186710912Y-52266047D02*
G75*
G02X188289000Y-52266000I789088J-1483953D01*
G01*
X185819550Y-53779383D02*
G75*
G02X186016000Y-52961000I1680450J29383D01*
G01*
X189000000Y-58750000D02*
G75*
G03X189000000Y-58750000I-1500000J0D01*
G01*
X189180000Y-63750000D02*
G75*
G03X189180000Y-63750000I-1680000J0D01*
G01*
X189000000Y-68750000D02*
G75*
G03X189000000Y-68750000I-1500000J0D01*
G01*
X189180000Y-73750000D02*
G75*
G03X189180000Y-73750000I-1680000J0D01*
G01*
X189000000Y-78750000D02*
G75*
G03X189000000Y-78750000I-1500000J0D01*
G01*
X189180000Y-83750000D02*
G75*
G03X189180000Y-83750000I-1680000J0D01*
G01*
X189000000Y-88750000D02*
G75*
G03X189000000Y-88750000I-1500000J0D01*
G01*
X189180000Y-93750000D02*
G75*
G03X189180000Y-93750000I-1680000J0D01*
G01*
X189000000Y-98750000D02*
G75*
G03X189000000Y-98750000I-1500000J0D01*
G01*
X189180000Y-103750000D02*
G75*
G03X189180000Y-103750000I-1680000J0D01*
G01*
X184050000Y-51190000D02*
X184050000Y-106310000D01*
X184650000Y-51190000D02*
X184650000Y-106310000D01*
X189550000Y-51190000D02*
X189550000Y-106310000D01*
X191610000Y-51190000D02*
X191610000Y-106310000D01*
X183390000Y-51190000D02*
X183390000Y-106310000D01*
X191610000Y-51190000D02*
X183390000Y-51190000D01*
X191610000Y-106310000D02*
X183390000Y-106310000D01*
X191550000Y-52500000D02*
X191550000Y-55000000D01*
X190550000Y-52500000D02*
X190550000Y-55000000D01*
X191550000Y-52500000D02*
X190550000Y-52500000D01*
X191550000Y-55000000D02*
X190550000Y-55000000D01*
X191550000Y-57500000D02*
X191550000Y-60000000D01*
X190550000Y-57500000D02*
X190550000Y-60000000D01*
X191550000Y-57500000D02*
X190550000Y-57500000D01*
X191550000Y-60000000D02*
X190550000Y-60000000D01*
X188569000Y-65025000D02*
X188476000Y-64931000D01*
X186284000Y-62740000D02*
X186226000Y-62681000D01*
X188775000Y-64820000D02*
X188716000Y-64761000D01*
X186524000Y-62570000D02*
X186431000Y-62476000D01*
X191550000Y-62500000D02*
X191550000Y-65000000D01*
X190550000Y-62500000D02*
X190550000Y-65000000D01*
X191550000Y-62500000D02*
X190550000Y-62500000D01*
X191550000Y-65000000D02*
X190550000Y-65000000D01*
X191550000Y-67500000D02*
X191550000Y-70000000D01*
X190550000Y-67500000D02*
X190550000Y-70000000D01*
X191550000Y-67500000D02*
X190550000Y-67500000D01*
X191550000Y-70000000D02*
X190550000Y-70000000D01*
X188569000Y-75025000D02*
X188476000Y-74931000D01*
X186284000Y-72740000D02*
X186226000Y-72681000D01*
X188775000Y-74820000D02*
X188716000Y-74761000D01*
X186524000Y-72570000D02*
X186431000Y-72476000D01*
X191550000Y-72500000D02*
X191550000Y-75000000D01*
X190550000Y-72500000D02*
X190550000Y-75000000D01*
X191550000Y-72500000D02*
X190550000Y-72500000D01*
X191550000Y-75000000D02*
X190550000Y-75000000D01*
X191550000Y-77500000D02*
X191550000Y-80000000D01*
X190550000Y-77500000D02*
X190550000Y-80000000D01*
X191550000Y-77500000D02*
X190550000Y-77500000D01*
X191550000Y-80000000D02*
X190550000Y-80000000D01*
X188569000Y-85025000D02*
X188476000Y-84931000D01*
X186284000Y-82740000D02*
X186226000Y-82681000D01*
X188775000Y-84820000D02*
X188716000Y-84761000D01*
X186524000Y-82570000D02*
X186431000Y-82476000D01*
X191550000Y-82500000D02*
X191550000Y-85000000D01*
X190550000Y-82500000D02*
X190550000Y-85000000D01*
X191550000Y-82500000D02*
X190550000Y-82500000D01*
X191550000Y-85000000D02*
X190550000Y-85000000D01*
X191550000Y-87500000D02*
X191550000Y-90000000D01*
X190550000Y-87500000D02*
X190550000Y-90000000D01*
X191550000Y-87500000D02*
X190550000Y-87500000D01*
X191550000Y-90000000D02*
X190550000Y-90000000D01*
X188569000Y-95025000D02*
X188476000Y-94931000D01*
X186284000Y-92740000D02*
X186226000Y-92681000D01*
X188775000Y-94820000D02*
X188716000Y-94761000D01*
X186524000Y-92570000D02*
X186431000Y-92476000D01*
X191550000Y-92500000D02*
X191550000Y-95000000D01*
X190550000Y-92500000D02*
X190550000Y-95000000D01*
X191550000Y-92500000D02*
X190550000Y-92500000D01*
X191550000Y-95000000D02*
X190550000Y-95000000D01*
X191550000Y-97500000D02*
X191550000Y-100000000D01*
X190550000Y-97500000D02*
X190550000Y-100000000D01*
X191550000Y-97500000D02*
X190550000Y-97500000D01*
X191550000Y-100000000D02*
X190550000Y-100000000D01*
X188569000Y-105025000D02*
X188476000Y-104931000D01*
X186284000Y-102740000D02*
X186226000Y-102681000D01*
X188775000Y-104820000D02*
X188716000Y-104761000D01*
X186524000Y-102570000D02*
X186431000Y-102476000D01*
X191550000Y-102500000D02*
X191550000Y-105000000D01*
X190550000Y-102500000D02*
X190550000Y-105000000D01*
X191550000Y-102500000D02*
X190550000Y-102500000D01*
X191550000Y-105000000D02*
X190550000Y-105000000D01*
X183990000Y-50950000D02*
X183150000Y-50950000D01*
X183150000Y-50950000D02*
X183150000Y-51550000D01*
G04 #@! TO.C,C1*
X126410000Y-89147936D02*
X126410000Y-90352064D01*
X124590000Y-89147936D02*
X124590000Y-90352064D01*
G04 #@! TO.C,K1*
X125030000Y-93130000D02*
X129770000Y-93130000D01*
X125030000Y-93130000D02*
X125030000Y-93530000D01*
X129770000Y-93130000D02*
X129770000Y-93530000D01*
X125030000Y-97870000D02*
X125030000Y-97470000D01*
X125030000Y-97870000D02*
X129770000Y-97870000D01*
X129770000Y-97870000D02*
X129770000Y-97470000D01*
X129770000Y-96530000D02*
X129770000Y-94470000D01*
X125030000Y-96530000D02*
X125030000Y-94470000D01*
G04 #@! TO.C,C14*
X156410000Y-54160436D02*
X156410000Y-55364564D01*
X154590000Y-54160436D02*
X154590000Y-55364564D01*
G04 #@! TO.C,C12*
X174419131Y-56803440D02*
X174419131Y-55599312D01*
X172599131Y-56803440D02*
X172599131Y-55599312D01*
G04 #@! TO.C,C11*
X169599131Y-56803440D02*
X169599131Y-55599312D01*
X171419131Y-56803440D02*
X171419131Y-55599312D01*
G04 #@! TO.C,C10*
X167660436Y-79660000D02*
X168864564Y-79660000D01*
X167660436Y-77840000D02*
X168864564Y-77840000D01*
G04 #@! TO.C,C9*
X167647936Y-75340000D02*
X168852064Y-75340000D01*
X167647936Y-77160000D02*
X168852064Y-77160000D01*
G04 #@! TO.C,C8*
X181910000Y-82089564D02*
X181910000Y-80885436D01*
X180090000Y-82089564D02*
X180090000Y-80885436D01*
G04 #@! TO.C,C7*
X181910000Y-75160436D02*
X181910000Y-76364564D01*
X180090000Y-75160436D02*
X180090000Y-76364564D01*
G04 #@! TO.C,C2*
X133090000Y-94910436D02*
X133090000Y-96114564D01*
X134910000Y-94910436D02*
X134910000Y-96114564D01*
G04 #@! TO.C,C3*
X124827500Y-82602064D02*
X124827500Y-81397936D01*
X126647500Y-82602064D02*
X126647500Y-81397936D01*
G04 #@! TO.C,C4*
X124147500Y-82589564D02*
X124147500Y-81385436D01*
X122327500Y-82589564D02*
X122327500Y-81385436D01*
G04 #@! TO.C,C13*
X164840000Y-102852064D02*
X164840000Y-101647936D01*
X166660000Y-102852064D02*
X166660000Y-101647936D01*
G04 #@! TO.C,C5*
X154397936Y-99160000D02*
X155602064Y-99160000D01*
X154397936Y-97340000D02*
X155602064Y-97340000D01*
G04 #@! TO.C,C6*
X154397936Y-92840000D02*
X155602064Y-92840000D01*
X154397936Y-94660000D02*
X155602064Y-94660000D01*
G04 #@! TO.C,J1*
X124470000Y-51170000D02*
X124470000Y-53830000D01*
X137230000Y-51170000D02*
X124470000Y-51170000D01*
X137230000Y-53830000D02*
X124470000Y-53830000D01*
X137230000Y-51170000D02*
X137230000Y-53830000D01*
X138500000Y-51170000D02*
X139830000Y-51170000D01*
X139830000Y-51170000D02*
X139830000Y-52500000D01*
G04 #@! TO.C,D8*
X178600000Y-61150000D02*
X181900000Y-61150000D01*
X181900000Y-61150000D02*
X181900000Y-54250000D01*
X178600000Y-61150000D02*
X178600000Y-54250000D01*
G04 #@! TO.C,D9*
X172400000Y-104400000D02*
X174100000Y-104400000D01*
X174100000Y-104400000D02*
X174100000Y-101250000D01*
X172400000Y-104400000D02*
X172400000Y-101250000D01*
G04 #@! TO.C,F1*
X175590000Y-59839564D02*
X175590000Y-58635436D01*
X177410000Y-59839564D02*
X177410000Y-58635436D01*
G04 #@! TO.C,L1*
X158290000Y-56797369D02*
X158290000Y-55202631D01*
X162710000Y-56797369D02*
X162710000Y-55202631D01*
G04 #@! TO.C,D5*
X148900000Y-61635000D02*
X152960000Y-61635000D01*
X152960000Y-61635000D02*
X152960000Y-59365000D01*
X152960000Y-59365000D02*
X148900000Y-59365000D01*
G04 #@! TO.C,D6*
X148090945Y-65747183D02*
X152150945Y-65747183D01*
X148090945Y-63477183D02*
X148090945Y-65747183D01*
X152150945Y-63477183D02*
X148090945Y-63477183D01*
G04 #@! TO.C,D7*
X152138445Y-67477183D02*
X148078445Y-67477183D01*
X148078445Y-67477183D02*
X148078445Y-69747183D01*
X148078445Y-69747183D02*
X152138445Y-69747183D01*
D13*
G04 #@! TO.C,U4*
X163425000Y-79675000D02*
X163425000Y-79450000D01*
X160075000Y-79675000D02*
X160075000Y-79375000D01*
X160075000Y-76325000D02*
X160075000Y-76625000D01*
X163425000Y-76325000D02*
X163425000Y-76625000D01*
X163425000Y-79675000D02*
X160075000Y-79675000D01*
X163425000Y-76325000D02*
X160075000Y-76325000D01*
X163425000Y-79450000D02*
X164650000Y-79450000D01*
G04 #@! TO.C,U3*
X114646000Y-57733000D02*
X114646000Y-75767000D01*
X120615000Y-57733000D02*
X114646000Y-57733000D01*
X120615000Y-75767000D02*
X114646000Y-75767000D01*
D14*
X146200000Y-75750000D02*
X120670000Y-75750000D01*
X120670000Y-75750000D02*
X120670000Y-57750000D01*
X120670000Y-57750000D02*
X146200000Y-57750000D01*
X146200000Y-57750000D02*
X146200000Y-75750000D01*
D12*
G04 #@! TO.C,R24*
X168840000Y-101660436D02*
X168840000Y-102864564D01*
X170660000Y-101660436D02*
X170660000Y-102864564D01*
G04 #@! TO.C,R23*
X155436381Y-67702183D02*
X156640509Y-67702183D01*
X155436381Y-69522183D02*
X156640509Y-69522183D01*
G04 #@! TO.C,R22*
X155461381Y-65522183D02*
X156665509Y-65522183D01*
X155461381Y-63702183D02*
X156665509Y-63702183D01*
G04 #@! TO.C,R21*
X148090000Y-56864564D02*
X148090000Y-55660436D01*
X149910000Y-56864564D02*
X149910000Y-55660436D01*
G04 #@! TO.C,R20*
X171897936Y-94910000D02*
X173102064Y-94910000D01*
X171897936Y-93090000D02*
X173102064Y-93090000D01*
G04 #@! TO.C,R19*
X163352064Y-86910000D02*
X162147936Y-86910000D01*
X163352064Y-85090000D02*
X162147936Y-85090000D01*
G04 #@! TO.C,R18*
X171897936Y-98160000D02*
X173102064Y-98160000D01*
X171897936Y-96340000D02*
X173102064Y-96340000D01*
G04 #@! TO.C,R17*
X162467350Y-73079793D02*
X161263222Y-73079793D01*
X162467350Y-71259793D02*
X161263222Y-71259793D01*
G04 #@! TO.C,R16*
X166590000Y-86885436D02*
X166590000Y-88089564D01*
X168410000Y-86885436D02*
X168410000Y-88089564D01*
G04 #@! TO.C,R15*
X167910000Y-70147936D02*
X167910000Y-71352064D01*
X166090000Y-70147936D02*
X166090000Y-71352064D01*
G04 #@! TO.C,R14*
X171910000Y-88114564D02*
X171910000Y-86910436D01*
X170090000Y-88114564D02*
X170090000Y-86910436D01*
G04 #@! TO.C,R13*
X160147936Y-92840000D02*
X161352064Y-92840000D01*
X160147936Y-94660000D02*
X161352064Y-94660000D01*
G04 #@! TO.C,R12*
X171660000Y-71364564D02*
X171660000Y-70160436D01*
X169840000Y-71364564D02*
X169840000Y-70160436D01*
G04 #@! TO.C,R11*
X160147936Y-97340000D02*
X161352064Y-97340000D01*
X160147936Y-99160000D02*
X161352064Y-99160000D01*
G04 #@! TO.C,R10*
X171897936Y-83410000D02*
X173102064Y-83410000D01*
X171897936Y-81590000D02*
X173102064Y-81590000D01*
G04 #@! TO.C,R9*
X171897936Y-64840000D02*
X173102064Y-64840000D01*
X171897936Y-66660000D02*
X173102064Y-66660000D01*
G04 #@! TO.C,R8*
X165385436Y-83660000D02*
X166589564Y-83660000D01*
X165385436Y-81840000D02*
X166589564Y-81840000D01*
G04 #@! TO.C,R7*
X165910436Y-64840000D02*
X167114564Y-64840000D01*
X165910436Y-66660000D02*
X167114564Y-66660000D01*
G04 #@! TO.C,R5*
X128090000Y-90339564D02*
X128090000Y-89135436D01*
X129910000Y-90339564D02*
X129910000Y-89135436D01*
G04 #@! TO.C,R4*
X156090000Y-81135436D02*
X156090000Y-82339564D01*
X157910000Y-81135436D02*
X157910000Y-82339564D01*
G04 #@! TO.C,R3*
X129910000Y-80635436D02*
X129910000Y-81839564D01*
X128090000Y-80635436D02*
X128090000Y-81839564D01*
G04 #@! TO.C,R1*
X155410000Y-75852064D02*
X155410000Y-74647936D01*
X153590000Y-75852064D02*
X153590000Y-74647936D01*
G04 #@! TO.C,R25*
X176397936Y-102340000D02*
X177602064Y-102340000D01*
X176397936Y-104160000D02*
X177602064Y-104160000D01*
G04 #@! TO.C,D1*
X167150000Y-98650000D02*
X167150000Y-95500000D01*
X168850000Y-98650000D02*
X168850000Y-95500000D01*
X167150000Y-98650000D02*
X168850000Y-98650000D01*
G04 #@! TO.C,D2*
X163650000Y-70350000D02*
X163650000Y-68650000D01*
X163650000Y-68650000D02*
X160500000Y-68650000D01*
X163650000Y-70350000D02*
X160500000Y-70350000D01*
G04 #@! TO.C,D3*
X166600000Y-92850000D02*
X166600000Y-96000000D01*
X164900000Y-92850000D02*
X164900000Y-96000000D01*
X166600000Y-92850000D02*
X164900000Y-92850000D01*
G04 #@! TO.C,D4*
X164650000Y-89850000D02*
X164650000Y-88150000D01*
X164650000Y-88150000D02*
X161500000Y-88150000D01*
X164650000Y-89850000D02*
X161500000Y-89850000D01*
G04 #@! TO.C,U5*
X167125000Y-57100000D02*
X167125000Y-56125000D01*
X163875000Y-59375000D02*
X163875000Y-58400000D01*
X163875000Y-57100000D02*
X163875000Y-56125000D01*
X167125000Y-59375000D02*
X167125000Y-58400000D01*
X164100000Y-56125000D02*
X163875000Y-56125000D01*
X166900000Y-56125000D02*
X167125000Y-56125000D01*
X167125000Y-59375000D02*
X166900000Y-59375000D01*
G04 #@! TO.C,K2*
D13*
X138502380Y-85588095D02*
X137502380Y-85588095D01*
X138502380Y-85016666D02*
X137930952Y-85445238D01*
X137502380Y-85016666D02*
X138073809Y-85588095D01*
X137597619Y-84635714D02*
X137550000Y-84588095D01*
X137502380Y-84492857D01*
X137502380Y-84254761D01*
X137550000Y-84159523D01*
X137597619Y-84111904D01*
X137692857Y-84064285D01*
X137788095Y-84064285D01*
X137930952Y-84111904D01*
X138502380Y-84683333D01*
X138502380Y-84064285D01*
G04 #@! TO.C,C15*
X159357142Y-75392857D02*
X159404761Y-75440476D01*
X159452380Y-75583333D01*
X159452380Y-75678571D01*
X159404761Y-75821428D01*
X159309523Y-75916666D01*
X159214285Y-75964285D01*
X159023809Y-76011904D01*
X158880952Y-76011904D01*
X158690476Y-75964285D01*
X158595238Y-75916666D01*
X158500000Y-75821428D01*
X158452380Y-75678571D01*
X158452380Y-75583333D01*
X158500000Y-75440476D01*
X158547619Y-75392857D01*
X159452380Y-74440476D02*
X159452380Y-75011904D01*
X159452380Y-74726190D02*
X158452380Y-74726190D01*
X158595238Y-74821428D01*
X158690476Y-74916666D01*
X158738095Y-75011904D01*
X158452380Y-73535714D02*
X158452380Y-74011904D01*
X158928571Y-74059523D01*
X158880952Y-74011904D01*
X158833333Y-73916666D01*
X158833333Y-73678571D01*
X158880952Y-73583333D01*
X158928571Y-73535714D01*
X159023809Y-73488095D01*
X159261904Y-73488095D01*
X159357142Y-73535714D01*
X159404761Y-73583333D01*
X159452380Y-73678571D01*
X159452380Y-73916666D01*
X159404761Y-74011904D01*
X159357142Y-74059523D01*
G04 #@! TO.C,U1*
X176488095Y-65896380D02*
X176488095Y-66705904D01*
X176535714Y-66801142D01*
X176583333Y-66848761D01*
X176678571Y-66896380D01*
X176869047Y-66896380D01*
X176964285Y-66848761D01*
X177011904Y-66801142D01*
X177059523Y-66705904D01*
X177059523Y-65896380D01*
X178059523Y-66896380D02*
X177488095Y-66896380D01*
X177773809Y-66896380D02*
X177773809Y-65896380D01*
X177678571Y-66039238D01*
X177583333Y-66134476D01*
X177488095Y-66182095D01*
G04 #@! TO.C,U2*
X176488095Y-82896380D02*
X176488095Y-83705904D01*
X176535714Y-83801142D01*
X176583333Y-83848761D01*
X176678571Y-83896380D01*
X176869047Y-83896380D01*
X176964285Y-83848761D01*
X177011904Y-83801142D01*
X177059523Y-83705904D01*
X177059523Y-82896380D01*
X177488095Y-82991619D02*
X177535714Y-82944000D01*
X177630952Y-82896380D01*
X177869047Y-82896380D01*
X177964285Y-82944000D01*
X178011904Y-82991619D01*
X178059523Y-83086857D01*
X178059523Y-83182095D01*
X178011904Y-83324952D01*
X177440476Y-83896380D01*
X178059523Y-83896380D01*
G04 #@! TO.C,J2*
X192062380Y-79083333D02*
X192776666Y-79083333D01*
X192919523Y-79130952D01*
X193014761Y-79226190D01*
X193062380Y-79369047D01*
X193062380Y-79464285D01*
X192157619Y-78654761D02*
X192110000Y-78607142D01*
X192062380Y-78511904D01*
X192062380Y-78273809D01*
X192110000Y-78178571D01*
X192157619Y-78130952D01*
X192252857Y-78083333D01*
X192348095Y-78083333D01*
X192490952Y-78130952D01*
X193062380Y-78702380D01*
X193062380Y-78083333D01*
G04 #@! TO.C,C1*
X124107142Y-89916666D02*
X124154761Y-89964285D01*
X124202380Y-90107142D01*
X124202380Y-90202380D01*
X124154761Y-90345238D01*
X124059523Y-90440476D01*
X123964285Y-90488095D01*
X123773809Y-90535714D01*
X123630952Y-90535714D01*
X123440476Y-90488095D01*
X123345238Y-90440476D01*
X123250000Y-90345238D01*
X123202380Y-90202380D01*
X123202380Y-90107142D01*
X123250000Y-89964285D01*
X123297619Y-89916666D01*
X124202380Y-88964285D02*
X124202380Y-89535714D01*
X124202380Y-89250000D02*
X123202380Y-89250000D01*
X123345238Y-89345238D01*
X123440476Y-89440476D01*
X123488095Y-89535714D01*
G04 #@! TO.C,K1*
X127011904Y-95958968D02*
X127011904Y-94958968D01*
X127583333Y-95958968D02*
X127154761Y-95387540D01*
X127583333Y-94958968D02*
X127011904Y-95530397D01*
X128535714Y-95958968D02*
X127964285Y-95958968D01*
X128250000Y-95958968D02*
X128250000Y-94958968D01*
X128154761Y-95101826D01*
X128059523Y-95197064D01*
X127964285Y-95244683D01*
G04 #@! TO.C,C14*
X157607142Y-55642857D02*
X157654761Y-55690476D01*
X157702380Y-55833333D01*
X157702380Y-55928571D01*
X157654761Y-56071428D01*
X157559523Y-56166666D01*
X157464285Y-56214285D01*
X157273809Y-56261904D01*
X157130952Y-56261904D01*
X156940476Y-56214285D01*
X156845238Y-56166666D01*
X156750000Y-56071428D01*
X156702380Y-55928571D01*
X156702380Y-55833333D01*
X156750000Y-55690476D01*
X156797619Y-55642857D01*
X157702380Y-54690476D02*
X157702380Y-55261904D01*
X157702380Y-54976190D02*
X156702380Y-54976190D01*
X156845238Y-55071428D01*
X156940476Y-55166666D01*
X156988095Y-55261904D01*
X157035714Y-53833333D02*
X157702380Y-53833333D01*
X156654761Y-54071428D02*
X157369047Y-54309523D01*
X157369047Y-53690476D01*
G04 #@! TO.C,C12*
X175866273Y-55642857D02*
X175913892Y-55690476D01*
X175961511Y-55833333D01*
X175961511Y-55928571D01*
X175913892Y-56071428D01*
X175818654Y-56166666D01*
X175723416Y-56214285D01*
X175532940Y-56261904D01*
X175390083Y-56261904D01*
X175199607Y-56214285D01*
X175104369Y-56166666D01*
X175009131Y-56071428D01*
X174961511Y-55928571D01*
X174961511Y-55833333D01*
X175009131Y-55690476D01*
X175056750Y-55642857D01*
X175961511Y-54690476D02*
X175961511Y-55261904D01*
X175961511Y-54976190D02*
X174961511Y-54976190D01*
X175104369Y-55071428D01*
X175199607Y-55166666D01*
X175247226Y-55261904D01*
X175056750Y-54309523D02*
X175009131Y-54261904D01*
X174961511Y-54166666D01*
X174961511Y-53928571D01*
X175009131Y-53833333D01*
X175056750Y-53785714D01*
X175151988Y-53738095D01*
X175247226Y-53738095D01*
X175390083Y-53785714D01*
X175961511Y-54357142D01*
X175961511Y-53738095D01*
G04 #@! TO.C,C11*
X168857142Y-55392857D02*
X168904761Y-55440476D01*
X168952380Y-55583333D01*
X168952380Y-55678571D01*
X168904761Y-55821428D01*
X168809523Y-55916666D01*
X168714285Y-55964285D01*
X168523809Y-56011904D01*
X168380952Y-56011904D01*
X168190476Y-55964285D01*
X168095238Y-55916666D01*
X168000000Y-55821428D01*
X167952380Y-55678571D01*
X167952380Y-55583333D01*
X168000000Y-55440476D01*
X168047619Y-55392857D01*
X168952380Y-54440476D02*
X168952380Y-55011904D01*
X168952380Y-54726190D02*
X167952380Y-54726190D01*
X168095238Y-54821428D01*
X168190476Y-54916666D01*
X168238095Y-55011904D01*
X168952380Y-53488095D02*
X168952380Y-54059523D01*
X168952380Y-53773809D02*
X167952380Y-53773809D01*
X168095238Y-53869047D01*
X168190476Y-53964285D01*
X168238095Y-54059523D01*
G04 #@! TO.C,C10*
X171619642Y-79357142D02*
X171572023Y-79404761D01*
X171429166Y-79452380D01*
X171333928Y-79452380D01*
X171191071Y-79404761D01*
X171095833Y-79309523D01*
X171048214Y-79214285D01*
X171000595Y-79023809D01*
X171000595Y-78880952D01*
X171048214Y-78690476D01*
X171095833Y-78595238D01*
X171191071Y-78500000D01*
X171333928Y-78452380D01*
X171429166Y-78452380D01*
X171572023Y-78500000D01*
X171619642Y-78547619D01*
X172572023Y-79452380D02*
X172000595Y-79452380D01*
X172286309Y-79452380D02*
X172286309Y-78452380D01*
X172191071Y-78595238D01*
X172095833Y-78690476D01*
X172000595Y-78738095D01*
X173191071Y-78452380D02*
X173286309Y-78452380D01*
X173381547Y-78500000D01*
X173429166Y-78547619D01*
X173476785Y-78642857D01*
X173524404Y-78833333D01*
X173524404Y-79071428D01*
X173476785Y-79261904D01*
X173429166Y-79357142D01*
X173381547Y-79404761D01*
X173286309Y-79452380D01*
X173191071Y-79452380D01*
X173095833Y-79404761D01*
X173048214Y-79357142D01*
X173000595Y-79261904D01*
X172952976Y-79071428D01*
X172952976Y-78833333D01*
X173000595Y-78642857D01*
X173048214Y-78547619D01*
X173095833Y-78500000D01*
X173191071Y-78452380D01*
G04 #@! TO.C,C9*
X171583333Y-76857142D02*
X171535714Y-76904761D01*
X171392857Y-76952380D01*
X171297619Y-76952380D01*
X171154761Y-76904761D01*
X171059523Y-76809523D01*
X171011904Y-76714285D01*
X170964285Y-76523809D01*
X170964285Y-76380952D01*
X171011904Y-76190476D01*
X171059523Y-76095238D01*
X171154761Y-76000000D01*
X171297619Y-75952380D01*
X171392857Y-75952380D01*
X171535714Y-76000000D01*
X171583333Y-76047619D01*
X172059523Y-76952380D02*
X172250000Y-76952380D01*
X172345238Y-76904761D01*
X172392857Y-76857142D01*
X172488095Y-76714285D01*
X172535714Y-76523809D01*
X172535714Y-76142857D01*
X172488095Y-76047619D01*
X172440476Y-76000000D01*
X172345238Y-75952380D01*
X172154761Y-75952380D01*
X172059523Y-76000000D01*
X172011904Y-76047619D01*
X171964285Y-76142857D01*
X171964285Y-76380952D01*
X172011904Y-76476190D01*
X172059523Y-76523809D01*
X172154761Y-76571428D01*
X172345238Y-76571428D01*
X172440476Y-76523809D01*
X172488095Y-76476190D01*
X172535714Y-76380952D01*
G04 #@! TO.C,C8*
X179607142Y-81416666D02*
X179654761Y-81464285D01*
X179702380Y-81607142D01*
X179702380Y-81702380D01*
X179654761Y-81845238D01*
X179559523Y-81940476D01*
X179464285Y-81988095D01*
X179273809Y-82035714D01*
X179130952Y-82035714D01*
X178940476Y-81988095D01*
X178845238Y-81940476D01*
X178750000Y-81845238D01*
X178702380Y-81702380D01*
X178702380Y-81607142D01*
X178750000Y-81464285D01*
X178797619Y-81416666D01*
X179130952Y-80845238D02*
X179083333Y-80940476D01*
X179035714Y-80988095D01*
X178940476Y-81035714D01*
X178892857Y-81035714D01*
X178797619Y-80988095D01*
X178750000Y-80940476D01*
X178702380Y-80845238D01*
X178702380Y-80654761D01*
X178750000Y-80559523D01*
X178797619Y-80511904D01*
X178892857Y-80464285D01*
X178940476Y-80464285D01*
X179035714Y-80511904D01*
X179083333Y-80559523D01*
X179130952Y-80654761D01*
X179130952Y-80845238D01*
X179178571Y-80940476D01*
X179226190Y-80988095D01*
X179321428Y-81035714D01*
X179511904Y-81035714D01*
X179607142Y-80988095D01*
X179654761Y-80940476D01*
X179702380Y-80845238D01*
X179702380Y-80654761D01*
X179654761Y-80559523D01*
X179607142Y-80511904D01*
X179511904Y-80464285D01*
X179321428Y-80464285D01*
X179226190Y-80511904D01*
X179178571Y-80559523D01*
X179130952Y-80654761D01*
G04 #@! TO.C,C7*
X179607142Y-75929166D02*
X179654761Y-75976785D01*
X179702380Y-76119642D01*
X179702380Y-76214880D01*
X179654761Y-76357738D01*
X179559523Y-76452976D01*
X179464285Y-76500595D01*
X179273809Y-76548214D01*
X179130952Y-76548214D01*
X178940476Y-76500595D01*
X178845238Y-76452976D01*
X178750000Y-76357738D01*
X178702380Y-76214880D01*
X178702380Y-76119642D01*
X178750000Y-75976785D01*
X178797619Y-75929166D01*
X178702380Y-75595833D02*
X178702380Y-74929166D01*
X179702380Y-75357738D01*
G04 #@! TO.C,C2*
X133607142Y-92191666D02*
X133654761Y-92239285D01*
X133702380Y-92382142D01*
X133702380Y-92477380D01*
X133654761Y-92620238D01*
X133559523Y-92715476D01*
X133464285Y-92763095D01*
X133273809Y-92810714D01*
X133130952Y-92810714D01*
X132940476Y-92763095D01*
X132845238Y-92715476D01*
X132750000Y-92620238D01*
X132702380Y-92477380D01*
X132702380Y-92382142D01*
X132750000Y-92239285D01*
X132797619Y-92191666D01*
X132797619Y-91810714D02*
X132750000Y-91763095D01*
X132702380Y-91667857D01*
X132702380Y-91429761D01*
X132750000Y-91334523D01*
X132797619Y-91286904D01*
X132892857Y-91239285D01*
X132988095Y-91239285D01*
X133130952Y-91286904D01*
X133702380Y-91858333D01*
X133702380Y-91239285D01*
G04 #@! TO.C,C3*
X127107142Y-85666666D02*
X127154761Y-85714285D01*
X127202380Y-85857142D01*
X127202380Y-85952380D01*
X127154761Y-86095238D01*
X127059523Y-86190476D01*
X126964285Y-86238095D01*
X126773809Y-86285714D01*
X126630952Y-86285714D01*
X126440476Y-86238095D01*
X126345238Y-86190476D01*
X126250000Y-86095238D01*
X126202380Y-85952380D01*
X126202380Y-85857142D01*
X126250000Y-85714285D01*
X126297619Y-85666666D01*
X126202380Y-85333333D02*
X126202380Y-84714285D01*
X126583333Y-85047619D01*
X126583333Y-84904761D01*
X126630952Y-84809523D01*
X126678571Y-84761904D01*
X126773809Y-84714285D01*
X127011904Y-84714285D01*
X127107142Y-84761904D01*
X127154761Y-84809523D01*
X127202380Y-84904761D01*
X127202380Y-85190476D01*
X127154761Y-85285714D01*
X127107142Y-85333333D01*
G04 #@! TO.C,C4*
X122607142Y-85666666D02*
X122654761Y-85714285D01*
X122702380Y-85857142D01*
X122702380Y-85952380D01*
X122654761Y-86095238D01*
X122559523Y-86190476D01*
X122464285Y-86238095D01*
X122273809Y-86285714D01*
X122130952Y-86285714D01*
X121940476Y-86238095D01*
X121845238Y-86190476D01*
X121750000Y-86095238D01*
X121702380Y-85952380D01*
X121702380Y-85857142D01*
X121750000Y-85714285D01*
X121797619Y-85666666D01*
X122035714Y-84809523D02*
X122702380Y-84809523D01*
X121654761Y-85047619D02*
X122369047Y-85285714D01*
X122369047Y-84666666D01*
G04 #@! TO.C,C13*
X163857142Y-102880357D02*
X163904761Y-102927976D01*
X163952380Y-103070833D01*
X163952380Y-103166071D01*
X163904761Y-103308928D01*
X163809523Y-103404166D01*
X163714285Y-103451785D01*
X163523809Y-103499404D01*
X163380952Y-103499404D01*
X163190476Y-103451785D01*
X163095238Y-103404166D01*
X163000000Y-103308928D01*
X162952380Y-103166071D01*
X162952380Y-103070833D01*
X163000000Y-102927976D01*
X163047619Y-102880357D01*
X163952380Y-101927976D02*
X163952380Y-102499404D01*
X163952380Y-102213690D02*
X162952380Y-102213690D01*
X163095238Y-102308928D01*
X163190476Y-102404166D01*
X163238095Y-102499404D01*
X162952380Y-101594642D02*
X162952380Y-100975595D01*
X163333333Y-101308928D01*
X163333333Y-101166071D01*
X163380952Y-101070833D01*
X163428571Y-101023214D01*
X163523809Y-100975595D01*
X163761904Y-100975595D01*
X163857142Y-101023214D01*
X163904761Y-101070833D01*
X163952380Y-101166071D01*
X163952380Y-101451785D01*
X163904761Y-101547023D01*
X163857142Y-101594642D01*
G04 #@! TO.C,C5*
X154833333Y-100357142D02*
X154785714Y-100404761D01*
X154642857Y-100452380D01*
X154547619Y-100452380D01*
X154404761Y-100404761D01*
X154309523Y-100309523D01*
X154261904Y-100214285D01*
X154214285Y-100023809D01*
X154214285Y-99880952D01*
X154261904Y-99690476D01*
X154309523Y-99595238D01*
X154404761Y-99500000D01*
X154547619Y-99452380D01*
X154642857Y-99452380D01*
X154785714Y-99500000D01*
X154833333Y-99547619D01*
X155738095Y-99452380D02*
X155261904Y-99452380D01*
X155214285Y-99928571D01*
X155261904Y-99880952D01*
X155357142Y-99833333D01*
X155595238Y-99833333D01*
X155690476Y-99880952D01*
X155738095Y-99928571D01*
X155785714Y-100023809D01*
X155785714Y-100261904D01*
X155738095Y-100357142D01*
X155690476Y-100404761D01*
X155595238Y-100452380D01*
X155357142Y-100452380D01*
X155261904Y-100404761D01*
X155214285Y-100357142D01*
G04 #@! TO.C,C6*
X154583333Y-95857142D02*
X154535714Y-95904761D01*
X154392857Y-95952380D01*
X154297619Y-95952380D01*
X154154761Y-95904761D01*
X154059523Y-95809523D01*
X154011904Y-95714285D01*
X153964285Y-95523809D01*
X153964285Y-95380952D01*
X154011904Y-95190476D01*
X154059523Y-95095238D01*
X154154761Y-95000000D01*
X154297619Y-94952380D01*
X154392857Y-94952380D01*
X154535714Y-95000000D01*
X154583333Y-95047619D01*
X155440476Y-94952380D02*
X155250000Y-94952380D01*
X155154761Y-95000000D01*
X155107142Y-95047619D01*
X155011904Y-95190476D01*
X154964285Y-95380952D01*
X154964285Y-95761904D01*
X155011904Y-95857142D01*
X155059523Y-95904761D01*
X155154761Y-95952380D01*
X155345238Y-95952380D01*
X155440476Y-95904761D01*
X155488095Y-95857142D01*
X155535714Y-95761904D01*
X155535714Y-95523809D01*
X155488095Y-95428571D01*
X155440476Y-95380952D01*
X155345238Y-95333333D01*
X155154761Y-95333333D01*
X155059523Y-95380952D01*
X155011904Y-95428571D01*
X154964285Y-95523809D01*
G04 #@! TO.C,J1*
X140282380Y-52833333D02*
X140996666Y-52833333D01*
X141139523Y-52880952D01*
X141234761Y-52976190D01*
X141282380Y-53119047D01*
X141282380Y-53214285D01*
X141282380Y-51833333D02*
X141282380Y-52404761D01*
X141282380Y-52119047D02*
X140282380Y-52119047D01*
X140425238Y-52214285D01*
X140520476Y-52309523D01*
X140568095Y-52404761D01*
G04 #@! TO.C,D8*
X178202380Y-55238095D02*
X177202380Y-55238095D01*
X177202380Y-55000000D01*
X177250000Y-54857142D01*
X177345238Y-54761904D01*
X177440476Y-54714285D01*
X177630952Y-54666666D01*
X177773809Y-54666666D01*
X177964285Y-54714285D01*
X178059523Y-54761904D01*
X178154761Y-54857142D01*
X178202380Y-55000000D01*
X178202380Y-55238095D01*
X177630952Y-54095238D02*
X177583333Y-54190476D01*
X177535714Y-54238095D01*
X177440476Y-54285714D01*
X177392857Y-54285714D01*
X177297619Y-54238095D01*
X177250000Y-54190476D01*
X177202380Y-54095238D01*
X177202380Y-53904761D01*
X177250000Y-53809523D01*
X177297619Y-53761904D01*
X177392857Y-53714285D01*
X177440476Y-53714285D01*
X177535714Y-53761904D01*
X177583333Y-53809523D01*
X177630952Y-53904761D01*
X177630952Y-54095238D01*
X177678571Y-54190476D01*
X177726190Y-54238095D01*
X177821428Y-54285714D01*
X178011904Y-54285714D01*
X178107142Y-54238095D01*
X178154761Y-54190476D01*
X178202380Y-54095238D01*
X178202380Y-53904761D01*
X178154761Y-53809523D01*
X178107142Y-53761904D01*
X178011904Y-53714285D01*
X177821428Y-53714285D01*
X177726190Y-53761904D01*
X177678571Y-53809523D01*
X177630952Y-53904761D01*
G04 #@! TO.C,D9*
X172202380Y-103238095D02*
X171202380Y-103238095D01*
X171202380Y-103000000D01*
X171250000Y-102857142D01*
X171345238Y-102761904D01*
X171440476Y-102714285D01*
X171630952Y-102666666D01*
X171773809Y-102666666D01*
X171964285Y-102714285D01*
X172059523Y-102761904D01*
X172154761Y-102857142D01*
X172202380Y-103000000D01*
X172202380Y-103238095D01*
X172202380Y-102190476D02*
X172202380Y-102000000D01*
X172154761Y-101904761D01*
X172107142Y-101857142D01*
X171964285Y-101761904D01*
X171773809Y-101714285D01*
X171392857Y-101714285D01*
X171297619Y-101761904D01*
X171250000Y-101809523D01*
X171202380Y-101904761D01*
X171202380Y-102095238D01*
X171250000Y-102190476D01*
X171297619Y-102238095D01*
X171392857Y-102285714D01*
X171630952Y-102285714D01*
X171726190Y-102238095D01*
X171773809Y-102190476D01*
X171821428Y-102095238D01*
X171821428Y-101904761D01*
X171773809Y-101809523D01*
X171726190Y-101761904D01*
X171630952Y-101714285D01*
G04 #@! TO.C,F1*
X174608571Y-59570833D02*
X174608571Y-59904166D01*
X175132380Y-59904166D02*
X174132380Y-59904166D01*
X174132380Y-59427976D01*
X175132380Y-58523214D02*
X175132380Y-59094642D01*
X175132380Y-58808928D02*
X174132380Y-58808928D01*
X174275238Y-58904166D01*
X174370476Y-58999404D01*
X174418095Y-59094642D01*
G04 #@! TO.C,L1*
X160952380Y-61516666D02*
X160952380Y-61992857D01*
X159952380Y-61992857D01*
X160952380Y-60659523D02*
X160952380Y-61230952D01*
X160952380Y-60945238D02*
X159952380Y-60945238D01*
X160095238Y-61040476D01*
X160190476Y-61135714D01*
X160238095Y-61230952D01*
G04 #@! TO.C,D5*
X146261904Y-60952380D02*
X146261904Y-59952380D01*
X146500000Y-59952380D01*
X146642857Y-60000000D01*
X146738095Y-60095238D01*
X146785714Y-60190476D01*
X146833333Y-60380952D01*
X146833333Y-60523809D01*
X146785714Y-60714285D01*
X146738095Y-60809523D01*
X146642857Y-60904761D01*
X146500000Y-60952380D01*
X146261904Y-60952380D01*
X147738095Y-59952380D02*
X147261904Y-59952380D01*
X147214285Y-60428571D01*
X147261904Y-60380952D01*
X147357142Y-60333333D01*
X147595238Y-60333333D01*
X147690476Y-60380952D01*
X147738095Y-60428571D01*
X147785714Y-60523809D01*
X147785714Y-60761904D01*
X147738095Y-60857142D01*
X147690476Y-60904761D01*
X147595238Y-60952380D01*
X147357142Y-60952380D01*
X147261904Y-60904761D01*
X147214285Y-60857142D01*
G04 #@! TO.C,D6*
X146261904Y-64952380D02*
X146261904Y-63952380D01*
X146500000Y-63952380D01*
X146642857Y-64000000D01*
X146738095Y-64095238D01*
X146785714Y-64190476D01*
X146833333Y-64380952D01*
X146833333Y-64523809D01*
X146785714Y-64714285D01*
X146738095Y-64809523D01*
X146642857Y-64904761D01*
X146500000Y-64952380D01*
X146261904Y-64952380D01*
X147690476Y-63952380D02*
X147500000Y-63952380D01*
X147404761Y-64000000D01*
X147357142Y-64047619D01*
X147261904Y-64190476D01*
X147214285Y-64380952D01*
X147214285Y-64761904D01*
X147261904Y-64857142D01*
X147309523Y-64904761D01*
X147404761Y-64952380D01*
X147595238Y-64952380D01*
X147690476Y-64904761D01*
X147738095Y-64857142D01*
X147785714Y-64761904D01*
X147785714Y-64523809D01*
X147738095Y-64428571D01*
X147690476Y-64380952D01*
X147595238Y-64333333D01*
X147404761Y-64333333D01*
X147309523Y-64380952D01*
X147261904Y-64428571D01*
X147214285Y-64523809D01*
G04 #@! TO.C,D7*
X146261904Y-69202380D02*
X146261904Y-68202380D01*
X146500000Y-68202380D01*
X146642857Y-68250000D01*
X146738095Y-68345238D01*
X146785714Y-68440476D01*
X146833333Y-68630952D01*
X146833333Y-68773809D01*
X146785714Y-68964285D01*
X146738095Y-69059523D01*
X146642857Y-69154761D01*
X146500000Y-69202380D01*
X146261904Y-69202380D01*
X147166666Y-68202380D02*
X147833333Y-68202380D01*
X147404761Y-69202380D01*
G04 #@! TO.C,U4*
X160988095Y-80052380D02*
X160988095Y-80861904D01*
X161035714Y-80957142D01*
X161083333Y-81004761D01*
X161178571Y-81052380D01*
X161369047Y-81052380D01*
X161464285Y-81004761D01*
X161511904Y-80957142D01*
X161559523Y-80861904D01*
X161559523Y-80052380D01*
X162464285Y-80385714D02*
X162464285Y-81052380D01*
X162226190Y-80004761D02*
X161988095Y-80719047D01*
X162607142Y-80719047D01*
G04 #@! TO.C,U3*
X121322380Y-67611904D02*
X122131904Y-67611904D01*
X122227142Y-67564285D01*
X122274761Y-67516666D01*
X122322380Y-67421428D01*
X122322380Y-67230952D01*
X122274761Y-67135714D01*
X122227142Y-67088095D01*
X122131904Y-67040476D01*
X121322380Y-67040476D01*
X121322380Y-66659523D02*
X121322380Y-66040476D01*
X121703333Y-66373809D01*
X121703333Y-66230952D01*
X121750952Y-66135714D01*
X121798571Y-66088095D01*
X121893809Y-66040476D01*
X122131904Y-66040476D01*
X122227142Y-66088095D01*
X122274761Y-66135714D01*
X122322380Y-66230952D01*
X122322380Y-66516666D01*
X122274761Y-66611904D01*
X122227142Y-66659523D01*
G04 #@! TO.C,R24*
X168452380Y-102892857D02*
X167976190Y-103226190D01*
X168452380Y-103464285D02*
X167452380Y-103464285D01*
X167452380Y-103083333D01*
X167500000Y-102988095D01*
X167547619Y-102940476D01*
X167642857Y-102892857D01*
X167785714Y-102892857D01*
X167880952Y-102940476D01*
X167928571Y-102988095D01*
X167976190Y-103083333D01*
X167976190Y-103464285D01*
X167547619Y-102511904D02*
X167500000Y-102464285D01*
X167452380Y-102369047D01*
X167452380Y-102130952D01*
X167500000Y-102035714D01*
X167547619Y-101988095D01*
X167642857Y-101940476D01*
X167738095Y-101940476D01*
X167880952Y-101988095D01*
X168452380Y-102559523D01*
X168452380Y-101940476D01*
X167785714Y-101083333D02*
X168452380Y-101083333D01*
X167404761Y-101321428D02*
X168119047Y-101559523D01*
X168119047Y-100940476D01*
G04 #@! TO.C,R23*
X154857142Y-67452380D02*
X154523809Y-66976190D01*
X154285714Y-67452380D02*
X154285714Y-66452380D01*
X154666666Y-66452380D01*
X154761904Y-66500000D01*
X154809523Y-66547619D01*
X154857142Y-66642857D01*
X154857142Y-66785714D01*
X154809523Y-66880952D01*
X154761904Y-66928571D01*
X154666666Y-66976190D01*
X154285714Y-66976190D01*
X155238095Y-66547619D02*
X155285714Y-66500000D01*
X155380952Y-66452380D01*
X155619047Y-66452380D01*
X155714285Y-66500000D01*
X155761904Y-66547619D01*
X155809523Y-66642857D01*
X155809523Y-66738095D01*
X155761904Y-66880952D01*
X155190476Y-67452380D01*
X155809523Y-67452380D01*
X156142857Y-66452380D02*
X156761904Y-66452380D01*
X156428571Y-66833333D01*
X156571428Y-66833333D01*
X156666666Y-66880952D01*
X156714285Y-66928571D01*
X156761904Y-67023809D01*
X156761904Y-67261904D01*
X156714285Y-67357142D01*
X156666666Y-67404761D01*
X156571428Y-67452380D01*
X156285714Y-67452380D01*
X156190476Y-67404761D01*
X156142857Y-67357142D01*
G04 #@! TO.C,R22*
X155408087Y-62814563D02*
X155074754Y-62338373D01*
X154836659Y-62814563D02*
X154836659Y-61814563D01*
X155217611Y-61814563D01*
X155312849Y-61862183D01*
X155360468Y-61909802D01*
X155408087Y-62005040D01*
X155408087Y-62147897D01*
X155360468Y-62243135D01*
X155312849Y-62290754D01*
X155217611Y-62338373D01*
X154836659Y-62338373D01*
X155789040Y-61909802D02*
X155836659Y-61862183D01*
X155931897Y-61814563D01*
X156169992Y-61814563D01*
X156265230Y-61862183D01*
X156312849Y-61909802D01*
X156360468Y-62005040D01*
X156360468Y-62100278D01*
X156312849Y-62243135D01*
X155741421Y-62814563D01*
X156360468Y-62814563D01*
X156741421Y-61909802D02*
X156789040Y-61862183D01*
X156884278Y-61814563D01*
X157122373Y-61814563D01*
X157217611Y-61862183D01*
X157265230Y-61909802D01*
X157312849Y-62005040D01*
X157312849Y-62100278D01*
X157265230Y-62243135D01*
X156693802Y-62814563D01*
X157312849Y-62814563D01*
G04 #@! TO.C,R21*
X147632380Y-55642857D02*
X147156190Y-55976190D01*
X147632380Y-56214285D02*
X146632380Y-56214285D01*
X146632380Y-55833333D01*
X146680000Y-55738095D01*
X146727619Y-55690476D01*
X146822857Y-55642857D01*
X146965714Y-55642857D01*
X147060952Y-55690476D01*
X147108571Y-55738095D01*
X147156190Y-55833333D01*
X147156190Y-56214285D01*
X146727619Y-55261904D02*
X146680000Y-55214285D01*
X146632380Y-55119047D01*
X146632380Y-54880952D01*
X146680000Y-54785714D01*
X146727619Y-54738095D01*
X146822857Y-54690476D01*
X146918095Y-54690476D01*
X147060952Y-54738095D01*
X147632380Y-55309523D01*
X147632380Y-54690476D01*
X147632380Y-53738095D02*
X147632380Y-54309523D01*
X147632380Y-54023809D02*
X146632380Y-54023809D01*
X146775238Y-54119047D01*
X146870476Y-54214285D01*
X146918095Y-54309523D01*
G04 #@! TO.C,R20*
X170594642Y-92702380D02*
X170261309Y-92226190D01*
X170023214Y-92702380D02*
X170023214Y-91702380D01*
X170404166Y-91702380D01*
X170499404Y-91750000D01*
X170547023Y-91797619D01*
X170594642Y-91892857D01*
X170594642Y-92035714D01*
X170547023Y-92130952D01*
X170499404Y-92178571D01*
X170404166Y-92226190D01*
X170023214Y-92226190D01*
X170975595Y-91797619D02*
X171023214Y-91750000D01*
X171118452Y-91702380D01*
X171356547Y-91702380D01*
X171451785Y-91750000D01*
X171499404Y-91797619D01*
X171547023Y-91892857D01*
X171547023Y-91988095D01*
X171499404Y-92130952D01*
X170927976Y-92702380D01*
X171547023Y-92702380D01*
X172166071Y-91702380D02*
X172261309Y-91702380D01*
X172356547Y-91750000D01*
X172404166Y-91797619D01*
X172451785Y-91892857D01*
X172499404Y-92083333D01*
X172499404Y-92321428D01*
X172451785Y-92511904D01*
X172404166Y-92607142D01*
X172356547Y-92654761D01*
X172261309Y-92702380D01*
X172166071Y-92702380D01*
X172070833Y-92654761D01*
X172023214Y-92607142D01*
X171975595Y-92511904D01*
X171927976Y-92321428D01*
X171927976Y-92083333D01*
X171975595Y-91892857D01*
X172023214Y-91797619D01*
X172070833Y-91750000D01*
X172166071Y-91702380D01*
G04 #@! TO.C,R19*
X160857142Y-84702380D02*
X160523809Y-84226190D01*
X160285714Y-84702380D02*
X160285714Y-83702380D01*
X160666666Y-83702380D01*
X160761904Y-83750000D01*
X160809523Y-83797619D01*
X160857142Y-83892857D01*
X160857142Y-84035714D01*
X160809523Y-84130952D01*
X160761904Y-84178571D01*
X160666666Y-84226190D01*
X160285714Y-84226190D01*
X161809523Y-84702380D02*
X161238095Y-84702380D01*
X161523809Y-84702380D02*
X161523809Y-83702380D01*
X161428571Y-83845238D01*
X161333333Y-83940476D01*
X161238095Y-83988095D01*
X162285714Y-84702380D02*
X162476190Y-84702380D01*
X162571428Y-84654761D01*
X162619047Y-84607142D01*
X162714285Y-84464285D01*
X162761904Y-84273809D01*
X162761904Y-83892857D01*
X162714285Y-83797619D01*
X162666666Y-83750000D01*
X162571428Y-83702380D01*
X162380952Y-83702380D01*
X162285714Y-83750000D01*
X162238095Y-83797619D01*
X162190476Y-83892857D01*
X162190476Y-84130952D01*
X162238095Y-84226190D01*
X162285714Y-84273809D01*
X162380952Y-84321428D01*
X162571428Y-84321428D01*
X162666666Y-84273809D01*
X162714285Y-84226190D01*
X162761904Y-84130952D01*
G04 #@! TO.C,R18*
X173357142Y-99452380D02*
X173023809Y-98976190D01*
X172785714Y-99452380D02*
X172785714Y-98452380D01*
X173166666Y-98452380D01*
X173261904Y-98500000D01*
X173309523Y-98547619D01*
X173357142Y-98642857D01*
X173357142Y-98785714D01*
X173309523Y-98880952D01*
X173261904Y-98928571D01*
X173166666Y-98976190D01*
X172785714Y-98976190D01*
X174309523Y-99452380D02*
X173738095Y-99452380D01*
X174023809Y-99452380D02*
X174023809Y-98452380D01*
X173928571Y-98595238D01*
X173833333Y-98690476D01*
X173738095Y-98738095D01*
X174880952Y-98880952D02*
X174785714Y-98833333D01*
X174738095Y-98785714D01*
X174690476Y-98690476D01*
X174690476Y-98642857D01*
X174738095Y-98547619D01*
X174785714Y-98500000D01*
X174880952Y-98452380D01*
X175071428Y-98452380D01*
X175166666Y-98500000D01*
X175214285Y-98547619D01*
X175261904Y-98642857D01*
X175261904Y-98690476D01*
X175214285Y-98785714D01*
X175166666Y-98833333D01*
X175071428Y-98880952D01*
X174880952Y-98880952D01*
X174785714Y-98928571D01*
X174738095Y-98976190D01*
X174690476Y-99071428D01*
X174690476Y-99261904D01*
X174738095Y-99357142D01*
X174785714Y-99404761D01*
X174880952Y-99452380D01*
X175071428Y-99452380D01*
X175166666Y-99404761D01*
X175214285Y-99357142D01*
X175261904Y-99261904D01*
X175261904Y-99071428D01*
X175214285Y-98976190D01*
X175166666Y-98928571D01*
X175071428Y-98880952D01*
G04 #@! TO.C,R17*
X162357142Y-74442173D02*
X162023809Y-73965983D01*
X161785714Y-74442173D02*
X161785714Y-73442173D01*
X162166666Y-73442173D01*
X162261904Y-73489793D01*
X162309523Y-73537412D01*
X162357142Y-73632650D01*
X162357142Y-73775507D01*
X162309523Y-73870745D01*
X162261904Y-73918364D01*
X162166666Y-73965983D01*
X161785714Y-73965983D01*
X163309523Y-74442173D02*
X162738095Y-74442173D01*
X163023809Y-74442173D02*
X163023809Y-73442173D01*
X162928571Y-73585031D01*
X162833333Y-73680269D01*
X162738095Y-73727888D01*
X163642857Y-73442173D02*
X164309523Y-73442173D01*
X163880952Y-74442173D01*
G04 #@! TO.C,R16*
X166202380Y-88142857D02*
X165726190Y-88476190D01*
X166202380Y-88714285D02*
X165202380Y-88714285D01*
X165202380Y-88333333D01*
X165250000Y-88238095D01*
X165297619Y-88190476D01*
X165392857Y-88142857D01*
X165535714Y-88142857D01*
X165630952Y-88190476D01*
X165678571Y-88238095D01*
X165726190Y-88333333D01*
X165726190Y-88714285D01*
X166202380Y-87190476D02*
X166202380Y-87761904D01*
X166202380Y-87476190D02*
X165202380Y-87476190D01*
X165345238Y-87571428D01*
X165440476Y-87666666D01*
X165488095Y-87761904D01*
X165202380Y-86333333D02*
X165202380Y-86523809D01*
X165250000Y-86619047D01*
X165297619Y-86666666D01*
X165440476Y-86761904D01*
X165630952Y-86809523D01*
X166011904Y-86809523D01*
X166107142Y-86761904D01*
X166154761Y-86714285D01*
X166202380Y-86619047D01*
X166202380Y-86428571D01*
X166154761Y-86333333D01*
X166107142Y-86285714D01*
X166011904Y-86238095D01*
X165773809Y-86238095D01*
X165678571Y-86285714D01*
X165630952Y-86333333D01*
X165583333Y-86428571D01*
X165583333Y-86619047D01*
X165630952Y-86714285D01*
X165678571Y-86761904D01*
X165773809Y-86809523D01*
G04 #@! TO.C,R15*
X165702380Y-71142857D02*
X165226190Y-71476190D01*
X165702380Y-71714285D02*
X164702380Y-71714285D01*
X164702380Y-71333333D01*
X164750000Y-71238095D01*
X164797619Y-71190476D01*
X164892857Y-71142857D01*
X165035714Y-71142857D01*
X165130952Y-71190476D01*
X165178571Y-71238095D01*
X165226190Y-71333333D01*
X165226190Y-71714285D01*
X165702380Y-70190476D02*
X165702380Y-70761904D01*
X165702380Y-70476190D02*
X164702380Y-70476190D01*
X164845238Y-70571428D01*
X164940476Y-70666666D01*
X164988095Y-70761904D01*
X164702380Y-69285714D02*
X164702380Y-69761904D01*
X165178571Y-69809523D01*
X165130952Y-69761904D01*
X165083333Y-69666666D01*
X165083333Y-69428571D01*
X165130952Y-69333333D01*
X165178571Y-69285714D01*
X165273809Y-69238095D01*
X165511904Y-69238095D01*
X165607142Y-69285714D01*
X165654761Y-69333333D01*
X165702380Y-69428571D01*
X165702380Y-69666666D01*
X165654761Y-69761904D01*
X165607142Y-69809523D01*
G04 #@! TO.C,R14*
X169632380Y-88155357D02*
X169156190Y-88488690D01*
X169632380Y-88726785D02*
X168632380Y-88726785D01*
X168632380Y-88345833D01*
X168680000Y-88250595D01*
X168727619Y-88202976D01*
X168822857Y-88155357D01*
X168965714Y-88155357D01*
X169060952Y-88202976D01*
X169108571Y-88250595D01*
X169156190Y-88345833D01*
X169156190Y-88726785D01*
X169632380Y-87202976D02*
X169632380Y-87774404D01*
X169632380Y-87488690D02*
X168632380Y-87488690D01*
X168775238Y-87583928D01*
X168870476Y-87679166D01*
X168918095Y-87774404D01*
X168965714Y-86345833D02*
X169632380Y-86345833D01*
X168584761Y-86583928D02*
X169299047Y-86822023D01*
X169299047Y-86202976D01*
G04 #@! TO.C,R13*
X160607142Y-95952380D02*
X160273809Y-95476190D01*
X160035714Y-95952380D02*
X160035714Y-94952380D01*
X160416666Y-94952380D01*
X160511904Y-95000000D01*
X160559523Y-95047619D01*
X160607142Y-95142857D01*
X160607142Y-95285714D01*
X160559523Y-95380952D01*
X160511904Y-95428571D01*
X160416666Y-95476190D01*
X160035714Y-95476190D01*
X161559523Y-95952380D02*
X160988095Y-95952380D01*
X161273809Y-95952380D02*
X161273809Y-94952380D01*
X161178571Y-95095238D01*
X161083333Y-95190476D01*
X160988095Y-95238095D01*
X161892857Y-94952380D02*
X162511904Y-94952380D01*
X162178571Y-95333333D01*
X162321428Y-95333333D01*
X162416666Y-95380952D01*
X162464285Y-95428571D01*
X162511904Y-95523809D01*
X162511904Y-95761904D01*
X162464285Y-95857142D01*
X162416666Y-95904761D01*
X162321428Y-95952380D01*
X162035714Y-95952380D01*
X161940476Y-95904761D01*
X161892857Y-95857142D01*
G04 #@! TO.C,R12*
X169382380Y-71405357D02*
X168906190Y-71738690D01*
X169382380Y-71976785D02*
X168382380Y-71976785D01*
X168382380Y-71595833D01*
X168430000Y-71500595D01*
X168477619Y-71452976D01*
X168572857Y-71405357D01*
X168715714Y-71405357D01*
X168810952Y-71452976D01*
X168858571Y-71500595D01*
X168906190Y-71595833D01*
X168906190Y-71976785D01*
X169382380Y-70452976D02*
X169382380Y-71024404D01*
X169382380Y-70738690D02*
X168382380Y-70738690D01*
X168525238Y-70833928D01*
X168620476Y-70929166D01*
X168668095Y-71024404D01*
X168477619Y-70072023D02*
X168430000Y-70024404D01*
X168382380Y-69929166D01*
X168382380Y-69691071D01*
X168430000Y-69595833D01*
X168477619Y-69548214D01*
X168572857Y-69500595D01*
X168668095Y-69500595D01*
X168810952Y-69548214D01*
X169382380Y-70119642D01*
X169382380Y-69500595D01*
G04 #@! TO.C,R11*
X160107142Y-100452380D02*
X159773809Y-99976190D01*
X159535714Y-100452380D02*
X159535714Y-99452380D01*
X159916666Y-99452380D01*
X160011904Y-99500000D01*
X160059523Y-99547619D01*
X160107142Y-99642857D01*
X160107142Y-99785714D01*
X160059523Y-99880952D01*
X160011904Y-99928571D01*
X159916666Y-99976190D01*
X159535714Y-99976190D01*
X161059523Y-100452380D02*
X160488095Y-100452380D01*
X160773809Y-100452380D02*
X160773809Y-99452380D01*
X160678571Y-99595238D01*
X160583333Y-99690476D01*
X160488095Y-99738095D01*
X162011904Y-100452380D02*
X161440476Y-100452380D01*
X161726190Y-100452380D02*
X161726190Y-99452380D01*
X161630952Y-99595238D01*
X161535714Y-99690476D01*
X161440476Y-99738095D01*
G04 #@! TO.C,R10*
X172107142Y-81202380D02*
X171773809Y-80726190D01*
X171535714Y-81202380D02*
X171535714Y-80202380D01*
X171916666Y-80202380D01*
X172011904Y-80250000D01*
X172059523Y-80297619D01*
X172107142Y-80392857D01*
X172107142Y-80535714D01*
X172059523Y-80630952D01*
X172011904Y-80678571D01*
X171916666Y-80726190D01*
X171535714Y-80726190D01*
X173059523Y-81202380D02*
X172488095Y-81202380D01*
X172773809Y-81202380D02*
X172773809Y-80202380D01*
X172678571Y-80345238D01*
X172583333Y-80440476D01*
X172488095Y-80488095D01*
X173678571Y-80202380D02*
X173773809Y-80202380D01*
X173869047Y-80250000D01*
X173916666Y-80297619D01*
X173964285Y-80392857D01*
X174011904Y-80583333D01*
X174011904Y-80821428D01*
X173964285Y-81011904D01*
X173916666Y-81107142D01*
X173869047Y-81154761D01*
X173773809Y-81202380D01*
X173678571Y-81202380D01*
X173583333Y-81154761D01*
X173535714Y-81107142D01*
X173488095Y-81011904D01*
X173440476Y-80821428D01*
X173440476Y-80583333D01*
X173488095Y-80392857D01*
X173535714Y-80297619D01*
X173583333Y-80250000D01*
X173678571Y-80202380D01*
G04 #@! TO.C,R9*
X173333333Y-64382380D02*
X173000000Y-63906190D01*
X172761904Y-64382380D02*
X172761904Y-63382380D01*
X173142857Y-63382380D01*
X173238095Y-63430000D01*
X173285714Y-63477619D01*
X173333333Y-63572857D01*
X173333333Y-63715714D01*
X173285714Y-63810952D01*
X173238095Y-63858571D01*
X173142857Y-63906190D01*
X172761904Y-63906190D01*
X173809523Y-64382380D02*
X174000000Y-64382380D01*
X174095238Y-64334761D01*
X174142857Y-64287142D01*
X174238095Y-64144285D01*
X174285714Y-63953809D01*
X174285714Y-63572857D01*
X174238095Y-63477619D01*
X174190476Y-63430000D01*
X174095238Y-63382380D01*
X173904761Y-63382380D01*
X173809523Y-63430000D01*
X173761904Y-63477619D01*
X173714285Y-63572857D01*
X173714285Y-63810952D01*
X173761904Y-63906190D01*
X173809523Y-63953809D01*
X173904761Y-64001428D01*
X174095238Y-64001428D01*
X174190476Y-63953809D01*
X174238095Y-63906190D01*
X174285714Y-63810952D01*
G04 #@! TO.C,R8*
X165820833Y-81382380D02*
X165487500Y-80906190D01*
X165249404Y-81382380D02*
X165249404Y-80382380D01*
X165630357Y-80382380D01*
X165725595Y-80430000D01*
X165773214Y-80477619D01*
X165820833Y-80572857D01*
X165820833Y-80715714D01*
X165773214Y-80810952D01*
X165725595Y-80858571D01*
X165630357Y-80906190D01*
X165249404Y-80906190D01*
X166392261Y-80810952D02*
X166297023Y-80763333D01*
X166249404Y-80715714D01*
X166201785Y-80620476D01*
X166201785Y-80572857D01*
X166249404Y-80477619D01*
X166297023Y-80430000D01*
X166392261Y-80382380D01*
X166582738Y-80382380D01*
X166677976Y-80430000D01*
X166725595Y-80477619D01*
X166773214Y-80572857D01*
X166773214Y-80620476D01*
X166725595Y-80715714D01*
X166677976Y-80763333D01*
X166582738Y-80810952D01*
X166392261Y-80810952D01*
X166297023Y-80858571D01*
X166249404Y-80906190D01*
X166201785Y-81001428D01*
X166201785Y-81191904D01*
X166249404Y-81287142D01*
X166297023Y-81334761D01*
X166392261Y-81382380D01*
X166582738Y-81382380D01*
X166677976Y-81334761D01*
X166725595Y-81287142D01*
X166773214Y-81191904D01*
X166773214Y-81001428D01*
X166725595Y-80906190D01*
X166677976Y-80858571D01*
X166582738Y-80810952D01*
G04 #@! TO.C,R7*
X166345833Y-64382380D02*
X166012500Y-63906190D01*
X165774404Y-64382380D02*
X165774404Y-63382380D01*
X166155357Y-63382380D01*
X166250595Y-63430000D01*
X166298214Y-63477619D01*
X166345833Y-63572857D01*
X166345833Y-63715714D01*
X166298214Y-63810952D01*
X166250595Y-63858571D01*
X166155357Y-63906190D01*
X165774404Y-63906190D01*
X166679166Y-63382380D02*
X167345833Y-63382380D01*
X166917261Y-64382380D01*
G04 #@! TO.C,R5*
X131452380Y-89916666D02*
X130976190Y-90250000D01*
X131452380Y-90488095D02*
X130452380Y-90488095D01*
X130452380Y-90107142D01*
X130500000Y-90011904D01*
X130547619Y-89964285D01*
X130642857Y-89916666D01*
X130785714Y-89916666D01*
X130880952Y-89964285D01*
X130928571Y-90011904D01*
X130976190Y-90107142D01*
X130976190Y-90488095D01*
X130452380Y-89011904D02*
X130452380Y-89488095D01*
X130928571Y-89535714D01*
X130880952Y-89488095D01*
X130833333Y-89392857D01*
X130833333Y-89154761D01*
X130880952Y-89059523D01*
X130928571Y-89011904D01*
X131023809Y-88964285D01*
X131261904Y-88964285D01*
X131357142Y-89011904D01*
X131404761Y-89059523D01*
X131452380Y-89154761D01*
X131452380Y-89392857D01*
X131404761Y-89488095D01*
X131357142Y-89535714D01*
G04 #@! TO.C,R4*
X157648847Y-85604583D02*
X157172657Y-85937917D01*
X157648847Y-86176012D02*
X156648847Y-86176012D01*
X156648847Y-85795059D01*
X156696467Y-85699821D01*
X156744086Y-85652202D01*
X156839324Y-85604583D01*
X156982181Y-85604583D01*
X157077419Y-85652202D01*
X157125038Y-85699821D01*
X157172657Y-85795059D01*
X157172657Y-86176012D01*
X156982181Y-84747440D02*
X157648847Y-84747440D01*
X156601228Y-84985536D02*
X157315514Y-85223631D01*
X157315514Y-84604583D01*
G04 #@! TO.C,R3*
X129452380Y-84904166D02*
X128976190Y-85237500D01*
X129452380Y-85475595D02*
X128452380Y-85475595D01*
X128452380Y-85094642D01*
X128500000Y-84999404D01*
X128547619Y-84951785D01*
X128642857Y-84904166D01*
X128785714Y-84904166D01*
X128880952Y-84951785D01*
X128928571Y-84999404D01*
X128976190Y-85094642D01*
X128976190Y-85475595D01*
X128452380Y-84570833D02*
X128452380Y-83951785D01*
X128833333Y-84285119D01*
X128833333Y-84142261D01*
X128880952Y-84047023D01*
X128928571Y-83999404D01*
X129023809Y-83951785D01*
X129261904Y-83951785D01*
X129357142Y-83999404D01*
X129404761Y-84047023D01*
X129452380Y-84142261D01*
X129452380Y-84427976D01*
X129404761Y-84523214D01*
X129357142Y-84570833D01*
G04 #@! TO.C,R1*
X154755913Y-71680760D02*
X154279723Y-72014094D01*
X154755913Y-72252189D02*
X153755913Y-72252189D01*
X153755913Y-71871236D01*
X153803533Y-71775998D01*
X153851152Y-71728379D01*
X153946390Y-71680760D01*
X154089247Y-71680760D01*
X154184485Y-71728379D01*
X154232104Y-71775998D01*
X154279723Y-71871236D01*
X154279723Y-72252189D01*
X154755913Y-70728379D02*
X154755913Y-71299808D01*
X154755913Y-71014094D02*
X153755913Y-71014094D01*
X153898771Y-71109332D01*
X153994009Y-71204570D01*
X154041628Y-71299808D01*
G04 #@! TO.C,R25*
X176107142Y-101952380D02*
X175773809Y-101476190D01*
X175535714Y-101952380D02*
X175535714Y-100952380D01*
X175916666Y-100952380D01*
X176011904Y-101000000D01*
X176059523Y-101047619D01*
X176107142Y-101142857D01*
X176107142Y-101285714D01*
X176059523Y-101380952D01*
X176011904Y-101428571D01*
X175916666Y-101476190D01*
X175535714Y-101476190D01*
X176488095Y-101047619D02*
X176535714Y-101000000D01*
X176630952Y-100952380D01*
X176869047Y-100952380D01*
X176964285Y-101000000D01*
X177011904Y-101047619D01*
X177059523Y-101142857D01*
X177059523Y-101238095D01*
X177011904Y-101380952D01*
X176440476Y-101952380D01*
X177059523Y-101952380D01*
X177964285Y-100952380D02*
X177488095Y-100952380D01*
X177440476Y-101428571D01*
X177488095Y-101380952D01*
X177583333Y-101333333D01*
X177821428Y-101333333D01*
X177916666Y-101380952D01*
X177964285Y-101428571D01*
X178011904Y-101523809D01*
X178011904Y-101761904D01*
X177964285Y-101857142D01*
X177916666Y-101904761D01*
X177821428Y-101952380D01*
X177583333Y-101952380D01*
X177488095Y-101904761D01*
X177440476Y-101857142D01*
G04 #@! TO.C,D1*
X166952380Y-98488095D02*
X165952380Y-98488095D01*
X165952380Y-98250000D01*
X166000000Y-98107142D01*
X166095238Y-98011904D01*
X166190476Y-97964285D01*
X166380952Y-97916666D01*
X166523809Y-97916666D01*
X166714285Y-97964285D01*
X166809523Y-98011904D01*
X166904761Y-98107142D01*
X166952380Y-98250000D01*
X166952380Y-98488095D01*
X166952380Y-96964285D02*
X166952380Y-97535714D01*
X166952380Y-97250000D02*
X165952380Y-97250000D01*
X166095238Y-97345238D01*
X166190476Y-97440476D01*
X166238095Y-97535714D01*
G04 #@! TO.C,D2*
X161011904Y-68202380D02*
X161011904Y-67202380D01*
X161250000Y-67202380D01*
X161392857Y-67250000D01*
X161488095Y-67345238D01*
X161535714Y-67440476D01*
X161583333Y-67630952D01*
X161583333Y-67773809D01*
X161535714Y-67964285D01*
X161488095Y-68059523D01*
X161392857Y-68154761D01*
X161250000Y-68202380D01*
X161011904Y-68202380D01*
X161964285Y-67297619D02*
X162011904Y-67250000D01*
X162107142Y-67202380D01*
X162345238Y-67202380D01*
X162440476Y-67250000D01*
X162488095Y-67297619D01*
X162535714Y-67392857D01*
X162535714Y-67488095D01*
X162488095Y-67630952D01*
X161916666Y-68202380D01*
X162535714Y-68202380D01*
G04 #@! TO.C,D3*
X167952380Y-94238095D02*
X166952380Y-94238095D01*
X166952380Y-94000000D01*
X167000000Y-93857142D01*
X167095238Y-93761904D01*
X167190476Y-93714285D01*
X167380952Y-93666666D01*
X167523809Y-93666666D01*
X167714285Y-93714285D01*
X167809523Y-93761904D01*
X167904761Y-93857142D01*
X167952380Y-94000000D01*
X167952380Y-94238095D01*
X166952380Y-93333333D02*
X166952380Y-92714285D01*
X167333333Y-93047619D01*
X167333333Y-92904761D01*
X167380952Y-92809523D01*
X167428571Y-92761904D01*
X167523809Y-92714285D01*
X167761904Y-92714285D01*
X167857142Y-92761904D01*
X167904761Y-92809523D01*
X167952380Y-92904761D01*
X167952380Y-93190476D01*
X167904761Y-93285714D01*
X167857142Y-93333333D01*
G04 #@! TO.C,D4*
X162011904Y-91202380D02*
X162011904Y-90202380D01*
X162250000Y-90202380D01*
X162392857Y-90250000D01*
X162488095Y-90345238D01*
X162535714Y-90440476D01*
X162583333Y-90630952D01*
X162583333Y-90773809D01*
X162535714Y-90964285D01*
X162488095Y-91059523D01*
X162392857Y-91154761D01*
X162250000Y-91202380D01*
X162011904Y-91202380D01*
X163440476Y-90535714D02*
X163440476Y-91202380D01*
X163202380Y-90154761D02*
X162964285Y-90869047D01*
X163583333Y-90869047D01*
G04 #@! TO.C,U5*
X165202380Y-55261904D02*
X166011904Y-55261904D01*
X166107142Y-55214285D01*
X166154761Y-55166666D01*
X166202380Y-55071428D01*
X166202380Y-54880952D01*
X166154761Y-54785714D01*
X166107142Y-54738095D01*
X166011904Y-54690476D01*
X165202380Y-54690476D01*
X165202380Y-53738095D02*
X165202380Y-54214285D01*
X165678571Y-54261904D01*
X165630952Y-54214285D01*
X165583333Y-54119047D01*
X165583333Y-53880952D01*
X165630952Y-53785714D01*
X165678571Y-53738095D01*
X165773809Y-53690476D01*
X166011904Y-53690476D01*
X166107142Y-53738095D01*
X166154761Y-53785714D01*
X166202380Y-53880952D01*
X166202380Y-54119047D01*
X166154761Y-54214285D01*
X166107142Y-54261904D01*
G04 #@! TO.C,*
G04 #@! TO.C,REF\002A\002A*
X194666666Y-55502380D02*
X194333333Y-55026190D01*
X194095238Y-55502380D02*
X194095238Y-54502380D01*
X194476190Y-54502380D01*
X194571428Y-54550000D01*
X194619047Y-54597619D01*
X194666666Y-54692857D01*
X194666666Y-54835714D01*
X194619047Y-54930952D01*
X194571428Y-54978571D01*
X194476190Y-55026190D01*
X194095238Y-55026190D01*
X195095238Y-54978571D02*
X195428571Y-54978571D01*
X195571428Y-55502380D02*
X195095238Y-55502380D01*
X195095238Y-54502380D01*
X195571428Y-54502380D01*
X196333333Y-54978571D02*
X196000000Y-54978571D01*
X196000000Y-55502380D02*
X196000000Y-54502380D01*
X196476190Y-54502380D01*
X197000000Y-54502380D02*
X197000000Y-54740476D01*
X196761904Y-54645238D02*
X197000000Y-54740476D01*
X197238095Y-54645238D01*
X196857142Y-54930952D02*
X197000000Y-54740476D01*
X197142857Y-54930952D01*
X197761904Y-54502380D02*
X197761904Y-54740476D01*
X197523809Y-54645238D02*
X197761904Y-54740476D01*
X198000000Y-54645238D01*
X197619047Y-54930952D02*
X197761904Y-54740476D01*
X197904761Y-54930952D01*
X148416666Y-85002380D02*
X148083333Y-84526190D01*
X147845238Y-85002380D02*
X147845238Y-84002380D01*
X148226190Y-84002380D01*
X148321428Y-84050000D01*
X148369047Y-84097619D01*
X148416666Y-84192857D01*
X148416666Y-84335714D01*
X148369047Y-84430952D01*
X148321428Y-84478571D01*
X148226190Y-84526190D01*
X147845238Y-84526190D01*
X148845238Y-84478571D02*
X149178571Y-84478571D01*
X149321428Y-85002380D02*
X148845238Y-85002380D01*
X148845238Y-84002380D01*
X149321428Y-84002380D01*
X150083333Y-84478571D02*
X149750000Y-84478571D01*
X149750000Y-85002380D02*
X149750000Y-84002380D01*
X150226190Y-84002380D01*
X150750000Y-84002380D02*
X150750000Y-84240476D01*
X150511904Y-84145238D02*
X150750000Y-84240476D01*
X150988095Y-84145238D01*
X150607142Y-84430952D02*
X150750000Y-84240476D01*
X150892857Y-84430952D01*
X151511904Y-84002380D02*
X151511904Y-84240476D01*
X151273809Y-84145238D02*
X151511904Y-84240476D01*
X151750000Y-84145238D01*
X151369047Y-84430952D02*
X151511904Y-84240476D01*
X151654761Y-84430952D01*
G04 #@! TD*
M02*
