G04 #@! TF.GenerationSoftware,KiCad,Pcbnew,(5.0.1)-3*
G04 #@! TF.CreationDate,2018-11-12T18:53:03-05:00*
G04 #@! TF.ProjectId,ESP32 Windlass,45535033322057696E646C6173732E6B,rev?*
G04 #@! TF.SameCoordinates,Original*
G04 #@! TF.FileFunction,Soldermask,Top*
G04 #@! TF.FilePolarity,Negative*
%FSLAX46Y46*%
G04 Gerber Fmt 4.6, Leading zero omitted, Abs format (unit mm)*
G04 Created by KiCad (PCBNEW (5.0.1)-3) date 11/12/2018 6:53:03 PM*
%MOMM*%
%LPD*%
G01*
G04 APERTURE LIST*
%ADD10C,0.100000*%
G04 APERTURE END LIST*
D10*
G36*
X187922947Y-102355722D02*
X188186833Y-102465027D01*
X188424324Y-102623713D01*
X188626287Y-102825676D01*
X188784973Y-103063167D01*
X188894278Y-103327053D01*
X188950000Y-103607186D01*
X188950000Y-103892814D01*
X188894278Y-104172947D01*
X188784973Y-104436833D01*
X188626287Y-104674324D01*
X188424324Y-104876287D01*
X188186833Y-105034973D01*
X187922947Y-105144278D01*
X187642814Y-105200000D01*
X187357186Y-105200000D01*
X187077053Y-105144278D01*
X186813167Y-105034973D01*
X186575676Y-104876287D01*
X186373713Y-104674324D01*
X186215027Y-104436833D01*
X186105722Y-104172947D01*
X186050000Y-103892814D01*
X186050000Y-103607186D01*
X186105722Y-103327053D01*
X186215027Y-103063167D01*
X186373713Y-102825676D01*
X186575676Y-102623713D01*
X186813167Y-102465027D01*
X187077053Y-102355722D01*
X187357186Y-102300000D01*
X187642814Y-102300000D01*
X187922947Y-102355722D01*
X187922947Y-102355722D01*
G37*
G36*
X170632482Y-102842686D02*
X170677204Y-102856253D01*
X170718433Y-102878290D01*
X170754561Y-102907939D01*
X170784210Y-102944067D01*
X170806247Y-102985296D01*
X170819814Y-103030018D01*
X170825000Y-103082675D01*
X170825000Y-104417325D01*
X170819814Y-104469982D01*
X170806247Y-104514704D01*
X170784210Y-104555933D01*
X170754561Y-104592061D01*
X170718433Y-104621710D01*
X170677204Y-104643747D01*
X170632482Y-104657314D01*
X170579825Y-104662500D01*
X168920175Y-104662500D01*
X168867518Y-104657314D01*
X168822796Y-104643747D01*
X168781567Y-104621710D01*
X168745439Y-104592061D01*
X168715790Y-104555933D01*
X168693753Y-104514704D01*
X168680186Y-104469982D01*
X168675000Y-104417325D01*
X168675000Y-103082675D01*
X168680186Y-103030018D01*
X168693753Y-102985296D01*
X168715790Y-102944067D01*
X168745439Y-102907939D01*
X168781567Y-102878290D01*
X168822796Y-102856253D01*
X168867518Y-102842686D01*
X168920175Y-102837500D01*
X170579825Y-102837500D01*
X170632482Y-102842686D01*
X170632482Y-102842686D01*
G37*
G36*
X166632482Y-102830186D02*
X166677204Y-102843753D01*
X166718433Y-102865790D01*
X166754561Y-102895439D01*
X166784210Y-102931567D01*
X166806247Y-102972796D01*
X166819814Y-103017518D01*
X166825000Y-103070175D01*
X166825000Y-104404825D01*
X166819814Y-104457482D01*
X166806247Y-104502204D01*
X166784210Y-104543433D01*
X166754561Y-104579561D01*
X166718433Y-104609210D01*
X166677204Y-104631247D01*
X166632482Y-104644814D01*
X166579825Y-104650000D01*
X164920175Y-104650000D01*
X164867518Y-104644814D01*
X164822796Y-104631247D01*
X164781567Y-104609210D01*
X164745439Y-104579561D01*
X164715790Y-104543433D01*
X164693753Y-104502204D01*
X164680186Y-104457482D01*
X164675000Y-104404825D01*
X164675000Y-103070175D01*
X164680186Y-103017518D01*
X164693753Y-102972796D01*
X164715790Y-102931567D01*
X164745439Y-102895439D01*
X164781567Y-102865790D01*
X164822796Y-102843753D01*
X164867518Y-102830186D01*
X164920175Y-102825000D01*
X166579825Y-102825000D01*
X166632482Y-102830186D01*
X166632482Y-102830186D01*
G37*
G36*
X173950000Y-104450000D02*
X172550000Y-104450000D01*
X172550000Y-103050000D01*
X173950000Y-103050000D01*
X173950000Y-104450000D01*
X173950000Y-104450000D01*
G37*
G36*
X179207482Y-102180186D02*
X179252204Y-102193753D01*
X179293433Y-102215790D01*
X179329561Y-102245439D01*
X179359210Y-102281567D01*
X179381247Y-102322796D01*
X179394814Y-102367518D01*
X179400000Y-102420175D01*
X179400000Y-104079825D01*
X179394814Y-104132482D01*
X179381247Y-104177204D01*
X179359210Y-104218433D01*
X179329561Y-104254561D01*
X179293433Y-104284210D01*
X179252204Y-104306247D01*
X179207482Y-104319814D01*
X179154825Y-104325000D01*
X177820175Y-104325000D01*
X177767518Y-104319814D01*
X177722796Y-104306247D01*
X177681567Y-104284210D01*
X177645439Y-104254561D01*
X177615790Y-104218433D01*
X177593753Y-104177204D01*
X177580186Y-104132482D01*
X177575000Y-104079825D01*
X177575000Y-102420175D01*
X177580186Y-102367518D01*
X177593753Y-102322796D01*
X177615790Y-102281567D01*
X177645439Y-102245439D01*
X177681567Y-102215790D01*
X177722796Y-102193753D01*
X177767518Y-102180186D01*
X177820175Y-102175000D01*
X179154825Y-102175000D01*
X179207482Y-102180186D01*
X179207482Y-102180186D01*
G37*
G36*
X176232482Y-102180186D02*
X176277204Y-102193753D01*
X176318433Y-102215790D01*
X176354561Y-102245439D01*
X176384210Y-102281567D01*
X176406247Y-102322796D01*
X176419814Y-102367518D01*
X176425000Y-102420175D01*
X176425000Y-104079825D01*
X176419814Y-104132482D01*
X176406247Y-104177204D01*
X176384210Y-104218433D01*
X176354561Y-104254561D01*
X176318433Y-104284210D01*
X176277204Y-104306247D01*
X176232482Y-104319814D01*
X176179825Y-104325000D01*
X174845175Y-104325000D01*
X174792518Y-104319814D01*
X174747796Y-104306247D01*
X174706567Y-104284210D01*
X174670439Y-104254561D01*
X174640790Y-104218433D01*
X174618753Y-104177204D01*
X174605186Y-104132482D01*
X174600000Y-104079825D01*
X174600000Y-102420175D01*
X174605186Y-102367518D01*
X174618753Y-102322796D01*
X174640790Y-102281567D01*
X174670439Y-102245439D01*
X174706567Y-102215790D01*
X174747796Y-102193753D01*
X174792518Y-102180186D01*
X174845175Y-102175000D01*
X176179825Y-102175000D01*
X176232482Y-102180186D01*
X176232482Y-102180186D01*
G37*
G36*
X173950000Y-101950000D02*
X172550000Y-101950000D01*
X172550000Y-100550000D01*
X173950000Y-100550000D01*
X173950000Y-101950000D01*
X173950000Y-101950000D01*
G37*
G36*
X170632482Y-99867686D02*
X170677204Y-99881253D01*
X170718433Y-99903290D01*
X170754561Y-99932939D01*
X170784210Y-99969067D01*
X170806247Y-100010296D01*
X170819814Y-100055018D01*
X170825000Y-100107675D01*
X170825000Y-101442325D01*
X170819814Y-101494982D01*
X170806247Y-101539704D01*
X170784210Y-101580933D01*
X170754561Y-101617061D01*
X170718433Y-101646710D01*
X170677204Y-101668747D01*
X170632482Y-101682314D01*
X170579825Y-101687500D01*
X168920175Y-101687500D01*
X168867518Y-101682314D01*
X168822796Y-101668747D01*
X168781567Y-101646710D01*
X168745439Y-101617061D01*
X168715790Y-101580933D01*
X168693753Y-101539704D01*
X168680186Y-101494982D01*
X168675000Y-101442325D01*
X168675000Y-100107675D01*
X168680186Y-100055018D01*
X168693753Y-100010296D01*
X168715790Y-99969067D01*
X168745439Y-99932939D01*
X168781567Y-99903290D01*
X168822796Y-99881253D01*
X168867518Y-99867686D01*
X168920175Y-99862500D01*
X170579825Y-99862500D01*
X170632482Y-99867686D01*
X170632482Y-99867686D01*
G37*
G36*
X166632482Y-99855186D02*
X166677204Y-99868753D01*
X166718433Y-99890790D01*
X166754561Y-99920439D01*
X166784210Y-99956567D01*
X166806247Y-99997796D01*
X166819814Y-100042518D01*
X166825000Y-100095175D01*
X166825000Y-101429825D01*
X166819814Y-101482482D01*
X166806247Y-101527204D01*
X166784210Y-101568433D01*
X166754561Y-101604561D01*
X166718433Y-101634210D01*
X166677204Y-101656247D01*
X166632482Y-101669814D01*
X166579825Y-101675000D01*
X164920175Y-101675000D01*
X164867518Y-101669814D01*
X164822796Y-101656247D01*
X164781567Y-101634210D01*
X164745439Y-101604561D01*
X164715790Y-101568433D01*
X164693753Y-101527204D01*
X164680186Y-101482482D01*
X164675000Y-101429825D01*
X164675000Y-100095175D01*
X164680186Y-100042518D01*
X164693753Y-99997796D01*
X164715790Y-99956567D01*
X164745439Y-99920439D01*
X164781567Y-99890790D01*
X164822796Y-99868753D01*
X164867518Y-99855186D01*
X164920175Y-99850000D01*
X166579825Y-99850000D01*
X166632482Y-99855186D01*
X166632482Y-99855186D01*
G37*
G36*
X196324449Y-96367518D02*
X196700054Y-96442230D01*
X197136826Y-96623147D01*
X197529911Y-96885798D01*
X197864202Y-97220089D01*
X198126853Y-97613174D01*
X198307770Y-98049946D01*
X198362041Y-98322787D01*
X198400000Y-98513619D01*
X198400000Y-98986381D01*
X198383907Y-99067287D01*
X198307770Y-99450054D01*
X198126853Y-99886826D01*
X197864202Y-100279911D01*
X197529911Y-100614202D01*
X197136826Y-100876853D01*
X196700054Y-101057770D01*
X196351904Y-101127021D01*
X196236381Y-101150000D01*
X195763619Y-101150000D01*
X195648096Y-101127021D01*
X195299946Y-101057770D01*
X194863174Y-100876853D01*
X194470089Y-100614202D01*
X194135798Y-100279911D01*
X193873147Y-99886826D01*
X193692230Y-99450054D01*
X193616093Y-99067287D01*
X193600000Y-98986381D01*
X193600000Y-98513619D01*
X193637959Y-98322787D01*
X193692230Y-98049946D01*
X193873147Y-97613174D01*
X194135798Y-97220089D01*
X194470089Y-96885798D01*
X194863174Y-96623147D01*
X195299946Y-96442230D01*
X195675551Y-96367518D01*
X195763619Y-96350000D01*
X196236381Y-96350000D01*
X196324449Y-96367518D01*
X196324449Y-96367518D01*
G37*
G36*
X162957482Y-97180186D02*
X163002204Y-97193753D01*
X163043433Y-97215790D01*
X163079561Y-97245439D01*
X163109210Y-97281567D01*
X163131247Y-97322796D01*
X163144814Y-97367518D01*
X163150000Y-97420175D01*
X163150000Y-99079825D01*
X163144814Y-99132482D01*
X163131247Y-99177204D01*
X163109210Y-99218433D01*
X163079561Y-99254561D01*
X163043433Y-99284210D01*
X163002204Y-99306247D01*
X162957482Y-99319814D01*
X162904825Y-99325000D01*
X161570175Y-99325000D01*
X161517518Y-99319814D01*
X161472796Y-99306247D01*
X161431567Y-99284210D01*
X161395439Y-99254561D01*
X161365790Y-99218433D01*
X161343753Y-99177204D01*
X161330186Y-99132482D01*
X161325000Y-99079825D01*
X161325000Y-97420175D01*
X161330186Y-97367518D01*
X161343753Y-97322796D01*
X161365790Y-97281567D01*
X161395439Y-97245439D01*
X161431567Y-97215790D01*
X161472796Y-97193753D01*
X161517518Y-97180186D01*
X161570175Y-97175000D01*
X162904825Y-97175000D01*
X162957482Y-97180186D01*
X162957482Y-97180186D01*
G37*
G36*
X159982482Y-97180186D02*
X160027204Y-97193753D01*
X160068433Y-97215790D01*
X160104561Y-97245439D01*
X160134210Y-97281567D01*
X160156247Y-97322796D01*
X160169814Y-97367518D01*
X160175000Y-97420175D01*
X160175000Y-99079825D01*
X160169814Y-99132482D01*
X160156247Y-99177204D01*
X160134210Y-99218433D01*
X160104561Y-99254561D01*
X160068433Y-99284210D01*
X160027204Y-99306247D01*
X159982482Y-99319814D01*
X159929825Y-99325000D01*
X158595175Y-99325000D01*
X158542518Y-99319814D01*
X158497796Y-99306247D01*
X158456567Y-99284210D01*
X158420439Y-99254561D01*
X158390790Y-99218433D01*
X158368753Y-99177204D01*
X158355186Y-99132482D01*
X158350000Y-99079825D01*
X158350000Y-97420175D01*
X158355186Y-97367518D01*
X158368753Y-97322796D01*
X158390790Y-97281567D01*
X158420439Y-97245439D01*
X158456567Y-97215790D01*
X158497796Y-97193753D01*
X158542518Y-97180186D01*
X158595175Y-97175000D01*
X159929825Y-97175000D01*
X159982482Y-97180186D01*
X159982482Y-97180186D01*
G37*
G36*
X154232482Y-97180186D02*
X154277204Y-97193753D01*
X154318433Y-97215790D01*
X154354561Y-97245439D01*
X154384210Y-97281567D01*
X154406247Y-97322796D01*
X154419814Y-97367518D01*
X154425000Y-97420175D01*
X154425000Y-99079825D01*
X154419814Y-99132482D01*
X154406247Y-99177204D01*
X154384210Y-99218433D01*
X154354561Y-99254561D01*
X154318433Y-99284210D01*
X154277204Y-99306247D01*
X154232482Y-99319814D01*
X154179825Y-99325000D01*
X152845175Y-99325000D01*
X152792518Y-99319814D01*
X152747796Y-99306247D01*
X152706567Y-99284210D01*
X152670439Y-99254561D01*
X152640790Y-99218433D01*
X152618753Y-99177204D01*
X152605186Y-99132482D01*
X152600000Y-99079825D01*
X152600000Y-97420175D01*
X152605186Y-97367518D01*
X152618753Y-97322796D01*
X152640790Y-97281567D01*
X152670439Y-97245439D01*
X152706567Y-97215790D01*
X152747796Y-97193753D01*
X152792518Y-97180186D01*
X152845175Y-97175000D01*
X154179825Y-97175000D01*
X154232482Y-97180186D01*
X154232482Y-97180186D01*
G37*
G36*
X157207482Y-97180186D02*
X157252204Y-97193753D01*
X157293433Y-97215790D01*
X157329561Y-97245439D01*
X157359210Y-97281567D01*
X157381247Y-97322796D01*
X157394814Y-97367518D01*
X157400000Y-97420175D01*
X157400000Y-99079825D01*
X157394814Y-99132482D01*
X157381247Y-99177204D01*
X157359210Y-99218433D01*
X157329561Y-99254561D01*
X157293433Y-99284210D01*
X157252204Y-99306247D01*
X157207482Y-99319814D01*
X157154825Y-99325000D01*
X155820175Y-99325000D01*
X155767518Y-99319814D01*
X155722796Y-99306247D01*
X155681567Y-99284210D01*
X155645439Y-99254561D01*
X155615790Y-99218433D01*
X155593753Y-99177204D01*
X155580186Y-99132482D01*
X155575000Y-99079825D01*
X155575000Y-97420175D01*
X155580186Y-97367518D01*
X155593753Y-97322796D01*
X155615790Y-97281567D01*
X155645439Y-97245439D01*
X155681567Y-97215790D01*
X155722796Y-97193753D01*
X155767518Y-97180186D01*
X155820175Y-97175000D01*
X157154825Y-97175000D01*
X157207482Y-97180186D01*
X157207482Y-97180186D01*
G37*
G36*
X168700000Y-98700000D02*
X167300000Y-98700000D01*
X167300000Y-97300000D01*
X168700000Y-97300000D01*
X168700000Y-98700000D01*
X168700000Y-98700000D01*
G37*
G36*
X171732482Y-96180186D02*
X171777204Y-96193753D01*
X171818433Y-96215790D01*
X171854561Y-96245439D01*
X171884210Y-96281567D01*
X171906247Y-96322796D01*
X171919814Y-96367518D01*
X171925000Y-96420175D01*
X171925000Y-98079825D01*
X171919814Y-98132482D01*
X171906247Y-98177204D01*
X171884210Y-98218433D01*
X171854561Y-98254561D01*
X171818433Y-98284210D01*
X171777204Y-98306247D01*
X171732482Y-98319814D01*
X171679825Y-98325000D01*
X170345175Y-98325000D01*
X170292518Y-98319814D01*
X170247796Y-98306247D01*
X170206567Y-98284210D01*
X170170439Y-98254561D01*
X170140790Y-98218433D01*
X170118753Y-98177204D01*
X170105186Y-98132482D01*
X170100000Y-98079825D01*
X170100000Y-96420175D01*
X170105186Y-96367518D01*
X170118753Y-96322796D01*
X170140790Y-96281567D01*
X170170439Y-96245439D01*
X170206567Y-96215790D01*
X170247796Y-96193753D01*
X170292518Y-96180186D01*
X170345175Y-96175000D01*
X171679825Y-96175000D01*
X171732482Y-96180186D01*
X171732482Y-96180186D01*
G37*
G36*
X174707482Y-96180186D02*
X174752204Y-96193753D01*
X174793433Y-96215790D01*
X174829561Y-96245439D01*
X174859210Y-96281567D01*
X174881247Y-96322796D01*
X174894814Y-96367518D01*
X174900000Y-96420175D01*
X174900000Y-98079825D01*
X174894814Y-98132482D01*
X174881247Y-98177204D01*
X174859210Y-98218433D01*
X174829561Y-98254561D01*
X174793433Y-98284210D01*
X174752204Y-98306247D01*
X174707482Y-98319814D01*
X174654825Y-98325000D01*
X173320175Y-98325000D01*
X173267518Y-98319814D01*
X173222796Y-98306247D01*
X173181567Y-98284210D01*
X173145439Y-98254561D01*
X173115790Y-98218433D01*
X173093753Y-98177204D01*
X173080186Y-98132482D01*
X173075000Y-98079825D01*
X173075000Y-96420175D01*
X173080186Y-96367518D01*
X173093753Y-96322796D01*
X173115790Y-96281567D01*
X173145439Y-96245439D01*
X173181567Y-96215790D01*
X173222796Y-96193753D01*
X173267518Y-96180186D01*
X173320175Y-96175000D01*
X174654825Y-96175000D01*
X174707482Y-96180186D01*
X174707482Y-96180186D01*
G37*
G36*
X134882482Y-96092686D02*
X134927204Y-96106253D01*
X134968433Y-96128290D01*
X135004561Y-96157939D01*
X135034210Y-96194067D01*
X135056247Y-96235296D01*
X135069814Y-96280018D01*
X135075000Y-96332675D01*
X135075000Y-97667325D01*
X135069814Y-97719982D01*
X135056247Y-97764704D01*
X135034210Y-97805933D01*
X135004561Y-97842061D01*
X134968433Y-97871710D01*
X134927204Y-97893747D01*
X134882482Y-97907314D01*
X134829825Y-97912500D01*
X133170175Y-97912500D01*
X133117518Y-97907314D01*
X133072796Y-97893747D01*
X133031567Y-97871710D01*
X132995439Y-97842061D01*
X132965790Y-97805933D01*
X132943753Y-97764704D01*
X132930186Y-97719982D01*
X132925000Y-97667325D01*
X132925000Y-96332675D01*
X132930186Y-96280018D01*
X132943753Y-96235296D01*
X132965790Y-96194067D01*
X132995439Y-96157939D01*
X133031567Y-96128290D01*
X133072796Y-96106253D01*
X133117518Y-96092686D01*
X133170175Y-96087500D01*
X134829825Y-96087500D01*
X134882482Y-96092686D01*
X134882482Y-96092686D01*
G37*
G36*
X124800000Y-97900000D02*
X122800000Y-97900000D01*
X122800000Y-96100000D01*
X124800000Y-96100000D01*
X124800000Y-97900000D01*
X124800000Y-97900000D01*
G37*
G36*
X132000000Y-97900000D02*
X130000000Y-97900000D01*
X130000000Y-96100000D01*
X132000000Y-96100000D01*
X132000000Y-97900000D01*
X132000000Y-97900000D01*
G37*
G36*
X166450000Y-96700000D02*
X165050000Y-96700000D01*
X165050000Y-95300000D01*
X166450000Y-95300000D01*
X166450000Y-96700000D01*
X166450000Y-96700000D01*
G37*
G36*
X168700000Y-96200000D02*
X167300000Y-96200000D01*
X167300000Y-94800000D01*
X168700000Y-94800000D01*
X168700000Y-96200000D01*
X168700000Y-96200000D01*
G37*
G36*
X187922947Y-92355722D02*
X188186833Y-92465027D01*
X188424324Y-92623713D01*
X188626287Y-92825676D01*
X188784973Y-93063167D01*
X188894278Y-93327053D01*
X188950000Y-93607186D01*
X188950000Y-93892814D01*
X188894278Y-94172947D01*
X188784973Y-94436833D01*
X188626287Y-94674324D01*
X188424324Y-94876287D01*
X188186833Y-95034973D01*
X187922947Y-95144278D01*
X187642814Y-95200000D01*
X187357186Y-95200000D01*
X187077053Y-95144278D01*
X186813167Y-95034973D01*
X186575676Y-94876287D01*
X186373713Y-94674324D01*
X186215027Y-94436833D01*
X186105722Y-94172947D01*
X186050000Y-93892814D01*
X186050000Y-93607186D01*
X186105722Y-93327053D01*
X186215027Y-93063167D01*
X186373713Y-92825676D01*
X186575676Y-92623713D01*
X186813167Y-92465027D01*
X187077053Y-92355722D01*
X187357186Y-92300000D01*
X187642814Y-92300000D01*
X187922947Y-92355722D01*
X187922947Y-92355722D01*
G37*
G36*
X174707482Y-92930186D02*
X174752204Y-92943753D01*
X174793433Y-92965790D01*
X174829561Y-92995439D01*
X174859210Y-93031567D01*
X174881247Y-93072796D01*
X174894814Y-93117518D01*
X174900000Y-93170175D01*
X174900000Y-94829825D01*
X174894814Y-94882482D01*
X174881247Y-94927204D01*
X174859210Y-94968433D01*
X174829561Y-95004561D01*
X174793433Y-95034210D01*
X174752204Y-95056247D01*
X174707482Y-95069814D01*
X174654825Y-95075000D01*
X173320175Y-95075000D01*
X173267518Y-95069814D01*
X173222796Y-95056247D01*
X173181567Y-95034210D01*
X173145439Y-95004561D01*
X173115790Y-94968433D01*
X173093753Y-94927204D01*
X173080186Y-94882482D01*
X173075000Y-94829825D01*
X173075000Y-93170175D01*
X173080186Y-93117518D01*
X173093753Y-93072796D01*
X173115790Y-93031567D01*
X173145439Y-92995439D01*
X173181567Y-92965790D01*
X173222796Y-92943753D01*
X173267518Y-92930186D01*
X173320175Y-92925000D01*
X174654825Y-92925000D01*
X174707482Y-92930186D01*
X174707482Y-92930186D01*
G37*
G36*
X171732482Y-92930186D02*
X171777204Y-92943753D01*
X171818433Y-92965790D01*
X171854561Y-92995439D01*
X171884210Y-93031567D01*
X171906247Y-93072796D01*
X171919814Y-93117518D01*
X171925000Y-93170175D01*
X171925000Y-94829825D01*
X171919814Y-94882482D01*
X171906247Y-94927204D01*
X171884210Y-94968433D01*
X171854561Y-95004561D01*
X171818433Y-95034210D01*
X171777204Y-95056247D01*
X171732482Y-95069814D01*
X171679825Y-95075000D01*
X170345175Y-95075000D01*
X170292518Y-95069814D01*
X170247796Y-95056247D01*
X170206567Y-95034210D01*
X170170439Y-95004561D01*
X170140790Y-94968433D01*
X170118753Y-94927204D01*
X170105186Y-94882482D01*
X170100000Y-94829825D01*
X170100000Y-93170175D01*
X170105186Y-93117518D01*
X170118753Y-93072796D01*
X170140790Y-93031567D01*
X170170439Y-92995439D01*
X170206567Y-92965790D01*
X170247796Y-92943753D01*
X170292518Y-92930186D01*
X170345175Y-92925000D01*
X171679825Y-92925000D01*
X171732482Y-92930186D01*
X171732482Y-92930186D01*
G37*
G36*
X134882482Y-93117686D02*
X134927204Y-93131253D01*
X134968433Y-93153290D01*
X135004561Y-93182939D01*
X135034210Y-93219067D01*
X135056247Y-93260296D01*
X135069814Y-93305018D01*
X135075000Y-93357675D01*
X135075000Y-94692325D01*
X135069814Y-94744982D01*
X135056247Y-94789704D01*
X135034210Y-94830933D01*
X135004561Y-94867061D01*
X134968433Y-94896710D01*
X134927204Y-94918747D01*
X134882482Y-94932314D01*
X134829825Y-94937500D01*
X133170175Y-94937500D01*
X133117518Y-94932314D01*
X133072796Y-94918747D01*
X133031567Y-94896710D01*
X132995439Y-94867061D01*
X132965790Y-94830933D01*
X132943753Y-94789704D01*
X132930186Y-94744982D01*
X132925000Y-94692325D01*
X132925000Y-93357675D01*
X132930186Y-93305018D01*
X132943753Y-93260296D01*
X132965790Y-93219067D01*
X132995439Y-93182939D01*
X133031567Y-93153290D01*
X133072796Y-93131253D01*
X133117518Y-93117686D01*
X133170175Y-93112500D01*
X134829825Y-93112500D01*
X134882482Y-93117686D01*
X134882482Y-93117686D01*
G37*
G36*
X124800000Y-94900000D02*
X122800000Y-94900000D01*
X122800000Y-93100000D01*
X124800000Y-93100000D01*
X124800000Y-94900000D01*
X124800000Y-94900000D01*
G37*
G36*
X132000000Y-94900000D02*
X130000000Y-94900000D01*
X130000000Y-93100000D01*
X132000000Y-93100000D01*
X132000000Y-94900000D01*
X132000000Y-94900000D01*
G37*
G36*
X157207482Y-92680186D02*
X157252204Y-92693753D01*
X157293433Y-92715790D01*
X157329561Y-92745439D01*
X157359210Y-92781567D01*
X157381247Y-92822796D01*
X157394814Y-92867518D01*
X157400000Y-92920175D01*
X157400000Y-94579825D01*
X157394814Y-94632482D01*
X157381247Y-94677204D01*
X157359210Y-94718433D01*
X157329561Y-94754561D01*
X157293433Y-94784210D01*
X157252204Y-94806247D01*
X157207482Y-94819814D01*
X157154825Y-94825000D01*
X155820175Y-94825000D01*
X155767518Y-94819814D01*
X155722796Y-94806247D01*
X155681567Y-94784210D01*
X155645439Y-94754561D01*
X155615790Y-94718433D01*
X155593753Y-94677204D01*
X155580186Y-94632482D01*
X155575000Y-94579825D01*
X155575000Y-92920175D01*
X155580186Y-92867518D01*
X155593753Y-92822796D01*
X155615790Y-92781567D01*
X155645439Y-92745439D01*
X155681567Y-92715790D01*
X155722796Y-92693753D01*
X155767518Y-92680186D01*
X155820175Y-92675000D01*
X157154825Y-92675000D01*
X157207482Y-92680186D01*
X157207482Y-92680186D01*
G37*
G36*
X159982482Y-92680186D02*
X160027204Y-92693753D01*
X160068433Y-92715790D01*
X160104561Y-92745439D01*
X160134210Y-92781567D01*
X160156247Y-92822796D01*
X160169814Y-92867518D01*
X160175000Y-92920175D01*
X160175000Y-94579825D01*
X160169814Y-94632482D01*
X160156247Y-94677204D01*
X160134210Y-94718433D01*
X160104561Y-94754561D01*
X160068433Y-94784210D01*
X160027204Y-94806247D01*
X159982482Y-94819814D01*
X159929825Y-94825000D01*
X158595175Y-94825000D01*
X158542518Y-94819814D01*
X158497796Y-94806247D01*
X158456567Y-94784210D01*
X158420439Y-94754561D01*
X158390790Y-94718433D01*
X158368753Y-94677204D01*
X158355186Y-94632482D01*
X158350000Y-94579825D01*
X158350000Y-92920175D01*
X158355186Y-92867518D01*
X158368753Y-92822796D01*
X158390790Y-92781567D01*
X158420439Y-92745439D01*
X158456567Y-92715790D01*
X158497796Y-92693753D01*
X158542518Y-92680186D01*
X158595175Y-92675000D01*
X159929825Y-92675000D01*
X159982482Y-92680186D01*
X159982482Y-92680186D01*
G37*
G36*
X154232482Y-92680186D02*
X154277204Y-92693753D01*
X154318433Y-92715790D01*
X154354561Y-92745439D01*
X154384210Y-92781567D01*
X154406247Y-92822796D01*
X154419814Y-92867518D01*
X154425000Y-92920175D01*
X154425000Y-94579825D01*
X154419814Y-94632482D01*
X154406247Y-94677204D01*
X154384210Y-94718433D01*
X154354561Y-94754561D01*
X154318433Y-94784210D01*
X154277204Y-94806247D01*
X154232482Y-94819814D01*
X154179825Y-94825000D01*
X152845175Y-94825000D01*
X152792518Y-94819814D01*
X152747796Y-94806247D01*
X152706567Y-94784210D01*
X152670439Y-94754561D01*
X152640790Y-94718433D01*
X152618753Y-94677204D01*
X152605186Y-94632482D01*
X152600000Y-94579825D01*
X152600000Y-92920175D01*
X152605186Y-92867518D01*
X152618753Y-92822796D01*
X152640790Y-92781567D01*
X152670439Y-92745439D01*
X152706567Y-92715790D01*
X152747796Y-92693753D01*
X152792518Y-92680186D01*
X152845175Y-92675000D01*
X154179825Y-92675000D01*
X154232482Y-92680186D01*
X154232482Y-92680186D01*
G37*
G36*
X162957482Y-92680186D02*
X163002204Y-92693753D01*
X163043433Y-92715790D01*
X163079561Y-92745439D01*
X163109210Y-92781567D01*
X163131247Y-92822796D01*
X163144814Y-92867518D01*
X163150000Y-92920175D01*
X163150000Y-94579825D01*
X163144814Y-94632482D01*
X163131247Y-94677204D01*
X163109210Y-94718433D01*
X163079561Y-94754561D01*
X163043433Y-94784210D01*
X163002204Y-94806247D01*
X162957482Y-94819814D01*
X162904825Y-94825000D01*
X161570175Y-94825000D01*
X161517518Y-94819814D01*
X161472796Y-94806247D01*
X161431567Y-94784210D01*
X161395439Y-94754561D01*
X161365790Y-94718433D01*
X161343753Y-94677204D01*
X161330186Y-94632482D01*
X161325000Y-94579825D01*
X161325000Y-92920175D01*
X161330186Y-92867518D01*
X161343753Y-92822796D01*
X161365790Y-92781567D01*
X161395439Y-92745439D01*
X161431567Y-92715790D01*
X161472796Y-92693753D01*
X161517518Y-92680186D01*
X161570175Y-92675000D01*
X162904825Y-92675000D01*
X162957482Y-92680186D01*
X162957482Y-92680186D01*
G37*
G36*
X166450000Y-94200000D02*
X165050000Y-94200000D01*
X165050000Y-92800000D01*
X166450000Y-92800000D01*
X166450000Y-94200000D01*
X166450000Y-94200000D01*
G37*
G36*
X126382482Y-90330186D02*
X126427204Y-90343753D01*
X126468433Y-90365790D01*
X126504561Y-90395439D01*
X126534210Y-90431567D01*
X126556247Y-90472796D01*
X126569814Y-90517518D01*
X126575000Y-90570175D01*
X126575000Y-91904825D01*
X126569814Y-91957482D01*
X126556247Y-92002204D01*
X126534210Y-92043433D01*
X126504561Y-92079561D01*
X126468433Y-92109210D01*
X126427204Y-92131247D01*
X126382482Y-92144814D01*
X126329825Y-92150000D01*
X124670175Y-92150000D01*
X124617518Y-92144814D01*
X124572796Y-92131247D01*
X124531567Y-92109210D01*
X124495439Y-92079561D01*
X124465790Y-92043433D01*
X124443753Y-92002204D01*
X124430186Y-91957482D01*
X124425000Y-91904825D01*
X124425000Y-90570175D01*
X124430186Y-90517518D01*
X124443753Y-90472796D01*
X124465790Y-90431567D01*
X124495439Y-90395439D01*
X124531567Y-90365790D01*
X124572796Y-90343753D01*
X124617518Y-90330186D01*
X124670175Y-90325000D01*
X126329825Y-90325000D01*
X126382482Y-90330186D01*
X126382482Y-90330186D01*
G37*
G36*
X129882482Y-90317686D02*
X129927204Y-90331253D01*
X129968433Y-90353290D01*
X130004561Y-90382939D01*
X130034210Y-90419067D01*
X130056247Y-90460296D01*
X130069814Y-90505018D01*
X130075000Y-90557675D01*
X130075000Y-91892325D01*
X130069814Y-91944982D01*
X130056247Y-91989704D01*
X130034210Y-92030933D01*
X130004561Y-92067061D01*
X129968433Y-92096710D01*
X129927204Y-92118747D01*
X129882482Y-92132314D01*
X129829825Y-92137500D01*
X128170175Y-92137500D01*
X128117518Y-92132314D01*
X128072796Y-92118747D01*
X128031567Y-92096710D01*
X127995439Y-92067061D01*
X127965790Y-92030933D01*
X127943753Y-91989704D01*
X127930186Y-91944982D01*
X127925000Y-91892325D01*
X127925000Y-90557675D01*
X127930186Y-90505018D01*
X127943753Y-90460296D01*
X127965790Y-90419067D01*
X127995439Y-90382939D01*
X128031567Y-90353290D01*
X128072796Y-90331253D01*
X128117518Y-90317686D01*
X128170175Y-90312500D01*
X129829825Y-90312500D01*
X129882482Y-90317686D01*
X129882482Y-90317686D01*
G37*
G36*
X137632482Y-89842686D02*
X137677204Y-89856253D01*
X137718433Y-89878290D01*
X137754561Y-89907939D01*
X137784210Y-89944067D01*
X137806247Y-89985296D01*
X137819814Y-90030018D01*
X137825000Y-90082675D01*
X137825000Y-91417325D01*
X137819814Y-91469982D01*
X137806247Y-91514704D01*
X137784210Y-91555933D01*
X137754561Y-91592061D01*
X137718433Y-91621710D01*
X137677204Y-91643747D01*
X137632482Y-91657314D01*
X137579825Y-91662500D01*
X135920175Y-91662500D01*
X135867518Y-91657314D01*
X135822796Y-91643747D01*
X135781567Y-91621710D01*
X135745439Y-91592061D01*
X135715790Y-91555933D01*
X135693753Y-91514704D01*
X135680186Y-91469982D01*
X135675000Y-91417325D01*
X135675000Y-90082675D01*
X135680186Y-90030018D01*
X135693753Y-89985296D01*
X135715790Y-89944067D01*
X135745439Y-89907939D01*
X135781567Y-89878290D01*
X135822796Y-89856253D01*
X135867518Y-89842686D01*
X135920175Y-89837500D01*
X137579825Y-89837500D01*
X137632482Y-89842686D01*
X137632482Y-89842686D01*
G37*
G36*
X134632482Y-89817686D02*
X134677204Y-89831253D01*
X134718433Y-89853290D01*
X134754561Y-89882939D01*
X134784210Y-89919067D01*
X134806247Y-89960296D01*
X134819814Y-90005018D01*
X134825000Y-90057675D01*
X134825000Y-91392325D01*
X134819814Y-91444982D01*
X134806247Y-91489704D01*
X134784210Y-91530933D01*
X134754561Y-91567061D01*
X134718433Y-91596710D01*
X134677204Y-91618747D01*
X134632482Y-91632314D01*
X134579825Y-91637500D01*
X132920175Y-91637500D01*
X132867518Y-91632314D01*
X132822796Y-91618747D01*
X132781567Y-91596710D01*
X132745439Y-91567061D01*
X132715790Y-91530933D01*
X132693753Y-91489704D01*
X132680186Y-91444982D01*
X132675000Y-91392325D01*
X132675000Y-90057675D01*
X132680186Y-90005018D01*
X132693753Y-89960296D01*
X132715790Y-89919067D01*
X132745439Y-89882939D01*
X132781567Y-89853290D01*
X132822796Y-89831253D01*
X132867518Y-89817686D01*
X132920175Y-89812500D01*
X134579825Y-89812500D01*
X134632482Y-89817686D01*
X134632482Y-89817686D01*
G37*
G36*
X171882482Y-88092686D02*
X171927204Y-88106253D01*
X171968433Y-88128290D01*
X172004561Y-88157939D01*
X172034210Y-88194067D01*
X172056247Y-88235296D01*
X172069814Y-88280018D01*
X172075000Y-88332675D01*
X172075000Y-89667325D01*
X172069814Y-89719982D01*
X172056247Y-89764704D01*
X172034210Y-89805933D01*
X172004561Y-89842061D01*
X171968433Y-89871710D01*
X171927204Y-89893747D01*
X171882482Y-89907314D01*
X171829825Y-89912500D01*
X170170175Y-89912500D01*
X170117518Y-89907314D01*
X170072796Y-89893747D01*
X170031567Y-89871710D01*
X169995439Y-89842061D01*
X169965790Y-89805933D01*
X169943753Y-89764704D01*
X169930186Y-89719982D01*
X169925000Y-89667325D01*
X169925000Y-88332675D01*
X169930186Y-88280018D01*
X169943753Y-88235296D01*
X169965790Y-88194067D01*
X169995439Y-88157939D01*
X170031567Y-88128290D01*
X170072796Y-88106253D01*
X170117518Y-88092686D01*
X170170175Y-88087500D01*
X171829825Y-88087500D01*
X171882482Y-88092686D01*
X171882482Y-88092686D01*
G37*
G36*
X168382482Y-88067686D02*
X168427204Y-88081253D01*
X168468433Y-88103290D01*
X168504561Y-88132939D01*
X168534210Y-88169067D01*
X168556247Y-88210296D01*
X168569814Y-88255018D01*
X168575000Y-88307675D01*
X168575000Y-89642325D01*
X168569814Y-89694982D01*
X168556247Y-89739704D01*
X168534210Y-89780933D01*
X168504561Y-89817061D01*
X168468433Y-89846710D01*
X168427204Y-89868747D01*
X168382482Y-89882314D01*
X168329825Y-89887500D01*
X166670175Y-89887500D01*
X166617518Y-89882314D01*
X166572796Y-89868747D01*
X166531567Y-89846710D01*
X166495439Y-89817061D01*
X166465790Y-89780933D01*
X166443753Y-89739704D01*
X166430186Y-89694982D01*
X166425000Y-89642325D01*
X166425000Y-88307675D01*
X166430186Y-88255018D01*
X166443753Y-88210296D01*
X166465790Y-88169067D01*
X166495439Y-88132939D01*
X166531567Y-88103290D01*
X166572796Y-88081253D01*
X166617518Y-88067686D01*
X166670175Y-88062500D01*
X168329825Y-88062500D01*
X168382482Y-88067686D01*
X168382482Y-88067686D01*
G37*
G36*
X162200000Y-89700000D02*
X160800000Y-89700000D01*
X160800000Y-88300000D01*
X162200000Y-88300000D01*
X162200000Y-89700000D01*
X162200000Y-89700000D01*
G37*
G36*
X164700000Y-89700000D02*
X163300000Y-89700000D01*
X163300000Y-88300000D01*
X164700000Y-88300000D01*
X164700000Y-89700000D01*
X164700000Y-89700000D01*
G37*
G36*
X175255000Y-86450000D02*
X175257402Y-86474386D01*
X175260000Y-86482951D01*
X175260000Y-87517049D01*
X175257402Y-87525614D01*
X175255000Y-87550000D01*
X175255000Y-89375000D01*
X173545000Y-89375000D01*
X173545000Y-87132951D01*
X173547598Y-87124386D01*
X173550000Y-87100000D01*
X173550000Y-86900000D01*
X173547598Y-86875614D01*
X173545000Y-86867049D01*
X173545000Y-84625000D01*
X175255000Y-84625000D01*
X175255000Y-86450000D01*
X175255000Y-86450000D01*
G37*
G36*
X180955000Y-89375000D02*
X179245000Y-89375000D01*
X179245000Y-84625000D01*
X180955000Y-84625000D01*
X180955000Y-89375000D01*
X180955000Y-89375000D01*
G37*
G36*
X176858552Y-84797598D02*
X176882938Y-84800000D01*
X177617062Y-84800000D01*
X177641448Y-84797598D01*
X177790250Y-84768000D01*
X177979750Y-84768000D01*
X178128552Y-84797598D01*
X178152938Y-84800000D01*
X178775000Y-84800000D01*
X178775000Y-85339958D01*
X178777402Y-85364344D01*
X178784514Y-85387792D01*
X178803106Y-85432676D01*
X178810032Y-85449398D01*
X178847000Y-85635250D01*
X178847000Y-85824750D01*
X178813095Y-85995204D01*
X178810031Y-86010605D01*
X178791136Y-86056223D01*
X178784515Y-86072206D01*
X178777402Y-86095655D01*
X178775000Y-86120042D01*
X178775000Y-87879958D01*
X178777402Y-87904344D01*
X178784514Y-87927792D01*
X178810031Y-87989395D01*
X178810032Y-87989398D01*
X178847000Y-88175250D01*
X178847000Y-88364750D01*
X178811106Y-88545204D01*
X178810031Y-88550605D01*
X178792860Y-88592061D01*
X178784515Y-88612206D01*
X178777402Y-88635655D01*
X178775000Y-88660042D01*
X178775000Y-89200000D01*
X178152938Y-89200000D01*
X178128552Y-89202402D01*
X177979750Y-89232000D01*
X177790250Y-89232000D01*
X177641448Y-89202402D01*
X177617062Y-89200000D01*
X176882938Y-89200000D01*
X176858552Y-89202402D01*
X176709750Y-89232000D01*
X176520250Y-89232000D01*
X176371448Y-89202402D01*
X176347062Y-89200000D01*
X175725000Y-89200000D01*
X175725000Y-88660042D01*
X175722598Y-88635656D01*
X175715485Y-88612206D01*
X175707141Y-88592061D01*
X175689969Y-88550605D01*
X175688895Y-88545204D01*
X175653000Y-88364750D01*
X175653000Y-88175250D01*
X175689968Y-87989398D01*
X175689969Y-87989395D01*
X175715486Y-87927792D01*
X175722598Y-87904345D01*
X175725000Y-87879958D01*
X175725000Y-86120042D01*
X175722598Y-86095656D01*
X175715485Y-86072206D01*
X175708865Y-86056223D01*
X175689969Y-86010605D01*
X175686906Y-85995204D01*
X175653000Y-85824750D01*
X175653000Y-85635250D01*
X175689968Y-85449398D01*
X175696894Y-85432676D01*
X175715486Y-85387792D01*
X175722598Y-85364345D01*
X175725000Y-85339958D01*
X175725000Y-84800000D01*
X176347062Y-84800000D01*
X176371448Y-84797598D01*
X176520250Y-84768000D01*
X176709750Y-84768000D01*
X176858552Y-84797598D01*
X176858552Y-84797598D01*
G37*
G36*
X126382482Y-87355186D02*
X126427204Y-87368753D01*
X126468433Y-87390790D01*
X126504561Y-87420439D01*
X126534210Y-87456567D01*
X126556247Y-87497796D01*
X126569814Y-87542518D01*
X126575000Y-87595175D01*
X126575000Y-88929825D01*
X126569814Y-88982482D01*
X126556247Y-89027204D01*
X126534210Y-89068433D01*
X126504561Y-89104561D01*
X126468433Y-89134210D01*
X126427204Y-89156247D01*
X126382482Y-89169814D01*
X126329825Y-89175000D01*
X124670175Y-89175000D01*
X124617518Y-89169814D01*
X124572796Y-89156247D01*
X124531567Y-89134210D01*
X124495439Y-89104561D01*
X124465790Y-89068433D01*
X124443753Y-89027204D01*
X124430186Y-88982482D01*
X124425000Y-88929825D01*
X124425000Y-87595175D01*
X124430186Y-87542518D01*
X124443753Y-87497796D01*
X124465790Y-87456567D01*
X124495439Y-87420439D01*
X124531567Y-87390790D01*
X124572796Y-87368753D01*
X124617518Y-87355186D01*
X124670175Y-87350000D01*
X126329825Y-87350000D01*
X126382482Y-87355186D01*
X126382482Y-87355186D01*
G37*
G36*
X129882482Y-87342686D02*
X129927204Y-87356253D01*
X129968433Y-87378290D01*
X130004561Y-87407939D01*
X130034210Y-87444067D01*
X130056247Y-87485296D01*
X130069814Y-87530018D01*
X130075000Y-87582675D01*
X130075000Y-88917325D01*
X130069814Y-88969982D01*
X130056247Y-89014704D01*
X130034210Y-89055933D01*
X130004561Y-89092061D01*
X129968433Y-89121710D01*
X129927204Y-89143747D01*
X129882482Y-89157314D01*
X129829825Y-89162500D01*
X128170175Y-89162500D01*
X128117518Y-89157314D01*
X128072796Y-89143747D01*
X128031567Y-89121710D01*
X127995439Y-89092061D01*
X127965790Y-89055933D01*
X127943753Y-89014704D01*
X127930186Y-88969982D01*
X127925000Y-88917325D01*
X127925000Y-87582675D01*
X127930186Y-87530018D01*
X127943753Y-87485296D01*
X127965790Y-87444067D01*
X127995439Y-87407939D01*
X128031567Y-87378290D01*
X128072796Y-87356253D01*
X128117518Y-87342686D01*
X128170175Y-87337500D01*
X129829825Y-87337500D01*
X129882482Y-87342686D01*
X129882482Y-87342686D01*
G37*
G36*
X137632482Y-86867686D02*
X137677204Y-86881253D01*
X137718433Y-86903290D01*
X137754561Y-86932939D01*
X137784210Y-86969067D01*
X137806247Y-87010296D01*
X137819814Y-87055018D01*
X137825000Y-87107675D01*
X137825000Y-88442325D01*
X137819814Y-88494982D01*
X137806247Y-88539704D01*
X137784210Y-88580933D01*
X137754561Y-88617061D01*
X137718433Y-88646710D01*
X137677204Y-88668747D01*
X137632482Y-88682314D01*
X137579825Y-88687500D01*
X135920175Y-88687500D01*
X135867518Y-88682314D01*
X135822796Y-88668747D01*
X135781567Y-88646710D01*
X135745439Y-88617061D01*
X135715790Y-88580933D01*
X135693753Y-88539704D01*
X135680186Y-88494982D01*
X135675000Y-88442325D01*
X135675000Y-87107675D01*
X135680186Y-87055018D01*
X135693753Y-87010296D01*
X135715790Y-86969067D01*
X135745439Y-86932939D01*
X135781567Y-86903290D01*
X135822796Y-86881253D01*
X135867518Y-86867686D01*
X135920175Y-86862500D01*
X137579825Y-86862500D01*
X137632482Y-86867686D01*
X137632482Y-86867686D01*
G37*
G36*
X134632482Y-86842686D02*
X134677204Y-86856253D01*
X134718433Y-86878290D01*
X134754561Y-86907939D01*
X134784210Y-86944067D01*
X134806247Y-86985296D01*
X134819814Y-87030018D01*
X134825000Y-87082675D01*
X134825000Y-88417325D01*
X134819814Y-88469982D01*
X134806247Y-88514704D01*
X134784210Y-88555933D01*
X134754561Y-88592061D01*
X134718433Y-88621710D01*
X134677204Y-88643747D01*
X134632482Y-88657314D01*
X134579825Y-88662500D01*
X132920175Y-88662500D01*
X132867518Y-88657314D01*
X132822796Y-88643747D01*
X132781567Y-88621710D01*
X132745439Y-88592061D01*
X132715790Y-88555933D01*
X132693753Y-88514704D01*
X132680186Y-88469982D01*
X132675000Y-88417325D01*
X132675000Y-87082675D01*
X132680186Y-87030018D01*
X132693753Y-86985296D01*
X132715790Y-86944067D01*
X132745439Y-86907939D01*
X132781567Y-86878290D01*
X132822796Y-86856253D01*
X132867518Y-86842686D01*
X132920175Y-86837500D01*
X134579825Y-86837500D01*
X134632482Y-86842686D01*
X134632482Y-86842686D01*
G37*
G36*
X148685178Y-82956253D02*
X149033328Y-83025504D01*
X149470100Y-83206421D01*
X149863185Y-83469072D01*
X150197476Y-83803363D01*
X150460127Y-84196448D01*
X150641044Y-84633220D01*
X150693078Y-84894814D01*
X150733274Y-85096893D01*
X150733274Y-85569655D01*
X150720226Y-85635250D01*
X150641044Y-86033328D01*
X150460127Y-86470100D01*
X150197476Y-86863185D01*
X149863185Y-87197476D01*
X149470100Y-87460127D01*
X149033328Y-87641044D01*
X148685178Y-87710295D01*
X148569655Y-87733274D01*
X148096893Y-87733274D01*
X147981370Y-87710295D01*
X147633220Y-87641044D01*
X147196448Y-87460127D01*
X146803363Y-87197476D01*
X146469072Y-86863185D01*
X146206421Y-86470100D01*
X146025504Y-86033328D01*
X145946322Y-85635250D01*
X145933274Y-85569655D01*
X145933274Y-85096893D01*
X145973470Y-84894814D01*
X146025504Y-84633220D01*
X146206421Y-84196448D01*
X146469072Y-83803363D01*
X146803363Y-83469072D01*
X147196448Y-83206421D01*
X147633220Y-83025504D01*
X147981370Y-82956253D01*
X148096893Y-82933274D01*
X148569655Y-82933274D01*
X148685178Y-82956253D01*
X148685178Y-82956253D01*
G37*
G36*
X161982482Y-84930186D02*
X162027204Y-84943753D01*
X162068433Y-84965790D01*
X162104561Y-84995439D01*
X162134210Y-85031567D01*
X162156247Y-85072796D01*
X162169814Y-85117518D01*
X162175000Y-85170175D01*
X162175000Y-86829825D01*
X162169814Y-86882482D01*
X162156247Y-86927204D01*
X162134210Y-86968433D01*
X162104561Y-87004561D01*
X162068433Y-87034210D01*
X162027204Y-87056247D01*
X161982482Y-87069814D01*
X161929825Y-87075000D01*
X160595175Y-87075000D01*
X160542518Y-87069814D01*
X160497796Y-87056247D01*
X160456567Y-87034210D01*
X160420439Y-87004561D01*
X160390790Y-86968433D01*
X160368753Y-86927204D01*
X160355186Y-86882482D01*
X160350000Y-86829825D01*
X160350000Y-85170175D01*
X160355186Y-85117518D01*
X160368753Y-85072796D01*
X160390790Y-85031567D01*
X160420439Y-84995439D01*
X160456567Y-84965790D01*
X160497796Y-84943753D01*
X160542518Y-84930186D01*
X160595175Y-84925000D01*
X161929825Y-84925000D01*
X161982482Y-84930186D01*
X161982482Y-84930186D01*
G37*
G36*
X164957482Y-84930186D02*
X165002204Y-84943753D01*
X165043433Y-84965790D01*
X165079561Y-84995439D01*
X165109210Y-85031567D01*
X165131247Y-85072796D01*
X165144814Y-85117518D01*
X165150000Y-85170175D01*
X165150000Y-86829825D01*
X165144814Y-86882482D01*
X165131247Y-86927204D01*
X165109210Y-86968433D01*
X165079561Y-87004561D01*
X165043433Y-87034210D01*
X165002204Y-87056247D01*
X164957482Y-87069814D01*
X164904825Y-87075000D01*
X163570175Y-87075000D01*
X163517518Y-87069814D01*
X163472796Y-87056247D01*
X163431567Y-87034210D01*
X163395439Y-87004561D01*
X163365790Y-86968433D01*
X163343753Y-86927204D01*
X163330186Y-86882482D01*
X163325000Y-86829825D01*
X163325000Y-85170175D01*
X163330186Y-85117518D01*
X163343753Y-85072796D01*
X163365790Y-85031567D01*
X163395439Y-84995439D01*
X163431567Y-84965790D01*
X163472796Y-84943753D01*
X163517518Y-84930186D01*
X163570175Y-84925000D01*
X164904825Y-84925000D01*
X164957482Y-84930186D01*
X164957482Y-84930186D01*
G37*
G36*
X171882482Y-85117686D02*
X171927204Y-85131253D01*
X171968433Y-85153290D01*
X172004561Y-85182939D01*
X172034210Y-85219067D01*
X172056247Y-85260296D01*
X172069814Y-85305018D01*
X172075000Y-85357675D01*
X172075000Y-86692325D01*
X172069814Y-86744982D01*
X172056247Y-86789704D01*
X172034210Y-86830933D01*
X172004561Y-86867061D01*
X171968433Y-86896710D01*
X171927204Y-86918747D01*
X171882482Y-86932314D01*
X171829825Y-86937500D01*
X170170175Y-86937500D01*
X170117518Y-86932314D01*
X170072796Y-86918747D01*
X170031567Y-86896710D01*
X169995439Y-86867061D01*
X169965790Y-86830933D01*
X169943753Y-86789704D01*
X169930186Y-86744982D01*
X169925000Y-86692325D01*
X169925000Y-85357675D01*
X169930186Y-85305018D01*
X169943753Y-85260296D01*
X169965790Y-85219067D01*
X169995439Y-85182939D01*
X170031567Y-85153290D01*
X170072796Y-85131253D01*
X170117518Y-85117686D01*
X170170175Y-85112500D01*
X171829825Y-85112500D01*
X171882482Y-85117686D01*
X171882482Y-85117686D01*
G37*
G36*
X168382482Y-85092686D02*
X168427204Y-85106253D01*
X168468433Y-85128290D01*
X168504561Y-85157939D01*
X168534210Y-85194067D01*
X168556247Y-85235296D01*
X168569814Y-85280018D01*
X168575000Y-85332675D01*
X168575000Y-86667325D01*
X168569814Y-86719982D01*
X168556247Y-86764704D01*
X168534210Y-86805933D01*
X168504561Y-86842061D01*
X168468433Y-86871710D01*
X168427204Y-86893747D01*
X168382482Y-86907314D01*
X168329825Y-86912500D01*
X166670175Y-86912500D01*
X166617518Y-86907314D01*
X166572796Y-86893747D01*
X166531567Y-86871710D01*
X166495439Y-86842061D01*
X166465790Y-86805933D01*
X166443753Y-86764704D01*
X166430186Y-86719982D01*
X166425000Y-86667325D01*
X166425000Y-85332675D01*
X166430186Y-85280018D01*
X166443753Y-85235296D01*
X166465790Y-85194067D01*
X166495439Y-85157939D01*
X166531567Y-85128290D01*
X166572796Y-85106253D01*
X166617518Y-85092686D01*
X166670175Y-85087500D01*
X168329825Y-85087500D01*
X168382482Y-85092686D01*
X168382482Y-85092686D01*
G37*
G36*
X137632482Y-84330186D02*
X137677204Y-84343753D01*
X137718433Y-84365790D01*
X137754561Y-84395439D01*
X137784210Y-84431567D01*
X137806247Y-84472796D01*
X137819814Y-84517518D01*
X137825000Y-84570175D01*
X137825000Y-85904825D01*
X137819814Y-85957482D01*
X137806247Y-86002204D01*
X137784210Y-86043433D01*
X137754561Y-86079561D01*
X137718433Y-86109210D01*
X137677204Y-86131247D01*
X137632482Y-86144814D01*
X137579825Y-86150000D01*
X135920175Y-86150000D01*
X135867518Y-86144814D01*
X135822796Y-86131247D01*
X135781567Y-86109210D01*
X135745439Y-86079561D01*
X135715790Y-86043433D01*
X135693753Y-86002204D01*
X135680186Y-85957482D01*
X135675000Y-85904825D01*
X135675000Y-84570175D01*
X135680186Y-84517518D01*
X135693753Y-84472796D01*
X135715790Y-84431567D01*
X135745439Y-84395439D01*
X135781567Y-84365790D01*
X135822796Y-84343753D01*
X135867518Y-84330186D01*
X135920175Y-84325000D01*
X137579825Y-84325000D01*
X137632482Y-84330186D01*
X137632482Y-84330186D01*
G37*
G36*
X134632482Y-84317686D02*
X134677204Y-84331253D01*
X134718433Y-84353290D01*
X134754561Y-84382939D01*
X134784210Y-84419067D01*
X134806247Y-84460296D01*
X134819814Y-84505018D01*
X134825000Y-84557675D01*
X134825000Y-85892325D01*
X134819814Y-85944982D01*
X134806247Y-85989704D01*
X134784210Y-86030933D01*
X134754561Y-86067061D01*
X134718433Y-86096710D01*
X134677204Y-86118747D01*
X134632482Y-86132314D01*
X134579825Y-86137500D01*
X132920175Y-86137500D01*
X132867518Y-86132314D01*
X132822796Y-86118747D01*
X132781567Y-86096710D01*
X132745439Y-86067061D01*
X132715790Y-86030933D01*
X132693753Y-85989704D01*
X132680186Y-85944982D01*
X132675000Y-85892325D01*
X132675000Y-84557675D01*
X132680186Y-84505018D01*
X132693753Y-84460296D01*
X132715790Y-84419067D01*
X132745439Y-84382939D01*
X132781567Y-84353290D01*
X132822796Y-84331253D01*
X132867518Y-84317686D01*
X132920175Y-84312500D01*
X134579825Y-84312500D01*
X134632482Y-84317686D01*
X134632482Y-84317686D01*
G37*
G36*
X187922947Y-82355722D02*
X188186833Y-82465027D01*
X188424324Y-82623713D01*
X188626287Y-82825676D01*
X188784973Y-83063167D01*
X188894278Y-83327053D01*
X188950000Y-83607186D01*
X188950000Y-83892814D01*
X188894278Y-84172947D01*
X188784973Y-84436833D01*
X188626287Y-84674324D01*
X188424324Y-84876287D01*
X188186833Y-85034973D01*
X187922947Y-85144278D01*
X187642814Y-85200000D01*
X187357186Y-85200000D01*
X187077053Y-85144278D01*
X186813167Y-85034973D01*
X186575676Y-84876287D01*
X186373713Y-84674324D01*
X186215027Y-84436833D01*
X186105722Y-84172947D01*
X186050000Y-83892814D01*
X186050000Y-83607186D01*
X186105722Y-83327053D01*
X186215027Y-83063167D01*
X186373713Y-82825676D01*
X186575676Y-82623713D01*
X186813167Y-82465027D01*
X187077053Y-82355722D01*
X187357186Y-82300000D01*
X187642814Y-82300000D01*
X187922947Y-82355722D01*
X187922947Y-82355722D01*
G37*
G36*
X126632482Y-83092686D02*
X126677204Y-83106253D01*
X126718433Y-83128290D01*
X126754561Y-83157939D01*
X126784210Y-83194067D01*
X126806247Y-83235296D01*
X126819814Y-83280018D01*
X126825000Y-83332675D01*
X126825000Y-84667325D01*
X126819814Y-84719982D01*
X126806247Y-84764704D01*
X126784210Y-84805933D01*
X126754561Y-84842061D01*
X126718433Y-84871710D01*
X126677204Y-84893747D01*
X126632482Y-84907314D01*
X126579825Y-84912500D01*
X124920175Y-84912500D01*
X124867518Y-84907314D01*
X124822796Y-84893747D01*
X124781567Y-84871710D01*
X124745439Y-84842061D01*
X124715790Y-84805933D01*
X124693753Y-84764704D01*
X124680186Y-84719982D01*
X124675000Y-84667325D01*
X124675000Y-83332675D01*
X124680186Y-83280018D01*
X124693753Y-83235296D01*
X124715790Y-83194067D01*
X124745439Y-83157939D01*
X124781567Y-83128290D01*
X124822796Y-83106253D01*
X124867518Y-83092686D01*
X124920175Y-83087500D01*
X126579825Y-83087500D01*
X126632482Y-83092686D01*
X126632482Y-83092686D01*
G37*
G36*
X124132482Y-83080186D02*
X124177204Y-83093753D01*
X124218433Y-83115790D01*
X124254561Y-83145439D01*
X124284210Y-83181567D01*
X124306247Y-83222796D01*
X124319814Y-83267518D01*
X124325000Y-83320175D01*
X124325000Y-84654825D01*
X124319814Y-84707482D01*
X124306247Y-84752204D01*
X124284210Y-84793433D01*
X124254561Y-84829561D01*
X124218433Y-84859210D01*
X124177204Y-84881247D01*
X124132482Y-84894814D01*
X124079825Y-84900000D01*
X122420175Y-84900000D01*
X122367518Y-84894814D01*
X122322796Y-84881247D01*
X122281567Y-84859210D01*
X122245439Y-84829561D01*
X122215790Y-84793433D01*
X122193753Y-84752204D01*
X122180186Y-84707482D01*
X122175000Y-84654825D01*
X122175000Y-83320175D01*
X122180186Y-83267518D01*
X122193753Y-83222796D01*
X122215790Y-83181567D01*
X122245439Y-83145439D01*
X122281567Y-83115790D01*
X122322796Y-83093753D01*
X122367518Y-83080186D01*
X122420175Y-83075000D01*
X124079825Y-83075000D01*
X124132482Y-83080186D01*
X124132482Y-83080186D01*
G37*
G36*
X129882482Y-83080186D02*
X129927204Y-83093753D01*
X129968433Y-83115790D01*
X130004561Y-83145439D01*
X130034210Y-83181567D01*
X130056247Y-83222796D01*
X130069814Y-83267518D01*
X130075000Y-83320175D01*
X130075000Y-84654825D01*
X130069814Y-84707482D01*
X130056247Y-84752204D01*
X130034210Y-84793433D01*
X130004561Y-84829561D01*
X129968433Y-84859210D01*
X129927204Y-84881247D01*
X129882482Y-84894814D01*
X129829825Y-84900000D01*
X128170175Y-84900000D01*
X128117518Y-84894814D01*
X128072796Y-84881247D01*
X128031567Y-84859210D01*
X127995439Y-84829561D01*
X127965790Y-84793433D01*
X127943753Y-84752204D01*
X127930186Y-84707482D01*
X127925000Y-84654825D01*
X127925000Y-83320175D01*
X127930186Y-83267518D01*
X127943753Y-83222796D01*
X127965790Y-83181567D01*
X127995439Y-83145439D01*
X128031567Y-83115790D01*
X128072796Y-83093753D01*
X128117518Y-83080186D01*
X128170175Y-83075000D01*
X129829825Y-83075000D01*
X129882482Y-83080186D01*
X129882482Y-83080186D01*
G37*
G36*
X181882482Y-82067686D02*
X181927204Y-82081253D01*
X181968433Y-82103290D01*
X182004561Y-82132939D01*
X182034210Y-82169067D01*
X182056247Y-82210296D01*
X182069814Y-82255018D01*
X182075000Y-82307675D01*
X182075000Y-83642325D01*
X182069814Y-83694982D01*
X182056247Y-83739704D01*
X182034210Y-83780933D01*
X182004561Y-83817061D01*
X181968433Y-83846710D01*
X181927204Y-83868747D01*
X181882482Y-83882314D01*
X181829825Y-83887500D01*
X180170175Y-83887500D01*
X180117518Y-83882314D01*
X180072796Y-83868747D01*
X180031567Y-83846710D01*
X179995439Y-83817061D01*
X179965790Y-83780933D01*
X179943753Y-83739704D01*
X179930186Y-83694982D01*
X179925000Y-83642325D01*
X179925000Y-82307675D01*
X179930186Y-82255018D01*
X179943753Y-82210296D01*
X179965790Y-82169067D01*
X179995439Y-82132939D01*
X180031567Y-82103290D01*
X180072796Y-82081253D01*
X180117518Y-82067686D01*
X180170175Y-82062500D01*
X181829825Y-82062500D01*
X181882482Y-82067686D01*
X181882482Y-82067686D01*
G37*
G36*
X168194982Y-81680186D02*
X168239704Y-81693753D01*
X168280933Y-81715790D01*
X168317061Y-81745439D01*
X168346710Y-81781567D01*
X168368747Y-81822796D01*
X168382314Y-81867518D01*
X168387500Y-81920175D01*
X168387500Y-83579825D01*
X168382314Y-83632482D01*
X168368747Y-83677204D01*
X168346710Y-83718433D01*
X168317061Y-83754561D01*
X168280933Y-83784210D01*
X168239704Y-83806247D01*
X168194982Y-83819814D01*
X168142325Y-83825000D01*
X166807675Y-83825000D01*
X166755018Y-83819814D01*
X166710296Y-83806247D01*
X166669067Y-83784210D01*
X166632939Y-83754561D01*
X166603290Y-83718433D01*
X166581253Y-83677204D01*
X166567686Y-83632482D01*
X166562500Y-83579825D01*
X166562500Y-81920175D01*
X166567686Y-81867518D01*
X166581253Y-81822796D01*
X166603290Y-81781567D01*
X166632939Y-81745439D01*
X166669067Y-81715790D01*
X166710296Y-81693753D01*
X166755018Y-81680186D01*
X166807675Y-81675000D01*
X168142325Y-81675000D01*
X168194982Y-81680186D01*
X168194982Y-81680186D01*
G37*
G36*
X165219982Y-81680186D02*
X165264704Y-81693753D01*
X165305933Y-81715790D01*
X165342061Y-81745439D01*
X165371710Y-81781567D01*
X165393747Y-81822796D01*
X165407314Y-81867518D01*
X165412500Y-81920175D01*
X165412500Y-83579825D01*
X165407314Y-83632482D01*
X165393747Y-83677204D01*
X165371710Y-83718433D01*
X165342061Y-83754561D01*
X165305933Y-83784210D01*
X165264704Y-83806247D01*
X165219982Y-83819814D01*
X165167325Y-83825000D01*
X163832675Y-83825000D01*
X163780018Y-83819814D01*
X163735296Y-83806247D01*
X163694067Y-83784210D01*
X163657939Y-83754561D01*
X163628290Y-83718433D01*
X163606253Y-83677204D01*
X163592686Y-83632482D01*
X163587500Y-83579825D01*
X163587500Y-81920175D01*
X163592686Y-81867518D01*
X163606253Y-81822796D01*
X163628290Y-81781567D01*
X163657939Y-81745439D01*
X163694067Y-81715790D01*
X163735296Y-81693753D01*
X163780018Y-81680186D01*
X163832675Y-81675000D01*
X165167325Y-81675000D01*
X165219982Y-81680186D01*
X165219982Y-81680186D01*
G37*
G36*
X171732482Y-81430186D02*
X171777204Y-81443753D01*
X171818433Y-81465790D01*
X171854561Y-81495439D01*
X171884210Y-81531567D01*
X171906247Y-81572796D01*
X171919814Y-81617518D01*
X171925000Y-81670175D01*
X171925000Y-83329825D01*
X171919814Y-83382482D01*
X171906247Y-83427204D01*
X171884210Y-83468433D01*
X171854561Y-83504561D01*
X171818433Y-83534210D01*
X171777204Y-83556247D01*
X171732482Y-83569814D01*
X171679825Y-83575000D01*
X170345175Y-83575000D01*
X170292518Y-83569814D01*
X170247796Y-83556247D01*
X170206567Y-83534210D01*
X170170439Y-83504561D01*
X170140790Y-83468433D01*
X170118753Y-83427204D01*
X170105186Y-83382482D01*
X170100000Y-83329825D01*
X170100000Y-81670175D01*
X170105186Y-81617518D01*
X170118753Y-81572796D01*
X170140790Y-81531567D01*
X170170439Y-81495439D01*
X170206567Y-81465790D01*
X170247796Y-81443753D01*
X170292518Y-81430186D01*
X170345175Y-81425000D01*
X171679825Y-81425000D01*
X171732482Y-81430186D01*
X171732482Y-81430186D01*
G37*
G36*
X174707482Y-81430186D02*
X174752204Y-81443753D01*
X174793433Y-81465790D01*
X174829561Y-81495439D01*
X174859210Y-81531567D01*
X174881247Y-81572796D01*
X174894814Y-81617518D01*
X174900000Y-81670175D01*
X174900000Y-83329825D01*
X174894814Y-83382482D01*
X174881247Y-83427204D01*
X174859210Y-83468433D01*
X174829561Y-83504561D01*
X174793433Y-83534210D01*
X174752204Y-83556247D01*
X174707482Y-83569814D01*
X174654825Y-83575000D01*
X173320175Y-83575000D01*
X173267518Y-83569814D01*
X173222796Y-83556247D01*
X173181567Y-83534210D01*
X173145439Y-83504561D01*
X173115790Y-83468433D01*
X173093753Y-83427204D01*
X173080186Y-83382482D01*
X173075000Y-83329825D01*
X173075000Y-81670175D01*
X173080186Y-81617518D01*
X173093753Y-81572796D01*
X173115790Y-81531567D01*
X173145439Y-81495439D01*
X173181567Y-81465790D01*
X173222796Y-81443753D01*
X173267518Y-81430186D01*
X173320175Y-81425000D01*
X174654825Y-81425000D01*
X174707482Y-81430186D01*
X174707482Y-81430186D01*
G37*
G36*
X137632482Y-81355186D02*
X137677204Y-81368753D01*
X137718433Y-81390790D01*
X137754561Y-81420439D01*
X137784210Y-81456567D01*
X137806247Y-81497796D01*
X137819814Y-81542518D01*
X137825000Y-81595175D01*
X137825000Y-82929825D01*
X137819814Y-82982482D01*
X137806247Y-83027204D01*
X137784210Y-83068433D01*
X137754561Y-83104561D01*
X137718433Y-83134210D01*
X137677204Y-83156247D01*
X137632482Y-83169814D01*
X137579825Y-83175000D01*
X135920175Y-83175000D01*
X135867518Y-83169814D01*
X135822796Y-83156247D01*
X135781567Y-83134210D01*
X135745439Y-83104561D01*
X135715790Y-83068433D01*
X135693753Y-83027204D01*
X135680186Y-82982482D01*
X135675000Y-82929825D01*
X135675000Y-81595175D01*
X135680186Y-81542518D01*
X135693753Y-81497796D01*
X135715790Y-81456567D01*
X135745439Y-81420439D01*
X135781567Y-81390790D01*
X135822796Y-81368753D01*
X135867518Y-81355186D01*
X135920175Y-81350000D01*
X137579825Y-81350000D01*
X137632482Y-81355186D01*
X137632482Y-81355186D01*
G37*
G36*
X134632482Y-81342686D02*
X134677204Y-81356253D01*
X134718433Y-81378290D01*
X134754561Y-81407939D01*
X134784210Y-81444067D01*
X134806247Y-81485296D01*
X134819814Y-81530018D01*
X134825000Y-81582675D01*
X134825000Y-82917325D01*
X134819814Y-82969982D01*
X134806247Y-83014704D01*
X134784210Y-83055933D01*
X134754561Y-83092061D01*
X134718433Y-83121710D01*
X134677204Y-83143747D01*
X134632482Y-83157314D01*
X134579825Y-83162500D01*
X132920175Y-83162500D01*
X132867518Y-83157314D01*
X132822796Y-83143747D01*
X132781567Y-83121710D01*
X132745439Y-83092061D01*
X132715790Y-83055933D01*
X132693753Y-83014704D01*
X132680186Y-82969982D01*
X132675000Y-82917325D01*
X132675000Y-81582675D01*
X132680186Y-81530018D01*
X132693753Y-81485296D01*
X132715790Y-81444067D01*
X132745439Y-81407939D01*
X132781567Y-81378290D01*
X132822796Y-81356253D01*
X132867518Y-81342686D01*
X132920175Y-81337500D01*
X134579825Y-81337500D01*
X134632482Y-81342686D01*
X134632482Y-81342686D01*
G37*
G36*
X126632482Y-80117686D02*
X126677204Y-80131253D01*
X126718433Y-80153290D01*
X126754561Y-80182939D01*
X126784210Y-80219067D01*
X126806247Y-80260296D01*
X126819814Y-80305018D01*
X126825000Y-80357675D01*
X126825000Y-81692325D01*
X126819814Y-81744982D01*
X126806247Y-81789704D01*
X126784210Y-81830933D01*
X126754561Y-81867061D01*
X126718433Y-81896710D01*
X126677204Y-81918747D01*
X126632482Y-81932314D01*
X126579825Y-81937500D01*
X124920175Y-81937500D01*
X124867518Y-81932314D01*
X124822796Y-81918747D01*
X124781567Y-81896710D01*
X124745439Y-81867061D01*
X124715790Y-81830933D01*
X124693753Y-81789704D01*
X124680186Y-81744982D01*
X124675000Y-81692325D01*
X124675000Y-80357675D01*
X124680186Y-80305018D01*
X124693753Y-80260296D01*
X124715790Y-80219067D01*
X124745439Y-80182939D01*
X124781567Y-80153290D01*
X124822796Y-80131253D01*
X124867518Y-80117686D01*
X124920175Y-80112500D01*
X126579825Y-80112500D01*
X126632482Y-80117686D01*
X126632482Y-80117686D01*
G37*
G36*
X129882482Y-80105186D02*
X129927204Y-80118753D01*
X129968433Y-80140790D01*
X130004561Y-80170439D01*
X130034210Y-80206567D01*
X130056247Y-80247796D01*
X130069814Y-80292518D01*
X130075000Y-80345175D01*
X130075000Y-81679825D01*
X130069814Y-81732482D01*
X130056247Y-81777204D01*
X130034210Y-81818433D01*
X130004561Y-81854561D01*
X129968433Y-81884210D01*
X129927204Y-81906247D01*
X129882482Y-81919814D01*
X129829825Y-81925000D01*
X128170175Y-81925000D01*
X128117518Y-81919814D01*
X128072796Y-81906247D01*
X128031567Y-81884210D01*
X127995439Y-81854561D01*
X127965790Y-81818433D01*
X127943753Y-81777204D01*
X127930186Y-81732482D01*
X127925000Y-81679825D01*
X127925000Y-80345175D01*
X127930186Y-80292518D01*
X127943753Y-80247796D01*
X127965790Y-80206567D01*
X127995439Y-80170439D01*
X128031567Y-80140790D01*
X128072796Y-80118753D01*
X128117518Y-80105186D01*
X128170175Y-80100000D01*
X129829825Y-80100000D01*
X129882482Y-80105186D01*
X129882482Y-80105186D01*
G37*
G36*
X124132482Y-80105186D02*
X124177204Y-80118753D01*
X124218433Y-80140790D01*
X124254561Y-80170439D01*
X124284210Y-80206567D01*
X124306247Y-80247796D01*
X124319814Y-80292518D01*
X124325000Y-80345175D01*
X124325000Y-81679825D01*
X124319814Y-81732482D01*
X124306247Y-81777204D01*
X124284210Y-81818433D01*
X124254561Y-81854561D01*
X124218433Y-81884210D01*
X124177204Y-81906247D01*
X124132482Y-81919814D01*
X124079825Y-81925000D01*
X122420175Y-81925000D01*
X122367518Y-81919814D01*
X122322796Y-81906247D01*
X122281567Y-81884210D01*
X122245439Y-81854561D01*
X122215790Y-81818433D01*
X122193753Y-81777204D01*
X122180186Y-81732482D01*
X122175000Y-81679825D01*
X122175000Y-80345175D01*
X122180186Y-80292518D01*
X122193753Y-80247796D01*
X122215790Y-80206567D01*
X122245439Y-80170439D01*
X122281567Y-80140790D01*
X122322796Y-80118753D01*
X122367518Y-80105186D01*
X122420175Y-80100000D01*
X124079825Y-80100000D01*
X124132482Y-80105186D01*
X124132482Y-80105186D01*
G37*
G36*
X181882482Y-79092686D02*
X181927204Y-79106253D01*
X181968433Y-79128290D01*
X182004561Y-79157939D01*
X182034210Y-79194067D01*
X182056247Y-79235296D01*
X182069814Y-79280018D01*
X182075000Y-79332675D01*
X182075000Y-80667325D01*
X182069814Y-80719982D01*
X182056247Y-80764704D01*
X182034210Y-80805933D01*
X182004561Y-80842061D01*
X181968433Y-80871710D01*
X181927204Y-80893747D01*
X181882482Y-80907314D01*
X181829825Y-80912500D01*
X180170175Y-80912500D01*
X180117518Y-80907314D01*
X180072796Y-80893747D01*
X180031567Y-80871710D01*
X179995439Y-80842061D01*
X179965790Y-80805933D01*
X179943753Y-80764704D01*
X179930186Y-80719982D01*
X179925000Y-80667325D01*
X179925000Y-79332675D01*
X179930186Y-79280018D01*
X179943753Y-79235296D01*
X179965790Y-79194067D01*
X179995439Y-79157939D01*
X180031567Y-79128290D01*
X180072796Y-79106253D01*
X180117518Y-79092686D01*
X180170175Y-79087500D01*
X181829825Y-79087500D01*
X181882482Y-79092686D01*
X181882482Y-79092686D01*
G37*
G36*
X165219982Y-77680186D02*
X165264704Y-77693753D01*
X165305933Y-77715790D01*
X165342061Y-77745439D01*
X165371710Y-77781567D01*
X165393747Y-77822796D01*
X165407314Y-77867518D01*
X165412500Y-77920175D01*
X165412500Y-79579825D01*
X165407314Y-79632482D01*
X165393747Y-79677204D01*
X165371710Y-79718433D01*
X165342061Y-79754561D01*
X165305933Y-79784210D01*
X165264704Y-79806247D01*
X165219982Y-79819814D01*
X165167325Y-79825000D01*
X163832675Y-79825000D01*
X163780018Y-79819814D01*
X163735296Y-79806247D01*
X163694067Y-79784210D01*
X163657939Y-79754561D01*
X163628290Y-79718433D01*
X163606253Y-79677204D01*
X163592686Y-79632482D01*
X163587500Y-79579825D01*
X163587500Y-77920175D01*
X163592686Y-77867518D01*
X163606253Y-77822796D01*
X163628290Y-77781567D01*
X163657939Y-77745439D01*
X163694067Y-77715790D01*
X163735296Y-77693753D01*
X163780018Y-77680186D01*
X163832675Y-77675000D01*
X165167325Y-77675000D01*
X165219982Y-77680186D01*
X165219982Y-77680186D01*
G37*
G36*
X162244982Y-77680186D02*
X162289704Y-77693753D01*
X162330933Y-77715790D01*
X162367061Y-77745439D01*
X162396710Y-77781567D01*
X162418747Y-77822796D01*
X162432314Y-77867518D01*
X162437500Y-77920175D01*
X162437500Y-79579825D01*
X162432314Y-79632482D01*
X162418747Y-79677204D01*
X162396710Y-79718433D01*
X162367061Y-79754561D01*
X162330933Y-79784210D01*
X162289704Y-79806247D01*
X162244982Y-79819814D01*
X162192325Y-79825000D01*
X160857675Y-79825000D01*
X160805018Y-79819814D01*
X160760296Y-79806247D01*
X160719067Y-79784210D01*
X160682939Y-79754561D01*
X160653290Y-79718433D01*
X160631253Y-79677204D01*
X160617686Y-79632482D01*
X160612500Y-79579825D01*
X160612500Y-77920175D01*
X160617686Y-77867518D01*
X160631253Y-77822796D01*
X160653290Y-77781567D01*
X160682939Y-77745439D01*
X160719067Y-77715790D01*
X160760296Y-77693753D01*
X160805018Y-77680186D01*
X160857675Y-77675000D01*
X162192325Y-77675000D01*
X162244982Y-77680186D01*
X162244982Y-77680186D01*
G37*
G36*
X154950000Y-78600000D02*
X153150000Y-78600000D01*
X153150000Y-75900000D01*
X154950000Y-75900000D01*
X154950000Y-78600000D01*
X154950000Y-78600000D01*
G37*
G36*
X159350000Y-78600000D02*
X157550000Y-78600000D01*
X157550000Y-75900000D01*
X159350000Y-75900000D01*
X159350000Y-78600000D01*
X159350000Y-78600000D01*
G37*
G36*
X181882482Y-76342686D02*
X181927204Y-76356253D01*
X181968433Y-76378290D01*
X182004561Y-76407939D01*
X182034210Y-76444067D01*
X182056247Y-76485296D01*
X182069814Y-76530018D01*
X182075000Y-76582675D01*
X182075000Y-77917325D01*
X182069814Y-77969982D01*
X182056247Y-78014704D01*
X182034210Y-78055933D01*
X182004561Y-78092061D01*
X181968433Y-78121710D01*
X181927204Y-78143747D01*
X181882482Y-78157314D01*
X181829825Y-78162500D01*
X180170175Y-78162500D01*
X180117518Y-78157314D01*
X180072796Y-78143747D01*
X180031567Y-78121710D01*
X179995439Y-78092061D01*
X179965790Y-78055933D01*
X179943753Y-78014704D01*
X179930186Y-77969982D01*
X179925000Y-77917325D01*
X179925000Y-76582675D01*
X179930186Y-76530018D01*
X179943753Y-76485296D01*
X179965790Y-76444067D01*
X179995439Y-76407939D01*
X180031567Y-76378290D01*
X180072796Y-76356253D01*
X180117518Y-76342686D01*
X180170175Y-76337500D01*
X181829825Y-76337500D01*
X181882482Y-76342686D01*
X181882482Y-76342686D01*
G37*
G36*
X145165997Y-74058280D02*
X145177422Y-74059405D01*
X145238684Y-74077989D01*
X145299947Y-74096573D01*
X145364777Y-74131225D01*
X145412864Y-74156928D01*
X145412865Y-74156929D01*
X145412867Y-74156930D01*
X145511843Y-74238157D01*
X145593070Y-74337132D01*
X145653427Y-74450052D01*
X145690595Y-74572578D01*
X145700000Y-74668068D01*
X145700000Y-76831932D01*
X145690595Y-76927422D01*
X145653427Y-77049948D01*
X145593070Y-77162868D01*
X145511843Y-77261843D01*
X145412868Y-77343070D01*
X145299948Y-77403427D01*
X145238685Y-77422011D01*
X145177423Y-77440595D01*
X145165998Y-77441720D01*
X145050000Y-77453145D01*
X144934003Y-77441720D01*
X144922578Y-77440595D01*
X144861316Y-77422011D01*
X144800053Y-77403427D01*
X144687133Y-77343070D01*
X144588158Y-77261843D01*
X144511618Y-77168579D01*
X144494301Y-77151262D01*
X144473926Y-77137648D01*
X144451287Y-77128271D01*
X144427254Y-77123490D01*
X144402750Y-77123490D01*
X144378716Y-77128270D01*
X144356077Y-77137648D01*
X144335702Y-77151261D01*
X144318375Y-77168589D01*
X144241846Y-77261840D01*
X144241844Y-77261841D01*
X144241843Y-77261843D01*
X144142868Y-77343070D01*
X144029948Y-77403427D01*
X143968685Y-77422011D01*
X143907423Y-77440595D01*
X143895998Y-77441720D01*
X143780000Y-77453145D01*
X143664003Y-77441720D01*
X143652578Y-77440595D01*
X143591316Y-77422011D01*
X143530053Y-77403427D01*
X143417133Y-77343070D01*
X143318158Y-77261843D01*
X143241618Y-77168579D01*
X143224301Y-77151262D01*
X143203926Y-77137648D01*
X143181287Y-77128271D01*
X143157254Y-77123490D01*
X143132750Y-77123490D01*
X143108716Y-77128270D01*
X143086077Y-77137648D01*
X143065702Y-77151261D01*
X143048375Y-77168589D01*
X142971846Y-77261840D01*
X142971844Y-77261841D01*
X142971843Y-77261843D01*
X142872868Y-77343070D01*
X142759948Y-77403427D01*
X142698685Y-77422011D01*
X142637423Y-77440595D01*
X142625998Y-77441720D01*
X142510000Y-77453145D01*
X142394003Y-77441720D01*
X142382578Y-77440595D01*
X142321316Y-77422011D01*
X142260053Y-77403427D01*
X142147133Y-77343070D01*
X142048158Y-77261843D01*
X141971618Y-77168579D01*
X141954301Y-77151262D01*
X141933926Y-77137648D01*
X141911287Y-77128271D01*
X141887254Y-77123490D01*
X141862750Y-77123490D01*
X141838716Y-77128270D01*
X141816077Y-77137648D01*
X141795702Y-77151261D01*
X141778375Y-77168589D01*
X141701846Y-77261840D01*
X141701844Y-77261841D01*
X141701843Y-77261843D01*
X141602868Y-77343070D01*
X141489948Y-77403427D01*
X141428685Y-77422011D01*
X141367423Y-77440595D01*
X141355998Y-77441720D01*
X141240000Y-77453145D01*
X141124003Y-77441720D01*
X141112578Y-77440595D01*
X141051316Y-77422011D01*
X140990053Y-77403427D01*
X140877133Y-77343070D01*
X140778158Y-77261843D01*
X140701618Y-77168579D01*
X140684301Y-77151262D01*
X140663926Y-77137648D01*
X140641287Y-77128271D01*
X140617254Y-77123490D01*
X140592750Y-77123490D01*
X140568716Y-77128270D01*
X140546077Y-77137648D01*
X140525702Y-77151261D01*
X140508375Y-77168589D01*
X140431846Y-77261840D01*
X140431844Y-77261841D01*
X140431843Y-77261843D01*
X140332868Y-77343070D01*
X140219948Y-77403427D01*
X140158685Y-77422011D01*
X140097423Y-77440595D01*
X140085998Y-77441720D01*
X139970000Y-77453145D01*
X139854003Y-77441720D01*
X139842578Y-77440595D01*
X139781316Y-77422011D01*
X139720053Y-77403427D01*
X139607133Y-77343070D01*
X139508158Y-77261843D01*
X139426931Y-77162868D01*
X139426929Y-77162863D01*
X139422481Y-77157444D01*
X139416635Y-77148693D01*
X139399309Y-77131364D01*
X139378936Y-77117748D01*
X139356298Y-77108369D01*
X139332265Y-77103586D01*
X139307761Y-77103584D01*
X139283727Y-77108362D01*
X139261087Y-77117737D01*
X139240711Y-77131349D01*
X139223382Y-77148675D01*
X139217528Y-77157434D01*
X139213073Y-77162863D01*
X139213070Y-77162868D01*
X139131843Y-77261843D01*
X139032868Y-77343070D01*
X138919948Y-77403427D01*
X138858685Y-77422011D01*
X138797423Y-77440595D01*
X138785998Y-77441720D01*
X138670000Y-77453145D01*
X138554003Y-77441720D01*
X138542578Y-77440595D01*
X138481316Y-77422011D01*
X138420053Y-77403427D01*
X138307133Y-77343070D01*
X138208158Y-77261843D01*
X138131618Y-77168579D01*
X138114301Y-77151262D01*
X138093926Y-77137648D01*
X138071287Y-77128271D01*
X138047254Y-77123490D01*
X138022750Y-77123490D01*
X137998716Y-77128270D01*
X137976077Y-77137648D01*
X137955702Y-77151261D01*
X137938375Y-77168589D01*
X137861846Y-77261840D01*
X137861844Y-77261841D01*
X137861843Y-77261843D01*
X137762868Y-77343070D01*
X137649948Y-77403427D01*
X137588685Y-77422011D01*
X137527423Y-77440595D01*
X137515998Y-77441720D01*
X137400000Y-77453145D01*
X137284003Y-77441720D01*
X137272578Y-77440595D01*
X137211316Y-77422011D01*
X137150053Y-77403427D01*
X137037133Y-77343070D01*
X136938158Y-77261843D01*
X136861618Y-77168579D01*
X136844301Y-77151262D01*
X136823926Y-77137648D01*
X136801287Y-77128271D01*
X136777254Y-77123490D01*
X136752750Y-77123490D01*
X136728716Y-77128270D01*
X136706077Y-77137648D01*
X136685702Y-77151261D01*
X136668375Y-77168589D01*
X136591846Y-77261840D01*
X136591844Y-77261841D01*
X136591843Y-77261843D01*
X136492868Y-77343070D01*
X136379948Y-77403427D01*
X136318685Y-77422011D01*
X136257423Y-77440595D01*
X136245998Y-77441720D01*
X136130000Y-77453145D01*
X136014003Y-77441720D01*
X136002578Y-77440595D01*
X135941316Y-77422011D01*
X135880053Y-77403427D01*
X135767133Y-77343070D01*
X135668158Y-77261843D01*
X135591618Y-77168579D01*
X135574301Y-77151262D01*
X135553926Y-77137648D01*
X135531287Y-77128271D01*
X135507254Y-77123490D01*
X135482750Y-77123490D01*
X135458716Y-77128270D01*
X135436077Y-77137648D01*
X135415702Y-77151261D01*
X135398375Y-77168589D01*
X135321846Y-77261840D01*
X135321844Y-77261841D01*
X135321843Y-77261843D01*
X135222868Y-77343070D01*
X135109948Y-77403427D01*
X135048685Y-77422011D01*
X134987423Y-77440595D01*
X134975998Y-77441720D01*
X134860000Y-77453145D01*
X134744003Y-77441720D01*
X134732578Y-77440595D01*
X134671316Y-77422011D01*
X134610053Y-77403427D01*
X134497133Y-77343070D01*
X134398158Y-77261843D01*
X134321618Y-77168579D01*
X134304301Y-77151262D01*
X134283926Y-77137648D01*
X134261287Y-77128271D01*
X134237254Y-77123490D01*
X134212750Y-77123490D01*
X134188716Y-77128270D01*
X134166077Y-77137648D01*
X134145702Y-77151261D01*
X134128375Y-77168589D01*
X134051846Y-77261840D01*
X134051844Y-77261841D01*
X134051843Y-77261843D01*
X133952868Y-77343070D01*
X133839948Y-77403427D01*
X133778685Y-77422011D01*
X133717423Y-77440595D01*
X133705998Y-77441720D01*
X133590000Y-77453145D01*
X133474003Y-77441720D01*
X133462578Y-77440595D01*
X133401316Y-77422011D01*
X133340053Y-77403427D01*
X133227133Y-77343070D01*
X133128158Y-77261843D01*
X133051618Y-77168579D01*
X133034301Y-77151262D01*
X133013926Y-77137648D01*
X132991287Y-77128271D01*
X132967254Y-77123490D01*
X132942750Y-77123490D01*
X132918716Y-77128270D01*
X132896077Y-77137648D01*
X132875702Y-77151261D01*
X132858375Y-77168589D01*
X132781846Y-77261840D01*
X132781844Y-77261841D01*
X132781843Y-77261843D01*
X132682868Y-77343070D01*
X132569948Y-77403427D01*
X132508685Y-77422011D01*
X132447423Y-77440595D01*
X132435998Y-77441720D01*
X132320000Y-77453145D01*
X132204003Y-77441720D01*
X132192578Y-77440595D01*
X132131316Y-77422011D01*
X132070053Y-77403427D01*
X131957133Y-77343070D01*
X131858158Y-77261843D01*
X131781618Y-77168579D01*
X131764301Y-77151262D01*
X131743926Y-77137648D01*
X131721287Y-77128271D01*
X131697254Y-77123490D01*
X131672750Y-77123490D01*
X131648716Y-77128270D01*
X131626077Y-77137648D01*
X131605702Y-77151261D01*
X131588375Y-77168589D01*
X131511846Y-77261840D01*
X131511844Y-77261841D01*
X131511843Y-77261843D01*
X131412868Y-77343070D01*
X131299948Y-77403427D01*
X131238685Y-77422011D01*
X131177423Y-77440595D01*
X131165998Y-77441720D01*
X131050000Y-77453145D01*
X130934003Y-77441720D01*
X130922578Y-77440595D01*
X130861316Y-77422011D01*
X130800053Y-77403427D01*
X130687133Y-77343070D01*
X130588158Y-77261843D01*
X130511618Y-77168579D01*
X130494301Y-77151262D01*
X130473926Y-77137648D01*
X130451287Y-77128271D01*
X130427254Y-77123490D01*
X130402750Y-77123490D01*
X130378716Y-77128270D01*
X130356077Y-77137648D01*
X130335702Y-77151261D01*
X130318375Y-77168589D01*
X130241846Y-77261840D01*
X130241844Y-77261841D01*
X130241843Y-77261843D01*
X130142868Y-77343070D01*
X130029948Y-77403427D01*
X129968685Y-77422011D01*
X129907423Y-77440595D01*
X129895998Y-77441720D01*
X129780000Y-77453145D01*
X129664003Y-77441720D01*
X129652578Y-77440595D01*
X129591316Y-77422011D01*
X129530053Y-77403427D01*
X129417133Y-77343070D01*
X129318158Y-77261843D01*
X129241618Y-77168579D01*
X129224301Y-77151262D01*
X129203926Y-77137648D01*
X129181287Y-77128271D01*
X129157254Y-77123490D01*
X129132750Y-77123490D01*
X129108716Y-77128270D01*
X129086077Y-77137648D01*
X129065702Y-77151261D01*
X129048375Y-77168589D01*
X128971846Y-77261840D01*
X128971844Y-77261841D01*
X128971843Y-77261843D01*
X128872868Y-77343070D01*
X128759948Y-77403427D01*
X128698685Y-77422011D01*
X128637423Y-77440595D01*
X128625998Y-77441720D01*
X128510000Y-77453145D01*
X128394003Y-77441720D01*
X128382578Y-77440595D01*
X128321316Y-77422011D01*
X128260053Y-77403427D01*
X128147133Y-77343070D01*
X128048158Y-77261843D01*
X127971618Y-77168579D01*
X127954301Y-77151262D01*
X127933926Y-77137648D01*
X127911287Y-77128271D01*
X127887254Y-77123490D01*
X127862750Y-77123490D01*
X127838716Y-77128270D01*
X127816077Y-77137648D01*
X127795702Y-77151261D01*
X127778375Y-77168589D01*
X127701846Y-77261840D01*
X127701844Y-77261841D01*
X127701843Y-77261843D01*
X127602868Y-77343070D01*
X127489948Y-77403427D01*
X127428685Y-77422011D01*
X127367423Y-77440595D01*
X127355998Y-77441720D01*
X127240000Y-77453145D01*
X127124003Y-77441720D01*
X127112578Y-77440595D01*
X127051316Y-77422011D01*
X126990053Y-77403427D01*
X126877133Y-77343070D01*
X126778158Y-77261843D01*
X126701618Y-77168579D01*
X126684301Y-77151262D01*
X126663926Y-77137648D01*
X126641287Y-77128271D01*
X126617254Y-77123490D01*
X126592750Y-77123490D01*
X126568716Y-77128270D01*
X126546077Y-77137648D01*
X126525702Y-77151261D01*
X126508375Y-77168589D01*
X126431846Y-77261840D01*
X126431844Y-77261841D01*
X126431843Y-77261843D01*
X126332868Y-77343070D01*
X126219948Y-77403427D01*
X126158685Y-77422011D01*
X126097423Y-77440595D01*
X126085998Y-77441720D01*
X125970000Y-77453145D01*
X125854003Y-77441720D01*
X125842578Y-77440595D01*
X125781316Y-77422011D01*
X125720053Y-77403427D01*
X125607133Y-77343070D01*
X125508158Y-77261843D01*
X125431618Y-77168579D01*
X125414301Y-77151262D01*
X125393926Y-77137648D01*
X125371287Y-77128271D01*
X125347254Y-77123490D01*
X125322750Y-77123490D01*
X125298716Y-77128270D01*
X125276077Y-77137648D01*
X125255702Y-77151261D01*
X125238375Y-77168589D01*
X125161846Y-77261840D01*
X125161844Y-77261841D01*
X125161843Y-77261843D01*
X125062868Y-77343070D01*
X124949948Y-77403427D01*
X124888685Y-77422011D01*
X124827423Y-77440595D01*
X124815998Y-77441720D01*
X124700000Y-77453145D01*
X124584003Y-77441720D01*
X124572578Y-77440595D01*
X124511316Y-77422011D01*
X124450053Y-77403427D01*
X124337133Y-77343070D01*
X124238158Y-77261843D01*
X124161618Y-77168579D01*
X124144301Y-77151262D01*
X124123926Y-77137648D01*
X124101287Y-77128271D01*
X124077254Y-77123490D01*
X124052750Y-77123490D01*
X124028716Y-77128270D01*
X124006077Y-77137648D01*
X123985702Y-77151261D01*
X123968375Y-77168589D01*
X123891846Y-77261840D01*
X123891844Y-77261841D01*
X123891843Y-77261843D01*
X123792868Y-77343070D01*
X123679948Y-77403427D01*
X123618685Y-77422011D01*
X123557423Y-77440595D01*
X123545998Y-77441720D01*
X123430000Y-77453145D01*
X123314003Y-77441720D01*
X123302578Y-77440595D01*
X123241316Y-77422011D01*
X123180053Y-77403427D01*
X123067133Y-77343070D01*
X122968158Y-77261843D01*
X122891618Y-77168579D01*
X122874301Y-77151262D01*
X122853926Y-77137648D01*
X122831287Y-77128271D01*
X122807254Y-77123490D01*
X122782750Y-77123490D01*
X122758716Y-77128270D01*
X122736077Y-77137648D01*
X122715702Y-77151261D01*
X122698375Y-77168589D01*
X122621846Y-77261840D01*
X122621844Y-77261841D01*
X122621843Y-77261843D01*
X122522868Y-77343070D01*
X122409948Y-77403427D01*
X122348685Y-77422011D01*
X122287423Y-77440595D01*
X122275998Y-77441720D01*
X122160000Y-77453145D01*
X122044003Y-77441720D01*
X122032578Y-77440595D01*
X121971316Y-77422011D01*
X121910053Y-77403427D01*
X121797133Y-77343070D01*
X121698158Y-77261843D01*
X121616931Y-77162868D01*
X121556574Y-77049948D01*
X121519406Y-76927422D01*
X121510001Y-76831932D01*
X121510000Y-74668069D01*
X121519405Y-74572579D01*
X121519406Y-74572577D01*
X121556573Y-74450054D01*
X121556573Y-74450053D01*
X121592811Y-74382256D01*
X121616928Y-74337136D01*
X121621626Y-74331411D01*
X121698157Y-74238157D01*
X121797132Y-74156930D01*
X121910052Y-74096573D01*
X121971315Y-74077989D01*
X122032577Y-74059405D01*
X122044002Y-74058280D01*
X122160000Y-74046855D01*
X122275997Y-74058280D01*
X122287422Y-74059405D01*
X122348684Y-74077989D01*
X122409947Y-74096573D01*
X122474777Y-74131225D01*
X122522864Y-74156928D01*
X122522865Y-74156929D01*
X122522867Y-74156930D01*
X122621843Y-74238157D01*
X122698383Y-74331421D01*
X122715700Y-74348738D01*
X122736075Y-74362352D01*
X122758714Y-74371729D01*
X122782747Y-74376510D01*
X122807251Y-74376510D01*
X122831285Y-74371730D01*
X122853924Y-74362352D01*
X122874299Y-74348739D01*
X122891621Y-74331417D01*
X122968157Y-74238157D01*
X123067132Y-74156930D01*
X123180052Y-74096573D01*
X123241315Y-74077989D01*
X123302577Y-74059405D01*
X123314002Y-74058280D01*
X123430000Y-74046855D01*
X123545997Y-74058280D01*
X123557422Y-74059405D01*
X123618684Y-74077989D01*
X123679947Y-74096573D01*
X123744777Y-74131225D01*
X123792864Y-74156928D01*
X123792865Y-74156929D01*
X123792867Y-74156930D01*
X123891843Y-74238157D01*
X123968383Y-74331421D01*
X123985700Y-74348738D01*
X124006075Y-74362352D01*
X124028714Y-74371729D01*
X124052747Y-74376510D01*
X124077251Y-74376510D01*
X124101285Y-74371730D01*
X124123924Y-74362352D01*
X124144299Y-74348739D01*
X124161621Y-74331417D01*
X124238157Y-74238157D01*
X124337132Y-74156930D01*
X124450052Y-74096573D01*
X124511315Y-74077989D01*
X124572577Y-74059405D01*
X124584002Y-74058280D01*
X124700000Y-74046855D01*
X124815997Y-74058280D01*
X124827422Y-74059405D01*
X124888684Y-74077989D01*
X124949947Y-74096573D01*
X125014777Y-74131225D01*
X125062864Y-74156928D01*
X125062865Y-74156929D01*
X125062867Y-74156930D01*
X125161843Y-74238157D01*
X125238383Y-74331421D01*
X125255700Y-74348738D01*
X125276075Y-74362352D01*
X125298714Y-74371729D01*
X125322747Y-74376510D01*
X125347251Y-74376510D01*
X125371285Y-74371730D01*
X125393924Y-74362352D01*
X125414299Y-74348739D01*
X125431621Y-74331417D01*
X125508157Y-74238157D01*
X125607132Y-74156930D01*
X125720052Y-74096573D01*
X125781315Y-74077989D01*
X125842577Y-74059405D01*
X125854002Y-74058280D01*
X125970000Y-74046855D01*
X126085997Y-74058280D01*
X126097422Y-74059405D01*
X126158684Y-74077989D01*
X126219947Y-74096573D01*
X126284777Y-74131225D01*
X126332864Y-74156928D01*
X126332865Y-74156929D01*
X126332867Y-74156930D01*
X126431843Y-74238157D01*
X126508383Y-74331421D01*
X126525700Y-74348738D01*
X126546075Y-74362352D01*
X126568714Y-74371729D01*
X126592747Y-74376510D01*
X126617251Y-74376510D01*
X126641285Y-74371730D01*
X126663924Y-74362352D01*
X126684299Y-74348739D01*
X126701621Y-74331417D01*
X126778157Y-74238157D01*
X126877132Y-74156930D01*
X126990052Y-74096573D01*
X127051315Y-74077989D01*
X127112577Y-74059405D01*
X127124002Y-74058280D01*
X127240000Y-74046855D01*
X127355997Y-74058280D01*
X127367422Y-74059405D01*
X127428684Y-74077989D01*
X127489947Y-74096573D01*
X127554777Y-74131225D01*
X127602864Y-74156928D01*
X127602865Y-74156929D01*
X127602867Y-74156930D01*
X127701843Y-74238157D01*
X127778383Y-74331421D01*
X127795700Y-74348738D01*
X127816075Y-74362352D01*
X127838714Y-74371729D01*
X127862747Y-74376510D01*
X127887251Y-74376510D01*
X127911285Y-74371730D01*
X127933924Y-74362352D01*
X127954299Y-74348739D01*
X127971621Y-74331417D01*
X128048157Y-74238157D01*
X128147132Y-74156930D01*
X128260052Y-74096573D01*
X128321315Y-74077989D01*
X128382577Y-74059405D01*
X128394002Y-74058280D01*
X128510000Y-74046855D01*
X128625997Y-74058280D01*
X128637422Y-74059405D01*
X128698684Y-74077989D01*
X128759947Y-74096573D01*
X128824777Y-74131225D01*
X128872864Y-74156928D01*
X128872865Y-74156929D01*
X128872867Y-74156930D01*
X128971843Y-74238157D01*
X129048383Y-74331421D01*
X129065700Y-74348738D01*
X129086075Y-74362352D01*
X129108714Y-74371729D01*
X129132747Y-74376510D01*
X129157251Y-74376510D01*
X129181285Y-74371730D01*
X129203924Y-74362352D01*
X129224299Y-74348739D01*
X129241621Y-74331417D01*
X129318157Y-74238157D01*
X129417132Y-74156930D01*
X129530052Y-74096573D01*
X129591315Y-74077989D01*
X129652577Y-74059405D01*
X129664002Y-74058280D01*
X129780000Y-74046855D01*
X129895997Y-74058280D01*
X129907422Y-74059405D01*
X129968684Y-74077989D01*
X130029947Y-74096573D01*
X130094777Y-74131225D01*
X130142864Y-74156928D01*
X130142865Y-74156929D01*
X130142867Y-74156930D01*
X130241843Y-74238157D01*
X130318383Y-74331421D01*
X130335700Y-74348738D01*
X130356075Y-74362352D01*
X130378714Y-74371729D01*
X130402747Y-74376510D01*
X130427251Y-74376510D01*
X130451285Y-74371730D01*
X130473924Y-74362352D01*
X130494299Y-74348739D01*
X130511621Y-74331417D01*
X130588157Y-74238157D01*
X130687132Y-74156930D01*
X130800052Y-74096573D01*
X130861315Y-74077989D01*
X130922577Y-74059405D01*
X130934002Y-74058280D01*
X131050000Y-74046855D01*
X131165997Y-74058280D01*
X131177422Y-74059405D01*
X131238684Y-74077989D01*
X131299947Y-74096573D01*
X131364777Y-74131225D01*
X131412864Y-74156928D01*
X131412865Y-74156929D01*
X131412867Y-74156930D01*
X131511843Y-74238157D01*
X131588383Y-74331421D01*
X131605700Y-74348738D01*
X131626075Y-74362352D01*
X131648714Y-74371729D01*
X131672747Y-74376510D01*
X131697251Y-74376510D01*
X131721285Y-74371730D01*
X131743924Y-74362352D01*
X131764299Y-74348739D01*
X131781621Y-74331417D01*
X131858157Y-74238157D01*
X131957132Y-74156930D01*
X132070052Y-74096573D01*
X132131315Y-74077989D01*
X132192577Y-74059405D01*
X132204002Y-74058280D01*
X132320000Y-74046855D01*
X132435997Y-74058280D01*
X132447422Y-74059405D01*
X132508684Y-74077989D01*
X132569947Y-74096573D01*
X132634777Y-74131225D01*
X132682864Y-74156928D01*
X132682865Y-74156929D01*
X132682867Y-74156930D01*
X132781843Y-74238157D01*
X132858383Y-74331421D01*
X132875700Y-74348738D01*
X132896075Y-74362352D01*
X132918714Y-74371729D01*
X132942747Y-74376510D01*
X132967251Y-74376510D01*
X132991285Y-74371730D01*
X133013924Y-74362352D01*
X133034299Y-74348739D01*
X133051621Y-74331417D01*
X133128157Y-74238157D01*
X133227132Y-74156930D01*
X133340052Y-74096573D01*
X133401315Y-74077989D01*
X133462577Y-74059405D01*
X133474002Y-74058280D01*
X133590000Y-74046855D01*
X133705997Y-74058280D01*
X133717422Y-74059405D01*
X133778684Y-74077989D01*
X133839947Y-74096573D01*
X133904777Y-74131225D01*
X133952864Y-74156928D01*
X133952865Y-74156929D01*
X133952867Y-74156930D01*
X134051843Y-74238157D01*
X134128383Y-74331421D01*
X134145700Y-74348738D01*
X134166075Y-74362352D01*
X134188714Y-74371729D01*
X134212747Y-74376510D01*
X134237251Y-74376510D01*
X134261285Y-74371730D01*
X134283924Y-74362352D01*
X134304299Y-74348739D01*
X134321621Y-74331417D01*
X134398157Y-74238157D01*
X134497132Y-74156930D01*
X134610052Y-74096573D01*
X134671315Y-74077989D01*
X134732577Y-74059405D01*
X134744002Y-74058280D01*
X134860000Y-74046855D01*
X134975997Y-74058280D01*
X134987422Y-74059405D01*
X135048684Y-74077989D01*
X135109947Y-74096573D01*
X135174777Y-74131225D01*
X135222864Y-74156928D01*
X135222865Y-74156929D01*
X135222867Y-74156930D01*
X135321843Y-74238157D01*
X135398383Y-74331421D01*
X135415700Y-74348738D01*
X135436075Y-74362352D01*
X135458714Y-74371729D01*
X135482747Y-74376510D01*
X135507251Y-74376510D01*
X135531285Y-74371730D01*
X135553924Y-74362352D01*
X135574299Y-74348739D01*
X135591621Y-74331417D01*
X135668157Y-74238157D01*
X135767132Y-74156930D01*
X135880052Y-74096573D01*
X135941315Y-74077989D01*
X136002577Y-74059405D01*
X136014002Y-74058280D01*
X136130000Y-74046855D01*
X136245997Y-74058280D01*
X136257422Y-74059405D01*
X136318684Y-74077989D01*
X136379947Y-74096573D01*
X136444777Y-74131225D01*
X136492864Y-74156928D01*
X136492865Y-74156929D01*
X136492867Y-74156930D01*
X136591843Y-74238157D01*
X136668383Y-74331421D01*
X136685700Y-74348738D01*
X136706075Y-74362352D01*
X136728714Y-74371729D01*
X136752747Y-74376510D01*
X136777251Y-74376510D01*
X136801285Y-74371730D01*
X136823924Y-74362352D01*
X136844299Y-74348739D01*
X136861621Y-74331417D01*
X136938157Y-74238157D01*
X137037132Y-74156930D01*
X137150052Y-74096573D01*
X137211315Y-74077989D01*
X137272577Y-74059405D01*
X137284002Y-74058280D01*
X137400000Y-74046855D01*
X137515997Y-74058280D01*
X137527422Y-74059405D01*
X137588684Y-74077989D01*
X137649947Y-74096573D01*
X137714777Y-74131225D01*
X137762864Y-74156928D01*
X137762865Y-74156929D01*
X137762867Y-74156930D01*
X137861843Y-74238157D01*
X137938383Y-74331421D01*
X137955700Y-74348738D01*
X137976075Y-74362352D01*
X137998714Y-74371729D01*
X138022747Y-74376510D01*
X138047251Y-74376510D01*
X138071285Y-74371730D01*
X138093924Y-74362352D01*
X138114299Y-74348739D01*
X138131621Y-74331417D01*
X138208157Y-74238157D01*
X138307132Y-74156930D01*
X138420052Y-74096573D01*
X138481315Y-74077989D01*
X138542577Y-74059405D01*
X138554002Y-74058280D01*
X138670000Y-74046855D01*
X138785997Y-74058280D01*
X138797422Y-74059405D01*
X138858684Y-74077989D01*
X138919947Y-74096573D01*
X138984777Y-74131225D01*
X139032864Y-74156928D01*
X139032865Y-74156929D01*
X139032867Y-74156930D01*
X139131843Y-74238157D01*
X139213070Y-74337132D01*
X139213072Y-74337136D01*
X139217525Y-74342562D01*
X139223373Y-74351315D01*
X139240700Y-74368642D01*
X139261075Y-74382256D01*
X139283714Y-74391633D01*
X139307747Y-74396414D01*
X139332252Y-74396414D01*
X139356285Y-74391634D01*
X139378924Y-74382256D01*
X139399299Y-74368643D01*
X139416626Y-74351316D01*
X139422474Y-74342564D01*
X139426928Y-74337137D01*
X139426930Y-74337133D01*
X139508157Y-74238157D01*
X139607132Y-74156930D01*
X139720052Y-74096573D01*
X139781315Y-74077989D01*
X139842577Y-74059405D01*
X139854002Y-74058280D01*
X139970000Y-74046855D01*
X140085997Y-74058280D01*
X140097422Y-74059405D01*
X140158684Y-74077989D01*
X140219947Y-74096573D01*
X140284777Y-74131225D01*
X140332864Y-74156928D01*
X140332865Y-74156929D01*
X140332867Y-74156930D01*
X140431843Y-74238157D01*
X140508383Y-74331421D01*
X140525700Y-74348738D01*
X140546075Y-74362352D01*
X140568714Y-74371729D01*
X140592747Y-74376510D01*
X140617251Y-74376510D01*
X140641285Y-74371730D01*
X140663924Y-74362352D01*
X140684299Y-74348739D01*
X140701621Y-74331417D01*
X140778157Y-74238157D01*
X140877132Y-74156930D01*
X140990052Y-74096573D01*
X141051315Y-74077989D01*
X141112577Y-74059405D01*
X141124002Y-74058280D01*
X141240000Y-74046855D01*
X141355997Y-74058280D01*
X141367422Y-74059405D01*
X141428684Y-74077989D01*
X141489947Y-74096573D01*
X141554777Y-74131225D01*
X141602864Y-74156928D01*
X141602865Y-74156929D01*
X141602867Y-74156930D01*
X141701843Y-74238157D01*
X141778383Y-74331421D01*
X141795700Y-74348738D01*
X141816075Y-74362352D01*
X141838714Y-74371729D01*
X141862747Y-74376510D01*
X141887251Y-74376510D01*
X141911285Y-74371730D01*
X141933924Y-74362352D01*
X141954299Y-74348739D01*
X141971621Y-74331417D01*
X142048157Y-74238157D01*
X142147132Y-74156930D01*
X142260052Y-74096573D01*
X142321315Y-74077989D01*
X142382577Y-74059405D01*
X142394002Y-74058280D01*
X142510000Y-74046855D01*
X142625997Y-74058280D01*
X142637422Y-74059405D01*
X142698684Y-74077989D01*
X142759947Y-74096573D01*
X142824777Y-74131225D01*
X142872864Y-74156928D01*
X142872865Y-74156929D01*
X142872867Y-74156930D01*
X142971843Y-74238157D01*
X143048383Y-74331421D01*
X143065700Y-74348738D01*
X143086075Y-74362352D01*
X143108714Y-74371729D01*
X143132747Y-74376510D01*
X143157251Y-74376510D01*
X143181285Y-74371730D01*
X143203924Y-74362352D01*
X143224299Y-74348739D01*
X143241621Y-74331417D01*
X143318157Y-74238157D01*
X143417132Y-74156930D01*
X143530052Y-74096573D01*
X143591315Y-74077989D01*
X143652577Y-74059405D01*
X143664002Y-74058280D01*
X143780000Y-74046855D01*
X143895997Y-74058280D01*
X143907422Y-74059405D01*
X143968684Y-74077989D01*
X144029947Y-74096573D01*
X144094777Y-74131225D01*
X144142864Y-74156928D01*
X144142865Y-74156929D01*
X144142867Y-74156930D01*
X144241843Y-74238157D01*
X144318383Y-74331421D01*
X144335700Y-74348738D01*
X144356075Y-74362352D01*
X144378714Y-74371729D01*
X144402747Y-74376510D01*
X144427251Y-74376510D01*
X144451285Y-74371730D01*
X144473924Y-74362352D01*
X144494299Y-74348739D01*
X144511621Y-74331417D01*
X144588157Y-74238157D01*
X144687132Y-74156930D01*
X144800052Y-74096573D01*
X144861315Y-74077989D01*
X144922577Y-74059405D01*
X144934002Y-74058280D01*
X145050000Y-74046855D01*
X145165997Y-74058280D01*
X145165997Y-74058280D01*
G37*
G36*
X162232482Y-75180186D02*
X162277204Y-75193753D01*
X162318433Y-75215790D01*
X162354561Y-75245439D01*
X162384210Y-75281567D01*
X162406247Y-75322796D01*
X162419814Y-75367518D01*
X162425000Y-75420175D01*
X162425000Y-77079825D01*
X162419814Y-77132482D01*
X162406247Y-77177204D01*
X162384210Y-77218433D01*
X162354561Y-77254561D01*
X162318433Y-77284210D01*
X162277204Y-77306247D01*
X162232482Y-77319814D01*
X162179825Y-77325000D01*
X160845175Y-77325000D01*
X160792518Y-77319814D01*
X160747796Y-77306247D01*
X160706567Y-77284210D01*
X160670439Y-77254561D01*
X160640790Y-77218433D01*
X160618753Y-77177204D01*
X160605186Y-77132482D01*
X160600000Y-77079825D01*
X160600000Y-75420175D01*
X160605186Y-75367518D01*
X160618753Y-75322796D01*
X160640790Y-75281567D01*
X160670439Y-75245439D01*
X160706567Y-75215790D01*
X160747796Y-75193753D01*
X160792518Y-75180186D01*
X160845175Y-75175000D01*
X162179825Y-75175000D01*
X162232482Y-75180186D01*
X162232482Y-75180186D01*
G37*
G36*
X165207482Y-75180186D02*
X165252204Y-75193753D01*
X165293433Y-75215790D01*
X165329561Y-75245439D01*
X165359210Y-75281567D01*
X165381247Y-75322796D01*
X165394814Y-75367518D01*
X165400000Y-75420175D01*
X165400000Y-77079825D01*
X165394814Y-77132482D01*
X165381247Y-77177204D01*
X165359210Y-77218433D01*
X165329561Y-77254561D01*
X165293433Y-77284210D01*
X165252204Y-77306247D01*
X165207482Y-77319814D01*
X165154825Y-77325000D01*
X163820175Y-77325000D01*
X163767518Y-77319814D01*
X163722796Y-77306247D01*
X163681567Y-77284210D01*
X163645439Y-77254561D01*
X163615790Y-77218433D01*
X163593753Y-77177204D01*
X163580186Y-77132482D01*
X163575000Y-77079825D01*
X163575000Y-75420175D01*
X163580186Y-75367518D01*
X163593753Y-75322796D01*
X163615790Y-75281567D01*
X163645439Y-75245439D01*
X163681567Y-75215790D01*
X163722796Y-75193753D01*
X163767518Y-75180186D01*
X163820175Y-75175000D01*
X165154825Y-75175000D01*
X165207482Y-75180186D01*
X165207482Y-75180186D01*
G37*
G36*
X187922947Y-72355722D02*
X188186833Y-72465027D01*
X188424324Y-72623713D01*
X188626287Y-72825676D01*
X188784973Y-73063167D01*
X188894278Y-73327053D01*
X188950000Y-73607186D01*
X188950000Y-73892814D01*
X188894278Y-74172947D01*
X188784973Y-74436833D01*
X188626287Y-74674324D01*
X188424324Y-74876287D01*
X188186833Y-75034973D01*
X187922947Y-75144278D01*
X187642814Y-75200000D01*
X187357186Y-75200000D01*
X187077053Y-75144278D01*
X186813167Y-75034973D01*
X186575676Y-74876287D01*
X186373713Y-74674324D01*
X186215027Y-74436833D01*
X186105722Y-74172947D01*
X186050000Y-73892814D01*
X186050000Y-73607186D01*
X186105722Y-73327053D01*
X186215027Y-73063167D01*
X186373713Y-72825676D01*
X186575676Y-72623713D01*
X186813167Y-72465027D01*
X187077053Y-72355722D01*
X187357186Y-72300000D01*
X187642814Y-72300000D01*
X187922947Y-72355722D01*
X187922947Y-72355722D01*
G37*
G36*
X181882482Y-73367686D02*
X181927204Y-73381253D01*
X181968433Y-73403290D01*
X182004561Y-73432939D01*
X182034210Y-73469067D01*
X182056247Y-73510296D01*
X182069814Y-73555018D01*
X182075000Y-73607675D01*
X182075000Y-74942325D01*
X182069814Y-74994982D01*
X182056247Y-75039704D01*
X182034210Y-75080933D01*
X182004561Y-75117061D01*
X181968433Y-75146710D01*
X181927204Y-75168747D01*
X181882482Y-75182314D01*
X181829825Y-75187500D01*
X180170175Y-75187500D01*
X180117518Y-75182314D01*
X180072796Y-75168747D01*
X180031567Y-75146710D01*
X179995439Y-75117061D01*
X179965790Y-75080933D01*
X179943753Y-75039704D01*
X179930186Y-74994982D01*
X179925000Y-74942325D01*
X179925000Y-73607675D01*
X179930186Y-73555018D01*
X179943753Y-73510296D01*
X179965790Y-73469067D01*
X179995439Y-73432939D01*
X180031567Y-73403290D01*
X180072796Y-73381253D01*
X180117518Y-73367686D01*
X180170175Y-73362500D01*
X181829825Y-73362500D01*
X181882482Y-73367686D01*
X181882482Y-73367686D01*
G37*
G36*
X164072768Y-71099979D02*
X164117490Y-71113546D01*
X164158719Y-71135583D01*
X164194847Y-71165232D01*
X164224496Y-71201360D01*
X164246533Y-71242589D01*
X164260100Y-71287311D01*
X164265286Y-71339968D01*
X164265286Y-72999618D01*
X164260100Y-73052275D01*
X164246533Y-73096997D01*
X164224496Y-73138226D01*
X164194847Y-73174354D01*
X164158719Y-73204003D01*
X164117490Y-73226040D01*
X164072768Y-73239607D01*
X164020111Y-73244793D01*
X162685461Y-73244793D01*
X162632804Y-73239607D01*
X162588082Y-73226040D01*
X162546853Y-73204003D01*
X162510725Y-73174354D01*
X162481076Y-73138226D01*
X162459039Y-73096997D01*
X162445472Y-73052275D01*
X162440286Y-72999618D01*
X162440286Y-71339968D01*
X162445472Y-71287311D01*
X162459039Y-71242589D01*
X162481076Y-71201360D01*
X162510725Y-71165232D01*
X162546853Y-71135583D01*
X162588082Y-71113546D01*
X162632804Y-71099979D01*
X162685461Y-71094793D01*
X164020111Y-71094793D01*
X164072768Y-71099979D01*
X164072768Y-71099979D01*
G37*
G36*
X161097768Y-71099979D02*
X161142490Y-71113546D01*
X161183719Y-71135583D01*
X161219847Y-71165232D01*
X161249496Y-71201360D01*
X161271533Y-71242589D01*
X161285100Y-71287311D01*
X161290286Y-71339968D01*
X161290286Y-72999618D01*
X161285100Y-73052275D01*
X161271533Y-73096997D01*
X161249496Y-73138226D01*
X161219847Y-73174354D01*
X161183719Y-73204003D01*
X161142490Y-73226040D01*
X161097768Y-73239607D01*
X161045111Y-73244793D01*
X159710461Y-73244793D01*
X159657804Y-73239607D01*
X159613082Y-73226040D01*
X159571853Y-73204003D01*
X159535725Y-73174354D01*
X159506076Y-73138226D01*
X159484039Y-73096997D01*
X159470472Y-73052275D01*
X159465286Y-72999618D01*
X159465286Y-71339968D01*
X159470472Y-71287311D01*
X159484039Y-71242589D01*
X159506076Y-71201360D01*
X159535725Y-71165232D01*
X159571853Y-71135583D01*
X159613082Y-71113546D01*
X159657804Y-71099979D01*
X159710461Y-71094793D01*
X161045111Y-71094793D01*
X161097768Y-71099979D01*
X161097768Y-71099979D01*
G37*
G36*
X171632482Y-71342686D02*
X171677204Y-71356253D01*
X171718433Y-71378290D01*
X171754561Y-71407939D01*
X171784210Y-71444067D01*
X171806247Y-71485296D01*
X171819814Y-71530018D01*
X171825000Y-71582675D01*
X171825000Y-72917325D01*
X171819814Y-72969982D01*
X171806247Y-73014704D01*
X171784210Y-73055933D01*
X171754561Y-73092061D01*
X171718433Y-73121710D01*
X171677204Y-73143747D01*
X171632482Y-73157314D01*
X171579825Y-73162500D01*
X169920175Y-73162500D01*
X169867518Y-73157314D01*
X169822796Y-73143747D01*
X169781567Y-73121710D01*
X169745439Y-73092061D01*
X169715790Y-73055933D01*
X169693753Y-73014704D01*
X169680186Y-72969982D01*
X169675000Y-72917325D01*
X169675000Y-71582675D01*
X169680186Y-71530018D01*
X169693753Y-71485296D01*
X169715790Y-71444067D01*
X169745439Y-71407939D01*
X169781567Y-71378290D01*
X169822796Y-71356253D01*
X169867518Y-71342686D01*
X169920175Y-71337500D01*
X171579825Y-71337500D01*
X171632482Y-71342686D01*
X171632482Y-71342686D01*
G37*
G36*
X167882482Y-71330186D02*
X167927204Y-71343753D01*
X167968433Y-71365790D01*
X168004561Y-71395439D01*
X168034210Y-71431567D01*
X168056247Y-71472796D01*
X168069814Y-71517518D01*
X168075000Y-71570175D01*
X168075000Y-72904825D01*
X168069814Y-72957482D01*
X168056247Y-73002204D01*
X168034210Y-73043433D01*
X168004561Y-73079561D01*
X167968433Y-73109210D01*
X167927204Y-73131247D01*
X167882482Y-73144814D01*
X167829825Y-73150000D01*
X166170175Y-73150000D01*
X166117518Y-73144814D01*
X166072796Y-73131247D01*
X166031567Y-73109210D01*
X165995439Y-73079561D01*
X165965790Y-73043433D01*
X165943753Y-73002204D01*
X165930186Y-72957482D01*
X165925000Y-72904825D01*
X165925000Y-71570175D01*
X165930186Y-71517518D01*
X165943753Y-71472796D01*
X165965790Y-71431567D01*
X165995439Y-71395439D01*
X166031567Y-71365790D01*
X166072796Y-71343753D01*
X166117518Y-71330186D01*
X166170175Y-71325000D01*
X167829825Y-71325000D01*
X167882482Y-71330186D01*
X167882482Y-71330186D01*
G37*
G36*
X157005471Y-70970512D02*
X157050193Y-70984079D01*
X157091422Y-71006116D01*
X157127550Y-71035765D01*
X157157199Y-71071893D01*
X157179236Y-71113122D01*
X157192803Y-71157844D01*
X157197989Y-71210501D01*
X157197989Y-72870151D01*
X157192803Y-72922808D01*
X157179236Y-72967530D01*
X157157199Y-73008759D01*
X157127550Y-73044887D01*
X157091422Y-73074536D01*
X157050193Y-73096573D01*
X157005471Y-73110140D01*
X156952814Y-73115326D01*
X155618164Y-73115326D01*
X155565507Y-73110140D01*
X155520785Y-73096573D01*
X155479556Y-73074536D01*
X155443428Y-73044887D01*
X155413779Y-73008759D01*
X155391742Y-72967530D01*
X155378175Y-72922808D01*
X155372989Y-72870151D01*
X155372989Y-71210501D01*
X155378175Y-71157844D01*
X155391742Y-71113122D01*
X155413779Y-71071893D01*
X155443428Y-71035765D01*
X155479556Y-71006116D01*
X155520785Y-70984079D01*
X155565507Y-70970512D01*
X155618164Y-70965326D01*
X156952814Y-70965326D01*
X157005471Y-70970512D01*
X157005471Y-70970512D01*
G37*
G36*
X154030471Y-70970512D02*
X154075193Y-70984079D01*
X154116422Y-71006116D01*
X154152550Y-71035765D01*
X154182199Y-71071893D01*
X154204236Y-71113122D01*
X154217803Y-71157844D01*
X154222989Y-71210501D01*
X154222989Y-72870151D01*
X154217803Y-72922808D01*
X154204236Y-72967530D01*
X154182199Y-73008759D01*
X154152550Y-73044887D01*
X154116422Y-73074536D01*
X154075193Y-73096573D01*
X154030471Y-73110140D01*
X153977814Y-73115326D01*
X152643164Y-73115326D01*
X152590507Y-73110140D01*
X152545785Y-73096573D01*
X152504556Y-73074536D01*
X152468428Y-73044887D01*
X152438779Y-73008759D01*
X152416742Y-72967530D01*
X152403175Y-72922808D01*
X152397989Y-72870151D01*
X152397989Y-71210501D01*
X152403175Y-71157844D01*
X152416742Y-71113122D01*
X152438779Y-71071893D01*
X152468428Y-71035765D01*
X152504556Y-71006116D01*
X152545785Y-70984079D01*
X152590507Y-70970512D01*
X152643164Y-70965326D01*
X153977814Y-70965326D01*
X154030471Y-70970512D01*
X154030471Y-70970512D01*
G37*
G36*
X180955000Y-72375000D02*
X179245000Y-72375000D01*
X179245000Y-67625000D01*
X180955000Y-67625000D01*
X180955000Y-72375000D01*
X180955000Y-72375000D01*
G37*
G36*
X175255000Y-69450000D02*
X175257402Y-69474386D01*
X175260000Y-69482951D01*
X175260000Y-70517049D01*
X175257402Y-70525614D01*
X175255000Y-70550000D01*
X175255000Y-72375000D01*
X173545000Y-72375000D01*
X173545000Y-70132951D01*
X173547598Y-70124386D01*
X173550000Y-70100000D01*
X173550000Y-69900000D01*
X173547598Y-69875614D01*
X173545000Y-69867049D01*
X173545000Y-67625000D01*
X175255000Y-67625000D01*
X175255000Y-69450000D01*
X175255000Y-69450000D01*
G37*
G36*
X176858552Y-67797598D02*
X176882938Y-67800000D01*
X177617062Y-67800000D01*
X177641448Y-67797598D01*
X177790250Y-67768000D01*
X177979750Y-67768000D01*
X178128552Y-67797598D01*
X178152938Y-67800000D01*
X178775000Y-67800000D01*
X178775000Y-68339958D01*
X178777402Y-68364344D01*
X178784514Y-68387792D01*
X178798037Y-68420439D01*
X178810032Y-68449398D01*
X178842598Y-68613122D01*
X178847000Y-68635251D01*
X178847000Y-68824749D01*
X178810031Y-69010605D01*
X178798684Y-69038000D01*
X178784515Y-69072206D01*
X178777402Y-69095655D01*
X178775000Y-69120042D01*
X178775000Y-70879958D01*
X178777402Y-70904344D01*
X178784514Y-70927792D01*
X178807829Y-70984079D01*
X178810032Y-70989398D01*
X178847000Y-71175250D01*
X178847000Y-71364750D01*
X178813106Y-71535150D01*
X178810031Y-71550605D01*
X178796732Y-71582713D01*
X178784515Y-71612206D01*
X178777402Y-71635655D01*
X178775000Y-71660042D01*
X178775000Y-72200000D01*
X178152938Y-72200000D01*
X178128552Y-72202402D01*
X177979750Y-72232000D01*
X177790250Y-72232000D01*
X177641448Y-72202402D01*
X177617062Y-72200000D01*
X176882938Y-72200000D01*
X176858552Y-72202402D01*
X176709750Y-72232000D01*
X176520250Y-72232000D01*
X176371448Y-72202402D01*
X176347062Y-72200000D01*
X175725000Y-72200000D01*
X175725000Y-71660042D01*
X175722598Y-71635656D01*
X175715485Y-71612206D01*
X175703269Y-71582713D01*
X175689969Y-71550605D01*
X175686895Y-71535150D01*
X175653000Y-71364750D01*
X175653000Y-71175250D01*
X175689968Y-70989398D01*
X175692171Y-70984079D01*
X175715486Y-70927792D01*
X175722598Y-70904345D01*
X175725000Y-70879958D01*
X175725000Y-69120042D01*
X175722598Y-69095656D01*
X175715485Y-69072206D01*
X175701317Y-69038000D01*
X175689969Y-69010605D01*
X175653000Y-68824749D01*
X175653000Y-68635251D01*
X175657402Y-68613122D01*
X175689968Y-68449398D01*
X175701963Y-68420439D01*
X175715486Y-68387792D01*
X175722598Y-68364345D01*
X175725000Y-68339958D01*
X175725000Y-67800000D01*
X176347062Y-67800000D01*
X176371448Y-67797598D01*
X176520250Y-67768000D01*
X176709750Y-67768000D01*
X176858552Y-67797598D01*
X176858552Y-67797598D01*
G37*
G36*
X154030471Y-68470512D02*
X154075193Y-68484079D01*
X154116422Y-68506116D01*
X154152550Y-68535765D01*
X154182199Y-68571893D01*
X154204236Y-68613122D01*
X154217803Y-68657844D01*
X154222989Y-68710501D01*
X154222989Y-70370151D01*
X154217803Y-70422808D01*
X154204236Y-70467530D01*
X154182199Y-70508759D01*
X154152550Y-70544887D01*
X154116422Y-70574536D01*
X154075193Y-70596573D01*
X154030471Y-70610140D01*
X153977814Y-70615326D01*
X152643164Y-70615326D01*
X152590507Y-70610140D01*
X152545785Y-70596573D01*
X152504556Y-70574536D01*
X152468428Y-70544887D01*
X152438779Y-70508759D01*
X152416742Y-70467530D01*
X152403175Y-70422808D01*
X152397989Y-70370151D01*
X152397989Y-68710501D01*
X152403175Y-68657844D01*
X152416742Y-68613122D01*
X152438779Y-68571893D01*
X152468428Y-68535765D01*
X152504556Y-68506116D01*
X152545785Y-68484079D01*
X152590507Y-68470512D01*
X152643164Y-68465326D01*
X153977814Y-68465326D01*
X154030471Y-68470512D01*
X154030471Y-68470512D01*
G37*
G36*
X157005471Y-68470512D02*
X157050193Y-68484079D01*
X157091422Y-68506116D01*
X157127550Y-68535765D01*
X157157199Y-68571893D01*
X157179236Y-68613122D01*
X157192803Y-68657844D01*
X157197989Y-68710501D01*
X157197989Y-70370151D01*
X157192803Y-70422808D01*
X157179236Y-70467530D01*
X157157199Y-70508759D01*
X157127550Y-70544887D01*
X157091422Y-70574536D01*
X157050193Y-70596573D01*
X157005471Y-70610140D01*
X156952814Y-70615326D01*
X155618164Y-70615326D01*
X155565507Y-70610140D01*
X155520785Y-70596573D01*
X155479556Y-70574536D01*
X155443428Y-70544887D01*
X155413779Y-70508759D01*
X155391742Y-70467530D01*
X155378175Y-70422808D01*
X155372989Y-70370151D01*
X155372989Y-68710501D01*
X155378175Y-68657844D01*
X155391742Y-68613122D01*
X155413779Y-68571893D01*
X155443428Y-68535765D01*
X155479556Y-68506116D01*
X155520785Y-68484079D01*
X155565507Y-68470512D01*
X155618164Y-68465326D01*
X156952814Y-68465326D01*
X157005471Y-68470512D01*
X157005471Y-68470512D01*
G37*
G36*
X161200000Y-70200000D02*
X159800000Y-70200000D01*
X159800000Y-68800000D01*
X161200000Y-68800000D01*
X161200000Y-70200000D01*
X161200000Y-70200000D01*
G37*
G36*
X163700000Y-70200000D02*
X162300000Y-70200000D01*
X162300000Y-68800000D01*
X163700000Y-68800000D01*
X163700000Y-70200000D01*
X163700000Y-70200000D01*
G37*
G36*
X171632482Y-68367686D02*
X171677204Y-68381253D01*
X171718433Y-68403290D01*
X171754561Y-68432939D01*
X171784210Y-68469067D01*
X171806247Y-68510296D01*
X171819814Y-68555018D01*
X171825000Y-68607675D01*
X171825000Y-69942325D01*
X171819814Y-69994982D01*
X171806247Y-70039704D01*
X171784210Y-70080933D01*
X171754561Y-70117061D01*
X171718433Y-70146710D01*
X171677204Y-70168747D01*
X171632482Y-70182314D01*
X171579825Y-70187500D01*
X169920175Y-70187500D01*
X169867518Y-70182314D01*
X169822796Y-70168747D01*
X169781567Y-70146710D01*
X169745439Y-70117061D01*
X169715790Y-70080933D01*
X169693753Y-70039704D01*
X169680186Y-69994982D01*
X169675000Y-69942325D01*
X169675000Y-68607675D01*
X169680186Y-68555018D01*
X169693753Y-68510296D01*
X169715790Y-68469067D01*
X169745439Y-68432939D01*
X169781567Y-68403290D01*
X169822796Y-68381253D01*
X169867518Y-68367686D01*
X169920175Y-68362500D01*
X171579825Y-68362500D01*
X171632482Y-68367686D01*
X171632482Y-68367686D01*
G37*
G36*
X167882482Y-68355186D02*
X167927204Y-68368753D01*
X167968433Y-68390790D01*
X168004561Y-68420439D01*
X168034210Y-68456567D01*
X168056247Y-68497796D01*
X168069814Y-68542518D01*
X168075000Y-68595175D01*
X168075000Y-69929825D01*
X168069814Y-69982482D01*
X168056247Y-70027204D01*
X168034210Y-70068433D01*
X168004561Y-70104561D01*
X167968433Y-70134210D01*
X167927204Y-70156247D01*
X167882482Y-70169814D01*
X167829825Y-70175000D01*
X166170175Y-70175000D01*
X166117518Y-70169814D01*
X166072796Y-70156247D01*
X166031567Y-70134210D01*
X165995439Y-70104561D01*
X165965790Y-70068433D01*
X165943753Y-70027204D01*
X165930186Y-69982482D01*
X165925000Y-69929825D01*
X165925000Y-68595175D01*
X165930186Y-68542518D01*
X165943753Y-68497796D01*
X165965790Y-68456567D01*
X165995439Y-68420439D01*
X166031567Y-68390790D01*
X166072796Y-68368753D01*
X166117518Y-68355186D01*
X166170175Y-68350000D01*
X167829825Y-68350000D01*
X167882482Y-68355186D01*
X167882482Y-68355186D01*
G37*
G36*
X131780000Y-69850000D02*
X126380000Y-69850000D01*
X126380000Y-64450000D01*
X131780000Y-64450000D01*
X131780000Y-69850000D01*
X131780000Y-69850000D01*
G37*
G36*
X154030471Y-65864262D02*
X154075193Y-65877829D01*
X154116422Y-65899866D01*
X154152550Y-65929515D01*
X154182199Y-65965643D01*
X154204236Y-66006872D01*
X154217803Y-66051594D01*
X154222989Y-66104251D01*
X154222989Y-67763901D01*
X154217803Y-67816558D01*
X154204236Y-67861280D01*
X154182199Y-67902509D01*
X154152550Y-67938637D01*
X154116422Y-67968286D01*
X154075193Y-67990323D01*
X154030471Y-68003890D01*
X153977814Y-68009076D01*
X152643164Y-68009076D01*
X152590507Y-68003890D01*
X152545785Y-67990323D01*
X152504556Y-67968286D01*
X152468428Y-67938637D01*
X152438779Y-67902509D01*
X152416742Y-67861280D01*
X152403175Y-67816558D01*
X152397989Y-67763901D01*
X152397989Y-66104251D01*
X152403175Y-66051594D01*
X152416742Y-66006872D01*
X152438779Y-65965643D01*
X152468428Y-65929515D01*
X152504556Y-65899866D01*
X152545785Y-65877829D01*
X152590507Y-65864262D01*
X152643164Y-65859076D01*
X153977814Y-65859076D01*
X154030471Y-65864262D01*
X154030471Y-65864262D01*
G37*
G36*
X157005471Y-65864262D02*
X157050193Y-65877829D01*
X157091422Y-65899866D01*
X157127550Y-65929515D01*
X157157199Y-65965643D01*
X157179236Y-66006872D01*
X157192803Y-66051594D01*
X157197989Y-66104251D01*
X157197989Y-67763901D01*
X157192803Y-67816558D01*
X157179236Y-67861280D01*
X157157199Y-67902509D01*
X157127550Y-67938637D01*
X157091422Y-67968286D01*
X157050193Y-67990323D01*
X157005471Y-68003890D01*
X156952814Y-68009076D01*
X155618164Y-68009076D01*
X155565507Y-68003890D01*
X155520785Y-67990323D01*
X155479556Y-67968286D01*
X155443428Y-67938637D01*
X155413779Y-67902509D01*
X155391742Y-67861280D01*
X155378175Y-67816558D01*
X155372989Y-67763901D01*
X155372989Y-66104251D01*
X155378175Y-66051594D01*
X155391742Y-66006872D01*
X155413779Y-65965643D01*
X155443428Y-65929515D01*
X155479556Y-65899866D01*
X155520785Y-65877829D01*
X155565507Y-65864262D01*
X155618164Y-65859076D01*
X156952814Y-65859076D01*
X157005471Y-65864262D01*
X157005471Y-65864262D01*
G37*
G36*
X171732482Y-64680186D02*
X171777204Y-64693753D01*
X171818433Y-64715790D01*
X171854561Y-64745439D01*
X171884210Y-64781567D01*
X171906247Y-64822796D01*
X171919814Y-64867518D01*
X171925000Y-64920175D01*
X171925000Y-66579825D01*
X171919814Y-66632482D01*
X171906247Y-66677204D01*
X171884210Y-66718433D01*
X171854561Y-66754561D01*
X171818433Y-66784210D01*
X171777204Y-66806247D01*
X171732482Y-66819814D01*
X171679825Y-66825000D01*
X170345175Y-66825000D01*
X170292518Y-66819814D01*
X170247796Y-66806247D01*
X170206567Y-66784210D01*
X170170439Y-66754561D01*
X170140790Y-66718433D01*
X170118753Y-66677204D01*
X170105186Y-66632482D01*
X170100000Y-66579825D01*
X170100000Y-64920175D01*
X170105186Y-64867518D01*
X170118753Y-64822796D01*
X170140790Y-64781567D01*
X170170439Y-64745439D01*
X170206567Y-64715790D01*
X170247796Y-64693753D01*
X170292518Y-64680186D01*
X170345175Y-64675000D01*
X171679825Y-64675000D01*
X171732482Y-64680186D01*
X171732482Y-64680186D01*
G37*
G36*
X164744982Y-64680186D02*
X164789704Y-64693753D01*
X164830933Y-64715790D01*
X164867061Y-64745439D01*
X164896710Y-64781567D01*
X164918747Y-64822796D01*
X164932314Y-64867518D01*
X164937500Y-64920175D01*
X164937500Y-66579825D01*
X164932314Y-66632482D01*
X164918747Y-66677204D01*
X164896710Y-66718433D01*
X164867061Y-66754561D01*
X164830933Y-66784210D01*
X164789704Y-66806247D01*
X164744982Y-66819814D01*
X164692325Y-66825000D01*
X163357675Y-66825000D01*
X163305018Y-66819814D01*
X163260296Y-66806247D01*
X163219067Y-66784210D01*
X163182939Y-66754561D01*
X163153290Y-66718433D01*
X163131253Y-66677204D01*
X163117686Y-66632482D01*
X163112500Y-66579825D01*
X163112500Y-64920175D01*
X163117686Y-64867518D01*
X163131253Y-64822796D01*
X163153290Y-64781567D01*
X163182939Y-64745439D01*
X163219067Y-64715790D01*
X163260296Y-64693753D01*
X163305018Y-64680186D01*
X163357675Y-64675000D01*
X164692325Y-64675000D01*
X164744982Y-64680186D01*
X164744982Y-64680186D01*
G37*
G36*
X167719982Y-64680186D02*
X167764704Y-64693753D01*
X167805933Y-64715790D01*
X167842061Y-64745439D01*
X167871710Y-64781567D01*
X167893747Y-64822796D01*
X167907314Y-64867518D01*
X167912500Y-64920175D01*
X167912500Y-66579825D01*
X167907314Y-66632482D01*
X167893747Y-66677204D01*
X167871710Y-66718433D01*
X167842061Y-66754561D01*
X167805933Y-66784210D01*
X167764704Y-66806247D01*
X167719982Y-66819814D01*
X167667325Y-66825000D01*
X166332675Y-66825000D01*
X166280018Y-66819814D01*
X166235296Y-66806247D01*
X166194067Y-66784210D01*
X166157939Y-66754561D01*
X166128290Y-66718433D01*
X166106253Y-66677204D01*
X166092686Y-66632482D01*
X166087500Y-66579825D01*
X166087500Y-64920175D01*
X166092686Y-64867518D01*
X166106253Y-64822796D01*
X166128290Y-64781567D01*
X166157939Y-64745439D01*
X166194067Y-64715790D01*
X166235296Y-64693753D01*
X166280018Y-64680186D01*
X166332675Y-64675000D01*
X167667325Y-64675000D01*
X167719982Y-64680186D01*
X167719982Y-64680186D01*
G37*
G36*
X174707482Y-64680186D02*
X174752204Y-64693753D01*
X174793433Y-64715790D01*
X174829561Y-64745439D01*
X174859210Y-64781567D01*
X174881247Y-64822796D01*
X174894814Y-64867518D01*
X174900000Y-64920175D01*
X174900000Y-66579825D01*
X174894814Y-66632482D01*
X174881247Y-66677204D01*
X174859210Y-66718433D01*
X174829561Y-66754561D01*
X174793433Y-66784210D01*
X174752204Y-66806247D01*
X174707482Y-66819814D01*
X174654825Y-66825000D01*
X173320175Y-66825000D01*
X173267518Y-66819814D01*
X173222796Y-66806247D01*
X173181567Y-66784210D01*
X173145439Y-66754561D01*
X173115790Y-66718433D01*
X173093753Y-66677204D01*
X173080186Y-66632482D01*
X173075000Y-66579825D01*
X173075000Y-64920175D01*
X173080186Y-64867518D01*
X173093753Y-64822796D01*
X173115790Y-64781567D01*
X173145439Y-64745439D01*
X173181567Y-64715790D01*
X173222796Y-64693753D01*
X173267518Y-64680186D01*
X173320175Y-64675000D01*
X174654825Y-64675000D01*
X174707482Y-64680186D01*
X174707482Y-64680186D01*
G37*
G36*
X154030471Y-63364262D02*
X154075193Y-63377829D01*
X154116422Y-63399866D01*
X154152550Y-63429515D01*
X154182199Y-63465643D01*
X154204236Y-63506872D01*
X154217803Y-63551594D01*
X154222989Y-63604251D01*
X154222989Y-65263901D01*
X154217803Y-65316558D01*
X154204236Y-65361280D01*
X154182199Y-65402509D01*
X154152550Y-65438637D01*
X154116422Y-65468286D01*
X154075193Y-65490323D01*
X154030471Y-65503890D01*
X153977814Y-65509076D01*
X152643164Y-65509076D01*
X152590507Y-65503890D01*
X152545785Y-65490323D01*
X152504556Y-65468286D01*
X152468428Y-65438637D01*
X152438779Y-65402509D01*
X152416742Y-65361280D01*
X152403175Y-65316558D01*
X152397989Y-65263901D01*
X152397989Y-63604251D01*
X152403175Y-63551594D01*
X152416742Y-63506872D01*
X152438779Y-63465643D01*
X152468428Y-63429515D01*
X152504556Y-63399866D01*
X152545785Y-63377829D01*
X152590507Y-63364262D01*
X152643164Y-63359076D01*
X153977814Y-63359076D01*
X154030471Y-63364262D01*
X154030471Y-63364262D01*
G37*
G36*
X157005471Y-63364262D02*
X157050193Y-63377829D01*
X157091422Y-63399866D01*
X157127550Y-63429515D01*
X157157199Y-63465643D01*
X157179236Y-63506872D01*
X157192803Y-63551594D01*
X157197989Y-63604251D01*
X157197989Y-65263901D01*
X157192803Y-65316558D01*
X157179236Y-65361280D01*
X157157199Y-65402509D01*
X157127550Y-65438637D01*
X157091422Y-65468286D01*
X157050193Y-65490323D01*
X157005471Y-65503890D01*
X156952814Y-65509076D01*
X155618164Y-65509076D01*
X155565507Y-65503890D01*
X155520785Y-65490323D01*
X155479556Y-65468286D01*
X155443428Y-65438637D01*
X155413779Y-65402509D01*
X155391742Y-65361280D01*
X155378175Y-65316558D01*
X155372989Y-65263901D01*
X155372989Y-63604251D01*
X155378175Y-63551594D01*
X155391742Y-63506872D01*
X155413779Y-63465643D01*
X155443428Y-63429515D01*
X155479556Y-63399866D01*
X155520785Y-63377829D01*
X155565507Y-63364262D01*
X155618164Y-63359076D01*
X156952814Y-63359076D01*
X157005471Y-63364262D01*
X157005471Y-63364262D01*
G37*
G36*
X187922947Y-62355722D02*
X188186833Y-62465027D01*
X188424324Y-62623713D01*
X188626287Y-62825676D01*
X188784973Y-63063167D01*
X188894278Y-63327053D01*
X188950000Y-63607186D01*
X188950000Y-63892814D01*
X188894278Y-64172947D01*
X188784973Y-64436833D01*
X188626287Y-64674324D01*
X188424324Y-64876287D01*
X188186833Y-65034973D01*
X187922947Y-65144278D01*
X187642814Y-65200000D01*
X187357186Y-65200000D01*
X187077053Y-65144278D01*
X186813167Y-65034973D01*
X186575676Y-64876287D01*
X186373713Y-64674324D01*
X186215027Y-64436833D01*
X186105722Y-64172947D01*
X186050000Y-63892814D01*
X186050000Y-63607186D01*
X186105722Y-63327053D01*
X186215027Y-63063167D01*
X186373713Y-62825676D01*
X186575676Y-62623713D01*
X186813167Y-62465027D01*
X187077053Y-62355722D01*
X187357186Y-62300000D01*
X187642814Y-62300000D01*
X187922947Y-62355722D01*
X187922947Y-62355722D01*
G37*
G36*
X151982482Y-59930186D02*
X152027204Y-59943753D01*
X152068433Y-59965790D01*
X152104561Y-59995439D01*
X152134210Y-60031567D01*
X152156247Y-60072796D01*
X152169814Y-60117518D01*
X152175000Y-60170175D01*
X152175000Y-61829825D01*
X152169814Y-61882482D01*
X152156247Y-61927204D01*
X152134210Y-61968433D01*
X152104561Y-62004561D01*
X152068433Y-62034210D01*
X152027204Y-62056247D01*
X151982482Y-62069814D01*
X151929825Y-62075000D01*
X150595175Y-62075000D01*
X150542518Y-62069814D01*
X150497796Y-62056247D01*
X150456567Y-62034210D01*
X150420439Y-62004561D01*
X150390790Y-61968433D01*
X150368753Y-61927204D01*
X150355186Y-61882482D01*
X150350000Y-61829825D01*
X150350000Y-60170175D01*
X150355186Y-60117518D01*
X150368753Y-60072796D01*
X150390790Y-60031567D01*
X150420439Y-59995439D01*
X150456567Y-59965790D01*
X150497796Y-59943753D01*
X150542518Y-59930186D01*
X150595175Y-59925000D01*
X151929825Y-59925000D01*
X151982482Y-59930186D01*
X151982482Y-59930186D01*
G37*
G36*
X154957482Y-59930186D02*
X155002204Y-59943753D01*
X155043433Y-59965790D01*
X155079561Y-59995439D01*
X155109210Y-60031567D01*
X155131247Y-60072796D01*
X155144814Y-60117518D01*
X155150000Y-60170175D01*
X155150000Y-61829825D01*
X155144814Y-61882482D01*
X155131247Y-61927204D01*
X155109210Y-61968433D01*
X155079561Y-62004561D01*
X155043433Y-62034210D01*
X155002204Y-62056247D01*
X154957482Y-62069814D01*
X154904825Y-62075000D01*
X153570175Y-62075000D01*
X153517518Y-62069814D01*
X153472796Y-62056247D01*
X153431567Y-62034210D01*
X153395439Y-62004561D01*
X153365790Y-61968433D01*
X153343753Y-61927204D01*
X153330186Y-61882482D01*
X153325000Y-61829825D01*
X153325000Y-60170175D01*
X153330186Y-60117518D01*
X153343753Y-60072796D01*
X153365790Y-60031567D01*
X153395439Y-59995439D01*
X153431567Y-59965790D01*
X153472796Y-59943753D01*
X153517518Y-59930186D01*
X153570175Y-59925000D01*
X154904825Y-59925000D01*
X154957482Y-59930186D01*
X154957482Y-59930186D01*
G37*
G36*
X161783393Y-58453970D02*
X161816257Y-58463940D01*
X161846539Y-58480125D01*
X161873087Y-58501913D01*
X161894875Y-58528461D01*
X161911060Y-58558743D01*
X161921030Y-58591607D01*
X161925000Y-58631919D01*
X161925000Y-61868081D01*
X161921030Y-61908393D01*
X161911060Y-61941257D01*
X161894875Y-61971539D01*
X161873087Y-61998087D01*
X161846539Y-62019875D01*
X161816257Y-62036060D01*
X161783393Y-62046030D01*
X161743081Y-62050000D01*
X157256919Y-62050000D01*
X157216607Y-62046030D01*
X157183743Y-62036060D01*
X157153461Y-62019875D01*
X157126913Y-61998087D01*
X157105125Y-61971539D01*
X157088940Y-61941257D01*
X157078970Y-61908393D01*
X157075000Y-61868081D01*
X157075000Y-58631919D01*
X157078970Y-58591607D01*
X157088940Y-58558743D01*
X157105125Y-58528461D01*
X157126913Y-58501913D01*
X157153461Y-58480125D01*
X157183743Y-58463940D01*
X157216607Y-58453970D01*
X157256919Y-58450000D01*
X161743081Y-58450000D01*
X161783393Y-58453970D01*
X161783393Y-58453970D01*
G37*
G36*
X177382482Y-59817686D02*
X177427204Y-59831253D01*
X177468433Y-59853290D01*
X177504561Y-59882939D01*
X177534210Y-59919067D01*
X177556247Y-59960296D01*
X177569814Y-60005018D01*
X177575000Y-60057675D01*
X177575000Y-61392325D01*
X177569814Y-61444982D01*
X177556247Y-61489704D01*
X177534210Y-61530933D01*
X177504561Y-61567061D01*
X177468433Y-61596710D01*
X177427204Y-61618747D01*
X177382482Y-61632314D01*
X177329825Y-61637500D01*
X175670175Y-61637500D01*
X175617518Y-61632314D01*
X175572796Y-61618747D01*
X175531567Y-61596710D01*
X175495439Y-61567061D01*
X175465790Y-61530933D01*
X175443753Y-61489704D01*
X175430186Y-61444982D01*
X175425000Y-61392325D01*
X175425000Y-60057675D01*
X175430186Y-60005018D01*
X175443753Y-59960296D01*
X175465790Y-59919067D01*
X175495439Y-59882939D01*
X175531567Y-59853290D01*
X175572796Y-59831253D01*
X175617518Y-59817686D01*
X175670175Y-59812500D01*
X177329825Y-59812500D01*
X177382482Y-59817686D01*
X177382482Y-59817686D01*
G37*
G36*
X181350000Y-61200000D02*
X179150000Y-61200000D01*
X179150000Y-57300000D01*
X181350000Y-57300000D01*
X181350000Y-61200000D01*
X181350000Y-61200000D01*
G37*
G36*
X196345619Y-56371729D02*
X196700054Y-56442230D01*
X197136826Y-56623147D01*
X197529911Y-56885798D01*
X197864202Y-57220089D01*
X198126853Y-57613174D01*
X198307770Y-58049946D01*
X198368687Y-58356201D01*
X198400000Y-58513619D01*
X198400000Y-58986381D01*
X198380104Y-59086403D01*
X198307770Y-59450054D01*
X198126853Y-59886826D01*
X197864202Y-60279911D01*
X197529911Y-60614202D01*
X197136826Y-60876853D01*
X196700054Y-61057770D01*
X196351904Y-61127021D01*
X196236381Y-61150000D01*
X195763619Y-61150000D01*
X195648096Y-61127021D01*
X195299946Y-61057770D01*
X194863174Y-60876853D01*
X194470089Y-60614202D01*
X194135798Y-60279911D01*
X193873147Y-59886826D01*
X193692230Y-59450054D01*
X193619896Y-59086403D01*
X193600000Y-58986381D01*
X193600000Y-58513619D01*
X193631313Y-58356201D01*
X193692230Y-58049946D01*
X193873147Y-57613174D01*
X194135798Y-57220089D01*
X194470089Y-56885798D01*
X194863174Y-56623147D01*
X195299946Y-56442230D01*
X195654381Y-56371729D01*
X195763619Y-56350000D01*
X196236381Y-56350000D01*
X196345619Y-56371729D01*
X196345619Y-56371729D01*
G37*
G36*
X166504210Y-55779399D02*
X166516448Y-55780000D01*
X166710000Y-55780000D01*
X166710000Y-56570315D01*
X166708282Y-56587756D01*
X166708282Y-56612250D01*
X166713062Y-56636284D01*
X166722439Y-56658923D01*
X166736053Y-56679298D01*
X166753379Y-56696625D01*
X166773754Y-56710239D01*
X166796393Y-56719617D01*
X166820426Y-56724398D01*
X166832680Y-56725000D01*
X166900000Y-56725000D01*
X166900000Y-57035000D01*
X166902402Y-57059386D01*
X166909515Y-57082835D01*
X166921066Y-57104446D01*
X166936612Y-57123388D01*
X166955554Y-57138934D01*
X166977165Y-57150485D01*
X167000614Y-57157598D01*
X167025000Y-57160000D01*
X167600000Y-57160000D01*
X167600000Y-58340000D01*
X167025000Y-58340000D01*
X167000614Y-58342402D01*
X166977165Y-58349515D01*
X166955554Y-58361066D01*
X166936612Y-58376612D01*
X166921066Y-58395554D01*
X166909515Y-58417165D01*
X166902402Y-58440614D01*
X166900000Y-58465000D01*
X166900000Y-58775000D01*
X166832680Y-58775000D01*
X166808294Y-58777402D01*
X166784845Y-58784515D01*
X166763234Y-58796066D01*
X166744292Y-58811612D01*
X166728746Y-58830554D01*
X166717195Y-58852165D01*
X166710082Y-58875614D01*
X166707680Y-58900000D01*
X166708281Y-58912234D01*
X166710000Y-58929685D01*
X166710000Y-59720000D01*
X166516448Y-59720000D01*
X166504210Y-59720601D01*
X166500000Y-59721016D01*
X166495790Y-59720601D01*
X166483552Y-59720000D01*
X166016448Y-59720000D01*
X166004210Y-59720601D01*
X166000000Y-59721016D01*
X165995790Y-59720601D01*
X165983552Y-59720000D01*
X165516448Y-59720000D01*
X165504210Y-59720601D01*
X165500000Y-59721016D01*
X165495790Y-59720601D01*
X165483552Y-59720000D01*
X165016448Y-59720000D01*
X165004210Y-59720601D01*
X165000000Y-59721016D01*
X164995790Y-59720601D01*
X164983552Y-59720000D01*
X164516448Y-59720000D01*
X164504210Y-59720601D01*
X164500000Y-59721016D01*
X164495790Y-59720601D01*
X164483552Y-59720000D01*
X164290000Y-59720000D01*
X164290000Y-58929686D01*
X164291718Y-58912245D01*
X164291718Y-58887749D01*
X164286938Y-58863716D01*
X164277561Y-58841076D01*
X164263947Y-58820702D01*
X164246620Y-58803374D01*
X164226246Y-58789760D01*
X164203607Y-58780383D01*
X164179573Y-58775602D01*
X164167320Y-58775000D01*
X164100000Y-58775000D01*
X164100000Y-58465000D01*
X164097598Y-58440614D01*
X164090485Y-58417165D01*
X164078934Y-58395554D01*
X164063388Y-58376612D01*
X164044446Y-58361066D01*
X164022835Y-58349515D01*
X163999386Y-58342402D01*
X163975000Y-58340000D01*
X163400000Y-58340000D01*
X163400000Y-57160000D01*
X163975000Y-57160000D01*
X163999386Y-57157598D01*
X164022835Y-57150485D01*
X164044446Y-57138934D01*
X164063388Y-57123388D01*
X164078934Y-57104446D01*
X164090485Y-57082835D01*
X164097598Y-57059386D01*
X164100000Y-57035000D01*
X164100000Y-56725000D01*
X164167321Y-56725000D01*
X164191707Y-56722598D01*
X164215156Y-56715485D01*
X164236767Y-56703934D01*
X164255709Y-56688388D01*
X164271255Y-56669446D01*
X164282806Y-56647835D01*
X164289919Y-56624386D01*
X164292321Y-56600000D01*
X164291720Y-56587766D01*
X164290001Y-56570315D01*
X164290001Y-56324996D01*
X164290000Y-56324990D01*
X164290000Y-55780000D01*
X164483552Y-55780000D01*
X164495790Y-55779399D01*
X164500000Y-55778984D01*
X164504210Y-55779399D01*
X164516448Y-55780000D01*
X164983552Y-55780000D01*
X164995790Y-55779399D01*
X165000000Y-55778984D01*
X165004210Y-55779399D01*
X165016448Y-55780000D01*
X165483552Y-55780000D01*
X165495790Y-55779399D01*
X165500000Y-55778984D01*
X165504210Y-55779399D01*
X165516448Y-55780000D01*
X165983552Y-55780000D01*
X165995790Y-55779399D01*
X166000000Y-55778984D01*
X166004210Y-55779399D01*
X166016448Y-55780000D01*
X166483552Y-55780000D01*
X166495790Y-55779399D01*
X166500000Y-55778984D01*
X166504210Y-55779399D01*
X166504210Y-55779399D01*
G37*
G36*
X138785997Y-56028280D02*
X138797422Y-56029405D01*
X138854946Y-56046855D01*
X138919947Y-56066573D01*
X138976073Y-56096573D01*
X139032864Y-56126928D01*
X139032865Y-56126929D01*
X139032867Y-56126930D01*
X139131843Y-56208157D01*
X139213070Y-56307132D01*
X139218947Y-56318127D01*
X139232556Y-56338496D01*
X139249883Y-56355824D01*
X139270257Y-56369438D01*
X139292896Y-56378816D01*
X139316929Y-56383597D01*
X139341434Y-56383597D01*
X139365467Y-56378817D01*
X139388106Y-56369440D01*
X139408481Y-56355827D01*
X139425811Y-56338498D01*
X139426928Y-56337137D01*
X139426930Y-56337133D01*
X139508157Y-56238157D01*
X139607132Y-56156930D01*
X139720052Y-56096573D01*
X139818948Y-56066573D01*
X139842577Y-56059405D01*
X139854002Y-56058280D01*
X139970000Y-56046855D01*
X140085997Y-56058280D01*
X140097422Y-56059405D01*
X140121051Y-56066573D01*
X140219947Y-56096573D01*
X140276737Y-56126928D01*
X140332864Y-56156928D01*
X140332865Y-56156929D01*
X140332867Y-56156930D01*
X140431843Y-56238157D01*
X140508383Y-56331421D01*
X140525700Y-56348738D01*
X140546075Y-56362352D01*
X140568714Y-56371729D01*
X140592747Y-56376510D01*
X140617251Y-56376510D01*
X140641285Y-56371730D01*
X140663924Y-56362352D01*
X140684299Y-56348739D01*
X140701621Y-56331417D01*
X140778157Y-56238157D01*
X140877132Y-56156930D01*
X140990052Y-56096573D01*
X141088948Y-56066573D01*
X141112577Y-56059405D01*
X141124002Y-56058280D01*
X141240000Y-56046855D01*
X141355997Y-56058280D01*
X141367422Y-56059405D01*
X141391051Y-56066573D01*
X141489947Y-56096573D01*
X141546737Y-56126928D01*
X141602864Y-56156928D01*
X141602865Y-56156929D01*
X141602867Y-56156930D01*
X141701843Y-56238157D01*
X141778383Y-56331421D01*
X141795700Y-56348738D01*
X141816075Y-56362352D01*
X141838714Y-56371729D01*
X141862747Y-56376510D01*
X141887251Y-56376510D01*
X141911285Y-56371730D01*
X141933924Y-56362352D01*
X141954299Y-56348739D01*
X141971621Y-56331417D01*
X142048157Y-56238157D01*
X142147132Y-56156930D01*
X142260052Y-56096573D01*
X142358948Y-56066573D01*
X142382577Y-56059405D01*
X142394002Y-56058280D01*
X142510000Y-56046855D01*
X142625997Y-56058280D01*
X142637422Y-56059405D01*
X142661051Y-56066573D01*
X142759947Y-56096573D01*
X142816737Y-56126928D01*
X142872864Y-56156928D01*
X142872865Y-56156929D01*
X142872867Y-56156930D01*
X142971843Y-56238157D01*
X143048383Y-56331421D01*
X143065700Y-56348738D01*
X143086075Y-56362352D01*
X143108714Y-56371729D01*
X143132747Y-56376510D01*
X143157251Y-56376510D01*
X143181285Y-56371730D01*
X143203924Y-56362352D01*
X143224299Y-56348739D01*
X143241621Y-56331417D01*
X143318157Y-56238157D01*
X143417132Y-56156930D01*
X143530052Y-56096573D01*
X143628948Y-56066573D01*
X143652577Y-56059405D01*
X143664002Y-56058280D01*
X143780000Y-56046855D01*
X143895997Y-56058280D01*
X143907422Y-56059405D01*
X143931051Y-56066573D01*
X144029947Y-56096573D01*
X144086737Y-56126928D01*
X144142864Y-56156928D01*
X144142865Y-56156929D01*
X144142867Y-56156930D01*
X144241843Y-56238157D01*
X144318383Y-56331421D01*
X144335700Y-56348738D01*
X144356075Y-56362352D01*
X144378714Y-56371729D01*
X144402747Y-56376510D01*
X144427251Y-56376510D01*
X144451285Y-56371730D01*
X144473924Y-56362352D01*
X144494299Y-56348739D01*
X144511621Y-56331417D01*
X144588157Y-56238157D01*
X144687132Y-56156930D01*
X144800052Y-56096573D01*
X144898948Y-56066573D01*
X144922577Y-56059405D01*
X144934002Y-56058280D01*
X145050000Y-56046855D01*
X145165997Y-56058280D01*
X145177422Y-56059405D01*
X145201051Y-56066573D01*
X145299947Y-56096573D01*
X145356737Y-56126928D01*
X145412864Y-56156928D01*
X145412865Y-56156929D01*
X145412867Y-56156930D01*
X145511843Y-56238157D01*
X145593070Y-56337132D01*
X145653427Y-56450052D01*
X145653427Y-56450053D01*
X145689906Y-56570305D01*
X145690595Y-56572578D01*
X145700000Y-56668068D01*
X145700000Y-58831932D01*
X145694502Y-58887749D01*
X145690595Y-58927423D01*
X145672711Y-58986379D01*
X145653427Y-59049948D01*
X145593070Y-59162868D01*
X145511843Y-59261843D01*
X145412868Y-59343070D01*
X145299948Y-59403427D01*
X145276318Y-59410595D01*
X145177423Y-59440595D01*
X145165998Y-59441720D01*
X145050000Y-59453145D01*
X144934003Y-59441720D01*
X144922578Y-59440595D01*
X144823683Y-59410595D01*
X144800053Y-59403427D01*
X144687133Y-59343070D01*
X144588158Y-59261843D01*
X144511618Y-59168579D01*
X144494301Y-59151262D01*
X144473926Y-59137648D01*
X144451287Y-59128271D01*
X144427254Y-59123490D01*
X144402750Y-59123490D01*
X144378716Y-59128270D01*
X144356077Y-59137648D01*
X144335702Y-59151261D01*
X144318375Y-59168589D01*
X144241846Y-59261840D01*
X144241844Y-59261841D01*
X144241843Y-59261843D01*
X144142868Y-59343070D01*
X144029948Y-59403427D01*
X144006318Y-59410595D01*
X143907423Y-59440595D01*
X143895998Y-59441720D01*
X143780000Y-59453145D01*
X143664003Y-59441720D01*
X143652578Y-59440595D01*
X143553683Y-59410595D01*
X143530053Y-59403427D01*
X143417133Y-59343070D01*
X143318158Y-59261843D01*
X143241618Y-59168579D01*
X143224301Y-59151262D01*
X143203926Y-59137648D01*
X143181287Y-59128271D01*
X143157254Y-59123490D01*
X143132750Y-59123490D01*
X143108716Y-59128270D01*
X143086077Y-59137648D01*
X143065702Y-59151261D01*
X143048375Y-59168589D01*
X142971846Y-59261840D01*
X142971844Y-59261841D01*
X142971843Y-59261843D01*
X142872868Y-59343070D01*
X142759948Y-59403427D01*
X142736318Y-59410595D01*
X142637423Y-59440595D01*
X142625998Y-59441720D01*
X142510000Y-59453145D01*
X142394003Y-59441720D01*
X142382578Y-59440595D01*
X142283683Y-59410595D01*
X142260053Y-59403427D01*
X142147133Y-59343070D01*
X142048158Y-59261843D01*
X141971618Y-59168579D01*
X141954301Y-59151262D01*
X141933926Y-59137648D01*
X141911287Y-59128271D01*
X141887254Y-59123490D01*
X141862750Y-59123490D01*
X141838716Y-59128270D01*
X141816077Y-59137648D01*
X141795702Y-59151261D01*
X141778375Y-59168589D01*
X141701846Y-59261840D01*
X141701844Y-59261841D01*
X141701843Y-59261843D01*
X141602868Y-59343070D01*
X141489948Y-59403427D01*
X141466318Y-59410595D01*
X141367423Y-59440595D01*
X141355998Y-59441720D01*
X141240000Y-59453145D01*
X141124003Y-59441720D01*
X141112578Y-59440595D01*
X141013683Y-59410595D01*
X140990053Y-59403427D01*
X140877133Y-59343070D01*
X140778158Y-59261843D01*
X140701618Y-59168579D01*
X140684301Y-59151262D01*
X140663926Y-59137648D01*
X140641287Y-59128271D01*
X140617254Y-59123490D01*
X140592750Y-59123490D01*
X140568716Y-59128270D01*
X140546077Y-59137648D01*
X140525702Y-59151261D01*
X140508375Y-59168589D01*
X140431846Y-59261840D01*
X140431844Y-59261841D01*
X140431843Y-59261843D01*
X140332868Y-59343070D01*
X140219948Y-59403427D01*
X140196318Y-59410595D01*
X140097423Y-59440595D01*
X140085998Y-59441720D01*
X139970000Y-59453145D01*
X139854003Y-59441720D01*
X139842578Y-59440595D01*
X139743683Y-59410595D01*
X139720053Y-59403427D01*
X139607133Y-59343070D01*
X139508158Y-59261843D01*
X139426931Y-59162868D01*
X139421054Y-59151873D01*
X139407445Y-59131504D01*
X139390118Y-59114176D01*
X139369744Y-59100562D01*
X139347105Y-59091184D01*
X139323072Y-59086403D01*
X139298567Y-59086403D01*
X139274534Y-59091183D01*
X139251895Y-59100560D01*
X139231520Y-59114173D01*
X139214191Y-59131502D01*
X139131846Y-59231840D01*
X139131844Y-59231841D01*
X139131843Y-59231843D01*
X139032868Y-59313070D01*
X138919948Y-59373427D01*
X138872362Y-59387862D01*
X138797423Y-59410595D01*
X138785998Y-59411720D01*
X138670000Y-59423145D01*
X138554003Y-59411720D01*
X138542578Y-59410595D01*
X138467639Y-59387862D01*
X138420053Y-59373427D01*
X138307133Y-59313070D01*
X138208158Y-59231843D01*
X138131618Y-59138579D01*
X138114301Y-59121262D01*
X138093926Y-59107648D01*
X138071287Y-59098271D01*
X138047254Y-59093490D01*
X138022750Y-59093490D01*
X137998716Y-59098270D01*
X137976077Y-59107648D01*
X137955702Y-59121261D01*
X137938375Y-59138589D01*
X137861846Y-59231840D01*
X137861844Y-59231841D01*
X137861843Y-59231843D01*
X137762868Y-59313070D01*
X137649948Y-59373427D01*
X137602362Y-59387862D01*
X137527423Y-59410595D01*
X137515998Y-59411720D01*
X137400000Y-59423145D01*
X137284003Y-59411720D01*
X137272578Y-59410595D01*
X137197639Y-59387862D01*
X137150053Y-59373427D01*
X137037133Y-59313070D01*
X136938158Y-59231843D01*
X136861618Y-59138579D01*
X136844301Y-59121262D01*
X136823926Y-59107648D01*
X136801287Y-59098271D01*
X136777254Y-59093490D01*
X136752750Y-59093490D01*
X136728716Y-59098270D01*
X136706077Y-59107648D01*
X136685702Y-59121261D01*
X136668375Y-59138589D01*
X136591846Y-59231840D01*
X136591844Y-59231841D01*
X136591843Y-59231843D01*
X136492868Y-59313070D01*
X136379948Y-59373427D01*
X136332362Y-59387862D01*
X136257423Y-59410595D01*
X136245998Y-59411720D01*
X136130000Y-59423145D01*
X136014003Y-59411720D01*
X136002578Y-59410595D01*
X135927639Y-59387862D01*
X135880053Y-59373427D01*
X135767133Y-59313070D01*
X135668158Y-59231843D01*
X135591618Y-59138579D01*
X135574301Y-59121262D01*
X135553926Y-59107648D01*
X135531287Y-59098271D01*
X135507254Y-59093490D01*
X135482750Y-59093490D01*
X135458716Y-59098270D01*
X135436077Y-59107648D01*
X135415702Y-59121261D01*
X135398375Y-59138589D01*
X135321846Y-59231840D01*
X135321844Y-59231841D01*
X135321843Y-59231843D01*
X135222868Y-59313070D01*
X135109948Y-59373427D01*
X135062362Y-59387862D01*
X134987423Y-59410595D01*
X134975998Y-59411720D01*
X134860000Y-59423145D01*
X134744003Y-59411720D01*
X134732578Y-59410595D01*
X134657639Y-59387862D01*
X134610053Y-59373427D01*
X134497133Y-59313070D01*
X134398158Y-59231843D01*
X134321618Y-59138579D01*
X134304301Y-59121262D01*
X134283926Y-59107648D01*
X134261287Y-59098271D01*
X134237254Y-59093490D01*
X134212750Y-59093490D01*
X134188716Y-59098270D01*
X134166077Y-59107648D01*
X134145702Y-59121261D01*
X134128375Y-59138589D01*
X134051846Y-59231840D01*
X134051844Y-59231841D01*
X134051843Y-59231843D01*
X133952868Y-59313070D01*
X133839948Y-59373427D01*
X133792362Y-59387862D01*
X133717423Y-59410595D01*
X133705998Y-59411720D01*
X133590000Y-59423145D01*
X133474003Y-59411720D01*
X133462578Y-59410595D01*
X133387639Y-59387862D01*
X133340053Y-59373427D01*
X133227133Y-59313070D01*
X133128158Y-59231843D01*
X133051618Y-59138579D01*
X133034301Y-59121262D01*
X133013926Y-59107648D01*
X132991287Y-59098271D01*
X132967254Y-59093490D01*
X132942750Y-59093490D01*
X132918716Y-59098270D01*
X132896077Y-59107648D01*
X132875702Y-59121261D01*
X132858375Y-59138589D01*
X132781846Y-59231840D01*
X132781844Y-59231841D01*
X132781843Y-59231843D01*
X132682868Y-59313070D01*
X132569948Y-59373427D01*
X132522362Y-59387862D01*
X132447423Y-59410595D01*
X132435998Y-59411720D01*
X132320000Y-59423145D01*
X132204003Y-59411720D01*
X132192578Y-59410595D01*
X132117639Y-59387862D01*
X132070053Y-59373427D01*
X131957133Y-59313070D01*
X131858158Y-59231843D01*
X131781618Y-59138579D01*
X131764301Y-59121262D01*
X131743926Y-59107648D01*
X131721287Y-59098271D01*
X131697254Y-59093490D01*
X131672750Y-59093490D01*
X131648716Y-59098270D01*
X131626077Y-59107648D01*
X131605702Y-59121261D01*
X131588375Y-59138589D01*
X131511846Y-59231840D01*
X131511844Y-59231841D01*
X131511843Y-59231843D01*
X131412868Y-59313070D01*
X131299948Y-59373427D01*
X131252362Y-59387862D01*
X131177423Y-59410595D01*
X131165998Y-59411720D01*
X131050000Y-59423145D01*
X130934003Y-59411720D01*
X130922578Y-59410595D01*
X130847639Y-59387862D01*
X130800053Y-59373427D01*
X130687133Y-59313070D01*
X130588158Y-59231843D01*
X130511618Y-59138579D01*
X130494301Y-59121262D01*
X130473926Y-59107648D01*
X130451287Y-59098271D01*
X130427254Y-59093490D01*
X130402750Y-59093490D01*
X130378716Y-59098270D01*
X130356077Y-59107648D01*
X130335702Y-59121261D01*
X130318375Y-59138589D01*
X130241846Y-59231840D01*
X130241844Y-59231841D01*
X130241843Y-59231843D01*
X130142868Y-59313070D01*
X130029948Y-59373427D01*
X129982362Y-59387862D01*
X129907423Y-59410595D01*
X129895998Y-59411720D01*
X129780000Y-59423145D01*
X129664003Y-59411720D01*
X129652578Y-59410595D01*
X129577639Y-59387862D01*
X129530053Y-59373427D01*
X129417133Y-59313070D01*
X129318158Y-59231843D01*
X129241618Y-59138579D01*
X129224301Y-59121262D01*
X129203926Y-59107648D01*
X129181287Y-59098271D01*
X129157254Y-59093490D01*
X129132750Y-59093490D01*
X129108716Y-59098270D01*
X129086077Y-59107648D01*
X129065702Y-59121261D01*
X129048375Y-59138589D01*
X128971846Y-59231840D01*
X128971844Y-59231841D01*
X128971843Y-59231843D01*
X128872868Y-59313070D01*
X128759948Y-59373427D01*
X128712362Y-59387862D01*
X128637423Y-59410595D01*
X128625998Y-59411720D01*
X128510000Y-59423145D01*
X128394003Y-59411720D01*
X128382578Y-59410595D01*
X128307639Y-59387862D01*
X128260053Y-59373427D01*
X128147133Y-59313070D01*
X128048158Y-59231843D01*
X127971618Y-59138579D01*
X127954301Y-59121262D01*
X127933926Y-59107648D01*
X127911287Y-59098271D01*
X127887254Y-59093490D01*
X127862750Y-59093490D01*
X127838716Y-59098270D01*
X127816077Y-59107648D01*
X127795702Y-59121261D01*
X127778375Y-59138589D01*
X127701846Y-59231840D01*
X127701844Y-59231841D01*
X127701843Y-59231843D01*
X127602868Y-59313070D01*
X127489948Y-59373427D01*
X127442362Y-59387862D01*
X127367423Y-59410595D01*
X127355998Y-59411720D01*
X127240000Y-59423145D01*
X127124003Y-59411720D01*
X127112578Y-59410595D01*
X127037639Y-59387862D01*
X126990053Y-59373427D01*
X126877133Y-59313070D01*
X126778158Y-59231843D01*
X126701618Y-59138579D01*
X126684301Y-59121262D01*
X126663926Y-59107648D01*
X126641287Y-59098271D01*
X126617254Y-59093490D01*
X126592750Y-59093490D01*
X126568716Y-59098270D01*
X126546077Y-59107648D01*
X126525702Y-59121261D01*
X126508375Y-59138589D01*
X126431846Y-59231840D01*
X126431844Y-59231841D01*
X126431843Y-59231843D01*
X126332868Y-59313070D01*
X126219948Y-59373427D01*
X126172362Y-59387862D01*
X126097423Y-59410595D01*
X126085998Y-59411720D01*
X125970000Y-59423145D01*
X125854003Y-59411720D01*
X125842578Y-59410595D01*
X125767639Y-59387862D01*
X125720053Y-59373427D01*
X125607133Y-59313070D01*
X125508158Y-59231843D01*
X125431618Y-59138579D01*
X125414301Y-59121262D01*
X125393926Y-59107648D01*
X125371287Y-59098271D01*
X125347254Y-59093490D01*
X125322750Y-59093490D01*
X125298716Y-59098270D01*
X125276077Y-59107648D01*
X125255702Y-59121261D01*
X125238375Y-59138589D01*
X125161846Y-59231840D01*
X125161844Y-59231841D01*
X125161843Y-59231843D01*
X125062868Y-59313070D01*
X124949948Y-59373427D01*
X124902362Y-59387862D01*
X124827423Y-59410595D01*
X124815998Y-59411720D01*
X124700000Y-59423145D01*
X124584003Y-59411720D01*
X124572578Y-59410595D01*
X124497639Y-59387862D01*
X124450053Y-59373427D01*
X124337133Y-59313070D01*
X124238158Y-59231843D01*
X124161618Y-59138579D01*
X124144301Y-59121262D01*
X124123926Y-59107648D01*
X124101287Y-59098271D01*
X124077254Y-59093490D01*
X124052750Y-59093490D01*
X124028716Y-59098270D01*
X124006077Y-59107648D01*
X123985702Y-59121261D01*
X123968375Y-59138589D01*
X123891846Y-59231840D01*
X123891844Y-59231841D01*
X123891843Y-59231843D01*
X123792868Y-59313070D01*
X123679948Y-59373427D01*
X123632362Y-59387862D01*
X123557423Y-59410595D01*
X123545998Y-59411720D01*
X123430000Y-59423145D01*
X123314003Y-59411720D01*
X123302578Y-59410595D01*
X123227639Y-59387862D01*
X123180053Y-59373427D01*
X123067133Y-59313070D01*
X122968158Y-59231843D01*
X122891618Y-59138579D01*
X122874301Y-59121262D01*
X122853926Y-59107648D01*
X122831287Y-59098271D01*
X122807254Y-59093490D01*
X122782750Y-59093490D01*
X122758716Y-59098270D01*
X122736077Y-59107648D01*
X122715702Y-59121261D01*
X122698375Y-59138589D01*
X122621846Y-59231840D01*
X122621844Y-59231841D01*
X122621843Y-59231843D01*
X122522868Y-59313070D01*
X122409948Y-59373427D01*
X122362362Y-59387862D01*
X122287423Y-59410595D01*
X122275998Y-59411720D01*
X122160000Y-59423145D01*
X122044003Y-59411720D01*
X122032578Y-59410595D01*
X121957639Y-59387862D01*
X121910053Y-59373427D01*
X121797133Y-59313070D01*
X121698158Y-59231843D01*
X121616931Y-59132868D01*
X121556574Y-59019948D01*
X121529196Y-58929695D01*
X121519406Y-58897423D01*
X121514949Y-58852165D01*
X121510001Y-58801932D01*
X121510000Y-56638069D01*
X121519405Y-56542579D01*
X121556573Y-56420053D01*
X121594692Y-56348738D01*
X121616928Y-56307136D01*
X121621626Y-56301411D01*
X121698157Y-56208157D01*
X121797132Y-56126930D01*
X121910052Y-56066573D01*
X121975053Y-56046855D01*
X122032577Y-56029405D01*
X122044002Y-56028280D01*
X122160000Y-56016855D01*
X122275997Y-56028280D01*
X122287422Y-56029405D01*
X122344946Y-56046855D01*
X122409947Y-56066573D01*
X122466073Y-56096573D01*
X122522864Y-56126928D01*
X122522865Y-56126929D01*
X122522867Y-56126930D01*
X122621843Y-56208157D01*
X122698383Y-56301421D01*
X122715700Y-56318738D01*
X122736075Y-56332352D01*
X122758714Y-56341729D01*
X122782747Y-56346510D01*
X122807251Y-56346510D01*
X122831285Y-56341730D01*
X122853924Y-56332352D01*
X122874299Y-56318739D01*
X122891621Y-56301417D01*
X122968157Y-56208157D01*
X123067132Y-56126930D01*
X123180052Y-56066573D01*
X123245053Y-56046855D01*
X123302577Y-56029405D01*
X123314002Y-56028280D01*
X123430000Y-56016855D01*
X123545997Y-56028280D01*
X123557422Y-56029405D01*
X123614946Y-56046855D01*
X123679947Y-56066573D01*
X123736073Y-56096573D01*
X123792864Y-56126928D01*
X123792865Y-56126929D01*
X123792867Y-56126930D01*
X123891843Y-56208157D01*
X123968383Y-56301421D01*
X123985700Y-56318738D01*
X124006075Y-56332352D01*
X124028714Y-56341729D01*
X124052747Y-56346510D01*
X124077251Y-56346510D01*
X124101285Y-56341730D01*
X124123924Y-56332352D01*
X124144299Y-56318739D01*
X124161621Y-56301417D01*
X124238157Y-56208157D01*
X124337132Y-56126930D01*
X124450052Y-56066573D01*
X124515053Y-56046855D01*
X124572577Y-56029405D01*
X124584002Y-56028280D01*
X124700000Y-56016855D01*
X124815997Y-56028280D01*
X124827422Y-56029405D01*
X124884946Y-56046855D01*
X124949947Y-56066573D01*
X125006073Y-56096573D01*
X125062864Y-56126928D01*
X125062865Y-56126929D01*
X125062867Y-56126930D01*
X125161843Y-56208157D01*
X125238383Y-56301421D01*
X125255700Y-56318738D01*
X125276075Y-56332352D01*
X125298714Y-56341729D01*
X125322747Y-56346510D01*
X125347251Y-56346510D01*
X125371285Y-56341730D01*
X125393924Y-56332352D01*
X125414299Y-56318739D01*
X125431621Y-56301417D01*
X125508157Y-56208157D01*
X125607132Y-56126930D01*
X125720052Y-56066573D01*
X125785053Y-56046855D01*
X125842577Y-56029405D01*
X125854002Y-56028280D01*
X125970000Y-56016855D01*
X126085997Y-56028280D01*
X126097422Y-56029405D01*
X126154946Y-56046855D01*
X126219947Y-56066573D01*
X126276073Y-56096573D01*
X126332864Y-56126928D01*
X126332865Y-56126929D01*
X126332867Y-56126930D01*
X126431843Y-56208157D01*
X126508383Y-56301421D01*
X126525700Y-56318738D01*
X126546075Y-56332352D01*
X126568714Y-56341729D01*
X126592747Y-56346510D01*
X126617251Y-56346510D01*
X126641285Y-56341730D01*
X126663924Y-56332352D01*
X126684299Y-56318739D01*
X126701621Y-56301417D01*
X126778157Y-56208157D01*
X126877132Y-56126930D01*
X126990052Y-56066573D01*
X127055053Y-56046855D01*
X127112577Y-56029405D01*
X127124002Y-56028280D01*
X127240000Y-56016855D01*
X127355997Y-56028280D01*
X127367422Y-56029405D01*
X127424946Y-56046855D01*
X127489947Y-56066573D01*
X127546073Y-56096573D01*
X127602864Y-56126928D01*
X127602865Y-56126929D01*
X127602867Y-56126930D01*
X127701843Y-56208157D01*
X127778383Y-56301421D01*
X127795700Y-56318738D01*
X127816075Y-56332352D01*
X127838714Y-56341729D01*
X127862747Y-56346510D01*
X127887251Y-56346510D01*
X127911285Y-56341730D01*
X127933924Y-56332352D01*
X127954299Y-56318739D01*
X127971621Y-56301417D01*
X128048157Y-56208157D01*
X128147132Y-56126930D01*
X128260052Y-56066573D01*
X128325053Y-56046855D01*
X128382577Y-56029405D01*
X128394002Y-56028280D01*
X128510000Y-56016855D01*
X128625997Y-56028280D01*
X128637422Y-56029405D01*
X128694946Y-56046855D01*
X128759947Y-56066573D01*
X128816073Y-56096573D01*
X128872864Y-56126928D01*
X128872865Y-56126929D01*
X128872867Y-56126930D01*
X128971843Y-56208157D01*
X129048383Y-56301421D01*
X129065700Y-56318738D01*
X129086075Y-56332352D01*
X129108714Y-56341729D01*
X129132747Y-56346510D01*
X129157251Y-56346510D01*
X129181285Y-56341730D01*
X129203924Y-56332352D01*
X129224299Y-56318739D01*
X129241621Y-56301417D01*
X129318157Y-56208157D01*
X129417132Y-56126930D01*
X129530052Y-56066573D01*
X129595053Y-56046855D01*
X129652577Y-56029405D01*
X129664002Y-56028280D01*
X129780000Y-56016855D01*
X129895997Y-56028280D01*
X129907422Y-56029405D01*
X129964946Y-56046855D01*
X130029947Y-56066573D01*
X130086073Y-56096573D01*
X130142864Y-56126928D01*
X130142865Y-56126929D01*
X130142867Y-56126930D01*
X130241843Y-56208157D01*
X130318383Y-56301421D01*
X130335700Y-56318738D01*
X130356075Y-56332352D01*
X130378714Y-56341729D01*
X130402747Y-56346510D01*
X130427251Y-56346510D01*
X130451285Y-56341730D01*
X130473924Y-56332352D01*
X130494299Y-56318739D01*
X130511621Y-56301417D01*
X130588157Y-56208157D01*
X130687132Y-56126930D01*
X130800052Y-56066573D01*
X130865053Y-56046855D01*
X130922577Y-56029405D01*
X130934002Y-56028280D01*
X131050000Y-56016855D01*
X131165997Y-56028280D01*
X131177422Y-56029405D01*
X131234946Y-56046855D01*
X131299947Y-56066573D01*
X131356073Y-56096573D01*
X131412864Y-56126928D01*
X131412865Y-56126929D01*
X131412867Y-56126930D01*
X131511843Y-56208157D01*
X131588383Y-56301421D01*
X131605700Y-56318738D01*
X131626075Y-56332352D01*
X131648714Y-56341729D01*
X131672747Y-56346510D01*
X131697251Y-56346510D01*
X131721285Y-56341730D01*
X131743924Y-56332352D01*
X131764299Y-56318739D01*
X131781621Y-56301417D01*
X131858157Y-56208157D01*
X131957132Y-56126930D01*
X132070052Y-56066573D01*
X132135053Y-56046855D01*
X132192577Y-56029405D01*
X132204002Y-56028280D01*
X132320000Y-56016855D01*
X132435997Y-56028280D01*
X132447422Y-56029405D01*
X132504946Y-56046855D01*
X132569947Y-56066573D01*
X132626073Y-56096573D01*
X132682864Y-56126928D01*
X132682865Y-56126929D01*
X132682867Y-56126930D01*
X132781843Y-56208157D01*
X132858383Y-56301421D01*
X132875700Y-56318738D01*
X132896075Y-56332352D01*
X132918714Y-56341729D01*
X132942747Y-56346510D01*
X132967251Y-56346510D01*
X132991285Y-56341730D01*
X133013924Y-56332352D01*
X133034299Y-56318739D01*
X133051621Y-56301417D01*
X133128157Y-56208157D01*
X133227132Y-56126930D01*
X133340052Y-56066573D01*
X133405053Y-56046855D01*
X133462577Y-56029405D01*
X133474002Y-56028280D01*
X133590000Y-56016855D01*
X133705997Y-56028280D01*
X133717422Y-56029405D01*
X133774946Y-56046855D01*
X133839947Y-56066573D01*
X133896073Y-56096573D01*
X133952864Y-56126928D01*
X133952865Y-56126929D01*
X133952867Y-56126930D01*
X134051843Y-56208157D01*
X134128383Y-56301421D01*
X134145700Y-56318738D01*
X134166075Y-56332352D01*
X134188714Y-56341729D01*
X134212747Y-56346510D01*
X134237251Y-56346510D01*
X134261285Y-56341730D01*
X134283924Y-56332352D01*
X134304299Y-56318739D01*
X134321621Y-56301417D01*
X134398157Y-56208157D01*
X134497132Y-56126930D01*
X134610052Y-56066573D01*
X134675053Y-56046855D01*
X134732577Y-56029405D01*
X134744002Y-56028280D01*
X134860000Y-56016855D01*
X134975997Y-56028280D01*
X134987422Y-56029405D01*
X135044946Y-56046855D01*
X135109947Y-56066573D01*
X135166073Y-56096573D01*
X135222864Y-56126928D01*
X135222865Y-56126929D01*
X135222867Y-56126930D01*
X135321843Y-56208157D01*
X135398383Y-56301421D01*
X135415700Y-56318738D01*
X135436075Y-56332352D01*
X135458714Y-56341729D01*
X135482747Y-56346510D01*
X135507251Y-56346510D01*
X135531285Y-56341730D01*
X135553924Y-56332352D01*
X135574299Y-56318739D01*
X135591621Y-56301417D01*
X135668157Y-56208157D01*
X135767132Y-56126930D01*
X135880052Y-56066573D01*
X135945053Y-56046855D01*
X136002577Y-56029405D01*
X136014002Y-56028280D01*
X136130000Y-56016855D01*
X136245997Y-56028280D01*
X136257422Y-56029405D01*
X136314946Y-56046855D01*
X136379947Y-56066573D01*
X136436073Y-56096573D01*
X136492864Y-56126928D01*
X136492865Y-56126929D01*
X136492867Y-56126930D01*
X136591843Y-56208157D01*
X136668383Y-56301421D01*
X136685700Y-56318738D01*
X136706075Y-56332352D01*
X136728714Y-56341729D01*
X136752747Y-56346510D01*
X136777251Y-56346510D01*
X136801285Y-56341730D01*
X136823924Y-56332352D01*
X136844299Y-56318739D01*
X136861621Y-56301417D01*
X136938157Y-56208157D01*
X137037132Y-56126930D01*
X137150052Y-56066573D01*
X137215053Y-56046855D01*
X137272577Y-56029405D01*
X137284002Y-56028280D01*
X137400000Y-56016855D01*
X137515997Y-56028280D01*
X137527422Y-56029405D01*
X137584946Y-56046855D01*
X137649947Y-56066573D01*
X137706073Y-56096573D01*
X137762864Y-56126928D01*
X137762865Y-56126929D01*
X137762867Y-56126930D01*
X137861843Y-56208157D01*
X137938383Y-56301421D01*
X137955700Y-56318738D01*
X137976075Y-56332352D01*
X137998714Y-56341729D01*
X138022747Y-56346510D01*
X138047251Y-56346510D01*
X138071285Y-56341730D01*
X138093924Y-56332352D01*
X138114299Y-56318739D01*
X138131621Y-56301417D01*
X138208157Y-56208157D01*
X138307132Y-56126930D01*
X138420052Y-56066573D01*
X138485053Y-56046855D01*
X138542577Y-56029405D01*
X138554002Y-56028280D01*
X138670000Y-56016855D01*
X138785997Y-56028280D01*
X138785997Y-56028280D01*
G37*
G36*
X177382482Y-56842686D02*
X177427204Y-56856253D01*
X177468433Y-56878290D01*
X177504561Y-56907939D01*
X177534210Y-56944067D01*
X177556247Y-56985296D01*
X177569814Y-57030018D01*
X177575000Y-57082675D01*
X177575000Y-58417325D01*
X177569814Y-58469982D01*
X177556247Y-58514704D01*
X177534210Y-58555933D01*
X177504561Y-58592061D01*
X177468433Y-58621710D01*
X177427204Y-58643747D01*
X177382482Y-58657314D01*
X177329825Y-58662500D01*
X175670175Y-58662500D01*
X175617518Y-58657314D01*
X175572796Y-58643747D01*
X175531567Y-58621710D01*
X175495439Y-58592061D01*
X175465790Y-58555933D01*
X175443753Y-58514704D01*
X175430186Y-58469982D01*
X175425000Y-58417325D01*
X175425000Y-57082675D01*
X175430186Y-57030018D01*
X175443753Y-56985296D01*
X175465790Y-56944067D01*
X175495439Y-56907939D01*
X175531567Y-56878290D01*
X175572796Y-56856253D01*
X175617518Y-56842686D01*
X175670175Y-56837500D01*
X177329825Y-56837500D01*
X177382482Y-56842686D01*
X177382482Y-56842686D01*
G37*
G36*
X151882482Y-56842686D02*
X151927204Y-56856253D01*
X151968433Y-56878290D01*
X152004561Y-56907939D01*
X152034210Y-56944067D01*
X152056247Y-56985296D01*
X152069814Y-57030018D01*
X152075000Y-57082675D01*
X152075000Y-58417325D01*
X152069814Y-58469982D01*
X152056247Y-58514704D01*
X152034210Y-58555933D01*
X152004561Y-58592061D01*
X151968433Y-58621710D01*
X151927204Y-58643747D01*
X151882482Y-58657314D01*
X151829825Y-58662500D01*
X150170175Y-58662500D01*
X150117518Y-58657314D01*
X150072796Y-58643747D01*
X150031567Y-58621710D01*
X149995439Y-58592061D01*
X149965790Y-58555933D01*
X149943753Y-58514704D01*
X149930186Y-58469982D01*
X149925000Y-58417325D01*
X149925000Y-57082675D01*
X149930186Y-57030018D01*
X149943753Y-56985296D01*
X149965790Y-56944067D01*
X149995439Y-56907939D01*
X150031567Y-56878290D01*
X150072796Y-56856253D01*
X150117518Y-56842686D01*
X150170175Y-56837500D01*
X151829825Y-56837500D01*
X151882482Y-56842686D01*
X151882482Y-56842686D01*
G37*
G36*
X155132482Y-56842686D02*
X155177204Y-56856253D01*
X155218433Y-56878290D01*
X155254561Y-56907939D01*
X155284210Y-56944067D01*
X155306247Y-56985296D01*
X155319814Y-57030018D01*
X155325000Y-57082675D01*
X155325000Y-58417325D01*
X155319814Y-58469982D01*
X155306247Y-58514704D01*
X155284210Y-58555933D01*
X155254561Y-58592061D01*
X155218433Y-58621710D01*
X155177204Y-58643747D01*
X155132482Y-58657314D01*
X155079825Y-58662500D01*
X153420175Y-58662500D01*
X153367518Y-58657314D01*
X153322796Y-58643747D01*
X153281567Y-58621710D01*
X153245439Y-58592061D01*
X153215790Y-58555933D01*
X153193753Y-58514704D01*
X153180186Y-58469982D01*
X153175000Y-58417325D01*
X153175000Y-57082675D01*
X153180186Y-57030018D01*
X153193753Y-56985296D01*
X153215790Y-56944067D01*
X153245439Y-56907939D01*
X153281567Y-56878290D01*
X153322796Y-56856253D01*
X153367518Y-56842686D01*
X153420175Y-56837500D01*
X155079825Y-56837500D01*
X155132482Y-56842686D01*
X155132482Y-56842686D01*
G37*
G36*
X171391613Y-56781562D02*
X171436335Y-56795129D01*
X171477564Y-56817166D01*
X171513692Y-56846815D01*
X171543341Y-56882943D01*
X171565378Y-56924172D01*
X171578945Y-56968894D01*
X171584131Y-57021551D01*
X171584131Y-58356201D01*
X171578945Y-58408858D01*
X171565378Y-58453580D01*
X171543341Y-58494809D01*
X171513692Y-58530937D01*
X171477564Y-58560586D01*
X171436335Y-58582623D01*
X171391613Y-58596190D01*
X171338956Y-58601376D01*
X169679306Y-58601376D01*
X169626649Y-58596190D01*
X169581927Y-58582623D01*
X169540698Y-58560586D01*
X169504570Y-58530937D01*
X169474921Y-58494809D01*
X169452884Y-58453580D01*
X169439317Y-58408858D01*
X169434131Y-58356201D01*
X169434131Y-57021551D01*
X169439317Y-56968894D01*
X169452884Y-56924172D01*
X169474921Y-56882943D01*
X169504570Y-56846815D01*
X169540698Y-56817166D01*
X169581927Y-56795129D01*
X169626649Y-56781562D01*
X169679306Y-56776376D01*
X171338956Y-56776376D01*
X171391613Y-56781562D01*
X171391613Y-56781562D01*
G37*
G36*
X174391613Y-56781562D02*
X174436335Y-56795129D01*
X174477564Y-56817166D01*
X174513692Y-56846815D01*
X174543341Y-56882943D01*
X174565378Y-56924172D01*
X174578945Y-56968894D01*
X174584131Y-57021551D01*
X174584131Y-58356201D01*
X174578945Y-58408858D01*
X174565378Y-58453580D01*
X174543341Y-58494809D01*
X174513692Y-58530937D01*
X174477564Y-58560586D01*
X174436335Y-58582623D01*
X174391613Y-58596190D01*
X174338956Y-58601376D01*
X172679306Y-58601376D01*
X172626649Y-58596190D01*
X172581927Y-58582623D01*
X172540698Y-58560586D01*
X172504570Y-58530937D01*
X172474921Y-58494809D01*
X172452884Y-58453580D01*
X172439317Y-58408858D01*
X172434131Y-58356201D01*
X172434131Y-57021551D01*
X172439317Y-56968894D01*
X172452884Y-56924172D01*
X172474921Y-56882943D01*
X172504570Y-56846815D01*
X172540698Y-56817166D01*
X172581927Y-56795129D01*
X172626649Y-56781562D01*
X172679306Y-56776376D01*
X174338956Y-56776376D01*
X174391613Y-56781562D01*
X174391613Y-56781562D01*
G37*
G36*
X161783393Y-53253970D02*
X161816257Y-53263940D01*
X161846539Y-53280125D01*
X161873087Y-53301913D01*
X161894875Y-53328461D01*
X161911060Y-53358743D01*
X161921030Y-53391607D01*
X161925000Y-53431919D01*
X161925000Y-56668081D01*
X161921030Y-56708393D01*
X161911060Y-56741257D01*
X161894875Y-56771539D01*
X161873087Y-56798087D01*
X161846539Y-56819875D01*
X161816257Y-56836060D01*
X161783393Y-56846030D01*
X161743081Y-56850000D01*
X157256919Y-56850000D01*
X157216607Y-56846030D01*
X157183743Y-56836060D01*
X157153461Y-56819875D01*
X157126913Y-56798087D01*
X157105125Y-56771539D01*
X157088940Y-56741257D01*
X157078970Y-56708393D01*
X157075000Y-56668081D01*
X157075000Y-53431919D01*
X157078970Y-53391607D01*
X157088940Y-53358743D01*
X157105125Y-53328461D01*
X157126913Y-53301913D01*
X157153461Y-53280125D01*
X157183743Y-53263940D01*
X157216607Y-53253970D01*
X157256919Y-53250000D01*
X161743081Y-53250000D01*
X161783393Y-53253970D01*
X161783393Y-53253970D01*
G37*
G36*
X181350000Y-56200000D02*
X179150000Y-56200000D01*
X179150000Y-52300000D01*
X181350000Y-52300000D01*
X181350000Y-56200000D01*
X181350000Y-56200000D01*
G37*
G36*
X155132482Y-53867686D02*
X155177204Y-53881253D01*
X155218433Y-53903290D01*
X155254561Y-53932939D01*
X155284210Y-53969067D01*
X155306247Y-54010296D01*
X155319814Y-54055018D01*
X155325000Y-54107675D01*
X155325000Y-55442325D01*
X155319814Y-55494982D01*
X155306247Y-55539704D01*
X155284210Y-55580933D01*
X155254561Y-55617061D01*
X155218433Y-55646710D01*
X155177204Y-55668747D01*
X155132482Y-55682314D01*
X155079825Y-55687500D01*
X153420175Y-55687500D01*
X153367518Y-55682314D01*
X153322796Y-55668747D01*
X153281567Y-55646710D01*
X153245439Y-55617061D01*
X153215790Y-55580933D01*
X153193753Y-55539704D01*
X153180186Y-55494982D01*
X153175000Y-55442325D01*
X153175000Y-54107675D01*
X153180186Y-54055018D01*
X153193753Y-54010296D01*
X153215790Y-53969067D01*
X153245439Y-53932939D01*
X153281567Y-53903290D01*
X153322796Y-53881253D01*
X153367518Y-53867686D01*
X153420175Y-53862500D01*
X155079825Y-53862500D01*
X155132482Y-53867686D01*
X155132482Y-53867686D01*
G37*
G36*
X151882482Y-53867686D02*
X151927204Y-53881253D01*
X151968433Y-53903290D01*
X152004561Y-53932939D01*
X152034210Y-53969067D01*
X152056247Y-54010296D01*
X152069814Y-54055018D01*
X152075000Y-54107675D01*
X152075000Y-55442325D01*
X152069814Y-55494982D01*
X152056247Y-55539704D01*
X152034210Y-55580933D01*
X152004561Y-55617061D01*
X151968433Y-55646710D01*
X151927204Y-55668747D01*
X151882482Y-55682314D01*
X151829825Y-55687500D01*
X150170175Y-55687500D01*
X150117518Y-55682314D01*
X150072796Y-55668747D01*
X150031567Y-55646710D01*
X149995439Y-55617061D01*
X149965790Y-55580933D01*
X149943753Y-55539704D01*
X149930186Y-55494982D01*
X149925000Y-55442325D01*
X149925000Y-54107675D01*
X149930186Y-54055018D01*
X149943753Y-54010296D01*
X149965790Y-53969067D01*
X149995439Y-53932939D01*
X150031567Y-53903290D01*
X150072796Y-53881253D01*
X150117518Y-53867686D01*
X150170175Y-53862500D01*
X151829825Y-53862500D01*
X151882482Y-53867686D01*
X151882482Y-53867686D01*
G37*
G36*
X174391613Y-53806562D02*
X174436335Y-53820129D01*
X174477564Y-53842166D01*
X174513692Y-53871815D01*
X174543341Y-53907943D01*
X174565378Y-53949172D01*
X174578945Y-53993894D01*
X174584131Y-54046551D01*
X174584131Y-55381201D01*
X174578945Y-55433858D01*
X174565378Y-55478580D01*
X174543341Y-55519809D01*
X174513692Y-55555937D01*
X174477564Y-55585586D01*
X174436335Y-55607623D01*
X174391613Y-55621190D01*
X174338956Y-55626376D01*
X172679306Y-55626376D01*
X172626649Y-55621190D01*
X172581927Y-55607623D01*
X172540698Y-55585586D01*
X172504570Y-55555937D01*
X172474921Y-55519809D01*
X172452884Y-55478580D01*
X172439317Y-55433858D01*
X172434131Y-55381201D01*
X172434131Y-54046551D01*
X172439317Y-53993894D01*
X172452884Y-53949172D01*
X172474921Y-53907943D01*
X172504570Y-53871815D01*
X172540698Y-53842166D01*
X172581927Y-53820129D01*
X172626649Y-53806562D01*
X172679306Y-53801376D01*
X174338956Y-53801376D01*
X174391613Y-53806562D01*
X174391613Y-53806562D01*
G37*
G36*
X171391613Y-53806562D02*
X171436335Y-53820129D01*
X171477564Y-53842166D01*
X171513692Y-53871815D01*
X171543341Y-53907943D01*
X171565378Y-53949172D01*
X171578945Y-53993894D01*
X171584131Y-54046551D01*
X171584131Y-55381201D01*
X171578945Y-55433858D01*
X171565378Y-55478580D01*
X171543341Y-55519809D01*
X171513692Y-55555937D01*
X171477564Y-55585586D01*
X171436335Y-55607623D01*
X171391613Y-55621190D01*
X171338956Y-55626376D01*
X169679306Y-55626376D01*
X169626649Y-55621190D01*
X169581927Y-55607623D01*
X169540698Y-55585586D01*
X169504570Y-55555937D01*
X169474921Y-55519809D01*
X169452884Y-55478580D01*
X169439317Y-55433858D01*
X169434131Y-55381201D01*
X169434131Y-54046551D01*
X169439317Y-53993894D01*
X169452884Y-53949172D01*
X169474921Y-53907943D01*
X169504570Y-53871815D01*
X169540698Y-53842166D01*
X169581927Y-53820129D01*
X169626649Y-53806562D01*
X169679306Y-53801376D01*
X171338956Y-53801376D01*
X171391613Y-53806562D01*
X171391613Y-53806562D01*
G37*
G36*
X188950000Y-55200000D02*
X186050000Y-55200000D01*
X186050000Y-52300000D01*
X188950000Y-52300000D01*
X188950000Y-55200000D01*
X188950000Y-55200000D01*
G37*
G36*
X125928707Y-51457597D02*
X126005836Y-51465193D01*
X126137787Y-51505220D01*
X126203763Y-51525233D01*
X126386172Y-51622733D01*
X126546054Y-51753946D01*
X126677267Y-51913828D01*
X126774767Y-52096237D01*
X126774767Y-52096238D01*
X126834807Y-52294164D01*
X126855080Y-52500000D01*
X126834807Y-52705836D01*
X126794780Y-52837787D01*
X126774767Y-52903763D01*
X126677267Y-53086172D01*
X126546054Y-53246054D01*
X126386172Y-53377267D01*
X126203763Y-53474767D01*
X126137787Y-53494780D01*
X126005836Y-53534807D01*
X125928707Y-53542403D01*
X125851580Y-53550000D01*
X125748420Y-53550000D01*
X125671293Y-53542403D01*
X125594164Y-53534807D01*
X125462213Y-53494780D01*
X125396237Y-53474767D01*
X125213828Y-53377267D01*
X125053946Y-53246054D01*
X124922733Y-53086172D01*
X124825233Y-52903763D01*
X124805220Y-52837787D01*
X124765193Y-52705836D01*
X124744920Y-52500000D01*
X124765193Y-52294164D01*
X124825233Y-52096238D01*
X124825233Y-52096237D01*
X124922733Y-51913828D01*
X125053946Y-51753946D01*
X125213828Y-51622733D01*
X125396237Y-51525233D01*
X125462213Y-51505220D01*
X125594164Y-51465193D01*
X125671293Y-51457597D01*
X125748420Y-51450000D01*
X125851580Y-51450000D01*
X125928707Y-51457597D01*
X125928707Y-51457597D01*
G37*
G36*
X128468707Y-51457597D02*
X128545836Y-51465193D01*
X128677787Y-51505220D01*
X128743763Y-51525233D01*
X128926172Y-51622733D01*
X129086054Y-51753946D01*
X129217267Y-51913828D01*
X129314767Y-52096237D01*
X129314767Y-52096238D01*
X129374807Y-52294164D01*
X129395080Y-52500000D01*
X129374807Y-52705836D01*
X129334780Y-52837787D01*
X129314767Y-52903763D01*
X129217267Y-53086172D01*
X129086054Y-53246054D01*
X128926172Y-53377267D01*
X128743763Y-53474767D01*
X128677787Y-53494780D01*
X128545836Y-53534807D01*
X128468707Y-53542403D01*
X128391580Y-53550000D01*
X128288420Y-53550000D01*
X128211293Y-53542403D01*
X128134164Y-53534807D01*
X128002213Y-53494780D01*
X127936237Y-53474767D01*
X127753828Y-53377267D01*
X127593946Y-53246054D01*
X127462733Y-53086172D01*
X127365233Y-52903763D01*
X127345220Y-52837787D01*
X127305193Y-52705836D01*
X127284920Y-52500000D01*
X127305193Y-52294164D01*
X127365233Y-52096238D01*
X127365233Y-52096237D01*
X127462733Y-51913828D01*
X127593946Y-51753946D01*
X127753828Y-51622733D01*
X127936237Y-51525233D01*
X128002213Y-51505220D01*
X128134164Y-51465193D01*
X128211293Y-51457597D01*
X128288420Y-51450000D01*
X128391580Y-51450000D01*
X128468707Y-51457597D01*
X128468707Y-51457597D01*
G37*
G36*
X131008707Y-51457597D02*
X131085836Y-51465193D01*
X131217787Y-51505220D01*
X131283763Y-51525233D01*
X131466172Y-51622733D01*
X131626054Y-51753946D01*
X131757267Y-51913828D01*
X131854767Y-52096237D01*
X131854767Y-52096238D01*
X131914807Y-52294164D01*
X131935080Y-52500000D01*
X131914807Y-52705836D01*
X131874780Y-52837787D01*
X131854767Y-52903763D01*
X131757267Y-53086172D01*
X131626054Y-53246054D01*
X131466172Y-53377267D01*
X131283763Y-53474767D01*
X131217787Y-53494780D01*
X131085836Y-53534807D01*
X131008707Y-53542403D01*
X130931580Y-53550000D01*
X130828420Y-53550000D01*
X130751293Y-53542403D01*
X130674164Y-53534807D01*
X130542213Y-53494780D01*
X130476237Y-53474767D01*
X130293828Y-53377267D01*
X130133946Y-53246054D01*
X130002733Y-53086172D01*
X129905233Y-52903763D01*
X129885220Y-52837787D01*
X129845193Y-52705836D01*
X129824920Y-52500000D01*
X129845193Y-52294164D01*
X129905233Y-52096238D01*
X129905233Y-52096237D01*
X130002733Y-51913828D01*
X130133946Y-51753946D01*
X130293828Y-51622733D01*
X130476237Y-51525233D01*
X130542213Y-51505220D01*
X130674164Y-51465193D01*
X130751293Y-51457597D01*
X130828420Y-51450000D01*
X130931580Y-51450000D01*
X131008707Y-51457597D01*
X131008707Y-51457597D01*
G37*
G36*
X133548707Y-51457597D02*
X133625836Y-51465193D01*
X133757787Y-51505220D01*
X133823763Y-51525233D01*
X134006172Y-51622733D01*
X134166054Y-51753946D01*
X134297267Y-51913828D01*
X134394767Y-52096237D01*
X134394767Y-52096238D01*
X134454807Y-52294164D01*
X134475080Y-52500000D01*
X134454807Y-52705836D01*
X134414780Y-52837787D01*
X134394767Y-52903763D01*
X134297267Y-53086172D01*
X134166054Y-53246054D01*
X134006172Y-53377267D01*
X133823763Y-53474767D01*
X133757787Y-53494780D01*
X133625836Y-53534807D01*
X133548707Y-53542403D01*
X133471580Y-53550000D01*
X133368420Y-53550000D01*
X133291293Y-53542403D01*
X133214164Y-53534807D01*
X133082213Y-53494780D01*
X133016237Y-53474767D01*
X132833828Y-53377267D01*
X132673946Y-53246054D01*
X132542733Y-53086172D01*
X132445233Y-52903763D01*
X132425220Y-52837787D01*
X132385193Y-52705836D01*
X132364920Y-52500000D01*
X132385193Y-52294164D01*
X132445233Y-52096238D01*
X132445233Y-52096237D01*
X132542733Y-51913828D01*
X132673946Y-51753946D01*
X132833828Y-51622733D01*
X133016237Y-51525233D01*
X133082213Y-51505220D01*
X133214164Y-51465193D01*
X133291293Y-51457597D01*
X133368420Y-51450000D01*
X133471580Y-51450000D01*
X133548707Y-51457597D01*
X133548707Y-51457597D01*
G37*
G36*
X136088707Y-51457597D02*
X136165836Y-51465193D01*
X136297787Y-51505220D01*
X136363763Y-51525233D01*
X136546172Y-51622733D01*
X136706054Y-51753946D01*
X136837267Y-51913828D01*
X136934767Y-52096237D01*
X136934767Y-52096238D01*
X136994807Y-52294164D01*
X137015080Y-52500000D01*
X136994807Y-52705836D01*
X136954780Y-52837787D01*
X136934767Y-52903763D01*
X136837267Y-53086172D01*
X136706054Y-53246054D01*
X136546172Y-53377267D01*
X136363763Y-53474767D01*
X136297787Y-53494780D01*
X136165836Y-53534807D01*
X136088707Y-53542403D01*
X136011580Y-53550000D01*
X135908420Y-53550000D01*
X135831293Y-53542403D01*
X135754164Y-53534807D01*
X135622213Y-53494780D01*
X135556237Y-53474767D01*
X135373828Y-53377267D01*
X135213946Y-53246054D01*
X135082733Y-53086172D01*
X134985233Y-52903763D01*
X134965220Y-52837787D01*
X134925193Y-52705836D01*
X134904920Y-52500000D01*
X134925193Y-52294164D01*
X134985233Y-52096238D01*
X134985233Y-52096237D01*
X135082733Y-51913828D01*
X135213946Y-51753946D01*
X135373828Y-51622733D01*
X135556237Y-51525233D01*
X135622213Y-51505220D01*
X135754164Y-51465193D01*
X135831293Y-51457597D01*
X135908420Y-51450000D01*
X136011580Y-51450000D01*
X136088707Y-51457597D01*
X136088707Y-51457597D01*
G37*
G36*
X139550000Y-53550000D02*
X137450000Y-53550000D01*
X137450000Y-51450000D01*
X139550000Y-51450000D01*
X139550000Y-53550000D01*
X139550000Y-53550000D01*
G37*
M02*
