G04 #@! TF.GenerationSoftware,KiCad,Pcbnew,(5.0.1)-3*
G04 #@! TF.CreationDate,2018-11-12T18:53:03-05:00*
G04 #@! TF.ProjectId,ESP32 Windlass,45535033322057696E646C6173732E6B,rev?*
G04 #@! TF.SameCoordinates,Original*
G04 #@! TF.FileFunction,Copper,L2,Bot,Signal*
G04 #@! TF.FilePolarity,Positive*
%FSLAX46Y46*%
G04 Gerber Fmt 4.6, Leading zero omitted, Abs format (unit mm)*
G04 Created by KiCad (PCBNEW (5.0.1)-3) date 11/12/2018 6:53:03 PM*
%MOMM*%
%LPD*%
G01*
G04 APERTURE LIST*
G04 #@! TA.AperFunction,ComponentPad*
%ADD10C,0.700000*%
G04 #@! TD*
G04 #@! TA.AperFunction,ComponentPad*
%ADD11C,4.400000*%
G04 #@! TD*
G04 #@! TA.AperFunction,ComponentPad*
%ADD12C,1.524000*%
G04 #@! TD*
G04 #@! TA.AperFunction,ComponentPad*
%ADD13R,2.500000X2.500000*%
G04 #@! TD*
G04 #@! TA.AperFunction,ComponentPad*
%ADD14C,2.500000*%
G04 #@! TD*
G04 #@! TA.AperFunction,ComponentPad*
%ADD15R,1.700000X1.700000*%
G04 #@! TD*
G04 #@! TA.AperFunction,ComponentPad*
%ADD16O,1.700000X1.700000*%
G04 #@! TD*
G04 #@! TA.AperFunction,ComponentPad*
%ADD17C,0.800000*%
G04 #@! TD*
G04 #@! TA.AperFunction,ComponentPad*
%ADD18C,0.600000*%
G04 #@! TD*
G04 #@! TA.AperFunction,Conductor*
%ADD19R,2.800000X2.300000*%
G04 #@! TD*
G04 #@! TA.AperFunction,ViaPad*
%ADD20C,0.800000*%
G04 #@! TD*
G04 #@! TA.AperFunction,Conductor*
%ADD21C,0.400000*%
G04 #@! TD*
G04 #@! TA.AperFunction,Conductor*
%ADD22C,0.250000*%
G04 #@! TD*
G04 #@! TA.AperFunction,Conductor*
%ADD23C,0.500000*%
G04 #@! TD*
G04 #@! TA.AperFunction,Conductor*
%ADD24C,3.000000*%
G04 #@! TD*
G04 #@! TA.AperFunction,Conductor*
%ADD25C,0.254000*%
G04 #@! TD*
G04 APERTURE END LIST*
D10*
G04 #@! TO.P,,1*
G04 #@! TO.N,N/C*
X149500000Y-84166548D03*
X148333274Y-83683274D03*
X147166548Y-84166548D03*
X146683274Y-85333274D03*
X147166548Y-86500000D03*
X148333274Y-86983274D03*
X149500000Y-86500000D03*
X149983274Y-85333274D03*
D11*
X148333274Y-85333274D03*
G04 #@! TD*
G04 #@! TO.P,,1*
G04 #@! TO.N,N/C*
X196000000Y-98750000D03*
D10*
X197650000Y-98750000D03*
X197166726Y-99916726D03*
X196000000Y-100400000D03*
X194833274Y-99916726D03*
X194350000Y-98750000D03*
X194833274Y-97583274D03*
X196000000Y-97100000D03*
X197166726Y-97583274D03*
G04 #@! TD*
D12*
G04 #@! TO.P,U1,15*
G04 #@! TO.N,+12V*
X176615000Y-68730000D03*
X177885000Y-68730000D03*
X177250000Y-70000000D03*
X176615000Y-71270000D03*
X177885000Y-71270000D03*
G04 #@! TD*
G04 #@! TO.P,U2,15*
G04 #@! TO.N,+12V*
X176615000Y-85730000D03*
X177250000Y-87000000D03*
X176615000Y-88270000D03*
X177885000Y-85730000D03*
X177885000Y-88270000D03*
G04 #@! TD*
D13*
G04 #@! TO.P,J2,1*
G04 #@! TO.N,GND*
X187500000Y-53750000D03*
D14*
G04 #@! TO.P,J2,2*
G04 #@! TO.N,+12V*
X187500000Y-63750000D03*
G04 #@! TO.P,J2,3*
G04 #@! TO.N,/CH1_LOAD*
X187500000Y-73750000D03*
G04 #@! TO.P,J2,4*
G04 #@! TO.N,/CH2_LOAD*
X187500000Y-83750000D03*
G04 #@! TO.P,J2,5*
G04 #@! TO.N,+12V*
X187500000Y-93750000D03*
G04 #@! TO.P,J2,6*
G04 #@! TO.N,/COUNTER_IN*
X187500000Y-103750000D03*
G04 #@! TD*
D15*
G04 #@! TO.P,J1,1*
G04 #@! TO.N,/IO0*
X138500000Y-52500000D03*
D16*
G04 #@! TO.P,J1,2*
G04 #@! TO.N,/PROG_RST*
X135960000Y-52500000D03*
G04 #@! TO.P,J1,3*
G04 #@! TO.N,GND*
X133420000Y-52500000D03*
G04 #@! TO.P,J1,4*
G04 #@! TO.N,/RX0*
X130880000Y-52500000D03*
G04 #@! TO.P,J1,5*
G04 #@! TO.N,/TX0*
X128340000Y-52500000D03*
G04 #@! TO.P,J1,6*
G04 #@! TO.N,/USB_VBUS*
X125800000Y-52500000D03*
G04 #@! TD*
D17*
G04 #@! TO.P,U3,39*
G04 #@! TO.N,GND*
X127070000Y-65150000D03*
X128070000Y-65150000D03*
X129070000Y-65150000D03*
X130070000Y-65150000D03*
X131070000Y-65150000D03*
X127070000Y-67150000D03*
X128070000Y-67150000D03*
X129070000Y-67150000D03*
X130070000Y-67150000D03*
X131070000Y-67150000D03*
X131070000Y-66150000D03*
X130070000Y-66150000D03*
X129070000Y-66150000D03*
X128070000Y-66150000D03*
X127070000Y-66150000D03*
X127070000Y-68150000D03*
X128070000Y-68150000D03*
X129070000Y-68150000D03*
X130070000Y-68150000D03*
X131070000Y-68150000D03*
X131070000Y-69150000D03*
X130070000Y-69150000D03*
X129070000Y-69150000D03*
X128070000Y-69150000D03*
X127070000Y-69150000D03*
G04 #@! TD*
D18*
G04 #@! TO.P,U5,11*
G04 #@! TO.N,GND*
X166250000Y-57250000D03*
X165500000Y-57750000D03*
X164750000Y-57250000D03*
X164750000Y-58250000D03*
X166250000Y-58250000D03*
D19*
G04 #@! TD*
G04 #@! TO.N,GND*
G04 #@! TO.C,U5*
X165500000Y-57750000D03*
D10*
G04 #@! TO.P,,1*
G04 #@! TO.N,N/C*
X197166726Y-57583274D03*
X196000000Y-57100000D03*
X194833274Y-57583274D03*
X194350000Y-58750000D03*
X194833274Y-59916726D03*
X196000000Y-60400000D03*
X197166726Y-59916726D03*
X197650000Y-58750000D03*
D11*
X196000000Y-58750000D03*
G04 #@! TD*
D20*
G04 #@! TO.N,/PROG_RST*
X135960000Y-54710000D03*
X135960000Y-65710000D03*
G04 #@! TO.N,/SCL*
X142250000Y-67500000D03*
X142250000Y-61250000D03*
G04 #@! TO.N,+3V3*
X129000000Y-86000000D03*
X131250000Y-89000000D03*
G04 #@! TO.N,/SDA*
X149500000Y-63500000D03*
X144250000Y-60500000D03*
G04 #@! TO.N,GND*
X122250000Y-60500000D03*
X127500000Y-97000000D03*
X154250000Y-59250000D03*
X121910000Y-79160000D03*
X140000000Y-73000000D03*
X171000000Y-63750000D03*
X158000000Y-96500000D03*
X158750000Y-79750000D03*
X175500000Y-100500000D03*
X158750000Y-69500000D03*
X166000000Y-77500000D03*
X171000000Y-80500000D03*
X170750000Y-74000000D03*
X159500000Y-91250000D03*
X171000000Y-90750000D03*
X169500000Y-95750000D03*
X182750000Y-77750000D03*
X168500000Y-57750000D03*
X123250000Y-88500000D03*
X182750000Y-76750000D03*
X182750000Y-79500000D03*
X182750000Y-80500000D03*
G04 #@! TO.N,/CH2_EN*
X162500000Y-82750000D03*
X158750000Y-82750000D03*
G04 #@! TO.N,/CH1_EN*
X159500000Y-65750000D03*
X149500000Y-65750000D03*
G04 #@! TO.N,/COUNTER*
X143000000Y-99500000D03*
X143000000Y-91750000D03*
G04 #@! TD*
D21*
G04 #@! TO.N,/PROG_RST*
X135960000Y-54710000D02*
X135960000Y-65710000D01*
X135960000Y-65710000D02*
X135960000Y-65710000D01*
D22*
G04 #@! TO.N,/SCL*
X142250000Y-61250000D02*
X142250000Y-67500000D01*
G04 #@! TO.N,+3V3*
X129000000Y-86750000D02*
X131250000Y-89000000D01*
X129000000Y-86000000D02*
X129000000Y-86750000D01*
G04 #@! TO.N,/SDA*
X149500000Y-63500000D02*
X147250000Y-63500000D01*
X147250000Y-63500000D02*
X144250000Y-60500000D01*
D23*
G04 #@! TO.N,GND*
X189500000Y-52750000D02*
X191750000Y-55000000D01*
X187750000Y-52750000D02*
X189500000Y-52750000D01*
X191750000Y-55000000D02*
X191750000Y-75500000D01*
X191750000Y-75500000D02*
X189750000Y-77500000D01*
X189750000Y-77500000D02*
X184000000Y-77500000D01*
X184000000Y-77500000D02*
X184000000Y-77500000D01*
D22*
G04 #@! TO.N,/CH2_EN*
X162500000Y-82750000D02*
X158750000Y-82750000D01*
X158750000Y-82750000D02*
X158750000Y-82750000D01*
G04 #@! TO.N,/CH1_EN*
X159500000Y-65750000D02*
X149500000Y-65750000D01*
X149500000Y-65750000D02*
X149250000Y-65750000D01*
X149500000Y-65750000D02*
X149500000Y-65750000D01*
D24*
G04 #@! TO.N,+12V*
X177250000Y-68000000D02*
X177250000Y-70000000D01*
X177250000Y-65250000D02*
X177250000Y-68000000D01*
X187500000Y-63750000D02*
X178750000Y-63750000D01*
X178750000Y-63750000D02*
X177250000Y-65250000D01*
X177250000Y-70000000D02*
X177250000Y-87000000D01*
X177250000Y-92000000D02*
X179000000Y-93750000D01*
X177250000Y-87000000D02*
X177250000Y-92000000D01*
X179000000Y-93750000D02*
X187500000Y-93750000D01*
D22*
G04 #@! TO.N,/COUNTER*
X143000000Y-99500000D02*
X143000000Y-91750000D01*
X143000000Y-91750000D02*
X143000000Y-91750000D01*
G04 #@! TD*
D25*
G04 #@! TO.N,GND*
G36*
X192123000Y-106790000D02*
X121210000Y-106790000D01*
X121210000Y-103375050D01*
X185615000Y-103375050D01*
X185615000Y-104124950D01*
X185901974Y-104817767D01*
X186432233Y-105348026D01*
X187125050Y-105635000D01*
X187874950Y-105635000D01*
X188567767Y-105348026D01*
X189098026Y-104817767D01*
X189385000Y-104124950D01*
X189385000Y-103375050D01*
X189098026Y-102682233D01*
X188567767Y-102151974D01*
X187874950Y-101865000D01*
X187125050Y-101865000D01*
X186432233Y-102151974D01*
X185901974Y-102682233D01*
X185615000Y-103375050D01*
X121210000Y-103375050D01*
X121210000Y-91544126D01*
X141965000Y-91544126D01*
X141965000Y-91955874D01*
X142122569Y-92336280D01*
X142240001Y-92453712D01*
X142240000Y-98796289D01*
X142122569Y-98913720D01*
X141965000Y-99294126D01*
X141965000Y-99705874D01*
X142122569Y-100086280D01*
X142413720Y-100377431D01*
X142794126Y-100535000D01*
X143205874Y-100535000D01*
X143586280Y-100377431D01*
X143877431Y-100086280D01*
X144035000Y-99705874D01*
X144035000Y-99294126D01*
X143877431Y-98913720D01*
X143760000Y-98796289D01*
X143760000Y-92453711D01*
X143877431Y-92336280D01*
X144035000Y-91955874D01*
X144035000Y-91544126D01*
X143877431Y-91163720D01*
X143586280Y-90872569D01*
X143205874Y-90715000D01*
X142794126Y-90715000D01*
X142413720Y-90872569D01*
X142122569Y-91163720D01*
X141965000Y-91544126D01*
X121210000Y-91544126D01*
X121210000Y-85794126D01*
X127965000Y-85794126D01*
X127965000Y-86205874D01*
X128122569Y-86586280D01*
X128235262Y-86698973D01*
X128225112Y-86750000D01*
X128240000Y-86824847D01*
X128240000Y-86824852D01*
X128281802Y-87035000D01*
X128284097Y-87046537D01*
X128372742Y-87179203D01*
X128452072Y-87297929D01*
X128515528Y-87340329D01*
X130215000Y-89039802D01*
X130215000Y-89205874D01*
X130372569Y-89586280D01*
X130663720Y-89877431D01*
X131044126Y-90035000D01*
X131455874Y-90035000D01*
X131836280Y-89877431D01*
X132127431Y-89586280D01*
X132285000Y-89205874D01*
X132285000Y-88794126D01*
X132127431Y-88413720D01*
X131836280Y-88122569D01*
X131455874Y-87965000D01*
X131289802Y-87965000D01*
X129887287Y-86562486D01*
X130035000Y-86205874D01*
X130035000Y-85794126D01*
X129877431Y-85413720D01*
X129586280Y-85122569D01*
X129205874Y-84965000D01*
X128794126Y-84965000D01*
X128413720Y-85122569D01*
X128122569Y-85413720D01*
X127965000Y-85794126D01*
X121210000Y-85794126D01*
X121210000Y-84769357D01*
X145498274Y-84769357D01*
X145498274Y-85897191D01*
X145929877Y-86939173D01*
X146727375Y-87736671D01*
X147769357Y-88168274D01*
X148897191Y-88168274D01*
X149939173Y-87736671D01*
X150736671Y-86939173D01*
X151168274Y-85897191D01*
X151168274Y-84769357D01*
X150736671Y-83727375D01*
X149939173Y-82929877D01*
X149007888Y-82544126D01*
X157715000Y-82544126D01*
X157715000Y-82955874D01*
X157872569Y-83336280D01*
X158163720Y-83627431D01*
X158544126Y-83785000D01*
X158955874Y-83785000D01*
X159336280Y-83627431D01*
X159453711Y-83510000D01*
X161796289Y-83510000D01*
X161913720Y-83627431D01*
X162294126Y-83785000D01*
X162705874Y-83785000D01*
X163086280Y-83627431D01*
X163377431Y-83336280D01*
X163535000Y-82955874D01*
X163535000Y-82544126D01*
X163377431Y-82163720D01*
X163086280Y-81872569D01*
X162705874Y-81715000D01*
X162294126Y-81715000D01*
X161913720Y-81872569D01*
X161796289Y-81990000D01*
X159453711Y-81990000D01*
X159336280Y-81872569D01*
X158955874Y-81715000D01*
X158544126Y-81715000D01*
X158163720Y-81872569D01*
X157872569Y-82163720D01*
X157715000Y-82544126D01*
X149007888Y-82544126D01*
X148897191Y-82498274D01*
X147769357Y-82498274D01*
X146727375Y-82929877D01*
X145929877Y-83727375D01*
X145498274Y-84769357D01*
X121210000Y-84769357D01*
X121210000Y-65028931D01*
X126021691Y-65028931D01*
X126055158Y-65439318D01*
X126143103Y-65651635D01*
X126021691Y-66028931D01*
X126055158Y-66439318D01*
X126143103Y-66651635D01*
X126021691Y-67028931D01*
X126055158Y-67439318D01*
X126143103Y-67651635D01*
X126021691Y-68028931D01*
X126055158Y-68439318D01*
X126143103Y-68651635D01*
X126021691Y-69028931D01*
X126055158Y-69439318D01*
X126147820Y-69663023D01*
X126352650Y-69687745D01*
X126868098Y-69172297D01*
X126948931Y-69198309D01*
X127034932Y-69191296D01*
X127048005Y-69351600D01*
X126532255Y-69867350D01*
X126556977Y-70072180D01*
X126948931Y-70198309D01*
X127359318Y-70164842D01*
X127571635Y-70076897D01*
X127948931Y-70198309D01*
X128359318Y-70164842D01*
X128571635Y-70076897D01*
X128948931Y-70198309D01*
X129359318Y-70164842D01*
X129571635Y-70076897D01*
X129948931Y-70198309D01*
X130359318Y-70164842D01*
X130571635Y-70076897D01*
X130948931Y-70198309D01*
X131359318Y-70164842D01*
X131583023Y-70072180D01*
X131607745Y-69867350D01*
X131092297Y-69351902D01*
X131118309Y-69271069D01*
X131111296Y-69185068D01*
X131271600Y-69171995D01*
X131787350Y-69687745D01*
X131992180Y-69663023D01*
X132118309Y-69271069D01*
X132084842Y-68860682D01*
X131996897Y-68648365D01*
X132118309Y-68271069D01*
X132084842Y-67860682D01*
X131996897Y-67648365D01*
X132118309Y-67271069D01*
X132084842Y-66860682D01*
X131996897Y-66648365D01*
X132118309Y-66271069D01*
X132084842Y-65860682D01*
X131996897Y-65648365D01*
X132118309Y-65271069D01*
X132084842Y-64860682D01*
X131992180Y-64636977D01*
X131787350Y-64612255D01*
X131271902Y-65127703D01*
X131191069Y-65101691D01*
X131105068Y-65108704D01*
X131091995Y-64948400D01*
X131607745Y-64432650D01*
X131583023Y-64227820D01*
X131191069Y-64101691D01*
X130780682Y-64135158D01*
X130568365Y-64223103D01*
X130191069Y-64101691D01*
X129780682Y-64135158D01*
X129568365Y-64223103D01*
X129191069Y-64101691D01*
X128780682Y-64135158D01*
X128568365Y-64223103D01*
X128191069Y-64101691D01*
X127780682Y-64135158D01*
X127568365Y-64223103D01*
X127191069Y-64101691D01*
X126780682Y-64135158D01*
X126556977Y-64227820D01*
X126532255Y-64432650D01*
X127047703Y-64948098D01*
X127021691Y-65028931D01*
X127028704Y-65114932D01*
X126868400Y-65128005D01*
X126352650Y-64612255D01*
X126147820Y-64636977D01*
X126021691Y-65028931D01*
X121210000Y-65028931D01*
X121210000Y-52500000D01*
X124285908Y-52500000D01*
X124401161Y-53079418D01*
X124729375Y-53570625D01*
X125220582Y-53898839D01*
X125653744Y-53985000D01*
X125946256Y-53985000D01*
X126379418Y-53898839D01*
X126870625Y-53570625D01*
X127070000Y-53272239D01*
X127269375Y-53570625D01*
X127760582Y-53898839D01*
X128193744Y-53985000D01*
X128486256Y-53985000D01*
X128919418Y-53898839D01*
X129410625Y-53570625D01*
X129610000Y-53272239D01*
X129809375Y-53570625D01*
X130300582Y-53898839D01*
X130733744Y-53985000D01*
X131026256Y-53985000D01*
X131459418Y-53898839D01*
X131950625Y-53570625D01*
X132163843Y-53251522D01*
X132224817Y-53381358D01*
X132653076Y-53771645D01*
X133063110Y-53941476D01*
X133293000Y-53820155D01*
X133293000Y-52627000D01*
X133273000Y-52627000D01*
X133273000Y-52373000D01*
X133293000Y-52373000D01*
X133293000Y-51179845D01*
X133547000Y-51179845D01*
X133547000Y-52373000D01*
X133567000Y-52373000D01*
X133567000Y-52627000D01*
X133547000Y-52627000D01*
X133547000Y-53820155D01*
X133776890Y-53941476D01*
X134186924Y-53771645D01*
X134615183Y-53381358D01*
X134676157Y-53251522D01*
X134889375Y-53570625D01*
X135336743Y-53869546D01*
X135082569Y-54123720D01*
X134925000Y-54504126D01*
X134925000Y-54915874D01*
X135082569Y-55296280D01*
X135125000Y-55338711D01*
X135125001Y-65081288D01*
X135082569Y-65123720D01*
X134925000Y-65504126D01*
X134925000Y-65915874D01*
X135082569Y-66296280D01*
X135373720Y-66587431D01*
X135754126Y-66745000D01*
X136165874Y-66745000D01*
X136546280Y-66587431D01*
X136837431Y-66296280D01*
X136995000Y-65915874D01*
X136995000Y-65504126D01*
X136837431Y-65123720D01*
X136795000Y-65081289D01*
X136795000Y-61044126D01*
X141215000Y-61044126D01*
X141215000Y-61455874D01*
X141372569Y-61836280D01*
X141490000Y-61953711D01*
X141490001Y-66796288D01*
X141372569Y-66913720D01*
X141215000Y-67294126D01*
X141215000Y-67705874D01*
X141372569Y-68086280D01*
X141663720Y-68377431D01*
X142044126Y-68535000D01*
X142455874Y-68535000D01*
X142836280Y-68377431D01*
X143127431Y-68086280D01*
X143285000Y-67705874D01*
X143285000Y-67294126D01*
X143127431Y-66913720D01*
X143010000Y-66796289D01*
X143010000Y-65544126D01*
X148465000Y-65544126D01*
X148465000Y-65955874D01*
X148622569Y-66336280D01*
X148913720Y-66627431D01*
X149294126Y-66785000D01*
X149705874Y-66785000D01*
X150086280Y-66627431D01*
X150203711Y-66510000D01*
X158796289Y-66510000D01*
X158913720Y-66627431D01*
X159294126Y-66785000D01*
X159705874Y-66785000D01*
X160086280Y-66627431D01*
X160377431Y-66336280D01*
X160535000Y-65955874D01*
X160535000Y-65544126D01*
X160413170Y-65250000D01*
X175073174Y-65250000D01*
X175115000Y-65460275D01*
X175115000Y-69789722D01*
X175115001Y-86789717D01*
X175115000Y-86789722D01*
X175115001Y-91789721D01*
X175073174Y-92000000D01*
X175238874Y-92833035D01*
X175238875Y-92833036D01*
X175710752Y-93539249D01*
X175889017Y-93658362D01*
X177341638Y-95110984D01*
X177460751Y-95289249D01*
X178166964Y-95761126D01*
X178789721Y-95885000D01*
X178789725Y-95885000D01*
X179000000Y-95926826D01*
X179210275Y-95885000D01*
X187710279Y-95885000D01*
X188333036Y-95761126D01*
X189039249Y-95289249D01*
X189511126Y-94583036D01*
X189676827Y-93750000D01*
X189511126Y-92916964D01*
X189039249Y-92210751D01*
X188333036Y-91738874D01*
X187710279Y-91615000D01*
X179884346Y-91615000D01*
X179385000Y-91115655D01*
X179385000Y-83375050D01*
X185615000Y-83375050D01*
X185615000Y-84124950D01*
X185901974Y-84817767D01*
X186432233Y-85348026D01*
X187125050Y-85635000D01*
X187874950Y-85635000D01*
X188567767Y-85348026D01*
X189098026Y-84817767D01*
X189385000Y-84124950D01*
X189385000Y-83375050D01*
X189098026Y-82682233D01*
X188567767Y-82151974D01*
X187874950Y-81865000D01*
X187125050Y-81865000D01*
X186432233Y-82151974D01*
X185901974Y-82682233D01*
X185615000Y-83375050D01*
X179385000Y-83375050D01*
X179385000Y-73375050D01*
X185615000Y-73375050D01*
X185615000Y-74124950D01*
X185901974Y-74817767D01*
X186432233Y-75348026D01*
X187125050Y-75635000D01*
X187874950Y-75635000D01*
X188567767Y-75348026D01*
X189098026Y-74817767D01*
X189385000Y-74124950D01*
X189385000Y-73375050D01*
X189098026Y-72682233D01*
X188567767Y-72151974D01*
X187874950Y-71865000D01*
X187125050Y-71865000D01*
X186432233Y-72151974D01*
X185901974Y-72682233D01*
X185615000Y-73375050D01*
X179385000Y-73375050D01*
X179385000Y-66134345D01*
X179634346Y-65885000D01*
X187710279Y-65885000D01*
X188333036Y-65761126D01*
X189039249Y-65289249D01*
X189511126Y-64583036D01*
X189676827Y-63750000D01*
X189511126Y-62916964D01*
X189039249Y-62210751D01*
X188333036Y-61738874D01*
X187710279Y-61615000D01*
X178960273Y-61615000D01*
X178749999Y-61573174D01*
X178539726Y-61615000D01*
X178539721Y-61615000D01*
X177916964Y-61738874D01*
X177210751Y-62210751D01*
X177091638Y-62389017D01*
X175889019Y-63591636D01*
X175710751Y-63710751D01*
X175238874Y-64416965D01*
X175115000Y-65039722D01*
X175115000Y-65039725D01*
X175073174Y-65250000D01*
X160413170Y-65250000D01*
X160377431Y-65163720D01*
X160086280Y-64872569D01*
X159705874Y-64715000D01*
X159294126Y-64715000D01*
X158913720Y-64872569D01*
X158796289Y-64990000D01*
X150203711Y-64990000D01*
X150086280Y-64872569D01*
X149705874Y-64715000D01*
X149294126Y-64715000D01*
X148913720Y-64872569D01*
X148622569Y-65163720D01*
X148465000Y-65544126D01*
X143010000Y-65544126D01*
X143010000Y-61953711D01*
X143127431Y-61836280D01*
X143285000Y-61455874D01*
X143285000Y-61044126D01*
X143127431Y-60663720D01*
X142836280Y-60372569D01*
X142646902Y-60294126D01*
X143215000Y-60294126D01*
X143215000Y-60705874D01*
X143372569Y-61086280D01*
X143663720Y-61377431D01*
X144044126Y-61535000D01*
X144210199Y-61535000D01*
X146659671Y-63984473D01*
X146702071Y-64047929D01*
X146765527Y-64090329D01*
X146953462Y-64215904D01*
X147001605Y-64225480D01*
X147175148Y-64260000D01*
X147175152Y-64260000D01*
X147250000Y-64274888D01*
X147324848Y-64260000D01*
X148796289Y-64260000D01*
X148913720Y-64377431D01*
X149294126Y-64535000D01*
X149705874Y-64535000D01*
X150086280Y-64377431D01*
X150377431Y-64086280D01*
X150535000Y-63705874D01*
X150535000Y-63294126D01*
X150377431Y-62913720D01*
X150086280Y-62622569D01*
X149705874Y-62465000D01*
X149294126Y-62465000D01*
X148913720Y-62622569D01*
X148796289Y-62740000D01*
X147564802Y-62740000D01*
X145285000Y-60460199D01*
X145285000Y-60294126D01*
X145127431Y-59913720D01*
X144836280Y-59622569D01*
X144455874Y-59465000D01*
X144044126Y-59465000D01*
X143663720Y-59622569D01*
X143372569Y-59913720D01*
X143215000Y-60294126D01*
X142646902Y-60294126D01*
X142455874Y-60215000D01*
X142044126Y-60215000D01*
X141663720Y-60372569D01*
X141372569Y-60663720D01*
X141215000Y-61044126D01*
X136795000Y-61044126D01*
X136795000Y-56473691D01*
X163465000Y-56473691D01*
X163465000Y-57464250D01*
X163623750Y-57623000D01*
X163878001Y-57623000D01*
X163910975Y-57702607D01*
X164030500Y-57710108D01*
X164070392Y-57750000D01*
X164030500Y-57789892D01*
X163910975Y-57797393D01*
X163886493Y-57877000D01*
X163623750Y-57877000D01*
X163465000Y-58035750D01*
X163465000Y-59026309D01*
X163561673Y-59259698D01*
X163740301Y-59438327D01*
X163973690Y-59535000D01*
X165214250Y-59535000D01*
X165373000Y-59376250D01*
X165373000Y-58693395D01*
X165394424Y-58714819D01*
X165500000Y-58708194D01*
X165605576Y-58714819D01*
X165627000Y-58693395D01*
X165627000Y-59376250D01*
X165785750Y-59535000D01*
X167026310Y-59535000D01*
X167259699Y-59438327D01*
X167438327Y-59259698D01*
X167535000Y-59026309D01*
X167535000Y-58035750D01*
X167376250Y-57877000D01*
X167121999Y-57877000D01*
X167089025Y-57797393D01*
X166969500Y-57789892D01*
X166929608Y-57750000D01*
X166969500Y-57710108D01*
X167089025Y-57702607D01*
X167113507Y-57623000D01*
X167376250Y-57623000D01*
X167535000Y-57464250D01*
X167535000Y-56473691D01*
X167438327Y-56240302D01*
X167259699Y-56061673D01*
X167026310Y-55965000D01*
X165785750Y-55965000D01*
X165627000Y-56123750D01*
X165627000Y-56806605D01*
X165605576Y-56785181D01*
X165500000Y-56791806D01*
X165394424Y-56785181D01*
X165373000Y-56806605D01*
X165373000Y-56123750D01*
X165214250Y-55965000D01*
X163973690Y-55965000D01*
X163740301Y-56061673D01*
X163561673Y-56240302D01*
X163465000Y-56473691D01*
X136795000Y-56473691D01*
X136795000Y-55338711D01*
X136837431Y-55296280D01*
X136995000Y-54915874D01*
X136995000Y-54504126D01*
X136837431Y-54123720D01*
X136749461Y-54035750D01*
X185615000Y-54035750D01*
X185615000Y-55126309D01*
X185711673Y-55359698D01*
X185890301Y-55538327D01*
X186123690Y-55635000D01*
X187214250Y-55635000D01*
X187373000Y-55476250D01*
X187373000Y-53877000D01*
X187627000Y-53877000D01*
X187627000Y-55476250D01*
X187785750Y-55635000D01*
X188876310Y-55635000D01*
X189109699Y-55538327D01*
X189288327Y-55359698D01*
X189385000Y-55126309D01*
X189385000Y-54035750D01*
X189226250Y-53877000D01*
X187627000Y-53877000D01*
X187373000Y-53877000D01*
X185773750Y-53877000D01*
X185615000Y-54035750D01*
X136749461Y-54035750D01*
X136583257Y-53869546D01*
X137030625Y-53570625D01*
X137042816Y-53552381D01*
X137051843Y-53597765D01*
X137192191Y-53807809D01*
X137402235Y-53948157D01*
X137650000Y-53997440D01*
X139350000Y-53997440D01*
X139597765Y-53948157D01*
X139807809Y-53807809D01*
X139948157Y-53597765D01*
X139997440Y-53350000D01*
X139997440Y-52373691D01*
X185615000Y-52373691D01*
X185615000Y-53464250D01*
X185773750Y-53623000D01*
X187373000Y-53623000D01*
X187373000Y-52023750D01*
X187627000Y-52023750D01*
X187627000Y-53623000D01*
X189226250Y-53623000D01*
X189385000Y-53464250D01*
X189385000Y-52373691D01*
X189288327Y-52140302D01*
X189109699Y-51961673D01*
X188876310Y-51865000D01*
X187785750Y-51865000D01*
X187627000Y-52023750D01*
X187373000Y-52023750D01*
X187214250Y-51865000D01*
X186123690Y-51865000D01*
X185890301Y-51961673D01*
X185711673Y-52140302D01*
X185615000Y-52373691D01*
X139997440Y-52373691D01*
X139997440Y-51650000D01*
X139948157Y-51402235D01*
X139807809Y-51192191D01*
X139597765Y-51051843D01*
X139350000Y-51002560D01*
X137650000Y-51002560D01*
X137402235Y-51051843D01*
X137192191Y-51192191D01*
X137051843Y-51402235D01*
X137042816Y-51447619D01*
X137030625Y-51429375D01*
X136539418Y-51101161D01*
X136106256Y-51015000D01*
X135813744Y-51015000D01*
X135380582Y-51101161D01*
X134889375Y-51429375D01*
X134676157Y-51748478D01*
X134615183Y-51618642D01*
X134186924Y-51228355D01*
X133776890Y-51058524D01*
X133547000Y-51179845D01*
X133293000Y-51179845D01*
X133063110Y-51058524D01*
X132653076Y-51228355D01*
X132224817Y-51618642D01*
X132163843Y-51748478D01*
X131950625Y-51429375D01*
X131459418Y-51101161D01*
X131026256Y-51015000D01*
X130733744Y-51015000D01*
X130300582Y-51101161D01*
X129809375Y-51429375D01*
X129610000Y-51727761D01*
X129410625Y-51429375D01*
X128919418Y-51101161D01*
X128486256Y-51015000D01*
X128193744Y-51015000D01*
X127760582Y-51101161D01*
X127269375Y-51429375D01*
X127070000Y-51727761D01*
X126870625Y-51429375D01*
X126379418Y-51101161D01*
X125946256Y-51015000D01*
X125653744Y-51015000D01*
X125220582Y-51101161D01*
X124729375Y-51429375D01*
X124401161Y-51920582D01*
X124285908Y-52500000D01*
X121210000Y-52500000D01*
X121210000Y-50710000D01*
X192123000Y-50710000D01*
X192123000Y-106790000D01*
X192123000Y-106790000D01*
G37*
X192123000Y-106790000D02*
X121210000Y-106790000D01*
X121210000Y-103375050D01*
X185615000Y-103375050D01*
X185615000Y-104124950D01*
X185901974Y-104817767D01*
X186432233Y-105348026D01*
X187125050Y-105635000D01*
X187874950Y-105635000D01*
X188567767Y-105348026D01*
X189098026Y-104817767D01*
X189385000Y-104124950D01*
X189385000Y-103375050D01*
X189098026Y-102682233D01*
X188567767Y-102151974D01*
X187874950Y-101865000D01*
X187125050Y-101865000D01*
X186432233Y-102151974D01*
X185901974Y-102682233D01*
X185615000Y-103375050D01*
X121210000Y-103375050D01*
X121210000Y-91544126D01*
X141965000Y-91544126D01*
X141965000Y-91955874D01*
X142122569Y-92336280D01*
X142240001Y-92453712D01*
X142240000Y-98796289D01*
X142122569Y-98913720D01*
X141965000Y-99294126D01*
X141965000Y-99705874D01*
X142122569Y-100086280D01*
X142413720Y-100377431D01*
X142794126Y-100535000D01*
X143205874Y-100535000D01*
X143586280Y-100377431D01*
X143877431Y-100086280D01*
X144035000Y-99705874D01*
X144035000Y-99294126D01*
X143877431Y-98913720D01*
X143760000Y-98796289D01*
X143760000Y-92453711D01*
X143877431Y-92336280D01*
X144035000Y-91955874D01*
X144035000Y-91544126D01*
X143877431Y-91163720D01*
X143586280Y-90872569D01*
X143205874Y-90715000D01*
X142794126Y-90715000D01*
X142413720Y-90872569D01*
X142122569Y-91163720D01*
X141965000Y-91544126D01*
X121210000Y-91544126D01*
X121210000Y-85794126D01*
X127965000Y-85794126D01*
X127965000Y-86205874D01*
X128122569Y-86586280D01*
X128235262Y-86698973D01*
X128225112Y-86750000D01*
X128240000Y-86824847D01*
X128240000Y-86824852D01*
X128281802Y-87035000D01*
X128284097Y-87046537D01*
X128372742Y-87179203D01*
X128452072Y-87297929D01*
X128515528Y-87340329D01*
X130215000Y-89039802D01*
X130215000Y-89205874D01*
X130372569Y-89586280D01*
X130663720Y-89877431D01*
X131044126Y-90035000D01*
X131455874Y-90035000D01*
X131836280Y-89877431D01*
X132127431Y-89586280D01*
X132285000Y-89205874D01*
X132285000Y-88794126D01*
X132127431Y-88413720D01*
X131836280Y-88122569D01*
X131455874Y-87965000D01*
X131289802Y-87965000D01*
X129887287Y-86562486D01*
X130035000Y-86205874D01*
X130035000Y-85794126D01*
X129877431Y-85413720D01*
X129586280Y-85122569D01*
X129205874Y-84965000D01*
X128794126Y-84965000D01*
X128413720Y-85122569D01*
X128122569Y-85413720D01*
X127965000Y-85794126D01*
X121210000Y-85794126D01*
X121210000Y-84769357D01*
X145498274Y-84769357D01*
X145498274Y-85897191D01*
X145929877Y-86939173D01*
X146727375Y-87736671D01*
X147769357Y-88168274D01*
X148897191Y-88168274D01*
X149939173Y-87736671D01*
X150736671Y-86939173D01*
X151168274Y-85897191D01*
X151168274Y-84769357D01*
X150736671Y-83727375D01*
X149939173Y-82929877D01*
X149007888Y-82544126D01*
X157715000Y-82544126D01*
X157715000Y-82955874D01*
X157872569Y-83336280D01*
X158163720Y-83627431D01*
X158544126Y-83785000D01*
X158955874Y-83785000D01*
X159336280Y-83627431D01*
X159453711Y-83510000D01*
X161796289Y-83510000D01*
X161913720Y-83627431D01*
X162294126Y-83785000D01*
X162705874Y-83785000D01*
X163086280Y-83627431D01*
X163377431Y-83336280D01*
X163535000Y-82955874D01*
X163535000Y-82544126D01*
X163377431Y-82163720D01*
X163086280Y-81872569D01*
X162705874Y-81715000D01*
X162294126Y-81715000D01*
X161913720Y-81872569D01*
X161796289Y-81990000D01*
X159453711Y-81990000D01*
X159336280Y-81872569D01*
X158955874Y-81715000D01*
X158544126Y-81715000D01*
X158163720Y-81872569D01*
X157872569Y-82163720D01*
X157715000Y-82544126D01*
X149007888Y-82544126D01*
X148897191Y-82498274D01*
X147769357Y-82498274D01*
X146727375Y-82929877D01*
X145929877Y-83727375D01*
X145498274Y-84769357D01*
X121210000Y-84769357D01*
X121210000Y-65028931D01*
X126021691Y-65028931D01*
X126055158Y-65439318D01*
X126143103Y-65651635D01*
X126021691Y-66028931D01*
X126055158Y-66439318D01*
X126143103Y-66651635D01*
X126021691Y-67028931D01*
X126055158Y-67439318D01*
X126143103Y-67651635D01*
X126021691Y-68028931D01*
X126055158Y-68439318D01*
X126143103Y-68651635D01*
X126021691Y-69028931D01*
X126055158Y-69439318D01*
X126147820Y-69663023D01*
X126352650Y-69687745D01*
X126868098Y-69172297D01*
X126948931Y-69198309D01*
X127034932Y-69191296D01*
X127048005Y-69351600D01*
X126532255Y-69867350D01*
X126556977Y-70072180D01*
X126948931Y-70198309D01*
X127359318Y-70164842D01*
X127571635Y-70076897D01*
X127948931Y-70198309D01*
X128359318Y-70164842D01*
X128571635Y-70076897D01*
X128948931Y-70198309D01*
X129359318Y-70164842D01*
X129571635Y-70076897D01*
X129948931Y-70198309D01*
X130359318Y-70164842D01*
X130571635Y-70076897D01*
X130948931Y-70198309D01*
X131359318Y-70164842D01*
X131583023Y-70072180D01*
X131607745Y-69867350D01*
X131092297Y-69351902D01*
X131118309Y-69271069D01*
X131111296Y-69185068D01*
X131271600Y-69171995D01*
X131787350Y-69687745D01*
X131992180Y-69663023D01*
X132118309Y-69271069D01*
X132084842Y-68860682D01*
X131996897Y-68648365D01*
X132118309Y-68271069D01*
X132084842Y-67860682D01*
X131996897Y-67648365D01*
X132118309Y-67271069D01*
X132084842Y-66860682D01*
X131996897Y-66648365D01*
X132118309Y-66271069D01*
X132084842Y-65860682D01*
X131996897Y-65648365D01*
X132118309Y-65271069D01*
X132084842Y-64860682D01*
X131992180Y-64636977D01*
X131787350Y-64612255D01*
X131271902Y-65127703D01*
X131191069Y-65101691D01*
X131105068Y-65108704D01*
X131091995Y-64948400D01*
X131607745Y-64432650D01*
X131583023Y-64227820D01*
X131191069Y-64101691D01*
X130780682Y-64135158D01*
X130568365Y-64223103D01*
X130191069Y-64101691D01*
X129780682Y-64135158D01*
X129568365Y-64223103D01*
X129191069Y-64101691D01*
X128780682Y-64135158D01*
X128568365Y-64223103D01*
X128191069Y-64101691D01*
X127780682Y-64135158D01*
X127568365Y-64223103D01*
X127191069Y-64101691D01*
X126780682Y-64135158D01*
X126556977Y-64227820D01*
X126532255Y-64432650D01*
X127047703Y-64948098D01*
X127021691Y-65028931D01*
X127028704Y-65114932D01*
X126868400Y-65128005D01*
X126352650Y-64612255D01*
X126147820Y-64636977D01*
X126021691Y-65028931D01*
X121210000Y-65028931D01*
X121210000Y-52500000D01*
X124285908Y-52500000D01*
X124401161Y-53079418D01*
X124729375Y-53570625D01*
X125220582Y-53898839D01*
X125653744Y-53985000D01*
X125946256Y-53985000D01*
X126379418Y-53898839D01*
X126870625Y-53570625D01*
X127070000Y-53272239D01*
X127269375Y-53570625D01*
X127760582Y-53898839D01*
X128193744Y-53985000D01*
X128486256Y-53985000D01*
X128919418Y-53898839D01*
X129410625Y-53570625D01*
X129610000Y-53272239D01*
X129809375Y-53570625D01*
X130300582Y-53898839D01*
X130733744Y-53985000D01*
X131026256Y-53985000D01*
X131459418Y-53898839D01*
X131950625Y-53570625D01*
X132163843Y-53251522D01*
X132224817Y-53381358D01*
X132653076Y-53771645D01*
X133063110Y-53941476D01*
X133293000Y-53820155D01*
X133293000Y-52627000D01*
X133273000Y-52627000D01*
X133273000Y-52373000D01*
X133293000Y-52373000D01*
X133293000Y-51179845D01*
X133547000Y-51179845D01*
X133547000Y-52373000D01*
X133567000Y-52373000D01*
X133567000Y-52627000D01*
X133547000Y-52627000D01*
X133547000Y-53820155D01*
X133776890Y-53941476D01*
X134186924Y-53771645D01*
X134615183Y-53381358D01*
X134676157Y-53251522D01*
X134889375Y-53570625D01*
X135336743Y-53869546D01*
X135082569Y-54123720D01*
X134925000Y-54504126D01*
X134925000Y-54915874D01*
X135082569Y-55296280D01*
X135125000Y-55338711D01*
X135125001Y-65081288D01*
X135082569Y-65123720D01*
X134925000Y-65504126D01*
X134925000Y-65915874D01*
X135082569Y-66296280D01*
X135373720Y-66587431D01*
X135754126Y-66745000D01*
X136165874Y-66745000D01*
X136546280Y-66587431D01*
X136837431Y-66296280D01*
X136995000Y-65915874D01*
X136995000Y-65504126D01*
X136837431Y-65123720D01*
X136795000Y-65081289D01*
X136795000Y-61044126D01*
X141215000Y-61044126D01*
X141215000Y-61455874D01*
X141372569Y-61836280D01*
X141490000Y-61953711D01*
X141490001Y-66796288D01*
X141372569Y-66913720D01*
X141215000Y-67294126D01*
X141215000Y-67705874D01*
X141372569Y-68086280D01*
X141663720Y-68377431D01*
X142044126Y-68535000D01*
X142455874Y-68535000D01*
X142836280Y-68377431D01*
X143127431Y-68086280D01*
X143285000Y-67705874D01*
X143285000Y-67294126D01*
X143127431Y-66913720D01*
X143010000Y-66796289D01*
X143010000Y-65544126D01*
X148465000Y-65544126D01*
X148465000Y-65955874D01*
X148622569Y-66336280D01*
X148913720Y-66627431D01*
X149294126Y-66785000D01*
X149705874Y-66785000D01*
X150086280Y-66627431D01*
X150203711Y-66510000D01*
X158796289Y-66510000D01*
X158913720Y-66627431D01*
X159294126Y-66785000D01*
X159705874Y-66785000D01*
X160086280Y-66627431D01*
X160377431Y-66336280D01*
X160535000Y-65955874D01*
X160535000Y-65544126D01*
X160413170Y-65250000D01*
X175073174Y-65250000D01*
X175115000Y-65460275D01*
X175115000Y-69789722D01*
X175115001Y-86789717D01*
X175115000Y-86789722D01*
X175115001Y-91789721D01*
X175073174Y-92000000D01*
X175238874Y-92833035D01*
X175238875Y-92833036D01*
X175710752Y-93539249D01*
X175889017Y-93658362D01*
X177341638Y-95110984D01*
X177460751Y-95289249D01*
X178166964Y-95761126D01*
X178789721Y-95885000D01*
X178789725Y-95885000D01*
X179000000Y-95926826D01*
X179210275Y-95885000D01*
X187710279Y-95885000D01*
X188333036Y-95761126D01*
X189039249Y-95289249D01*
X189511126Y-94583036D01*
X189676827Y-93750000D01*
X189511126Y-92916964D01*
X189039249Y-92210751D01*
X188333036Y-91738874D01*
X187710279Y-91615000D01*
X179884346Y-91615000D01*
X179385000Y-91115655D01*
X179385000Y-83375050D01*
X185615000Y-83375050D01*
X185615000Y-84124950D01*
X185901974Y-84817767D01*
X186432233Y-85348026D01*
X187125050Y-85635000D01*
X187874950Y-85635000D01*
X188567767Y-85348026D01*
X189098026Y-84817767D01*
X189385000Y-84124950D01*
X189385000Y-83375050D01*
X189098026Y-82682233D01*
X188567767Y-82151974D01*
X187874950Y-81865000D01*
X187125050Y-81865000D01*
X186432233Y-82151974D01*
X185901974Y-82682233D01*
X185615000Y-83375050D01*
X179385000Y-83375050D01*
X179385000Y-73375050D01*
X185615000Y-73375050D01*
X185615000Y-74124950D01*
X185901974Y-74817767D01*
X186432233Y-75348026D01*
X187125050Y-75635000D01*
X187874950Y-75635000D01*
X188567767Y-75348026D01*
X189098026Y-74817767D01*
X189385000Y-74124950D01*
X189385000Y-73375050D01*
X189098026Y-72682233D01*
X188567767Y-72151974D01*
X187874950Y-71865000D01*
X187125050Y-71865000D01*
X186432233Y-72151974D01*
X185901974Y-72682233D01*
X185615000Y-73375050D01*
X179385000Y-73375050D01*
X179385000Y-66134345D01*
X179634346Y-65885000D01*
X187710279Y-65885000D01*
X188333036Y-65761126D01*
X189039249Y-65289249D01*
X189511126Y-64583036D01*
X189676827Y-63750000D01*
X189511126Y-62916964D01*
X189039249Y-62210751D01*
X188333036Y-61738874D01*
X187710279Y-61615000D01*
X178960273Y-61615000D01*
X178749999Y-61573174D01*
X178539726Y-61615000D01*
X178539721Y-61615000D01*
X177916964Y-61738874D01*
X177210751Y-62210751D01*
X177091638Y-62389017D01*
X175889019Y-63591636D01*
X175710751Y-63710751D01*
X175238874Y-64416965D01*
X175115000Y-65039722D01*
X175115000Y-65039725D01*
X175073174Y-65250000D01*
X160413170Y-65250000D01*
X160377431Y-65163720D01*
X160086280Y-64872569D01*
X159705874Y-64715000D01*
X159294126Y-64715000D01*
X158913720Y-64872569D01*
X158796289Y-64990000D01*
X150203711Y-64990000D01*
X150086280Y-64872569D01*
X149705874Y-64715000D01*
X149294126Y-64715000D01*
X148913720Y-64872569D01*
X148622569Y-65163720D01*
X148465000Y-65544126D01*
X143010000Y-65544126D01*
X143010000Y-61953711D01*
X143127431Y-61836280D01*
X143285000Y-61455874D01*
X143285000Y-61044126D01*
X143127431Y-60663720D01*
X142836280Y-60372569D01*
X142646902Y-60294126D01*
X143215000Y-60294126D01*
X143215000Y-60705874D01*
X143372569Y-61086280D01*
X143663720Y-61377431D01*
X144044126Y-61535000D01*
X144210199Y-61535000D01*
X146659671Y-63984473D01*
X146702071Y-64047929D01*
X146765527Y-64090329D01*
X146953462Y-64215904D01*
X147001605Y-64225480D01*
X147175148Y-64260000D01*
X147175152Y-64260000D01*
X147250000Y-64274888D01*
X147324848Y-64260000D01*
X148796289Y-64260000D01*
X148913720Y-64377431D01*
X149294126Y-64535000D01*
X149705874Y-64535000D01*
X150086280Y-64377431D01*
X150377431Y-64086280D01*
X150535000Y-63705874D01*
X150535000Y-63294126D01*
X150377431Y-62913720D01*
X150086280Y-62622569D01*
X149705874Y-62465000D01*
X149294126Y-62465000D01*
X148913720Y-62622569D01*
X148796289Y-62740000D01*
X147564802Y-62740000D01*
X145285000Y-60460199D01*
X145285000Y-60294126D01*
X145127431Y-59913720D01*
X144836280Y-59622569D01*
X144455874Y-59465000D01*
X144044126Y-59465000D01*
X143663720Y-59622569D01*
X143372569Y-59913720D01*
X143215000Y-60294126D01*
X142646902Y-60294126D01*
X142455874Y-60215000D01*
X142044126Y-60215000D01*
X141663720Y-60372569D01*
X141372569Y-60663720D01*
X141215000Y-61044126D01*
X136795000Y-61044126D01*
X136795000Y-56473691D01*
X163465000Y-56473691D01*
X163465000Y-57464250D01*
X163623750Y-57623000D01*
X163878001Y-57623000D01*
X163910975Y-57702607D01*
X164030500Y-57710108D01*
X164070392Y-57750000D01*
X164030500Y-57789892D01*
X163910975Y-57797393D01*
X163886493Y-57877000D01*
X163623750Y-57877000D01*
X163465000Y-58035750D01*
X163465000Y-59026309D01*
X163561673Y-59259698D01*
X163740301Y-59438327D01*
X163973690Y-59535000D01*
X165214250Y-59535000D01*
X165373000Y-59376250D01*
X165373000Y-58693395D01*
X165394424Y-58714819D01*
X165500000Y-58708194D01*
X165605576Y-58714819D01*
X165627000Y-58693395D01*
X165627000Y-59376250D01*
X165785750Y-59535000D01*
X167026310Y-59535000D01*
X167259699Y-59438327D01*
X167438327Y-59259698D01*
X167535000Y-59026309D01*
X167535000Y-58035750D01*
X167376250Y-57877000D01*
X167121999Y-57877000D01*
X167089025Y-57797393D01*
X166969500Y-57789892D01*
X166929608Y-57750000D01*
X166969500Y-57710108D01*
X167089025Y-57702607D01*
X167113507Y-57623000D01*
X167376250Y-57623000D01*
X167535000Y-57464250D01*
X167535000Y-56473691D01*
X167438327Y-56240302D01*
X167259699Y-56061673D01*
X167026310Y-55965000D01*
X165785750Y-55965000D01*
X165627000Y-56123750D01*
X165627000Y-56806605D01*
X165605576Y-56785181D01*
X165500000Y-56791806D01*
X165394424Y-56785181D01*
X165373000Y-56806605D01*
X165373000Y-56123750D01*
X165214250Y-55965000D01*
X163973690Y-55965000D01*
X163740301Y-56061673D01*
X163561673Y-56240302D01*
X163465000Y-56473691D01*
X136795000Y-56473691D01*
X136795000Y-55338711D01*
X136837431Y-55296280D01*
X136995000Y-54915874D01*
X136995000Y-54504126D01*
X136837431Y-54123720D01*
X136749461Y-54035750D01*
X185615000Y-54035750D01*
X185615000Y-55126309D01*
X185711673Y-55359698D01*
X185890301Y-55538327D01*
X186123690Y-55635000D01*
X187214250Y-55635000D01*
X187373000Y-55476250D01*
X187373000Y-53877000D01*
X187627000Y-53877000D01*
X187627000Y-55476250D01*
X187785750Y-55635000D01*
X188876310Y-55635000D01*
X189109699Y-55538327D01*
X189288327Y-55359698D01*
X189385000Y-55126309D01*
X189385000Y-54035750D01*
X189226250Y-53877000D01*
X187627000Y-53877000D01*
X187373000Y-53877000D01*
X185773750Y-53877000D01*
X185615000Y-54035750D01*
X136749461Y-54035750D01*
X136583257Y-53869546D01*
X137030625Y-53570625D01*
X137042816Y-53552381D01*
X137051843Y-53597765D01*
X137192191Y-53807809D01*
X137402235Y-53948157D01*
X137650000Y-53997440D01*
X139350000Y-53997440D01*
X139597765Y-53948157D01*
X139807809Y-53807809D01*
X139948157Y-53597765D01*
X139997440Y-53350000D01*
X139997440Y-52373691D01*
X185615000Y-52373691D01*
X185615000Y-53464250D01*
X185773750Y-53623000D01*
X187373000Y-53623000D01*
X187373000Y-52023750D01*
X187627000Y-52023750D01*
X187627000Y-53623000D01*
X189226250Y-53623000D01*
X189385000Y-53464250D01*
X189385000Y-52373691D01*
X189288327Y-52140302D01*
X189109699Y-51961673D01*
X188876310Y-51865000D01*
X187785750Y-51865000D01*
X187627000Y-52023750D01*
X187373000Y-52023750D01*
X187214250Y-51865000D01*
X186123690Y-51865000D01*
X185890301Y-51961673D01*
X185711673Y-52140302D01*
X185615000Y-52373691D01*
X139997440Y-52373691D01*
X139997440Y-51650000D01*
X139948157Y-51402235D01*
X139807809Y-51192191D01*
X139597765Y-51051843D01*
X139350000Y-51002560D01*
X137650000Y-51002560D01*
X137402235Y-51051843D01*
X137192191Y-51192191D01*
X137051843Y-51402235D01*
X137042816Y-51447619D01*
X137030625Y-51429375D01*
X136539418Y-51101161D01*
X136106256Y-51015000D01*
X135813744Y-51015000D01*
X135380582Y-51101161D01*
X134889375Y-51429375D01*
X134676157Y-51748478D01*
X134615183Y-51618642D01*
X134186924Y-51228355D01*
X133776890Y-51058524D01*
X133547000Y-51179845D01*
X133293000Y-51179845D01*
X133063110Y-51058524D01*
X132653076Y-51228355D01*
X132224817Y-51618642D01*
X132163843Y-51748478D01*
X131950625Y-51429375D01*
X131459418Y-51101161D01*
X131026256Y-51015000D01*
X130733744Y-51015000D01*
X130300582Y-51101161D01*
X129809375Y-51429375D01*
X129610000Y-51727761D01*
X129410625Y-51429375D01*
X128919418Y-51101161D01*
X128486256Y-51015000D01*
X128193744Y-51015000D01*
X127760582Y-51101161D01*
X127269375Y-51429375D01*
X127070000Y-51727761D01*
X126870625Y-51429375D01*
X126379418Y-51101161D01*
X125946256Y-51015000D01*
X125653744Y-51015000D01*
X125220582Y-51101161D01*
X124729375Y-51429375D01*
X124401161Y-51920582D01*
X124285908Y-52500000D01*
X121210000Y-52500000D01*
X121210000Y-50710000D01*
X192123000Y-50710000D01*
X192123000Y-106790000D01*
G36*
X165530500Y-57710108D02*
X165570392Y-57750000D01*
X165530500Y-57789892D01*
X165500000Y-57791806D01*
X165469500Y-57789892D01*
X165429608Y-57750000D01*
X165469500Y-57710108D01*
X165500000Y-57708194D01*
X165530500Y-57710108D01*
X165530500Y-57710108D01*
G37*
X165530500Y-57710108D02*
X165570392Y-57750000D01*
X165530500Y-57789892D01*
X165500000Y-57791806D01*
X165469500Y-57789892D01*
X165429608Y-57750000D01*
X165469500Y-57710108D01*
X165500000Y-57708194D01*
X165530500Y-57710108D01*
G04 #@! TD*
M02*
