M48
;DRILL file {KiCad (5.0.1)-3} date 11/12/2018 6:53:40 PM
;FORMAT={-:-/ absolute / inch / decimal}
FMAT,2
INCH,TZ
T1C0.0118
T2C0.0157
T3C0.0300
T4C0.0394
T5C0.0512
T6C0.0866
%
G90
G05
M72
T1
X6.4862Y-2.2539
X6.4862Y-2.2933
X6.5157Y-2.2736
X6.5453Y-2.2539
X6.5453Y-2.2933
X5.0028Y-2.565
X5.0028Y-2.6043
X5.0028Y-2.6437
X5.0028Y-2.6831
X5.0028Y-2.7224
X5.0421Y-2.565
X5.0421Y-2.6043
X5.0421Y-2.6437
X5.0421Y-2.6831
X5.0421Y-2.7224
X5.0815Y-2.565
X5.0815Y-2.6043
X5.0815Y-2.6437
X5.0815Y-2.6831
X5.0815Y-2.7224
X5.1209Y-2.565
X5.1209Y-2.6043
X5.1209Y-2.6437
X5.1209Y-2.6831
X5.1209Y-2.7224
X5.1602Y-2.565
X5.1602Y-2.6043
X5.1602Y-2.6437
X5.1602Y-2.6831
X5.1602Y-2.7224
T2
X4.7996Y-3.1165
X4.813Y-2.3819
X4.8524Y-3.4843
X5.0197Y-3.8189
X5.0787Y-3.3858
X5.1673Y-3.5039
X5.3528Y-2.1539
X5.3528Y-2.587
X5.5118Y-2.874
X5.6004Y-2.4114
X5.6004Y-2.6575
X5.6299Y-3.6122
X5.6299Y-3.9173
X5.6791Y-2.3819
X5.8858Y-2.5
X5.8858Y-2.5886
X6.0728Y-2.3327
X6.2205Y-3.7992
X6.25Y-2.7362
X6.25Y-3.1398
X6.25Y-3.2579
X6.2795Y-2.5886
X6.2795Y-3.5925
X6.3976Y-3.2579
X6.5354Y-3.0512
X6.6339Y-2.2736
X6.6732Y-3.7697
X6.7224Y-2.9134
X6.7323Y-2.5098
X6.7323Y-3.1693
X6.7323Y-3.5728
X6.9094Y-3.9567
X7.1949Y-3.0217
X7.1949Y-3.061
X7.1949Y-3.1299
X7.1949Y-3.1693
X7.6516Y-2.313
X7.6706Y-2.2671
X7.6706Y-2.3589
X7.7165Y-2.248
X7.7165Y-2.378
X7.7625Y-2.2671
X7.7625Y-2.3589
X7.7815Y-2.313
X5.7749Y-3.3596
X5.794Y-3.3136
X5.794Y-3.4055
X5.8399Y-3.2946
X5.8399Y-3.4245
X5.8858Y-3.3136
X5.8858Y-3.4055
X5.9049Y-3.3596
X7.6516Y-3.8878
X7.6706Y-3.8419
X7.6706Y-3.9337
X7.7165Y-3.8228
X7.7165Y-3.9528
X7.7625Y-3.8419
X7.7625Y-3.9337
X7.7815Y-3.8878
T3
X6.9533Y-3.3752
X6.9533Y-3.4752
X6.9783Y-3.4252
X7.0033Y-3.3752
X7.0033Y-3.4752
X6.9533Y-2.7059
X6.9533Y-2.8059
X6.9783Y-2.7559
X7.0033Y-2.7059
X7.0033Y-2.8059
T4
X4.9528Y-2.0669
X5.0528Y-2.0669
X5.1528Y-2.0669
X5.2528Y-2.0669
X5.3528Y-2.0669
X5.4528Y-2.0669
T5
X7.3819Y-2.1161
X7.3819Y-2.5098
X7.3819Y-2.9035
X7.3819Y-3.2972
X7.3819Y-3.6909
X7.3819Y-4.0846
T6
X5.8399Y-3.3596
X7.7165Y-3.8878
X7.7165Y-2.313
T0
M30
