G04 #@! TF.GenerationSoftware,KiCad,Pcbnew,(5.0.1)-3*
G04 #@! TF.CreationDate,2018-11-12T18:53:03-05:00*
G04 #@! TF.ProjectId,ESP32 Windlass,45535033322057696E646C6173732E6B,rev?*
G04 #@! TF.SameCoordinates,Original*
G04 #@! TF.FileFunction,Paste,Top*
G04 #@! TF.FilePolarity,Positive*
%FSLAX46Y46*%
G04 Gerber Fmt 4.6, Leading zero omitted, Abs format (unit mm)*
G04 Created by KiCad (PCBNEW (5.0.1)-3) date 11/12/2018 6:53:03 PM*
%MOMM*%
%LPD*%
G01*
G04 APERTURE LIST*
%ADD10R,2.650000X1.850000*%
%ADD11R,1.310000X0.450000*%
%ADD12C,0.100000*%
%ADD13C,1.425000*%
%ADD14R,1.600000X1.400000*%
%ADD15R,1.800000X3.500000*%
%ADD16R,1.000000X1.000000*%
%ADD17C,3.200000*%
%ADD18R,1.400000X0.300000*%
%ADD19O,0.900000X3.000000*%
%ADD20R,5.000000X5.000000*%
%ADD21O,0.230000X0.800000*%
%ADD22R,0.230000X0.230000*%
%ADD23R,1.050000X0.680000*%
%ADD24R,0.500000X0.260000*%
G04 APERTURE END LIST*
D10*
G04 #@! TO.C,U1*
X177250000Y-71075000D03*
X177250000Y-68925000D03*
D11*
X180100000Y-68050000D03*
X180100000Y-68700000D03*
X180100000Y-69350000D03*
X180100000Y-70000000D03*
X180100000Y-70650000D03*
X180100000Y-71300000D03*
X180100000Y-71950000D03*
X174400000Y-71950000D03*
X174400000Y-71300000D03*
X174400000Y-70650000D03*
X174405000Y-70000000D03*
X174400000Y-69350000D03*
X174400000Y-68700000D03*
X174400000Y-68050000D03*
G04 #@! TD*
G04 #@! TO.C,U2*
X174400000Y-85050000D03*
X174400000Y-85700000D03*
X174400000Y-86350000D03*
X174405000Y-87000000D03*
X174400000Y-87650000D03*
X174400000Y-88300000D03*
X174400000Y-88950000D03*
X180100000Y-88950000D03*
X180100000Y-88300000D03*
X180100000Y-87650000D03*
X180100000Y-87000000D03*
X180100000Y-86350000D03*
X180100000Y-85700000D03*
X180100000Y-85050000D03*
D10*
X177250000Y-85925000D03*
X177250000Y-88075000D03*
G04 #@! TD*
D12*
G04 #@! TO.C,C1*
G36*
X126149504Y-87551204D02*
X126173773Y-87554804D01*
X126197571Y-87560765D01*
X126220671Y-87569030D01*
X126242849Y-87579520D01*
X126263893Y-87592133D01*
X126283598Y-87606747D01*
X126301777Y-87623223D01*
X126318253Y-87641402D01*
X126332867Y-87661107D01*
X126345480Y-87682151D01*
X126355970Y-87704329D01*
X126364235Y-87727429D01*
X126370196Y-87751227D01*
X126373796Y-87775496D01*
X126375000Y-87800000D01*
X126375000Y-88725000D01*
X126373796Y-88749504D01*
X126370196Y-88773773D01*
X126364235Y-88797571D01*
X126355970Y-88820671D01*
X126345480Y-88842849D01*
X126332867Y-88863893D01*
X126318253Y-88883598D01*
X126301777Y-88901777D01*
X126283598Y-88918253D01*
X126263893Y-88932867D01*
X126242849Y-88945480D01*
X126220671Y-88955970D01*
X126197571Y-88964235D01*
X126173773Y-88970196D01*
X126149504Y-88973796D01*
X126125000Y-88975000D01*
X124875000Y-88975000D01*
X124850496Y-88973796D01*
X124826227Y-88970196D01*
X124802429Y-88964235D01*
X124779329Y-88955970D01*
X124757151Y-88945480D01*
X124736107Y-88932867D01*
X124716402Y-88918253D01*
X124698223Y-88901777D01*
X124681747Y-88883598D01*
X124667133Y-88863893D01*
X124654520Y-88842849D01*
X124644030Y-88820671D01*
X124635765Y-88797571D01*
X124629804Y-88773773D01*
X124626204Y-88749504D01*
X124625000Y-88725000D01*
X124625000Y-87800000D01*
X124626204Y-87775496D01*
X124629804Y-87751227D01*
X124635765Y-87727429D01*
X124644030Y-87704329D01*
X124654520Y-87682151D01*
X124667133Y-87661107D01*
X124681747Y-87641402D01*
X124698223Y-87623223D01*
X124716402Y-87606747D01*
X124736107Y-87592133D01*
X124757151Y-87579520D01*
X124779329Y-87569030D01*
X124802429Y-87560765D01*
X124826227Y-87554804D01*
X124850496Y-87551204D01*
X124875000Y-87550000D01*
X126125000Y-87550000D01*
X126149504Y-87551204D01*
X126149504Y-87551204D01*
G37*
D13*
X125500000Y-88262500D03*
D12*
G36*
X126149504Y-90526204D02*
X126173773Y-90529804D01*
X126197571Y-90535765D01*
X126220671Y-90544030D01*
X126242849Y-90554520D01*
X126263893Y-90567133D01*
X126283598Y-90581747D01*
X126301777Y-90598223D01*
X126318253Y-90616402D01*
X126332867Y-90636107D01*
X126345480Y-90657151D01*
X126355970Y-90679329D01*
X126364235Y-90702429D01*
X126370196Y-90726227D01*
X126373796Y-90750496D01*
X126375000Y-90775000D01*
X126375000Y-91700000D01*
X126373796Y-91724504D01*
X126370196Y-91748773D01*
X126364235Y-91772571D01*
X126355970Y-91795671D01*
X126345480Y-91817849D01*
X126332867Y-91838893D01*
X126318253Y-91858598D01*
X126301777Y-91876777D01*
X126283598Y-91893253D01*
X126263893Y-91907867D01*
X126242849Y-91920480D01*
X126220671Y-91930970D01*
X126197571Y-91939235D01*
X126173773Y-91945196D01*
X126149504Y-91948796D01*
X126125000Y-91950000D01*
X124875000Y-91950000D01*
X124850496Y-91948796D01*
X124826227Y-91945196D01*
X124802429Y-91939235D01*
X124779329Y-91930970D01*
X124757151Y-91920480D01*
X124736107Y-91907867D01*
X124716402Y-91893253D01*
X124698223Y-91876777D01*
X124681747Y-91858598D01*
X124667133Y-91838893D01*
X124654520Y-91817849D01*
X124644030Y-91795671D01*
X124635765Y-91772571D01*
X124629804Y-91748773D01*
X124626204Y-91724504D01*
X124625000Y-91700000D01*
X124625000Y-90775000D01*
X124626204Y-90750496D01*
X124629804Y-90726227D01*
X124635765Y-90702429D01*
X124644030Y-90679329D01*
X124654520Y-90657151D01*
X124667133Y-90636107D01*
X124681747Y-90616402D01*
X124698223Y-90598223D01*
X124716402Y-90581747D01*
X124736107Y-90567133D01*
X124757151Y-90554520D01*
X124779329Y-90544030D01*
X124802429Y-90535765D01*
X124826227Y-90529804D01*
X124850496Y-90526204D01*
X124875000Y-90525000D01*
X126125000Y-90525000D01*
X126149504Y-90526204D01*
X126149504Y-90526204D01*
G37*
D13*
X125500000Y-91237500D03*
G04 #@! TD*
D14*
G04 #@! TO.C,K1*
X131000000Y-94000000D03*
X123800000Y-94000000D03*
X131000000Y-97000000D03*
X123800000Y-97000000D03*
G04 #@! TD*
D12*
G04 #@! TO.C,C14*
G36*
X154899504Y-54063704D02*
X154923773Y-54067304D01*
X154947571Y-54073265D01*
X154970671Y-54081530D01*
X154992849Y-54092020D01*
X155013893Y-54104633D01*
X155033598Y-54119247D01*
X155051777Y-54135723D01*
X155068253Y-54153902D01*
X155082867Y-54173607D01*
X155095480Y-54194651D01*
X155105970Y-54216829D01*
X155114235Y-54239929D01*
X155120196Y-54263727D01*
X155123796Y-54287996D01*
X155125000Y-54312500D01*
X155125000Y-55237500D01*
X155123796Y-55262004D01*
X155120196Y-55286273D01*
X155114235Y-55310071D01*
X155105970Y-55333171D01*
X155095480Y-55355349D01*
X155082867Y-55376393D01*
X155068253Y-55396098D01*
X155051777Y-55414277D01*
X155033598Y-55430753D01*
X155013893Y-55445367D01*
X154992849Y-55457980D01*
X154970671Y-55468470D01*
X154947571Y-55476735D01*
X154923773Y-55482696D01*
X154899504Y-55486296D01*
X154875000Y-55487500D01*
X153625000Y-55487500D01*
X153600496Y-55486296D01*
X153576227Y-55482696D01*
X153552429Y-55476735D01*
X153529329Y-55468470D01*
X153507151Y-55457980D01*
X153486107Y-55445367D01*
X153466402Y-55430753D01*
X153448223Y-55414277D01*
X153431747Y-55396098D01*
X153417133Y-55376393D01*
X153404520Y-55355349D01*
X153394030Y-55333171D01*
X153385765Y-55310071D01*
X153379804Y-55286273D01*
X153376204Y-55262004D01*
X153375000Y-55237500D01*
X153375000Y-54312500D01*
X153376204Y-54287996D01*
X153379804Y-54263727D01*
X153385765Y-54239929D01*
X153394030Y-54216829D01*
X153404520Y-54194651D01*
X153417133Y-54173607D01*
X153431747Y-54153902D01*
X153448223Y-54135723D01*
X153466402Y-54119247D01*
X153486107Y-54104633D01*
X153507151Y-54092020D01*
X153529329Y-54081530D01*
X153552429Y-54073265D01*
X153576227Y-54067304D01*
X153600496Y-54063704D01*
X153625000Y-54062500D01*
X154875000Y-54062500D01*
X154899504Y-54063704D01*
X154899504Y-54063704D01*
G37*
D13*
X154250000Y-54775000D03*
D12*
G36*
X154899504Y-57038704D02*
X154923773Y-57042304D01*
X154947571Y-57048265D01*
X154970671Y-57056530D01*
X154992849Y-57067020D01*
X155013893Y-57079633D01*
X155033598Y-57094247D01*
X155051777Y-57110723D01*
X155068253Y-57128902D01*
X155082867Y-57148607D01*
X155095480Y-57169651D01*
X155105970Y-57191829D01*
X155114235Y-57214929D01*
X155120196Y-57238727D01*
X155123796Y-57262996D01*
X155125000Y-57287500D01*
X155125000Y-58212500D01*
X155123796Y-58237004D01*
X155120196Y-58261273D01*
X155114235Y-58285071D01*
X155105970Y-58308171D01*
X155095480Y-58330349D01*
X155082867Y-58351393D01*
X155068253Y-58371098D01*
X155051777Y-58389277D01*
X155033598Y-58405753D01*
X155013893Y-58420367D01*
X154992849Y-58432980D01*
X154970671Y-58443470D01*
X154947571Y-58451735D01*
X154923773Y-58457696D01*
X154899504Y-58461296D01*
X154875000Y-58462500D01*
X153625000Y-58462500D01*
X153600496Y-58461296D01*
X153576227Y-58457696D01*
X153552429Y-58451735D01*
X153529329Y-58443470D01*
X153507151Y-58432980D01*
X153486107Y-58420367D01*
X153466402Y-58405753D01*
X153448223Y-58389277D01*
X153431747Y-58371098D01*
X153417133Y-58351393D01*
X153404520Y-58330349D01*
X153394030Y-58308171D01*
X153385765Y-58285071D01*
X153379804Y-58261273D01*
X153376204Y-58237004D01*
X153375000Y-58212500D01*
X153375000Y-57287500D01*
X153376204Y-57262996D01*
X153379804Y-57238727D01*
X153385765Y-57214929D01*
X153394030Y-57191829D01*
X153404520Y-57169651D01*
X153417133Y-57148607D01*
X153431747Y-57128902D01*
X153448223Y-57110723D01*
X153466402Y-57094247D01*
X153486107Y-57079633D01*
X153507151Y-57067020D01*
X153529329Y-57056530D01*
X153552429Y-57048265D01*
X153576227Y-57042304D01*
X153600496Y-57038704D01*
X153625000Y-57037500D01*
X154875000Y-57037500D01*
X154899504Y-57038704D01*
X154899504Y-57038704D01*
G37*
D13*
X154250000Y-57750000D03*
G04 #@! TD*
D12*
G04 #@! TO.C,C12*
G36*
X174158635Y-54002580D02*
X174182904Y-54006180D01*
X174206702Y-54012141D01*
X174229802Y-54020406D01*
X174251980Y-54030896D01*
X174273024Y-54043509D01*
X174292729Y-54058123D01*
X174310908Y-54074599D01*
X174327384Y-54092778D01*
X174341998Y-54112483D01*
X174354611Y-54133527D01*
X174365101Y-54155705D01*
X174373366Y-54178805D01*
X174379327Y-54202603D01*
X174382927Y-54226872D01*
X174384131Y-54251376D01*
X174384131Y-55176376D01*
X174382927Y-55200880D01*
X174379327Y-55225149D01*
X174373366Y-55248947D01*
X174365101Y-55272047D01*
X174354611Y-55294225D01*
X174341998Y-55315269D01*
X174327384Y-55334974D01*
X174310908Y-55353153D01*
X174292729Y-55369629D01*
X174273024Y-55384243D01*
X174251980Y-55396856D01*
X174229802Y-55407346D01*
X174206702Y-55415611D01*
X174182904Y-55421572D01*
X174158635Y-55425172D01*
X174134131Y-55426376D01*
X172884131Y-55426376D01*
X172859627Y-55425172D01*
X172835358Y-55421572D01*
X172811560Y-55415611D01*
X172788460Y-55407346D01*
X172766282Y-55396856D01*
X172745238Y-55384243D01*
X172725533Y-55369629D01*
X172707354Y-55353153D01*
X172690878Y-55334974D01*
X172676264Y-55315269D01*
X172663651Y-55294225D01*
X172653161Y-55272047D01*
X172644896Y-55248947D01*
X172638935Y-55225149D01*
X172635335Y-55200880D01*
X172634131Y-55176376D01*
X172634131Y-54251376D01*
X172635335Y-54226872D01*
X172638935Y-54202603D01*
X172644896Y-54178805D01*
X172653161Y-54155705D01*
X172663651Y-54133527D01*
X172676264Y-54112483D01*
X172690878Y-54092778D01*
X172707354Y-54074599D01*
X172725533Y-54058123D01*
X172745238Y-54043509D01*
X172766282Y-54030896D01*
X172788460Y-54020406D01*
X172811560Y-54012141D01*
X172835358Y-54006180D01*
X172859627Y-54002580D01*
X172884131Y-54001376D01*
X174134131Y-54001376D01*
X174158635Y-54002580D01*
X174158635Y-54002580D01*
G37*
D13*
X173509131Y-54713876D03*
D12*
G36*
X174158635Y-56977580D02*
X174182904Y-56981180D01*
X174206702Y-56987141D01*
X174229802Y-56995406D01*
X174251980Y-57005896D01*
X174273024Y-57018509D01*
X174292729Y-57033123D01*
X174310908Y-57049599D01*
X174327384Y-57067778D01*
X174341998Y-57087483D01*
X174354611Y-57108527D01*
X174365101Y-57130705D01*
X174373366Y-57153805D01*
X174379327Y-57177603D01*
X174382927Y-57201872D01*
X174384131Y-57226376D01*
X174384131Y-58151376D01*
X174382927Y-58175880D01*
X174379327Y-58200149D01*
X174373366Y-58223947D01*
X174365101Y-58247047D01*
X174354611Y-58269225D01*
X174341998Y-58290269D01*
X174327384Y-58309974D01*
X174310908Y-58328153D01*
X174292729Y-58344629D01*
X174273024Y-58359243D01*
X174251980Y-58371856D01*
X174229802Y-58382346D01*
X174206702Y-58390611D01*
X174182904Y-58396572D01*
X174158635Y-58400172D01*
X174134131Y-58401376D01*
X172884131Y-58401376D01*
X172859627Y-58400172D01*
X172835358Y-58396572D01*
X172811560Y-58390611D01*
X172788460Y-58382346D01*
X172766282Y-58371856D01*
X172745238Y-58359243D01*
X172725533Y-58344629D01*
X172707354Y-58328153D01*
X172690878Y-58309974D01*
X172676264Y-58290269D01*
X172663651Y-58269225D01*
X172653161Y-58247047D01*
X172644896Y-58223947D01*
X172638935Y-58200149D01*
X172635335Y-58175880D01*
X172634131Y-58151376D01*
X172634131Y-57226376D01*
X172635335Y-57201872D01*
X172638935Y-57177603D01*
X172644896Y-57153805D01*
X172653161Y-57130705D01*
X172663651Y-57108527D01*
X172676264Y-57087483D01*
X172690878Y-57067778D01*
X172707354Y-57049599D01*
X172725533Y-57033123D01*
X172745238Y-57018509D01*
X172766282Y-57005896D01*
X172788460Y-56995406D01*
X172811560Y-56987141D01*
X172835358Y-56981180D01*
X172859627Y-56977580D01*
X172884131Y-56976376D01*
X174134131Y-56976376D01*
X174158635Y-56977580D01*
X174158635Y-56977580D01*
G37*
D13*
X173509131Y-57688876D03*
G04 #@! TD*
D12*
G04 #@! TO.C,C11*
G36*
X171158635Y-56977580D02*
X171182904Y-56981180D01*
X171206702Y-56987141D01*
X171229802Y-56995406D01*
X171251980Y-57005896D01*
X171273024Y-57018509D01*
X171292729Y-57033123D01*
X171310908Y-57049599D01*
X171327384Y-57067778D01*
X171341998Y-57087483D01*
X171354611Y-57108527D01*
X171365101Y-57130705D01*
X171373366Y-57153805D01*
X171379327Y-57177603D01*
X171382927Y-57201872D01*
X171384131Y-57226376D01*
X171384131Y-58151376D01*
X171382927Y-58175880D01*
X171379327Y-58200149D01*
X171373366Y-58223947D01*
X171365101Y-58247047D01*
X171354611Y-58269225D01*
X171341998Y-58290269D01*
X171327384Y-58309974D01*
X171310908Y-58328153D01*
X171292729Y-58344629D01*
X171273024Y-58359243D01*
X171251980Y-58371856D01*
X171229802Y-58382346D01*
X171206702Y-58390611D01*
X171182904Y-58396572D01*
X171158635Y-58400172D01*
X171134131Y-58401376D01*
X169884131Y-58401376D01*
X169859627Y-58400172D01*
X169835358Y-58396572D01*
X169811560Y-58390611D01*
X169788460Y-58382346D01*
X169766282Y-58371856D01*
X169745238Y-58359243D01*
X169725533Y-58344629D01*
X169707354Y-58328153D01*
X169690878Y-58309974D01*
X169676264Y-58290269D01*
X169663651Y-58269225D01*
X169653161Y-58247047D01*
X169644896Y-58223947D01*
X169638935Y-58200149D01*
X169635335Y-58175880D01*
X169634131Y-58151376D01*
X169634131Y-57226376D01*
X169635335Y-57201872D01*
X169638935Y-57177603D01*
X169644896Y-57153805D01*
X169653161Y-57130705D01*
X169663651Y-57108527D01*
X169676264Y-57087483D01*
X169690878Y-57067778D01*
X169707354Y-57049599D01*
X169725533Y-57033123D01*
X169745238Y-57018509D01*
X169766282Y-57005896D01*
X169788460Y-56995406D01*
X169811560Y-56987141D01*
X169835358Y-56981180D01*
X169859627Y-56977580D01*
X169884131Y-56976376D01*
X171134131Y-56976376D01*
X171158635Y-56977580D01*
X171158635Y-56977580D01*
G37*
D13*
X170509131Y-57688876D03*
D12*
G36*
X171158635Y-54002580D02*
X171182904Y-54006180D01*
X171206702Y-54012141D01*
X171229802Y-54020406D01*
X171251980Y-54030896D01*
X171273024Y-54043509D01*
X171292729Y-54058123D01*
X171310908Y-54074599D01*
X171327384Y-54092778D01*
X171341998Y-54112483D01*
X171354611Y-54133527D01*
X171365101Y-54155705D01*
X171373366Y-54178805D01*
X171379327Y-54202603D01*
X171382927Y-54226872D01*
X171384131Y-54251376D01*
X171384131Y-55176376D01*
X171382927Y-55200880D01*
X171379327Y-55225149D01*
X171373366Y-55248947D01*
X171365101Y-55272047D01*
X171354611Y-55294225D01*
X171341998Y-55315269D01*
X171327384Y-55334974D01*
X171310908Y-55353153D01*
X171292729Y-55369629D01*
X171273024Y-55384243D01*
X171251980Y-55396856D01*
X171229802Y-55407346D01*
X171206702Y-55415611D01*
X171182904Y-55421572D01*
X171158635Y-55425172D01*
X171134131Y-55426376D01*
X169884131Y-55426376D01*
X169859627Y-55425172D01*
X169835358Y-55421572D01*
X169811560Y-55415611D01*
X169788460Y-55407346D01*
X169766282Y-55396856D01*
X169745238Y-55384243D01*
X169725533Y-55369629D01*
X169707354Y-55353153D01*
X169690878Y-55334974D01*
X169676264Y-55315269D01*
X169663651Y-55294225D01*
X169653161Y-55272047D01*
X169644896Y-55248947D01*
X169638935Y-55225149D01*
X169635335Y-55200880D01*
X169634131Y-55176376D01*
X169634131Y-54251376D01*
X169635335Y-54226872D01*
X169638935Y-54202603D01*
X169644896Y-54178805D01*
X169653161Y-54155705D01*
X169663651Y-54133527D01*
X169676264Y-54112483D01*
X169690878Y-54092778D01*
X169707354Y-54074599D01*
X169725533Y-54058123D01*
X169745238Y-54043509D01*
X169766282Y-54030896D01*
X169788460Y-54020406D01*
X169811560Y-54012141D01*
X169835358Y-54006180D01*
X169859627Y-54002580D01*
X169884131Y-54001376D01*
X171134131Y-54001376D01*
X171158635Y-54002580D01*
X171158635Y-54002580D01*
G37*
D13*
X170509131Y-54713876D03*
G04 #@! TD*
D12*
G04 #@! TO.C,C10*
G36*
X164987004Y-77876204D02*
X165011273Y-77879804D01*
X165035071Y-77885765D01*
X165058171Y-77894030D01*
X165080349Y-77904520D01*
X165101393Y-77917133D01*
X165121098Y-77931747D01*
X165139277Y-77948223D01*
X165155753Y-77966402D01*
X165170367Y-77986107D01*
X165182980Y-78007151D01*
X165193470Y-78029329D01*
X165201735Y-78052429D01*
X165207696Y-78076227D01*
X165211296Y-78100496D01*
X165212500Y-78125000D01*
X165212500Y-79375000D01*
X165211296Y-79399504D01*
X165207696Y-79423773D01*
X165201735Y-79447571D01*
X165193470Y-79470671D01*
X165182980Y-79492849D01*
X165170367Y-79513893D01*
X165155753Y-79533598D01*
X165139277Y-79551777D01*
X165121098Y-79568253D01*
X165101393Y-79582867D01*
X165080349Y-79595480D01*
X165058171Y-79605970D01*
X165035071Y-79614235D01*
X165011273Y-79620196D01*
X164987004Y-79623796D01*
X164962500Y-79625000D01*
X164037500Y-79625000D01*
X164012996Y-79623796D01*
X163988727Y-79620196D01*
X163964929Y-79614235D01*
X163941829Y-79605970D01*
X163919651Y-79595480D01*
X163898607Y-79582867D01*
X163878902Y-79568253D01*
X163860723Y-79551777D01*
X163844247Y-79533598D01*
X163829633Y-79513893D01*
X163817020Y-79492849D01*
X163806530Y-79470671D01*
X163798265Y-79447571D01*
X163792304Y-79423773D01*
X163788704Y-79399504D01*
X163787500Y-79375000D01*
X163787500Y-78125000D01*
X163788704Y-78100496D01*
X163792304Y-78076227D01*
X163798265Y-78052429D01*
X163806530Y-78029329D01*
X163817020Y-78007151D01*
X163829633Y-77986107D01*
X163844247Y-77966402D01*
X163860723Y-77948223D01*
X163878902Y-77931747D01*
X163898607Y-77917133D01*
X163919651Y-77904520D01*
X163941829Y-77894030D01*
X163964929Y-77885765D01*
X163988727Y-77879804D01*
X164012996Y-77876204D01*
X164037500Y-77875000D01*
X164962500Y-77875000D01*
X164987004Y-77876204D01*
X164987004Y-77876204D01*
G37*
D13*
X164500000Y-78750000D03*
D12*
G36*
X162012004Y-77876204D02*
X162036273Y-77879804D01*
X162060071Y-77885765D01*
X162083171Y-77894030D01*
X162105349Y-77904520D01*
X162126393Y-77917133D01*
X162146098Y-77931747D01*
X162164277Y-77948223D01*
X162180753Y-77966402D01*
X162195367Y-77986107D01*
X162207980Y-78007151D01*
X162218470Y-78029329D01*
X162226735Y-78052429D01*
X162232696Y-78076227D01*
X162236296Y-78100496D01*
X162237500Y-78125000D01*
X162237500Y-79375000D01*
X162236296Y-79399504D01*
X162232696Y-79423773D01*
X162226735Y-79447571D01*
X162218470Y-79470671D01*
X162207980Y-79492849D01*
X162195367Y-79513893D01*
X162180753Y-79533598D01*
X162164277Y-79551777D01*
X162146098Y-79568253D01*
X162126393Y-79582867D01*
X162105349Y-79595480D01*
X162083171Y-79605970D01*
X162060071Y-79614235D01*
X162036273Y-79620196D01*
X162012004Y-79623796D01*
X161987500Y-79625000D01*
X161062500Y-79625000D01*
X161037996Y-79623796D01*
X161013727Y-79620196D01*
X160989929Y-79614235D01*
X160966829Y-79605970D01*
X160944651Y-79595480D01*
X160923607Y-79582867D01*
X160903902Y-79568253D01*
X160885723Y-79551777D01*
X160869247Y-79533598D01*
X160854633Y-79513893D01*
X160842020Y-79492849D01*
X160831530Y-79470671D01*
X160823265Y-79447571D01*
X160817304Y-79423773D01*
X160813704Y-79399504D01*
X160812500Y-79375000D01*
X160812500Y-78125000D01*
X160813704Y-78100496D01*
X160817304Y-78076227D01*
X160823265Y-78052429D01*
X160831530Y-78029329D01*
X160842020Y-78007151D01*
X160854633Y-77986107D01*
X160869247Y-77966402D01*
X160885723Y-77948223D01*
X160903902Y-77931747D01*
X160923607Y-77917133D01*
X160944651Y-77904520D01*
X160966829Y-77894030D01*
X160989929Y-77885765D01*
X161013727Y-77879804D01*
X161037996Y-77876204D01*
X161062500Y-77875000D01*
X161987500Y-77875000D01*
X162012004Y-77876204D01*
X162012004Y-77876204D01*
G37*
D13*
X161525000Y-78750000D03*
G04 #@! TD*
D12*
G04 #@! TO.C,C9*
G36*
X161999504Y-75376204D02*
X162023773Y-75379804D01*
X162047571Y-75385765D01*
X162070671Y-75394030D01*
X162092849Y-75404520D01*
X162113893Y-75417133D01*
X162133598Y-75431747D01*
X162151777Y-75448223D01*
X162168253Y-75466402D01*
X162182867Y-75486107D01*
X162195480Y-75507151D01*
X162205970Y-75529329D01*
X162214235Y-75552429D01*
X162220196Y-75576227D01*
X162223796Y-75600496D01*
X162225000Y-75625000D01*
X162225000Y-76875000D01*
X162223796Y-76899504D01*
X162220196Y-76923773D01*
X162214235Y-76947571D01*
X162205970Y-76970671D01*
X162195480Y-76992849D01*
X162182867Y-77013893D01*
X162168253Y-77033598D01*
X162151777Y-77051777D01*
X162133598Y-77068253D01*
X162113893Y-77082867D01*
X162092849Y-77095480D01*
X162070671Y-77105970D01*
X162047571Y-77114235D01*
X162023773Y-77120196D01*
X161999504Y-77123796D01*
X161975000Y-77125000D01*
X161050000Y-77125000D01*
X161025496Y-77123796D01*
X161001227Y-77120196D01*
X160977429Y-77114235D01*
X160954329Y-77105970D01*
X160932151Y-77095480D01*
X160911107Y-77082867D01*
X160891402Y-77068253D01*
X160873223Y-77051777D01*
X160856747Y-77033598D01*
X160842133Y-77013893D01*
X160829520Y-76992849D01*
X160819030Y-76970671D01*
X160810765Y-76947571D01*
X160804804Y-76923773D01*
X160801204Y-76899504D01*
X160800000Y-76875000D01*
X160800000Y-75625000D01*
X160801204Y-75600496D01*
X160804804Y-75576227D01*
X160810765Y-75552429D01*
X160819030Y-75529329D01*
X160829520Y-75507151D01*
X160842133Y-75486107D01*
X160856747Y-75466402D01*
X160873223Y-75448223D01*
X160891402Y-75431747D01*
X160911107Y-75417133D01*
X160932151Y-75404520D01*
X160954329Y-75394030D01*
X160977429Y-75385765D01*
X161001227Y-75379804D01*
X161025496Y-75376204D01*
X161050000Y-75375000D01*
X161975000Y-75375000D01*
X161999504Y-75376204D01*
X161999504Y-75376204D01*
G37*
D13*
X161512500Y-76250000D03*
D12*
G36*
X164974504Y-75376204D02*
X164998773Y-75379804D01*
X165022571Y-75385765D01*
X165045671Y-75394030D01*
X165067849Y-75404520D01*
X165088893Y-75417133D01*
X165108598Y-75431747D01*
X165126777Y-75448223D01*
X165143253Y-75466402D01*
X165157867Y-75486107D01*
X165170480Y-75507151D01*
X165180970Y-75529329D01*
X165189235Y-75552429D01*
X165195196Y-75576227D01*
X165198796Y-75600496D01*
X165200000Y-75625000D01*
X165200000Y-76875000D01*
X165198796Y-76899504D01*
X165195196Y-76923773D01*
X165189235Y-76947571D01*
X165180970Y-76970671D01*
X165170480Y-76992849D01*
X165157867Y-77013893D01*
X165143253Y-77033598D01*
X165126777Y-77051777D01*
X165108598Y-77068253D01*
X165088893Y-77082867D01*
X165067849Y-77095480D01*
X165045671Y-77105970D01*
X165022571Y-77114235D01*
X164998773Y-77120196D01*
X164974504Y-77123796D01*
X164950000Y-77125000D01*
X164025000Y-77125000D01*
X164000496Y-77123796D01*
X163976227Y-77120196D01*
X163952429Y-77114235D01*
X163929329Y-77105970D01*
X163907151Y-77095480D01*
X163886107Y-77082867D01*
X163866402Y-77068253D01*
X163848223Y-77051777D01*
X163831747Y-77033598D01*
X163817133Y-77013893D01*
X163804520Y-76992849D01*
X163794030Y-76970671D01*
X163785765Y-76947571D01*
X163779804Y-76923773D01*
X163776204Y-76899504D01*
X163775000Y-76875000D01*
X163775000Y-75625000D01*
X163776204Y-75600496D01*
X163779804Y-75576227D01*
X163785765Y-75552429D01*
X163794030Y-75529329D01*
X163804520Y-75507151D01*
X163817133Y-75486107D01*
X163831747Y-75466402D01*
X163848223Y-75448223D01*
X163866402Y-75431747D01*
X163886107Y-75417133D01*
X163907151Y-75404520D01*
X163929329Y-75394030D01*
X163952429Y-75385765D01*
X163976227Y-75379804D01*
X164000496Y-75376204D01*
X164025000Y-75375000D01*
X164950000Y-75375000D01*
X164974504Y-75376204D01*
X164974504Y-75376204D01*
G37*
D13*
X164487500Y-76250000D03*
G04 #@! TD*
D12*
G04 #@! TO.C,C8*
G36*
X181649504Y-79288704D02*
X181673773Y-79292304D01*
X181697571Y-79298265D01*
X181720671Y-79306530D01*
X181742849Y-79317020D01*
X181763893Y-79329633D01*
X181783598Y-79344247D01*
X181801777Y-79360723D01*
X181818253Y-79378902D01*
X181832867Y-79398607D01*
X181845480Y-79419651D01*
X181855970Y-79441829D01*
X181864235Y-79464929D01*
X181870196Y-79488727D01*
X181873796Y-79512996D01*
X181875000Y-79537500D01*
X181875000Y-80462500D01*
X181873796Y-80487004D01*
X181870196Y-80511273D01*
X181864235Y-80535071D01*
X181855970Y-80558171D01*
X181845480Y-80580349D01*
X181832867Y-80601393D01*
X181818253Y-80621098D01*
X181801777Y-80639277D01*
X181783598Y-80655753D01*
X181763893Y-80670367D01*
X181742849Y-80682980D01*
X181720671Y-80693470D01*
X181697571Y-80701735D01*
X181673773Y-80707696D01*
X181649504Y-80711296D01*
X181625000Y-80712500D01*
X180375000Y-80712500D01*
X180350496Y-80711296D01*
X180326227Y-80707696D01*
X180302429Y-80701735D01*
X180279329Y-80693470D01*
X180257151Y-80682980D01*
X180236107Y-80670367D01*
X180216402Y-80655753D01*
X180198223Y-80639277D01*
X180181747Y-80621098D01*
X180167133Y-80601393D01*
X180154520Y-80580349D01*
X180144030Y-80558171D01*
X180135765Y-80535071D01*
X180129804Y-80511273D01*
X180126204Y-80487004D01*
X180125000Y-80462500D01*
X180125000Y-79537500D01*
X180126204Y-79512996D01*
X180129804Y-79488727D01*
X180135765Y-79464929D01*
X180144030Y-79441829D01*
X180154520Y-79419651D01*
X180167133Y-79398607D01*
X180181747Y-79378902D01*
X180198223Y-79360723D01*
X180216402Y-79344247D01*
X180236107Y-79329633D01*
X180257151Y-79317020D01*
X180279329Y-79306530D01*
X180302429Y-79298265D01*
X180326227Y-79292304D01*
X180350496Y-79288704D01*
X180375000Y-79287500D01*
X181625000Y-79287500D01*
X181649504Y-79288704D01*
X181649504Y-79288704D01*
G37*
D13*
X181000000Y-80000000D03*
D12*
G36*
X181649504Y-82263704D02*
X181673773Y-82267304D01*
X181697571Y-82273265D01*
X181720671Y-82281530D01*
X181742849Y-82292020D01*
X181763893Y-82304633D01*
X181783598Y-82319247D01*
X181801777Y-82335723D01*
X181818253Y-82353902D01*
X181832867Y-82373607D01*
X181845480Y-82394651D01*
X181855970Y-82416829D01*
X181864235Y-82439929D01*
X181870196Y-82463727D01*
X181873796Y-82487996D01*
X181875000Y-82512500D01*
X181875000Y-83437500D01*
X181873796Y-83462004D01*
X181870196Y-83486273D01*
X181864235Y-83510071D01*
X181855970Y-83533171D01*
X181845480Y-83555349D01*
X181832867Y-83576393D01*
X181818253Y-83596098D01*
X181801777Y-83614277D01*
X181783598Y-83630753D01*
X181763893Y-83645367D01*
X181742849Y-83657980D01*
X181720671Y-83668470D01*
X181697571Y-83676735D01*
X181673773Y-83682696D01*
X181649504Y-83686296D01*
X181625000Y-83687500D01*
X180375000Y-83687500D01*
X180350496Y-83686296D01*
X180326227Y-83682696D01*
X180302429Y-83676735D01*
X180279329Y-83668470D01*
X180257151Y-83657980D01*
X180236107Y-83645367D01*
X180216402Y-83630753D01*
X180198223Y-83614277D01*
X180181747Y-83596098D01*
X180167133Y-83576393D01*
X180154520Y-83555349D01*
X180144030Y-83533171D01*
X180135765Y-83510071D01*
X180129804Y-83486273D01*
X180126204Y-83462004D01*
X180125000Y-83437500D01*
X180125000Y-82512500D01*
X180126204Y-82487996D01*
X180129804Y-82463727D01*
X180135765Y-82439929D01*
X180144030Y-82416829D01*
X180154520Y-82394651D01*
X180167133Y-82373607D01*
X180181747Y-82353902D01*
X180198223Y-82335723D01*
X180216402Y-82319247D01*
X180236107Y-82304633D01*
X180257151Y-82292020D01*
X180279329Y-82281530D01*
X180302429Y-82273265D01*
X180326227Y-82267304D01*
X180350496Y-82263704D01*
X180375000Y-82262500D01*
X181625000Y-82262500D01*
X181649504Y-82263704D01*
X181649504Y-82263704D01*
G37*
D13*
X181000000Y-82975000D03*
G04 #@! TD*
D12*
G04 #@! TO.C,C7*
G36*
X181649504Y-73563704D02*
X181673773Y-73567304D01*
X181697571Y-73573265D01*
X181720671Y-73581530D01*
X181742849Y-73592020D01*
X181763893Y-73604633D01*
X181783598Y-73619247D01*
X181801777Y-73635723D01*
X181818253Y-73653902D01*
X181832867Y-73673607D01*
X181845480Y-73694651D01*
X181855970Y-73716829D01*
X181864235Y-73739929D01*
X181870196Y-73763727D01*
X181873796Y-73787996D01*
X181875000Y-73812500D01*
X181875000Y-74737500D01*
X181873796Y-74762004D01*
X181870196Y-74786273D01*
X181864235Y-74810071D01*
X181855970Y-74833171D01*
X181845480Y-74855349D01*
X181832867Y-74876393D01*
X181818253Y-74896098D01*
X181801777Y-74914277D01*
X181783598Y-74930753D01*
X181763893Y-74945367D01*
X181742849Y-74957980D01*
X181720671Y-74968470D01*
X181697571Y-74976735D01*
X181673773Y-74982696D01*
X181649504Y-74986296D01*
X181625000Y-74987500D01*
X180375000Y-74987500D01*
X180350496Y-74986296D01*
X180326227Y-74982696D01*
X180302429Y-74976735D01*
X180279329Y-74968470D01*
X180257151Y-74957980D01*
X180236107Y-74945367D01*
X180216402Y-74930753D01*
X180198223Y-74914277D01*
X180181747Y-74896098D01*
X180167133Y-74876393D01*
X180154520Y-74855349D01*
X180144030Y-74833171D01*
X180135765Y-74810071D01*
X180129804Y-74786273D01*
X180126204Y-74762004D01*
X180125000Y-74737500D01*
X180125000Y-73812500D01*
X180126204Y-73787996D01*
X180129804Y-73763727D01*
X180135765Y-73739929D01*
X180144030Y-73716829D01*
X180154520Y-73694651D01*
X180167133Y-73673607D01*
X180181747Y-73653902D01*
X180198223Y-73635723D01*
X180216402Y-73619247D01*
X180236107Y-73604633D01*
X180257151Y-73592020D01*
X180279329Y-73581530D01*
X180302429Y-73573265D01*
X180326227Y-73567304D01*
X180350496Y-73563704D01*
X180375000Y-73562500D01*
X181625000Y-73562500D01*
X181649504Y-73563704D01*
X181649504Y-73563704D01*
G37*
D13*
X181000000Y-74275000D03*
D12*
G36*
X181649504Y-76538704D02*
X181673773Y-76542304D01*
X181697571Y-76548265D01*
X181720671Y-76556530D01*
X181742849Y-76567020D01*
X181763893Y-76579633D01*
X181783598Y-76594247D01*
X181801777Y-76610723D01*
X181818253Y-76628902D01*
X181832867Y-76648607D01*
X181845480Y-76669651D01*
X181855970Y-76691829D01*
X181864235Y-76714929D01*
X181870196Y-76738727D01*
X181873796Y-76762996D01*
X181875000Y-76787500D01*
X181875000Y-77712500D01*
X181873796Y-77737004D01*
X181870196Y-77761273D01*
X181864235Y-77785071D01*
X181855970Y-77808171D01*
X181845480Y-77830349D01*
X181832867Y-77851393D01*
X181818253Y-77871098D01*
X181801777Y-77889277D01*
X181783598Y-77905753D01*
X181763893Y-77920367D01*
X181742849Y-77932980D01*
X181720671Y-77943470D01*
X181697571Y-77951735D01*
X181673773Y-77957696D01*
X181649504Y-77961296D01*
X181625000Y-77962500D01*
X180375000Y-77962500D01*
X180350496Y-77961296D01*
X180326227Y-77957696D01*
X180302429Y-77951735D01*
X180279329Y-77943470D01*
X180257151Y-77932980D01*
X180236107Y-77920367D01*
X180216402Y-77905753D01*
X180198223Y-77889277D01*
X180181747Y-77871098D01*
X180167133Y-77851393D01*
X180154520Y-77830349D01*
X180144030Y-77808171D01*
X180135765Y-77785071D01*
X180129804Y-77761273D01*
X180126204Y-77737004D01*
X180125000Y-77712500D01*
X180125000Y-76787500D01*
X180126204Y-76762996D01*
X180129804Y-76738727D01*
X180135765Y-76714929D01*
X180144030Y-76691829D01*
X180154520Y-76669651D01*
X180167133Y-76648607D01*
X180181747Y-76628902D01*
X180198223Y-76610723D01*
X180216402Y-76594247D01*
X180236107Y-76579633D01*
X180257151Y-76567020D01*
X180279329Y-76556530D01*
X180302429Y-76548265D01*
X180326227Y-76542304D01*
X180350496Y-76538704D01*
X180375000Y-76537500D01*
X181625000Y-76537500D01*
X181649504Y-76538704D01*
X181649504Y-76538704D01*
G37*
D13*
X181000000Y-77250000D03*
G04 #@! TD*
D12*
G04 #@! TO.C,C2*
G36*
X134649504Y-96288704D02*
X134673773Y-96292304D01*
X134697571Y-96298265D01*
X134720671Y-96306530D01*
X134742849Y-96317020D01*
X134763893Y-96329633D01*
X134783598Y-96344247D01*
X134801777Y-96360723D01*
X134818253Y-96378902D01*
X134832867Y-96398607D01*
X134845480Y-96419651D01*
X134855970Y-96441829D01*
X134864235Y-96464929D01*
X134870196Y-96488727D01*
X134873796Y-96512996D01*
X134875000Y-96537500D01*
X134875000Y-97462500D01*
X134873796Y-97487004D01*
X134870196Y-97511273D01*
X134864235Y-97535071D01*
X134855970Y-97558171D01*
X134845480Y-97580349D01*
X134832867Y-97601393D01*
X134818253Y-97621098D01*
X134801777Y-97639277D01*
X134783598Y-97655753D01*
X134763893Y-97670367D01*
X134742849Y-97682980D01*
X134720671Y-97693470D01*
X134697571Y-97701735D01*
X134673773Y-97707696D01*
X134649504Y-97711296D01*
X134625000Y-97712500D01*
X133375000Y-97712500D01*
X133350496Y-97711296D01*
X133326227Y-97707696D01*
X133302429Y-97701735D01*
X133279329Y-97693470D01*
X133257151Y-97682980D01*
X133236107Y-97670367D01*
X133216402Y-97655753D01*
X133198223Y-97639277D01*
X133181747Y-97621098D01*
X133167133Y-97601393D01*
X133154520Y-97580349D01*
X133144030Y-97558171D01*
X133135765Y-97535071D01*
X133129804Y-97511273D01*
X133126204Y-97487004D01*
X133125000Y-97462500D01*
X133125000Y-96537500D01*
X133126204Y-96512996D01*
X133129804Y-96488727D01*
X133135765Y-96464929D01*
X133144030Y-96441829D01*
X133154520Y-96419651D01*
X133167133Y-96398607D01*
X133181747Y-96378902D01*
X133198223Y-96360723D01*
X133216402Y-96344247D01*
X133236107Y-96329633D01*
X133257151Y-96317020D01*
X133279329Y-96306530D01*
X133302429Y-96298265D01*
X133326227Y-96292304D01*
X133350496Y-96288704D01*
X133375000Y-96287500D01*
X134625000Y-96287500D01*
X134649504Y-96288704D01*
X134649504Y-96288704D01*
G37*
D13*
X134000000Y-97000000D03*
D12*
G36*
X134649504Y-93313704D02*
X134673773Y-93317304D01*
X134697571Y-93323265D01*
X134720671Y-93331530D01*
X134742849Y-93342020D01*
X134763893Y-93354633D01*
X134783598Y-93369247D01*
X134801777Y-93385723D01*
X134818253Y-93403902D01*
X134832867Y-93423607D01*
X134845480Y-93444651D01*
X134855970Y-93466829D01*
X134864235Y-93489929D01*
X134870196Y-93513727D01*
X134873796Y-93537996D01*
X134875000Y-93562500D01*
X134875000Y-94487500D01*
X134873796Y-94512004D01*
X134870196Y-94536273D01*
X134864235Y-94560071D01*
X134855970Y-94583171D01*
X134845480Y-94605349D01*
X134832867Y-94626393D01*
X134818253Y-94646098D01*
X134801777Y-94664277D01*
X134783598Y-94680753D01*
X134763893Y-94695367D01*
X134742849Y-94707980D01*
X134720671Y-94718470D01*
X134697571Y-94726735D01*
X134673773Y-94732696D01*
X134649504Y-94736296D01*
X134625000Y-94737500D01*
X133375000Y-94737500D01*
X133350496Y-94736296D01*
X133326227Y-94732696D01*
X133302429Y-94726735D01*
X133279329Y-94718470D01*
X133257151Y-94707980D01*
X133236107Y-94695367D01*
X133216402Y-94680753D01*
X133198223Y-94664277D01*
X133181747Y-94646098D01*
X133167133Y-94626393D01*
X133154520Y-94605349D01*
X133144030Y-94583171D01*
X133135765Y-94560071D01*
X133129804Y-94536273D01*
X133126204Y-94512004D01*
X133125000Y-94487500D01*
X133125000Y-93562500D01*
X133126204Y-93537996D01*
X133129804Y-93513727D01*
X133135765Y-93489929D01*
X133144030Y-93466829D01*
X133154520Y-93444651D01*
X133167133Y-93423607D01*
X133181747Y-93403902D01*
X133198223Y-93385723D01*
X133216402Y-93369247D01*
X133236107Y-93354633D01*
X133257151Y-93342020D01*
X133279329Y-93331530D01*
X133302429Y-93323265D01*
X133326227Y-93317304D01*
X133350496Y-93313704D01*
X133375000Y-93312500D01*
X134625000Y-93312500D01*
X134649504Y-93313704D01*
X134649504Y-93313704D01*
G37*
D13*
X134000000Y-94025000D03*
G04 #@! TD*
D12*
G04 #@! TO.C,C3*
G36*
X126399504Y-83288704D02*
X126423773Y-83292304D01*
X126447571Y-83298265D01*
X126470671Y-83306530D01*
X126492849Y-83317020D01*
X126513893Y-83329633D01*
X126533598Y-83344247D01*
X126551777Y-83360723D01*
X126568253Y-83378902D01*
X126582867Y-83398607D01*
X126595480Y-83419651D01*
X126605970Y-83441829D01*
X126614235Y-83464929D01*
X126620196Y-83488727D01*
X126623796Y-83512996D01*
X126625000Y-83537500D01*
X126625000Y-84462500D01*
X126623796Y-84487004D01*
X126620196Y-84511273D01*
X126614235Y-84535071D01*
X126605970Y-84558171D01*
X126595480Y-84580349D01*
X126582867Y-84601393D01*
X126568253Y-84621098D01*
X126551777Y-84639277D01*
X126533598Y-84655753D01*
X126513893Y-84670367D01*
X126492849Y-84682980D01*
X126470671Y-84693470D01*
X126447571Y-84701735D01*
X126423773Y-84707696D01*
X126399504Y-84711296D01*
X126375000Y-84712500D01*
X125125000Y-84712500D01*
X125100496Y-84711296D01*
X125076227Y-84707696D01*
X125052429Y-84701735D01*
X125029329Y-84693470D01*
X125007151Y-84682980D01*
X124986107Y-84670367D01*
X124966402Y-84655753D01*
X124948223Y-84639277D01*
X124931747Y-84621098D01*
X124917133Y-84601393D01*
X124904520Y-84580349D01*
X124894030Y-84558171D01*
X124885765Y-84535071D01*
X124879804Y-84511273D01*
X124876204Y-84487004D01*
X124875000Y-84462500D01*
X124875000Y-83537500D01*
X124876204Y-83512996D01*
X124879804Y-83488727D01*
X124885765Y-83464929D01*
X124894030Y-83441829D01*
X124904520Y-83419651D01*
X124917133Y-83398607D01*
X124931747Y-83378902D01*
X124948223Y-83360723D01*
X124966402Y-83344247D01*
X124986107Y-83329633D01*
X125007151Y-83317020D01*
X125029329Y-83306530D01*
X125052429Y-83298265D01*
X125076227Y-83292304D01*
X125100496Y-83288704D01*
X125125000Y-83287500D01*
X126375000Y-83287500D01*
X126399504Y-83288704D01*
X126399504Y-83288704D01*
G37*
D13*
X125750000Y-84000000D03*
D12*
G36*
X126399504Y-80313704D02*
X126423773Y-80317304D01*
X126447571Y-80323265D01*
X126470671Y-80331530D01*
X126492849Y-80342020D01*
X126513893Y-80354633D01*
X126533598Y-80369247D01*
X126551777Y-80385723D01*
X126568253Y-80403902D01*
X126582867Y-80423607D01*
X126595480Y-80444651D01*
X126605970Y-80466829D01*
X126614235Y-80489929D01*
X126620196Y-80513727D01*
X126623796Y-80537996D01*
X126625000Y-80562500D01*
X126625000Y-81487500D01*
X126623796Y-81512004D01*
X126620196Y-81536273D01*
X126614235Y-81560071D01*
X126605970Y-81583171D01*
X126595480Y-81605349D01*
X126582867Y-81626393D01*
X126568253Y-81646098D01*
X126551777Y-81664277D01*
X126533598Y-81680753D01*
X126513893Y-81695367D01*
X126492849Y-81707980D01*
X126470671Y-81718470D01*
X126447571Y-81726735D01*
X126423773Y-81732696D01*
X126399504Y-81736296D01*
X126375000Y-81737500D01*
X125125000Y-81737500D01*
X125100496Y-81736296D01*
X125076227Y-81732696D01*
X125052429Y-81726735D01*
X125029329Y-81718470D01*
X125007151Y-81707980D01*
X124986107Y-81695367D01*
X124966402Y-81680753D01*
X124948223Y-81664277D01*
X124931747Y-81646098D01*
X124917133Y-81626393D01*
X124904520Y-81605349D01*
X124894030Y-81583171D01*
X124885765Y-81560071D01*
X124879804Y-81536273D01*
X124876204Y-81512004D01*
X124875000Y-81487500D01*
X124875000Y-80562500D01*
X124876204Y-80537996D01*
X124879804Y-80513727D01*
X124885765Y-80489929D01*
X124894030Y-80466829D01*
X124904520Y-80444651D01*
X124917133Y-80423607D01*
X124931747Y-80403902D01*
X124948223Y-80385723D01*
X124966402Y-80369247D01*
X124986107Y-80354633D01*
X125007151Y-80342020D01*
X125029329Y-80331530D01*
X125052429Y-80323265D01*
X125076227Y-80317304D01*
X125100496Y-80313704D01*
X125125000Y-80312500D01*
X126375000Y-80312500D01*
X126399504Y-80313704D01*
X126399504Y-80313704D01*
G37*
D13*
X125750000Y-81025000D03*
G04 #@! TD*
D12*
G04 #@! TO.C,C4*
G36*
X123899504Y-80301204D02*
X123923773Y-80304804D01*
X123947571Y-80310765D01*
X123970671Y-80319030D01*
X123992849Y-80329520D01*
X124013893Y-80342133D01*
X124033598Y-80356747D01*
X124051777Y-80373223D01*
X124068253Y-80391402D01*
X124082867Y-80411107D01*
X124095480Y-80432151D01*
X124105970Y-80454329D01*
X124114235Y-80477429D01*
X124120196Y-80501227D01*
X124123796Y-80525496D01*
X124125000Y-80550000D01*
X124125000Y-81475000D01*
X124123796Y-81499504D01*
X124120196Y-81523773D01*
X124114235Y-81547571D01*
X124105970Y-81570671D01*
X124095480Y-81592849D01*
X124082867Y-81613893D01*
X124068253Y-81633598D01*
X124051777Y-81651777D01*
X124033598Y-81668253D01*
X124013893Y-81682867D01*
X123992849Y-81695480D01*
X123970671Y-81705970D01*
X123947571Y-81714235D01*
X123923773Y-81720196D01*
X123899504Y-81723796D01*
X123875000Y-81725000D01*
X122625000Y-81725000D01*
X122600496Y-81723796D01*
X122576227Y-81720196D01*
X122552429Y-81714235D01*
X122529329Y-81705970D01*
X122507151Y-81695480D01*
X122486107Y-81682867D01*
X122466402Y-81668253D01*
X122448223Y-81651777D01*
X122431747Y-81633598D01*
X122417133Y-81613893D01*
X122404520Y-81592849D01*
X122394030Y-81570671D01*
X122385765Y-81547571D01*
X122379804Y-81523773D01*
X122376204Y-81499504D01*
X122375000Y-81475000D01*
X122375000Y-80550000D01*
X122376204Y-80525496D01*
X122379804Y-80501227D01*
X122385765Y-80477429D01*
X122394030Y-80454329D01*
X122404520Y-80432151D01*
X122417133Y-80411107D01*
X122431747Y-80391402D01*
X122448223Y-80373223D01*
X122466402Y-80356747D01*
X122486107Y-80342133D01*
X122507151Y-80329520D01*
X122529329Y-80319030D01*
X122552429Y-80310765D01*
X122576227Y-80304804D01*
X122600496Y-80301204D01*
X122625000Y-80300000D01*
X123875000Y-80300000D01*
X123899504Y-80301204D01*
X123899504Y-80301204D01*
G37*
D13*
X123250000Y-81012500D03*
D12*
G36*
X123899504Y-83276204D02*
X123923773Y-83279804D01*
X123947571Y-83285765D01*
X123970671Y-83294030D01*
X123992849Y-83304520D01*
X124013893Y-83317133D01*
X124033598Y-83331747D01*
X124051777Y-83348223D01*
X124068253Y-83366402D01*
X124082867Y-83386107D01*
X124095480Y-83407151D01*
X124105970Y-83429329D01*
X124114235Y-83452429D01*
X124120196Y-83476227D01*
X124123796Y-83500496D01*
X124125000Y-83525000D01*
X124125000Y-84450000D01*
X124123796Y-84474504D01*
X124120196Y-84498773D01*
X124114235Y-84522571D01*
X124105970Y-84545671D01*
X124095480Y-84567849D01*
X124082867Y-84588893D01*
X124068253Y-84608598D01*
X124051777Y-84626777D01*
X124033598Y-84643253D01*
X124013893Y-84657867D01*
X123992849Y-84670480D01*
X123970671Y-84680970D01*
X123947571Y-84689235D01*
X123923773Y-84695196D01*
X123899504Y-84698796D01*
X123875000Y-84700000D01*
X122625000Y-84700000D01*
X122600496Y-84698796D01*
X122576227Y-84695196D01*
X122552429Y-84689235D01*
X122529329Y-84680970D01*
X122507151Y-84670480D01*
X122486107Y-84657867D01*
X122466402Y-84643253D01*
X122448223Y-84626777D01*
X122431747Y-84608598D01*
X122417133Y-84588893D01*
X122404520Y-84567849D01*
X122394030Y-84545671D01*
X122385765Y-84522571D01*
X122379804Y-84498773D01*
X122376204Y-84474504D01*
X122375000Y-84450000D01*
X122375000Y-83525000D01*
X122376204Y-83500496D01*
X122379804Y-83476227D01*
X122385765Y-83452429D01*
X122394030Y-83429329D01*
X122404520Y-83407151D01*
X122417133Y-83386107D01*
X122431747Y-83366402D01*
X122448223Y-83348223D01*
X122466402Y-83331747D01*
X122486107Y-83317133D01*
X122507151Y-83304520D01*
X122529329Y-83294030D01*
X122552429Y-83285765D01*
X122576227Y-83279804D01*
X122600496Y-83276204D01*
X122625000Y-83275000D01*
X123875000Y-83275000D01*
X123899504Y-83276204D01*
X123899504Y-83276204D01*
G37*
D13*
X123250000Y-83987500D03*
G04 #@! TD*
D12*
G04 #@! TO.C,C13*
G36*
X166399504Y-103026204D02*
X166423773Y-103029804D01*
X166447571Y-103035765D01*
X166470671Y-103044030D01*
X166492849Y-103054520D01*
X166513893Y-103067133D01*
X166533598Y-103081747D01*
X166551777Y-103098223D01*
X166568253Y-103116402D01*
X166582867Y-103136107D01*
X166595480Y-103157151D01*
X166605970Y-103179329D01*
X166614235Y-103202429D01*
X166620196Y-103226227D01*
X166623796Y-103250496D01*
X166625000Y-103275000D01*
X166625000Y-104200000D01*
X166623796Y-104224504D01*
X166620196Y-104248773D01*
X166614235Y-104272571D01*
X166605970Y-104295671D01*
X166595480Y-104317849D01*
X166582867Y-104338893D01*
X166568253Y-104358598D01*
X166551777Y-104376777D01*
X166533598Y-104393253D01*
X166513893Y-104407867D01*
X166492849Y-104420480D01*
X166470671Y-104430970D01*
X166447571Y-104439235D01*
X166423773Y-104445196D01*
X166399504Y-104448796D01*
X166375000Y-104450000D01*
X165125000Y-104450000D01*
X165100496Y-104448796D01*
X165076227Y-104445196D01*
X165052429Y-104439235D01*
X165029329Y-104430970D01*
X165007151Y-104420480D01*
X164986107Y-104407867D01*
X164966402Y-104393253D01*
X164948223Y-104376777D01*
X164931747Y-104358598D01*
X164917133Y-104338893D01*
X164904520Y-104317849D01*
X164894030Y-104295671D01*
X164885765Y-104272571D01*
X164879804Y-104248773D01*
X164876204Y-104224504D01*
X164875000Y-104200000D01*
X164875000Y-103275000D01*
X164876204Y-103250496D01*
X164879804Y-103226227D01*
X164885765Y-103202429D01*
X164894030Y-103179329D01*
X164904520Y-103157151D01*
X164917133Y-103136107D01*
X164931747Y-103116402D01*
X164948223Y-103098223D01*
X164966402Y-103081747D01*
X164986107Y-103067133D01*
X165007151Y-103054520D01*
X165029329Y-103044030D01*
X165052429Y-103035765D01*
X165076227Y-103029804D01*
X165100496Y-103026204D01*
X165125000Y-103025000D01*
X166375000Y-103025000D01*
X166399504Y-103026204D01*
X166399504Y-103026204D01*
G37*
D13*
X165750000Y-103737500D03*
D12*
G36*
X166399504Y-100051204D02*
X166423773Y-100054804D01*
X166447571Y-100060765D01*
X166470671Y-100069030D01*
X166492849Y-100079520D01*
X166513893Y-100092133D01*
X166533598Y-100106747D01*
X166551777Y-100123223D01*
X166568253Y-100141402D01*
X166582867Y-100161107D01*
X166595480Y-100182151D01*
X166605970Y-100204329D01*
X166614235Y-100227429D01*
X166620196Y-100251227D01*
X166623796Y-100275496D01*
X166625000Y-100300000D01*
X166625000Y-101225000D01*
X166623796Y-101249504D01*
X166620196Y-101273773D01*
X166614235Y-101297571D01*
X166605970Y-101320671D01*
X166595480Y-101342849D01*
X166582867Y-101363893D01*
X166568253Y-101383598D01*
X166551777Y-101401777D01*
X166533598Y-101418253D01*
X166513893Y-101432867D01*
X166492849Y-101445480D01*
X166470671Y-101455970D01*
X166447571Y-101464235D01*
X166423773Y-101470196D01*
X166399504Y-101473796D01*
X166375000Y-101475000D01*
X165125000Y-101475000D01*
X165100496Y-101473796D01*
X165076227Y-101470196D01*
X165052429Y-101464235D01*
X165029329Y-101455970D01*
X165007151Y-101445480D01*
X164986107Y-101432867D01*
X164966402Y-101418253D01*
X164948223Y-101401777D01*
X164931747Y-101383598D01*
X164917133Y-101363893D01*
X164904520Y-101342849D01*
X164894030Y-101320671D01*
X164885765Y-101297571D01*
X164879804Y-101273773D01*
X164876204Y-101249504D01*
X164875000Y-101225000D01*
X164875000Y-100300000D01*
X164876204Y-100275496D01*
X164879804Y-100251227D01*
X164885765Y-100227429D01*
X164894030Y-100204329D01*
X164904520Y-100182151D01*
X164917133Y-100161107D01*
X164931747Y-100141402D01*
X164948223Y-100123223D01*
X164966402Y-100106747D01*
X164986107Y-100092133D01*
X165007151Y-100079520D01*
X165029329Y-100069030D01*
X165052429Y-100060765D01*
X165076227Y-100054804D01*
X165100496Y-100051204D01*
X165125000Y-100050000D01*
X166375000Y-100050000D01*
X166399504Y-100051204D01*
X166399504Y-100051204D01*
G37*
D13*
X165750000Y-100762500D03*
G04 #@! TD*
D12*
G04 #@! TO.C,C5*
G36*
X156974504Y-97376204D02*
X156998773Y-97379804D01*
X157022571Y-97385765D01*
X157045671Y-97394030D01*
X157067849Y-97404520D01*
X157088893Y-97417133D01*
X157108598Y-97431747D01*
X157126777Y-97448223D01*
X157143253Y-97466402D01*
X157157867Y-97486107D01*
X157170480Y-97507151D01*
X157180970Y-97529329D01*
X157189235Y-97552429D01*
X157195196Y-97576227D01*
X157198796Y-97600496D01*
X157200000Y-97625000D01*
X157200000Y-98875000D01*
X157198796Y-98899504D01*
X157195196Y-98923773D01*
X157189235Y-98947571D01*
X157180970Y-98970671D01*
X157170480Y-98992849D01*
X157157867Y-99013893D01*
X157143253Y-99033598D01*
X157126777Y-99051777D01*
X157108598Y-99068253D01*
X157088893Y-99082867D01*
X157067849Y-99095480D01*
X157045671Y-99105970D01*
X157022571Y-99114235D01*
X156998773Y-99120196D01*
X156974504Y-99123796D01*
X156950000Y-99125000D01*
X156025000Y-99125000D01*
X156000496Y-99123796D01*
X155976227Y-99120196D01*
X155952429Y-99114235D01*
X155929329Y-99105970D01*
X155907151Y-99095480D01*
X155886107Y-99082867D01*
X155866402Y-99068253D01*
X155848223Y-99051777D01*
X155831747Y-99033598D01*
X155817133Y-99013893D01*
X155804520Y-98992849D01*
X155794030Y-98970671D01*
X155785765Y-98947571D01*
X155779804Y-98923773D01*
X155776204Y-98899504D01*
X155775000Y-98875000D01*
X155775000Y-97625000D01*
X155776204Y-97600496D01*
X155779804Y-97576227D01*
X155785765Y-97552429D01*
X155794030Y-97529329D01*
X155804520Y-97507151D01*
X155817133Y-97486107D01*
X155831747Y-97466402D01*
X155848223Y-97448223D01*
X155866402Y-97431747D01*
X155886107Y-97417133D01*
X155907151Y-97404520D01*
X155929329Y-97394030D01*
X155952429Y-97385765D01*
X155976227Y-97379804D01*
X156000496Y-97376204D01*
X156025000Y-97375000D01*
X156950000Y-97375000D01*
X156974504Y-97376204D01*
X156974504Y-97376204D01*
G37*
D13*
X156487500Y-98250000D03*
D12*
G36*
X153999504Y-97376204D02*
X154023773Y-97379804D01*
X154047571Y-97385765D01*
X154070671Y-97394030D01*
X154092849Y-97404520D01*
X154113893Y-97417133D01*
X154133598Y-97431747D01*
X154151777Y-97448223D01*
X154168253Y-97466402D01*
X154182867Y-97486107D01*
X154195480Y-97507151D01*
X154205970Y-97529329D01*
X154214235Y-97552429D01*
X154220196Y-97576227D01*
X154223796Y-97600496D01*
X154225000Y-97625000D01*
X154225000Y-98875000D01*
X154223796Y-98899504D01*
X154220196Y-98923773D01*
X154214235Y-98947571D01*
X154205970Y-98970671D01*
X154195480Y-98992849D01*
X154182867Y-99013893D01*
X154168253Y-99033598D01*
X154151777Y-99051777D01*
X154133598Y-99068253D01*
X154113893Y-99082867D01*
X154092849Y-99095480D01*
X154070671Y-99105970D01*
X154047571Y-99114235D01*
X154023773Y-99120196D01*
X153999504Y-99123796D01*
X153975000Y-99125000D01*
X153050000Y-99125000D01*
X153025496Y-99123796D01*
X153001227Y-99120196D01*
X152977429Y-99114235D01*
X152954329Y-99105970D01*
X152932151Y-99095480D01*
X152911107Y-99082867D01*
X152891402Y-99068253D01*
X152873223Y-99051777D01*
X152856747Y-99033598D01*
X152842133Y-99013893D01*
X152829520Y-98992849D01*
X152819030Y-98970671D01*
X152810765Y-98947571D01*
X152804804Y-98923773D01*
X152801204Y-98899504D01*
X152800000Y-98875000D01*
X152800000Y-97625000D01*
X152801204Y-97600496D01*
X152804804Y-97576227D01*
X152810765Y-97552429D01*
X152819030Y-97529329D01*
X152829520Y-97507151D01*
X152842133Y-97486107D01*
X152856747Y-97466402D01*
X152873223Y-97448223D01*
X152891402Y-97431747D01*
X152911107Y-97417133D01*
X152932151Y-97404520D01*
X152954329Y-97394030D01*
X152977429Y-97385765D01*
X153001227Y-97379804D01*
X153025496Y-97376204D01*
X153050000Y-97375000D01*
X153975000Y-97375000D01*
X153999504Y-97376204D01*
X153999504Y-97376204D01*
G37*
D13*
X153512500Y-98250000D03*
G04 #@! TD*
D12*
G04 #@! TO.C,C6*
G36*
X153999504Y-92876204D02*
X154023773Y-92879804D01*
X154047571Y-92885765D01*
X154070671Y-92894030D01*
X154092849Y-92904520D01*
X154113893Y-92917133D01*
X154133598Y-92931747D01*
X154151777Y-92948223D01*
X154168253Y-92966402D01*
X154182867Y-92986107D01*
X154195480Y-93007151D01*
X154205970Y-93029329D01*
X154214235Y-93052429D01*
X154220196Y-93076227D01*
X154223796Y-93100496D01*
X154225000Y-93125000D01*
X154225000Y-94375000D01*
X154223796Y-94399504D01*
X154220196Y-94423773D01*
X154214235Y-94447571D01*
X154205970Y-94470671D01*
X154195480Y-94492849D01*
X154182867Y-94513893D01*
X154168253Y-94533598D01*
X154151777Y-94551777D01*
X154133598Y-94568253D01*
X154113893Y-94582867D01*
X154092849Y-94595480D01*
X154070671Y-94605970D01*
X154047571Y-94614235D01*
X154023773Y-94620196D01*
X153999504Y-94623796D01*
X153975000Y-94625000D01*
X153050000Y-94625000D01*
X153025496Y-94623796D01*
X153001227Y-94620196D01*
X152977429Y-94614235D01*
X152954329Y-94605970D01*
X152932151Y-94595480D01*
X152911107Y-94582867D01*
X152891402Y-94568253D01*
X152873223Y-94551777D01*
X152856747Y-94533598D01*
X152842133Y-94513893D01*
X152829520Y-94492849D01*
X152819030Y-94470671D01*
X152810765Y-94447571D01*
X152804804Y-94423773D01*
X152801204Y-94399504D01*
X152800000Y-94375000D01*
X152800000Y-93125000D01*
X152801204Y-93100496D01*
X152804804Y-93076227D01*
X152810765Y-93052429D01*
X152819030Y-93029329D01*
X152829520Y-93007151D01*
X152842133Y-92986107D01*
X152856747Y-92966402D01*
X152873223Y-92948223D01*
X152891402Y-92931747D01*
X152911107Y-92917133D01*
X152932151Y-92904520D01*
X152954329Y-92894030D01*
X152977429Y-92885765D01*
X153001227Y-92879804D01*
X153025496Y-92876204D01*
X153050000Y-92875000D01*
X153975000Y-92875000D01*
X153999504Y-92876204D01*
X153999504Y-92876204D01*
G37*
D13*
X153512500Y-93750000D03*
D12*
G36*
X156974504Y-92876204D02*
X156998773Y-92879804D01*
X157022571Y-92885765D01*
X157045671Y-92894030D01*
X157067849Y-92904520D01*
X157088893Y-92917133D01*
X157108598Y-92931747D01*
X157126777Y-92948223D01*
X157143253Y-92966402D01*
X157157867Y-92986107D01*
X157170480Y-93007151D01*
X157180970Y-93029329D01*
X157189235Y-93052429D01*
X157195196Y-93076227D01*
X157198796Y-93100496D01*
X157200000Y-93125000D01*
X157200000Y-94375000D01*
X157198796Y-94399504D01*
X157195196Y-94423773D01*
X157189235Y-94447571D01*
X157180970Y-94470671D01*
X157170480Y-94492849D01*
X157157867Y-94513893D01*
X157143253Y-94533598D01*
X157126777Y-94551777D01*
X157108598Y-94568253D01*
X157088893Y-94582867D01*
X157067849Y-94595480D01*
X157045671Y-94605970D01*
X157022571Y-94614235D01*
X156998773Y-94620196D01*
X156974504Y-94623796D01*
X156950000Y-94625000D01*
X156025000Y-94625000D01*
X156000496Y-94623796D01*
X155976227Y-94620196D01*
X155952429Y-94614235D01*
X155929329Y-94605970D01*
X155907151Y-94595480D01*
X155886107Y-94582867D01*
X155866402Y-94568253D01*
X155848223Y-94551777D01*
X155831747Y-94533598D01*
X155817133Y-94513893D01*
X155804520Y-94492849D01*
X155794030Y-94470671D01*
X155785765Y-94447571D01*
X155779804Y-94423773D01*
X155776204Y-94399504D01*
X155775000Y-94375000D01*
X155775000Y-93125000D01*
X155776204Y-93100496D01*
X155779804Y-93076227D01*
X155785765Y-93052429D01*
X155794030Y-93029329D01*
X155804520Y-93007151D01*
X155817133Y-92986107D01*
X155831747Y-92966402D01*
X155848223Y-92948223D01*
X155866402Y-92931747D01*
X155886107Y-92917133D01*
X155907151Y-92904520D01*
X155929329Y-92894030D01*
X155952429Y-92885765D01*
X155976227Y-92879804D01*
X156000496Y-92876204D01*
X156025000Y-92875000D01*
X156950000Y-92875000D01*
X156974504Y-92876204D01*
X156974504Y-92876204D01*
G37*
D13*
X156487500Y-93750000D03*
G04 #@! TD*
D15*
G04 #@! TO.C,D8*
X180250000Y-59250000D03*
X180250000Y-54250000D03*
G04 #@! TD*
D16*
G04 #@! TO.C,D9*
X173250000Y-103750000D03*
X173250000Y-101250000D03*
G04 #@! TD*
D12*
G04 #@! TO.C,F1*
G36*
X177149504Y-60013704D02*
X177173773Y-60017304D01*
X177197571Y-60023265D01*
X177220671Y-60031530D01*
X177242849Y-60042020D01*
X177263893Y-60054633D01*
X177283598Y-60069247D01*
X177301777Y-60085723D01*
X177318253Y-60103902D01*
X177332867Y-60123607D01*
X177345480Y-60144651D01*
X177355970Y-60166829D01*
X177364235Y-60189929D01*
X177370196Y-60213727D01*
X177373796Y-60237996D01*
X177375000Y-60262500D01*
X177375000Y-61187500D01*
X177373796Y-61212004D01*
X177370196Y-61236273D01*
X177364235Y-61260071D01*
X177355970Y-61283171D01*
X177345480Y-61305349D01*
X177332867Y-61326393D01*
X177318253Y-61346098D01*
X177301777Y-61364277D01*
X177283598Y-61380753D01*
X177263893Y-61395367D01*
X177242849Y-61407980D01*
X177220671Y-61418470D01*
X177197571Y-61426735D01*
X177173773Y-61432696D01*
X177149504Y-61436296D01*
X177125000Y-61437500D01*
X175875000Y-61437500D01*
X175850496Y-61436296D01*
X175826227Y-61432696D01*
X175802429Y-61426735D01*
X175779329Y-61418470D01*
X175757151Y-61407980D01*
X175736107Y-61395367D01*
X175716402Y-61380753D01*
X175698223Y-61364277D01*
X175681747Y-61346098D01*
X175667133Y-61326393D01*
X175654520Y-61305349D01*
X175644030Y-61283171D01*
X175635765Y-61260071D01*
X175629804Y-61236273D01*
X175626204Y-61212004D01*
X175625000Y-61187500D01*
X175625000Y-60262500D01*
X175626204Y-60237996D01*
X175629804Y-60213727D01*
X175635765Y-60189929D01*
X175644030Y-60166829D01*
X175654520Y-60144651D01*
X175667133Y-60123607D01*
X175681747Y-60103902D01*
X175698223Y-60085723D01*
X175716402Y-60069247D01*
X175736107Y-60054633D01*
X175757151Y-60042020D01*
X175779329Y-60031530D01*
X175802429Y-60023265D01*
X175826227Y-60017304D01*
X175850496Y-60013704D01*
X175875000Y-60012500D01*
X177125000Y-60012500D01*
X177149504Y-60013704D01*
X177149504Y-60013704D01*
G37*
D13*
X176500000Y-60725000D03*
D12*
G36*
X177149504Y-57038704D02*
X177173773Y-57042304D01*
X177197571Y-57048265D01*
X177220671Y-57056530D01*
X177242849Y-57067020D01*
X177263893Y-57079633D01*
X177283598Y-57094247D01*
X177301777Y-57110723D01*
X177318253Y-57128902D01*
X177332867Y-57148607D01*
X177345480Y-57169651D01*
X177355970Y-57191829D01*
X177364235Y-57214929D01*
X177370196Y-57238727D01*
X177373796Y-57262996D01*
X177375000Y-57287500D01*
X177375000Y-58212500D01*
X177373796Y-58237004D01*
X177370196Y-58261273D01*
X177364235Y-58285071D01*
X177355970Y-58308171D01*
X177345480Y-58330349D01*
X177332867Y-58351393D01*
X177318253Y-58371098D01*
X177301777Y-58389277D01*
X177283598Y-58405753D01*
X177263893Y-58420367D01*
X177242849Y-58432980D01*
X177220671Y-58443470D01*
X177197571Y-58451735D01*
X177173773Y-58457696D01*
X177149504Y-58461296D01*
X177125000Y-58462500D01*
X175875000Y-58462500D01*
X175850496Y-58461296D01*
X175826227Y-58457696D01*
X175802429Y-58451735D01*
X175779329Y-58443470D01*
X175757151Y-58432980D01*
X175736107Y-58420367D01*
X175716402Y-58405753D01*
X175698223Y-58389277D01*
X175681747Y-58371098D01*
X175667133Y-58351393D01*
X175654520Y-58330349D01*
X175644030Y-58308171D01*
X175635765Y-58285071D01*
X175629804Y-58261273D01*
X175626204Y-58237004D01*
X175625000Y-58212500D01*
X175625000Y-57287500D01*
X175626204Y-57262996D01*
X175629804Y-57238727D01*
X175635765Y-57214929D01*
X175644030Y-57191829D01*
X175654520Y-57169651D01*
X175667133Y-57148607D01*
X175681747Y-57128902D01*
X175698223Y-57110723D01*
X175716402Y-57094247D01*
X175736107Y-57079633D01*
X175757151Y-57067020D01*
X175779329Y-57056530D01*
X175802429Y-57048265D01*
X175826227Y-57042304D01*
X175850496Y-57038704D01*
X175875000Y-57037500D01*
X177125000Y-57037500D01*
X177149504Y-57038704D01*
X177149504Y-57038704D01*
G37*
D13*
X176500000Y-57750000D03*
G04 #@! TD*
D12*
G04 #@! TO.C,L1*
G36*
X161499504Y-58651204D02*
X161523773Y-58654804D01*
X161547571Y-58660765D01*
X161570671Y-58669030D01*
X161592849Y-58679520D01*
X161613893Y-58692133D01*
X161633598Y-58706747D01*
X161651777Y-58723223D01*
X161668253Y-58741402D01*
X161682867Y-58761107D01*
X161695480Y-58782151D01*
X161705970Y-58804329D01*
X161714235Y-58827429D01*
X161720196Y-58851227D01*
X161723796Y-58875496D01*
X161725000Y-58900000D01*
X161725000Y-61600000D01*
X161723796Y-61624504D01*
X161720196Y-61648773D01*
X161714235Y-61672571D01*
X161705970Y-61695671D01*
X161695480Y-61717849D01*
X161682867Y-61738893D01*
X161668253Y-61758598D01*
X161651777Y-61776777D01*
X161633598Y-61793253D01*
X161613893Y-61807867D01*
X161592849Y-61820480D01*
X161570671Y-61830970D01*
X161547571Y-61839235D01*
X161523773Y-61845196D01*
X161499504Y-61848796D01*
X161475000Y-61850000D01*
X157525000Y-61850000D01*
X157500496Y-61848796D01*
X157476227Y-61845196D01*
X157452429Y-61839235D01*
X157429329Y-61830970D01*
X157407151Y-61820480D01*
X157386107Y-61807867D01*
X157366402Y-61793253D01*
X157348223Y-61776777D01*
X157331747Y-61758598D01*
X157317133Y-61738893D01*
X157304520Y-61717849D01*
X157294030Y-61695671D01*
X157285765Y-61672571D01*
X157279804Y-61648773D01*
X157276204Y-61624504D01*
X157275000Y-61600000D01*
X157275000Y-58900000D01*
X157276204Y-58875496D01*
X157279804Y-58851227D01*
X157285765Y-58827429D01*
X157294030Y-58804329D01*
X157304520Y-58782151D01*
X157317133Y-58761107D01*
X157331747Y-58741402D01*
X157348223Y-58723223D01*
X157366402Y-58706747D01*
X157386107Y-58692133D01*
X157407151Y-58679520D01*
X157429329Y-58669030D01*
X157452429Y-58660765D01*
X157476227Y-58654804D01*
X157500496Y-58651204D01*
X157525000Y-58650000D01*
X161475000Y-58650000D01*
X161499504Y-58651204D01*
X161499504Y-58651204D01*
G37*
D17*
X159500000Y-60250000D03*
D12*
G36*
X161499504Y-53451204D02*
X161523773Y-53454804D01*
X161547571Y-53460765D01*
X161570671Y-53469030D01*
X161592849Y-53479520D01*
X161613893Y-53492133D01*
X161633598Y-53506747D01*
X161651777Y-53523223D01*
X161668253Y-53541402D01*
X161682867Y-53561107D01*
X161695480Y-53582151D01*
X161705970Y-53604329D01*
X161714235Y-53627429D01*
X161720196Y-53651227D01*
X161723796Y-53675496D01*
X161725000Y-53700000D01*
X161725000Y-56400000D01*
X161723796Y-56424504D01*
X161720196Y-56448773D01*
X161714235Y-56472571D01*
X161705970Y-56495671D01*
X161695480Y-56517849D01*
X161682867Y-56538893D01*
X161668253Y-56558598D01*
X161651777Y-56576777D01*
X161633598Y-56593253D01*
X161613893Y-56607867D01*
X161592849Y-56620480D01*
X161570671Y-56630970D01*
X161547571Y-56639235D01*
X161523773Y-56645196D01*
X161499504Y-56648796D01*
X161475000Y-56650000D01*
X157525000Y-56650000D01*
X157500496Y-56648796D01*
X157476227Y-56645196D01*
X157452429Y-56639235D01*
X157429329Y-56630970D01*
X157407151Y-56620480D01*
X157386107Y-56607867D01*
X157366402Y-56593253D01*
X157348223Y-56576777D01*
X157331747Y-56558598D01*
X157317133Y-56538893D01*
X157304520Y-56517849D01*
X157294030Y-56495671D01*
X157285765Y-56472571D01*
X157279804Y-56448773D01*
X157276204Y-56424504D01*
X157275000Y-56400000D01*
X157275000Y-53700000D01*
X157276204Y-53675496D01*
X157279804Y-53651227D01*
X157285765Y-53627429D01*
X157294030Y-53604329D01*
X157304520Y-53582151D01*
X157317133Y-53561107D01*
X157331747Y-53541402D01*
X157348223Y-53523223D01*
X157366402Y-53506747D01*
X157386107Y-53492133D01*
X157407151Y-53479520D01*
X157429329Y-53469030D01*
X157452429Y-53460765D01*
X157476227Y-53454804D01*
X157500496Y-53451204D01*
X157525000Y-53450000D01*
X161475000Y-53450000D01*
X161499504Y-53451204D01*
X161499504Y-53451204D01*
G37*
D17*
X159500000Y-55050000D03*
G04 #@! TD*
D12*
G04 #@! TO.C,D5*
G36*
X154724504Y-60126204D02*
X154748773Y-60129804D01*
X154772571Y-60135765D01*
X154795671Y-60144030D01*
X154817849Y-60154520D01*
X154838893Y-60167133D01*
X154858598Y-60181747D01*
X154876777Y-60198223D01*
X154893253Y-60216402D01*
X154907867Y-60236107D01*
X154920480Y-60257151D01*
X154930970Y-60279329D01*
X154939235Y-60302429D01*
X154945196Y-60326227D01*
X154948796Y-60350496D01*
X154950000Y-60375000D01*
X154950000Y-61625000D01*
X154948796Y-61649504D01*
X154945196Y-61673773D01*
X154939235Y-61697571D01*
X154930970Y-61720671D01*
X154920480Y-61742849D01*
X154907867Y-61763893D01*
X154893253Y-61783598D01*
X154876777Y-61801777D01*
X154858598Y-61818253D01*
X154838893Y-61832867D01*
X154817849Y-61845480D01*
X154795671Y-61855970D01*
X154772571Y-61864235D01*
X154748773Y-61870196D01*
X154724504Y-61873796D01*
X154700000Y-61875000D01*
X153775000Y-61875000D01*
X153750496Y-61873796D01*
X153726227Y-61870196D01*
X153702429Y-61864235D01*
X153679329Y-61855970D01*
X153657151Y-61845480D01*
X153636107Y-61832867D01*
X153616402Y-61818253D01*
X153598223Y-61801777D01*
X153581747Y-61783598D01*
X153567133Y-61763893D01*
X153554520Y-61742849D01*
X153544030Y-61720671D01*
X153535765Y-61697571D01*
X153529804Y-61673773D01*
X153526204Y-61649504D01*
X153525000Y-61625000D01*
X153525000Y-60375000D01*
X153526204Y-60350496D01*
X153529804Y-60326227D01*
X153535765Y-60302429D01*
X153544030Y-60279329D01*
X153554520Y-60257151D01*
X153567133Y-60236107D01*
X153581747Y-60216402D01*
X153598223Y-60198223D01*
X153616402Y-60181747D01*
X153636107Y-60167133D01*
X153657151Y-60154520D01*
X153679329Y-60144030D01*
X153702429Y-60135765D01*
X153726227Y-60129804D01*
X153750496Y-60126204D01*
X153775000Y-60125000D01*
X154700000Y-60125000D01*
X154724504Y-60126204D01*
X154724504Y-60126204D01*
G37*
D13*
X154237500Y-61000000D03*
D12*
G36*
X151749504Y-60126204D02*
X151773773Y-60129804D01*
X151797571Y-60135765D01*
X151820671Y-60144030D01*
X151842849Y-60154520D01*
X151863893Y-60167133D01*
X151883598Y-60181747D01*
X151901777Y-60198223D01*
X151918253Y-60216402D01*
X151932867Y-60236107D01*
X151945480Y-60257151D01*
X151955970Y-60279329D01*
X151964235Y-60302429D01*
X151970196Y-60326227D01*
X151973796Y-60350496D01*
X151975000Y-60375000D01*
X151975000Y-61625000D01*
X151973796Y-61649504D01*
X151970196Y-61673773D01*
X151964235Y-61697571D01*
X151955970Y-61720671D01*
X151945480Y-61742849D01*
X151932867Y-61763893D01*
X151918253Y-61783598D01*
X151901777Y-61801777D01*
X151883598Y-61818253D01*
X151863893Y-61832867D01*
X151842849Y-61845480D01*
X151820671Y-61855970D01*
X151797571Y-61864235D01*
X151773773Y-61870196D01*
X151749504Y-61873796D01*
X151725000Y-61875000D01*
X150800000Y-61875000D01*
X150775496Y-61873796D01*
X150751227Y-61870196D01*
X150727429Y-61864235D01*
X150704329Y-61855970D01*
X150682151Y-61845480D01*
X150661107Y-61832867D01*
X150641402Y-61818253D01*
X150623223Y-61801777D01*
X150606747Y-61783598D01*
X150592133Y-61763893D01*
X150579520Y-61742849D01*
X150569030Y-61720671D01*
X150560765Y-61697571D01*
X150554804Y-61673773D01*
X150551204Y-61649504D01*
X150550000Y-61625000D01*
X150550000Y-60375000D01*
X150551204Y-60350496D01*
X150554804Y-60326227D01*
X150560765Y-60302429D01*
X150569030Y-60279329D01*
X150579520Y-60257151D01*
X150592133Y-60236107D01*
X150606747Y-60216402D01*
X150623223Y-60198223D01*
X150641402Y-60181747D01*
X150661107Y-60167133D01*
X150682151Y-60154520D01*
X150704329Y-60144030D01*
X150727429Y-60135765D01*
X150751227Y-60129804D01*
X150775496Y-60126204D01*
X150800000Y-60125000D01*
X151725000Y-60125000D01*
X151749504Y-60126204D01*
X151749504Y-60126204D01*
G37*
D13*
X151262500Y-61000000D03*
G04 #@! TD*
D12*
G04 #@! TO.C,D6*
G36*
X137399504Y-84526204D02*
X137423773Y-84529804D01*
X137447571Y-84535765D01*
X137470671Y-84544030D01*
X137492849Y-84554520D01*
X137513893Y-84567133D01*
X137533598Y-84581747D01*
X137551777Y-84598223D01*
X137568253Y-84616402D01*
X137582867Y-84636107D01*
X137595480Y-84657151D01*
X137605970Y-84679329D01*
X137614235Y-84702429D01*
X137620196Y-84726227D01*
X137623796Y-84750496D01*
X137625000Y-84775000D01*
X137625000Y-85700000D01*
X137623796Y-85724504D01*
X137620196Y-85748773D01*
X137614235Y-85772571D01*
X137605970Y-85795671D01*
X137595480Y-85817849D01*
X137582867Y-85838893D01*
X137568253Y-85858598D01*
X137551777Y-85876777D01*
X137533598Y-85893253D01*
X137513893Y-85907867D01*
X137492849Y-85920480D01*
X137470671Y-85930970D01*
X137447571Y-85939235D01*
X137423773Y-85945196D01*
X137399504Y-85948796D01*
X137375000Y-85950000D01*
X136125000Y-85950000D01*
X136100496Y-85948796D01*
X136076227Y-85945196D01*
X136052429Y-85939235D01*
X136029329Y-85930970D01*
X136007151Y-85920480D01*
X135986107Y-85907867D01*
X135966402Y-85893253D01*
X135948223Y-85876777D01*
X135931747Y-85858598D01*
X135917133Y-85838893D01*
X135904520Y-85817849D01*
X135894030Y-85795671D01*
X135885765Y-85772571D01*
X135879804Y-85748773D01*
X135876204Y-85724504D01*
X135875000Y-85700000D01*
X135875000Y-84775000D01*
X135876204Y-84750496D01*
X135879804Y-84726227D01*
X135885765Y-84702429D01*
X135894030Y-84679329D01*
X135904520Y-84657151D01*
X135917133Y-84636107D01*
X135931747Y-84616402D01*
X135948223Y-84598223D01*
X135966402Y-84581747D01*
X135986107Y-84567133D01*
X136007151Y-84554520D01*
X136029329Y-84544030D01*
X136052429Y-84535765D01*
X136076227Y-84529804D01*
X136100496Y-84526204D01*
X136125000Y-84525000D01*
X137375000Y-84525000D01*
X137399504Y-84526204D01*
X137399504Y-84526204D01*
G37*
D13*
X136750000Y-85237500D03*
D12*
G36*
X137399504Y-81551204D02*
X137423773Y-81554804D01*
X137447571Y-81560765D01*
X137470671Y-81569030D01*
X137492849Y-81579520D01*
X137513893Y-81592133D01*
X137533598Y-81606747D01*
X137551777Y-81623223D01*
X137568253Y-81641402D01*
X137582867Y-81661107D01*
X137595480Y-81682151D01*
X137605970Y-81704329D01*
X137614235Y-81727429D01*
X137620196Y-81751227D01*
X137623796Y-81775496D01*
X137625000Y-81800000D01*
X137625000Y-82725000D01*
X137623796Y-82749504D01*
X137620196Y-82773773D01*
X137614235Y-82797571D01*
X137605970Y-82820671D01*
X137595480Y-82842849D01*
X137582867Y-82863893D01*
X137568253Y-82883598D01*
X137551777Y-82901777D01*
X137533598Y-82918253D01*
X137513893Y-82932867D01*
X137492849Y-82945480D01*
X137470671Y-82955970D01*
X137447571Y-82964235D01*
X137423773Y-82970196D01*
X137399504Y-82973796D01*
X137375000Y-82975000D01*
X136125000Y-82975000D01*
X136100496Y-82973796D01*
X136076227Y-82970196D01*
X136052429Y-82964235D01*
X136029329Y-82955970D01*
X136007151Y-82945480D01*
X135986107Y-82932867D01*
X135966402Y-82918253D01*
X135948223Y-82901777D01*
X135931747Y-82883598D01*
X135917133Y-82863893D01*
X135904520Y-82842849D01*
X135894030Y-82820671D01*
X135885765Y-82797571D01*
X135879804Y-82773773D01*
X135876204Y-82749504D01*
X135875000Y-82725000D01*
X135875000Y-81800000D01*
X135876204Y-81775496D01*
X135879804Y-81751227D01*
X135885765Y-81727429D01*
X135894030Y-81704329D01*
X135904520Y-81682151D01*
X135917133Y-81661107D01*
X135931747Y-81641402D01*
X135948223Y-81623223D01*
X135966402Y-81606747D01*
X135986107Y-81592133D01*
X136007151Y-81579520D01*
X136029329Y-81569030D01*
X136052429Y-81560765D01*
X136076227Y-81554804D01*
X136100496Y-81551204D01*
X136125000Y-81550000D01*
X137375000Y-81550000D01*
X137399504Y-81551204D01*
X137399504Y-81551204D01*
G37*
D13*
X136750000Y-82262500D03*
G04 #@! TD*
D12*
G04 #@! TO.C,D7*
G36*
X134399504Y-81538704D02*
X134423773Y-81542304D01*
X134447571Y-81548265D01*
X134470671Y-81556530D01*
X134492849Y-81567020D01*
X134513893Y-81579633D01*
X134533598Y-81594247D01*
X134551777Y-81610723D01*
X134568253Y-81628902D01*
X134582867Y-81648607D01*
X134595480Y-81669651D01*
X134605970Y-81691829D01*
X134614235Y-81714929D01*
X134620196Y-81738727D01*
X134623796Y-81762996D01*
X134625000Y-81787500D01*
X134625000Y-82712500D01*
X134623796Y-82737004D01*
X134620196Y-82761273D01*
X134614235Y-82785071D01*
X134605970Y-82808171D01*
X134595480Y-82830349D01*
X134582867Y-82851393D01*
X134568253Y-82871098D01*
X134551777Y-82889277D01*
X134533598Y-82905753D01*
X134513893Y-82920367D01*
X134492849Y-82932980D01*
X134470671Y-82943470D01*
X134447571Y-82951735D01*
X134423773Y-82957696D01*
X134399504Y-82961296D01*
X134375000Y-82962500D01*
X133125000Y-82962500D01*
X133100496Y-82961296D01*
X133076227Y-82957696D01*
X133052429Y-82951735D01*
X133029329Y-82943470D01*
X133007151Y-82932980D01*
X132986107Y-82920367D01*
X132966402Y-82905753D01*
X132948223Y-82889277D01*
X132931747Y-82871098D01*
X132917133Y-82851393D01*
X132904520Y-82830349D01*
X132894030Y-82808171D01*
X132885765Y-82785071D01*
X132879804Y-82761273D01*
X132876204Y-82737004D01*
X132875000Y-82712500D01*
X132875000Y-81787500D01*
X132876204Y-81762996D01*
X132879804Y-81738727D01*
X132885765Y-81714929D01*
X132894030Y-81691829D01*
X132904520Y-81669651D01*
X132917133Y-81648607D01*
X132931747Y-81628902D01*
X132948223Y-81610723D01*
X132966402Y-81594247D01*
X132986107Y-81579633D01*
X133007151Y-81567020D01*
X133029329Y-81556530D01*
X133052429Y-81548265D01*
X133076227Y-81542304D01*
X133100496Y-81538704D01*
X133125000Y-81537500D01*
X134375000Y-81537500D01*
X134399504Y-81538704D01*
X134399504Y-81538704D01*
G37*
D13*
X133750000Y-82250000D03*
D12*
G36*
X134399504Y-84513704D02*
X134423773Y-84517304D01*
X134447571Y-84523265D01*
X134470671Y-84531530D01*
X134492849Y-84542020D01*
X134513893Y-84554633D01*
X134533598Y-84569247D01*
X134551777Y-84585723D01*
X134568253Y-84603902D01*
X134582867Y-84623607D01*
X134595480Y-84644651D01*
X134605970Y-84666829D01*
X134614235Y-84689929D01*
X134620196Y-84713727D01*
X134623796Y-84737996D01*
X134625000Y-84762500D01*
X134625000Y-85687500D01*
X134623796Y-85712004D01*
X134620196Y-85736273D01*
X134614235Y-85760071D01*
X134605970Y-85783171D01*
X134595480Y-85805349D01*
X134582867Y-85826393D01*
X134568253Y-85846098D01*
X134551777Y-85864277D01*
X134533598Y-85880753D01*
X134513893Y-85895367D01*
X134492849Y-85907980D01*
X134470671Y-85918470D01*
X134447571Y-85926735D01*
X134423773Y-85932696D01*
X134399504Y-85936296D01*
X134375000Y-85937500D01*
X133125000Y-85937500D01*
X133100496Y-85936296D01*
X133076227Y-85932696D01*
X133052429Y-85926735D01*
X133029329Y-85918470D01*
X133007151Y-85907980D01*
X132986107Y-85895367D01*
X132966402Y-85880753D01*
X132948223Y-85864277D01*
X132931747Y-85846098D01*
X132917133Y-85826393D01*
X132904520Y-85805349D01*
X132894030Y-85783171D01*
X132885765Y-85760071D01*
X132879804Y-85736273D01*
X132876204Y-85712004D01*
X132875000Y-85687500D01*
X132875000Y-84762500D01*
X132876204Y-84737996D01*
X132879804Y-84713727D01*
X132885765Y-84689929D01*
X132894030Y-84666829D01*
X132904520Y-84644651D01*
X132917133Y-84623607D01*
X132931747Y-84603902D01*
X132948223Y-84585723D01*
X132966402Y-84569247D01*
X132986107Y-84554633D01*
X133007151Y-84542020D01*
X133029329Y-84531530D01*
X133052429Y-84523265D01*
X133076227Y-84517304D01*
X133100496Y-84513704D01*
X133125000Y-84512500D01*
X134375000Y-84512500D01*
X134399504Y-84513704D01*
X134399504Y-84513704D01*
G37*
D13*
X133750000Y-85225000D03*
G04 #@! TD*
D18*
G04 #@! TO.C,U4*
X158450000Y-78250000D03*
X158450000Y-77750000D03*
X158450000Y-77250000D03*
X158450000Y-76750000D03*
X158450000Y-76250000D03*
X154050000Y-76250000D03*
X154050000Y-76750000D03*
X154050000Y-77250000D03*
X154050000Y-77750000D03*
X154050000Y-78250000D03*
G04 #@! TD*
D19*
G04 #@! TO.C,U3*
X122160000Y-57720000D03*
X123430000Y-57720000D03*
X124700000Y-57720000D03*
X125970000Y-57720000D03*
X127240000Y-57720000D03*
X128510000Y-57720000D03*
X129780000Y-57720000D03*
X131050000Y-57720000D03*
X132320000Y-57720000D03*
X133590000Y-57720000D03*
X134860000Y-57720000D03*
X136130000Y-57720000D03*
X137400000Y-57720000D03*
X138670000Y-57720000D03*
X139970000Y-57750000D03*
X141240000Y-57750000D03*
X142510000Y-57750000D03*
X143780000Y-57750000D03*
X145050000Y-57750000D03*
X145050000Y-75750000D03*
X143780000Y-75750000D03*
X142510000Y-75750000D03*
X141240000Y-75750000D03*
X139970000Y-75750000D03*
X138670000Y-75750000D03*
X137400000Y-75750000D03*
X136130000Y-75750000D03*
X134860000Y-75750000D03*
X133590000Y-75750000D03*
X132320000Y-75750000D03*
X131050000Y-75750000D03*
X129780000Y-75750000D03*
X128510000Y-75750000D03*
X127240000Y-75750000D03*
X125970000Y-75750000D03*
X124700000Y-75750000D03*
X123430000Y-75750000D03*
X122160000Y-75750000D03*
D20*
X129080000Y-67150000D03*
G04 #@! TD*
D12*
G04 #@! TO.C,R2*
G36*
X153797493Y-66060280D02*
X153821762Y-66063880D01*
X153845560Y-66069841D01*
X153868660Y-66078106D01*
X153890838Y-66088596D01*
X153911882Y-66101209D01*
X153931587Y-66115823D01*
X153949766Y-66132299D01*
X153966242Y-66150478D01*
X153980856Y-66170183D01*
X153993469Y-66191227D01*
X154003959Y-66213405D01*
X154012224Y-66236505D01*
X154018185Y-66260303D01*
X154021785Y-66284572D01*
X154022989Y-66309076D01*
X154022989Y-67559076D01*
X154021785Y-67583580D01*
X154018185Y-67607849D01*
X154012224Y-67631647D01*
X154003959Y-67654747D01*
X153993469Y-67676925D01*
X153980856Y-67697969D01*
X153966242Y-67717674D01*
X153949766Y-67735853D01*
X153931587Y-67752329D01*
X153911882Y-67766943D01*
X153890838Y-67779556D01*
X153868660Y-67790046D01*
X153845560Y-67798311D01*
X153821762Y-67804272D01*
X153797493Y-67807872D01*
X153772989Y-67809076D01*
X152847989Y-67809076D01*
X152823485Y-67807872D01*
X152799216Y-67804272D01*
X152775418Y-67798311D01*
X152752318Y-67790046D01*
X152730140Y-67779556D01*
X152709096Y-67766943D01*
X152689391Y-67752329D01*
X152671212Y-67735853D01*
X152654736Y-67717674D01*
X152640122Y-67697969D01*
X152627509Y-67676925D01*
X152617019Y-67654747D01*
X152608754Y-67631647D01*
X152602793Y-67607849D01*
X152599193Y-67583580D01*
X152597989Y-67559076D01*
X152597989Y-66309076D01*
X152599193Y-66284572D01*
X152602793Y-66260303D01*
X152608754Y-66236505D01*
X152617019Y-66213405D01*
X152627509Y-66191227D01*
X152640122Y-66170183D01*
X152654736Y-66150478D01*
X152671212Y-66132299D01*
X152689391Y-66115823D01*
X152709096Y-66101209D01*
X152730140Y-66088596D01*
X152752318Y-66078106D01*
X152775418Y-66069841D01*
X152799216Y-66063880D01*
X152823485Y-66060280D01*
X152847989Y-66059076D01*
X153772989Y-66059076D01*
X153797493Y-66060280D01*
X153797493Y-66060280D01*
G37*
D13*
X153310489Y-66934076D03*
D12*
G36*
X156772493Y-66060280D02*
X156796762Y-66063880D01*
X156820560Y-66069841D01*
X156843660Y-66078106D01*
X156865838Y-66088596D01*
X156886882Y-66101209D01*
X156906587Y-66115823D01*
X156924766Y-66132299D01*
X156941242Y-66150478D01*
X156955856Y-66170183D01*
X156968469Y-66191227D01*
X156978959Y-66213405D01*
X156987224Y-66236505D01*
X156993185Y-66260303D01*
X156996785Y-66284572D01*
X156997989Y-66309076D01*
X156997989Y-67559076D01*
X156996785Y-67583580D01*
X156993185Y-67607849D01*
X156987224Y-67631647D01*
X156978959Y-67654747D01*
X156968469Y-67676925D01*
X156955856Y-67697969D01*
X156941242Y-67717674D01*
X156924766Y-67735853D01*
X156906587Y-67752329D01*
X156886882Y-67766943D01*
X156865838Y-67779556D01*
X156843660Y-67790046D01*
X156820560Y-67798311D01*
X156796762Y-67804272D01*
X156772493Y-67807872D01*
X156747989Y-67809076D01*
X155822989Y-67809076D01*
X155798485Y-67807872D01*
X155774216Y-67804272D01*
X155750418Y-67798311D01*
X155727318Y-67790046D01*
X155705140Y-67779556D01*
X155684096Y-67766943D01*
X155664391Y-67752329D01*
X155646212Y-67735853D01*
X155629736Y-67717674D01*
X155615122Y-67697969D01*
X155602509Y-67676925D01*
X155592019Y-67654747D01*
X155583754Y-67631647D01*
X155577793Y-67607849D01*
X155574193Y-67583580D01*
X155572989Y-67559076D01*
X155572989Y-66309076D01*
X155574193Y-66284572D01*
X155577793Y-66260303D01*
X155583754Y-66236505D01*
X155592019Y-66213405D01*
X155602509Y-66191227D01*
X155615122Y-66170183D01*
X155629736Y-66150478D01*
X155646212Y-66132299D01*
X155664391Y-66115823D01*
X155684096Y-66101209D01*
X155705140Y-66088596D01*
X155727318Y-66078106D01*
X155750418Y-66069841D01*
X155774216Y-66063880D01*
X155798485Y-66060280D01*
X155822989Y-66059076D01*
X156747989Y-66059076D01*
X156772493Y-66060280D01*
X156772493Y-66060280D01*
G37*
D13*
X156285489Y-66934076D03*
G04 #@! TD*
D12*
G04 #@! TO.C,R24*
G36*
X170399504Y-103038704D02*
X170423773Y-103042304D01*
X170447571Y-103048265D01*
X170470671Y-103056530D01*
X170492849Y-103067020D01*
X170513893Y-103079633D01*
X170533598Y-103094247D01*
X170551777Y-103110723D01*
X170568253Y-103128902D01*
X170582867Y-103148607D01*
X170595480Y-103169651D01*
X170605970Y-103191829D01*
X170614235Y-103214929D01*
X170620196Y-103238727D01*
X170623796Y-103262996D01*
X170625000Y-103287500D01*
X170625000Y-104212500D01*
X170623796Y-104237004D01*
X170620196Y-104261273D01*
X170614235Y-104285071D01*
X170605970Y-104308171D01*
X170595480Y-104330349D01*
X170582867Y-104351393D01*
X170568253Y-104371098D01*
X170551777Y-104389277D01*
X170533598Y-104405753D01*
X170513893Y-104420367D01*
X170492849Y-104432980D01*
X170470671Y-104443470D01*
X170447571Y-104451735D01*
X170423773Y-104457696D01*
X170399504Y-104461296D01*
X170375000Y-104462500D01*
X169125000Y-104462500D01*
X169100496Y-104461296D01*
X169076227Y-104457696D01*
X169052429Y-104451735D01*
X169029329Y-104443470D01*
X169007151Y-104432980D01*
X168986107Y-104420367D01*
X168966402Y-104405753D01*
X168948223Y-104389277D01*
X168931747Y-104371098D01*
X168917133Y-104351393D01*
X168904520Y-104330349D01*
X168894030Y-104308171D01*
X168885765Y-104285071D01*
X168879804Y-104261273D01*
X168876204Y-104237004D01*
X168875000Y-104212500D01*
X168875000Y-103287500D01*
X168876204Y-103262996D01*
X168879804Y-103238727D01*
X168885765Y-103214929D01*
X168894030Y-103191829D01*
X168904520Y-103169651D01*
X168917133Y-103148607D01*
X168931747Y-103128902D01*
X168948223Y-103110723D01*
X168966402Y-103094247D01*
X168986107Y-103079633D01*
X169007151Y-103067020D01*
X169029329Y-103056530D01*
X169052429Y-103048265D01*
X169076227Y-103042304D01*
X169100496Y-103038704D01*
X169125000Y-103037500D01*
X170375000Y-103037500D01*
X170399504Y-103038704D01*
X170399504Y-103038704D01*
G37*
D13*
X169750000Y-103750000D03*
D12*
G36*
X170399504Y-100063704D02*
X170423773Y-100067304D01*
X170447571Y-100073265D01*
X170470671Y-100081530D01*
X170492849Y-100092020D01*
X170513893Y-100104633D01*
X170533598Y-100119247D01*
X170551777Y-100135723D01*
X170568253Y-100153902D01*
X170582867Y-100173607D01*
X170595480Y-100194651D01*
X170605970Y-100216829D01*
X170614235Y-100239929D01*
X170620196Y-100263727D01*
X170623796Y-100287996D01*
X170625000Y-100312500D01*
X170625000Y-101237500D01*
X170623796Y-101262004D01*
X170620196Y-101286273D01*
X170614235Y-101310071D01*
X170605970Y-101333171D01*
X170595480Y-101355349D01*
X170582867Y-101376393D01*
X170568253Y-101396098D01*
X170551777Y-101414277D01*
X170533598Y-101430753D01*
X170513893Y-101445367D01*
X170492849Y-101457980D01*
X170470671Y-101468470D01*
X170447571Y-101476735D01*
X170423773Y-101482696D01*
X170399504Y-101486296D01*
X170375000Y-101487500D01*
X169125000Y-101487500D01*
X169100496Y-101486296D01*
X169076227Y-101482696D01*
X169052429Y-101476735D01*
X169029329Y-101468470D01*
X169007151Y-101457980D01*
X168986107Y-101445367D01*
X168966402Y-101430753D01*
X168948223Y-101414277D01*
X168931747Y-101396098D01*
X168917133Y-101376393D01*
X168904520Y-101355349D01*
X168894030Y-101333171D01*
X168885765Y-101310071D01*
X168879804Y-101286273D01*
X168876204Y-101262004D01*
X168875000Y-101237500D01*
X168875000Y-100312500D01*
X168876204Y-100287996D01*
X168879804Y-100263727D01*
X168885765Y-100239929D01*
X168894030Y-100216829D01*
X168904520Y-100194651D01*
X168917133Y-100173607D01*
X168931747Y-100153902D01*
X168948223Y-100135723D01*
X168966402Y-100119247D01*
X168986107Y-100104633D01*
X169007151Y-100092020D01*
X169029329Y-100081530D01*
X169052429Y-100073265D01*
X169076227Y-100067304D01*
X169100496Y-100063704D01*
X169125000Y-100062500D01*
X170375000Y-100062500D01*
X170399504Y-100063704D01*
X170399504Y-100063704D01*
G37*
D13*
X169750000Y-100775000D03*
G04 #@! TD*
D12*
G04 #@! TO.C,R23*
G36*
X134399504Y-87038704D02*
X134423773Y-87042304D01*
X134447571Y-87048265D01*
X134470671Y-87056530D01*
X134492849Y-87067020D01*
X134513893Y-87079633D01*
X134533598Y-87094247D01*
X134551777Y-87110723D01*
X134568253Y-87128902D01*
X134582867Y-87148607D01*
X134595480Y-87169651D01*
X134605970Y-87191829D01*
X134614235Y-87214929D01*
X134620196Y-87238727D01*
X134623796Y-87262996D01*
X134625000Y-87287500D01*
X134625000Y-88212500D01*
X134623796Y-88237004D01*
X134620196Y-88261273D01*
X134614235Y-88285071D01*
X134605970Y-88308171D01*
X134595480Y-88330349D01*
X134582867Y-88351393D01*
X134568253Y-88371098D01*
X134551777Y-88389277D01*
X134533598Y-88405753D01*
X134513893Y-88420367D01*
X134492849Y-88432980D01*
X134470671Y-88443470D01*
X134447571Y-88451735D01*
X134423773Y-88457696D01*
X134399504Y-88461296D01*
X134375000Y-88462500D01*
X133125000Y-88462500D01*
X133100496Y-88461296D01*
X133076227Y-88457696D01*
X133052429Y-88451735D01*
X133029329Y-88443470D01*
X133007151Y-88432980D01*
X132986107Y-88420367D01*
X132966402Y-88405753D01*
X132948223Y-88389277D01*
X132931747Y-88371098D01*
X132917133Y-88351393D01*
X132904520Y-88330349D01*
X132894030Y-88308171D01*
X132885765Y-88285071D01*
X132879804Y-88261273D01*
X132876204Y-88237004D01*
X132875000Y-88212500D01*
X132875000Y-87287500D01*
X132876204Y-87262996D01*
X132879804Y-87238727D01*
X132885765Y-87214929D01*
X132894030Y-87191829D01*
X132904520Y-87169651D01*
X132917133Y-87148607D01*
X132931747Y-87128902D01*
X132948223Y-87110723D01*
X132966402Y-87094247D01*
X132986107Y-87079633D01*
X133007151Y-87067020D01*
X133029329Y-87056530D01*
X133052429Y-87048265D01*
X133076227Y-87042304D01*
X133100496Y-87038704D01*
X133125000Y-87037500D01*
X134375000Y-87037500D01*
X134399504Y-87038704D01*
X134399504Y-87038704D01*
G37*
D13*
X133750000Y-87750000D03*
D12*
G36*
X134399504Y-90013704D02*
X134423773Y-90017304D01*
X134447571Y-90023265D01*
X134470671Y-90031530D01*
X134492849Y-90042020D01*
X134513893Y-90054633D01*
X134533598Y-90069247D01*
X134551777Y-90085723D01*
X134568253Y-90103902D01*
X134582867Y-90123607D01*
X134595480Y-90144651D01*
X134605970Y-90166829D01*
X134614235Y-90189929D01*
X134620196Y-90213727D01*
X134623796Y-90237996D01*
X134625000Y-90262500D01*
X134625000Y-91187500D01*
X134623796Y-91212004D01*
X134620196Y-91236273D01*
X134614235Y-91260071D01*
X134605970Y-91283171D01*
X134595480Y-91305349D01*
X134582867Y-91326393D01*
X134568253Y-91346098D01*
X134551777Y-91364277D01*
X134533598Y-91380753D01*
X134513893Y-91395367D01*
X134492849Y-91407980D01*
X134470671Y-91418470D01*
X134447571Y-91426735D01*
X134423773Y-91432696D01*
X134399504Y-91436296D01*
X134375000Y-91437500D01*
X133125000Y-91437500D01*
X133100496Y-91436296D01*
X133076227Y-91432696D01*
X133052429Y-91426735D01*
X133029329Y-91418470D01*
X133007151Y-91407980D01*
X132986107Y-91395367D01*
X132966402Y-91380753D01*
X132948223Y-91364277D01*
X132931747Y-91346098D01*
X132917133Y-91326393D01*
X132904520Y-91305349D01*
X132894030Y-91283171D01*
X132885765Y-91260071D01*
X132879804Y-91236273D01*
X132876204Y-91212004D01*
X132875000Y-91187500D01*
X132875000Y-90262500D01*
X132876204Y-90237996D01*
X132879804Y-90213727D01*
X132885765Y-90189929D01*
X132894030Y-90166829D01*
X132904520Y-90144651D01*
X132917133Y-90123607D01*
X132931747Y-90103902D01*
X132948223Y-90085723D01*
X132966402Y-90069247D01*
X132986107Y-90054633D01*
X133007151Y-90042020D01*
X133029329Y-90031530D01*
X133052429Y-90023265D01*
X133076227Y-90017304D01*
X133100496Y-90013704D01*
X133125000Y-90012500D01*
X134375000Y-90012500D01*
X134399504Y-90013704D01*
X134399504Y-90013704D01*
G37*
D13*
X133750000Y-90725000D03*
G04 #@! TD*
D12*
G04 #@! TO.C,R22*
G36*
X137399504Y-90038704D02*
X137423773Y-90042304D01*
X137447571Y-90048265D01*
X137470671Y-90056530D01*
X137492849Y-90067020D01*
X137513893Y-90079633D01*
X137533598Y-90094247D01*
X137551777Y-90110723D01*
X137568253Y-90128902D01*
X137582867Y-90148607D01*
X137595480Y-90169651D01*
X137605970Y-90191829D01*
X137614235Y-90214929D01*
X137620196Y-90238727D01*
X137623796Y-90262996D01*
X137625000Y-90287500D01*
X137625000Y-91212500D01*
X137623796Y-91237004D01*
X137620196Y-91261273D01*
X137614235Y-91285071D01*
X137605970Y-91308171D01*
X137595480Y-91330349D01*
X137582867Y-91351393D01*
X137568253Y-91371098D01*
X137551777Y-91389277D01*
X137533598Y-91405753D01*
X137513893Y-91420367D01*
X137492849Y-91432980D01*
X137470671Y-91443470D01*
X137447571Y-91451735D01*
X137423773Y-91457696D01*
X137399504Y-91461296D01*
X137375000Y-91462500D01*
X136125000Y-91462500D01*
X136100496Y-91461296D01*
X136076227Y-91457696D01*
X136052429Y-91451735D01*
X136029329Y-91443470D01*
X136007151Y-91432980D01*
X135986107Y-91420367D01*
X135966402Y-91405753D01*
X135948223Y-91389277D01*
X135931747Y-91371098D01*
X135917133Y-91351393D01*
X135904520Y-91330349D01*
X135894030Y-91308171D01*
X135885765Y-91285071D01*
X135879804Y-91261273D01*
X135876204Y-91237004D01*
X135875000Y-91212500D01*
X135875000Y-90287500D01*
X135876204Y-90262996D01*
X135879804Y-90238727D01*
X135885765Y-90214929D01*
X135894030Y-90191829D01*
X135904520Y-90169651D01*
X135917133Y-90148607D01*
X135931747Y-90128902D01*
X135948223Y-90110723D01*
X135966402Y-90094247D01*
X135986107Y-90079633D01*
X136007151Y-90067020D01*
X136029329Y-90056530D01*
X136052429Y-90048265D01*
X136076227Y-90042304D01*
X136100496Y-90038704D01*
X136125000Y-90037500D01*
X137375000Y-90037500D01*
X137399504Y-90038704D01*
X137399504Y-90038704D01*
G37*
D13*
X136750000Y-90750000D03*
D12*
G36*
X137399504Y-87063704D02*
X137423773Y-87067304D01*
X137447571Y-87073265D01*
X137470671Y-87081530D01*
X137492849Y-87092020D01*
X137513893Y-87104633D01*
X137533598Y-87119247D01*
X137551777Y-87135723D01*
X137568253Y-87153902D01*
X137582867Y-87173607D01*
X137595480Y-87194651D01*
X137605970Y-87216829D01*
X137614235Y-87239929D01*
X137620196Y-87263727D01*
X137623796Y-87287996D01*
X137625000Y-87312500D01*
X137625000Y-88237500D01*
X137623796Y-88262004D01*
X137620196Y-88286273D01*
X137614235Y-88310071D01*
X137605970Y-88333171D01*
X137595480Y-88355349D01*
X137582867Y-88376393D01*
X137568253Y-88396098D01*
X137551777Y-88414277D01*
X137533598Y-88430753D01*
X137513893Y-88445367D01*
X137492849Y-88457980D01*
X137470671Y-88468470D01*
X137447571Y-88476735D01*
X137423773Y-88482696D01*
X137399504Y-88486296D01*
X137375000Y-88487500D01*
X136125000Y-88487500D01*
X136100496Y-88486296D01*
X136076227Y-88482696D01*
X136052429Y-88476735D01*
X136029329Y-88468470D01*
X136007151Y-88457980D01*
X135986107Y-88445367D01*
X135966402Y-88430753D01*
X135948223Y-88414277D01*
X135931747Y-88396098D01*
X135917133Y-88376393D01*
X135904520Y-88355349D01*
X135894030Y-88333171D01*
X135885765Y-88310071D01*
X135879804Y-88286273D01*
X135876204Y-88262004D01*
X135875000Y-88237500D01*
X135875000Y-87312500D01*
X135876204Y-87287996D01*
X135879804Y-87263727D01*
X135885765Y-87239929D01*
X135894030Y-87216829D01*
X135904520Y-87194651D01*
X135917133Y-87173607D01*
X135931747Y-87153902D01*
X135948223Y-87135723D01*
X135966402Y-87119247D01*
X135986107Y-87104633D01*
X136007151Y-87092020D01*
X136029329Y-87081530D01*
X136052429Y-87073265D01*
X136076227Y-87067304D01*
X136100496Y-87063704D01*
X136125000Y-87062500D01*
X137375000Y-87062500D01*
X137399504Y-87063704D01*
X137399504Y-87063704D01*
G37*
D13*
X136750000Y-87775000D03*
G04 #@! TD*
D12*
G04 #@! TO.C,R21*
G36*
X151649504Y-57038704D02*
X151673773Y-57042304D01*
X151697571Y-57048265D01*
X151720671Y-57056530D01*
X151742849Y-57067020D01*
X151763893Y-57079633D01*
X151783598Y-57094247D01*
X151801777Y-57110723D01*
X151818253Y-57128902D01*
X151832867Y-57148607D01*
X151845480Y-57169651D01*
X151855970Y-57191829D01*
X151864235Y-57214929D01*
X151870196Y-57238727D01*
X151873796Y-57262996D01*
X151875000Y-57287500D01*
X151875000Y-58212500D01*
X151873796Y-58237004D01*
X151870196Y-58261273D01*
X151864235Y-58285071D01*
X151855970Y-58308171D01*
X151845480Y-58330349D01*
X151832867Y-58351393D01*
X151818253Y-58371098D01*
X151801777Y-58389277D01*
X151783598Y-58405753D01*
X151763893Y-58420367D01*
X151742849Y-58432980D01*
X151720671Y-58443470D01*
X151697571Y-58451735D01*
X151673773Y-58457696D01*
X151649504Y-58461296D01*
X151625000Y-58462500D01*
X150375000Y-58462500D01*
X150350496Y-58461296D01*
X150326227Y-58457696D01*
X150302429Y-58451735D01*
X150279329Y-58443470D01*
X150257151Y-58432980D01*
X150236107Y-58420367D01*
X150216402Y-58405753D01*
X150198223Y-58389277D01*
X150181747Y-58371098D01*
X150167133Y-58351393D01*
X150154520Y-58330349D01*
X150144030Y-58308171D01*
X150135765Y-58285071D01*
X150129804Y-58261273D01*
X150126204Y-58237004D01*
X150125000Y-58212500D01*
X150125000Y-57287500D01*
X150126204Y-57262996D01*
X150129804Y-57238727D01*
X150135765Y-57214929D01*
X150144030Y-57191829D01*
X150154520Y-57169651D01*
X150167133Y-57148607D01*
X150181747Y-57128902D01*
X150198223Y-57110723D01*
X150216402Y-57094247D01*
X150236107Y-57079633D01*
X150257151Y-57067020D01*
X150279329Y-57056530D01*
X150302429Y-57048265D01*
X150326227Y-57042304D01*
X150350496Y-57038704D01*
X150375000Y-57037500D01*
X151625000Y-57037500D01*
X151649504Y-57038704D01*
X151649504Y-57038704D01*
G37*
D13*
X151000000Y-57750000D03*
D12*
G36*
X151649504Y-54063704D02*
X151673773Y-54067304D01*
X151697571Y-54073265D01*
X151720671Y-54081530D01*
X151742849Y-54092020D01*
X151763893Y-54104633D01*
X151783598Y-54119247D01*
X151801777Y-54135723D01*
X151818253Y-54153902D01*
X151832867Y-54173607D01*
X151845480Y-54194651D01*
X151855970Y-54216829D01*
X151864235Y-54239929D01*
X151870196Y-54263727D01*
X151873796Y-54287996D01*
X151875000Y-54312500D01*
X151875000Y-55237500D01*
X151873796Y-55262004D01*
X151870196Y-55286273D01*
X151864235Y-55310071D01*
X151855970Y-55333171D01*
X151845480Y-55355349D01*
X151832867Y-55376393D01*
X151818253Y-55396098D01*
X151801777Y-55414277D01*
X151783598Y-55430753D01*
X151763893Y-55445367D01*
X151742849Y-55457980D01*
X151720671Y-55468470D01*
X151697571Y-55476735D01*
X151673773Y-55482696D01*
X151649504Y-55486296D01*
X151625000Y-55487500D01*
X150375000Y-55487500D01*
X150350496Y-55486296D01*
X150326227Y-55482696D01*
X150302429Y-55476735D01*
X150279329Y-55468470D01*
X150257151Y-55457980D01*
X150236107Y-55445367D01*
X150216402Y-55430753D01*
X150198223Y-55414277D01*
X150181747Y-55396098D01*
X150167133Y-55376393D01*
X150154520Y-55355349D01*
X150144030Y-55333171D01*
X150135765Y-55310071D01*
X150129804Y-55286273D01*
X150126204Y-55262004D01*
X150125000Y-55237500D01*
X150125000Y-54312500D01*
X150126204Y-54287996D01*
X150129804Y-54263727D01*
X150135765Y-54239929D01*
X150144030Y-54216829D01*
X150154520Y-54194651D01*
X150167133Y-54173607D01*
X150181747Y-54153902D01*
X150198223Y-54135723D01*
X150216402Y-54119247D01*
X150236107Y-54104633D01*
X150257151Y-54092020D01*
X150279329Y-54081530D01*
X150302429Y-54073265D01*
X150326227Y-54067304D01*
X150350496Y-54063704D01*
X150375000Y-54062500D01*
X151625000Y-54062500D01*
X151649504Y-54063704D01*
X151649504Y-54063704D01*
G37*
D13*
X151000000Y-54775000D03*
G04 #@! TD*
D12*
G04 #@! TO.C,R20*
G36*
X174474504Y-93126204D02*
X174498773Y-93129804D01*
X174522571Y-93135765D01*
X174545671Y-93144030D01*
X174567849Y-93154520D01*
X174588893Y-93167133D01*
X174608598Y-93181747D01*
X174626777Y-93198223D01*
X174643253Y-93216402D01*
X174657867Y-93236107D01*
X174670480Y-93257151D01*
X174680970Y-93279329D01*
X174689235Y-93302429D01*
X174695196Y-93326227D01*
X174698796Y-93350496D01*
X174700000Y-93375000D01*
X174700000Y-94625000D01*
X174698796Y-94649504D01*
X174695196Y-94673773D01*
X174689235Y-94697571D01*
X174680970Y-94720671D01*
X174670480Y-94742849D01*
X174657867Y-94763893D01*
X174643253Y-94783598D01*
X174626777Y-94801777D01*
X174608598Y-94818253D01*
X174588893Y-94832867D01*
X174567849Y-94845480D01*
X174545671Y-94855970D01*
X174522571Y-94864235D01*
X174498773Y-94870196D01*
X174474504Y-94873796D01*
X174450000Y-94875000D01*
X173525000Y-94875000D01*
X173500496Y-94873796D01*
X173476227Y-94870196D01*
X173452429Y-94864235D01*
X173429329Y-94855970D01*
X173407151Y-94845480D01*
X173386107Y-94832867D01*
X173366402Y-94818253D01*
X173348223Y-94801777D01*
X173331747Y-94783598D01*
X173317133Y-94763893D01*
X173304520Y-94742849D01*
X173294030Y-94720671D01*
X173285765Y-94697571D01*
X173279804Y-94673773D01*
X173276204Y-94649504D01*
X173275000Y-94625000D01*
X173275000Y-93375000D01*
X173276204Y-93350496D01*
X173279804Y-93326227D01*
X173285765Y-93302429D01*
X173294030Y-93279329D01*
X173304520Y-93257151D01*
X173317133Y-93236107D01*
X173331747Y-93216402D01*
X173348223Y-93198223D01*
X173366402Y-93181747D01*
X173386107Y-93167133D01*
X173407151Y-93154520D01*
X173429329Y-93144030D01*
X173452429Y-93135765D01*
X173476227Y-93129804D01*
X173500496Y-93126204D01*
X173525000Y-93125000D01*
X174450000Y-93125000D01*
X174474504Y-93126204D01*
X174474504Y-93126204D01*
G37*
D13*
X173987500Y-94000000D03*
D12*
G36*
X171499504Y-93126204D02*
X171523773Y-93129804D01*
X171547571Y-93135765D01*
X171570671Y-93144030D01*
X171592849Y-93154520D01*
X171613893Y-93167133D01*
X171633598Y-93181747D01*
X171651777Y-93198223D01*
X171668253Y-93216402D01*
X171682867Y-93236107D01*
X171695480Y-93257151D01*
X171705970Y-93279329D01*
X171714235Y-93302429D01*
X171720196Y-93326227D01*
X171723796Y-93350496D01*
X171725000Y-93375000D01*
X171725000Y-94625000D01*
X171723796Y-94649504D01*
X171720196Y-94673773D01*
X171714235Y-94697571D01*
X171705970Y-94720671D01*
X171695480Y-94742849D01*
X171682867Y-94763893D01*
X171668253Y-94783598D01*
X171651777Y-94801777D01*
X171633598Y-94818253D01*
X171613893Y-94832867D01*
X171592849Y-94845480D01*
X171570671Y-94855970D01*
X171547571Y-94864235D01*
X171523773Y-94870196D01*
X171499504Y-94873796D01*
X171475000Y-94875000D01*
X170550000Y-94875000D01*
X170525496Y-94873796D01*
X170501227Y-94870196D01*
X170477429Y-94864235D01*
X170454329Y-94855970D01*
X170432151Y-94845480D01*
X170411107Y-94832867D01*
X170391402Y-94818253D01*
X170373223Y-94801777D01*
X170356747Y-94783598D01*
X170342133Y-94763893D01*
X170329520Y-94742849D01*
X170319030Y-94720671D01*
X170310765Y-94697571D01*
X170304804Y-94673773D01*
X170301204Y-94649504D01*
X170300000Y-94625000D01*
X170300000Y-93375000D01*
X170301204Y-93350496D01*
X170304804Y-93326227D01*
X170310765Y-93302429D01*
X170319030Y-93279329D01*
X170329520Y-93257151D01*
X170342133Y-93236107D01*
X170356747Y-93216402D01*
X170373223Y-93198223D01*
X170391402Y-93181747D01*
X170411107Y-93167133D01*
X170432151Y-93154520D01*
X170454329Y-93144030D01*
X170477429Y-93135765D01*
X170501227Y-93129804D01*
X170525496Y-93126204D01*
X170550000Y-93125000D01*
X171475000Y-93125000D01*
X171499504Y-93126204D01*
X171499504Y-93126204D01*
G37*
D13*
X171012500Y-94000000D03*
G04 #@! TD*
D12*
G04 #@! TO.C,R19*
G36*
X164724504Y-85126204D02*
X164748773Y-85129804D01*
X164772571Y-85135765D01*
X164795671Y-85144030D01*
X164817849Y-85154520D01*
X164838893Y-85167133D01*
X164858598Y-85181747D01*
X164876777Y-85198223D01*
X164893253Y-85216402D01*
X164907867Y-85236107D01*
X164920480Y-85257151D01*
X164930970Y-85279329D01*
X164939235Y-85302429D01*
X164945196Y-85326227D01*
X164948796Y-85350496D01*
X164950000Y-85375000D01*
X164950000Y-86625000D01*
X164948796Y-86649504D01*
X164945196Y-86673773D01*
X164939235Y-86697571D01*
X164930970Y-86720671D01*
X164920480Y-86742849D01*
X164907867Y-86763893D01*
X164893253Y-86783598D01*
X164876777Y-86801777D01*
X164858598Y-86818253D01*
X164838893Y-86832867D01*
X164817849Y-86845480D01*
X164795671Y-86855970D01*
X164772571Y-86864235D01*
X164748773Y-86870196D01*
X164724504Y-86873796D01*
X164700000Y-86875000D01*
X163775000Y-86875000D01*
X163750496Y-86873796D01*
X163726227Y-86870196D01*
X163702429Y-86864235D01*
X163679329Y-86855970D01*
X163657151Y-86845480D01*
X163636107Y-86832867D01*
X163616402Y-86818253D01*
X163598223Y-86801777D01*
X163581747Y-86783598D01*
X163567133Y-86763893D01*
X163554520Y-86742849D01*
X163544030Y-86720671D01*
X163535765Y-86697571D01*
X163529804Y-86673773D01*
X163526204Y-86649504D01*
X163525000Y-86625000D01*
X163525000Y-85375000D01*
X163526204Y-85350496D01*
X163529804Y-85326227D01*
X163535765Y-85302429D01*
X163544030Y-85279329D01*
X163554520Y-85257151D01*
X163567133Y-85236107D01*
X163581747Y-85216402D01*
X163598223Y-85198223D01*
X163616402Y-85181747D01*
X163636107Y-85167133D01*
X163657151Y-85154520D01*
X163679329Y-85144030D01*
X163702429Y-85135765D01*
X163726227Y-85129804D01*
X163750496Y-85126204D01*
X163775000Y-85125000D01*
X164700000Y-85125000D01*
X164724504Y-85126204D01*
X164724504Y-85126204D01*
G37*
D13*
X164237500Y-86000000D03*
D12*
G36*
X161749504Y-85126204D02*
X161773773Y-85129804D01*
X161797571Y-85135765D01*
X161820671Y-85144030D01*
X161842849Y-85154520D01*
X161863893Y-85167133D01*
X161883598Y-85181747D01*
X161901777Y-85198223D01*
X161918253Y-85216402D01*
X161932867Y-85236107D01*
X161945480Y-85257151D01*
X161955970Y-85279329D01*
X161964235Y-85302429D01*
X161970196Y-85326227D01*
X161973796Y-85350496D01*
X161975000Y-85375000D01*
X161975000Y-86625000D01*
X161973796Y-86649504D01*
X161970196Y-86673773D01*
X161964235Y-86697571D01*
X161955970Y-86720671D01*
X161945480Y-86742849D01*
X161932867Y-86763893D01*
X161918253Y-86783598D01*
X161901777Y-86801777D01*
X161883598Y-86818253D01*
X161863893Y-86832867D01*
X161842849Y-86845480D01*
X161820671Y-86855970D01*
X161797571Y-86864235D01*
X161773773Y-86870196D01*
X161749504Y-86873796D01*
X161725000Y-86875000D01*
X160800000Y-86875000D01*
X160775496Y-86873796D01*
X160751227Y-86870196D01*
X160727429Y-86864235D01*
X160704329Y-86855970D01*
X160682151Y-86845480D01*
X160661107Y-86832867D01*
X160641402Y-86818253D01*
X160623223Y-86801777D01*
X160606747Y-86783598D01*
X160592133Y-86763893D01*
X160579520Y-86742849D01*
X160569030Y-86720671D01*
X160560765Y-86697571D01*
X160554804Y-86673773D01*
X160551204Y-86649504D01*
X160550000Y-86625000D01*
X160550000Y-85375000D01*
X160551204Y-85350496D01*
X160554804Y-85326227D01*
X160560765Y-85302429D01*
X160569030Y-85279329D01*
X160579520Y-85257151D01*
X160592133Y-85236107D01*
X160606747Y-85216402D01*
X160623223Y-85198223D01*
X160641402Y-85181747D01*
X160661107Y-85167133D01*
X160682151Y-85154520D01*
X160704329Y-85144030D01*
X160727429Y-85135765D01*
X160751227Y-85129804D01*
X160775496Y-85126204D01*
X160800000Y-85125000D01*
X161725000Y-85125000D01*
X161749504Y-85126204D01*
X161749504Y-85126204D01*
G37*
D13*
X161262500Y-86000000D03*
G04 #@! TD*
D12*
G04 #@! TO.C,R18*
G36*
X174474504Y-96376204D02*
X174498773Y-96379804D01*
X174522571Y-96385765D01*
X174545671Y-96394030D01*
X174567849Y-96404520D01*
X174588893Y-96417133D01*
X174608598Y-96431747D01*
X174626777Y-96448223D01*
X174643253Y-96466402D01*
X174657867Y-96486107D01*
X174670480Y-96507151D01*
X174680970Y-96529329D01*
X174689235Y-96552429D01*
X174695196Y-96576227D01*
X174698796Y-96600496D01*
X174700000Y-96625000D01*
X174700000Y-97875000D01*
X174698796Y-97899504D01*
X174695196Y-97923773D01*
X174689235Y-97947571D01*
X174680970Y-97970671D01*
X174670480Y-97992849D01*
X174657867Y-98013893D01*
X174643253Y-98033598D01*
X174626777Y-98051777D01*
X174608598Y-98068253D01*
X174588893Y-98082867D01*
X174567849Y-98095480D01*
X174545671Y-98105970D01*
X174522571Y-98114235D01*
X174498773Y-98120196D01*
X174474504Y-98123796D01*
X174450000Y-98125000D01*
X173525000Y-98125000D01*
X173500496Y-98123796D01*
X173476227Y-98120196D01*
X173452429Y-98114235D01*
X173429329Y-98105970D01*
X173407151Y-98095480D01*
X173386107Y-98082867D01*
X173366402Y-98068253D01*
X173348223Y-98051777D01*
X173331747Y-98033598D01*
X173317133Y-98013893D01*
X173304520Y-97992849D01*
X173294030Y-97970671D01*
X173285765Y-97947571D01*
X173279804Y-97923773D01*
X173276204Y-97899504D01*
X173275000Y-97875000D01*
X173275000Y-96625000D01*
X173276204Y-96600496D01*
X173279804Y-96576227D01*
X173285765Y-96552429D01*
X173294030Y-96529329D01*
X173304520Y-96507151D01*
X173317133Y-96486107D01*
X173331747Y-96466402D01*
X173348223Y-96448223D01*
X173366402Y-96431747D01*
X173386107Y-96417133D01*
X173407151Y-96404520D01*
X173429329Y-96394030D01*
X173452429Y-96385765D01*
X173476227Y-96379804D01*
X173500496Y-96376204D01*
X173525000Y-96375000D01*
X174450000Y-96375000D01*
X174474504Y-96376204D01*
X174474504Y-96376204D01*
G37*
D13*
X173987500Y-97250000D03*
D12*
G36*
X171499504Y-96376204D02*
X171523773Y-96379804D01*
X171547571Y-96385765D01*
X171570671Y-96394030D01*
X171592849Y-96404520D01*
X171613893Y-96417133D01*
X171633598Y-96431747D01*
X171651777Y-96448223D01*
X171668253Y-96466402D01*
X171682867Y-96486107D01*
X171695480Y-96507151D01*
X171705970Y-96529329D01*
X171714235Y-96552429D01*
X171720196Y-96576227D01*
X171723796Y-96600496D01*
X171725000Y-96625000D01*
X171725000Y-97875000D01*
X171723796Y-97899504D01*
X171720196Y-97923773D01*
X171714235Y-97947571D01*
X171705970Y-97970671D01*
X171695480Y-97992849D01*
X171682867Y-98013893D01*
X171668253Y-98033598D01*
X171651777Y-98051777D01*
X171633598Y-98068253D01*
X171613893Y-98082867D01*
X171592849Y-98095480D01*
X171570671Y-98105970D01*
X171547571Y-98114235D01*
X171523773Y-98120196D01*
X171499504Y-98123796D01*
X171475000Y-98125000D01*
X170550000Y-98125000D01*
X170525496Y-98123796D01*
X170501227Y-98120196D01*
X170477429Y-98114235D01*
X170454329Y-98105970D01*
X170432151Y-98095480D01*
X170411107Y-98082867D01*
X170391402Y-98068253D01*
X170373223Y-98051777D01*
X170356747Y-98033598D01*
X170342133Y-98013893D01*
X170329520Y-97992849D01*
X170319030Y-97970671D01*
X170310765Y-97947571D01*
X170304804Y-97923773D01*
X170301204Y-97899504D01*
X170300000Y-97875000D01*
X170300000Y-96625000D01*
X170301204Y-96600496D01*
X170304804Y-96576227D01*
X170310765Y-96552429D01*
X170319030Y-96529329D01*
X170329520Y-96507151D01*
X170342133Y-96486107D01*
X170356747Y-96466402D01*
X170373223Y-96448223D01*
X170391402Y-96431747D01*
X170411107Y-96417133D01*
X170432151Y-96404520D01*
X170454329Y-96394030D01*
X170477429Y-96385765D01*
X170501227Y-96379804D01*
X170525496Y-96376204D01*
X170550000Y-96375000D01*
X171475000Y-96375000D01*
X171499504Y-96376204D01*
X171499504Y-96376204D01*
G37*
D13*
X171012500Y-97250000D03*
G04 #@! TD*
D12*
G04 #@! TO.C,R17*
G36*
X163839790Y-71295997D02*
X163864059Y-71299597D01*
X163887857Y-71305558D01*
X163910957Y-71313823D01*
X163933135Y-71324313D01*
X163954179Y-71336926D01*
X163973884Y-71351540D01*
X163992063Y-71368016D01*
X164008539Y-71386195D01*
X164023153Y-71405900D01*
X164035766Y-71426944D01*
X164046256Y-71449122D01*
X164054521Y-71472222D01*
X164060482Y-71496020D01*
X164064082Y-71520289D01*
X164065286Y-71544793D01*
X164065286Y-72794793D01*
X164064082Y-72819297D01*
X164060482Y-72843566D01*
X164054521Y-72867364D01*
X164046256Y-72890464D01*
X164035766Y-72912642D01*
X164023153Y-72933686D01*
X164008539Y-72953391D01*
X163992063Y-72971570D01*
X163973884Y-72988046D01*
X163954179Y-73002660D01*
X163933135Y-73015273D01*
X163910957Y-73025763D01*
X163887857Y-73034028D01*
X163864059Y-73039989D01*
X163839790Y-73043589D01*
X163815286Y-73044793D01*
X162890286Y-73044793D01*
X162865782Y-73043589D01*
X162841513Y-73039989D01*
X162817715Y-73034028D01*
X162794615Y-73025763D01*
X162772437Y-73015273D01*
X162751393Y-73002660D01*
X162731688Y-72988046D01*
X162713509Y-72971570D01*
X162697033Y-72953391D01*
X162682419Y-72933686D01*
X162669806Y-72912642D01*
X162659316Y-72890464D01*
X162651051Y-72867364D01*
X162645090Y-72843566D01*
X162641490Y-72819297D01*
X162640286Y-72794793D01*
X162640286Y-71544793D01*
X162641490Y-71520289D01*
X162645090Y-71496020D01*
X162651051Y-71472222D01*
X162659316Y-71449122D01*
X162669806Y-71426944D01*
X162682419Y-71405900D01*
X162697033Y-71386195D01*
X162713509Y-71368016D01*
X162731688Y-71351540D01*
X162751393Y-71336926D01*
X162772437Y-71324313D01*
X162794615Y-71313823D01*
X162817715Y-71305558D01*
X162841513Y-71299597D01*
X162865782Y-71295997D01*
X162890286Y-71294793D01*
X163815286Y-71294793D01*
X163839790Y-71295997D01*
X163839790Y-71295997D01*
G37*
D13*
X163352786Y-72169793D03*
D12*
G36*
X160864790Y-71295997D02*
X160889059Y-71299597D01*
X160912857Y-71305558D01*
X160935957Y-71313823D01*
X160958135Y-71324313D01*
X160979179Y-71336926D01*
X160998884Y-71351540D01*
X161017063Y-71368016D01*
X161033539Y-71386195D01*
X161048153Y-71405900D01*
X161060766Y-71426944D01*
X161071256Y-71449122D01*
X161079521Y-71472222D01*
X161085482Y-71496020D01*
X161089082Y-71520289D01*
X161090286Y-71544793D01*
X161090286Y-72794793D01*
X161089082Y-72819297D01*
X161085482Y-72843566D01*
X161079521Y-72867364D01*
X161071256Y-72890464D01*
X161060766Y-72912642D01*
X161048153Y-72933686D01*
X161033539Y-72953391D01*
X161017063Y-72971570D01*
X160998884Y-72988046D01*
X160979179Y-73002660D01*
X160958135Y-73015273D01*
X160935957Y-73025763D01*
X160912857Y-73034028D01*
X160889059Y-73039989D01*
X160864790Y-73043589D01*
X160840286Y-73044793D01*
X159915286Y-73044793D01*
X159890782Y-73043589D01*
X159866513Y-73039989D01*
X159842715Y-73034028D01*
X159819615Y-73025763D01*
X159797437Y-73015273D01*
X159776393Y-73002660D01*
X159756688Y-72988046D01*
X159738509Y-72971570D01*
X159722033Y-72953391D01*
X159707419Y-72933686D01*
X159694806Y-72912642D01*
X159684316Y-72890464D01*
X159676051Y-72867364D01*
X159670090Y-72843566D01*
X159666490Y-72819297D01*
X159665286Y-72794793D01*
X159665286Y-71544793D01*
X159666490Y-71520289D01*
X159670090Y-71496020D01*
X159676051Y-71472222D01*
X159684316Y-71449122D01*
X159694806Y-71426944D01*
X159707419Y-71405900D01*
X159722033Y-71386195D01*
X159738509Y-71368016D01*
X159756688Y-71351540D01*
X159776393Y-71336926D01*
X159797437Y-71324313D01*
X159819615Y-71313823D01*
X159842715Y-71305558D01*
X159866513Y-71299597D01*
X159890782Y-71295997D01*
X159915286Y-71294793D01*
X160840286Y-71294793D01*
X160864790Y-71295997D01*
X160864790Y-71295997D01*
G37*
D13*
X160377786Y-72169793D03*
G04 #@! TD*
D12*
G04 #@! TO.C,R16*
G36*
X168149504Y-88263704D02*
X168173773Y-88267304D01*
X168197571Y-88273265D01*
X168220671Y-88281530D01*
X168242849Y-88292020D01*
X168263893Y-88304633D01*
X168283598Y-88319247D01*
X168301777Y-88335723D01*
X168318253Y-88353902D01*
X168332867Y-88373607D01*
X168345480Y-88394651D01*
X168355970Y-88416829D01*
X168364235Y-88439929D01*
X168370196Y-88463727D01*
X168373796Y-88487996D01*
X168375000Y-88512500D01*
X168375000Y-89437500D01*
X168373796Y-89462004D01*
X168370196Y-89486273D01*
X168364235Y-89510071D01*
X168355970Y-89533171D01*
X168345480Y-89555349D01*
X168332867Y-89576393D01*
X168318253Y-89596098D01*
X168301777Y-89614277D01*
X168283598Y-89630753D01*
X168263893Y-89645367D01*
X168242849Y-89657980D01*
X168220671Y-89668470D01*
X168197571Y-89676735D01*
X168173773Y-89682696D01*
X168149504Y-89686296D01*
X168125000Y-89687500D01*
X166875000Y-89687500D01*
X166850496Y-89686296D01*
X166826227Y-89682696D01*
X166802429Y-89676735D01*
X166779329Y-89668470D01*
X166757151Y-89657980D01*
X166736107Y-89645367D01*
X166716402Y-89630753D01*
X166698223Y-89614277D01*
X166681747Y-89596098D01*
X166667133Y-89576393D01*
X166654520Y-89555349D01*
X166644030Y-89533171D01*
X166635765Y-89510071D01*
X166629804Y-89486273D01*
X166626204Y-89462004D01*
X166625000Y-89437500D01*
X166625000Y-88512500D01*
X166626204Y-88487996D01*
X166629804Y-88463727D01*
X166635765Y-88439929D01*
X166644030Y-88416829D01*
X166654520Y-88394651D01*
X166667133Y-88373607D01*
X166681747Y-88353902D01*
X166698223Y-88335723D01*
X166716402Y-88319247D01*
X166736107Y-88304633D01*
X166757151Y-88292020D01*
X166779329Y-88281530D01*
X166802429Y-88273265D01*
X166826227Y-88267304D01*
X166850496Y-88263704D01*
X166875000Y-88262500D01*
X168125000Y-88262500D01*
X168149504Y-88263704D01*
X168149504Y-88263704D01*
G37*
D13*
X167500000Y-88975000D03*
D12*
G36*
X168149504Y-85288704D02*
X168173773Y-85292304D01*
X168197571Y-85298265D01*
X168220671Y-85306530D01*
X168242849Y-85317020D01*
X168263893Y-85329633D01*
X168283598Y-85344247D01*
X168301777Y-85360723D01*
X168318253Y-85378902D01*
X168332867Y-85398607D01*
X168345480Y-85419651D01*
X168355970Y-85441829D01*
X168364235Y-85464929D01*
X168370196Y-85488727D01*
X168373796Y-85512996D01*
X168375000Y-85537500D01*
X168375000Y-86462500D01*
X168373796Y-86487004D01*
X168370196Y-86511273D01*
X168364235Y-86535071D01*
X168355970Y-86558171D01*
X168345480Y-86580349D01*
X168332867Y-86601393D01*
X168318253Y-86621098D01*
X168301777Y-86639277D01*
X168283598Y-86655753D01*
X168263893Y-86670367D01*
X168242849Y-86682980D01*
X168220671Y-86693470D01*
X168197571Y-86701735D01*
X168173773Y-86707696D01*
X168149504Y-86711296D01*
X168125000Y-86712500D01*
X166875000Y-86712500D01*
X166850496Y-86711296D01*
X166826227Y-86707696D01*
X166802429Y-86701735D01*
X166779329Y-86693470D01*
X166757151Y-86682980D01*
X166736107Y-86670367D01*
X166716402Y-86655753D01*
X166698223Y-86639277D01*
X166681747Y-86621098D01*
X166667133Y-86601393D01*
X166654520Y-86580349D01*
X166644030Y-86558171D01*
X166635765Y-86535071D01*
X166629804Y-86511273D01*
X166626204Y-86487004D01*
X166625000Y-86462500D01*
X166625000Y-85537500D01*
X166626204Y-85512996D01*
X166629804Y-85488727D01*
X166635765Y-85464929D01*
X166644030Y-85441829D01*
X166654520Y-85419651D01*
X166667133Y-85398607D01*
X166681747Y-85378902D01*
X166698223Y-85360723D01*
X166716402Y-85344247D01*
X166736107Y-85329633D01*
X166757151Y-85317020D01*
X166779329Y-85306530D01*
X166802429Y-85298265D01*
X166826227Y-85292304D01*
X166850496Y-85288704D01*
X166875000Y-85287500D01*
X168125000Y-85287500D01*
X168149504Y-85288704D01*
X168149504Y-85288704D01*
G37*
D13*
X167500000Y-86000000D03*
G04 #@! TD*
D12*
G04 #@! TO.C,R15*
G36*
X167649504Y-68551204D02*
X167673773Y-68554804D01*
X167697571Y-68560765D01*
X167720671Y-68569030D01*
X167742849Y-68579520D01*
X167763893Y-68592133D01*
X167783598Y-68606747D01*
X167801777Y-68623223D01*
X167818253Y-68641402D01*
X167832867Y-68661107D01*
X167845480Y-68682151D01*
X167855970Y-68704329D01*
X167864235Y-68727429D01*
X167870196Y-68751227D01*
X167873796Y-68775496D01*
X167875000Y-68800000D01*
X167875000Y-69725000D01*
X167873796Y-69749504D01*
X167870196Y-69773773D01*
X167864235Y-69797571D01*
X167855970Y-69820671D01*
X167845480Y-69842849D01*
X167832867Y-69863893D01*
X167818253Y-69883598D01*
X167801777Y-69901777D01*
X167783598Y-69918253D01*
X167763893Y-69932867D01*
X167742849Y-69945480D01*
X167720671Y-69955970D01*
X167697571Y-69964235D01*
X167673773Y-69970196D01*
X167649504Y-69973796D01*
X167625000Y-69975000D01*
X166375000Y-69975000D01*
X166350496Y-69973796D01*
X166326227Y-69970196D01*
X166302429Y-69964235D01*
X166279329Y-69955970D01*
X166257151Y-69945480D01*
X166236107Y-69932867D01*
X166216402Y-69918253D01*
X166198223Y-69901777D01*
X166181747Y-69883598D01*
X166167133Y-69863893D01*
X166154520Y-69842849D01*
X166144030Y-69820671D01*
X166135765Y-69797571D01*
X166129804Y-69773773D01*
X166126204Y-69749504D01*
X166125000Y-69725000D01*
X166125000Y-68800000D01*
X166126204Y-68775496D01*
X166129804Y-68751227D01*
X166135765Y-68727429D01*
X166144030Y-68704329D01*
X166154520Y-68682151D01*
X166167133Y-68661107D01*
X166181747Y-68641402D01*
X166198223Y-68623223D01*
X166216402Y-68606747D01*
X166236107Y-68592133D01*
X166257151Y-68579520D01*
X166279329Y-68569030D01*
X166302429Y-68560765D01*
X166326227Y-68554804D01*
X166350496Y-68551204D01*
X166375000Y-68550000D01*
X167625000Y-68550000D01*
X167649504Y-68551204D01*
X167649504Y-68551204D01*
G37*
D13*
X167000000Y-69262500D03*
D12*
G36*
X167649504Y-71526204D02*
X167673773Y-71529804D01*
X167697571Y-71535765D01*
X167720671Y-71544030D01*
X167742849Y-71554520D01*
X167763893Y-71567133D01*
X167783598Y-71581747D01*
X167801777Y-71598223D01*
X167818253Y-71616402D01*
X167832867Y-71636107D01*
X167845480Y-71657151D01*
X167855970Y-71679329D01*
X167864235Y-71702429D01*
X167870196Y-71726227D01*
X167873796Y-71750496D01*
X167875000Y-71775000D01*
X167875000Y-72700000D01*
X167873796Y-72724504D01*
X167870196Y-72748773D01*
X167864235Y-72772571D01*
X167855970Y-72795671D01*
X167845480Y-72817849D01*
X167832867Y-72838893D01*
X167818253Y-72858598D01*
X167801777Y-72876777D01*
X167783598Y-72893253D01*
X167763893Y-72907867D01*
X167742849Y-72920480D01*
X167720671Y-72930970D01*
X167697571Y-72939235D01*
X167673773Y-72945196D01*
X167649504Y-72948796D01*
X167625000Y-72950000D01*
X166375000Y-72950000D01*
X166350496Y-72948796D01*
X166326227Y-72945196D01*
X166302429Y-72939235D01*
X166279329Y-72930970D01*
X166257151Y-72920480D01*
X166236107Y-72907867D01*
X166216402Y-72893253D01*
X166198223Y-72876777D01*
X166181747Y-72858598D01*
X166167133Y-72838893D01*
X166154520Y-72817849D01*
X166144030Y-72795671D01*
X166135765Y-72772571D01*
X166129804Y-72748773D01*
X166126204Y-72724504D01*
X166125000Y-72700000D01*
X166125000Y-71775000D01*
X166126204Y-71750496D01*
X166129804Y-71726227D01*
X166135765Y-71702429D01*
X166144030Y-71679329D01*
X166154520Y-71657151D01*
X166167133Y-71636107D01*
X166181747Y-71616402D01*
X166198223Y-71598223D01*
X166216402Y-71581747D01*
X166236107Y-71567133D01*
X166257151Y-71554520D01*
X166279329Y-71544030D01*
X166302429Y-71535765D01*
X166326227Y-71529804D01*
X166350496Y-71526204D01*
X166375000Y-71525000D01*
X167625000Y-71525000D01*
X167649504Y-71526204D01*
X167649504Y-71526204D01*
G37*
D13*
X167000000Y-72237500D03*
G04 #@! TD*
D12*
G04 #@! TO.C,R14*
G36*
X171649504Y-85313704D02*
X171673773Y-85317304D01*
X171697571Y-85323265D01*
X171720671Y-85331530D01*
X171742849Y-85342020D01*
X171763893Y-85354633D01*
X171783598Y-85369247D01*
X171801777Y-85385723D01*
X171818253Y-85403902D01*
X171832867Y-85423607D01*
X171845480Y-85444651D01*
X171855970Y-85466829D01*
X171864235Y-85489929D01*
X171870196Y-85513727D01*
X171873796Y-85537996D01*
X171875000Y-85562500D01*
X171875000Y-86487500D01*
X171873796Y-86512004D01*
X171870196Y-86536273D01*
X171864235Y-86560071D01*
X171855970Y-86583171D01*
X171845480Y-86605349D01*
X171832867Y-86626393D01*
X171818253Y-86646098D01*
X171801777Y-86664277D01*
X171783598Y-86680753D01*
X171763893Y-86695367D01*
X171742849Y-86707980D01*
X171720671Y-86718470D01*
X171697571Y-86726735D01*
X171673773Y-86732696D01*
X171649504Y-86736296D01*
X171625000Y-86737500D01*
X170375000Y-86737500D01*
X170350496Y-86736296D01*
X170326227Y-86732696D01*
X170302429Y-86726735D01*
X170279329Y-86718470D01*
X170257151Y-86707980D01*
X170236107Y-86695367D01*
X170216402Y-86680753D01*
X170198223Y-86664277D01*
X170181747Y-86646098D01*
X170167133Y-86626393D01*
X170154520Y-86605349D01*
X170144030Y-86583171D01*
X170135765Y-86560071D01*
X170129804Y-86536273D01*
X170126204Y-86512004D01*
X170125000Y-86487500D01*
X170125000Y-85562500D01*
X170126204Y-85537996D01*
X170129804Y-85513727D01*
X170135765Y-85489929D01*
X170144030Y-85466829D01*
X170154520Y-85444651D01*
X170167133Y-85423607D01*
X170181747Y-85403902D01*
X170198223Y-85385723D01*
X170216402Y-85369247D01*
X170236107Y-85354633D01*
X170257151Y-85342020D01*
X170279329Y-85331530D01*
X170302429Y-85323265D01*
X170326227Y-85317304D01*
X170350496Y-85313704D01*
X170375000Y-85312500D01*
X171625000Y-85312500D01*
X171649504Y-85313704D01*
X171649504Y-85313704D01*
G37*
D13*
X171000000Y-86025000D03*
D12*
G36*
X171649504Y-88288704D02*
X171673773Y-88292304D01*
X171697571Y-88298265D01*
X171720671Y-88306530D01*
X171742849Y-88317020D01*
X171763893Y-88329633D01*
X171783598Y-88344247D01*
X171801777Y-88360723D01*
X171818253Y-88378902D01*
X171832867Y-88398607D01*
X171845480Y-88419651D01*
X171855970Y-88441829D01*
X171864235Y-88464929D01*
X171870196Y-88488727D01*
X171873796Y-88512996D01*
X171875000Y-88537500D01*
X171875000Y-89462500D01*
X171873796Y-89487004D01*
X171870196Y-89511273D01*
X171864235Y-89535071D01*
X171855970Y-89558171D01*
X171845480Y-89580349D01*
X171832867Y-89601393D01*
X171818253Y-89621098D01*
X171801777Y-89639277D01*
X171783598Y-89655753D01*
X171763893Y-89670367D01*
X171742849Y-89682980D01*
X171720671Y-89693470D01*
X171697571Y-89701735D01*
X171673773Y-89707696D01*
X171649504Y-89711296D01*
X171625000Y-89712500D01*
X170375000Y-89712500D01*
X170350496Y-89711296D01*
X170326227Y-89707696D01*
X170302429Y-89701735D01*
X170279329Y-89693470D01*
X170257151Y-89682980D01*
X170236107Y-89670367D01*
X170216402Y-89655753D01*
X170198223Y-89639277D01*
X170181747Y-89621098D01*
X170167133Y-89601393D01*
X170154520Y-89580349D01*
X170144030Y-89558171D01*
X170135765Y-89535071D01*
X170129804Y-89511273D01*
X170126204Y-89487004D01*
X170125000Y-89462500D01*
X170125000Y-88537500D01*
X170126204Y-88512996D01*
X170129804Y-88488727D01*
X170135765Y-88464929D01*
X170144030Y-88441829D01*
X170154520Y-88419651D01*
X170167133Y-88398607D01*
X170181747Y-88378902D01*
X170198223Y-88360723D01*
X170216402Y-88344247D01*
X170236107Y-88329633D01*
X170257151Y-88317020D01*
X170279329Y-88306530D01*
X170302429Y-88298265D01*
X170326227Y-88292304D01*
X170350496Y-88288704D01*
X170375000Y-88287500D01*
X171625000Y-88287500D01*
X171649504Y-88288704D01*
X171649504Y-88288704D01*
G37*
D13*
X171000000Y-89000000D03*
G04 #@! TD*
D12*
G04 #@! TO.C,R13*
G36*
X159749504Y-92876204D02*
X159773773Y-92879804D01*
X159797571Y-92885765D01*
X159820671Y-92894030D01*
X159842849Y-92904520D01*
X159863893Y-92917133D01*
X159883598Y-92931747D01*
X159901777Y-92948223D01*
X159918253Y-92966402D01*
X159932867Y-92986107D01*
X159945480Y-93007151D01*
X159955970Y-93029329D01*
X159964235Y-93052429D01*
X159970196Y-93076227D01*
X159973796Y-93100496D01*
X159975000Y-93125000D01*
X159975000Y-94375000D01*
X159973796Y-94399504D01*
X159970196Y-94423773D01*
X159964235Y-94447571D01*
X159955970Y-94470671D01*
X159945480Y-94492849D01*
X159932867Y-94513893D01*
X159918253Y-94533598D01*
X159901777Y-94551777D01*
X159883598Y-94568253D01*
X159863893Y-94582867D01*
X159842849Y-94595480D01*
X159820671Y-94605970D01*
X159797571Y-94614235D01*
X159773773Y-94620196D01*
X159749504Y-94623796D01*
X159725000Y-94625000D01*
X158800000Y-94625000D01*
X158775496Y-94623796D01*
X158751227Y-94620196D01*
X158727429Y-94614235D01*
X158704329Y-94605970D01*
X158682151Y-94595480D01*
X158661107Y-94582867D01*
X158641402Y-94568253D01*
X158623223Y-94551777D01*
X158606747Y-94533598D01*
X158592133Y-94513893D01*
X158579520Y-94492849D01*
X158569030Y-94470671D01*
X158560765Y-94447571D01*
X158554804Y-94423773D01*
X158551204Y-94399504D01*
X158550000Y-94375000D01*
X158550000Y-93125000D01*
X158551204Y-93100496D01*
X158554804Y-93076227D01*
X158560765Y-93052429D01*
X158569030Y-93029329D01*
X158579520Y-93007151D01*
X158592133Y-92986107D01*
X158606747Y-92966402D01*
X158623223Y-92948223D01*
X158641402Y-92931747D01*
X158661107Y-92917133D01*
X158682151Y-92904520D01*
X158704329Y-92894030D01*
X158727429Y-92885765D01*
X158751227Y-92879804D01*
X158775496Y-92876204D01*
X158800000Y-92875000D01*
X159725000Y-92875000D01*
X159749504Y-92876204D01*
X159749504Y-92876204D01*
G37*
D13*
X159262500Y-93750000D03*
D12*
G36*
X162724504Y-92876204D02*
X162748773Y-92879804D01*
X162772571Y-92885765D01*
X162795671Y-92894030D01*
X162817849Y-92904520D01*
X162838893Y-92917133D01*
X162858598Y-92931747D01*
X162876777Y-92948223D01*
X162893253Y-92966402D01*
X162907867Y-92986107D01*
X162920480Y-93007151D01*
X162930970Y-93029329D01*
X162939235Y-93052429D01*
X162945196Y-93076227D01*
X162948796Y-93100496D01*
X162950000Y-93125000D01*
X162950000Y-94375000D01*
X162948796Y-94399504D01*
X162945196Y-94423773D01*
X162939235Y-94447571D01*
X162930970Y-94470671D01*
X162920480Y-94492849D01*
X162907867Y-94513893D01*
X162893253Y-94533598D01*
X162876777Y-94551777D01*
X162858598Y-94568253D01*
X162838893Y-94582867D01*
X162817849Y-94595480D01*
X162795671Y-94605970D01*
X162772571Y-94614235D01*
X162748773Y-94620196D01*
X162724504Y-94623796D01*
X162700000Y-94625000D01*
X161775000Y-94625000D01*
X161750496Y-94623796D01*
X161726227Y-94620196D01*
X161702429Y-94614235D01*
X161679329Y-94605970D01*
X161657151Y-94595480D01*
X161636107Y-94582867D01*
X161616402Y-94568253D01*
X161598223Y-94551777D01*
X161581747Y-94533598D01*
X161567133Y-94513893D01*
X161554520Y-94492849D01*
X161544030Y-94470671D01*
X161535765Y-94447571D01*
X161529804Y-94423773D01*
X161526204Y-94399504D01*
X161525000Y-94375000D01*
X161525000Y-93125000D01*
X161526204Y-93100496D01*
X161529804Y-93076227D01*
X161535765Y-93052429D01*
X161544030Y-93029329D01*
X161554520Y-93007151D01*
X161567133Y-92986107D01*
X161581747Y-92966402D01*
X161598223Y-92948223D01*
X161616402Y-92931747D01*
X161636107Y-92917133D01*
X161657151Y-92904520D01*
X161679329Y-92894030D01*
X161702429Y-92885765D01*
X161726227Y-92879804D01*
X161750496Y-92876204D01*
X161775000Y-92875000D01*
X162700000Y-92875000D01*
X162724504Y-92876204D01*
X162724504Y-92876204D01*
G37*
D13*
X162237500Y-93750000D03*
G04 #@! TD*
D12*
G04 #@! TO.C,R12*
G36*
X171399504Y-68563704D02*
X171423773Y-68567304D01*
X171447571Y-68573265D01*
X171470671Y-68581530D01*
X171492849Y-68592020D01*
X171513893Y-68604633D01*
X171533598Y-68619247D01*
X171551777Y-68635723D01*
X171568253Y-68653902D01*
X171582867Y-68673607D01*
X171595480Y-68694651D01*
X171605970Y-68716829D01*
X171614235Y-68739929D01*
X171620196Y-68763727D01*
X171623796Y-68787996D01*
X171625000Y-68812500D01*
X171625000Y-69737500D01*
X171623796Y-69762004D01*
X171620196Y-69786273D01*
X171614235Y-69810071D01*
X171605970Y-69833171D01*
X171595480Y-69855349D01*
X171582867Y-69876393D01*
X171568253Y-69896098D01*
X171551777Y-69914277D01*
X171533598Y-69930753D01*
X171513893Y-69945367D01*
X171492849Y-69957980D01*
X171470671Y-69968470D01*
X171447571Y-69976735D01*
X171423773Y-69982696D01*
X171399504Y-69986296D01*
X171375000Y-69987500D01*
X170125000Y-69987500D01*
X170100496Y-69986296D01*
X170076227Y-69982696D01*
X170052429Y-69976735D01*
X170029329Y-69968470D01*
X170007151Y-69957980D01*
X169986107Y-69945367D01*
X169966402Y-69930753D01*
X169948223Y-69914277D01*
X169931747Y-69896098D01*
X169917133Y-69876393D01*
X169904520Y-69855349D01*
X169894030Y-69833171D01*
X169885765Y-69810071D01*
X169879804Y-69786273D01*
X169876204Y-69762004D01*
X169875000Y-69737500D01*
X169875000Y-68812500D01*
X169876204Y-68787996D01*
X169879804Y-68763727D01*
X169885765Y-68739929D01*
X169894030Y-68716829D01*
X169904520Y-68694651D01*
X169917133Y-68673607D01*
X169931747Y-68653902D01*
X169948223Y-68635723D01*
X169966402Y-68619247D01*
X169986107Y-68604633D01*
X170007151Y-68592020D01*
X170029329Y-68581530D01*
X170052429Y-68573265D01*
X170076227Y-68567304D01*
X170100496Y-68563704D01*
X170125000Y-68562500D01*
X171375000Y-68562500D01*
X171399504Y-68563704D01*
X171399504Y-68563704D01*
G37*
D13*
X170750000Y-69275000D03*
D12*
G36*
X171399504Y-71538704D02*
X171423773Y-71542304D01*
X171447571Y-71548265D01*
X171470671Y-71556530D01*
X171492849Y-71567020D01*
X171513893Y-71579633D01*
X171533598Y-71594247D01*
X171551777Y-71610723D01*
X171568253Y-71628902D01*
X171582867Y-71648607D01*
X171595480Y-71669651D01*
X171605970Y-71691829D01*
X171614235Y-71714929D01*
X171620196Y-71738727D01*
X171623796Y-71762996D01*
X171625000Y-71787500D01*
X171625000Y-72712500D01*
X171623796Y-72737004D01*
X171620196Y-72761273D01*
X171614235Y-72785071D01*
X171605970Y-72808171D01*
X171595480Y-72830349D01*
X171582867Y-72851393D01*
X171568253Y-72871098D01*
X171551777Y-72889277D01*
X171533598Y-72905753D01*
X171513893Y-72920367D01*
X171492849Y-72932980D01*
X171470671Y-72943470D01*
X171447571Y-72951735D01*
X171423773Y-72957696D01*
X171399504Y-72961296D01*
X171375000Y-72962500D01*
X170125000Y-72962500D01*
X170100496Y-72961296D01*
X170076227Y-72957696D01*
X170052429Y-72951735D01*
X170029329Y-72943470D01*
X170007151Y-72932980D01*
X169986107Y-72920367D01*
X169966402Y-72905753D01*
X169948223Y-72889277D01*
X169931747Y-72871098D01*
X169917133Y-72851393D01*
X169904520Y-72830349D01*
X169894030Y-72808171D01*
X169885765Y-72785071D01*
X169879804Y-72761273D01*
X169876204Y-72737004D01*
X169875000Y-72712500D01*
X169875000Y-71787500D01*
X169876204Y-71762996D01*
X169879804Y-71738727D01*
X169885765Y-71714929D01*
X169894030Y-71691829D01*
X169904520Y-71669651D01*
X169917133Y-71648607D01*
X169931747Y-71628902D01*
X169948223Y-71610723D01*
X169966402Y-71594247D01*
X169986107Y-71579633D01*
X170007151Y-71567020D01*
X170029329Y-71556530D01*
X170052429Y-71548265D01*
X170076227Y-71542304D01*
X170100496Y-71538704D01*
X170125000Y-71537500D01*
X171375000Y-71537500D01*
X171399504Y-71538704D01*
X171399504Y-71538704D01*
G37*
D13*
X170750000Y-72250000D03*
G04 #@! TD*
D12*
G04 #@! TO.C,R11*
G36*
X159749504Y-97376204D02*
X159773773Y-97379804D01*
X159797571Y-97385765D01*
X159820671Y-97394030D01*
X159842849Y-97404520D01*
X159863893Y-97417133D01*
X159883598Y-97431747D01*
X159901777Y-97448223D01*
X159918253Y-97466402D01*
X159932867Y-97486107D01*
X159945480Y-97507151D01*
X159955970Y-97529329D01*
X159964235Y-97552429D01*
X159970196Y-97576227D01*
X159973796Y-97600496D01*
X159975000Y-97625000D01*
X159975000Y-98875000D01*
X159973796Y-98899504D01*
X159970196Y-98923773D01*
X159964235Y-98947571D01*
X159955970Y-98970671D01*
X159945480Y-98992849D01*
X159932867Y-99013893D01*
X159918253Y-99033598D01*
X159901777Y-99051777D01*
X159883598Y-99068253D01*
X159863893Y-99082867D01*
X159842849Y-99095480D01*
X159820671Y-99105970D01*
X159797571Y-99114235D01*
X159773773Y-99120196D01*
X159749504Y-99123796D01*
X159725000Y-99125000D01*
X158800000Y-99125000D01*
X158775496Y-99123796D01*
X158751227Y-99120196D01*
X158727429Y-99114235D01*
X158704329Y-99105970D01*
X158682151Y-99095480D01*
X158661107Y-99082867D01*
X158641402Y-99068253D01*
X158623223Y-99051777D01*
X158606747Y-99033598D01*
X158592133Y-99013893D01*
X158579520Y-98992849D01*
X158569030Y-98970671D01*
X158560765Y-98947571D01*
X158554804Y-98923773D01*
X158551204Y-98899504D01*
X158550000Y-98875000D01*
X158550000Y-97625000D01*
X158551204Y-97600496D01*
X158554804Y-97576227D01*
X158560765Y-97552429D01*
X158569030Y-97529329D01*
X158579520Y-97507151D01*
X158592133Y-97486107D01*
X158606747Y-97466402D01*
X158623223Y-97448223D01*
X158641402Y-97431747D01*
X158661107Y-97417133D01*
X158682151Y-97404520D01*
X158704329Y-97394030D01*
X158727429Y-97385765D01*
X158751227Y-97379804D01*
X158775496Y-97376204D01*
X158800000Y-97375000D01*
X159725000Y-97375000D01*
X159749504Y-97376204D01*
X159749504Y-97376204D01*
G37*
D13*
X159262500Y-98250000D03*
D12*
G36*
X162724504Y-97376204D02*
X162748773Y-97379804D01*
X162772571Y-97385765D01*
X162795671Y-97394030D01*
X162817849Y-97404520D01*
X162838893Y-97417133D01*
X162858598Y-97431747D01*
X162876777Y-97448223D01*
X162893253Y-97466402D01*
X162907867Y-97486107D01*
X162920480Y-97507151D01*
X162930970Y-97529329D01*
X162939235Y-97552429D01*
X162945196Y-97576227D01*
X162948796Y-97600496D01*
X162950000Y-97625000D01*
X162950000Y-98875000D01*
X162948796Y-98899504D01*
X162945196Y-98923773D01*
X162939235Y-98947571D01*
X162930970Y-98970671D01*
X162920480Y-98992849D01*
X162907867Y-99013893D01*
X162893253Y-99033598D01*
X162876777Y-99051777D01*
X162858598Y-99068253D01*
X162838893Y-99082867D01*
X162817849Y-99095480D01*
X162795671Y-99105970D01*
X162772571Y-99114235D01*
X162748773Y-99120196D01*
X162724504Y-99123796D01*
X162700000Y-99125000D01*
X161775000Y-99125000D01*
X161750496Y-99123796D01*
X161726227Y-99120196D01*
X161702429Y-99114235D01*
X161679329Y-99105970D01*
X161657151Y-99095480D01*
X161636107Y-99082867D01*
X161616402Y-99068253D01*
X161598223Y-99051777D01*
X161581747Y-99033598D01*
X161567133Y-99013893D01*
X161554520Y-98992849D01*
X161544030Y-98970671D01*
X161535765Y-98947571D01*
X161529804Y-98923773D01*
X161526204Y-98899504D01*
X161525000Y-98875000D01*
X161525000Y-97625000D01*
X161526204Y-97600496D01*
X161529804Y-97576227D01*
X161535765Y-97552429D01*
X161544030Y-97529329D01*
X161554520Y-97507151D01*
X161567133Y-97486107D01*
X161581747Y-97466402D01*
X161598223Y-97448223D01*
X161616402Y-97431747D01*
X161636107Y-97417133D01*
X161657151Y-97404520D01*
X161679329Y-97394030D01*
X161702429Y-97385765D01*
X161726227Y-97379804D01*
X161750496Y-97376204D01*
X161775000Y-97375000D01*
X162700000Y-97375000D01*
X162724504Y-97376204D01*
X162724504Y-97376204D01*
G37*
D13*
X162237500Y-98250000D03*
G04 #@! TD*
D12*
G04 #@! TO.C,R10*
G36*
X174474504Y-81626204D02*
X174498773Y-81629804D01*
X174522571Y-81635765D01*
X174545671Y-81644030D01*
X174567849Y-81654520D01*
X174588893Y-81667133D01*
X174608598Y-81681747D01*
X174626777Y-81698223D01*
X174643253Y-81716402D01*
X174657867Y-81736107D01*
X174670480Y-81757151D01*
X174680970Y-81779329D01*
X174689235Y-81802429D01*
X174695196Y-81826227D01*
X174698796Y-81850496D01*
X174700000Y-81875000D01*
X174700000Y-83125000D01*
X174698796Y-83149504D01*
X174695196Y-83173773D01*
X174689235Y-83197571D01*
X174680970Y-83220671D01*
X174670480Y-83242849D01*
X174657867Y-83263893D01*
X174643253Y-83283598D01*
X174626777Y-83301777D01*
X174608598Y-83318253D01*
X174588893Y-83332867D01*
X174567849Y-83345480D01*
X174545671Y-83355970D01*
X174522571Y-83364235D01*
X174498773Y-83370196D01*
X174474504Y-83373796D01*
X174450000Y-83375000D01*
X173525000Y-83375000D01*
X173500496Y-83373796D01*
X173476227Y-83370196D01*
X173452429Y-83364235D01*
X173429329Y-83355970D01*
X173407151Y-83345480D01*
X173386107Y-83332867D01*
X173366402Y-83318253D01*
X173348223Y-83301777D01*
X173331747Y-83283598D01*
X173317133Y-83263893D01*
X173304520Y-83242849D01*
X173294030Y-83220671D01*
X173285765Y-83197571D01*
X173279804Y-83173773D01*
X173276204Y-83149504D01*
X173275000Y-83125000D01*
X173275000Y-81875000D01*
X173276204Y-81850496D01*
X173279804Y-81826227D01*
X173285765Y-81802429D01*
X173294030Y-81779329D01*
X173304520Y-81757151D01*
X173317133Y-81736107D01*
X173331747Y-81716402D01*
X173348223Y-81698223D01*
X173366402Y-81681747D01*
X173386107Y-81667133D01*
X173407151Y-81654520D01*
X173429329Y-81644030D01*
X173452429Y-81635765D01*
X173476227Y-81629804D01*
X173500496Y-81626204D01*
X173525000Y-81625000D01*
X174450000Y-81625000D01*
X174474504Y-81626204D01*
X174474504Y-81626204D01*
G37*
D13*
X173987500Y-82500000D03*
D12*
G36*
X171499504Y-81626204D02*
X171523773Y-81629804D01*
X171547571Y-81635765D01*
X171570671Y-81644030D01*
X171592849Y-81654520D01*
X171613893Y-81667133D01*
X171633598Y-81681747D01*
X171651777Y-81698223D01*
X171668253Y-81716402D01*
X171682867Y-81736107D01*
X171695480Y-81757151D01*
X171705970Y-81779329D01*
X171714235Y-81802429D01*
X171720196Y-81826227D01*
X171723796Y-81850496D01*
X171725000Y-81875000D01*
X171725000Y-83125000D01*
X171723796Y-83149504D01*
X171720196Y-83173773D01*
X171714235Y-83197571D01*
X171705970Y-83220671D01*
X171695480Y-83242849D01*
X171682867Y-83263893D01*
X171668253Y-83283598D01*
X171651777Y-83301777D01*
X171633598Y-83318253D01*
X171613893Y-83332867D01*
X171592849Y-83345480D01*
X171570671Y-83355970D01*
X171547571Y-83364235D01*
X171523773Y-83370196D01*
X171499504Y-83373796D01*
X171475000Y-83375000D01*
X170550000Y-83375000D01*
X170525496Y-83373796D01*
X170501227Y-83370196D01*
X170477429Y-83364235D01*
X170454329Y-83355970D01*
X170432151Y-83345480D01*
X170411107Y-83332867D01*
X170391402Y-83318253D01*
X170373223Y-83301777D01*
X170356747Y-83283598D01*
X170342133Y-83263893D01*
X170329520Y-83242849D01*
X170319030Y-83220671D01*
X170310765Y-83197571D01*
X170304804Y-83173773D01*
X170301204Y-83149504D01*
X170300000Y-83125000D01*
X170300000Y-81875000D01*
X170301204Y-81850496D01*
X170304804Y-81826227D01*
X170310765Y-81802429D01*
X170319030Y-81779329D01*
X170329520Y-81757151D01*
X170342133Y-81736107D01*
X170356747Y-81716402D01*
X170373223Y-81698223D01*
X170391402Y-81681747D01*
X170411107Y-81667133D01*
X170432151Y-81654520D01*
X170454329Y-81644030D01*
X170477429Y-81635765D01*
X170501227Y-81629804D01*
X170525496Y-81626204D01*
X170550000Y-81625000D01*
X171475000Y-81625000D01*
X171499504Y-81626204D01*
X171499504Y-81626204D01*
G37*
D13*
X171012500Y-82500000D03*
G04 #@! TD*
D12*
G04 #@! TO.C,R9*
G36*
X171499504Y-64876204D02*
X171523773Y-64879804D01*
X171547571Y-64885765D01*
X171570671Y-64894030D01*
X171592849Y-64904520D01*
X171613893Y-64917133D01*
X171633598Y-64931747D01*
X171651777Y-64948223D01*
X171668253Y-64966402D01*
X171682867Y-64986107D01*
X171695480Y-65007151D01*
X171705970Y-65029329D01*
X171714235Y-65052429D01*
X171720196Y-65076227D01*
X171723796Y-65100496D01*
X171725000Y-65125000D01*
X171725000Y-66375000D01*
X171723796Y-66399504D01*
X171720196Y-66423773D01*
X171714235Y-66447571D01*
X171705970Y-66470671D01*
X171695480Y-66492849D01*
X171682867Y-66513893D01*
X171668253Y-66533598D01*
X171651777Y-66551777D01*
X171633598Y-66568253D01*
X171613893Y-66582867D01*
X171592849Y-66595480D01*
X171570671Y-66605970D01*
X171547571Y-66614235D01*
X171523773Y-66620196D01*
X171499504Y-66623796D01*
X171475000Y-66625000D01*
X170550000Y-66625000D01*
X170525496Y-66623796D01*
X170501227Y-66620196D01*
X170477429Y-66614235D01*
X170454329Y-66605970D01*
X170432151Y-66595480D01*
X170411107Y-66582867D01*
X170391402Y-66568253D01*
X170373223Y-66551777D01*
X170356747Y-66533598D01*
X170342133Y-66513893D01*
X170329520Y-66492849D01*
X170319030Y-66470671D01*
X170310765Y-66447571D01*
X170304804Y-66423773D01*
X170301204Y-66399504D01*
X170300000Y-66375000D01*
X170300000Y-65125000D01*
X170301204Y-65100496D01*
X170304804Y-65076227D01*
X170310765Y-65052429D01*
X170319030Y-65029329D01*
X170329520Y-65007151D01*
X170342133Y-64986107D01*
X170356747Y-64966402D01*
X170373223Y-64948223D01*
X170391402Y-64931747D01*
X170411107Y-64917133D01*
X170432151Y-64904520D01*
X170454329Y-64894030D01*
X170477429Y-64885765D01*
X170501227Y-64879804D01*
X170525496Y-64876204D01*
X170550000Y-64875000D01*
X171475000Y-64875000D01*
X171499504Y-64876204D01*
X171499504Y-64876204D01*
G37*
D13*
X171012500Y-65750000D03*
D12*
G36*
X174474504Y-64876204D02*
X174498773Y-64879804D01*
X174522571Y-64885765D01*
X174545671Y-64894030D01*
X174567849Y-64904520D01*
X174588893Y-64917133D01*
X174608598Y-64931747D01*
X174626777Y-64948223D01*
X174643253Y-64966402D01*
X174657867Y-64986107D01*
X174670480Y-65007151D01*
X174680970Y-65029329D01*
X174689235Y-65052429D01*
X174695196Y-65076227D01*
X174698796Y-65100496D01*
X174700000Y-65125000D01*
X174700000Y-66375000D01*
X174698796Y-66399504D01*
X174695196Y-66423773D01*
X174689235Y-66447571D01*
X174680970Y-66470671D01*
X174670480Y-66492849D01*
X174657867Y-66513893D01*
X174643253Y-66533598D01*
X174626777Y-66551777D01*
X174608598Y-66568253D01*
X174588893Y-66582867D01*
X174567849Y-66595480D01*
X174545671Y-66605970D01*
X174522571Y-66614235D01*
X174498773Y-66620196D01*
X174474504Y-66623796D01*
X174450000Y-66625000D01*
X173525000Y-66625000D01*
X173500496Y-66623796D01*
X173476227Y-66620196D01*
X173452429Y-66614235D01*
X173429329Y-66605970D01*
X173407151Y-66595480D01*
X173386107Y-66582867D01*
X173366402Y-66568253D01*
X173348223Y-66551777D01*
X173331747Y-66533598D01*
X173317133Y-66513893D01*
X173304520Y-66492849D01*
X173294030Y-66470671D01*
X173285765Y-66447571D01*
X173279804Y-66423773D01*
X173276204Y-66399504D01*
X173275000Y-66375000D01*
X173275000Y-65125000D01*
X173276204Y-65100496D01*
X173279804Y-65076227D01*
X173285765Y-65052429D01*
X173294030Y-65029329D01*
X173304520Y-65007151D01*
X173317133Y-64986107D01*
X173331747Y-64966402D01*
X173348223Y-64948223D01*
X173366402Y-64931747D01*
X173386107Y-64917133D01*
X173407151Y-64904520D01*
X173429329Y-64894030D01*
X173452429Y-64885765D01*
X173476227Y-64879804D01*
X173500496Y-64876204D01*
X173525000Y-64875000D01*
X174450000Y-64875000D01*
X174474504Y-64876204D01*
X174474504Y-64876204D01*
G37*
D13*
X173987500Y-65750000D03*
G04 #@! TD*
D12*
G04 #@! TO.C,R8*
G36*
X167962004Y-81876204D02*
X167986273Y-81879804D01*
X168010071Y-81885765D01*
X168033171Y-81894030D01*
X168055349Y-81904520D01*
X168076393Y-81917133D01*
X168096098Y-81931747D01*
X168114277Y-81948223D01*
X168130753Y-81966402D01*
X168145367Y-81986107D01*
X168157980Y-82007151D01*
X168168470Y-82029329D01*
X168176735Y-82052429D01*
X168182696Y-82076227D01*
X168186296Y-82100496D01*
X168187500Y-82125000D01*
X168187500Y-83375000D01*
X168186296Y-83399504D01*
X168182696Y-83423773D01*
X168176735Y-83447571D01*
X168168470Y-83470671D01*
X168157980Y-83492849D01*
X168145367Y-83513893D01*
X168130753Y-83533598D01*
X168114277Y-83551777D01*
X168096098Y-83568253D01*
X168076393Y-83582867D01*
X168055349Y-83595480D01*
X168033171Y-83605970D01*
X168010071Y-83614235D01*
X167986273Y-83620196D01*
X167962004Y-83623796D01*
X167937500Y-83625000D01*
X167012500Y-83625000D01*
X166987996Y-83623796D01*
X166963727Y-83620196D01*
X166939929Y-83614235D01*
X166916829Y-83605970D01*
X166894651Y-83595480D01*
X166873607Y-83582867D01*
X166853902Y-83568253D01*
X166835723Y-83551777D01*
X166819247Y-83533598D01*
X166804633Y-83513893D01*
X166792020Y-83492849D01*
X166781530Y-83470671D01*
X166773265Y-83447571D01*
X166767304Y-83423773D01*
X166763704Y-83399504D01*
X166762500Y-83375000D01*
X166762500Y-82125000D01*
X166763704Y-82100496D01*
X166767304Y-82076227D01*
X166773265Y-82052429D01*
X166781530Y-82029329D01*
X166792020Y-82007151D01*
X166804633Y-81986107D01*
X166819247Y-81966402D01*
X166835723Y-81948223D01*
X166853902Y-81931747D01*
X166873607Y-81917133D01*
X166894651Y-81904520D01*
X166916829Y-81894030D01*
X166939929Y-81885765D01*
X166963727Y-81879804D01*
X166987996Y-81876204D01*
X167012500Y-81875000D01*
X167937500Y-81875000D01*
X167962004Y-81876204D01*
X167962004Y-81876204D01*
G37*
D13*
X167475000Y-82750000D03*
D12*
G36*
X164987004Y-81876204D02*
X165011273Y-81879804D01*
X165035071Y-81885765D01*
X165058171Y-81894030D01*
X165080349Y-81904520D01*
X165101393Y-81917133D01*
X165121098Y-81931747D01*
X165139277Y-81948223D01*
X165155753Y-81966402D01*
X165170367Y-81986107D01*
X165182980Y-82007151D01*
X165193470Y-82029329D01*
X165201735Y-82052429D01*
X165207696Y-82076227D01*
X165211296Y-82100496D01*
X165212500Y-82125000D01*
X165212500Y-83375000D01*
X165211296Y-83399504D01*
X165207696Y-83423773D01*
X165201735Y-83447571D01*
X165193470Y-83470671D01*
X165182980Y-83492849D01*
X165170367Y-83513893D01*
X165155753Y-83533598D01*
X165139277Y-83551777D01*
X165121098Y-83568253D01*
X165101393Y-83582867D01*
X165080349Y-83595480D01*
X165058171Y-83605970D01*
X165035071Y-83614235D01*
X165011273Y-83620196D01*
X164987004Y-83623796D01*
X164962500Y-83625000D01*
X164037500Y-83625000D01*
X164012996Y-83623796D01*
X163988727Y-83620196D01*
X163964929Y-83614235D01*
X163941829Y-83605970D01*
X163919651Y-83595480D01*
X163898607Y-83582867D01*
X163878902Y-83568253D01*
X163860723Y-83551777D01*
X163844247Y-83533598D01*
X163829633Y-83513893D01*
X163817020Y-83492849D01*
X163806530Y-83470671D01*
X163798265Y-83447571D01*
X163792304Y-83423773D01*
X163788704Y-83399504D01*
X163787500Y-83375000D01*
X163787500Y-82125000D01*
X163788704Y-82100496D01*
X163792304Y-82076227D01*
X163798265Y-82052429D01*
X163806530Y-82029329D01*
X163817020Y-82007151D01*
X163829633Y-81986107D01*
X163844247Y-81966402D01*
X163860723Y-81948223D01*
X163878902Y-81931747D01*
X163898607Y-81917133D01*
X163919651Y-81904520D01*
X163941829Y-81894030D01*
X163964929Y-81885765D01*
X163988727Y-81879804D01*
X164012996Y-81876204D01*
X164037500Y-81875000D01*
X164962500Y-81875000D01*
X164987004Y-81876204D01*
X164987004Y-81876204D01*
G37*
D13*
X164500000Y-82750000D03*
G04 #@! TD*
D12*
G04 #@! TO.C,R7*
G36*
X164512004Y-64876204D02*
X164536273Y-64879804D01*
X164560071Y-64885765D01*
X164583171Y-64894030D01*
X164605349Y-64904520D01*
X164626393Y-64917133D01*
X164646098Y-64931747D01*
X164664277Y-64948223D01*
X164680753Y-64966402D01*
X164695367Y-64986107D01*
X164707980Y-65007151D01*
X164718470Y-65029329D01*
X164726735Y-65052429D01*
X164732696Y-65076227D01*
X164736296Y-65100496D01*
X164737500Y-65125000D01*
X164737500Y-66375000D01*
X164736296Y-66399504D01*
X164732696Y-66423773D01*
X164726735Y-66447571D01*
X164718470Y-66470671D01*
X164707980Y-66492849D01*
X164695367Y-66513893D01*
X164680753Y-66533598D01*
X164664277Y-66551777D01*
X164646098Y-66568253D01*
X164626393Y-66582867D01*
X164605349Y-66595480D01*
X164583171Y-66605970D01*
X164560071Y-66614235D01*
X164536273Y-66620196D01*
X164512004Y-66623796D01*
X164487500Y-66625000D01*
X163562500Y-66625000D01*
X163537996Y-66623796D01*
X163513727Y-66620196D01*
X163489929Y-66614235D01*
X163466829Y-66605970D01*
X163444651Y-66595480D01*
X163423607Y-66582867D01*
X163403902Y-66568253D01*
X163385723Y-66551777D01*
X163369247Y-66533598D01*
X163354633Y-66513893D01*
X163342020Y-66492849D01*
X163331530Y-66470671D01*
X163323265Y-66447571D01*
X163317304Y-66423773D01*
X163313704Y-66399504D01*
X163312500Y-66375000D01*
X163312500Y-65125000D01*
X163313704Y-65100496D01*
X163317304Y-65076227D01*
X163323265Y-65052429D01*
X163331530Y-65029329D01*
X163342020Y-65007151D01*
X163354633Y-64986107D01*
X163369247Y-64966402D01*
X163385723Y-64948223D01*
X163403902Y-64931747D01*
X163423607Y-64917133D01*
X163444651Y-64904520D01*
X163466829Y-64894030D01*
X163489929Y-64885765D01*
X163513727Y-64879804D01*
X163537996Y-64876204D01*
X163562500Y-64875000D01*
X164487500Y-64875000D01*
X164512004Y-64876204D01*
X164512004Y-64876204D01*
G37*
D13*
X164025000Y-65750000D03*
D12*
G36*
X167487004Y-64876204D02*
X167511273Y-64879804D01*
X167535071Y-64885765D01*
X167558171Y-64894030D01*
X167580349Y-64904520D01*
X167601393Y-64917133D01*
X167621098Y-64931747D01*
X167639277Y-64948223D01*
X167655753Y-64966402D01*
X167670367Y-64986107D01*
X167682980Y-65007151D01*
X167693470Y-65029329D01*
X167701735Y-65052429D01*
X167707696Y-65076227D01*
X167711296Y-65100496D01*
X167712500Y-65125000D01*
X167712500Y-66375000D01*
X167711296Y-66399504D01*
X167707696Y-66423773D01*
X167701735Y-66447571D01*
X167693470Y-66470671D01*
X167682980Y-66492849D01*
X167670367Y-66513893D01*
X167655753Y-66533598D01*
X167639277Y-66551777D01*
X167621098Y-66568253D01*
X167601393Y-66582867D01*
X167580349Y-66595480D01*
X167558171Y-66605970D01*
X167535071Y-66614235D01*
X167511273Y-66620196D01*
X167487004Y-66623796D01*
X167462500Y-66625000D01*
X166537500Y-66625000D01*
X166512996Y-66623796D01*
X166488727Y-66620196D01*
X166464929Y-66614235D01*
X166441829Y-66605970D01*
X166419651Y-66595480D01*
X166398607Y-66582867D01*
X166378902Y-66568253D01*
X166360723Y-66551777D01*
X166344247Y-66533598D01*
X166329633Y-66513893D01*
X166317020Y-66492849D01*
X166306530Y-66470671D01*
X166298265Y-66447571D01*
X166292304Y-66423773D01*
X166288704Y-66399504D01*
X166287500Y-66375000D01*
X166287500Y-65125000D01*
X166288704Y-65100496D01*
X166292304Y-65076227D01*
X166298265Y-65052429D01*
X166306530Y-65029329D01*
X166317020Y-65007151D01*
X166329633Y-64986107D01*
X166344247Y-64966402D01*
X166360723Y-64948223D01*
X166378902Y-64931747D01*
X166398607Y-64917133D01*
X166419651Y-64904520D01*
X166441829Y-64894030D01*
X166464929Y-64885765D01*
X166488727Y-64879804D01*
X166512996Y-64876204D01*
X166537500Y-64875000D01*
X167462500Y-64875000D01*
X167487004Y-64876204D01*
X167487004Y-64876204D01*
G37*
D13*
X167000000Y-65750000D03*
G04 #@! TD*
D12*
G04 #@! TO.C,R6*
G36*
X156772493Y-68666530D02*
X156796762Y-68670130D01*
X156820560Y-68676091D01*
X156843660Y-68684356D01*
X156865838Y-68694846D01*
X156886882Y-68707459D01*
X156906587Y-68722073D01*
X156924766Y-68738549D01*
X156941242Y-68756728D01*
X156955856Y-68776433D01*
X156968469Y-68797477D01*
X156978959Y-68819655D01*
X156987224Y-68842755D01*
X156993185Y-68866553D01*
X156996785Y-68890822D01*
X156997989Y-68915326D01*
X156997989Y-70165326D01*
X156996785Y-70189830D01*
X156993185Y-70214099D01*
X156987224Y-70237897D01*
X156978959Y-70260997D01*
X156968469Y-70283175D01*
X156955856Y-70304219D01*
X156941242Y-70323924D01*
X156924766Y-70342103D01*
X156906587Y-70358579D01*
X156886882Y-70373193D01*
X156865838Y-70385806D01*
X156843660Y-70396296D01*
X156820560Y-70404561D01*
X156796762Y-70410522D01*
X156772493Y-70414122D01*
X156747989Y-70415326D01*
X155822989Y-70415326D01*
X155798485Y-70414122D01*
X155774216Y-70410522D01*
X155750418Y-70404561D01*
X155727318Y-70396296D01*
X155705140Y-70385806D01*
X155684096Y-70373193D01*
X155664391Y-70358579D01*
X155646212Y-70342103D01*
X155629736Y-70323924D01*
X155615122Y-70304219D01*
X155602509Y-70283175D01*
X155592019Y-70260997D01*
X155583754Y-70237897D01*
X155577793Y-70214099D01*
X155574193Y-70189830D01*
X155572989Y-70165326D01*
X155572989Y-68915326D01*
X155574193Y-68890822D01*
X155577793Y-68866553D01*
X155583754Y-68842755D01*
X155592019Y-68819655D01*
X155602509Y-68797477D01*
X155615122Y-68776433D01*
X155629736Y-68756728D01*
X155646212Y-68738549D01*
X155664391Y-68722073D01*
X155684096Y-68707459D01*
X155705140Y-68694846D01*
X155727318Y-68684356D01*
X155750418Y-68676091D01*
X155774216Y-68670130D01*
X155798485Y-68666530D01*
X155822989Y-68665326D01*
X156747989Y-68665326D01*
X156772493Y-68666530D01*
X156772493Y-68666530D01*
G37*
D13*
X156285489Y-69540326D03*
D12*
G36*
X153797493Y-68666530D02*
X153821762Y-68670130D01*
X153845560Y-68676091D01*
X153868660Y-68684356D01*
X153890838Y-68694846D01*
X153911882Y-68707459D01*
X153931587Y-68722073D01*
X153949766Y-68738549D01*
X153966242Y-68756728D01*
X153980856Y-68776433D01*
X153993469Y-68797477D01*
X154003959Y-68819655D01*
X154012224Y-68842755D01*
X154018185Y-68866553D01*
X154021785Y-68890822D01*
X154022989Y-68915326D01*
X154022989Y-70165326D01*
X154021785Y-70189830D01*
X154018185Y-70214099D01*
X154012224Y-70237897D01*
X154003959Y-70260997D01*
X153993469Y-70283175D01*
X153980856Y-70304219D01*
X153966242Y-70323924D01*
X153949766Y-70342103D01*
X153931587Y-70358579D01*
X153911882Y-70373193D01*
X153890838Y-70385806D01*
X153868660Y-70396296D01*
X153845560Y-70404561D01*
X153821762Y-70410522D01*
X153797493Y-70414122D01*
X153772989Y-70415326D01*
X152847989Y-70415326D01*
X152823485Y-70414122D01*
X152799216Y-70410522D01*
X152775418Y-70404561D01*
X152752318Y-70396296D01*
X152730140Y-70385806D01*
X152709096Y-70373193D01*
X152689391Y-70358579D01*
X152671212Y-70342103D01*
X152654736Y-70323924D01*
X152640122Y-70304219D01*
X152627509Y-70283175D01*
X152617019Y-70260997D01*
X152608754Y-70237897D01*
X152602793Y-70214099D01*
X152599193Y-70189830D01*
X152597989Y-70165326D01*
X152597989Y-68915326D01*
X152599193Y-68890822D01*
X152602793Y-68866553D01*
X152608754Y-68842755D01*
X152617019Y-68819655D01*
X152627509Y-68797477D01*
X152640122Y-68776433D01*
X152654736Y-68756728D01*
X152671212Y-68738549D01*
X152689391Y-68722073D01*
X152709096Y-68707459D01*
X152730140Y-68694846D01*
X152752318Y-68684356D01*
X152775418Y-68676091D01*
X152799216Y-68670130D01*
X152823485Y-68666530D01*
X152847989Y-68665326D01*
X153772989Y-68665326D01*
X153797493Y-68666530D01*
X153797493Y-68666530D01*
G37*
D13*
X153310489Y-69540326D03*
G04 #@! TD*
D12*
G04 #@! TO.C,R5*
G36*
X129649504Y-90513704D02*
X129673773Y-90517304D01*
X129697571Y-90523265D01*
X129720671Y-90531530D01*
X129742849Y-90542020D01*
X129763893Y-90554633D01*
X129783598Y-90569247D01*
X129801777Y-90585723D01*
X129818253Y-90603902D01*
X129832867Y-90623607D01*
X129845480Y-90644651D01*
X129855970Y-90666829D01*
X129864235Y-90689929D01*
X129870196Y-90713727D01*
X129873796Y-90737996D01*
X129875000Y-90762500D01*
X129875000Y-91687500D01*
X129873796Y-91712004D01*
X129870196Y-91736273D01*
X129864235Y-91760071D01*
X129855970Y-91783171D01*
X129845480Y-91805349D01*
X129832867Y-91826393D01*
X129818253Y-91846098D01*
X129801777Y-91864277D01*
X129783598Y-91880753D01*
X129763893Y-91895367D01*
X129742849Y-91907980D01*
X129720671Y-91918470D01*
X129697571Y-91926735D01*
X129673773Y-91932696D01*
X129649504Y-91936296D01*
X129625000Y-91937500D01*
X128375000Y-91937500D01*
X128350496Y-91936296D01*
X128326227Y-91932696D01*
X128302429Y-91926735D01*
X128279329Y-91918470D01*
X128257151Y-91907980D01*
X128236107Y-91895367D01*
X128216402Y-91880753D01*
X128198223Y-91864277D01*
X128181747Y-91846098D01*
X128167133Y-91826393D01*
X128154520Y-91805349D01*
X128144030Y-91783171D01*
X128135765Y-91760071D01*
X128129804Y-91736273D01*
X128126204Y-91712004D01*
X128125000Y-91687500D01*
X128125000Y-90762500D01*
X128126204Y-90737996D01*
X128129804Y-90713727D01*
X128135765Y-90689929D01*
X128144030Y-90666829D01*
X128154520Y-90644651D01*
X128167133Y-90623607D01*
X128181747Y-90603902D01*
X128198223Y-90585723D01*
X128216402Y-90569247D01*
X128236107Y-90554633D01*
X128257151Y-90542020D01*
X128279329Y-90531530D01*
X128302429Y-90523265D01*
X128326227Y-90517304D01*
X128350496Y-90513704D01*
X128375000Y-90512500D01*
X129625000Y-90512500D01*
X129649504Y-90513704D01*
X129649504Y-90513704D01*
G37*
D13*
X129000000Y-91225000D03*
D12*
G36*
X129649504Y-87538704D02*
X129673773Y-87542304D01*
X129697571Y-87548265D01*
X129720671Y-87556530D01*
X129742849Y-87567020D01*
X129763893Y-87579633D01*
X129783598Y-87594247D01*
X129801777Y-87610723D01*
X129818253Y-87628902D01*
X129832867Y-87648607D01*
X129845480Y-87669651D01*
X129855970Y-87691829D01*
X129864235Y-87714929D01*
X129870196Y-87738727D01*
X129873796Y-87762996D01*
X129875000Y-87787500D01*
X129875000Y-88712500D01*
X129873796Y-88737004D01*
X129870196Y-88761273D01*
X129864235Y-88785071D01*
X129855970Y-88808171D01*
X129845480Y-88830349D01*
X129832867Y-88851393D01*
X129818253Y-88871098D01*
X129801777Y-88889277D01*
X129783598Y-88905753D01*
X129763893Y-88920367D01*
X129742849Y-88932980D01*
X129720671Y-88943470D01*
X129697571Y-88951735D01*
X129673773Y-88957696D01*
X129649504Y-88961296D01*
X129625000Y-88962500D01*
X128375000Y-88962500D01*
X128350496Y-88961296D01*
X128326227Y-88957696D01*
X128302429Y-88951735D01*
X128279329Y-88943470D01*
X128257151Y-88932980D01*
X128236107Y-88920367D01*
X128216402Y-88905753D01*
X128198223Y-88889277D01*
X128181747Y-88871098D01*
X128167133Y-88851393D01*
X128154520Y-88830349D01*
X128144030Y-88808171D01*
X128135765Y-88785071D01*
X128129804Y-88761273D01*
X128126204Y-88737004D01*
X128125000Y-88712500D01*
X128125000Y-87787500D01*
X128126204Y-87762996D01*
X128129804Y-87738727D01*
X128135765Y-87714929D01*
X128144030Y-87691829D01*
X128154520Y-87669651D01*
X128167133Y-87648607D01*
X128181747Y-87628902D01*
X128198223Y-87610723D01*
X128216402Y-87594247D01*
X128236107Y-87579633D01*
X128257151Y-87567020D01*
X128279329Y-87556530D01*
X128302429Y-87548265D01*
X128326227Y-87542304D01*
X128350496Y-87538704D01*
X128375000Y-87537500D01*
X129625000Y-87537500D01*
X129649504Y-87538704D01*
X129649504Y-87538704D01*
G37*
D13*
X129000000Y-88250000D03*
G04 #@! TD*
D12*
G04 #@! TO.C,R4*
G36*
X156772493Y-71166530D02*
X156796762Y-71170130D01*
X156820560Y-71176091D01*
X156843660Y-71184356D01*
X156865838Y-71194846D01*
X156886882Y-71207459D01*
X156906587Y-71222073D01*
X156924766Y-71238549D01*
X156941242Y-71256728D01*
X156955856Y-71276433D01*
X156968469Y-71297477D01*
X156978959Y-71319655D01*
X156987224Y-71342755D01*
X156993185Y-71366553D01*
X156996785Y-71390822D01*
X156997989Y-71415326D01*
X156997989Y-72665326D01*
X156996785Y-72689830D01*
X156993185Y-72714099D01*
X156987224Y-72737897D01*
X156978959Y-72760997D01*
X156968469Y-72783175D01*
X156955856Y-72804219D01*
X156941242Y-72823924D01*
X156924766Y-72842103D01*
X156906587Y-72858579D01*
X156886882Y-72873193D01*
X156865838Y-72885806D01*
X156843660Y-72896296D01*
X156820560Y-72904561D01*
X156796762Y-72910522D01*
X156772493Y-72914122D01*
X156747989Y-72915326D01*
X155822989Y-72915326D01*
X155798485Y-72914122D01*
X155774216Y-72910522D01*
X155750418Y-72904561D01*
X155727318Y-72896296D01*
X155705140Y-72885806D01*
X155684096Y-72873193D01*
X155664391Y-72858579D01*
X155646212Y-72842103D01*
X155629736Y-72823924D01*
X155615122Y-72804219D01*
X155602509Y-72783175D01*
X155592019Y-72760997D01*
X155583754Y-72737897D01*
X155577793Y-72714099D01*
X155574193Y-72689830D01*
X155572989Y-72665326D01*
X155572989Y-71415326D01*
X155574193Y-71390822D01*
X155577793Y-71366553D01*
X155583754Y-71342755D01*
X155592019Y-71319655D01*
X155602509Y-71297477D01*
X155615122Y-71276433D01*
X155629736Y-71256728D01*
X155646212Y-71238549D01*
X155664391Y-71222073D01*
X155684096Y-71207459D01*
X155705140Y-71194846D01*
X155727318Y-71184356D01*
X155750418Y-71176091D01*
X155774216Y-71170130D01*
X155798485Y-71166530D01*
X155822989Y-71165326D01*
X156747989Y-71165326D01*
X156772493Y-71166530D01*
X156772493Y-71166530D01*
G37*
D13*
X156285489Y-72040326D03*
D12*
G36*
X153797493Y-71166530D02*
X153821762Y-71170130D01*
X153845560Y-71176091D01*
X153868660Y-71184356D01*
X153890838Y-71194846D01*
X153911882Y-71207459D01*
X153931587Y-71222073D01*
X153949766Y-71238549D01*
X153966242Y-71256728D01*
X153980856Y-71276433D01*
X153993469Y-71297477D01*
X154003959Y-71319655D01*
X154012224Y-71342755D01*
X154018185Y-71366553D01*
X154021785Y-71390822D01*
X154022989Y-71415326D01*
X154022989Y-72665326D01*
X154021785Y-72689830D01*
X154018185Y-72714099D01*
X154012224Y-72737897D01*
X154003959Y-72760997D01*
X153993469Y-72783175D01*
X153980856Y-72804219D01*
X153966242Y-72823924D01*
X153949766Y-72842103D01*
X153931587Y-72858579D01*
X153911882Y-72873193D01*
X153890838Y-72885806D01*
X153868660Y-72896296D01*
X153845560Y-72904561D01*
X153821762Y-72910522D01*
X153797493Y-72914122D01*
X153772989Y-72915326D01*
X152847989Y-72915326D01*
X152823485Y-72914122D01*
X152799216Y-72910522D01*
X152775418Y-72904561D01*
X152752318Y-72896296D01*
X152730140Y-72885806D01*
X152709096Y-72873193D01*
X152689391Y-72858579D01*
X152671212Y-72842103D01*
X152654736Y-72823924D01*
X152640122Y-72804219D01*
X152627509Y-72783175D01*
X152617019Y-72760997D01*
X152608754Y-72737897D01*
X152602793Y-72714099D01*
X152599193Y-72689830D01*
X152597989Y-72665326D01*
X152597989Y-71415326D01*
X152599193Y-71390822D01*
X152602793Y-71366553D01*
X152608754Y-71342755D01*
X152617019Y-71319655D01*
X152627509Y-71297477D01*
X152640122Y-71276433D01*
X152654736Y-71256728D01*
X152671212Y-71238549D01*
X152689391Y-71222073D01*
X152709096Y-71207459D01*
X152730140Y-71194846D01*
X152752318Y-71184356D01*
X152775418Y-71176091D01*
X152799216Y-71170130D01*
X152823485Y-71166530D01*
X152847989Y-71165326D01*
X153772989Y-71165326D01*
X153797493Y-71166530D01*
X153797493Y-71166530D01*
G37*
D13*
X153310489Y-72040326D03*
G04 #@! TD*
D12*
G04 #@! TO.C,R3*
G36*
X129649504Y-80301204D02*
X129673773Y-80304804D01*
X129697571Y-80310765D01*
X129720671Y-80319030D01*
X129742849Y-80329520D01*
X129763893Y-80342133D01*
X129783598Y-80356747D01*
X129801777Y-80373223D01*
X129818253Y-80391402D01*
X129832867Y-80411107D01*
X129845480Y-80432151D01*
X129855970Y-80454329D01*
X129864235Y-80477429D01*
X129870196Y-80501227D01*
X129873796Y-80525496D01*
X129875000Y-80550000D01*
X129875000Y-81475000D01*
X129873796Y-81499504D01*
X129870196Y-81523773D01*
X129864235Y-81547571D01*
X129855970Y-81570671D01*
X129845480Y-81592849D01*
X129832867Y-81613893D01*
X129818253Y-81633598D01*
X129801777Y-81651777D01*
X129783598Y-81668253D01*
X129763893Y-81682867D01*
X129742849Y-81695480D01*
X129720671Y-81705970D01*
X129697571Y-81714235D01*
X129673773Y-81720196D01*
X129649504Y-81723796D01*
X129625000Y-81725000D01*
X128375000Y-81725000D01*
X128350496Y-81723796D01*
X128326227Y-81720196D01*
X128302429Y-81714235D01*
X128279329Y-81705970D01*
X128257151Y-81695480D01*
X128236107Y-81682867D01*
X128216402Y-81668253D01*
X128198223Y-81651777D01*
X128181747Y-81633598D01*
X128167133Y-81613893D01*
X128154520Y-81592849D01*
X128144030Y-81570671D01*
X128135765Y-81547571D01*
X128129804Y-81523773D01*
X128126204Y-81499504D01*
X128125000Y-81475000D01*
X128125000Y-80550000D01*
X128126204Y-80525496D01*
X128129804Y-80501227D01*
X128135765Y-80477429D01*
X128144030Y-80454329D01*
X128154520Y-80432151D01*
X128167133Y-80411107D01*
X128181747Y-80391402D01*
X128198223Y-80373223D01*
X128216402Y-80356747D01*
X128236107Y-80342133D01*
X128257151Y-80329520D01*
X128279329Y-80319030D01*
X128302429Y-80310765D01*
X128326227Y-80304804D01*
X128350496Y-80301204D01*
X128375000Y-80300000D01*
X129625000Y-80300000D01*
X129649504Y-80301204D01*
X129649504Y-80301204D01*
G37*
D13*
X129000000Y-81012500D03*
D12*
G36*
X129649504Y-83276204D02*
X129673773Y-83279804D01*
X129697571Y-83285765D01*
X129720671Y-83294030D01*
X129742849Y-83304520D01*
X129763893Y-83317133D01*
X129783598Y-83331747D01*
X129801777Y-83348223D01*
X129818253Y-83366402D01*
X129832867Y-83386107D01*
X129845480Y-83407151D01*
X129855970Y-83429329D01*
X129864235Y-83452429D01*
X129870196Y-83476227D01*
X129873796Y-83500496D01*
X129875000Y-83525000D01*
X129875000Y-84450000D01*
X129873796Y-84474504D01*
X129870196Y-84498773D01*
X129864235Y-84522571D01*
X129855970Y-84545671D01*
X129845480Y-84567849D01*
X129832867Y-84588893D01*
X129818253Y-84608598D01*
X129801777Y-84626777D01*
X129783598Y-84643253D01*
X129763893Y-84657867D01*
X129742849Y-84670480D01*
X129720671Y-84680970D01*
X129697571Y-84689235D01*
X129673773Y-84695196D01*
X129649504Y-84698796D01*
X129625000Y-84700000D01*
X128375000Y-84700000D01*
X128350496Y-84698796D01*
X128326227Y-84695196D01*
X128302429Y-84689235D01*
X128279329Y-84680970D01*
X128257151Y-84670480D01*
X128236107Y-84657867D01*
X128216402Y-84643253D01*
X128198223Y-84626777D01*
X128181747Y-84608598D01*
X128167133Y-84588893D01*
X128154520Y-84567849D01*
X128144030Y-84545671D01*
X128135765Y-84522571D01*
X128129804Y-84498773D01*
X128126204Y-84474504D01*
X128125000Y-84450000D01*
X128125000Y-83525000D01*
X128126204Y-83500496D01*
X128129804Y-83476227D01*
X128135765Y-83452429D01*
X128144030Y-83429329D01*
X128154520Y-83407151D01*
X128167133Y-83386107D01*
X128181747Y-83366402D01*
X128198223Y-83348223D01*
X128216402Y-83331747D01*
X128236107Y-83317133D01*
X128257151Y-83304520D01*
X128279329Y-83294030D01*
X128302429Y-83285765D01*
X128326227Y-83279804D01*
X128350496Y-83276204D01*
X128375000Y-83275000D01*
X129625000Y-83275000D01*
X129649504Y-83276204D01*
X129649504Y-83276204D01*
G37*
D13*
X129000000Y-83987500D03*
G04 #@! TD*
D12*
G04 #@! TO.C,R1*
G36*
X156772493Y-63560280D02*
X156796762Y-63563880D01*
X156820560Y-63569841D01*
X156843660Y-63578106D01*
X156865838Y-63588596D01*
X156886882Y-63601209D01*
X156906587Y-63615823D01*
X156924766Y-63632299D01*
X156941242Y-63650478D01*
X156955856Y-63670183D01*
X156968469Y-63691227D01*
X156978959Y-63713405D01*
X156987224Y-63736505D01*
X156993185Y-63760303D01*
X156996785Y-63784572D01*
X156997989Y-63809076D01*
X156997989Y-65059076D01*
X156996785Y-65083580D01*
X156993185Y-65107849D01*
X156987224Y-65131647D01*
X156978959Y-65154747D01*
X156968469Y-65176925D01*
X156955856Y-65197969D01*
X156941242Y-65217674D01*
X156924766Y-65235853D01*
X156906587Y-65252329D01*
X156886882Y-65266943D01*
X156865838Y-65279556D01*
X156843660Y-65290046D01*
X156820560Y-65298311D01*
X156796762Y-65304272D01*
X156772493Y-65307872D01*
X156747989Y-65309076D01*
X155822989Y-65309076D01*
X155798485Y-65307872D01*
X155774216Y-65304272D01*
X155750418Y-65298311D01*
X155727318Y-65290046D01*
X155705140Y-65279556D01*
X155684096Y-65266943D01*
X155664391Y-65252329D01*
X155646212Y-65235853D01*
X155629736Y-65217674D01*
X155615122Y-65197969D01*
X155602509Y-65176925D01*
X155592019Y-65154747D01*
X155583754Y-65131647D01*
X155577793Y-65107849D01*
X155574193Y-65083580D01*
X155572989Y-65059076D01*
X155572989Y-63809076D01*
X155574193Y-63784572D01*
X155577793Y-63760303D01*
X155583754Y-63736505D01*
X155592019Y-63713405D01*
X155602509Y-63691227D01*
X155615122Y-63670183D01*
X155629736Y-63650478D01*
X155646212Y-63632299D01*
X155664391Y-63615823D01*
X155684096Y-63601209D01*
X155705140Y-63588596D01*
X155727318Y-63578106D01*
X155750418Y-63569841D01*
X155774216Y-63563880D01*
X155798485Y-63560280D01*
X155822989Y-63559076D01*
X156747989Y-63559076D01*
X156772493Y-63560280D01*
X156772493Y-63560280D01*
G37*
D13*
X156285489Y-64434076D03*
D12*
G36*
X153797493Y-63560280D02*
X153821762Y-63563880D01*
X153845560Y-63569841D01*
X153868660Y-63578106D01*
X153890838Y-63588596D01*
X153911882Y-63601209D01*
X153931587Y-63615823D01*
X153949766Y-63632299D01*
X153966242Y-63650478D01*
X153980856Y-63670183D01*
X153993469Y-63691227D01*
X154003959Y-63713405D01*
X154012224Y-63736505D01*
X154018185Y-63760303D01*
X154021785Y-63784572D01*
X154022989Y-63809076D01*
X154022989Y-65059076D01*
X154021785Y-65083580D01*
X154018185Y-65107849D01*
X154012224Y-65131647D01*
X154003959Y-65154747D01*
X153993469Y-65176925D01*
X153980856Y-65197969D01*
X153966242Y-65217674D01*
X153949766Y-65235853D01*
X153931587Y-65252329D01*
X153911882Y-65266943D01*
X153890838Y-65279556D01*
X153868660Y-65290046D01*
X153845560Y-65298311D01*
X153821762Y-65304272D01*
X153797493Y-65307872D01*
X153772989Y-65309076D01*
X152847989Y-65309076D01*
X152823485Y-65307872D01*
X152799216Y-65304272D01*
X152775418Y-65298311D01*
X152752318Y-65290046D01*
X152730140Y-65279556D01*
X152709096Y-65266943D01*
X152689391Y-65252329D01*
X152671212Y-65235853D01*
X152654736Y-65217674D01*
X152640122Y-65197969D01*
X152627509Y-65176925D01*
X152617019Y-65154747D01*
X152608754Y-65131647D01*
X152602793Y-65107849D01*
X152599193Y-65083580D01*
X152597989Y-65059076D01*
X152597989Y-63809076D01*
X152599193Y-63784572D01*
X152602793Y-63760303D01*
X152608754Y-63736505D01*
X152617019Y-63713405D01*
X152627509Y-63691227D01*
X152640122Y-63670183D01*
X152654736Y-63650478D01*
X152671212Y-63632299D01*
X152689391Y-63615823D01*
X152709096Y-63601209D01*
X152730140Y-63588596D01*
X152752318Y-63578106D01*
X152775418Y-63569841D01*
X152799216Y-63563880D01*
X152823485Y-63560280D01*
X152847989Y-63559076D01*
X153772989Y-63559076D01*
X153797493Y-63560280D01*
X153797493Y-63560280D01*
G37*
D13*
X153310489Y-64434076D03*
G04 #@! TD*
D12*
G04 #@! TO.C,R25*
G36*
X175999504Y-102376204D02*
X176023773Y-102379804D01*
X176047571Y-102385765D01*
X176070671Y-102394030D01*
X176092849Y-102404520D01*
X176113893Y-102417133D01*
X176133598Y-102431747D01*
X176151777Y-102448223D01*
X176168253Y-102466402D01*
X176182867Y-102486107D01*
X176195480Y-102507151D01*
X176205970Y-102529329D01*
X176214235Y-102552429D01*
X176220196Y-102576227D01*
X176223796Y-102600496D01*
X176225000Y-102625000D01*
X176225000Y-103875000D01*
X176223796Y-103899504D01*
X176220196Y-103923773D01*
X176214235Y-103947571D01*
X176205970Y-103970671D01*
X176195480Y-103992849D01*
X176182867Y-104013893D01*
X176168253Y-104033598D01*
X176151777Y-104051777D01*
X176133598Y-104068253D01*
X176113893Y-104082867D01*
X176092849Y-104095480D01*
X176070671Y-104105970D01*
X176047571Y-104114235D01*
X176023773Y-104120196D01*
X175999504Y-104123796D01*
X175975000Y-104125000D01*
X175050000Y-104125000D01*
X175025496Y-104123796D01*
X175001227Y-104120196D01*
X174977429Y-104114235D01*
X174954329Y-104105970D01*
X174932151Y-104095480D01*
X174911107Y-104082867D01*
X174891402Y-104068253D01*
X174873223Y-104051777D01*
X174856747Y-104033598D01*
X174842133Y-104013893D01*
X174829520Y-103992849D01*
X174819030Y-103970671D01*
X174810765Y-103947571D01*
X174804804Y-103923773D01*
X174801204Y-103899504D01*
X174800000Y-103875000D01*
X174800000Y-102625000D01*
X174801204Y-102600496D01*
X174804804Y-102576227D01*
X174810765Y-102552429D01*
X174819030Y-102529329D01*
X174829520Y-102507151D01*
X174842133Y-102486107D01*
X174856747Y-102466402D01*
X174873223Y-102448223D01*
X174891402Y-102431747D01*
X174911107Y-102417133D01*
X174932151Y-102404520D01*
X174954329Y-102394030D01*
X174977429Y-102385765D01*
X175001227Y-102379804D01*
X175025496Y-102376204D01*
X175050000Y-102375000D01*
X175975000Y-102375000D01*
X175999504Y-102376204D01*
X175999504Y-102376204D01*
G37*
D13*
X175512500Y-103250000D03*
D12*
G36*
X178974504Y-102376204D02*
X178998773Y-102379804D01*
X179022571Y-102385765D01*
X179045671Y-102394030D01*
X179067849Y-102404520D01*
X179088893Y-102417133D01*
X179108598Y-102431747D01*
X179126777Y-102448223D01*
X179143253Y-102466402D01*
X179157867Y-102486107D01*
X179170480Y-102507151D01*
X179180970Y-102529329D01*
X179189235Y-102552429D01*
X179195196Y-102576227D01*
X179198796Y-102600496D01*
X179200000Y-102625000D01*
X179200000Y-103875000D01*
X179198796Y-103899504D01*
X179195196Y-103923773D01*
X179189235Y-103947571D01*
X179180970Y-103970671D01*
X179170480Y-103992849D01*
X179157867Y-104013893D01*
X179143253Y-104033598D01*
X179126777Y-104051777D01*
X179108598Y-104068253D01*
X179088893Y-104082867D01*
X179067849Y-104095480D01*
X179045671Y-104105970D01*
X179022571Y-104114235D01*
X178998773Y-104120196D01*
X178974504Y-104123796D01*
X178950000Y-104125000D01*
X178025000Y-104125000D01*
X178000496Y-104123796D01*
X177976227Y-104120196D01*
X177952429Y-104114235D01*
X177929329Y-104105970D01*
X177907151Y-104095480D01*
X177886107Y-104082867D01*
X177866402Y-104068253D01*
X177848223Y-104051777D01*
X177831747Y-104033598D01*
X177817133Y-104013893D01*
X177804520Y-103992849D01*
X177794030Y-103970671D01*
X177785765Y-103947571D01*
X177779804Y-103923773D01*
X177776204Y-103899504D01*
X177775000Y-103875000D01*
X177775000Y-102625000D01*
X177776204Y-102600496D01*
X177779804Y-102576227D01*
X177785765Y-102552429D01*
X177794030Y-102529329D01*
X177804520Y-102507151D01*
X177817133Y-102486107D01*
X177831747Y-102466402D01*
X177848223Y-102448223D01*
X177866402Y-102431747D01*
X177886107Y-102417133D01*
X177907151Y-102404520D01*
X177929329Y-102394030D01*
X177952429Y-102385765D01*
X177976227Y-102379804D01*
X178000496Y-102376204D01*
X178025000Y-102375000D01*
X178950000Y-102375000D01*
X178974504Y-102376204D01*
X178974504Y-102376204D01*
G37*
D13*
X178487500Y-103250000D03*
G04 #@! TD*
D16*
G04 #@! TO.C,D1*
X168000000Y-95500000D03*
X168000000Y-98000000D03*
G04 #@! TD*
G04 #@! TO.C,D2*
X163000000Y-69500000D03*
X160500000Y-69500000D03*
G04 #@! TD*
G04 #@! TO.C,D3*
X165750000Y-96000000D03*
X165750000Y-93500000D03*
G04 #@! TD*
G04 #@! TO.C,D4*
X164000000Y-89000000D03*
X161500000Y-89000000D03*
G04 #@! TD*
D21*
G04 #@! TO.C,U5*
X164500000Y-59225000D03*
X165000000Y-59225000D03*
D22*
X165500000Y-59510000D03*
D21*
X166000000Y-59225000D03*
D22*
X166500000Y-59510000D03*
D21*
X166500000Y-56275000D03*
X166000000Y-56275000D03*
D22*
X165500000Y-55990000D03*
X165000000Y-55990000D03*
X164500000Y-55990000D03*
D23*
X164865000Y-58200000D03*
D24*
X163870000Y-58000000D03*
X163870000Y-57500000D03*
X167130000Y-58000000D03*
X167130000Y-57500000D03*
D23*
X164865000Y-57300000D03*
X166135000Y-58200000D03*
X166135000Y-57300000D03*
D22*
X164500000Y-59510000D03*
X165000000Y-59510000D03*
D21*
X165500000Y-59225000D03*
D22*
X166000000Y-59510000D03*
D21*
X166500000Y-59225000D03*
D22*
X166500000Y-55990000D03*
X166000000Y-55990000D03*
D21*
X165500000Y-56275000D03*
X165000000Y-56275000D03*
X164500000Y-56275000D03*
G04 #@! TD*
M02*
