G04 #@! TF.GenerationSoftware,KiCad,Pcbnew,(5.0.1)-3*
G04 #@! TF.CreationDate,2018-11-12T18:53:03-05:00*
G04 #@! TF.ProjectId,ESP32 Windlass,45535033322057696E646C6173732E6B,rev?*
G04 #@! TF.SameCoordinates,Original*
G04 #@! TF.FileFunction,Legend,Top*
G04 #@! TF.FilePolarity,Positive*
%FSLAX46Y46*%
G04 Gerber Fmt 4.6, Leading zero omitted, Abs format (unit mm)*
G04 Created by KiCad (PCBNEW (5.0.1)-3) date 11/12/2018 6:53:03 PM*
%MOMM*%
%LPD*%
G01*
G04 APERTURE LIST*
%ADD10C,0.300000*%
%ADD11C,0.200000*%
%ADD12C,0.150000*%
%ADD13C,0.120000*%
%ADD14C,0.050000*%
G04 APERTURE END LIST*
D10*
X122214285Y-102832142D02*
X122428571Y-102903571D01*
X122785714Y-102903571D01*
X122928571Y-102832142D01*
X123000000Y-102760714D01*
X123071428Y-102617857D01*
X123071428Y-102475000D01*
X123000000Y-102332142D01*
X122928571Y-102260714D01*
X122785714Y-102189285D01*
X122500000Y-102117857D01*
X122357142Y-102046428D01*
X122285714Y-101975000D01*
X122214285Y-101832142D01*
X122214285Y-101689285D01*
X122285714Y-101546428D01*
X122357142Y-101475000D01*
X122500000Y-101403571D01*
X122857142Y-101403571D01*
X123071428Y-101475000D01*
X123714285Y-102903571D02*
X123714285Y-101903571D01*
X123714285Y-101403571D02*
X123642857Y-101475000D01*
X123714285Y-101546428D01*
X123785714Y-101475000D01*
X123714285Y-101403571D01*
X123714285Y-101546428D01*
X125071428Y-101903571D02*
X125071428Y-103117857D01*
X125000000Y-103260714D01*
X124928571Y-103332142D01*
X124785714Y-103403571D01*
X124571428Y-103403571D01*
X124428571Y-103332142D01*
X125071428Y-102832142D02*
X124928571Y-102903571D01*
X124642857Y-102903571D01*
X124500000Y-102832142D01*
X124428571Y-102760714D01*
X124357142Y-102617857D01*
X124357142Y-102189285D01*
X124428571Y-102046428D01*
X124500000Y-101975000D01*
X124642857Y-101903571D01*
X124928571Y-101903571D01*
X125071428Y-101975000D01*
X125785714Y-102903571D02*
X125785714Y-101403571D01*
X126642857Y-102903571D02*
X126000000Y-102046428D01*
X126642857Y-101403571D02*
X125785714Y-102260714D01*
X127214285Y-102832142D02*
X127428571Y-102903571D01*
X127785714Y-102903571D01*
X127928571Y-102832142D01*
X128000000Y-102760714D01*
X128071428Y-102617857D01*
X128071428Y-102475000D01*
X128000000Y-102332142D01*
X127928571Y-102260714D01*
X127785714Y-102189285D01*
X127500000Y-102117857D01*
X127357142Y-102046428D01*
X127285714Y-101975000D01*
X127214285Y-101832142D01*
X127214285Y-101689285D01*
X127285714Y-101546428D01*
X127357142Y-101475000D01*
X127500000Y-101403571D01*
X127857142Y-101403571D01*
X128071428Y-101475000D01*
X129285714Y-102832142D02*
X129142857Y-102903571D01*
X128857142Y-102903571D01*
X128714285Y-102832142D01*
X128642857Y-102689285D01*
X128642857Y-102117857D01*
X128714285Y-101975000D01*
X128857142Y-101903571D01*
X129142857Y-101903571D01*
X129285714Y-101975000D01*
X129357142Y-102117857D01*
X129357142Y-102260714D01*
X128642857Y-102403571D01*
X130000000Y-101903571D02*
X130000000Y-102903571D01*
X130000000Y-102046428D02*
X130071428Y-101975000D01*
X130214285Y-101903571D01*
X130428571Y-101903571D01*
X130571428Y-101975000D01*
X130642857Y-102117857D01*
X130642857Y-102903571D01*
X131285714Y-102832142D02*
X131428571Y-102903571D01*
X131714285Y-102903571D01*
X131857142Y-102832142D01*
X131928571Y-102689285D01*
X131928571Y-102617857D01*
X131857142Y-102475000D01*
X131714285Y-102403571D01*
X131500000Y-102403571D01*
X131357142Y-102332142D01*
X131285714Y-102189285D01*
X131285714Y-102117857D01*
X131357142Y-101975000D01*
X131500000Y-101903571D01*
X131714285Y-101903571D01*
X131857142Y-101975000D01*
X133571428Y-101403571D02*
X133928571Y-102903571D01*
X134214285Y-101832142D01*
X134500000Y-102903571D01*
X134857142Y-101403571D01*
X135428571Y-102903571D02*
X135428571Y-101903571D01*
X135428571Y-101403571D02*
X135357142Y-101475000D01*
X135428571Y-101546428D01*
X135500000Y-101475000D01*
X135428571Y-101403571D01*
X135428571Y-101546428D01*
X136142857Y-101903571D02*
X136142857Y-102903571D01*
X136142857Y-102046428D02*
X136214285Y-101975000D01*
X136357142Y-101903571D01*
X136571428Y-101903571D01*
X136714285Y-101975000D01*
X136785714Y-102117857D01*
X136785714Y-102903571D01*
X138142857Y-102903571D02*
X138142857Y-101403571D01*
X138142857Y-102832142D02*
X138000000Y-102903571D01*
X137714285Y-102903571D01*
X137571428Y-102832142D01*
X137500000Y-102760714D01*
X137428571Y-102617857D01*
X137428571Y-102189285D01*
X137500000Y-102046428D01*
X137571428Y-101975000D01*
X137714285Y-101903571D01*
X138000000Y-101903571D01*
X138142857Y-101975000D01*
X139071428Y-102903571D02*
X138928571Y-102832142D01*
X138857142Y-102689285D01*
X138857142Y-101403571D01*
X140285714Y-102903571D02*
X140285714Y-102117857D01*
X140214285Y-101975000D01*
X140071428Y-101903571D01*
X139785714Y-101903571D01*
X139642857Y-101975000D01*
X140285714Y-102832142D02*
X140142857Y-102903571D01*
X139785714Y-102903571D01*
X139642857Y-102832142D01*
X139571428Y-102689285D01*
X139571428Y-102546428D01*
X139642857Y-102403571D01*
X139785714Y-102332142D01*
X140142857Y-102332142D01*
X140285714Y-102260714D01*
X140928571Y-102832142D02*
X141071428Y-102903571D01*
X141357142Y-102903571D01*
X141500000Y-102832142D01*
X141571428Y-102689285D01*
X141571428Y-102617857D01*
X141500000Y-102475000D01*
X141357142Y-102403571D01*
X141142857Y-102403571D01*
X141000000Y-102332142D01*
X140928571Y-102189285D01*
X140928571Y-102117857D01*
X141000000Y-101975000D01*
X141142857Y-101903571D01*
X141357142Y-101903571D01*
X141500000Y-101975000D01*
X142142857Y-102832142D02*
X142285714Y-102903571D01*
X142571428Y-102903571D01*
X142714285Y-102832142D01*
X142785714Y-102689285D01*
X142785714Y-102617857D01*
X142714285Y-102475000D01*
X142571428Y-102403571D01*
X142357142Y-102403571D01*
X142214285Y-102332142D01*
X142142857Y-102189285D01*
X142142857Y-102117857D01*
X142214285Y-101975000D01*
X142357142Y-101903571D01*
X142571428Y-101903571D01*
X142714285Y-101975000D01*
X130464285Y-105453571D02*
X129964285Y-104739285D01*
X129607142Y-105453571D02*
X129607142Y-103953571D01*
X130178571Y-103953571D01*
X130321428Y-104025000D01*
X130392857Y-104096428D01*
X130464285Y-104239285D01*
X130464285Y-104453571D01*
X130392857Y-104596428D01*
X130321428Y-104667857D01*
X130178571Y-104739285D01*
X129607142Y-104739285D01*
X131678571Y-105382142D02*
X131535714Y-105453571D01*
X131250000Y-105453571D01*
X131107142Y-105382142D01*
X131035714Y-105239285D01*
X131035714Y-104667857D01*
X131107142Y-104525000D01*
X131250000Y-104453571D01*
X131535714Y-104453571D01*
X131678571Y-104525000D01*
X131750000Y-104667857D01*
X131750000Y-104810714D01*
X131035714Y-104953571D01*
X132250000Y-104453571D02*
X132607142Y-105453571D01*
X132964285Y-104453571D01*
X135464285Y-105453571D02*
X134607142Y-105453571D01*
X135035714Y-105453571D02*
X135035714Y-103953571D01*
X134892857Y-104167857D01*
X134750000Y-104310714D01*
X134607142Y-104382142D01*
D11*
X193000000Y-58750000D02*
X199000000Y-58750000D01*
X193000000Y-68750000D02*
X199000000Y-68750000D01*
X193000000Y-78750000D02*
X199000000Y-78750000D01*
X193000000Y-88750000D02*
X199000000Y-88750000D01*
X198750000Y-98750000D02*
X199000000Y-98750000D01*
X193000000Y-98750000D02*
X198750000Y-98750000D01*
D10*
X194428571Y-104285714D02*
X194357142Y-104357142D01*
X194142857Y-104428571D01*
X194000000Y-104428571D01*
X193785714Y-104357142D01*
X193642857Y-104214285D01*
X193571428Y-104071428D01*
X193500000Y-103785714D01*
X193500000Y-103571428D01*
X193571428Y-103285714D01*
X193642857Y-103142857D01*
X193785714Y-103000000D01*
X194000000Y-102928571D01*
X194142857Y-102928571D01*
X194357142Y-103000000D01*
X194428571Y-103071428D01*
X195071428Y-104428571D02*
X195071428Y-102928571D01*
X195928571Y-104428571D01*
X195928571Y-102928571D01*
X196428571Y-102928571D02*
X197285714Y-102928571D01*
X196857142Y-104428571D02*
X196857142Y-102928571D01*
X197785714Y-103857142D02*
X198928571Y-103857142D01*
X194178571Y-94285714D02*
X194107142Y-94357142D01*
X193892857Y-94428571D01*
X193750000Y-94428571D01*
X193535714Y-94357142D01*
X193392857Y-94214285D01*
X193321428Y-94071428D01*
X193250000Y-93785714D01*
X193250000Y-93571428D01*
X193321428Y-93285714D01*
X193392857Y-93142857D01*
X193535714Y-93000000D01*
X193750000Y-92928571D01*
X193892857Y-92928571D01*
X194107142Y-93000000D01*
X194178571Y-93071428D01*
X194821428Y-94428571D02*
X194821428Y-92928571D01*
X195678571Y-94428571D01*
X195678571Y-92928571D01*
X196178571Y-92928571D02*
X197035714Y-92928571D01*
X196607142Y-94428571D02*
X196607142Y-92928571D01*
X197535714Y-93857142D02*
X198678571Y-93857142D01*
X198107142Y-94428571D02*
X198107142Y-93285714D01*
X194464285Y-84285714D02*
X194392857Y-84357142D01*
X194178571Y-84428571D01*
X194035714Y-84428571D01*
X193821428Y-84357142D01*
X193678571Y-84214285D01*
X193607142Y-84071428D01*
X193535714Y-83785714D01*
X193535714Y-83571428D01*
X193607142Y-83285714D01*
X193678571Y-83142857D01*
X193821428Y-83000000D01*
X194035714Y-82928571D01*
X194178571Y-82928571D01*
X194392857Y-83000000D01*
X194464285Y-83071428D01*
X195107142Y-84428571D02*
X195107142Y-82928571D01*
X195107142Y-83642857D02*
X195964285Y-83642857D01*
X195964285Y-84428571D02*
X195964285Y-82928571D01*
X196607142Y-83071428D02*
X196678571Y-83000000D01*
X196821428Y-82928571D01*
X197178571Y-82928571D01*
X197321428Y-83000000D01*
X197392857Y-83071428D01*
X197464285Y-83214285D01*
X197464285Y-83357142D01*
X197392857Y-83571428D01*
X196535714Y-84428571D01*
X197464285Y-84428571D01*
X194464285Y-74285714D02*
X194392857Y-74357142D01*
X194178571Y-74428571D01*
X194035714Y-74428571D01*
X193821428Y-74357142D01*
X193678571Y-74214285D01*
X193607142Y-74071428D01*
X193535714Y-73785714D01*
X193535714Y-73571428D01*
X193607142Y-73285714D01*
X193678571Y-73142857D01*
X193821428Y-73000000D01*
X194035714Y-72928571D01*
X194178571Y-72928571D01*
X194392857Y-73000000D01*
X194464285Y-73071428D01*
X195107142Y-74428571D02*
X195107142Y-72928571D01*
X195107142Y-73642857D02*
X195964285Y-73642857D01*
X195964285Y-74428571D02*
X195964285Y-72928571D01*
X197464285Y-74428571D02*
X196607142Y-74428571D01*
X197035714Y-74428571D02*
X197035714Y-72928571D01*
X196892857Y-73142857D01*
X196750000Y-73285714D01*
X196607142Y-73357142D01*
X194821428Y-64678571D02*
X193964285Y-64678571D01*
X194392857Y-64678571D02*
X194392857Y-63178571D01*
X194250000Y-63392857D01*
X194107142Y-63535714D01*
X193964285Y-63607142D01*
X195392857Y-63321428D02*
X195464285Y-63250000D01*
X195607142Y-63178571D01*
X195964285Y-63178571D01*
X196107142Y-63250000D01*
X196178571Y-63321428D01*
X196250000Y-63464285D01*
X196250000Y-63607142D01*
X196178571Y-63821428D01*
X195321428Y-64678571D01*
X196250000Y-64678571D01*
X196678571Y-63178571D02*
X197178571Y-64678571D01*
X197678571Y-63178571D01*
X194607142Y-53250000D02*
X194464285Y-53178571D01*
X194250000Y-53178571D01*
X194035714Y-53250000D01*
X193892857Y-53392857D01*
X193821428Y-53535714D01*
X193750000Y-53821428D01*
X193750000Y-54035714D01*
X193821428Y-54321428D01*
X193892857Y-54464285D01*
X194035714Y-54607142D01*
X194250000Y-54678571D01*
X194392857Y-54678571D01*
X194607142Y-54607142D01*
X194678571Y-54535714D01*
X194678571Y-54035714D01*
X194392857Y-54035714D01*
X195321428Y-54678571D02*
X195321428Y-53178571D01*
X196178571Y-54678571D01*
X196178571Y-53178571D01*
X196892857Y-54678571D02*
X196892857Y-53178571D01*
X197250000Y-53178571D01*
X197464285Y-53250000D01*
X197607142Y-53392857D01*
X197678571Y-53535714D01*
X197750000Y-53821428D01*
X197750000Y-54035714D01*
X197678571Y-54321428D01*
X197607142Y-54464285D01*
X197464285Y-54607142D01*
X197250000Y-54678571D01*
X196892857Y-54678571D01*
D12*
G04 #@! TO.C,U1*
X175175000Y-67475000D02*
X173775000Y-67475000D01*
X175175000Y-72575000D02*
X179325000Y-72575000D01*
X175175000Y-67425000D02*
X179325000Y-67425000D01*
X175175000Y-72575000D02*
X175175000Y-72430000D01*
X179325000Y-72575000D02*
X179325000Y-72430000D01*
X179325000Y-67425000D02*
X179325000Y-67570000D01*
X175175000Y-67425000D02*
X175175000Y-67475000D01*
G04 #@! TO.C,U2*
X175175000Y-84425000D02*
X175175000Y-84475000D01*
X179325000Y-84425000D02*
X179325000Y-84570000D01*
X179325000Y-89575000D02*
X179325000Y-89430000D01*
X175175000Y-89575000D02*
X175175000Y-89430000D01*
X175175000Y-84425000D02*
X179325000Y-84425000D01*
X175175000Y-89575000D02*
X179325000Y-89575000D01*
X175175000Y-84475000D02*
X173775000Y-84475000D01*
D13*
G04 #@! TO.C,J2*
X186016648Y-54538712D02*
G75*
G02X185820000Y-53750000I1483352J788712D01*
G01*
X188289088Y-55233953D02*
G75*
G02X186711000Y-55234000I-789088J1483953D01*
G01*
X188983953Y-52960912D02*
G75*
G02X188984000Y-54539000I-1483953J-789088D01*
G01*
X186710912Y-52266047D02*
G75*
G02X188289000Y-52266000I789088J-1483953D01*
G01*
X185819550Y-53779383D02*
G75*
G02X186016000Y-52961000I1680450J29383D01*
G01*
X189000000Y-58750000D02*
G75*
G03X189000000Y-58750000I-1500000J0D01*
G01*
X189180000Y-63750000D02*
G75*
G03X189180000Y-63750000I-1680000J0D01*
G01*
X189000000Y-68750000D02*
G75*
G03X189000000Y-68750000I-1500000J0D01*
G01*
X189180000Y-73750000D02*
G75*
G03X189180000Y-73750000I-1680000J0D01*
G01*
X189000000Y-78750000D02*
G75*
G03X189000000Y-78750000I-1500000J0D01*
G01*
X189180000Y-83750000D02*
G75*
G03X189180000Y-83750000I-1680000J0D01*
G01*
X189000000Y-88750000D02*
G75*
G03X189000000Y-88750000I-1500000J0D01*
G01*
X189180000Y-93750000D02*
G75*
G03X189180000Y-93750000I-1680000J0D01*
G01*
X189000000Y-98750000D02*
G75*
G03X189000000Y-98750000I-1500000J0D01*
G01*
X189180000Y-103750000D02*
G75*
G03X189180000Y-103750000I-1680000J0D01*
G01*
X184050000Y-51190000D02*
X184050000Y-106310000D01*
X184650000Y-51190000D02*
X184650000Y-106310000D01*
X189550000Y-51190000D02*
X189550000Y-106310000D01*
X191610000Y-51190000D02*
X191610000Y-106310000D01*
X183390000Y-51190000D02*
X183390000Y-106310000D01*
X191610000Y-51190000D02*
X183390000Y-51190000D01*
X191610000Y-106310000D02*
X183390000Y-106310000D01*
X191550000Y-52500000D02*
X191550000Y-55000000D01*
X190550000Y-52500000D02*
X190550000Y-55000000D01*
X191550000Y-52500000D02*
X190550000Y-52500000D01*
X191550000Y-55000000D02*
X190550000Y-55000000D01*
X191550000Y-57500000D02*
X191550000Y-60000000D01*
X190550000Y-57500000D02*
X190550000Y-60000000D01*
X191550000Y-57500000D02*
X190550000Y-57500000D01*
X191550000Y-60000000D02*
X190550000Y-60000000D01*
X188569000Y-65025000D02*
X188476000Y-64931000D01*
X186284000Y-62740000D02*
X186226000Y-62681000D01*
X188775000Y-64820000D02*
X188716000Y-64761000D01*
X186524000Y-62570000D02*
X186431000Y-62476000D01*
X191550000Y-62500000D02*
X191550000Y-65000000D01*
X190550000Y-62500000D02*
X190550000Y-65000000D01*
X191550000Y-62500000D02*
X190550000Y-62500000D01*
X191550000Y-65000000D02*
X190550000Y-65000000D01*
X191550000Y-67500000D02*
X191550000Y-70000000D01*
X190550000Y-67500000D02*
X190550000Y-70000000D01*
X191550000Y-67500000D02*
X190550000Y-67500000D01*
X191550000Y-70000000D02*
X190550000Y-70000000D01*
X188569000Y-75025000D02*
X188476000Y-74931000D01*
X186284000Y-72740000D02*
X186226000Y-72681000D01*
X188775000Y-74820000D02*
X188716000Y-74761000D01*
X186524000Y-72570000D02*
X186431000Y-72476000D01*
X191550000Y-72500000D02*
X191550000Y-75000000D01*
X190550000Y-72500000D02*
X190550000Y-75000000D01*
X191550000Y-72500000D02*
X190550000Y-72500000D01*
X191550000Y-75000000D02*
X190550000Y-75000000D01*
X191550000Y-77500000D02*
X191550000Y-80000000D01*
X190550000Y-77500000D02*
X190550000Y-80000000D01*
X191550000Y-77500000D02*
X190550000Y-77500000D01*
X191550000Y-80000000D02*
X190550000Y-80000000D01*
X188569000Y-85025000D02*
X188476000Y-84931000D01*
X186284000Y-82740000D02*
X186226000Y-82681000D01*
X188775000Y-84820000D02*
X188716000Y-84761000D01*
X186524000Y-82570000D02*
X186431000Y-82476000D01*
X191550000Y-82500000D02*
X191550000Y-85000000D01*
X190550000Y-82500000D02*
X190550000Y-85000000D01*
X191550000Y-82500000D02*
X190550000Y-82500000D01*
X191550000Y-85000000D02*
X190550000Y-85000000D01*
X191550000Y-87500000D02*
X191550000Y-90000000D01*
X190550000Y-87500000D02*
X190550000Y-90000000D01*
X191550000Y-87500000D02*
X190550000Y-87500000D01*
X191550000Y-90000000D02*
X190550000Y-90000000D01*
X188569000Y-95025000D02*
X188476000Y-94931000D01*
X186284000Y-92740000D02*
X186226000Y-92681000D01*
X188775000Y-94820000D02*
X188716000Y-94761000D01*
X186524000Y-92570000D02*
X186431000Y-92476000D01*
X191550000Y-92500000D02*
X191550000Y-95000000D01*
X190550000Y-92500000D02*
X190550000Y-95000000D01*
X191550000Y-92500000D02*
X190550000Y-92500000D01*
X191550000Y-95000000D02*
X190550000Y-95000000D01*
X191550000Y-97500000D02*
X191550000Y-100000000D01*
X190550000Y-97500000D02*
X190550000Y-100000000D01*
X191550000Y-97500000D02*
X190550000Y-97500000D01*
X191550000Y-100000000D02*
X190550000Y-100000000D01*
X188569000Y-105025000D02*
X188476000Y-104931000D01*
X186284000Y-102740000D02*
X186226000Y-102681000D01*
X188775000Y-104820000D02*
X188716000Y-104761000D01*
X186524000Y-102570000D02*
X186431000Y-102476000D01*
X191550000Y-102500000D02*
X191550000Y-105000000D01*
X190550000Y-102500000D02*
X190550000Y-105000000D01*
X191550000Y-102500000D02*
X190550000Y-102500000D01*
X191550000Y-105000000D02*
X190550000Y-105000000D01*
X183990000Y-50950000D02*
X183150000Y-50950000D01*
X183150000Y-50950000D02*
X183150000Y-51550000D01*
G04 #@! TO.C,C1*
X126410000Y-89147936D02*
X126410000Y-90352064D01*
X124590000Y-89147936D02*
X124590000Y-90352064D01*
G04 #@! TO.C,K1*
X125030000Y-93130000D02*
X129770000Y-93130000D01*
X125030000Y-93130000D02*
X125030000Y-93530000D01*
X129770000Y-93130000D02*
X129770000Y-93530000D01*
X125030000Y-97870000D02*
X125030000Y-97470000D01*
X125030000Y-97870000D02*
X129770000Y-97870000D01*
X129770000Y-97870000D02*
X129770000Y-97470000D01*
X129770000Y-96530000D02*
X129770000Y-94470000D01*
X125030000Y-96530000D02*
X125030000Y-94470000D01*
G04 #@! TO.C,C14*
X155160000Y-55660436D02*
X155160000Y-56864564D01*
X153340000Y-55660436D02*
X153340000Y-56864564D01*
G04 #@! TO.C,C12*
X174419131Y-56803440D02*
X174419131Y-55599312D01*
X172599131Y-56803440D02*
X172599131Y-55599312D01*
G04 #@! TO.C,C11*
X169599131Y-56803440D02*
X169599131Y-55599312D01*
X171419131Y-56803440D02*
X171419131Y-55599312D01*
G04 #@! TO.C,C10*
X162410436Y-79660000D02*
X163614564Y-79660000D01*
X162410436Y-77840000D02*
X163614564Y-77840000D01*
G04 #@! TO.C,C9*
X162397936Y-75340000D02*
X163602064Y-75340000D01*
X162397936Y-77160000D02*
X163602064Y-77160000D01*
G04 #@! TO.C,C8*
X181910000Y-82089564D02*
X181910000Y-80885436D01*
X180090000Y-82089564D02*
X180090000Y-80885436D01*
G04 #@! TO.C,C7*
X181910000Y-75160436D02*
X181910000Y-76364564D01*
X180090000Y-75160436D02*
X180090000Y-76364564D01*
G04 #@! TO.C,C2*
X133090000Y-94910436D02*
X133090000Y-96114564D01*
X134910000Y-94910436D02*
X134910000Y-96114564D01*
G04 #@! TO.C,C3*
X124840000Y-83114564D02*
X124840000Y-81910436D01*
X126660000Y-83114564D02*
X126660000Y-81910436D01*
G04 #@! TO.C,C4*
X124160000Y-83102064D02*
X124160000Y-81897936D01*
X122340000Y-83102064D02*
X122340000Y-81897936D01*
G04 #@! TO.C,C13*
X164840000Y-102852064D02*
X164840000Y-101647936D01*
X166660000Y-102852064D02*
X166660000Y-101647936D01*
G04 #@! TO.C,C5*
X154397936Y-99160000D02*
X155602064Y-99160000D01*
X154397936Y-97340000D02*
X155602064Y-97340000D01*
G04 #@! TO.C,C6*
X154397936Y-92840000D02*
X155602064Y-92840000D01*
X154397936Y-94660000D02*
X155602064Y-94660000D01*
G04 #@! TO.C,J1*
X124470000Y-51170000D02*
X124470000Y-53830000D01*
X137230000Y-51170000D02*
X124470000Y-51170000D01*
X137230000Y-53830000D02*
X124470000Y-53830000D01*
X137230000Y-51170000D02*
X137230000Y-53830000D01*
X138500000Y-51170000D02*
X139830000Y-51170000D01*
X139830000Y-51170000D02*
X139830000Y-52500000D01*
G04 #@! TO.C,D8*
X178600000Y-61150000D02*
X181900000Y-61150000D01*
X181900000Y-61150000D02*
X181900000Y-54250000D01*
X178600000Y-61150000D02*
X178600000Y-54250000D01*
G04 #@! TO.C,D9*
X172400000Y-104400000D02*
X174100000Y-104400000D01*
X174100000Y-104400000D02*
X174100000Y-101250000D01*
X172400000Y-104400000D02*
X172400000Y-101250000D01*
G04 #@! TO.C,F1*
X175590000Y-59839564D02*
X175590000Y-58635436D01*
X177410000Y-59839564D02*
X177410000Y-58635436D01*
G04 #@! TO.C,L1*
X157290000Y-58447369D02*
X157290000Y-56852631D01*
X161710000Y-58447369D02*
X161710000Y-56852631D01*
G04 #@! TO.C,D5*
X151150000Y-62135000D02*
X155210000Y-62135000D01*
X155210000Y-62135000D02*
X155210000Y-59865000D01*
X155210000Y-59865000D02*
X151150000Y-59865000D01*
G04 #@! TO.C,D6*
X135615000Y-81290000D02*
X135615000Y-85350000D01*
X137885000Y-81290000D02*
X135615000Y-81290000D01*
X137885000Y-85350000D02*
X137885000Y-81290000D01*
G04 #@! TO.C,D7*
X134885000Y-85337500D02*
X134885000Y-81277500D01*
X134885000Y-81277500D02*
X132615000Y-81277500D01*
X132615000Y-81277500D02*
X132615000Y-85337500D01*
D12*
G04 #@! TO.C,U4*
X157925000Y-78925000D02*
X157925000Y-78700000D01*
X154575000Y-78925000D02*
X154575000Y-78625000D01*
X154575000Y-75575000D02*
X154575000Y-75875000D01*
X157925000Y-75575000D02*
X157925000Y-75875000D01*
X157925000Y-78925000D02*
X154575000Y-78925000D01*
X157925000Y-75575000D02*
X154575000Y-75575000D01*
X157925000Y-78700000D02*
X159150000Y-78700000D01*
G04 #@! TO.C,U3*
X114646000Y-57733000D02*
X114646000Y-75767000D01*
X120615000Y-57733000D02*
X114646000Y-57733000D01*
X120615000Y-75767000D02*
X114646000Y-75767000D01*
D14*
X146200000Y-75750000D02*
X120670000Y-75750000D01*
X120670000Y-75750000D02*
X120670000Y-57750000D01*
X120670000Y-57750000D02*
X146200000Y-57750000D01*
X146200000Y-57750000D02*
X146200000Y-75750000D01*
D13*
G04 #@! TO.C,R2*
X154195925Y-66024076D02*
X155400053Y-66024076D01*
X154195925Y-67844076D02*
X155400053Y-67844076D01*
G04 #@! TO.C,R24*
X168840000Y-101660436D02*
X168840000Y-102864564D01*
X170660000Y-101660436D02*
X170660000Y-102864564D01*
G04 #@! TO.C,R23*
X134660000Y-88635436D02*
X134660000Y-89839564D01*
X132840000Y-88635436D02*
X132840000Y-89839564D01*
G04 #@! TO.C,R22*
X135840000Y-88660436D02*
X135840000Y-89864564D01*
X137660000Y-88660436D02*
X137660000Y-89864564D01*
G04 #@! TO.C,R21*
X150090000Y-56864564D02*
X150090000Y-55660436D01*
X151910000Y-56864564D02*
X151910000Y-55660436D01*
G04 #@! TO.C,R20*
X171897936Y-94910000D02*
X173102064Y-94910000D01*
X171897936Y-93090000D02*
X173102064Y-93090000D01*
G04 #@! TO.C,R19*
X163352064Y-86910000D02*
X162147936Y-86910000D01*
X163352064Y-85090000D02*
X162147936Y-85090000D01*
G04 #@! TO.C,R18*
X171897936Y-98160000D02*
X173102064Y-98160000D01*
X171897936Y-96340000D02*
X173102064Y-96340000D01*
G04 #@! TO.C,R17*
X162467350Y-73079793D02*
X161263222Y-73079793D01*
X162467350Y-71259793D02*
X161263222Y-71259793D01*
G04 #@! TO.C,R16*
X166590000Y-86885436D02*
X166590000Y-88089564D01*
X168410000Y-86885436D02*
X168410000Y-88089564D01*
G04 #@! TO.C,R15*
X167910000Y-70147936D02*
X167910000Y-71352064D01*
X166090000Y-70147936D02*
X166090000Y-71352064D01*
G04 #@! TO.C,R14*
X171910000Y-88114564D02*
X171910000Y-86910436D01*
X170090000Y-88114564D02*
X170090000Y-86910436D01*
G04 #@! TO.C,R13*
X160147936Y-92840000D02*
X161352064Y-92840000D01*
X160147936Y-94660000D02*
X161352064Y-94660000D01*
G04 #@! TO.C,R12*
X171660000Y-71364564D02*
X171660000Y-70160436D01*
X169840000Y-71364564D02*
X169840000Y-70160436D01*
G04 #@! TO.C,R11*
X160147936Y-97340000D02*
X161352064Y-97340000D01*
X160147936Y-99160000D02*
X161352064Y-99160000D01*
G04 #@! TO.C,R10*
X171897936Y-83410000D02*
X173102064Y-83410000D01*
X171897936Y-81590000D02*
X173102064Y-81590000D01*
G04 #@! TO.C,R9*
X171897936Y-64840000D02*
X173102064Y-64840000D01*
X171897936Y-66660000D02*
X173102064Y-66660000D01*
G04 #@! TO.C,R8*
X165385436Y-83660000D02*
X166589564Y-83660000D01*
X165385436Y-81840000D02*
X166589564Y-81840000D01*
G04 #@! TO.C,R7*
X164910436Y-64840000D02*
X166114564Y-64840000D01*
X164910436Y-66660000D02*
X166114564Y-66660000D01*
G04 #@! TO.C,R6*
X154195925Y-70450326D02*
X155400053Y-70450326D01*
X154195925Y-68630326D02*
X155400053Y-68630326D01*
G04 #@! TO.C,R5*
X128090000Y-90339564D02*
X128090000Y-89135436D01*
X129910000Y-90339564D02*
X129910000Y-89135436D01*
G04 #@! TO.C,R4*
X154195925Y-72950326D02*
X155400053Y-72950326D01*
X154195925Y-71130326D02*
X155400053Y-71130326D01*
G04 #@! TO.C,R3*
X129910000Y-81897936D02*
X129910000Y-83102064D01*
X128090000Y-81897936D02*
X128090000Y-83102064D01*
G04 #@! TO.C,R1*
X154195925Y-65344076D02*
X155400053Y-65344076D01*
X154195925Y-63524076D02*
X155400053Y-63524076D01*
G04 #@! TO.C,R25*
X176397936Y-102340000D02*
X177602064Y-102340000D01*
X176397936Y-104160000D02*
X177602064Y-104160000D01*
G04 #@! TO.C,D1*
X167150000Y-98650000D02*
X167150000Y-95500000D01*
X168850000Y-98650000D02*
X168850000Y-95500000D01*
X167150000Y-98650000D02*
X168850000Y-98650000D01*
G04 #@! TO.C,D2*
X163650000Y-70350000D02*
X163650000Y-68650000D01*
X163650000Y-68650000D02*
X160500000Y-68650000D01*
X163650000Y-70350000D02*
X160500000Y-70350000D01*
G04 #@! TO.C,D3*
X166600000Y-92850000D02*
X166600000Y-96000000D01*
X164900000Y-92850000D02*
X164900000Y-96000000D01*
X166600000Y-92850000D02*
X164900000Y-92850000D01*
G04 #@! TO.C,D4*
X164650000Y-89850000D02*
X164650000Y-88150000D01*
X164650000Y-88150000D02*
X161500000Y-88150000D01*
X164650000Y-89850000D02*
X161500000Y-89850000D01*
G04 #@! TO.C,U5*
X167125000Y-57100000D02*
X167125000Y-56125000D01*
X163875000Y-59375000D02*
X163875000Y-58400000D01*
X163875000Y-57100000D02*
X163875000Y-56125000D01*
X167125000Y-59375000D02*
X167125000Y-58400000D01*
X164100000Y-56125000D02*
X163875000Y-56125000D01*
X166900000Y-56125000D02*
X167125000Y-56125000D01*
X167125000Y-59375000D02*
X166900000Y-59375000D01*
G04 #@! TO.C,*
D12*
G04 #@! TO.C,U1*
X176488095Y-65896380D02*
X176488095Y-66705904D01*
X176535714Y-66801142D01*
X176583333Y-66848761D01*
X176678571Y-66896380D01*
X176869047Y-66896380D01*
X176964285Y-66848761D01*
X177011904Y-66801142D01*
X177059523Y-66705904D01*
X177059523Y-65896380D01*
X178059523Y-66896380D02*
X177488095Y-66896380D01*
X177773809Y-66896380D02*
X177773809Y-65896380D01*
X177678571Y-66039238D01*
X177583333Y-66134476D01*
X177488095Y-66182095D01*
G04 #@! TO.C,U2*
X176488095Y-82896380D02*
X176488095Y-83705904D01*
X176535714Y-83801142D01*
X176583333Y-83848761D01*
X176678571Y-83896380D01*
X176869047Y-83896380D01*
X176964285Y-83848761D01*
X177011904Y-83801142D01*
X177059523Y-83705904D01*
X177059523Y-82896380D01*
X177488095Y-82991619D02*
X177535714Y-82944000D01*
X177630952Y-82896380D01*
X177869047Y-82896380D01*
X177964285Y-82944000D01*
X178011904Y-82991619D01*
X178059523Y-83086857D01*
X178059523Y-83182095D01*
X178011904Y-83324952D01*
X177440476Y-83896380D01*
X178059523Y-83896380D01*
G04 #@! TO.C,J2*
X192062380Y-79083333D02*
X192776666Y-79083333D01*
X192919523Y-79130952D01*
X193014761Y-79226190D01*
X193062380Y-79369047D01*
X193062380Y-79464285D01*
X192157619Y-78654761D02*
X192110000Y-78607142D01*
X192062380Y-78511904D01*
X192062380Y-78273809D01*
X192110000Y-78178571D01*
X192157619Y-78130952D01*
X192252857Y-78083333D01*
X192348095Y-78083333D01*
X192490952Y-78130952D01*
X193062380Y-78702380D01*
X193062380Y-78083333D01*
G04 #@! TO.C,C1*
X124107142Y-89916666D02*
X124154761Y-89964285D01*
X124202380Y-90107142D01*
X124202380Y-90202380D01*
X124154761Y-90345238D01*
X124059523Y-90440476D01*
X123964285Y-90488095D01*
X123773809Y-90535714D01*
X123630952Y-90535714D01*
X123440476Y-90488095D01*
X123345238Y-90440476D01*
X123250000Y-90345238D01*
X123202380Y-90202380D01*
X123202380Y-90107142D01*
X123250000Y-89964285D01*
X123297619Y-89916666D01*
X124202380Y-88964285D02*
X124202380Y-89535714D01*
X124202380Y-89250000D02*
X123202380Y-89250000D01*
X123345238Y-89345238D01*
X123440476Y-89440476D01*
X123488095Y-89535714D01*
G04 #@! TO.C,K1*
X127011904Y-95958968D02*
X127011904Y-94958968D01*
X127583333Y-95958968D02*
X127154761Y-95387540D01*
X127583333Y-94958968D02*
X127011904Y-95530397D01*
X128535714Y-95958968D02*
X127964285Y-95958968D01*
X128250000Y-95958968D02*
X128250000Y-94958968D01*
X128154761Y-95101826D01*
X128059523Y-95197064D01*
X127964285Y-95244683D01*
G04 #@! TO.C,C14*
X156357142Y-57142857D02*
X156404761Y-57190476D01*
X156452380Y-57333333D01*
X156452380Y-57428571D01*
X156404761Y-57571428D01*
X156309523Y-57666666D01*
X156214285Y-57714285D01*
X156023809Y-57761904D01*
X155880952Y-57761904D01*
X155690476Y-57714285D01*
X155595238Y-57666666D01*
X155500000Y-57571428D01*
X155452380Y-57428571D01*
X155452380Y-57333333D01*
X155500000Y-57190476D01*
X155547619Y-57142857D01*
X156452380Y-56190476D02*
X156452380Y-56761904D01*
X156452380Y-56476190D02*
X155452380Y-56476190D01*
X155595238Y-56571428D01*
X155690476Y-56666666D01*
X155738095Y-56761904D01*
X155785714Y-55333333D02*
X156452380Y-55333333D01*
X155404761Y-55571428D02*
X156119047Y-55809523D01*
X156119047Y-55190476D01*
G04 #@! TO.C,C12*
X175866273Y-55642857D02*
X175913892Y-55690476D01*
X175961511Y-55833333D01*
X175961511Y-55928571D01*
X175913892Y-56071428D01*
X175818654Y-56166666D01*
X175723416Y-56214285D01*
X175532940Y-56261904D01*
X175390083Y-56261904D01*
X175199607Y-56214285D01*
X175104369Y-56166666D01*
X175009131Y-56071428D01*
X174961511Y-55928571D01*
X174961511Y-55833333D01*
X175009131Y-55690476D01*
X175056750Y-55642857D01*
X175961511Y-54690476D02*
X175961511Y-55261904D01*
X175961511Y-54976190D02*
X174961511Y-54976190D01*
X175104369Y-55071428D01*
X175199607Y-55166666D01*
X175247226Y-55261904D01*
X175056750Y-54309523D02*
X175009131Y-54261904D01*
X174961511Y-54166666D01*
X174961511Y-53928571D01*
X175009131Y-53833333D01*
X175056750Y-53785714D01*
X175151988Y-53738095D01*
X175247226Y-53738095D01*
X175390083Y-53785714D01*
X175961511Y-54357142D01*
X175961511Y-53738095D01*
G04 #@! TO.C,C11*
X168857142Y-55392857D02*
X168904761Y-55440476D01*
X168952380Y-55583333D01*
X168952380Y-55678571D01*
X168904761Y-55821428D01*
X168809523Y-55916666D01*
X168714285Y-55964285D01*
X168523809Y-56011904D01*
X168380952Y-56011904D01*
X168190476Y-55964285D01*
X168095238Y-55916666D01*
X168000000Y-55821428D01*
X167952380Y-55678571D01*
X167952380Y-55583333D01*
X168000000Y-55440476D01*
X168047619Y-55392857D01*
X168952380Y-54440476D02*
X168952380Y-55011904D01*
X168952380Y-54726190D02*
X167952380Y-54726190D01*
X168095238Y-54821428D01*
X168190476Y-54916666D01*
X168238095Y-55011904D01*
X168952380Y-53488095D02*
X168952380Y-54059523D01*
X168952380Y-53773809D02*
X167952380Y-53773809D01*
X168095238Y-53869047D01*
X168190476Y-53964285D01*
X168238095Y-54059523D01*
G04 #@! TO.C,C10*
X166369642Y-79357142D02*
X166322023Y-79404761D01*
X166179166Y-79452380D01*
X166083928Y-79452380D01*
X165941071Y-79404761D01*
X165845833Y-79309523D01*
X165798214Y-79214285D01*
X165750595Y-79023809D01*
X165750595Y-78880952D01*
X165798214Y-78690476D01*
X165845833Y-78595238D01*
X165941071Y-78500000D01*
X166083928Y-78452380D01*
X166179166Y-78452380D01*
X166322023Y-78500000D01*
X166369642Y-78547619D01*
X167322023Y-79452380D02*
X166750595Y-79452380D01*
X167036309Y-79452380D02*
X167036309Y-78452380D01*
X166941071Y-78595238D01*
X166845833Y-78690476D01*
X166750595Y-78738095D01*
X167941071Y-78452380D02*
X168036309Y-78452380D01*
X168131547Y-78500000D01*
X168179166Y-78547619D01*
X168226785Y-78642857D01*
X168274404Y-78833333D01*
X168274404Y-79071428D01*
X168226785Y-79261904D01*
X168179166Y-79357142D01*
X168131547Y-79404761D01*
X168036309Y-79452380D01*
X167941071Y-79452380D01*
X167845833Y-79404761D01*
X167798214Y-79357142D01*
X167750595Y-79261904D01*
X167702976Y-79071428D01*
X167702976Y-78833333D01*
X167750595Y-78642857D01*
X167798214Y-78547619D01*
X167845833Y-78500000D01*
X167941071Y-78452380D01*
G04 #@! TO.C,C9*
X166333333Y-76857142D02*
X166285714Y-76904761D01*
X166142857Y-76952380D01*
X166047619Y-76952380D01*
X165904761Y-76904761D01*
X165809523Y-76809523D01*
X165761904Y-76714285D01*
X165714285Y-76523809D01*
X165714285Y-76380952D01*
X165761904Y-76190476D01*
X165809523Y-76095238D01*
X165904761Y-76000000D01*
X166047619Y-75952380D01*
X166142857Y-75952380D01*
X166285714Y-76000000D01*
X166333333Y-76047619D01*
X166809523Y-76952380D02*
X167000000Y-76952380D01*
X167095238Y-76904761D01*
X167142857Y-76857142D01*
X167238095Y-76714285D01*
X167285714Y-76523809D01*
X167285714Y-76142857D01*
X167238095Y-76047619D01*
X167190476Y-76000000D01*
X167095238Y-75952380D01*
X166904761Y-75952380D01*
X166809523Y-76000000D01*
X166761904Y-76047619D01*
X166714285Y-76142857D01*
X166714285Y-76380952D01*
X166761904Y-76476190D01*
X166809523Y-76523809D01*
X166904761Y-76571428D01*
X167095238Y-76571428D01*
X167190476Y-76523809D01*
X167238095Y-76476190D01*
X167285714Y-76380952D01*
G04 #@! TO.C,C8*
X179607142Y-81416666D02*
X179654761Y-81464285D01*
X179702380Y-81607142D01*
X179702380Y-81702380D01*
X179654761Y-81845238D01*
X179559523Y-81940476D01*
X179464285Y-81988095D01*
X179273809Y-82035714D01*
X179130952Y-82035714D01*
X178940476Y-81988095D01*
X178845238Y-81940476D01*
X178750000Y-81845238D01*
X178702380Y-81702380D01*
X178702380Y-81607142D01*
X178750000Y-81464285D01*
X178797619Y-81416666D01*
X179130952Y-80845238D02*
X179083333Y-80940476D01*
X179035714Y-80988095D01*
X178940476Y-81035714D01*
X178892857Y-81035714D01*
X178797619Y-80988095D01*
X178750000Y-80940476D01*
X178702380Y-80845238D01*
X178702380Y-80654761D01*
X178750000Y-80559523D01*
X178797619Y-80511904D01*
X178892857Y-80464285D01*
X178940476Y-80464285D01*
X179035714Y-80511904D01*
X179083333Y-80559523D01*
X179130952Y-80654761D01*
X179130952Y-80845238D01*
X179178571Y-80940476D01*
X179226190Y-80988095D01*
X179321428Y-81035714D01*
X179511904Y-81035714D01*
X179607142Y-80988095D01*
X179654761Y-80940476D01*
X179702380Y-80845238D01*
X179702380Y-80654761D01*
X179654761Y-80559523D01*
X179607142Y-80511904D01*
X179511904Y-80464285D01*
X179321428Y-80464285D01*
X179226190Y-80511904D01*
X179178571Y-80559523D01*
X179130952Y-80654761D01*
G04 #@! TO.C,C7*
X179607142Y-75929166D02*
X179654761Y-75976785D01*
X179702380Y-76119642D01*
X179702380Y-76214880D01*
X179654761Y-76357738D01*
X179559523Y-76452976D01*
X179464285Y-76500595D01*
X179273809Y-76548214D01*
X179130952Y-76548214D01*
X178940476Y-76500595D01*
X178845238Y-76452976D01*
X178750000Y-76357738D01*
X178702380Y-76214880D01*
X178702380Y-76119642D01*
X178750000Y-75976785D01*
X178797619Y-75929166D01*
X178702380Y-75595833D02*
X178702380Y-74929166D01*
X179702380Y-75357738D01*
G04 #@! TO.C,C2*
X133607142Y-92191666D02*
X133654761Y-92239285D01*
X133702380Y-92382142D01*
X133702380Y-92477380D01*
X133654761Y-92620238D01*
X133559523Y-92715476D01*
X133464285Y-92763095D01*
X133273809Y-92810714D01*
X133130952Y-92810714D01*
X132940476Y-92763095D01*
X132845238Y-92715476D01*
X132750000Y-92620238D01*
X132702380Y-92477380D01*
X132702380Y-92382142D01*
X132750000Y-92239285D01*
X132797619Y-92191666D01*
X132797619Y-91810714D02*
X132750000Y-91763095D01*
X132702380Y-91667857D01*
X132702380Y-91429761D01*
X132750000Y-91334523D01*
X132797619Y-91286904D01*
X132892857Y-91239285D01*
X132988095Y-91239285D01*
X133130952Y-91286904D01*
X133702380Y-91858333D01*
X133702380Y-91239285D01*
G04 #@! TO.C,C3*
X126357142Y-86179166D02*
X126404761Y-86226785D01*
X126452380Y-86369642D01*
X126452380Y-86464880D01*
X126404761Y-86607738D01*
X126309523Y-86702976D01*
X126214285Y-86750595D01*
X126023809Y-86798214D01*
X125880952Y-86798214D01*
X125690476Y-86750595D01*
X125595238Y-86702976D01*
X125500000Y-86607738D01*
X125452380Y-86464880D01*
X125452380Y-86369642D01*
X125500000Y-86226785D01*
X125547619Y-86179166D01*
X125452380Y-85845833D02*
X125452380Y-85226785D01*
X125833333Y-85560119D01*
X125833333Y-85417261D01*
X125880952Y-85322023D01*
X125928571Y-85274404D01*
X126023809Y-85226785D01*
X126261904Y-85226785D01*
X126357142Y-85274404D01*
X126404761Y-85322023D01*
X126452380Y-85417261D01*
X126452380Y-85702976D01*
X126404761Y-85798214D01*
X126357142Y-85845833D01*
G04 #@! TO.C,C4*
X123607142Y-86166666D02*
X123654761Y-86214285D01*
X123702380Y-86357142D01*
X123702380Y-86452380D01*
X123654761Y-86595238D01*
X123559523Y-86690476D01*
X123464285Y-86738095D01*
X123273809Y-86785714D01*
X123130952Y-86785714D01*
X122940476Y-86738095D01*
X122845238Y-86690476D01*
X122750000Y-86595238D01*
X122702380Y-86452380D01*
X122702380Y-86357142D01*
X122750000Y-86214285D01*
X122797619Y-86166666D01*
X123035714Y-85309523D02*
X123702380Y-85309523D01*
X122654761Y-85547619D02*
X123369047Y-85785714D01*
X123369047Y-85166666D01*
G04 #@! TO.C,C13*
X163857142Y-102880357D02*
X163904761Y-102927976D01*
X163952380Y-103070833D01*
X163952380Y-103166071D01*
X163904761Y-103308928D01*
X163809523Y-103404166D01*
X163714285Y-103451785D01*
X163523809Y-103499404D01*
X163380952Y-103499404D01*
X163190476Y-103451785D01*
X163095238Y-103404166D01*
X163000000Y-103308928D01*
X162952380Y-103166071D01*
X162952380Y-103070833D01*
X163000000Y-102927976D01*
X163047619Y-102880357D01*
X163952380Y-101927976D02*
X163952380Y-102499404D01*
X163952380Y-102213690D02*
X162952380Y-102213690D01*
X163095238Y-102308928D01*
X163190476Y-102404166D01*
X163238095Y-102499404D01*
X162952380Y-101594642D02*
X162952380Y-100975595D01*
X163333333Y-101308928D01*
X163333333Y-101166071D01*
X163380952Y-101070833D01*
X163428571Y-101023214D01*
X163523809Y-100975595D01*
X163761904Y-100975595D01*
X163857142Y-101023214D01*
X163904761Y-101070833D01*
X163952380Y-101166071D01*
X163952380Y-101451785D01*
X163904761Y-101547023D01*
X163857142Y-101594642D01*
G04 #@! TO.C,C5*
X154833333Y-100357142D02*
X154785714Y-100404761D01*
X154642857Y-100452380D01*
X154547619Y-100452380D01*
X154404761Y-100404761D01*
X154309523Y-100309523D01*
X154261904Y-100214285D01*
X154214285Y-100023809D01*
X154214285Y-99880952D01*
X154261904Y-99690476D01*
X154309523Y-99595238D01*
X154404761Y-99500000D01*
X154547619Y-99452380D01*
X154642857Y-99452380D01*
X154785714Y-99500000D01*
X154833333Y-99547619D01*
X155738095Y-99452380D02*
X155261904Y-99452380D01*
X155214285Y-99928571D01*
X155261904Y-99880952D01*
X155357142Y-99833333D01*
X155595238Y-99833333D01*
X155690476Y-99880952D01*
X155738095Y-99928571D01*
X155785714Y-100023809D01*
X155785714Y-100261904D01*
X155738095Y-100357142D01*
X155690476Y-100404761D01*
X155595238Y-100452380D01*
X155357142Y-100452380D01*
X155261904Y-100404761D01*
X155214285Y-100357142D01*
G04 #@! TO.C,C6*
X154583333Y-95857142D02*
X154535714Y-95904761D01*
X154392857Y-95952380D01*
X154297619Y-95952380D01*
X154154761Y-95904761D01*
X154059523Y-95809523D01*
X154011904Y-95714285D01*
X153964285Y-95523809D01*
X153964285Y-95380952D01*
X154011904Y-95190476D01*
X154059523Y-95095238D01*
X154154761Y-95000000D01*
X154297619Y-94952380D01*
X154392857Y-94952380D01*
X154535714Y-95000000D01*
X154583333Y-95047619D01*
X155440476Y-94952380D02*
X155250000Y-94952380D01*
X155154761Y-95000000D01*
X155107142Y-95047619D01*
X155011904Y-95190476D01*
X154964285Y-95380952D01*
X154964285Y-95761904D01*
X155011904Y-95857142D01*
X155059523Y-95904761D01*
X155154761Y-95952380D01*
X155345238Y-95952380D01*
X155440476Y-95904761D01*
X155488095Y-95857142D01*
X155535714Y-95761904D01*
X155535714Y-95523809D01*
X155488095Y-95428571D01*
X155440476Y-95380952D01*
X155345238Y-95333333D01*
X155154761Y-95333333D01*
X155059523Y-95380952D01*
X155011904Y-95428571D01*
X154964285Y-95523809D01*
G04 #@! TO.C,J1*
X140282380Y-52833333D02*
X140996666Y-52833333D01*
X141139523Y-52880952D01*
X141234761Y-52976190D01*
X141282380Y-53119047D01*
X141282380Y-53214285D01*
X141282380Y-51833333D02*
X141282380Y-52404761D01*
X141282380Y-52119047D02*
X140282380Y-52119047D01*
X140425238Y-52214285D01*
X140520476Y-52309523D01*
X140568095Y-52404761D01*
G04 #@! TO.C,D8*
X178202380Y-55238095D02*
X177202380Y-55238095D01*
X177202380Y-55000000D01*
X177250000Y-54857142D01*
X177345238Y-54761904D01*
X177440476Y-54714285D01*
X177630952Y-54666666D01*
X177773809Y-54666666D01*
X177964285Y-54714285D01*
X178059523Y-54761904D01*
X178154761Y-54857142D01*
X178202380Y-55000000D01*
X178202380Y-55238095D01*
X177630952Y-54095238D02*
X177583333Y-54190476D01*
X177535714Y-54238095D01*
X177440476Y-54285714D01*
X177392857Y-54285714D01*
X177297619Y-54238095D01*
X177250000Y-54190476D01*
X177202380Y-54095238D01*
X177202380Y-53904761D01*
X177250000Y-53809523D01*
X177297619Y-53761904D01*
X177392857Y-53714285D01*
X177440476Y-53714285D01*
X177535714Y-53761904D01*
X177583333Y-53809523D01*
X177630952Y-53904761D01*
X177630952Y-54095238D01*
X177678571Y-54190476D01*
X177726190Y-54238095D01*
X177821428Y-54285714D01*
X178011904Y-54285714D01*
X178107142Y-54238095D01*
X178154761Y-54190476D01*
X178202380Y-54095238D01*
X178202380Y-53904761D01*
X178154761Y-53809523D01*
X178107142Y-53761904D01*
X178011904Y-53714285D01*
X177821428Y-53714285D01*
X177726190Y-53761904D01*
X177678571Y-53809523D01*
X177630952Y-53904761D01*
G04 #@! TO.C,D9*
X172202380Y-103238095D02*
X171202380Y-103238095D01*
X171202380Y-103000000D01*
X171250000Y-102857142D01*
X171345238Y-102761904D01*
X171440476Y-102714285D01*
X171630952Y-102666666D01*
X171773809Y-102666666D01*
X171964285Y-102714285D01*
X172059523Y-102761904D01*
X172154761Y-102857142D01*
X172202380Y-103000000D01*
X172202380Y-103238095D01*
X172202380Y-102190476D02*
X172202380Y-102000000D01*
X172154761Y-101904761D01*
X172107142Y-101857142D01*
X171964285Y-101761904D01*
X171773809Y-101714285D01*
X171392857Y-101714285D01*
X171297619Y-101761904D01*
X171250000Y-101809523D01*
X171202380Y-101904761D01*
X171202380Y-102095238D01*
X171250000Y-102190476D01*
X171297619Y-102238095D01*
X171392857Y-102285714D01*
X171630952Y-102285714D01*
X171726190Y-102238095D01*
X171773809Y-102190476D01*
X171821428Y-102095238D01*
X171821428Y-101904761D01*
X171773809Y-101809523D01*
X171726190Y-101761904D01*
X171630952Y-101714285D01*
G04 #@! TO.C,F1*
X174608571Y-59570833D02*
X174608571Y-59904166D01*
X175132380Y-59904166D02*
X174132380Y-59904166D01*
X174132380Y-59427976D01*
X175132380Y-58523214D02*
X175132380Y-59094642D01*
X175132380Y-58808928D02*
X174132380Y-58808928D01*
X174275238Y-58904166D01*
X174370476Y-58999404D01*
X174418095Y-59094642D01*
G04 #@! TO.C,L1*
X159952380Y-63166666D02*
X159952380Y-63642857D01*
X158952380Y-63642857D01*
X159952380Y-62309523D02*
X159952380Y-62880952D01*
X159952380Y-62595238D02*
X158952380Y-62595238D01*
X159095238Y-62690476D01*
X159190476Y-62785714D01*
X159238095Y-62880952D01*
G04 #@! TO.C,D5*
X148511904Y-61452380D02*
X148511904Y-60452380D01*
X148750000Y-60452380D01*
X148892857Y-60500000D01*
X148988095Y-60595238D01*
X149035714Y-60690476D01*
X149083333Y-60880952D01*
X149083333Y-61023809D01*
X149035714Y-61214285D01*
X148988095Y-61309523D01*
X148892857Y-61404761D01*
X148750000Y-61452380D01*
X148511904Y-61452380D01*
X149988095Y-60452380D02*
X149511904Y-60452380D01*
X149464285Y-60928571D01*
X149511904Y-60880952D01*
X149607142Y-60833333D01*
X149845238Y-60833333D01*
X149940476Y-60880952D01*
X149988095Y-60928571D01*
X150035714Y-61023809D01*
X150035714Y-61261904D01*
X149988095Y-61357142D01*
X149940476Y-61404761D01*
X149845238Y-61452380D01*
X149607142Y-61452380D01*
X149511904Y-61404761D01*
X149464285Y-61357142D01*
G04 #@! TO.C,D6*
X139452380Y-84488095D02*
X138452380Y-84488095D01*
X138452380Y-84250000D01*
X138500000Y-84107142D01*
X138595238Y-84011904D01*
X138690476Y-83964285D01*
X138880952Y-83916666D01*
X139023809Y-83916666D01*
X139214285Y-83964285D01*
X139309523Y-84011904D01*
X139404761Y-84107142D01*
X139452380Y-84250000D01*
X139452380Y-84488095D01*
X138452380Y-83059523D02*
X138452380Y-83250000D01*
X138500000Y-83345238D01*
X138547619Y-83392857D01*
X138690476Y-83488095D01*
X138880952Y-83535714D01*
X139261904Y-83535714D01*
X139357142Y-83488095D01*
X139404761Y-83440476D01*
X139452380Y-83345238D01*
X139452380Y-83154761D01*
X139404761Y-83059523D01*
X139357142Y-83011904D01*
X139261904Y-82964285D01*
X139023809Y-82964285D01*
X138928571Y-83011904D01*
X138880952Y-83059523D01*
X138833333Y-83154761D01*
X138833333Y-83345238D01*
X138880952Y-83440476D01*
X138928571Y-83488095D01*
X139023809Y-83535714D01*
G04 #@! TO.C,D7*
X132452380Y-84988095D02*
X131452380Y-84988095D01*
X131452380Y-84750000D01*
X131500000Y-84607142D01*
X131595238Y-84511904D01*
X131690476Y-84464285D01*
X131880952Y-84416666D01*
X132023809Y-84416666D01*
X132214285Y-84464285D01*
X132309523Y-84511904D01*
X132404761Y-84607142D01*
X132452380Y-84750000D01*
X132452380Y-84988095D01*
X131452380Y-84083333D02*
X131452380Y-83416666D01*
X132452380Y-83845238D01*
G04 #@! TO.C,U4*
X155488095Y-79302380D02*
X155488095Y-80111904D01*
X155535714Y-80207142D01*
X155583333Y-80254761D01*
X155678571Y-80302380D01*
X155869047Y-80302380D01*
X155964285Y-80254761D01*
X156011904Y-80207142D01*
X156059523Y-80111904D01*
X156059523Y-79302380D01*
X156964285Y-79635714D02*
X156964285Y-80302380D01*
X156726190Y-79254761D02*
X156488095Y-79969047D01*
X157107142Y-79969047D01*
G04 #@! TO.C,U3*
X121322380Y-67611904D02*
X122131904Y-67611904D01*
X122227142Y-67564285D01*
X122274761Y-67516666D01*
X122322380Y-67421428D01*
X122322380Y-67230952D01*
X122274761Y-67135714D01*
X122227142Y-67088095D01*
X122131904Y-67040476D01*
X121322380Y-67040476D01*
X121322380Y-66659523D02*
X121322380Y-66040476D01*
X121703333Y-66373809D01*
X121703333Y-66230952D01*
X121750952Y-66135714D01*
X121798571Y-66088095D01*
X121893809Y-66040476D01*
X122131904Y-66040476D01*
X122227142Y-66088095D01*
X122274761Y-66135714D01*
X122322380Y-66230952D01*
X122322380Y-66516666D01*
X122274761Y-66611904D01*
X122227142Y-66659523D01*
G04 #@! TO.C,R2*
X151067609Y-67242706D02*
X150734276Y-66766516D01*
X150496180Y-67242706D02*
X150496180Y-66242706D01*
X150877133Y-66242706D01*
X150972371Y-66290326D01*
X151019990Y-66337945D01*
X151067609Y-66433183D01*
X151067609Y-66576040D01*
X151019990Y-66671278D01*
X150972371Y-66718897D01*
X150877133Y-66766516D01*
X150496180Y-66766516D01*
X151448561Y-66337945D02*
X151496180Y-66290326D01*
X151591418Y-66242706D01*
X151829514Y-66242706D01*
X151924752Y-66290326D01*
X151972371Y-66337945D01*
X152019990Y-66433183D01*
X152019990Y-66528421D01*
X151972371Y-66671278D01*
X151400942Y-67242706D01*
X152019990Y-67242706D01*
G04 #@! TO.C,R24*
X168452380Y-102892857D02*
X167976190Y-103226190D01*
X168452380Y-103464285D02*
X167452380Y-103464285D01*
X167452380Y-103083333D01*
X167500000Y-102988095D01*
X167547619Y-102940476D01*
X167642857Y-102892857D01*
X167785714Y-102892857D01*
X167880952Y-102940476D01*
X167928571Y-102988095D01*
X167976190Y-103083333D01*
X167976190Y-103464285D01*
X167547619Y-102511904D02*
X167500000Y-102464285D01*
X167452380Y-102369047D01*
X167452380Y-102130952D01*
X167500000Y-102035714D01*
X167547619Y-101988095D01*
X167642857Y-101940476D01*
X167738095Y-101940476D01*
X167880952Y-101988095D01*
X168452380Y-102559523D01*
X168452380Y-101940476D01*
X167785714Y-101083333D02*
X168452380Y-101083333D01*
X167404761Y-101321428D02*
X168119047Y-101559523D01*
X168119047Y-100940476D01*
G04 #@! TO.C,R23*
X132452380Y-88892857D02*
X131976190Y-89226190D01*
X132452380Y-89464285D02*
X131452380Y-89464285D01*
X131452380Y-89083333D01*
X131500000Y-88988095D01*
X131547619Y-88940476D01*
X131642857Y-88892857D01*
X131785714Y-88892857D01*
X131880952Y-88940476D01*
X131928571Y-88988095D01*
X131976190Y-89083333D01*
X131976190Y-89464285D01*
X131547619Y-88511904D02*
X131500000Y-88464285D01*
X131452380Y-88369047D01*
X131452380Y-88130952D01*
X131500000Y-88035714D01*
X131547619Y-87988095D01*
X131642857Y-87940476D01*
X131738095Y-87940476D01*
X131880952Y-87988095D01*
X132452380Y-88559523D01*
X132452380Y-87940476D01*
X131452380Y-87607142D02*
X131452380Y-86988095D01*
X131833333Y-87321428D01*
X131833333Y-87178571D01*
X131880952Y-87083333D01*
X131928571Y-87035714D01*
X132023809Y-86988095D01*
X132261904Y-86988095D01*
X132357142Y-87035714D01*
X132404761Y-87083333D01*
X132452380Y-87178571D01*
X132452380Y-87464285D01*
X132404761Y-87559523D01*
X132357142Y-87607142D01*
G04 #@! TO.C,R22*
X139452380Y-89892857D02*
X138976190Y-90226190D01*
X139452380Y-90464285D02*
X138452380Y-90464285D01*
X138452380Y-90083333D01*
X138500000Y-89988095D01*
X138547619Y-89940476D01*
X138642857Y-89892857D01*
X138785714Y-89892857D01*
X138880952Y-89940476D01*
X138928571Y-89988095D01*
X138976190Y-90083333D01*
X138976190Y-90464285D01*
X138547619Y-89511904D02*
X138500000Y-89464285D01*
X138452380Y-89369047D01*
X138452380Y-89130952D01*
X138500000Y-89035714D01*
X138547619Y-88988095D01*
X138642857Y-88940476D01*
X138738095Y-88940476D01*
X138880952Y-88988095D01*
X139452380Y-89559523D01*
X139452380Y-88940476D01*
X138547619Y-88559523D02*
X138500000Y-88511904D01*
X138452380Y-88416666D01*
X138452380Y-88178571D01*
X138500000Y-88083333D01*
X138547619Y-88035714D01*
X138642857Y-87988095D01*
X138738095Y-87988095D01*
X138880952Y-88035714D01*
X139452380Y-88607142D01*
X139452380Y-87988095D01*
G04 #@! TO.C,R21*
X149632380Y-55642857D02*
X149156190Y-55976190D01*
X149632380Y-56214285D02*
X148632380Y-56214285D01*
X148632380Y-55833333D01*
X148680000Y-55738095D01*
X148727619Y-55690476D01*
X148822857Y-55642857D01*
X148965714Y-55642857D01*
X149060952Y-55690476D01*
X149108571Y-55738095D01*
X149156190Y-55833333D01*
X149156190Y-56214285D01*
X148727619Y-55261904D02*
X148680000Y-55214285D01*
X148632380Y-55119047D01*
X148632380Y-54880952D01*
X148680000Y-54785714D01*
X148727619Y-54738095D01*
X148822857Y-54690476D01*
X148918095Y-54690476D01*
X149060952Y-54738095D01*
X149632380Y-55309523D01*
X149632380Y-54690476D01*
X149632380Y-53738095D02*
X149632380Y-54309523D01*
X149632380Y-54023809D02*
X148632380Y-54023809D01*
X148775238Y-54119047D01*
X148870476Y-54214285D01*
X148918095Y-54309523D01*
G04 #@! TO.C,R20*
X170594642Y-92702380D02*
X170261309Y-92226190D01*
X170023214Y-92702380D02*
X170023214Y-91702380D01*
X170404166Y-91702380D01*
X170499404Y-91750000D01*
X170547023Y-91797619D01*
X170594642Y-91892857D01*
X170594642Y-92035714D01*
X170547023Y-92130952D01*
X170499404Y-92178571D01*
X170404166Y-92226190D01*
X170023214Y-92226190D01*
X170975595Y-91797619D02*
X171023214Y-91750000D01*
X171118452Y-91702380D01*
X171356547Y-91702380D01*
X171451785Y-91750000D01*
X171499404Y-91797619D01*
X171547023Y-91892857D01*
X171547023Y-91988095D01*
X171499404Y-92130952D01*
X170927976Y-92702380D01*
X171547023Y-92702380D01*
X172166071Y-91702380D02*
X172261309Y-91702380D01*
X172356547Y-91750000D01*
X172404166Y-91797619D01*
X172451785Y-91892857D01*
X172499404Y-92083333D01*
X172499404Y-92321428D01*
X172451785Y-92511904D01*
X172404166Y-92607142D01*
X172356547Y-92654761D01*
X172261309Y-92702380D01*
X172166071Y-92702380D01*
X172070833Y-92654761D01*
X172023214Y-92607142D01*
X171975595Y-92511904D01*
X171927976Y-92321428D01*
X171927976Y-92083333D01*
X171975595Y-91892857D01*
X172023214Y-91797619D01*
X172070833Y-91750000D01*
X172166071Y-91702380D01*
G04 #@! TO.C,R19*
X160857142Y-84702380D02*
X160523809Y-84226190D01*
X160285714Y-84702380D02*
X160285714Y-83702380D01*
X160666666Y-83702380D01*
X160761904Y-83750000D01*
X160809523Y-83797619D01*
X160857142Y-83892857D01*
X160857142Y-84035714D01*
X160809523Y-84130952D01*
X160761904Y-84178571D01*
X160666666Y-84226190D01*
X160285714Y-84226190D01*
X161809523Y-84702380D02*
X161238095Y-84702380D01*
X161523809Y-84702380D02*
X161523809Y-83702380D01*
X161428571Y-83845238D01*
X161333333Y-83940476D01*
X161238095Y-83988095D01*
X162285714Y-84702380D02*
X162476190Y-84702380D01*
X162571428Y-84654761D01*
X162619047Y-84607142D01*
X162714285Y-84464285D01*
X162761904Y-84273809D01*
X162761904Y-83892857D01*
X162714285Y-83797619D01*
X162666666Y-83750000D01*
X162571428Y-83702380D01*
X162380952Y-83702380D01*
X162285714Y-83750000D01*
X162238095Y-83797619D01*
X162190476Y-83892857D01*
X162190476Y-84130952D01*
X162238095Y-84226190D01*
X162285714Y-84273809D01*
X162380952Y-84321428D01*
X162571428Y-84321428D01*
X162666666Y-84273809D01*
X162714285Y-84226190D01*
X162761904Y-84130952D01*
G04 #@! TO.C,R18*
X173357142Y-99452380D02*
X173023809Y-98976190D01*
X172785714Y-99452380D02*
X172785714Y-98452380D01*
X173166666Y-98452380D01*
X173261904Y-98500000D01*
X173309523Y-98547619D01*
X173357142Y-98642857D01*
X173357142Y-98785714D01*
X173309523Y-98880952D01*
X173261904Y-98928571D01*
X173166666Y-98976190D01*
X172785714Y-98976190D01*
X174309523Y-99452380D02*
X173738095Y-99452380D01*
X174023809Y-99452380D02*
X174023809Y-98452380D01*
X173928571Y-98595238D01*
X173833333Y-98690476D01*
X173738095Y-98738095D01*
X174880952Y-98880952D02*
X174785714Y-98833333D01*
X174738095Y-98785714D01*
X174690476Y-98690476D01*
X174690476Y-98642857D01*
X174738095Y-98547619D01*
X174785714Y-98500000D01*
X174880952Y-98452380D01*
X175071428Y-98452380D01*
X175166666Y-98500000D01*
X175214285Y-98547619D01*
X175261904Y-98642857D01*
X175261904Y-98690476D01*
X175214285Y-98785714D01*
X175166666Y-98833333D01*
X175071428Y-98880952D01*
X174880952Y-98880952D01*
X174785714Y-98928571D01*
X174738095Y-98976190D01*
X174690476Y-99071428D01*
X174690476Y-99261904D01*
X174738095Y-99357142D01*
X174785714Y-99404761D01*
X174880952Y-99452380D01*
X175071428Y-99452380D01*
X175166666Y-99404761D01*
X175214285Y-99357142D01*
X175261904Y-99261904D01*
X175261904Y-99071428D01*
X175214285Y-98976190D01*
X175166666Y-98928571D01*
X175071428Y-98880952D01*
G04 #@! TO.C,R17*
X162357142Y-74442173D02*
X162023809Y-73965983D01*
X161785714Y-74442173D02*
X161785714Y-73442173D01*
X162166666Y-73442173D01*
X162261904Y-73489793D01*
X162309523Y-73537412D01*
X162357142Y-73632650D01*
X162357142Y-73775507D01*
X162309523Y-73870745D01*
X162261904Y-73918364D01*
X162166666Y-73965983D01*
X161785714Y-73965983D01*
X163309523Y-74442173D02*
X162738095Y-74442173D01*
X163023809Y-74442173D02*
X163023809Y-73442173D01*
X162928571Y-73585031D01*
X162833333Y-73680269D01*
X162738095Y-73727888D01*
X163642857Y-73442173D02*
X164309523Y-73442173D01*
X163880952Y-74442173D01*
G04 #@! TO.C,R16*
X166202380Y-88142857D02*
X165726190Y-88476190D01*
X166202380Y-88714285D02*
X165202380Y-88714285D01*
X165202380Y-88333333D01*
X165250000Y-88238095D01*
X165297619Y-88190476D01*
X165392857Y-88142857D01*
X165535714Y-88142857D01*
X165630952Y-88190476D01*
X165678571Y-88238095D01*
X165726190Y-88333333D01*
X165726190Y-88714285D01*
X166202380Y-87190476D02*
X166202380Y-87761904D01*
X166202380Y-87476190D02*
X165202380Y-87476190D01*
X165345238Y-87571428D01*
X165440476Y-87666666D01*
X165488095Y-87761904D01*
X165202380Y-86333333D02*
X165202380Y-86523809D01*
X165250000Y-86619047D01*
X165297619Y-86666666D01*
X165440476Y-86761904D01*
X165630952Y-86809523D01*
X166011904Y-86809523D01*
X166107142Y-86761904D01*
X166154761Y-86714285D01*
X166202380Y-86619047D01*
X166202380Y-86428571D01*
X166154761Y-86333333D01*
X166107142Y-86285714D01*
X166011904Y-86238095D01*
X165773809Y-86238095D01*
X165678571Y-86285714D01*
X165630952Y-86333333D01*
X165583333Y-86428571D01*
X165583333Y-86619047D01*
X165630952Y-86714285D01*
X165678571Y-86761904D01*
X165773809Y-86809523D01*
G04 #@! TO.C,R15*
X165702380Y-71142857D02*
X165226190Y-71476190D01*
X165702380Y-71714285D02*
X164702380Y-71714285D01*
X164702380Y-71333333D01*
X164750000Y-71238095D01*
X164797619Y-71190476D01*
X164892857Y-71142857D01*
X165035714Y-71142857D01*
X165130952Y-71190476D01*
X165178571Y-71238095D01*
X165226190Y-71333333D01*
X165226190Y-71714285D01*
X165702380Y-70190476D02*
X165702380Y-70761904D01*
X165702380Y-70476190D02*
X164702380Y-70476190D01*
X164845238Y-70571428D01*
X164940476Y-70666666D01*
X164988095Y-70761904D01*
X164702380Y-69285714D02*
X164702380Y-69761904D01*
X165178571Y-69809523D01*
X165130952Y-69761904D01*
X165083333Y-69666666D01*
X165083333Y-69428571D01*
X165130952Y-69333333D01*
X165178571Y-69285714D01*
X165273809Y-69238095D01*
X165511904Y-69238095D01*
X165607142Y-69285714D01*
X165654761Y-69333333D01*
X165702380Y-69428571D01*
X165702380Y-69666666D01*
X165654761Y-69761904D01*
X165607142Y-69809523D01*
G04 #@! TO.C,R14*
X169632380Y-88155357D02*
X169156190Y-88488690D01*
X169632380Y-88726785D02*
X168632380Y-88726785D01*
X168632380Y-88345833D01*
X168680000Y-88250595D01*
X168727619Y-88202976D01*
X168822857Y-88155357D01*
X168965714Y-88155357D01*
X169060952Y-88202976D01*
X169108571Y-88250595D01*
X169156190Y-88345833D01*
X169156190Y-88726785D01*
X169632380Y-87202976D02*
X169632380Y-87774404D01*
X169632380Y-87488690D02*
X168632380Y-87488690D01*
X168775238Y-87583928D01*
X168870476Y-87679166D01*
X168918095Y-87774404D01*
X168965714Y-86345833D02*
X169632380Y-86345833D01*
X168584761Y-86583928D02*
X169299047Y-86822023D01*
X169299047Y-86202976D01*
G04 #@! TO.C,R13*
X160607142Y-95952380D02*
X160273809Y-95476190D01*
X160035714Y-95952380D02*
X160035714Y-94952380D01*
X160416666Y-94952380D01*
X160511904Y-95000000D01*
X160559523Y-95047619D01*
X160607142Y-95142857D01*
X160607142Y-95285714D01*
X160559523Y-95380952D01*
X160511904Y-95428571D01*
X160416666Y-95476190D01*
X160035714Y-95476190D01*
X161559523Y-95952380D02*
X160988095Y-95952380D01*
X161273809Y-95952380D02*
X161273809Y-94952380D01*
X161178571Y-95095238D01*
X161083333Y-95190476D01*
X160988095Y-95238095D01*
X161892857Y-94952380D02*
X162511904Y-94952380D01*
X162178571Y-95333333D01*
X162321428Y-95333333D01*
X162416666Y-95380952D01*
X162464285Y-95428571D01*
X162511904Y-95523809D01*
X162511904Y-95761904D01*
X162464285Y-95857142D01*
X162416666Y-95904761D01*
X162321428Y-95952380D01*
X162035714Y-95952380D01*
X161940476Y-95904761D01*
X161892857Y-95857142D01*
G04 #@! TO.C,R12*
X169382380Y-71405357D02*
X168906190Y-71738690D01*
X169382380Y-71976785D02*
X168382380Y-71976785D01*
X168382380Y-71595833D01*
X168430000Y-71500595D01*
X168477619Y-71452976D01*
X168572857Y-71405357D01*
X168715714Y-71405357D01*
X168810952Y-71452976D01*
X168858571Y-71500595D01*
X168906190Y-71595833D01*
X168906190Y-71976785D01*
X169382380Y-70452976D02*
X169382380Y-71024404D01*
X169382380Y-70738690D02*
X168382380Y-70738690D01*
X168525238Y-70833928D01*
X168620476Y-70929166D01*
X168668095Y-71024404D01*
X168477619Y-70072023D02*
X168430000Y-70024404D01*
X168382380Y-69929166D01*
X168382380Y-69691071D01*
X168430000Y-69595833D01*
X168477619Y-69548214D01*
X168572857Y-69500595D01*
X168668095Y-69500595D01*
X168810952Y-69548214D01*
X169382380Y-70119642D01*
X169382380Y-69500595D01*
G04 #@! TO.C,R11*
X160107142Y-100452380D02*
X159773809Y-99976190D01*
X159535714Y-100452380D02*
X159535714Y-99452380D01*
X159916666Y-99452380D01*
X160011904Y-99500000D01*
X160059523Y-99547619D01*
X160107142Y-99642857D01*
X160107142Y-99785714D01*
X160059523Y-99880952D01*
X160011904Y-99928571D01*
X159916666Y-99976190D01*
X159535714Y-99976190D01*
X161059523Y-100452380D02*
X160488095Y-100452380D01*
X160773809Y-100452380D02*
X160773809Y-99452380D01*
X160678571Y-99595238D01*
X160583333Y-99690476D01*
X160488095Y-99738095D01*
X162011904Y-100452380D02*
X161440476Y-100452380D01*
X161726190Y-100452380D02*
X161726190Y-99452380D01*
X161630952Y-99595238D01*
X161535714Y-99690476D01*
X161440476Y-99738095D01*
G04 #@! TO.C,R10*
X172107142Y-81202380D02*
X171773809Y-80726190D01*
X171535714Y-81202380D02*
X171535714Y-80202380D01*
X171916666Y-80202380D01*
X172011904Y-80250000D01*
X172059523Y-80297619D01*
X172107142Y-80392857D01*
X172107142Y-80535714D01*
X172059523Y-80630952D01*
X172011904Y-80678571D01*
X171916666Y-80726190D01*
X171535714Y-80726190D01*
X173059523Y-81202380D02*
X172488095Y-81202380D01*
X172773809Y-81202380D02*
X172773809Y-80202380D01*
X172678571Y-80345238D01*
X172583333Y-80440476D01*
X172488095Y-80488095D01*
X173678571Y-80202380D02*
X173773809Y-80202380D01*
X173869047Y-80250000D01*
X173916666Y-80297619D01*
X173964285Y-80392857D01*
X174011904Y-80583333D01*
X174011904Y-80821428D01*
X173964285Y-81011904D01*
X173916666Y-81107142D01*
X173869047Y-81154761D01*
X173773809Y-81202380D01*
X173678571Y-81202380D01*
X173583333Y-81154761D01*
X173535714Y-81107142D01*
X173488095Y-81011904D01*
X173440476Y-80821428D01*
X173440476Y-80583333D01*
X173488095Y-80392857D01*
X173535714Y-80297619D01*
X173583333Y-80250000D01*
X173678571Y-80202380D01*
G04 #@! TO.C,R9*
X173333333Y-64382380D02*
X173000000Y-63906190D01*
X172761904Y-64382380D02*
X172761904Y-63382380D01*
X173142857Y-63382380D01*
X173238095Y-63430000D01*
X173285714Y-63477619D01*
X173333333Y-63572857D01*
X173333333Y-63715714D01*
X173285714Y-63810952D01*
X173238095Y-63858571D01*
X173142857Y-63906190D01*
X172761904Y-63906190D01*
X173809523Y-64382380D02*
X174000000Y-64382380D01*
X174095238Y-64334761D01*
X174142857Y-64287142D01*
X174238095Y-64144285D01*
X174285714Y-63953809D01*
X174285714Y-63572857D01*
X174238095Y-63477619D01*
X174190476Y-63430000D01*
X174095238Y-63382380D01*
X173904761Y-63382380D01*
X173809523Y-63430000D01*
X173761904Y-63477619D01*
X173714285Y-63572857D01*
X173714285Y-63810952D01*
X173761904Y-63906190D01*
X173809523Y-63953809D01*
X173904761Y-64001428D01*
X174095238Y-64001428D01*
X174190476Y-63953809D01*
X174238095Y-63906190D01*
X174285714Y-63810952D01*
G04 #@! TO.C,R8*
X165820833Y-81382380D02*
X165487500Y-80906190D01*
X165249404Y-81382380D02*
X165249404Y-80382380D01*
X165630357Y-80382380D01*
X165725595Y-80430000D01*
X165773214Y-80477619D01*
X165820833Y-80572857D01*
X165820833Y-80715714D01*
X165773214Y-80810952D01*
X165725595Y-80858571D01*
X165630357Y-80906190D01*
X165249404Y-80906190D01*
X166392261Y-80810952D02*
X166297023Y-80763333D01*
X166249404Y-80715714D01*
X166201785Y-80620476D01*
X166201785Y-80572857D01*
X166249404Y-80477619D01*
X166297023Y-80430000D01*
X166392261Y-80382380D01*
X166582738Y-80382380D01*
X166677976Y-80430000D01*
X166725595Y-80477619D01*
X166773214Y-80572857D01*
X166773214Y-80620476D01*
X166725595Y-80715714D01*
X166677976Y-80763333D01*
X166582738Y-80810952D01*
X166392261Y-80810952D01*
X166297023Y-80858571D01*
X166249404Y-80906190D01*
X166201785Y-81001428D01*
X166201785Y-81191904D01*
X166249404Y-81287142D01*
X166297023Y-81334761D01*
X166392261Y-81382380D01*
X166582738Y-81382380D01*
X166677976Y-81334761D01*
X166725595Y-81287142D01*
X166773214Y-81191904D01*
X166773214Y-81001428D01*
X166725595Y-80906190D01*
X166677976Y-80858571D01*
X166582738Y-80810952D01*
G04 #@! TO.C,R7*
X165345833Y-64382380D02*
X165012500Y-63906190D01*
X164774404Y-64382380D02*
X164774404Y-63382380D01*
X165155357Y-63382380D01*
X165250595Y-63430000D01*
X165298214Y-63477619D01*
X165345833Y-63572857D01*
X165345833Y-63715714D01*
X165298214Y-63810952D01*
X165250595Y-63858571D01*
X165155357Y-63906190D01*
X164774404Y-63906190D01*
X165679166Y-63382380D02*
X166345833Y-63382380D01*
X165917261Y-64382380D01*
G04 #@! TO.C,R6*
X151041609Y-69818956D02*
X150708276Y-69342766D01*
X150470180Y-69818956D02*
X150470180Y-68818956D01*
X150851133Y-68818956D01*
X150946371Y-68866576D01*
X150993990Y-68914195D01*
X151041609Y-69009433D01*
X151041609Y-69152290D01*
X150993990Y-69247528D01*
X150946371Y-69295147D01*
X150851133Y-69342766D01*
X150470180Y-69342766D01*
X151898752Y-68818956D02*
X151708276Y-68818956D01*
X151613037Y-68866576D01*
X151565418Y-68914195D01*
X151470180Y-69057052D01*
X151422561Y-69247528D01*
X151422561Y-69628480D01*
X151470180Y-69723718D01*
X151517799Y-69771337D01*
X151613037Y-69818956D01*
X151803514Y-69818956D01*
X151898752Y-69771337D01*
X151946371Y-69723718D01*
X151993990Y-69628480D01*
X151993990Y-69390385D01*
X151946371Y-69295147D01*
X151898752Y-69247528D01*
X151803514Y-69199909D01*
X151613037Y-69199909D01*
X151517799Y-69247528D01*
X151470180Y-69295147D01*
X151422561Y-69390385D01*
G04 #@! TO.C,R5*
X131452380Y-89916666D02*
X130976190Y-90250000D01*
X131452380Y-90488095D02*
X130452380Y-90488095D01*
X130452380Y-90107142D01*
X130500000Y-90011904D01*
X130547619Y-89964285D01*
X130642857Y-89916666D01*
X130785714Y-89916666D01*
X130880952Y-89964285D01*
X130928571Y-90011904D01*
X130976190Y-90107142D01*
X130976190Y-90488095D01*
X130452380Y-89011904D02*
X130452380Y-89488095D01*
X130928571Y-89535714D01*
X130880952Y-89488095D01*
X130833333Y-89392857D01*
X130833333Y-89154761D01*
X130880952Y-89059523D01*
X130928571Y-89011904D01*
X131023809Y-88964285D01*
X131261904Y-88964285D01*
X131357142Y-89011904D01*
X131404761Y-89059523D01*
X131452380Y-89154761D01*
X131452380Y-89392857D01*
X131404761Y-89488095D01*
X131357142Y-89535714D01*
G04 #@! TO.C,R4*
X151067609Y-72348956D02*
X150734276Y-71872766D01*
X150496180Y-72348956D02*
X150496180Y-71348956D01*
X150877133Y-71348956D01*
X150972371Y-71396576D01*
X151019990Y-71444195D01*
X151067609Y-71539433D01*
X151067609Y-71682290D01*
X151019990Y-71777528D01*
X150972371Y-71825147D01*
X150877133Y-71872766D01*
X150496180Y-71872766D01*
X151924752Y-71682290D02*
X151924752Y-72348956D01*
X151686656Y-71301337D02*
X151448561Y-72015623D01*
X152067609Y-72015623D01*
G04 #@! TO.C,R3*
X129452380Y-86166666D02*
X128976190Y-86500000D01*
X129452380Y-86738095D02*
X128452380Y-86738095D01*
X128452380Y-86357142D01*
X128500000Y-86261904D01*
X128547619Y-86214285D01*
X128642857Y-86166666D01*
X128785714Y-86166666D01*
X128880952Y-86214285D01*
X128928571Y-86261904D01*
X128976190Y-86357142D01*
X128976190Y-86738095D01*
X128452380Y-85833333D02*
X128452380Y-85214285D01*
X128833333Y-85547619D01*
X128833333Y-85404761D01*
X128880952Y-85309523D01*
X128928571Y-85261904D01*
X129023809Y-85214285D01*
X129261904Y-85214285D01*
X129357142Y-85261904D01*
X129404761Y-85309523D01*
X129452380Y-85404761D01*
X129452380Y-85690476D01*
X129404761Y-85785714D01*
X129357142Y-85833333D01*
G04 #@! TO.C,R1*
X151055109Y-64742706D02*
X150721776Y-64266516D01*
X150483680Y-64742706D02*
X150483680Y-63742706D01*
X150864633Y-63742706D01*
X150959871Y-63790326D01*
X151007490Y-63837945D01*
X151055109Y-63933183D01*
X151055109Y-64076040D01*
X151007490Y-64171278D01*
X150959871Y-64218897D01*
X150864633Y-64266516D01*
X150483680Y-64266516D01*
X152007490Y-64742706D02*
X151436061Y-64742706D01*
X151721776Y-64742706D02*
X151721776Y-63742706D01*
X151626537Y-63885564D01*
X151531299Y-63980802D01*
X151436061Y-64028421D01*
G04 #@! TO.C,R25*
X176107142Y-101952380D02*
X175773809Y-101476190D01*
X175535714Y-101952380D02*
X175535714Y-100952380D01*
X175916666Y-100952380D01*
X176011904Y-101000000D01*
X176059523Y-101047619D01*
X176107142Y-101142857D01*
X176107142Y-101285714D01*
X176059523Y-101380952D01*
X176011904Y-101428571D01*
X175916666Y-101476190D01*
X175535714Y-101476190D01*
X176488095Y-101047619D02*
X176535714Y-101000000D01*
X176630952Y-100952380D01*
X176869047Y-100952380D01*
X176964285Y-101000000D01*
X177011904Y-101047619D01*
X177059523Y-101142857D01*
X177059523Y-101238095D01*
X177011904Y-101380952D01*
X176440476Y-101952380D01*
X177059523Y-101952380D01*
X177964285Y-100952380D02*
X177488095Y-100952380D01*
X177440476Y-101428571D01*
X177488095Y-101380952D01*
X177583333Y-101333333D01*
X177821428Y-101333333D01*
X177916666Y-101380952D01*
X177964285Y-101428571D01*
X178011904Y-101523809D01*
X178011904Y-101761904D01*
X177964285Y-101857142D01*
X177916666Y-101904761D01*
X177821428Y-101952380D01*
X177583333Y-101952380D01*
X177488095Y-101904761D01*
X177440476Y-101857142D01*
G04 #@! TO.C,D1*
X166952380Y-98488095D02*
X165952380Y-98488095D01*
X165952380Y-98250000D01*
X166000000Y-98107142D01*
X166095238Y-98011904D01*
X166190476Y-97964285D01*
X166380952Y-97916666D01*
X166523809Y-97916666D01*
X166714285Y-97964285D01*
X166809523Y-98011904D01*
X166904761Y-98107142D01*
X166952380Y-98250000D01*
X166952380Y-98488095D01*
X166952380Y-96964285D02*
X166952380Y-97535714D01*
X166952380Y-97250000D02*
X165952380Y-97250000D01*
X166095238Y-97345238D01*
X166190476Y-97440476D01*
X166238095Y-97535714D01*
G04 #@! TO.C,D2*
X161011904Y-68202380D02*
X161011904Y-67202380D01*
X161250000Y-67202380D01*
X161392857Y-67250000D01*
X161488095Y-67345238D01*
X161535714Y-67440476D01*
X161583333Y-67630952D01*
X161583333Y-67773809D01*
X161535714Y-67964285D01*
X161488095Y-68059523D01*
X161392857Y-68154761D01*
X161250000Y-68202380D01*
X161011904Y-68202380D01*
X161964285Y-67297619D02*
X162011904Y-67250000D01*
X162107142Y-67202380D01*
X162345238Y-67202380D01*
X162440476Y-67250000D01*
X162488095Y-67297619D01*
X162535714Y-67392857D01*
X162535714Y-67488095D01*
X162488095Y-67630952D01*
X161916666Y-68202380D01*
X162535714Y-68202380D01*
G04 #@! TO.C,D3*
X167952380Y-94238095D02*
X166952380Y-94238095D01*
X166952380Y-94000000D01*
X167000000Y-93857142D01*
X167095238Y-93761904D01*
X167190476Y-93714285D01*
X167380952Y-93666666D01*
X167523809Y-93666666D01*
X167714285Y-93714285D01*
X167809523Y-93761904D01*
X167904761Y-93857142D01*
X167952380Y-94000000D01*
X167952380Y-94238095D01*
X166952380Y-93333333D02*
X166952380Y-92714285D01*
X167333333Y-93047619D01*
X167333333Y-92904761D01*
X167380952Y-92809523D01*
X167428571Y-92761904D01*
X167523809Y-92714285D01*
X167761904Y-92714285D01*
X167857142Y-92761904D01*
X167904761Y-92809523D01*
X167952380Y-92904761D01*
X167952380Y-93190476D01*
X167904761Y-93285714D01*
X167857142Y-93333333D01*
G04 #@! TO.C,D4*
X162011904Y-91202380D02*
X162011904Y-90202380D01*
X162250000Y-90202380D01*
X162392857Y-90250000D01*
X162488095Y-90345238D01*
X162535714Y-90440476D01*
X162583333Y-90630952D01*
X162583333Y-90773809D01*
X162535714Y-90964285D01*
X162488095Y-91059523D01*
X162392857Y-91154761D01*
X162250000Y-91202380D01*
X162011904Y-91202380D01*
X163440476Y-90535714D02*
X163440476Y-91202380D01*
X163202380Y-90154761D02*
X162964285Y-90869047D01*
X163583333Y-90869047D01*
G04 #@! TO.C,U5*
X165202380Y-55261904D02*
X166011904Y-55261904D01*
X166107142Y-55214285D01*
X166154761Y-55166666D01*
X166202380Y-55071428D01*
X166202380Y-54880952D01*
X166154761Y-54785714D01*
X166107142Y-54738095D01*
X166011904Y-54690476D01*
X165202380Y-54690476D01*
X165202380Y-53738095D02*
X165202380Y-54214285D01*
X165678571Y-54261904D01*
X165630952Y-54214285D01*
X165583333Y-54119047D01*
X165583333Y-53880952D01*
X165630952Y-53785714D01*
X165678571Y-53738095D01*
X165773809Y-53690476D01*
X166011904Y-53690476D01*
X166107142Y-53738095D01*
X166154761Y-53785714D01*
X166202380Y-53880952D01*
X166202380Y-54119047D01*
X166154761Y-54214285D01*
X166107142Y-54261904D01*
G04 #@! TO.C,*
G04 #@! TD*
M02*
